<?xml version="1.0" encoding="UTF-8" standalone="no"?>
<!-- Created with Inkscape (http://www.inkscape.org/) -->

<svg
   width="105.83334mm"
   height="68.194473mm"
   viewBox="0 0 105.83334 68.194473"
   version="1.1"
   id="svg1"
   inkscape:version="1.4 (86a8ad7, 2024-10-11)"
   sodipodi:docname="cylinder.svg"
   xmlns:inkscape="http://www.inkscape.org/namespaces/inkscape"
   xmlns:sodipodi="http://sodipodi.sourceforge.net/DTD/sodipodi-0.dtd"
   xmlns="http://www.w3.org/2000/svg"
   xmlns:svg="http://www.w3.org/2000/svg">
  <sodipodi:namedview
     id="namedview1"
     pagecolor="#ffffff"
     bordercolor="#000000"
     borderopacity="0.25"
     inkscape:showpageshadow="2"
     inkscape:pageopacity="0.0"
     inkscape:pagecheckerboard="0"
     inkscape:deskcolor="#d1d1d1"
     inkscape:document-units="mm"
     inkscape:zoom="1.3095539"
     inkscape:cx="63.762171"
     inkscape:cy="108.81568"
     inkscape:window-width="1920"
     inkscape:window-height="974"
     inkscape:window-x="-11"
     inkscape:window-y="-11"
     inkscape:window-maximized="1"
     inkscape:current-layer="layer1" />
  <defs
     id="defs1">
    <inkscape:path-effect
       effect="bspline"
       id="path-effect27"
       is_visible="true"
       lpeversion="1.3"
       weight="33.333333"
       steps="2"
       helper_size="0"
       apply_no_weight="true"
       apply_with_weight="true"
       only_selected="false"
       uniform="false" />
    <inkscape:path-effect
       effect="bspline"
       id="path-effect25"
       is_visible="true"
       lpeversion="1.3"
       weight="33.333333"
       steps="2"
       helper_size="0"
       apply_no_weight="true"
       apply_with_weight="true"
       only_selected="false"
       uniform="false" />
    <inkscape:path-effect
       effect="bspline"
       id="path-effect23"
       is_visible="true"
       lpeversion="1.3"
       weight="33.333333"
       steps="2"
       helper_size="0"
       apply_no_weight="true"
       apply_with_weight="true"
       only_selected="false"
       uniform="false" />
    <inkscape:path-effect
       effect="bspline"
       id="path-effect21"
       is_visible="true"
       lpeversion="1.3"
       weight="33.333333"
       steps="2"
       helper_size="0"
       apply_no_weight="true"
       apply_with_weight="true"
       only_selected="false"
       uniform="false" />
    <marker
       style="overflow:visible"
       id="marker14"
       refX="0"
       refY="0"
       orient="auto-start-reverse"
       inkscape:stockid="Concave triangle arrow"
       markerWidth="1"
       markerHeight="1"
       viewBox="0 0 1 1"
       inkscape:isstock="true"
       inkscape:collect="always"
       preserveAspectRatio="xMidYMid">
      <path
         transform="scale(0.7)"
         d="M -2,-4 9,0 -2,4 c 2,-2.33 2,-5.66 0,-8 z"
         style="fill:context-stroke;fill-rule:evenodd;stroke:none"
         id="path14" />
    </marker>
    <inkscape:path-effect
       effect="bspline"
       id="path-effect13"
       is_visible="true"
       lpeversion="1.3"
       weight="33.333333"
       steps="2"
       helper_size="0"
       apply_no_weight="true"
       apply_with_weight="true"
       only_selected="false"
       uniform="false" />
    <marker
       style="overflow:visible"
       id="marker12"
       refX="0"
       refY="0"
       orient="auto-start-reverse"
       inkscape:stockid="Concave triangle arrow"
       markerWidth="1"
       markerHeight="1"
       viewBox="0 0 1 1"
       inkscape:isstock="true"
       inkscape:collect="always"
       preserveAspectRatio="xMidYMid">
      <path
         transform="scale(0.7)"
         d="M -2,-4 9,0 -2,4 c 2,-2.33 2,-5.66 0,-8 z"
         style="fill:context-stroke;fill-rule:evenodd;stroke:none"
         id="path12" />
    </marker>
    <marker
       style="overflow:visible"
       id="marker11"
       refX="0"
       refY="0"
       orient="auto-start-reverse"
       inkscape:stockid="Concave triangle arrow"
       markerWidth="1"
       markerHeight="1"
       viewBox="0 0 1 1"
       inkscape:isstock="true"
       inkscape:collect="always"
       preserveAspectRatio="xMidYMid">
      <path
         transform="scale(0.7)"
         d="M -2,-4 9,0 -2,4 c 2,-2.33 2,-5.66 0,-8 z"
         style="fill:context-stroke;fill-rule:evenodd;stroke:none"
         id="path11" />
    </marker>
    <inkscape:path-effect
       effect="bspline"
       id="path-effect11"
       is_visible="true"
       lpeversion="1.3"
       weight="33.333333"
       steps="2"
       helper_size="0"
       apply_no_weight="true"
       apply_with_weight="true"
       only_selected="false"
       uniform="false" />
    <inkscape:path-effect
       effect="bspline"
       id="path-effect9"
       is_visible="true"
       lpeversion="1.3"
       weight="33.333333"
       steps="2"
       helper_size="0"
       apply_no_weight="true"
       apply_with_weight="true"
       only_selected="false"
       uniform="false" />
    <marker
       style="overflow:visible"
       id="ConcaveTriangle"
       refX="0"
       refY="0"
       orient="auto-start-reverse"
       inkscape:stockid="Concave triangle arrow"
       markerWidth="1"
       markerHeight="1"
       viewBox="0 0 1 1"
       inkscape:isstock="true"
       inkscape:collect="always"
       preserveAspectRatio="xMidYMid">
      <path
         transform="scale(0.7)"
         d="M -2,-4 9,0 -2,4 c 2,-2.33 2,-5.66 0,-8 z"
         style="fill:context-stroke;fill-rule:evenodd;stroke:none"
         id="path7" />
    </marker>
    <inkscape:path-effect
       effect="bspline"
       id="path-effect6"
       is_visible="true"
       lpeversion="1.3"
       weight="33.333333"
       steps="2"
       helper_size="0"
       apply_no_weight="true"
       apply_with_weight="true"
       only_selected="false"
       uniform="false" />
    <inkscape:path-effect
       effect="bspline"
       id="path-effect2"
       is_visible="true"
       lpeversion="1.3"
       weight="33.333333"
       steps="2"
       helper_size="0"
       apply_no_weight="true"
       apply_with_weight="true"
       only_selected="false"
       uniform="false" />
  </defs>
  <g
     inkscape:groupmode="layer"
     id="layer2"
     inkscape:label="water and air">
    <rect
       style="fill:#ffffff;fill-opacity:1;stroke:none;stroke-width:0.241634;stroke-dasharray:none;stroke-opacity:1"
       id="rect20"
       width="105.83333"
       height="21.989866"
       x="0"
       y="0"
       inkscape:label="air" />
    <rect
       style="fill:#b5d4ff;fill-opacity:1;stroke:none;stroke-width:0.265518;stroke-opacity:1"
       id="rect5"
       width="105.83333"
       height="46.468048"
       x="8.7193084e-06"
       y="21.726423"
       inkscape:label="water" />
    <path
       sodipodi:type="star"
       style="fill:#b5d4ff;fill-opacity:1;stroke:none;stroke-width:0.264583;stroke-dasharray:none;stroke-opacity:1"
       id="path20"
       inkscape:flatsided="false"
       sodipodi:sides="3"
       sodipodi:cx="10.657653"
       sodipodi:cy="16.870407"
       sodipodi:r1="3.9365568"
       sodipodi:r2="1.9682785"
       sodipodi:arg1="-0.52359878"
       sodipodi:arg2="0.52359878"
       inkscape:rounded="0"
       inkscape:randomized="0"
       d="m 14.066811,14.902129 -1.704579,2.952417 -1.704579,2.952418 -1.7045794,-2.952418 -1.704579,-2.952417 3.4091584,0 z"
       inkscape:transform-center-y="0.81685867"
       transform="matrix(0.83002367,0,0,0.83002367,-2.0041482,4.4561513)" />
    <path
       style="fill:#b5d4ff;fill-opacity:1;stroke:#ffffff;stroke-width:0.264583;stroke-dasharray:none;stroke-opacity:1"
       d="m 3.5107395,14.722111 c 1.6506479,0 3.3012954,0 4.9519432,0"
       id="path21"
       inkscape:path-effect="#path-effect21"
       inkscape:original-d="m 3.5107395,14.722111 c 1.6506479,0 3.3012954,0 4.9519432,0"
       transform="matrix(1.1428572,0,0,1.1428572,9.1261749e-8,5.6571054)" />
    <path
       style="fill:#b5d4ff;fill-opacity:1;stroke:#ffffff;stroke-width:0.350022;stroke-dasharray:none;stroke-opacity:1"
       d="m 3.5107395,14.722111 c 1.6506479,0 3.3012954,0 4.9519432,0"
       id="path22"
       inkscape:path-effect="#path-effect23"
       inkscape:original-d="m 3.5107395,14.722111 c 1.6506479,0 3.3012954,0 4.9519432,0"
       transform="matrix(0.76480576,0,0,0.86389222,2.2632847,10.936678)" />
    <path
       style="fill:#b5d4ff;fill-opacity:1;stroke:#ffffff;stroke-width:0.350022;stroke-dasharray:none;stroke-opacity:1"
       d="m 3.5107395,14.722111 c 1.6506479,0 3.3012954,0 4.9519432,0"
       id="path25"
       inkscape:path-effect="#path-effect27"
       inkscape:original-d="m 3.5107395,14.722111 c 1.6506479,0 3.3012954,0 4.9519432,0"
       transform="matrix(0.39474005,0,0,0.86389222,4.4787613,12.146203)" />
  </g>
  <g
     inkscape:groupmode="layer"
     id="layer5"
     inkscape:label="cylinder">
    <path
       style="display:inline;fill:#ffffff;fill-opacity:1;stroke:none;stroke-width:0.265518;stroke-opacity:1"
       id="path5"
       sodipodi:type="arc"
       sodipodi:cx="52.916706"
       sodipodi:cy="21.726423"
       sodipodi:rx="25.794508"
       sodipodi:ry="25.794508"
       sodipodi:start="0"
       sodipodi:end="3.1415927"
       sodipodi:arc-type="slice"
       d="M 78.711214,21.726423 A 25.794508,25.794508 0 0 1 65.81396,44.065123 25.794508,25.794508 0 0 1 40.019451,44.065122 25.794508,25.794508 0 0 1 27.122198,21.726423 H 52.916706 Z"
       inkscape:label="cylinder_background" />
    <path
       style="display:inline;fill:none;stroke:#000000;stroke-width:0.526888;stroke-dasharray:none;stroke-opacity:1"
       id="path1"
       sodipodi:type="arc"
       sodipodi:cx="52.916706"
       sodipodi:cy="21.726423"
       sodipodi:rx="25.794508"
       sodipodi:ry="25.794508"
       sodipodi:start="0"
       sodipodi:end="3.1415927"
       sodipodi:arc-type="arc"
       d="M 78.711214,21.726423 A 25.794508,25.794508 0 0 1 65.81396,44.065123 25.794508,25.794508 0 0 1 40.019451,44.065122 25.794508,25.794508 0 0 1 27.122198,21.726423"
       sodipodi:open="true"
       inkscape:label="cylinder" />
    <path
       style="display:inline;fill:#000000;fill-opacity:1;stroke:#001bff;stroke-width:0.396875;stroke-dasharray:none;stroke-opacity:1"
       d="m 92.861878,90.290321 c 12.953042,0 25.906082,0 38.859122,0"
       id="path2"
       inkscape:path-effect="#path-effect2"
       inkscape:original-d="m 92.861878,90.290321 c 12.953042,0 25.906082,0 38.859122,0"
       transform="matrix(1.3275908,0,0,1.3275908,-96.160375,-98.142167)"
       inkscape:label="lid" />
  </g>
  <g
     inkscape:groupmode="layer"
     id="layer4"
     inkscape:label="normal vectors">
    <path
       style="display:inline;fill:#ffffff;fill-opacity:1;stroke:#23d82a;stroke-width:0.871614;stroke-dasharray:none;stroke-opacity:1;marker-end:url(#ConcaveTriangle)"
       d="m 99.721364,105.10589 c 4.190016,-4.93852 8.380036,-9.877046 12.570056,-14.815569"
       id="path6"
       inkscape:path-effect="#path-effect6"
       inkscape:original-d="m 99.721364,105.10589 c 4.190016,-4.93852 8.380036,-9.877047 12.570056,-14.815569"
       transform="matrix(0.4029975,0,0,0.4029975,-4.0802806,-0.85880266)"
       inkscape:label="body_normal" />
    <path
       style="display:inline;fill:#ffffff;fill-opacity:1;stroke:#23d82a;stroke-width:0.264583;stroke-dasharray:none;stroke-opacity:1;marker-end:url(#marker14)"
       d="m 112.29144,90.290321 c 0,1.881047 0,3.762094 0,5.643144"
       id="path13"
       inkscape:path-effect="#path-effect13"
       inkscape:original-d="m 112.29144,90.290321 c 0,1.881047 0,3.762094 0,5.643144"
       transform="matrix(1.3275908,0,0,1.3275908,-104.59057,-98.142167)"
       inkscape:label="lid_normal" />
  </g>
  <g
     inkscape:groupmode="layer"
     id="layer3"
     inkscape:label="coord. system">
    <path
       style="display:inline;fill:#ffffff;fill-opacity:1;stroke:#e31d1d;stroke-width:0.264583;stroke-dasharray:none;stroke-opacity:1;marker-end:url(#marker12)"
       d="m 112.29142,90.290321 c 4.15626,0 8.31252,0 12.46878,0"
       id="path9"
       inkscape:path-effect="#path-effect9"
       inkscape:original-d="m 112.29142,90.290321 c 4.15626,0 8.31252,0 12.46878,0"
       transform="matrix(1.3275908,0,0,1.3275908,-96.160375,-98.142167)"
       inkscape:label="x" />
    <path
       style="display:inline;fill:#ffffff;fill-opacity:1;stroke:#e31d1d;stroke-width:0.264583;stroke-dasharray:none;stroke-opacity:1;marker-end:url(#marker11)"
       d="m 112.29142,90.290321 c 4.15626,0 8.31252,0 12.46878,0"
       id="path10"
       inkscape:path-effect="#path-effect11"
       inkscape:original-d="m 112.29142,90.290321 c 4.15626,0 8.31252,0 12.46878,0"
       transform="matrix(0,-1.3275908,1.3275908,0,-66.95192,170.80347)"
       inkscape:label="z" />
  </g>
  <g
     inkscape:groupmode="layer"
     id="layer1"
     inkscape:label="text"
     transform="translate(-72.432243,-73.925018)">
    <path
       d="m 113.38447,105.9408 h -1.0085 l 0.4066,-1.6264 q 0.0384,-0.15687 0.0736,-0.34577 0.0384,-0.18889 0.0384,-0.33937 0,-0.22731 -0.08,-0.32656 -0.0768,-0.0992 -0.24332,-0.0992 -0.13447,0 -0.29135,0.10565 -0.15367,0.10245 -0.32336,0.31055 -0.16968,0.2049 -0.28814,0.41941 -0.11526,0.2113 -0.17929,0.51545 l -0.29134,1.38628 h -0.55387 l 0.48664,-2.18667 q 0.016,-0.0736 0.0416,-0.21771 0.0288,-0.14407 0.0288,-0.24012 0,-0.0896 -0.0288,-0.13767 -0.0256,-0.0512 -0.0928,-0.0736 -0.064,-0.0256 -0.22091,-0.0352 l 0.0384,-0.16968 0.72676,-0.0288 h 0.18249 l -0.21451,0.83241 0.0384,0.0128 q 0.31376,-0.44182 0.6051,-0.65312 0.29134,-0.21451 0.58269,-0.21451 0.31055,0 0.47063,0.17289 0.16008,0.16968 0.16008,0.50584 0,0.11526 -0.0224,0.25293 -0.0192,0.13447 -0.0448,0.24012 l -0.26893,1.13976 q -0.0544,0.23051 -0.0544,0.36498 0,0.096 0.032,0.15047 0.032,0.0544 0.0992,0.0832 0.0672,0.0288 0.22091,0.0448 z"
       id="text14"
       style="font-style:italic;font-size:6.55683px;font-family:Cambria;-inkscape-font-specification:'Cambria Italic';fill:#23d82a;stroke-width:0.351258"
       aria-label="n" />
    <path
       d="m 130.31154,79.046142 -0.19529,0.899644 h -2.31794 l -0.0608,-0.156878 1.75126,-2.016993 q 0.37138,-0.42581 0.54427,-0.605098 l -0.0192,-0.02241 h -0.74917 q -0.16648,0 -0.24332,0.02241 -0.0768,0.02241 -0.15368,0.08004 -0.0768,0.05443 -0.16648,0.166482 -0.0864,0.108854 -0.19529,0.313755 h -0.28495 l 0.1889,-0.842015 h 2.27632 l 0.0608,0.160079 -2.29873,2.61889 0.0192,0.02241 h 0.72355 q 0.1921,0 0.29455,-0.01921 0.10245,-0.02241 0.17929,-0.08004 0.0768,-0.05763 0.15687,-0.172885 0.0832,-0.118459 0.2049,-0.368182 z"
       id="text15"
       style="font-style:italic;font-size:6.55683px;font-family:Cambria;-inkscape-font-specification:'Cambria Italic';fill:#e31d1d;stroke-width:0.351258"
       aria-label="z" />
    <path
       d="m 144.11527,90.359063 q -0.62111,0.662727 -1.29984,1.309445 l 0.29775,0.701146 q 0.11846,0.281738 0.18889,0.416205 0.0704,0.131264 0.12806,0.192094 0.0576,0.05763 0.11526,0.08644 0.0576,0.02561 0.18249,0.04162 l -0.0352,0.156878 h -0.79719 l -0.44502,-1.287034 q -0.0768,0.06723 -0.2049,0.188893 -0.12486,0.118458 -0.24332,0.256126 -0.11846,0.134466 -0.16648,0.217707 -0.048,0.08324 -0.064,0.144071 -0.0128,0.06083 -0.0128,0.124862 0,0.08324 0.0448,0.131264 0.048,0.04802 0.16008,0.06723 l -0.0352,0.156878 h -0.91245 l -0.0608,-0.156878 q 0.70115,-0.75237 1.37988,-1.386282 l -0.30415,-0.713952 q -0.0928,-0.217707 -0.15047,-0.329763 -0.0576,-0.115256 -0.11206,-0.176086 -0.0512,-0.06403 -0.12166,-0.09605 -0.0672,-0.03522 -0.19529,-0.04482 l 0.0352,-0.156877 h 0.79719 l 0.42581,1.206995 q 0.15688,-0.144071 0.29774,-0.297747 0.14087,-0.153676 0.1985,-0.24332 0.0576,-0.08964 0.08,-0.160079 0.0224,-0.07043 0.0224,-0.147272 0,-0.176087 -0.2049,-0.2017 l 0.0352,-0.156877 h 0.91245 z"
       id="text16"
       style="font-style:italic;font-size:6.55683px;font-family:Cambria;-inkscape-font-specification:'Cambria Italic';fill:#e31d1d;stroke-width:0.351258"
       aria-label="x" />
    <g
       id="text17"
       style="font-style:italic;font-size:6.55683px;font-family:Cambria;-inkscape-font-specification:'Cambria Italic';stroke-width:0.351258"
       aria-label="Sb">
      <path
         d="m 133.21842,114.99969 q 0,0.38739 0.17928,0.57948 0.17929,0.18889 0.56028,0.18889 0.29455,0 0.50585,-0.10885 0.2113,-0.10885 0.32016,-0.30735 0.10885,-0.2017 0.10885,-0.47704 0,-0.19529 -0.0704,-0.34256 -0.0672,-0.15048 -0.20811,-0.28494 -0.13766,-0.13767 -0.40019,-0.31376 -0.23692,-0.16008 -0.3938,-0.31375 -0.15687,-0.15688 -0.24972,-0.34898 -0.0928,-0.19209 -0.0928,-0.42901 0,-0.37778 0.18249,-0.66592 0.18249,-0.28815 0.51546,-0.44502 0.33296,-0.15688 0.76838,-0.15688 0.29454,0 0.54426,0.0416 0.25293,0.0384 0.55708,0.13447 l -0.17929,0.8228 h -0.30735 q -0.0128,-0.27213 -0.0832,-0.42581 -0.0704,-0.15688 -0.2017,-0.22411 -0.13127,-0.0672 -0.34897,-0.0672 -0.26573,0 -0.46743,0.10885 -0.2017,0.10885 -0.30735,0.29775 -0.10566,0.18569 -0.10566,0.4162 0,0.16648 0.0576,0.29775 0.0576,0.13126 0.18249,0.25933 0.12806,0.12486 0.37138,0.29134 0.31376,0.21771 0.47704,0.39059 0.16648,0.16969 0.24332,0.36178 0.08,0.1921 0.08,0.44502 0,0.38739 -0.18889,0.69154 -0.1857,0.30095 -0.52826,0.46743 -0.33937,0.16328 -0.77479,0.16328 -0.29774,0 -0.63391,-0.0448 -0.33296,-0.0448 -0.6115,-0.12166 l 0.1921,-0.88043 z"
         id="path3" />
      <path
         style="font-size:4.26194px;baseline-shift:sub"
         d="m 136.351,117.20477 -0.19145,0.13527 -0.13319,-0.0333 0.53899,-2.37861 q 0.0125,-0.052 0.0291,-0.14983 0.0187,-0.0978 0.0187,-0.15816 0,-0.0874 -0.0541,-0.12278 -0.052,-0.0354 -0.18937,-0.0395 l 0.025,-0.10821 0.5265,-0.0187 h 0.1207 l -0.36626,1.45671 0.0271,0.008 q 0.20186,-0.27054 0.37875,-0.39123 0.17689,-0.1207 0.35377,-0.1207 0.22684,0 0.3517,0.17272 0.12694,0.17273 0.12694,0.48696 0,0.22475 -0.0624,0.45158 -0.0603,0.22684 -0.17065,0.40997 -0.10821,0.18313 -0.24348,0.30174 -0.13318,0.11654 -0.28301,0.17481 -0.14776,0.0583 -0.31216,0.0583 -0.27677,0 -0.49112,-0.13527 z m 0.18313,-0.62222 q -0.0208,0.0936 -0.0271,0.16023 -0.004,0.0645 -0.004,0.12279 0,0.1644 0.0708,0.23723 0.0728,0.0728 0.23932,0.0728 0.10821,0 0.19769,-0.0416 0.0895,-0.0416 0.16857,-0.1207 0.0812,-0.0812 0.14567,-0.19562 0.0666,-0.11445 0.11654,-0.26013 0.0499,-0.14775 0.0749,-0.30383 0.0271,-0.15815 0.0271,-0.29342 0,-0.21643 -0.0624,-0.32464 -0.0603,-0.10821 -0.19562,-0.10821 -0.0999,0 -0.1977,0.0645 -0.0957,0.0624 -0.21434,0.21018 -0.11862,0.14567 -0.19354,0.29967 -0.0749,0.15399 -0.12694,0.39331 z"
         id="path4" />
    </g>
    <g
       id="text20"
       style="font-style:italic;font-size:6.55683px;font-family:Cambria;-inkscape-font-specification:'Cambria Italic';fill:#001bff;stroke-width:0.351258"
       aria-label="Si">
      <path
         d="m 110.55879,92.051902 q 0,0.387391 0.17929,0.579485 0.17929,0.188893 0.56028,0.188893 0.29454,0 0.50585,-0.108853 0.2113,-0.108854 0.32016,-0.307352 0.10885,-0.201699 0.10885,-0.477035 0,-0.195296 -0.0704,-0.342569 -0.0672,-0.150474 -0.2081,-0.28494 -0.13767,-0.137668 -0.4002,-0.313754 -0.23691,-0.160079 -0.39379,-0.313755 -0.15688,-0.156877 -0.24972,-0.348972 -0.0929,-0.192095 -0.0929,-0.429011 0,-0.377786 0.18249,-0.665928 0.18249,-0.288142 0.51546,-0.44502 0.33296,-0.156877 0.76837,-0.156877 0.29455,0 0.54427,0.04162 0.25293,0.03842 0.55708,0.134466 l -0.17929,0.822805 h -0.30735 q -0.0128,-0.272134 -0.0832,-0.42581 -0.0704,-0.156877 -0.2017,-0.22411 -0.13127,-0.06723 -0.34897,-0.06723 -0.26574,0 -0.46744,0.108854 -0.20169,0.108853 -0.30735,0.297746 -0.10565,0.185692 -0.10565,0.416205 0,0.166482 0.0576,0.297747 0.0576,0.131265 0.18249,0.259328 0.12806,0.124861 0.37138,0.291343 0.31376,0.217707 0.47704,0.390593 0.16648,0.169683 0.24332,0.361778 0.08,0.192094 0.08,0.445019 0,0.387391 -0.1889,0.691541 -0.18569,0.300948 -0.52826,0.46743 -0.33936,0.16328 -0.77478,0.16328 -0.29774,0 -0.63391,-0.04482 -0.33296,-0.04482 -0.6115,-0.12166 l 0.19209,-0.880433 z"
         id="path8" />
      <path
         style="font-size:4.26194px;baseline-shift:sub"
         d="m 114.37187,91.553736 -0.0957,0.403719 h -0.36835 l 0.0957,-0.403719 z m -0.51401,2.284966 q -0.0229,0.106132 -0.0291,0.156077 -0.006,0.04786 -0.006,0.08116 0,0.06243 0.0208,0.09781 0.0208,0.03538 0.0645,0.05411 0.0437,0.01873 0.14359,0.02913 l -0.0187,0.10197 h -0.64512 l 0.31423,-1.402611 q 0.0271,-0.120699 0.0375,-0.191454 0.0104,-0.07284 0.0104,-0.1207 0,-0.06035 -0.0187,-0.09365 -0.0166,-0.0333 -0.0583,-0.04994 -0.0416,-0.01665 -0.14359,-0.02081 l 0.0229,-0.110294 0.50777,-0.01873 h 0.12278 z"
         id="path15" />
    </g>
  </g>
</svg>
