<?xml version="1.0" encoding="utf-8" standalone="no"?>
<!DOCTYPE svg PUBLIC "-//W3C//DTD SVG 1.1//EN"
  "http://www.w3.org/Graphics/SVG/1.1/DTD/svg11.dtd">
<svg xmlns:xlink="http://www.w3.org/1999/xlink" width="427.903125pt" height="227.03625pt" viewBox="0 0 427.903125 227.03625" xmlns="http://www.w3.org/2000/svg" version="1.1">
 <metadata>
  <rdf:RDF xmlns:dc="http://purl.org/dc/elements/1.1/" xmlns:cc="http://creativecommons.org/ns#" xmlns:rdf="http://www.w3.org/1999/02/22-rdf-syntax-ns#">
   <cc:Work>
    <dc:type rdf:resource="http://purl.org/dc/dcmitype/StillImage"/>
    <dc:date>2025-08-23T00:06:47.530437</dc:date>
    <dc:format>image/svg+xml</dc:format>
    <dc:creator>
     <cc:Agent>
      <dc:title>Matplotlib v3.10.0, https://matplotlib.org/</dc:title>
     </cc:Agent>
    </dc:creator>
   </cc:Work>
  </rdf:RDF>
 </metadata>
 <defs>
  <style type="text/css">*{stroke-linejoin: round; stroke-linecap: butt}</style>
 </defs>
 <g id="figure_1">
  <g id="patch_1">
   <path d="M 0 227.03625 
L 427.903125 227.03625 
L 427.903125 0 
L 0 0 
z
" style="fill: #ffffff"/>
  </g>
  <g id="axes_1">
   <g id="patch_2">
    <path d="M 30.103125 189.48 
L 207.64858 189.48 
L 207.64858 23.16 
L 30.103125 23.16 
z
" style="fill: #ffffff"/>
   </g>
   <g id="matplotlib.axis_1">
    <g id="xtick_1">
     <g id="line2d_1">
      <defs>
       <path id="m893c3b9d97" d="M 0 0 
L 0 3.5 
" style="stroke: #000000; stroke-width: 0.8"/>
      </defs>
      <g>
       <use xlink:href="#m893c3b9d97" x="38.173373" y="189.48" style="stroke: #000000; stroke-width: 0.8"/>
      </g>
     </g>
     <g id="text_1">
      <!-- 0.0 -->
      <g transform="translate(30.22181 204.078438) scale(0.1 -0.1)">
       <defs>
        <path id="DejaVuSans-30" d="M 2034 4250 
Q 1547 4250 1301 3770 
Q 1056 3291 1056 2328 
Q 1056 1369 1301 889 
Q 1547 409 2034 409 
Q 2525 409 2770 889 
Q 3016 1369 3016 2328 
Q 3016 3291 2770 3770 
Q 2525 4250 2034 4250 
z
M 2034 4750 
Q 2819 4750 3233 4129 
Q 3647 3509 3647 2328 
Q 3647 1150 3233 529 
Q 2819 -91 2034 -91 
Q 1250 -91 836 529 
Q 422 1150 422 2328 
Q 422 3509 836 4129 
Q 1250 4750 2034 4750 
z
" transform="scale(0.015625)"/>
        <path id="DejaVuSans-2e" d="M 684 794 
L 1344 794 
L 1344 0 
L 684 0 
L 684 794 
z
" transform="scale(0.015625)"/>
       </defs>
       <use xlink:href="#DejaVuSans-30"/>
       <use xlink:href="#DejaVuSans-2e" transform="translate(63.623047 0)"/>
       <use xlink:href="#DejaVuSans-30" transform="translate(95.410156 0)"/>
      </g>
     </g>
    </g>
    <g id="xtick_2">
     <g id="line2d_2">
      <g>
       <use xlink:href="#m893c3b9d97" x="87.828934" y="189.48" style="stroke: #000000; stroke-width: 0.8"/>
      </g>
     </g>
     <g id="text_2">
      <!-- 0.5 -->
      <g transform="translate(79.877372 204.078438) scale(0.1 -0.1)">
       <defs>
        <path id="DejaVuSans-35" d="M 691 4666 
L 3169 4666 
L 3169 4134 
L 1269 4134 
L 1269 2991 
Q 1406 3038 1543 3061 
Q 1681 3084 1819 3084 
Q 2600 3084 3056 2656 
Q 3513 2228 3513 1497 
Q 3513 744 3044 326 
Q 2575 -91 1722 -91 
Q 1428 -91 1123 -41 
Q 819 9 494 109 
L 494 744 
Q 775 591 1075 516 
Q 1375 441 1709 441 
Q 2250 441 2565 725 
Q 2881 1009 2881 1497 
Q 2881 1984 2565 2268 
Q 2250 2553 1709 2553 
Q 1456 2553 1204 2497 
Q 953 2441 691 2322 
L 691 4666 
z
" transform="scale(0.015625)"/>
       </defs>
       <use xlink:href="#DejaVuSans-30"/>
       <use xlink:href="#DejaVuSans-2e" transform="translate(63.623047 0)"/>
       <use xlink:href="#DejaVuSans-35" transform="translate(95.410156 0)"/>
      </g>
     </g>
    </g>
    <g id="xtick_3">
     <g id="line2d_3">
      <g>
       <use xlink:href="#m893c3b9d97" x="137.484496" y="189.48" style="stroke: #000000; stroke-width: 0.8"/>
      </g>
     </g>
     <g id="text_3">
      <!-- 1.0 -->
      <g transform="translate(129.532934 204.078438) scale(0.1 -0.1)">
       <defs>
        <path id="DejaVuSans-31" d="M 794 531 
L 1825 531 
L 1825 4091 
L 703 3866 
L 703 4441 
L 1819 4666 
L 2450 4666 
L 2450 531 
L 3481 531 
L 3481 0 
L 794 0 
L 794 531 
z
" transform="scale(0.015625)"/>
       </defs>
       <use xlink:href="#DejaVuSans-31"/>
       <use xlink:href="#DejaVuSans-2e" transform="translate(63.623047 0)"/>
       <use xlink:href="#DejaVuSans-30" transform="translate(95.410156 0)"/>
      </g>
     </g>
    </g>
    <g id="xtick_4">
     <g id="line2d_4">
      <g>
       <use xlink:href="#m893c3b9d97" x="187.140058" y="189.48" style="stroke: #000000; stroke-width: 0.8"/>
      </g>
     </g>
     <g id="text_4">
      <!-- 1.5 -->
      <g transform="translate(179.188495 204.078438) scale(0.1 -0.1)">
       <use xlink:href="#DejaVuSans-31"/>
       <use xlink:href="#DejaVuSans-2e" transform="translate(63.623047 0)"/>
       <use xlink:href="#DejaVuSans-35" transform="translate(95.410156 0)"/>
      </g>
     </g>
    </g>
    <g id="text_5">
     <!-- $\omega^{\ast}$ -->
     <g transform="translate(111.375852 217.756563) scale(0.1 -0.1)">
      <defs>
       <path id="DejaVuSans-Oblique-3c9" d="M 1369 -91 
Q 72 -91 434 1766 
Q 575 2500 1256 3500 
L 1875 3500 
Q 1231 2500 1088 1750 
Q 819 397 1519 397 
Q 2166 397 2478 2078 
L 3009 2078 
Q 2669 388 3316 397 
Q 4013 403 4275 1750 
Q 4419 2500 4169 3500 
L 4788 3500 
Q 5075 2500 4934 1766 
Q 4578 -94 3278 -91 
Q 2428 -88 2503 844 
Q 2194 -91 1369 -91 
z
" transform="scale(0.015625)"/>
       <path id="DejaVuSans-2217" d="M 2153 2006 
L 816 2778 
L 1081 3238 
L 2419 2466 
L 2419 4013 
L 2944 4013 
L 2944 2466 
L 4281 3238 
L 4547 2778 
L 3209 2006 
L 4547 1234 
L 4281 775 
L 2944 1547 
L 2944 0 
L 2419 0 
L 2419 1547 
L 1081 775 
L 816 1234 
L 2153 2006 
z
" transform="scale(0.015625)"/>
      </defs>
      <use xlink:href="#DejaVuSans-Oblique-3c9" transform="translate(0 0.826562)"/>
      <use xlink:href="#DejaVuSans-2217" transform="translate(88.20638 39.107812) scale(0.7)"/>
     </g>
    </g>
   </g>
   <g id="matplotlib.axis_2">
    <g id="ytick_1">
     <g id="line2d_5">
      <defs>
       <path id="m5e91a89ac8" d="M 0 0 
L -3.5 0 
" style="stroke: #000000; stroke-width: 0.8"/>
      </defs>
      <g>
       <use xlink:href="#m5e91a89ac8" x="30.103125" y="155.778209" style="stroke: #000000; stroke-width: 0.8"/>
      </g>
     </g>
     <g id="text_6">
      <!-- 0.5 -->
      <g transform="translate(7.2 159.577428) scale(0.1 -0.1)">
       <use xlink:href="#DejaVuSans-30"/>
       <use xlink:href="#DejaVuSans-2e" transform="translate(63.623047 0)"/>
       <use xlink:href="#DejaVuSans-35" transform="translate(95.410156 0)"/>
      </g>
     </g>
    </g>
    <g id="ytick_2">
     <g id="line2d_6">
      <g>
       <use xlink:href="#m5e91a89ac8" x="30.103125" y="118.656281" style="stroke: #000000; stroke-width: 0.8"/>
      </g>
     </g>
     <g id="text_7">
      <!-- 1.0 -->
      <g transform="translate(7.2 122.4555) scale(0.1 -0.1)">
       <use xlink:href="#DejaVuSans-31"/>
       <use xlink:href="#DejaVuSans-2e" transform="translate(63.623047 0)"/>
       <use xlink:href="#DejaVuSans-30" transform="translate(95.410156 0)"/>
      </g>
     </g>
    </g>
    <g id="ytick_3">
     <g id="line2d_7">
      <g>
       <use xlink:href="#m5e91a89ac8" x="30.103125" y="81.534353" style="stroke: #000000; stroke-width: 0.8"/>
      </g>
     </g>
     <g id="text_8">
      <!-- 1.5 -->
      <g transform="translate(7.2 85.333572) scale(0.1 -0.1)">
       <use xlink:href="#DejaVuSans-31"/>
       <use xlink:href="#DejaVuSans-2e" transform="translate(63.623047 0)"/>
       <use xlink:href="#DejaVuSans-35" transform="translate(95.410156 0)"/>
      </g>
     </g>
    </g>
    <g id="ytick_4">
     <g id="line2d_8">
      <g>
       <use xlink:href="#m5e91a89ac8" x="30.103125" y="44.412425" style="stroke: #000000; stroke-width: 0.8"/>
      </g>
     </g>
     <g id="text_9">
      <!-- 2.0 -->
      <g transform="translate(7.2 48.211644) scale(0.1 -0.1)">
       <defs>
        <path id="DejaVuSans-32" d="M 1228 531 
L 3431 531 
L 3431 0 
L 469 0 
L 469 531 
Q 828 903 1448 1529 
Q 2069 2156 2228 2338 
Q 2531 2678 2651 2914 
Q 2772 3150 2772 3378 
Q 2772 3750 2511 3984 
Q 2250 4219 1831 4219 
Q 1534 4219 1204 4116 
Q 875 4013 500 3803 
L 500 4441 
Q 881 4594 1212 4672 
Q 1544 4750 1819 4750 
Q 2544 4750 2975 4387 
Q 3406 4025 3406 3419 
Q 3406 3131 3298 2873 
Q 3191 2616 2906 2266 
Q 2828 2175 2409 1742 
Q 1991 1309 1228 531 
z
" transform="scale(0.015625)"/>
       </defs>
       <use xlink:href="#DejaVuSans-32"/>
       <use xlink:href="#DejaVuSans-2e" transform="translate(63.623047 0)"/>
       <use xlink:href="#DejaVuSans-30" transform="translate(95.410156 0)"/>
      </g>
     </g>
    </g>
   </g>
   <g id="line2d_9">
    <path d="M 38.173373 44.412425 
L 64.003072 44.483158 
L 72.615016 44.030818 
L 77.077364 44.51896 
L 81.537669 45.483019 
L 85.356114 47.397164 
L 88.217904 49.308689 
L 91.075606 52.172048 
L 94.248105 55.988113 
L 97.09763 60.755138 
L 99.947155 65.522162 
L 103.111477 71.241893 
L 105.638029 76.959878 
L 109.11306 84.584149 
L 111.318682 90.777177 
L 113.84319 96.971078 
L 116.052901 102.212273 
L 118.577408 108.406174 
L 121.737642 115.077738 
L 124.583079 120.796596 
L 127.111675 126.038664 
L 129.327518 129.852109 
L 131.860203 134.142344 
L 134.394931 137.956662 
L 137.563341 142.72456 
L 141.369522 147.494205 
L 146.12827 153.218302 
L 150.891106 157.990566 
L 156.927439 163.24224 
L 162.015293 166.587628 
L 168.376644 170.412425 
L 175.377808 173.763052 
L 183.973399 177.118046 
L 191.933264 179.995376 
L 199.578332 181.92 
" clip-path="url(#p89db927f9b)" style="fill: none; stroke: #000000; stroke-width: 1.5; stroke-linecap: square"/>
   </g>
   <g id="line2d_10">
    <path d="M 46.100273 47.438254 
L 47.621598 47.420554 
L 49.142922 47.394466 
L 50.664246 47.358598 
L 52.185571 47.311831 
L 53.706895 47.253399 
L 55.228219 47.182961 
L 56.749543 47.100679 
L 58.270868 47.007289 
L 59.792192 46.904182 
L 61.313516 46.793478 
L 62.834841 46.678116 
L 64.356165 46.561926 
L 65.877489 46.449723 
L 67.398814 46.347384 
L 68.920138 46.261925 
L 70.441462 46.201575 
L 71.962787 46.175819 
L 73.484111 46.195438 
L 75.005435 46.272498 
L 76.526759 46.420312 
L 78.048084 46.653336 
L 79.569408 46.987008 
L 81.090732 47.437502 
L 82.612057 48.021408 
L 84.133381 48.755311 
L 85.654705 49.655294 
L 87.17603 50.736361 
L 88.697354 52.011807 
L 90.218678 53.492571 
L 91.740003 55.186597 
L 93.261327 57.098279 
L 94.782651 59.228011 
L 96.303975 61.571907 
L 97.8253 64.121717 
L 99.346624 66.864966 
L 100.867948 69.785303 
L 102.389273 72.863055 
L 103.910597 76.075921 
L 105.431921 79.399777 
L 106.953246 82.809515 
L 108.47457 86.279859 
L 109.995894 89.78612 
L 111.517219 93.304826 
L 113.038543 96.814239 
L 114.559867 100.294712 
L 116.081191 103.728922 
L 117.602516 107.101971 
L 119.12384 110.401384 
L 120.645164 113.617026 
L 122.166489 116.740947 
L 123.687813 119.767203 
L 125.209137 122.691638 
L 126.730462 125.511665 
L 128.251786 128.226045 
L 129.77311 130.834683 
L 131.294435 133.338428 
L 132.815759 135.738901 
L 134.337083 138.038337 
L 135.858407 140.239448 
L 137.379732 142.345305 
L 138.901056 144.359237 
L 140.42238 146.284748 
L 141.943705 148.125446 
L 143.465029 149.884982 
L 144.986353 151.567008 
L 146.507678 153.175136 
L 148.029002 154.712909 
L 149.550326 156.183778 
L 151.071651 157.591081 
L 152.592975 158.938036 
L 154.114299 160.227726 
L 155.635623 161.463094 
L 157.156948 162.64694 
L 158.678272 163.781916 
L 160.199596 164.870532 
L 161.720921 165.915149 
L 163.242245 166.917985 
L 164.763569 167.88112 
L 166.284894 168.806494 
L 167.806218 169.695914 
L 169.327542 170.55106 
L 170.848867 171.373486 
L 172.370191 172.164627 
L 173.891515 172.925804 
L 175.41284 173.65823 
L 176.934164 174.363014 
L 178.455488 175.041171 
L 179.976812 175.693622 
L 181.498137 176.321205 
L 183.019461 176.924682 
L 184.540785 177.504743 
L 186.06211 178.062014 
L 187.583434 178.597067 
L 189.104758 179.110425 
L 190.626083 179.602571 
L 192.147407 180.073959 
L 193.668731 180.525017 
L 195.190056 180.956162 
L 196.71138 181.367805 
" clip-path="url(#p89db927f9b)" style="fill: none; stroke-dasharray: 1.5,2.475; stroke-dashoffset: 0; stroke: #ff0000; stroke-width: 1.5"/>
   </g>
   <g id="line2d_11">
    <defs>
     <path id="mbe6a8d6835" d="M 0 2 
C 0.530406 2 1.03916 1.789267 1.414214 1.414214 
C 1.789267 1.03916 2 0.530406 2 0 
C 2 -0.530406 1.789267 -1.03916 1.414214 -1.414214 
C 1.03916 -1.789267 0.530406 -2 0 -2 
C -0.530406 -2 -1.03916 -1.789267 -1.414214 -1.414214 
C -1.789267 -1.03916 -2 -0.530406 -2 0 
C -2 0.530406 -1.789267 1.03916 -1.414214 1.414214 
C -1.03916 1.789267 -0.530406 2 0 2 
z
" style="stroke: #0000ff"/>
    </defs>
    <g clip-path="url(#p89db927f9b)">
     <use xlink:href="#mbe6a8d6835" x="78.0933" y="30.72" style="fill: #bfbf00; stroke: #0000ff"/>
     <use xlink:href="#mbe6a8d6835" x="78.371302" y="40.239204" style="fill: #bfbf00; stroke: #0000ff"/>
     <use xlink:href="#mbe6a8d6835" x="81.879039" y="40.24881" style="fill: #bfbf00; stroke: #0000ff"/>
     <use xlink:href="#mbe6a8d6835" x="86.973026" y="42.166448" style="fill: #bfbf00; stroke: #0000ff"/>
     <use xlink:href="#mbe6a8d6835" x="94.264458" y="52.18078" style="fill: #bfbf00; stroke: #0000ff"/>
     <use xlink:href="#mbe6a8d6835" x="94.87361" y="58.845359" style="fill: #bfbf00; stroke: #0000ff"/>
     <use xlink:href="#mbe6a8d6835" x="106.907437" y="78.391121" style="fill: #bfbf00; stroke: #0000ff"/>
     <use xlink:href="#mbe6a8d6835" x="116.995247" y="105.546308" style="fill: #bfbf00; stroke: #0000ff"/>
     <use xlink:href="#mbe6a8d6835" x="134.658624" y="150.807283" style="fill: #bfbf00; stroke: #0000ff"/>
     <use xlink:href="#mbe6a8d6835" x="135.282086" y="154.140445" style="fill: #bfbf00; stroke: #0000ff"/>
    </g>
   </g>
   <g id="patch_3">
    <path d="M 30.103125 189.48 
L 30.103125 23.16 
" style="fill: none; stroke: #000000; stroke-width: 0.8; stroke-linejoin: miter; stroke-linecap: square"/>
   </g>
   <g id="patch_4">
    <path d="M 207.64858 189.48 
L 207.64858 23.16 
" style="fill: none; stroke: #000000; stroke-width: 0.8; stroke-linejoin: miter; stroke-linecap: square"/>
   </g>
   <g id="patch_5">
    <path d="M 30.103125 189.48 
L 207.64858 189.48 
" style="fill: none; stroke: #000000; stroke-width: 0.8; stroke-linejoin: miter; stroke-linecap: square"/>
   </g>
   <g id="patch_6">
    <path d="M 30.103125 23.16 
L 207.64858 23.16 
" style="fill: none; stroke: #000000; stroke-width: 0.8; stroke-linejoin: miter; stroke-linecap: square"/>
   </g>
   <g id="text_10">
    <!-- Sway force $f^{\ast}_x$ -->
    <g transform="translate(77.595852 17.16) scale(0.12 -0.12)">
     <defs>
      <path id="DejaVuSans-53" d="M 3425 4513 
L 3425 3897 
Q 3066 4069 2747 4153 
Q 2428 4238 2131 4238 
Q 1616 4238 1336 4038 
Q 1056 3838 1056 3469 
Q 1056 3159 1242 3001 
Q 1428 2844 1947 2747 
L 2328 2669 
Q 3034 2534 3370 2195 
Q 3706 1856 3706 1288 
Q 3706 609 3251 259 
Q 2797 -91 1919 -91 
Q 1588 -91 1214 -16 
Q 841 59 441 206 
L 441 856 
Q 825 641 1194 531 
Q 1563 422 1919 422 
Q 2459 422 2753 634 
Q 3047 847 3047 1241 
Q 3047 1584 2836 1778 
Q 2625 1972 2144 2069 
L 1759 2144 
Q 1053 2284 737 2584 
Q 422 2884 422 3419 
Q 422 4038 858 4394 
Q 1294 4750 2059 4750 
Q 2388 4750 2728 4690 
Q 3069 4631 3425 4513 
z
" transform="scale(0.015625)"/>
      <path id="DejaVuSans-77" d="M 269 3500 
L 844 3500 
L 1563 769 
L 2278 3500 
L 2956 3500 
L 3675 769 
L 4391 3500 
L 4966 3500 
L 4050 0 
L 3372 0 
L 2619 2869 
L 1863 0 
L 1184 0 
L 269 3500 
z
" transform="scale(0.015625)"/>
      <path id="DejaVuSans-61" d="M 2194 1759 
Q 1497 1759 1228 1600 
Q 959 1441 959 1056 
Q 959 750 1161 570 
Q 1363 391 1709 391 
Q 2188 391 2477 730 
Q 2766 1069 2766 1631 
L 2766 1759 
L 2194 1759 
z
M 3341 1997 
L 3341 0 
L 2766 0 
L 2766 531 
Q 2569 213 2275 61 
Q 1981 -91 1556 -91 
Q 1019 -91 701 211 
Q 384 513 384 1019 
Q 384 1609 779 1909 
Q 1175 2209 1959 2209 
L 2766 2209 
L 2766 2266 
Q 2766 2663 2505 2880 
Q 2244 3097 1772 3097 
Q 1472 3097 1187 3025 
Q 903 2953 641 2809 
L 641 3341 
Q 956 3463 1253 3523 
Q 1550 3584 1831 3584 
Q 2591 3584 2966 3190 
Q 3341 2797 3341 1997 
z
" transform="scale(0.015625)"/>
      <path id="DejaVuSans-79" d="M 2059 -325 
Q 1816 -950 1584 -1140 
Q 1353 -1331 966 -1331 
L 506 -1331 
L 506 -850 
L 844 -850 
Q 1081 -850 1212 -737 
Q 1344 -625 1503 -206 
L 1606 56 
L 191 3500 
L 800 3500 
L 1894 763 
L 2988 3500 
L 3597 3500 
L 2059 -325 
z
" transform="scale(0.015625)"/>
      <path id="DejaVuSans-20" transform="scale(0.015625)"/>
      <path id="DejaVuSans-66" d="M 2375 4863 
L 2375 4384 
L 1825 4384 
Q 1516 4384 1395 4259 
Q 1275 4134 1275 3809 
L 1275 3500 
L 2222 3500 
L 2222 3053 
L 1275 3053 
L 1275 0 
L 697 0 
L 697 3053 
L 147 3053 
L 147 3500 
L 697 3500 
L 697 3744 
Q 697 4328 969 4595 
Q 1241 4863 1831 4863 
L 2375 4863 
z
" transform="scale(0.015625)"/>
      <path id="DejaVuSans-6f" d="M 1959 3097 
Q 1497 3097 1228 2736 
Q 959 2375 959 1747 
Q 959 1119 1226 758 
Q 1494 397 1959 397 
Q 2419 397 2687 759 
Q 2956 1122 2956 1747 
Q 2956 2369 2687 2733 
Q 2419 3097 1959 3097 
z
M 1959 3584 
Q 2709 3584 3137 3096 
Q 3566 2609 3566 1747 
Q 3566 888 3137 398 
Q 2709 -91 1959 -91 
Q 1206 -91 779 398 
Q 353 888 353 1747 
Q 353 2609 779 3096 
Q 1206 3584 1959 3584 
z
" transform="scale(0.015625)"/>
      <path id="DejaVuSans-72" d="M 2631 2963 
Q 2534 3019 2420 3045 
Q 2306 3072 2169 3072 
Q 1681 3072 1420 2755 
Q 1159 2438 1159 1844 
L 1159 0 
L 581 0 
L 581 3500 
L 1159 3500 
L 1159 2956 
Q 1341 3275 1631 3429 
Q 1922 3584 2338 3584 
Q 2397 3584 2469 3576 
Q 2541 3569 2628 3553 
L 2631 2963 
z
" transform="scale(0.015625)"/>
      <path id="DejaVuSans-63" d="M 3122 3366 
L 3122 2828 
Q 2878 2963 2633 3030 
Q 2388 3097 2138 3097 
Q 1578 3097 1268 2742 
Q 959 2388 959 1747 
Q 959 1106 1268 751 
Q 1578 397 2138 397 
Q 2388 397 2633 464 
Q 2878 531 3122 666 
L 3122 134 
Q 2881 22 2623 -34 
Q 2366 -91 2075 -91 
Q 1284 -91 818 406 
Q 353 903 353 1747 
Q 353 2603 823 3093 
Q 1294 3584 2113 3584 
Q 2378 3584 2631 3529 
Q 2884 3475 3122 3366 
z
" transform="scale(0.015625)"/>
      <path id="DejaVuSans-65" d="M 3597 1894 
L 3597 1613 
L 953 1613 
Q 991 1019 1311 708 
Q 1631 397 2203 397 
Q 2534 397 2845 478 
Q 3156 559 3463 722 
L 3463 178 
Q 3153 47 2828 -22 
Q 2503 -91 2169 -91 
Q 1331 -91 842 396 
Q 353 884 353 1716 
Q 353 2575 817 3079 
Q 1281 3584 2069 3584 
Q 2775 3584 3186 3129 
Q 3597 2675 3597 1894 
z
M 3022 2063 
Q 3016 2534 2758 2815 
Q 2500 3097 2075 3097 
Q 1594 3097 1305 2825 
Q 1016 2553 972 2059 
L 3022 2063 
z
" transform="scale(0.015625)"/>
      <path id="DejaVuSans-Oblique-66" d="M 3059 4863 
L 2969 4384 
L 2419 4384 
Q 2106 4384 1964 4261 
Q 1822 4138 1753 3809 
L 1691 3500 
L 2638 3500 
L 2553 3053 
L 1606 3053 
L 1013 0 
L 434 0 
L 1031 3053 
L 481 3053 
L 563 3500 
L 1113 3500 
L 1159 3744 
Q 1278 4363 1576 4613 
Q 1875 4863 2516 4863 
L 3059 4863 
z
" transform="scale(0.015625)"/>
      <path id="DejaVuSans-Oblique-78" d="M 3841 3500 
L 2234 1784 
L 3219 0 
L 2559 0 
L 1819 1388 
L 531 0 
L -166 0 
L 1556 1844 
L 641 3500 
L 1300 3500 
L 1972 2234 
L 3144 3500 
L 3841 3500 
z
" transform="scale(0.015625)"/>
     </defs>
     <use xlink:href="#DejaVuSans-53" transform="translate(0 0.826562)"/>
     <use xlink:href="#DejaVuSans-77" transform="translate(63.476562 0.826562)"/>
     <use xlink:href="#DejaVuSans-61" transform="translate(145.263672 0.826562)"/>
     <use xlink:href="#DejaVuSans-79" transform="translate(206.542969 0.826562)"/>
     <use xlink:href="#DejaVuSans-20" transform="translate(265.722656 0.826562)"/>
     <use xlink:href="#DejaVuSans-66" transform="translate(297.509766 0.826562)"/>
     <use xlink:href="#DejaVuSans-6f" transform="translate(332.714844 0.826562)"/>
     <use xlink:href="#DejaVuSans-72" transform="translate(393.896484 0.826562)"/>
     <use xlink:href="#DejaVuSans-63" transform="translate(435.009766 0.826562)"/>
     <use xlink:href="#DejaVuSans-65" transform="translate(489.990234 0.826562)"/>
     <use xlink:href="#DejaVuSans-20" transform="translate(551.513672 0.826562)"/>
     <use xlink:href="#DejaVuSans-Oblique-66" transform="translate(583.300781 0.826562)"/>
     <use xlink:href="#DejaVuSans-2217" transform="translate(625.953568 39.107813) scale(0.7)"/>
     <use xlink:href="#DejaVuSans-Oblique-78" transform="translate(618.505859 -26.517188) scale(0.7)"/>
    </g>
   </g>
  </g>
  <g id="axes_2">
   <g id="patch_7">
    <path d="M 243.15767 189.48 
L 420.703125 189.48 
L 420.703125 23.16 
L 243.15767 23.16 
z
" style="fill: #ffffff"/>
   </g>
   <g id="matplotlib.axis_3">
    <g id="xtick_5">
     <g id="line2d_12">
      <g>
       <use xlink:href="#m893c3b9d97" x="251.227918" y="189.48" style="stroke: #000000; stroke-width: 0.8"/>
      </g>
     </g>
     <g id="text_11">
      <!-- 0.0 -->
      <g transform="translate(243.276356 204.078438) scale(0.1 -0.1)">
       <use xlink:href="#DejaVuSans-30"/>
       <use xlink:href="#DejaVuSans-2e" transform="translate(63.623047 0)"/>
       <use xlink:href="#DejaVuSans-30" transform="translate(95.410156 0)"/>
      </g>
     </g>
    </g>
    <g id="xtick_6">
     <g id="line2d_13">
      <g>
       <use xlink:href="#m893c3b9d97" x="300.834451" y="189.48" style="stroke: #000000; stroke-width: 0.8"/>
      </g>
     </g>
     <g id="text_12">
      <!-- 0.5 -->
      <g transform="translate(292.882888 204.078438) scale(0.1 -0.1)">
       <use xlink:href="#DejaVuSans-30"/>
       <use xlink:href="#DejaVuSans-2e" transform="translate(63.623047 0)"/>
       <use xlink:href="#DejaVuSans-35" transform="translate(95.410156 0)"/>
      </g>
     </g>
    </g>
    <g id="xtick_7">
     <g id="line2d_14">
      <g>
       <use xlink:href="#m893c3b9d97" x="350.440983" y="189.48" style="stroke: #000000; stroke-width: 0.8"/>
      </g>
     </g>
     <g id="text_13">
      <!-- 1.0 -->
      <g transform="translate(342.489421 204.078438) scale(0.1 -0.1)">
       <use xlink:href="#DejaVuSans-31"/>
       <use xlink:href="#DejaVuSans-2e" transform="translate(63.623047 0)"/>
       <use xlink:href="#DejaVuSans-30" transform="translate(95.410156 0)"/>
      </g>
     </g>
    </g>
    <g id="xtick_8">
     <g id="line2d_15">
      <g>
       <use xlink:href="#m893c3b9d97" x="400.047516" y="189.48" style="stroke: #000000; stroke-width: 0.8"/>
      </g>
     </g>
     <g id="text_14">
      <!-- 1.5 -->
      <g transform="translate(392.095954 204.078438) scale(0.1 -0.1)">
       <use xlink:href="#DejaVuSans-31"/>
       <use xlink:href="#DejaVuSans-2e" transform="translate(63.623047 0)"/>
       <use xlink:href="#DejaVuSans-35" transform="translate(95.410156 0)"/>
      </g>
     </g>
    </g>
    <g id="text_15">
     <!-- $\omega^{\ast}$ -->
     <g transform="translate(324.430398 217.756563) scale(0.1 -0.1)">
      <use xlink:href="#DejaVuSans-Oblique-3c9" transform="translate(0 0.826562)"/>
      <use xlink:href="#DejaVuSans-2217" transform="translate(88.20638 39.107812) scale(0.7)"/>
     </g>
    </g>
   </g>
   <g id="matplotlib.axis_4">
    <g id="ytick_5">
     <g id="line2d_16">
      <g>
       <use xlink:href="#m5e91a89ac8" x="243.15767" y="173.57762" style="stroke: #000000; stroke-width: 0.8"/>
      </g>
     </g>
     <g id="text_16">
      <!-- 0.2 -->
      <g transform="translate(220.254545 177.376839) scale(0.1 -0.1)">
       <use xlink:href="#DejaVuSans-30"/>
       <use xlink:href="#DejaVuSans-2e" transform="translate(63.623047 0)"/>
       <use xlink:href="#DejaVuSans-32" transform="translate(95.410156 0)"/>
      </g>
     </g>
    </g>
    <g id="ytick_6">
     <g id="line2d_17">
      <g>
       <use xlink:href="#m5e91a89ac8" x="243.15767" y="137.863215" style="stroke: #000000; stroke-width: 0.8"/>
      </g>
     </g>
     <g id="text_17">
      <!-- 0.4 -->
      <g transform="translate(220.254545 141.662434) scale(0.1 -0.1)">
       <defs>
        <path id="DejaVuSans-34" d="M 2419 4116 
L 825 1625 
L 2419 1625 
L 2419 4116 
z
M 2253 4666 
L 3047 4666 
L 3047 1625 
L 3713 1625 
L 3713 1100 
L 3047 1100 
L 3047 0 
L 2419 0 
L 2419 1100 
L 313 1100 
L 313 1709 
L 2253 4666 
z
" transform="scale(0.015625)"/>
       </defs>
       <use xlink:href="#DejaVuSans-30"/>
       <use xlink:href="#DejaVuSans-2e" transform="translate(63.623047 0)"/>
       <use xlink:href="#DejaVuSans-34" transform="translate(95.410156 0)"/>
      </g>
     </g>
    </g>
    <g id="ytick_7">
     <g id="line2d_18">
      <g>
       <use xlink:href="#m5e91a89ac8" x="243.15767" y="102.14881" style="stroke: #000000; stroke-width: 0.8"/>
      </g>
     </g>
     <g id="text_18">
      <!-- 0.6 -->
      <g transform="translate(220.254545 105.948029) scale(0.1 -0.1)">
       <defs>
        <path id="DejaVuSans-36" d="M 2113 2584 
Q 1688 2584 1439 2293 
Q 1191 2003 1191 1497 
Q 1191 994 1439 701 
Q 1688 409 2113 409 
Q 2538 409 2786 701 
Q 3034 994 3034 1497 
Q 3034 2003 2786 2293 
Q 2538 2584 2113 2584 
z
M 3366 4563 
L 3366 3988 
Q 3128 4100 2886 4159 
Q 2644 4219 2406 4219 
Q 1781 4219 1451 3797 
Q 1122 3375 1075 2522 
Q 1259 2794 1537 2939 
Q 1816 3084 2150 3084 
Q 2853 3084 3261 2657 
Q 3669 2231 3669 1497 
Q 3669 778 3244 343 
Q 2819 -91 2113 -91 
Q 1303 -91 875 529 
Q 447 1150 447 2328 
Q 447 3434 972 4092 
Q 1497 4750 2381 4750 
Q 2619 4750 2861 4703 
Q 3103 4656 3366 4563 
z
" transform="scale(0.015625)"/>
       </defs>
       <use xlink:href="#DejaVuSans-30"/>
       <use xlink:href="#DejaVuSans-2e" transform="translate(63.623047 0)"/>
       <use xlink:href="#DejaVuSans-36" transform="translate(95.410156 0)"/>
      </g>
     </g>
    </g>
    <g id="ytick_8">
     <g id="line2d_19">
      <g>
       <use xlink:href="#m5e91a89ac8" x="243.15767" y="66.434405" style="stroke: #000000; stroke-width: 0.8"/>
      </g>
     </g>
     <g id="text_19">
      <!-- 0.8 -->
      <g transform="translate(220.254545 70.233624) scale(0.1 -0.1)">
       <defs>
        <path id="DejaVuSans-38" d="M 2034 2216 
Q 1584 2216 1326 1975 
Q 1069 1734 1069 1313 
Q 1069 891 1326 650 
Q 1584 409 2034 409 
Q 2484 409 2743 651 
Q 3003 894 3003 1313 
Q 3003 1734 2745 1975 
Q 2488 2216 2034 2216 
z
M 1403 2484 
Q 997 2584 770 2862 
Q 544 3141 544 3541 
Q 544 4100 942 4425 
Q 1341 4750 2034 4750 
Q 2731 4750 3128 4425 
Q 3525 4100 3525 3541 
Q 3525 3141 3298 2862 
Q 3072 2584 2669 2484 
Q 3125 2378 3379 2068 
Q 3634 1759 3634 1313 
Q 3634 634 3220 271 
Q 2806 -91 2034 -91 
Q 1263 -91 848 271 
Q 434 634 434 1313 
Q 434 1759 690 2068 
Q 947 2378 1403 2484 
z
M 1172 3481 
Q 1172 3119 1398 2916 
Q 1625 2713 2034 2713 
Q 2441 2713 2670 2916 
Q 2900 3119 2900 3481 
Q 2900 3844 2670 4047 
Q 2441 4250 2034 4250 
Q 1625 4250 1398 4047 
Q 1172 3844 1172 3481 
z
" transform="scale(0.015625)"/>
       </defs>
       <use xlink:href="#DejaVuSans-30"/>
       <use xlink:href="#DejaVuSans-2e" transform="translate(63.623047 0)"/>
       <use xlink:href="#DejaVuSans-38" transform="translate(95.410156 0)"/>
      </g>
     </g>
    </g>
    <g id="ytick_9">
     <g id="line2d_20">
      <g>
       <use xlink:href="#m5e91a89ac8" x="243.15767" y="30.72" style="stroke: #000000; stroke-width: 0.8"/>
      </g>
     </g>
     <g id="text_20">
      <!-- 1.0 -->
      <g transform="translate(220.254545 34.519219) scale(0.1 -0.1)">
       <use xlink:href="#DejaVuSans-31"/>
       <use xlink:href="#DejaVuSans-2e" transform="translate(63.623047 0)"/>
       <use xlink:href="#DejaVuSans-30" transform="translate(95.410156 0)"/>
      </g>
     </g>
    </g>
   </g>
   <g id="line2d_21">
    <path d="M 251.227918 30.72 
L 255.729252 31.344873 
L 258.622966 33.1132 
L 261.516681 35.461306 
L 265.69649 40.141414 
L 269.8763 45.4013 
L 275.663729 52.996409 
L 281.129634 60.008518 
L 287.56011 68.189848 
L 297.205825 79.882064 
L 304.600873 89.232616 
L 311.995921 98.003388 
L 318.426397 105.604939 
L 325.499921 113.792711 
L 330.644302 119.64204 
L 335.788684 124.91159 
L 340.933065 130.181139 
L 348.006589 137.209353 
L 354.758589 143.654566 
L 362.153637 149.526442 
L 369.227161 155.974876 
L 375.657638 160.677531 
L 384.017257 166.559069 
L 391.090781 171.268166 
L 399.4504 175.990146 
L 406.845448 179.542905 
L 412.632877 181.92 
" clip-path="url(#p9f7518fa24)" style="fill: none; stroke: #000000; stroke-width: 1.5; stroke-linecap: square"/>
   </g>
   <g id="line2d_22">
    <path d="M 259.146992 34.833098 
L 260.666814 36.1754 
L 262.186636 37.625212 
L 263.706458 39.164438 
L 265.226281 40.777798 
L 266.746103 42.452308 
L 268.265925 44.176901 
L 269.785747 45.942128 
L 271.305569 47.739926 
L 272.825391 49.563416 
L 274.345214 51.406747 
L 275.865036 53.26495 
L 277.384858 55.133823 
L 278.90468 57.009825 
L 280.424502 58.88999 
L 281.944325 60.771848 
L 283.464147 62.653356 
L 284.983969 64.532838 
L 286.503791 66.408938 
L 288.023613 68.28057 
L 289.543435 70.14688 
L 291.063258 72.00721 
L 292.58308 73.861069 
L 294.102902 75.708104 
L 295.622724 77.548079 
L 297.142546 79.380849 
L 298.662369 81.206346 
L 300.182191 83.024562 
L 301.702013 84.835532 
L 303.221835 86.639321 
L 304.741657 88.436015 
L 306.261479 90.225711 
L 307.781302 92.008502 
L 309.301124 93.784477 
L 310.820946 95.553706 
L 312.340768 97.316239 
L 313.86059 99.072098 
L 315.380413 100.82127 
L 316.900235 102.563705 
L 318.420057 104.299311 
L 319.939879 106.02795 
L 321.459701 107.749435 
L 322.979523 109.463527 
L 324.499346 111.169932 
L 326.019168 112.868302 
L 327.53899 114.55823 
L 329.058812 116.239251 
L 330.578634 117.91084 
L 332.098457 119.572415 
L 333.618279 121.223334 
L 335.138101 122.862897 
L 336.657923 124.490347 
L 338.177745 126.104875 
L 339.697567 127.705617 
L 341.21739 129.291662 
L 342.737212 130.862054 
L 344.257034 132.415796 
L 345.776856 133.951858 
L 347.296678 135.469177 
L 348.8165 136.966672 
L 350.336323 138.443246 
L 351.856145 139.897796 
L 353.375967 141.329222 
L 354.895789 142.736441 
L 356.415611 144.11839 
L 357.935434 145.474049 
L 359.455256 146.802444 
L 360.975078 148.102665 
L 362.4949 149.37388 
L 364.014722 150.615347 
L 365.534544 151.826432 
L 367.054367 153.006617 
L 368.574189 154.155523 
L 370.094011 155.272916 
L 371.613833 156.358722 
L 373.133655 157.413038 
L 374.653478 158.436143 
L 376.1733 159.428504 
L 377.693122 160.39078 
L 379.212944 161.323828 
L 380.732766 162.2287 
L 382.252588 163.106639 
L 383.772411 163.959077 
L 385.292233 164.787619 
L 386.812055 165.594036 
L 388.331877 166.380244 
L 389.851699 167.148288 
L 391.371522 167.900321 
L 392.891344 168.638577 
L 394.411166 169.365348 
L 395.930988 170.082959 
L 397.45081 170.793734 
L 398.970632 171.499972 
L 400.490455 172.203918 
L 402.010277 172.90773 
L 403.530099 173.613455 
L 405.049921 174.323 
L 406.569743 175.038101 
L 408.089566 175.760303 
L 409.609388 176.490929 
" clip-path="url(#p9f7518fa24)" style="fill: none; stroke-dasharray: 1.5,2.475; stroke-dashoffset: 0; stroke: #ff0000; stroke-width: 1.5"/>
   </g>
   <g id="line2d_23">
    <g clip-path="url(#p9f7518fa24)">
     <use xlink:href="#mbe6a8d6835" x="290.672964" y="74.752813" style="fill: #bfbf00; stroke: #0000ff"/>
     <use xlink:href="#mbe6a8d6835" x="290.996284" y="77.67283" style="fill: #bfbf00; stroke: #0000ff"/>
     <use xlink:href="#mbe6a8d6835" x="294.876124" y="82.95103" style="fill: #bfbf00; stroke: #0000ff"/>
     <use xlink:href="#mbe6a8d6835" x="299.725925" y="87.652181" style="fill: #bfbf00; stroke: #0000ff"/>
     <use xlink:href="#mbe6a8d6835" x="306.838966" y="94.702821" style="fill: #bfbf00; stroke: #0000ff"/>
     <use xlink:href="#mbe6a8d6835" x="307.485606" y="96.457874" style="fill: #bfbf00; stroke: #0000ff"/>
     <use xlink:href="#mbe6a8d6835" x="319.771768" y="109.962545" style="fill: #bfbf00; stroke: #0000ff"/>
     <use xlink:href="#mbe6a8d6835" x="330.118009" y="121.703469" style="fill: #bfbf00; stroke: #0000ff"/>
     <use xlink:href="#mbe6a8d6835" x="347.253972" y="152.747803" style="fill: #bfbf00; stroke: #0000ff"/>
     <use xlink:href="#mbe6a8d6835" x="347.577292" y="156.251389" style="fill: #bfbf00; stroke: #0000ff"/>
    </g>
   </g>
   <g id="patch_8">
    <path d="M 243.15767 189.48 
L 243.15767 23.16 
" style="fill: none; stroke: #000000; stroke-width: 0.8; stroke-linejoin: miter; stroke-linecap: square"/>
   </g>
   <g id="patch_9">
    <path d="M 420.703125 189.48 
L 420.703125 23.16 
" style="fill: none; stroke: #000000; stroke-width: 0.8; stroke-linejoin: miter; stroke-linecap: square"/>
   </g>
   <g id="patch_10">
    <path d="M 243.15767 189.48 
L 420.703125 189.48 
" style="fill: none; stroke: #000000; stroke-width: 0.8; stroke-linejoin: miter; stroke-linecap: square"/>
   </g>
   <g id="patch_11">
    <path d="M 243.15767 23.16 
L 420.703125 23.16 
" style="fill: none; stroke: #000000; stroke-width: 0.8; stroke-linejoin: miter; stroke-linecap: square"/>
   </g>
   <g id="text_21">
    <!-- Heave force $f^{\ast}_z$ -->
    <g transform="translate(287.470398 17.16) scale(0.12 -0.12)">
     <defs>
      <path id="DejaVuSans-48" d="M 628 4666 
L 1259 4666 
L 1259 2753 
L 3553 2753 
L 3553 4666 
L 4184 4666 
L 4184 0 
L 3553 0 
L 3553 2222 
L 1259 2222 
L 1259 0 
L 628 0 
L 628 4666 
z
" transform="scale(0.015625)"/>
      <path id="DejaVuSans-76" d="M 191 3500 
L 800 3500 
L 1894 563 
L 2988 3500 
L 3597 3500 
L 2284 0 
L 1503 0 
L 191 3500 
z
" transform="scale(0.015625)"/>
      <path id="DejaVuSans-Oblique-7a" d="M 744 3500 
L 3475 3500 
L 3372 2975 
L 738 459 
L 2913 459 
L 2822 0 
L -19 0 
L 84 525 
L 2719 3041 
L 653 3041 
L 744 3500 
z
" transform="scale(0.015625)"/>
     </defs>
     <use xlink:href="#DejaVuSans-48" transform="translate(0 0.826562)"/>
     <use xlink:href="#DejaVuSans-65" transform="translate(75.195312 0.826562)"/>
     <use xlink:href="#DejaVuSans-61" transform="translate(136.71875 0.826562)"/>
     <use xlink:href="#DejaVuSans-76" transform="translate(197.998047 0.826562)"/>
     <use xlink:href="#DejaVuSans-65" transform="translate(257.177734 0.826562)"/>
     <use xlink:href="#DejaVuSans-20" transform="translate(318.701172 0.826562)"/>
     <use xlink:href="#DejaVuSans-66" transform="translate(350.488281 0.826562)"/>
     <use xlink:href="#DejaVuSans-6f" transform="translate(385.693359 0.826562)"/>
     <use xlink:href="#DejaVuSans-72" transform="translate(446.875 0.826562)"/>
     <use xlink:href="#DejaVuSans-63" transform="translate(487.988281 0.826562)"/>
     <use xlink:href="#DejaVuSans-65" transform="translate(542.96875 0.826562)"/>
     <use xlink:href="#DejaVuSans-20" transform="translate(604.492188 0.826562)"/>
     <use xlink:href="#DejaVuSans-Oblique-66" transform="translate(636.279297 0.826562)"/>
     <use xlink:href="#DejaVuSans-2217" transform="translate(678.932083 39.107813) scale(0.7)"/>
     <use xlink:href="#DejaVuSans-Oblique-7a" transform="translate(671.484375 -26.517188) scale(0.7)"/>
    </g>
   </g>
   <g id="legend_1">
    <g id="patch_12">
     <path d="M 315.017187 75.194375 
L 413.703125 75.194375 
Q 415.703125 75.194375 415.703125 73.194375 
L 415.703125 30.16 
Q 415.703125 28.16 413.703125 28.16 
L 315.017187 28.16 
Q 313.017187 28.16 313.017187 30.16 
L 313.017187 73.194375 
Q 313.017187 75.194375 315.017187 75.194375 
z
" style="fill: #ffffff; opacity: 0.8; stroke: #cccccc; stroke-linejoin: miter"/>
    </g>
    <g id="line2d_24">
     <path d="M 317.017187 36.258438 
L 327.017187 36.258438 
L 337.017187 36.258438 
" style="fill: none; stroke: #000000; stroke-width: 1.5; stroke-linecap: square"/>
    </g>
    <g id="text_22">
     <!-- Analytical -->
     <g transform="translate(345.017187 39.758438) scale(0.1 -0.1)">
      <defs>
       <path id="DejaVuSans-41" d="M 2188 4044 
L 1331 1722 
L 3047 1722 
L 2188 4044 
z
M 1831 4666 
L 2547 4666 
L 4325 0 
L 3669 0 
L 3244 1197 
L 1141 1197 
L 716 0 
L 50 0 
L 1831 4666 
z
" transform="scale(0.015625)"/>
       <path id="DejaVuSans-6e" d="M 3513 2113 
L 3513 0 
L 2938 0 
L 2938 2094 
Q 2938 2591 2744 2837 
Q 2550 3084 2163 3084 
Q 1697 3084 1428 2787 
Q 1159 2491 1159 1978 
L 1159 0 
L 581 0 
L 581 3500 
L 1159 3500 
L 1159 2956 
Q 1366 3272 1645 3428 
Q 1925 3584 2291 3584 
Q 2894 3584 3203 3211 
Q 3513 2838 3513 2113 
z
" transform="scale(0.015625)"/>
       <path id="DejaVuSans-6c" d="M 603 4863 
L 1178 4863 
L 1178 0 
L 603 0 
L 603 4863 
z
" transform="scale(0.015625)"/>
       <path id="DejaVuSans-74" d="M 1172 4494 
L 1172 3500 
L 2356 3500 
L 2356 3053 
L 1172 3053 
L 1172 1153 
Q 1172 725 1289 603 
Q 1406 481 1766 481 
L 2356 481 
L 2356 0 
L 1766 0 
Q 1100 0 847 248 
Q 594 497 594 1153 
L 594 3053 
L 172 3053 
L 172 3500 
L 594 3500 
L 594 4494 
L 1172 4494 
z
" transform="scale(0.015625)"/>
       <path id="DejaVuSans-69" d="M 603 3500 
L 1178 3500 
L 1178 0 
L 603 0 
L 603 3500 
z
M 603 4863 
L 1178 4863 
L 1178 4134 
L 603 4134 
L 603 4863 
z
" transform="scale(0.015625)"/>
      </defs>
      <use xlink:href="#DejaVuSans-41"/>
      <use xlink:href="#DejaVuSans-6e" transform="translate(68.408203 0)"/>
      <use xlink:href="#DejaVuSans-61" transform="translate(131.787109 0)"/>
      <use xlink:href="#DejaVuSans-6c" transform="translate(193.066406 0)"/>
      <use xlink:href="#DejaVuSans-79" transform="translate(220.849609 0)"/>
      <use xlink:href="#DejaVuSans-74" transform="translate(280.029297 0)"/>
      <use xlink:href="#DejaVuSans-69" transform="translate(319.238281 0)"/>
      <use xlink:href="#DejaVuSans-63" transform="translate(347.021484 0)"/>
      <use xlink:href="#DejaVuSans-61" transform="translate(402.001953 0)"/>
      <use xlink:href="#DejaVuSans-6c" transform="translate(463.28125 0)"/>
     </g>
    </g>
    <g id="line2d_25">
     <g>
      <use xlink:href="#mbe6a8d6835" x="327.017187" y="50.936563" style="fill: #bfbf00; stroke: #0000ff"/>
     </g>
    </g>
    <g id="text_23">
     <!-- Experimental -->
     <g transform="translate(345.017187 54.436563) scale(0.1 -0.1)">
      <defs>
       <path id="DejaVuSans-45" d="M 628 4666 
L 3578 4666 
L 3578 4134 
L 1259 4134 
L 1259 2753 
L 3481 2753 
L 3481 2222 
L 1259 2222 
L 1259 531 
L 3634 531 
L 3634 0 
L 628 0 
L 628 4666 
z
" transform="scale(0.015625)"/>
       <path id="DejaVuSans-78" d="M 3513 3500 
L 2247 1797 
L 3578 0 
L 2900 0 
L 1881 1375 
L 863 0 
L 184 0 
L 1544 1831 
L 300 3500 
L 978 3500 
L 1906 2253 
L 2834 3500 
L 3513 3500 
z
" transform="scale(0.015625)"/>
       <path id="DejaVuSans-70" d="M 1159 525 
L 1159 -1331 
L 581 -1331 
L 581 3500 
L 1159 3500 
L 1159 2969 
Q 1341 3281 1617 3432 
Q 1894 3584 2278 3584 
Q 2916 3584 3314 3078 
Q 3713 2572 3713 1747 
Q 3713 922 3314 415 
Q 2916 -91 2278 -91 
Q 1894 -91 1617 61 
Q 1341 213 1159 525 
z
M 3116 1747 
Q 3116 2381 2855 2742 
Q 2594 3103 2138 3103 
Q 1681 3103 1420 2742 
Q 1159 2381 1159 1747 
Q 1159 1113 1420 752 
Q 1681 391 2138 391 
Q 2594 391 2855 752 
Q 3116 1113 3116 1747 
z
" transform="scale(0.015625)"/>
       <path id="DejaVuSans-6d" d="M 3328 2828 
Q 3544 3216 3844 3400 
Q 4144 3584 4550 3584 
Q 5097 3584 5394 3201 
Q 5691 2819 5691 2113 
L 5691 0 
L 5113 0 
L 5113 2094 
Q 5113 2597 4934 2840 
Q 4756 3084 4391 3084 
Q 3944 3084 3684 2787 
Q 3425 2491 3425 1978 
L 3425 0 
L 2847 0 
L 2847 2094 
Q 2847 2600 2669 2842 
Q 2491 3084 2119 3084 
Q 1678 3084 1418 2786 
Q 1159 2488 1159 1978 
L 1159 0 
L 581 0 
L 581 3500 
L 1159 3500 
L 1159 2956 
Q 1356 3278 1631 3431 
Q 1906 3584 2284 3584 
Q 2666 3584 2933 3390 
Q 3200 3197 3328 2828 
z
" transform="scale(0.015625)"/>
      </defs>
      <use xlink:href="#DejaVuSans-45"/>
      <use xlink:href="#DejaVuSans-78" transform="translate(63.183594 0)"/>
      <use xlink:href="#DejaVuSans-70" transform="translate(122.363281 0)"/>
      <use xlink:href="#DejaVuSans-65" transform="translate(185.839844 0)"/>
      <use xlink:href="#DejaVuSans-72" transform="translate(247.363281 0)"/>
      <use xlink:href="#DejaVuSans-69" transform="translate(288.476562 0)"/>
      <use xlink:href="#DejaVuSans-6d" transform="translate(316.259766 0)"/>
      <use xlink:href="#DejaVuSans-65" transform="translate(413.671875 0)"/>
      <use xlink:href="#DejaVuSans-6e" transform="translate(475.195312 0)"/>
      <use xlink:href="#DejaVuSans-74" transform="translate(538.574219 0)"/>
      <use xlink:href="#DejaVuSans-61" transform="translate(577.783203 0)"/>
      <use xlink:href="#DejaVuSans-6c" transform="translate(639.0625 0)"/>
     </g>
    </g>
    <g id="line2d_26">
     <path d="M 317.017187 65.614688 
L 327.017187 65.614688 
L 337.017187 65.614688 
" style="fill: none; stroke-dasharray: 1.5,2.475; stroke-dashoffset: 0; stroke: #ff0000; stroke-width: 1.5"/>
    </g>
    <g id="text_24">
     <!-- BEM -->
     <g transform="translate(345.017187 69.114688) scale(0.1 -0.1)">
      <defs>
       <path id="DejaVuSans-42" d="M 1259 2228 
L 1259 519 
L 2272 519 
Q 2781 519 3026 730 
Q 3272 941 3272 1375 
Q 3272 1813 3026 2020 
Q 2781 2228 2272 2228 
L 1259 2228 
z
M 1259 4147 
L 1259 2741 
L 2194 2741 
Q 2656 2741 2882 2914 
Q 3109 3088 3109 3444 
Q 3109 3797 2882 3972 
Q 2656 4147 2194 4147 
L 1259 4147 
z
M 628 4666 
L 2241 4666 
Q 2963 4666 3353 4366 
Q 3744 4066 3744 3513 
Q 3744 3084 3544 2831 
Q 3344 2578 2956 2516 
Q 3422 2416 3680 2098 
Q 3938 1781 3938 1306 
Q 3938 681 3513 340 
Q 3088 0 2303 0 
L 628 0 
L 628 4666 
z
" transform="scale(0.015625)"/>
       <path id="DejaVuSans-4d" d="M 628 4666 
L 1569 4666 
L 2759 1491 
L 3956 4666 
L 4897 4666 
L 4897 0 
L 4281 0 
L 4281 4097 
L 3078 897 
L 2444 897 
L 1241 4097 
L 1241 0 
L 628 0 
L 628 4666 
z
" transform="scale(0.015625)"/>
      </defs>
      <use xlink:href="#DejaVuSans-42"/>
      <use xlink:href="#DejaVuSans-45" transform="translate(68.603516 0)"/>
      <use xlink:href="#DejaVuSans-4d" transform="translate(131.787109 0)"/>
     </g>
    </g>
   </g>
  </g>
 </g>
 <defs>
  <clipPath id="p89db927f9b">
   <rect x="30.103125" y="23.16" width="177.545455" height="166.32"/>
  </clipPath>
  <clipPath id="p9f7518fa24">
   <rect x="243.15767" y="23.16" width="177.545455" height="166.32"/>
  </clipPath>
 </defs>
</svg>
