<?xml version="1.0" encoding="utf-8" standalone="no"?>
<!DOCTYPE svg PUBLIC "-//W3C//DTD SVG 1.1//EN"
  "http://www.w3.org/Graphics/SVG/1.1/DTD/svg11.dtd">
<svg xmlns:xlink="http://www.w3.org/1999/xlink" width="427.903125pt" height="227.03625pt" viewBox="0 0 427.903125 227.03625" xmlns="http://www.w3.org/2000/svg" version="1.1">
 <metadata>
  <rdf:RDF xmlns:dc="http://purl.org/dc/elements/1.1/" xmlns:cc="http://creativecommons.org/ns#" xmlns:rdf="http://www.w3.org/1999/02/22-rdf-syntax-ns#">
   <cc:Work>
    <dc:type rdf:resource="http://purl.org/dc/dcmitype/StillImage"/>
    <dc:date>2025-08-23T00:06:46.606978</dc:date>
    <dc:format>image/svg+xml</dc:format>
    <dc:creator>
     <cc:Agent>
      <dc:title>Matplotlib v3.10.0, https://matplotlib.org/</dc:title>
     </cc:Agent>
    </dc:creator>
   </cc:Work>
  </rdf:RDF>
 </metadata>
 <defs>
  <style type="text/css">*{stroke-linejoin: round; stroke-linecap: butt}</style>
 </defs>
 <g id="figure_1">
  <g id="patch_1">
   <path d="M 0 227.03625 
L 427.903125 227.03625 
L 427.903125 0 
L 0 0 
z
" style="fill: #ffffff"/>
  </g>
  <g id="axes_1">
   <g id="patch_2">
    <path d="M 30.103125 189.48 
L 207.64858 189.48 
L 207.64858 23.16 
L 30.103125 23.16 
z
" style="fill: #ffffff"/>
   </g>
   <g id="matplotlib.axis_1">
    <g id="xtick_1">
     <g id="line2d_1">
      <defs>
       <path id="m11bfdb1d1d" d="M 0 0 
L 0 3.5 
" style="stroke: #000000; stroke-width: 0.8"/>
      </defs>
      <g>
       <use xlink:href="#m11bfdb1d1d" x="82.411101" y="189.48" style="stroke: #000000; stroke-width: 0.8"/>
      </g>
     </g>
     <g id="text_1">
      <!-- 0.5 -->
      <g transform="translate(74.459539 204.078438) scale(0.1 -0.1)">
       <defs>
        <path id="DejaVuSans-30" d="M 2034 4250 
Q 1547 4250 1301 3770 
Q 1056 3291 1056 2328 
Q 1056 1369 1301 889 
Q 1547 409 2034 409 
Q 2525 409 2770 889 
Q 3016 1369 3016 2328 
Q 3016 3291 2770 3770 
Q 2525 4250 2034 4250 
z
M 2034 4750 
Q 2819 4750 3233 4129 
Q 3647 3509 3647 2328 
Q 3647 1150 3233 529 
Q 2819 -91 2034 -91 
Q 1250 -91 836 529 
Q 422 1150 422 2328 
Q 422 3509 836 4129 
Q 1250 4750 2034 4750 
z
" transform="scale(0.015625)"/>
        <path id="DejaVuSans-2e" d="M 684 794 
L 1344 794 
L 1344 0 
L 684 0 
L 684 794 
z
" transform="scale(0.015625)"/>
        <path id="DejaVuSans-35" d="M 691 4666 
L 3169 4666 
L 3169 4134 
L 1269 4134 
L 1269 2991 
Q 1406 3038 1543 3061 
Q 1681 3084 1819 3084 
Q 2600 3084 3056 2656 
Q 3513 2228 3513 1497 
Q 3513 744 3044 326 
Q 2575 -91 1722 -91 
Q 1428 -91 1123 -41 
Q 819 9 494 109 
L 494 744 
Q 775 591 1075 516 
Q 1375 441 1709 441 
Q 2250 441 2565 725 
Q 2881 1009 2881 1497 
Q 2881 1984 2565 2268 
Q 2250 2553 1709 2553 
Q 1456 2553 1204 2497 
Q 953 2441 691 2322 
L 691 4666 
z
" transform="scale(0.015625)"/>
       </defs>
       <use xlink:href="#DejaVuSans-30"/>
       <use xlink:href="#DejaVuSans-2e" transform="translate(63.623047 0)"/>
       <use xlink:href="#DejaVuSans-35" transform="translate(95.410156 0)"/>
      </g>
     </g>
    </g>
    <g id="xtick_2">
     <g id="line2d_2">
      <g>
       <use xlink:href="#m11bfdb1d1d" x="135.05236" y="189.48" style="stroke: #000000; stroke-width: 0.8"/>
      </g>
     </g>
     <g id="text_2">
      <!-- 1.0 -->
      <g transform="translate(127.100798 204.078438) scale(0.1 -0.1)">
       <defs>
        <path id="DejaVuSans-31" d="M 794 531 
L 1825 531 
L 1825 4091 
L 703 3866 
L 703 4441 
L 1819 4666 
L 2450 4666 
L 2450 531 
L 3481 531 
L 3481 0 
L 794 0 
L 794 531 
z
" transform="scale(0.015625)"/>
       </defs>
       <use xlink:href="#DejaVuSans-31"/>
       <use xlink:href="#DejaVuSans-2e" transform="translate(63.623047 0)"/>
       <use xlink:href="#DejaVuSans-30" transform="translate(95.410156 0)"/>
      </g>
     </g>
    </g>
    <g id="xtick_3">
     <g id="line2d_3">
      <g>
       <use xlink:href="#m11bfdb1d1d" x="187.693619" y="189.48" style="stroke: #000000; stroke-width: 0.8"/>
      </g>
     </g>
     <g id="text_3">
      <!-- 1.5 -->
      <g transform="translate(179.742057 204.078438) scale(0.1 -0.1)">
       <use xlink:href="#DejaVuSans-31"/>
       <use xlink:href="#DejaVuSans-2e" transform="translate(63.623047 0)"/>
       <use xlink:href="#DejaVuSans-35" transform="translate(95.410156 0)"/>
      </g>
     </g>
    </g>
    <g id="text_4">
     <!-- $\omega^{\ast}$ -->
     <g transform="translate(111.375852 217.756563) scale(0.1 -0.1)">
      <defs>
       <path id="DejaVuSans-Oblique-3c9" d="M 1369 -91 
Q 72 -91 434 1766 
Q 575 2500 1256 3500 
L 1875 3500 
Q 1231 2500 1088 1750 
Q 819 397 1519 397 
Q 2166 397 2478 2078 
L 3009 2078 
Q 2669 388 3316 397 
Q 4013 403 4275 1750 
Q 4419 2500 4169 3500 
L 4788 3500 
Q 5075 2500 4934 1766 
Q 4578 -94 3278 -91 
Q 2428 -88 2503 844 
Q 2194 -91 1369 -91 
z
" transform="scale(0.015625)"/>
       <path id="DejaVuSans-2217" d="M 2153 2006 
L 816 2778 
L 1081 3238 
L 2419 2466 
L 2419 4013 
L 2944 4013 
L 2944 2466 
L 4281 3238 
L 4547 2778 
L 3209 2006 
L 4547 1234 
L 4281 775 
L 2944 1547 
L 2944 0 
L 2419 0 
L 2419 1547 
L 1081 775 
L 816 1234 
L 2153 2006 
z
" transform="scale(0.015625)"/>
      </defs>
      <use xlink:href="#DejaVuSans-Oblique-3c9" transform="translate(0 0.826562)"/>
      <use xlink:href="#DejaVuSans-2217" transform="translate(88.20638 39.107812) scale(0.7)"/>
     </g>
    </g>
   </g>
   <g id="matplotlib.axis_2">
    <g id="ytick_1">
     <g id="line2d_4">
      <defs>
       <path id="m3e815cd2f1" d="M 0 0 
L -3.5 0 
" style="stroke: #000000; stroke-width: 0.8"/>
      </defs>
      <g>
       <use xlink:href="#m3e815cd2f1" x="30.103125" y="186.10157" style="stroke: #000000; stroke-width: 0.8"/>
      </g>
     </g>
     <g id="text_5">
      <!-- 0.5 -->
      <g transform="translate(7.2 189.900789) scale(0.1 -0.1)">
       <use xlink:href="#DejaVuSans-30"/>
       <use xlink:href="#DejaVuSans-2e" transform="translate(63.623047 0)"/>
       <use xlink:href="#DejaVuSans-35" transform="translate(95.410156 0)"/>
      </g>
     </g>
    </g>
    <g id="ytick_2">
     <g id="line2d_5">
      <g>
       <use xlink:href="#m3e815cd2f1" x="30.103125" y="161.336917" style="stroke: #000000; stroke-width: 0.8"/>
      </g>
     </g>
     <g id="text_6">
      <!-- 1.0 -->
      <g transform="translate(7.2 165.136136) scale(0.1 -0.1)">
       <use xlink:href="#DejaVuSans-31"/>
       <use xlink:href="#DejaVuSans-2e" transform="translate(63.623047 0)"/>
       <use xlink:href="#DejaVuSans-30" transform="translate(95.410156 0)"/>
      </g>
     </g>
    </g>
    <g id="ytick_3">
     <g id="line2d_6">
      <g>
       <use xlink:href="#m3e815cd2f1" x="30.103125" y="136.572264" style="stroke: #000000; stroke-width: 0.8"/>
      </g>
     </g>
     <g id="text_7">
      <!-- 1.5 -->
      <g transform="translate(7.2 140.371483) scale(0.1 -0.1)">
       <use xlink:href="#DejaVuSans-31"/>
       <use xlink:href="#DejaVuSans-2e" transform="translate(63.623047 0)"/>
       <use xlink:href="#DejaVuSans-35" transform="translate(95.410156 0)"/>
      </g>
     </g>
    </g>
    <g id="ytick_4">
     <g id="line2d_7">
      <g>
       <use xlink:href="#m3e815cd2f1" x="30.103125" y="111.80761" style="stroke: #000000; stroke-width: 0.8"/>
      </g>
     </g>
     <g id="text_8">
      <!-- 2.0 -->
      <g transform="translate(7.2 115.606829) scale(0.1 -0.1)">
       <defs>
        <path id="DejaVuSans-32" d="M 1228 531 
L 3431 531 
L 3431 0 
L 469 0 
L 469 531 
Q 828 903 1448 1529 
Q 2069 2156 2228 2338 
Q 2531 2678 2651 2914 
Q 2772 3150 2772 3378 
Q 2772 3750 2511 3984 
Q 2250 4219 1831 4219 
Q 1534 4219 1204 4116 
Q 875 4013 500 3803 
L 500 4441 
Q 881 4594 1212 4672 
Q 1544 4750 1819 4750 
Q 2544 4750 2975 4387 
Q 3406 4025 3406 3419 
Q 3406 3131 3298 2873 
Q 3191 2616 2906 2266 
Q 2828 2175 2409 1742 
Q 1991 1309 1228 531 
z
" transform="scale(0.015625)"/>
       </defs>
       <use xlink:href="#DejaVuSans-32"/>
       <use xlink:href="#DejaVuSans-2e" transform="translate(63.623047 0)"/>
       <use xlink:href="#DejaVuSans-30" transform="translate(95.410156 0)"/>
      </g>
     </g>
    </g>
    <g id="ytick_5">
     <g id="line2d_8">
      <g>
       <use xlink:href="#m3e815cd2f1" x="30.103125" y="87.042957" style="stroke: #000000; stroke-width: 0.8"/>
      </g>
     </g>
     <g id="text_9">
      <!-- 2.5 -->
      <g transform="translate(7.2 90.842176) scale(0.1 -0.1)">
       <use xlink:href="#DejaVuSans-32"/>
       <use xlink:href="#DejaVuSans-2e" transform="translate(63.623047 0)"/>
       <use xlink:href="#DejaVuSans-35" transform="translate(95.410156 0)"/>
      </g>
     </g>
    </g>
    <g id="ytick_6">
     <g id="line2d_9">
      <g>
       <use xlink:href="#m3e815cd2f1" x="30.103125" y="62.278304" style="stroke: #000000; stroke-width: 0.8"/>
      </g>
     </g>
     <g id="text_10">
      <!-- 3.0 -->
      <g transform="translate(7.2 66.077523) scale(0.1 -0.1)">
       <defs>
        <path id="DejaVuSans-33" d="M 2597 2516 
Q 3050 2419 3304 2112 
Q 3559 1806 3559 1356 
Q 3559 666 3084 287 
Q 2609 -91 1734 -91 
Q 1441 -91 1130 -33 
Q 819 25 488 141 
L 488 750 
Q 750 597 1062 519 
Q 1375 441 1716 441 
Q 2309 441 2620 675 
Q 2931 909 2931 1356 
Q 2931 1769 2642 2001 
Q 2353 2234 1838 2234 
L 1294 2234 
L 1294 2753 
L 1863 2753 
Q 2328 2753 2575 2939 
Q 2822 3125 2822 3475 
Q 2822 3834 2567 4026 
Q 2313 4219 1838 4219 
Q 1578 4219 1281 4162 
Q 984 4106 628 3988 
L 628 4550 
Q 988 4650 1302 4700 
Q 1616 4750 1894 4750 
Q 2613 4750 3031 4423 
Q 3450 4097 3450 3541 
Q 3450 3153 3228 2886 
Q 3006 2619 2597 2516 
z
" transform="scale(0.015625)"/>
       </defs>
       <use xlink:href="#DejaVuSans-33"/>
       <use xlink:href="#DejaVuSans-2e" transform="translate(63.623047 0)"/>
       <use xlink:href="#DejaVuSans-30" transform="translate(95.410156 0)"/>
      </g>
     </g>
    </g>
    <g id="ytick_7">
     <g id="line2d_10">
      <g>
       <use xlink:href="#m3e815cd2f1" x="30.103125" y="37.51365" style="stroke: #000000; stroke-width: 0.8"/>
      </g>
     </g>
     <g id="text_11">
      <!-- 3.5 -->
      <g transform="translate(7.2 41.312869) scale(0.1 -0.1)">
       <use xlink:href="#DejaVuSans-33"/>
       <use xlink:href="#DejaVuSans-2e" transform="translate(63.623047 0)"/>
       <use xlink:href="#DejaVuSans-35" transform="translate(95.410156 0)"/>
      </g>
     </g>
    </g>
   </g>
   <g id="line2d_11">
    <path d="M 47.175111 88.642741 
L 48.214561 94.401963 
L 49.942569 102.400882 
L 51.669695 110.079844 
L 53.737132 117.438849 
L 56.144882 124.477898 
L 59.238544 132.796774 
L 62.32868 139.835823 
L 65.759128 146.554915 
L 69.185168 151.674223 
L 73.295357 157.433445 
L 79.456234 164.472493 
L 84.928552 169.271845 
L 89.714956 172.791369 
L 97.572983 176.63085 
L 104.061828 178.870548 
L 110.890103 180.470331 
L 116.351842 181.430202 
L 123.175708 181.430202 
L 129.317189 181.430202 
L 136.139292 180.790288 
L 142.961396 180.150375 
L 151.147391 179.190504 
L 156.60384 178.230634 
L 162.742675 177.270764 
L 169.563897 176.310894 
L 177.749011 175.031066 
L 184.229039 174.071196 
L 191.051143 173.431283 
L 199.578332 172.471412 
" clip-path="url(#p4573293cfa)" style="fill: none; stroke: #000000; stroke-width: 1.5; stroke-linecap: square"/>
   </g>
   <g id="line2d_12">
    <path d="M 38.173373 30.72 
L 39.786172 45.514284 
L 41.39897 58.106906 
L 43.011769 69.039486 
L 44.624568 78.667691 
L 46.237367 87.238729 
L 47.850165 94.93224 
L 49.462964 101.88352 
L 51.075763 108.197497 
L 52.688562 113.957541 
L 54.30136 119.231252 
L 55.914159 124.074377 
L 57.526958 128.533559 
L 59.139756 132.648298 
L 60.752555 136.452393 
L 62.365354 139.975024 
L 63.978153 143.241574 
L 65.590951 146.274271 
L 67.20375 149.092689 
L 68.816549 151.714155 
L 70.429348 154.154074 
L 72.042146 156.426197 
L 73.654945 158.542845 
L 75.267744 160.51509 
L 76.880542 162.352919 
L 78.493341 164.06536 
L 80.10614 165.660605 
L 81.718939 167.146098 
L 83.331737 168.528631 
L 84.944536 169.814412 
L 86.557335 171.009132 
L 88.170134 172.118025 
L 89.782932 173.145914 
L 91.395731 174.097259 
L 93.00853 174.976194 
L 94.621328 175.786566 
L 96.234127 176.531962 
L 97.846926 177.215739 
L 99.459725 177.841046 
L 101.072523 178.410849 
L 102.685322 178.927947 
L 104.298121 179.394992 
L 105.91092 179.814501 
L 107.523718 180.18887 
L 109.136517 180.520386 
L 110.749316 180.811238 
L 112.362115 181.063521 
L 113.974913 181.279249 
L 115.587712 181.46036 
L 117.200511 181.608718 
L 118.813309 181.726121 
L 120.426108 181.814304 
L 122.038907 181.874943 
L 123.651706 181.909654 
L 125.264504 181.92 
L 126.877303 181.90749 
L 128.490102 181.873581 
L 130.102901 181.819679 
L 131.715699 181.747139 
L 133.328498 181.657268 
L 134.941297 181.551323 
L 136.554095 181.430515 
L 138.166894 181.296004 
L 139.779693 181.148905 
L 141.392492 180.990286 
L 143.00529 180.821167 
L 144.618089 180.642523 
L 146.230888 180.455284 
L 147.843687 180.260335 
L 149.456485 180.058516 
L 151.069284 179.850626 
L 152.682083 179.637418 
L 154.294881 179.419606 
L 155.90768 179.197862 
L 157.520479 178.97282 
L 159.133278 178.745074 
L 160.746076 178.515181 
L 162.358875 178.283661 
L 163.971674 178.051 
L 165.584473 177.817651 
L 167.197271 177.584032 
L 168.81007 177.350533 
L 170.422869 177.117513 
L 172.035668 176.8853 
L 173.648466 176.654199 
L 175.261265 176.424487 
L 176.874064 176.196416 
L 178.486862 175.970216 
L 180.099661 175.746095 
L 181.71246 175.524238 
L 183.325259 175.304814 
L 184.938057 175.08797 
L 186.550856 174.873839 
L 188.163655 174.662536 
L 189.776454 174.45416 
L 191.389252 174.248799 
L 193.002051 174.046525 
L 194.61485 173.847399 
L 196.227648 173.651471 
L 197.840447 173.458779 
" clip-path="url(#p4573293cfa)" style="fill: none; stroke-dasharray: 1.5,2.475; stroke-dashoffset: 0; stroke: #ff0000; stroke-width: 1.5"/>
   </g>
   <g id="line2d_13">
    <defs>
     <path id="m1fd41bcaf3" d="M 0 2 
C 0.530406 2 1.03916 1.789267 1.414214 1.414214 
C 1.789267 1.03916 2 0.530406 2 0 
C 2 -0.530406 1.789267 -1.03916 1.414214 -1.414214 
C 1.03916 -1.789267 0.530406 -2 0 -2 
C -0.530406 -2 -1.03916 -1.789267 -1.414214 -1.414214 
C -1.789267 -1.03916 -2 -0.530406 -2 0 
C -2 0.530406 -1.789267 1.03916 -1.414214 1.414214 
C -1.03916 1.789267 -0.530406 2 0 2 
z
" style="stroke: #0000ff"/>
    </defs>
    <g clip-path="url(#p4573293cfa)">
     <use xlink:href="#m1fd41bcaf3" x="43.304297" y="144.74193" style="fill: #bfbf00; stroke: #0000ff"/>
     <use xlink:href="#m1fd41bcaf3" x="49.212839" y="173.109047" style="fill: #bfbf00; stroke: #0000ff"/>
     <use xlink:href="#m1fd41bcaf3" x="52.226946" y="146.985461" style="fill: #bfbf00; stroke: #0000ff"/>
     <use xlink:href="#m1fd41bcaf3" x="56.025166" y="156.330881" style="fill: #bfbf00; stroke: #0000ff"/>
     <use xlink:href="#m1fd41bcaf3" x="62.522241" y="149.549347" style="fill: #bfbf00; stroke: #0000ff"/>
     <use xlink:href="#m1fd41bcaf3" x="68.035153" y="158.892141" style="fill: #bfbf00; stroke: #0000ff"/>
     <use xlink:href="#m1fd41bcaf3" x="68.372733" y="156.956885" style="fill: #bfbf00; stroke: #0000ff"/>
     <use xlink:href="#m1fd41bcaf3" x="74.893027" y="158.559182" style="fill: #bfbf00; stroke: #0000ff"/>
     <use xlink:href="#m1fd41bcaf3" x="82.119738" y="167.576895" style="fill: #bfbf00; stroke: #0000ff"/>
     <use xlink:href="#m1fd41bcaf3" x="88.64539" y="171.113922" style="fill: #bfbf00; stroke: #0000ff"/>
     <use xlink:href="#m1fd41bcaf3" x="94.828997" y="174.97393" style="fill: #bfbf00; stroke: #0000ff"/>
     <use xlink:href="#m1fd41bcaf3" x="94.825425" y="173.68411" style="fill: #bfbf00; stroke: #0000ff"/>
     <use xlink:href="#m1fd41bcaf3" x="101.695802" y="177.865522" style="fill: #bfbf00; stroke: #0000ff"/>
     <use xlink:href="#m1fd41bcaf3" x="107.871371" y="178.823434" style="fill: #bfbf00; stroke: #0000ff"/>
     <use xlink:href="#m1fd41bcaf3" x="114.390772" y="180.103276" style="fill: #bfbf00; stroke: #0000ff"/>
     <use xlink:href="#m1fd41bcaf3" x="120.908386" y="180.738208" style="fill: #bfbf00; stroke: #0000ff"/>
     <use xlink:href="#m1fd41bcaf3" x="127.767153" y="180.727705" style="fill: #bfbf00; stroke: #0000ff"/>
     <use xlink:href="#m1fd41bcaf3" x="133.940043" y="180.718252" style="fill: #bfbf00; stroke: #0000ff"/>
     <use xlink:href="#m1fd41bcaf3" x="140.454086" y="180.063363" style="fill: #bfbf00; stroke: #0000ff"/>
     <use xlink:href="#m1fd41bcaf3" x="146.965449" y="178.44111" style="fill: #bfbf00; stroke: #0000ff"/>
     <use xlink:href="#m1fd41bcaf3" x="153.820643" y="177.140786" style="fill: #bfbf00; stroke: #0000ff"/>
     <use xlink:href="#m1fd41bcaf3" x="159.992641" y="176.808878" style="fill: #bfbf00; stroke: #0000ff"/>
     <use xlink:href="#m1fd41bcaf3" x="166.846942" y="175.186099" style="fill: #bfbf00; stroke: #0000ff"/>
     <use xlink:href="#m1fd41bcaf3" x="173.359198" y="173.886301" style="fill: #bfbf00; stroke: #0000ff"/>
     <use xlink:href="#m1fd41bcaf3" x="179.873241" y="173.231412" style="fill: #bfbf00; stroke: #0000ff"/>
     <use xlink:href="#m1fd41bcaf3" x="183.983142" y="171.29038" style="fill: #bfbf00; stroke: #0000ff"/>
    </g>
   </g>
   <g id="patch_3">
    <path d="M 30.103125 189.48 
L 30.103125 23.16 
" style="fill: none; stroke: #000000; stroke-width: 0.8; stroke-linejoin: miter; stroke-linecap: square"/>
   </g>
   <g id="patch_4">
    <path d="M 207.64858 189.48 
L 207.64858 23.16 
" style="fill: none; stroke: #000000; stroke-width: 0.8; stroke-linejoin: miter; stroke-linecap: square"/>
   </g>
   <g id="patch_5">
    <path d="M 30.103125 189.48 
L 207.64858 189.48 
" style="fill: none; stroke: #000000; stroke-width: 0.8; stroke-linejoin: miter; stroke-linecap: square"/>
   </g>
   <g id="patch_6">
    <path d="M 30.103125 23.16 
L 207.64858 23.16 
" style="fill: none; stroke: #000000; stroke-width: 0.8; stroke-linejoin: miter; stroke-linecap: square"/>
   </g>
   <g id="text_12">
    <!-- Heave added mass $a^{\ast}_{zz}$ -->
    <g transform="translate(51.195852 17.16) scale(0.12 -0.12)">
     <defs>
      <path id="DejaVuSans-48" d="M 628 4666 
L 1259 4666 
L 1259 2753 
L 3553 2753 
L 3553 4666 
L 4184 4666 
L 4184 0 
L 3553 0 
L 3553 2222 
L 1259 2222 
L 1259 0 
L 628 0 
L 628 4666 
z
" transform="scale(0.015625)"/>
      <path id="DejaVuSans-65" d="M 3597 1894 
L 3597 1613 
L 953 1613 
Q 991 1019 1311 708 
Q 1631 397 2203 397 
Q 2534 397 2845 478 
Q 3156 559 3463 722 
L 3463 178 
Q 3153 47 2828 -22 
Q 2503 -91 2169 -91 
Q 1331 -91 842 396 
Q 353 884 353 1716 
Q 353 2575 817 3079 
Q 1281 3584 2069 3584 
Q 2775 3584 3186 3129 
Q 3597 2675 3597 1894 
z
M 3022 2063 
Q 3016 2534 2758 2815 
Q 2500 3097 2075 3097 
Q 1594 3097 1305 2825 
Q 1016 2553 972 2059 
L 3022 2063 
z
" transform="scale(0.015625)"/>
      <path id="DejaVuSans-61" d="M 2194 1759 
Q 1497 1759 1228 1600 
Q 959 1441 959 1056 
Q 959 750 1161 570 
Q 1363 391 1709 391 
Q 2188 391 2477 730 
Q 2766 1069 2766 1631 
L 2766 1759 
L 2194 1759 
z
M 3341 1997 
L 3341 0 
L 2766 0 
L 2766 531 
Q 2569 213 2275 61 
Q 1981 -91 1556 -91 
Q 1019 -91 701 211 
Q 384 513 384 1019 
Q 384 1609 779 1909 
Q 1175 2209 1959 2209 
L 2766 2209 
L 2766 2266 
Q 2766 2663 2505 2880 
Q 2244 3097 1772 3097 
Q 1472 3097 1187 3025 
Q 903 2953 641 2809 
L 641 3341 
Q 956 3463 1253 3523 
Q 1550 3584 1831 3584 
Q 2591 3584 2966 3190 
Q 3341 2797 3341 1997 
z
" transform="scale(0.015625)"/>
      <path id="DejaVuSans-76" d="M 191 3500 
L 800 3500 
L 1894 563 
L 2988 3500 
L 3597 3500 
L 2284 0 
L 1503 0 
L 191 3500 
z
" transform="scale(0.015625)"/>
      <path id="DejaVuSans-20" transform="scale(0.015625)"/>
      <path id="DejaVuSans-64" d="M 2906 2969 
L 2906 4863 
L 3481 4863 
L 3481 0 
L 2906 0 
L 2906 525 
Q 2725 213 2448 61 
Q 2172 -91 1784 -91 
Q 1150 -91 751 415 
Q 353 922 353 1747 
Q 353 2572 751 3078 
Q 1150 3584 1784 3584 
Q 2172 3584 2448 3432 
Q 2725 3281 2906 2969 
z
M 947 1747 
Q 947 1113 1208 752 
Q 1469 391 1925 391 
Q 2381 391 2643 752 
Q 2906 1113 2906 1747 
Q 2906 2381 2643 2742 
Q 2381 3103 1925 3103 
Q 1469 3103 1208 2742 
Q 947 2381 947 1747 
z
" transform="scale(0.015625)"/>
      <path id="DejaVuSans-6d" d="M 3328 2828 
Q 3544 3216 3844 3400 
Q 4144 3584 4550 3584 
Q 5097 3584 5394 3201 
Q 5691 2819 5691 2113 
L 5691 0 
L 5113 0 
L 5113 2094 
Q 5113 2597 4934 2840 
Q 4756 3084 4391 3084 
Q 3944 3084 3684 2787 
Q 3425 2491 3425 1978 
L 3425 0 
L 2847 0 
L 2847 2094 
Q 2847 2600 2669 2842 
Q 2491 3084 2119 3084 
Q 1678 3084 1418 2786 
Q 1159 2488 1159 1978 
L 1159 0 
L 581 0 
L 581 3500 
L 1159 3500 
L 1159 2956 
Q 1356 3278 1631 3431 
Q 1906 3584 2284 3584 
Q 2666 3584 2933 3390 
Q 3200 3197 3328 2828 
z
" transform="scale(0.015625)"/>
      <path id="DejaVuSans-73" d="M 2834 3397 
L 2834 2853 
Q 2591 2978 2328 3040 
Q 2066 3103 1784 3103 
Q 1356 3103 1142 2972 
Q 928 2841 928 2578 
Q 928 2378 1081 2264 
Q 1234 2150 1697 2047 
L 1894 2003 
Q 2506 1872 2764 1633 
Q 3022 1394 3022 966 
Q 3022 478 2636 193 
Q 2250 -91 1575 -91 
Q 1294 -91 989 -36 
Q 684 19 347 128 
L 347 722 
Q 666 556 975 473 
Q 1284 391 1588 391 
Q 1994 391 2212 530 
Q 2431 669 2431 922 
Q 2431 1156 2273 1281 
Q 2116 1406 1581 1522 
L 1381 1569 
Q 847 1681 609 1914 
Q 372 2147 372 2553 
Q 372 3047 722 3315 
Q 1072 3584 1716 3584 
Q 2034 3584 2315 3537 
Q 2597 3491 2834 3397 
z
" transform="scale(0.015625)"/>
      <path id="DejaVuSans-Oblique-61" d="M 3438 1997 
L 3047 0 
L 2472 0 
L 2578 531 
Q 2325 219 2001 64 
Q 1678 -91 1281 -91 
Q 834 -91 548 182 
Q 263 456 263 884 
Q 263 1497 752 1853 
Q 1241 2209 2100 2209 
L 2900 2209 
L 2931 2363 
Q 2938 2388 2941 2417 
Q 2944 2447 2944 2509 
Q 2944 2788 2717 2942 
Q 2491 3097 2081 3097 
Q 1800 3097 1504 3025 
Q 1209 2953 897 2809 
L 997 3341 
Q 1322 3463 1633 3523 
Q 1944 3584 2234 3584 
Q 2853 3584 3176 3315 
Q 3500 3047 3500 2534 
Q 3500 2431 3484 2292 
Q 3469 2153 3438 1997 
z
M 2816 1759 
L 2241 1759 
Q 1534 1759 1195 1570 
Q 856 1381 856 984 
Q 856 709 1029 553 
Q 1203 397 1509 397 
Q 1978 397 2328 733 
Q 2678 1069 2791 1631 
L 2816 1759 
z
" transform="scale(0.015625)"/>
      <path id="DejaVuSans-Oblique-7a" d="M 744 3500 
L 3475 3500 
L 3372 2975 
L 738 459 
L 2913 459 
L 2822 0 
L -19 0 
L 84 525 
L 2719 3041 
L 653 3041 
L 744 3500 
z
" transform="scale(0.015625)"/>
     </defs>
     <use xlink:href="#DejaVuSans-48" transform="translate(0 0.826562)"/>
     <use xlink:href="#DejaVuSans-65" transform="translate(75.195312 0.826562)"/>
     <use xlink:href="#DejaVuSans-61" transform="translate(136.71875 0.826562)"/>
     <use xlink:href="#DejaVuSans-76" transform="translate(197.998047 0.826562)"/>
     <use xlink:href="#DejaVuSans-65" transform="translate(257.177734 0.826562)"/>
     <use xlink:href="#DejaVuSans-20" transform="translate(318.701172 0.826562)"/>
     <use xlink:href="#DejaVuSans-61" transform="translate(350.488281 0.826562)"/>
     <use xlink:href="#DejaVuSans-64" transform="translate(411.767578 0.826562)"/>
     <use xlink:href="#DejaVuSans-64" transform="translate(475.244141 0.826562)"/>
     <use xlink:href="#DejaVuSans-65" transform="translate(538.720703 0.826562)"/>
     <use xlink:href="#DejaVuSans-64" transform="translate(600.244141 0.826562)"/>
     <use xlink:href="#DejaVuSans-20" transform="translate(663.720703 0.826562)"/>
     <use xlink:href="#DejaVuSans-6d" transform="translate(695.507812 0.826562)"/>
     <use xlink:href="#DejaVuSans-61" transform="translate(792.919922 0.826562)"/>
     <use xlink:href="#DejaVuSans-73" transform="translate(854.199219 0.826562)"/>
     <use xlink:href="#DejaVuSans-73" transform="translate(906.298828 0.826562)"/>
     <use xlink:href="#DejaVuSans-20" transform="translate(958.398438 0.826562)"/>
     <use xlink:href="#DejaVuSans-Oblique-61" transform="translate(990.185547 0.826562)"/>
     <use xlink:href="#DejaVuSans-2217" transform="translate(1056.11474 39.107813) scale(0.7)"/>
     <use xlink:href="#DejaVuSans-Oblique-7a" transform="translate(1051.464844 -26.517188) scale(0.7)"/>
     <use xlink:href="#DejaVuSans-Oblique-7a" transform="translate(1088.208008 -26.517188) scale(0.7)"/>
    </g>
   </g>
  </g>
  <g id="axes_2">
   <g id="patch_7">
    <path d="M 243.15767 189.48 
L 420.703125 189.48 
L 420.703125 23.16 
L 243.15767 23.16 
z
" style="fill: #ffffff"/>
   </g>
   <g id="matplotlib.axis_3">
    <g id="xtick_4">
     <g id="line2d_14">
      <g>
       <use xlink:href="#m11bfdb1d1d" x="251.227918" y="189.48" style="stroke: #000000; stroke-width: 0.8"/>
      </g>
     </g>
     <g id="text_13">
      <!-- 0.0 -->
      <g transform="translate(243.276356 204.078438) scale(0.1 -0.1)">
       <use xlink:href="#DejaVuSans-30"/>
       <use xlink:href="#DejaVuSans-2e" transform="translate(63.623047 0)"/>
       <use xlink:href="#DejaVuSans-30" transform="translate(95.410156 0)"/>
      </g>
     </g>
    </g>
    <g id="xtick_5">
     <g id="line2d_15">
      <g>
       <use xlink:href="#m11bfdb1d1d" x="301.169716" y="189.48" style="stroke: #000000; stroke-width: 0.8"/>
      </g>
     </g>
     <g id="text_14">
      <!-- 0.5 -->
      <g transform="translate(293.218154 204.078438) scale(0.1 -0.1)">
       <use xlink:href="#DejaVuSans-30"/>
       <use xlink:href="#DejaVuSans-2e" transform="translate(63.623047 0)"/>
       <use xlink:href="#DejaVuSans-35" transform="translate(95.410156 0)"/>
      </g>
     </g>
    </g>
    <g id="xtick_6">
     <g id="line2d_16">
      <g>
       <use xlink:href="#m11bfdb1d1d" x="351.111514" y="189.48" style="stroke: #000000; stroke-width: 0.8"/>
      </g>
     </g>
     <g id="text_15">
      <!-- 1.0 -->
      <g transform="translate(343.159952 204.078438) scale(0.1 -0.1)">
       <use xlink:href="#DejaVuSans-31"/>
       <use xlink:href="#DejaVuSans-2e" transform="translate(63.623047 0)"/>
       <use xlink:href="#DejaVuSans-30" transform="translate(95.410156 0)"/>
      </g>
     </g>
    </g>
    <g id="xtick_7">
     <g id="line2d_17">
      <g>
       <use xlink:href="#m11bfdb1d1d" x="401.053312" y="189.48" style="stroke: #000000; stroke-width: 0.8"/>
      </g>
     </g>
     <g id="text_16">
      <!-- 1.5 -->
      <g transform="translate(393.101749 204.078438) scale(0.1 -0.1)">
       <use xlink:href="#DejaVuSans-31"/>
       <use xlink:href="#DejaVuSans-2e" transform="translate(63.623047 0)"/>
       <use xlink:href="#DejaVuSans-35" transform="translate(95.410156 0)"/>
      </g>
     </g>
    </g>
    <g id="text_17">
     <!-- $\omega^{\ast}$ -->
     <g transform="translate(324.430398 217.756563) scale(0.1 -0.1)">
      <use xlink:href="#DejaVuSans-Oblique-3c9" transform="translate(0 0.826562)"/>
      <use xlink:href="#DejaVuSans-2217" transform="translate(88.20638 39.107812) scale(0.7)"/>
     </g>
    </g>
   </g>
   <g id="matplotlib.axis_4">
    <g id="ytick_8">
     <g id="line2d_18">
      <g>
       <use xlink:href="#m3e815cd2f1" x="243.15767" y="181.92" style="stroke: #000000; stroke-width: 0.8"/>
      </g>
     </g>
     <g id="text_18">
      <!-- 0.0 -->
      <g transform="translate(220.254545 185.719219) scale(0.1 -0.1)">
       <use xlink:href="#DejaVuSans-30"/>
       <use xlink:href="#DejaVuSans-2e" transform="translate(63.623047 0)"/>
       <use xlink:href="#DejaVuSans-30" transform="translate(95.410156 0)"/>
      </g>
     </g>
    </g>
    <g id="ytick_9">
     <g id="line2d_19">
      <g>
       <use xlink:href="#m3e815cd2f1" x="243.15767" y="157.781326" style="stroke: #000000; stroke-width: 0.8"/>
      </g>
     </g>
     <g id="text_19">
      <!-- 0.1 -->
      <g transform="translate(220.254545 161.580545) scale(0.1 -0.1)">
       <use xlink:href="#DejaVuSans-30"/>
       <use xlink:href="#DejaVuSans-2e" transform="translate(63.623047 0)"/>
       <use xlink:href="#DejaVuSans-31" transform="translate(95.410156 0)"/>
      </g>
     </g>
    </g>
    <g id="ytick_10">
     <g id="line2d_20">
      <g>
       <use xlink:href="#m3e815cd2f1" x="243.15767" y="133.642652" style="stroke: #000000; stroke-width: 0.8"/>
      </g>
     </g>
     <g id="text_20">
      <!-- 0.2 -->
      <g transform="translate(220.254545 137.44187) scale(0.1 -0.1)">
       <use xlink:href="#DejaVuSans-30"/>
       <use xlink:href="#DejaVuSans-2e" transform="translate(63.623047 0)"/>
       <use xlink:href="#DejaVuSans-32" transform="translate(95.410156 0)"/>
      </g>
     </g>
    </g>
    <g id="ytick_11">
     <g id="line2d_21">
      <g>
       <use xlink:href="#m3e815cd2f1" x="243.15767" y="109.503977" style="stroke: #000000; stroke-width: 0.8"/>
      </g>
     </g>
     <g id="text_21">
      <!-- 0.3 -->
      <g transform="translate(220.254545 113.303196) scale(0.1 -0.1)">
       <use xlink:href="#DejaVuSans-30"/>
       <use xlink:href="#DejaVuSans-2e" transform="translate(63.623047 0)"/>
       <use xlink:href="#DejaVuSans-33" transform="translate(95.410156 0)"/>
      </g>
     </g>
    </g>
    <g id="ytick_12">
     <g id="line2d_22">
      <g>
       <use xlink:href="#m3e815cd2f1" x="243.15767" y="85.365303" style="stroke: #000000; stroke-width: 0.8"/>
      </g>
     </g>
     <g id="text_22">
      <!-- 0.4 -->
      <g transform="translate(220.254545 89.164522) scale(0.1 -0.1)">
       <defs>
        <path id="DejaVuSans-34" d="M 2419 4116 
L 825 1625 
L 2419 1625 
L 2419 4116 
z
M 2253 4666 
L 3047 4666 
L 3047 1625 
L 3713 1625 
L 3713 1100 
L 3047 1100 
L 3047 0 
L 2419 0 
L 2419 1100 
L 313 1100 
L 313 1709 
L 2253 4666 
z
" transform="scale(0.015625)"/>
       </defs>
       <use xlink:href="#DejaVuSans-30"/>
       <use xlink:href="#DejaVuSans-2e" transform="translate(63.623047 0)"/>
       <use xlink:href="#DejaVuSans-34" transform="translate(95.410156 0)"/>
      </g>
     </g>
    </g>
    <g id="ytick_13">
     <g id="line2d_23">
      <g>
       <use xlink:href="#m3e815cd2f1" x="243.15767" y="61.226629" style="stroke: #000000; stroke-width: 0.8"/>
      </g>
     </g>
     <g id="text_23">
      <!-- 0.5 -->
      <g transform="translate(220.254545 65.025848) scale(0.1 -0.1)">
       <use xlink:href="#DejaVuSans-30"/>
       <use xlink:href="#DejaVuSans-2e" transform="translate(63.623047 0)"/>
       <use xlink:href="#DejaVuSans-35" transform="translate(95.410156 0)"/>
      </g>
     </g>
    </g>
    <g id="ytick_14">
     <g id="line2d_24">
      <g>
       <use xlink:href="#m3e815cd2f1" x="243.15767" y="37.087955" style="stroke: #000000; stroke-width: 0.8"/>
      </g>
     </g>
     <g id="text_24">
      <!-- 0.6 -->
      <g transform="translate(220.254545 40.887174) scale(0.1 -0.1)">
       <defs>
        <path id="DejaVuSans-36" d="M 2113 2584 
Q 1688 2584 1439 2293 
Q 1191 2003 1191 1497 
Q 1191 994 1439 701 
Q 1688 409 2113 409 
Q 2538 409 2786 701 
Q 3034 994 3034 1497 
Q 3034 2003 2786 2293 
Q 2538 2584 2113 2584 
z
M 3366 4563 
L 3366 3988 
Q 3128 4100 2886 4159 
Q 2644 4219 2406 4219 
Q 1781 4219 1451 3797 
Q 1122 3375 1075 2522 
Q 1259 2794 1537 2939 
Q 1816 3084 2150 3084 
Q 2853 3084 3261 2657 
Q 3669 2231 3669 1497 
Q 3669 778 3244 343 
Q 2819 -91 2113 -91 
Q 1303 -91 875 529 
Q 447 1150 447 2328 
Q 447 3434 972 4092 
Q 1497 4750 2381 4750 
Q 2619 4750 2861 4703 
Q 3103 4656 3366 4563 
z
" transform="scale(0.015625)"/>
       </defs>
       <use xlink:href="#DejaVuSans-30"/>
       <use xlink:href="#DejaVuSans-2e" transform="translate(63.623047 0)"/>
       <use xlink:href="#DejaVuSans-36" transform="translate(95.410156 0)"/>
      </g>
     </g>
    </g>
   </g>
   <g id="line2d_25">
    <path d="M 251.227918 181.92 
L 254.373388 163.323944 
L 259.094308 136.977188 
L 262.557584 118.378319 
L 266.656473 99.773823 
L 270.127898 85.816935 
L 273.918488 72.630897 
L 277.71451 62.539512 
L 280.880352 55.548408 
L 283.731103 50.107444 
L 287.216109 43.88719 
L 291.972342 37.655683 
L 297.368262 33.739539 
L 302.451807 32.920863 
L 307.855876 33.6467 
L 311.990077 35.157454 
L 316.763965 38.983571 
L 321.858376 44.354202 
L 327.908923 51.26372 
L 333.962186 59.720564 
L 341.930437 72.80251 
L 347.667252 82.035831 
L 353.404067 91.269152 
L 359.139524 99.72881 
L 365.51331 109.730168 
L 369.973466 115.880089 
L 376.980148 124.328494 
L 383.030695 131.238012 
L 388.444271 137.379493 
L 394.811266 143.512534 
L 400.54129 148.877538 
L 406.587763 153.466066 
L 412.632877 157.28093 
" clip-path="url(#p5780afe056)" style="fill: none; stroke: #000000; stroke-width: 1.5; stroke-linecap: square"/>
   </g>
   <g id="line2d_26">
    <path d="M 259.200513 135.095516 
L 260.730607 126.967358 
L 262.260701 119.187065 
L 263.790794 111.767142 
L 265.320888 104.714737 
L 266.850982 98.032717 
L 268.381076 91.720548 
L 269.91117 85.775033 
L 271.441264 80.190913 
L 272.971358 74.96137 
L 274.501452 70.07843 
L 276.031546 65.533301 
L 277.561639 61.316638 
L 279.091733 57.418753 
L 280.621827 53.82979 
L 282.151921 50.53985 
L 283.682015 47.53909 
L 285.212109 44.817795 
L 286.742203 42.366434 
L 288.272297 40.175686 
L 289.802391 38.23647 
L 291.332484 36.539944 
L 292.862578 35.077515 
L 294.392672 33.840826 
L 295.922766 32.82175 
L 297.45286 32.01237 
L 298.982954 31.404969 
L 300.513048 30.992005 
L 302.043142 30.766095 
L 303.573236 30.72 
L 305.103329 30.846599 
L 306.633423 31.138877 
L 308.163517 31.589911 
L 309.693611 32.19285 
L 311.223705 32.940908 
L 312.753799 33.827355 
L 314.283893 34.845504 
L 315.813987 35.988709 
L 317.34408 37.250363 
L 318.874174 38.623893 
L 320.404268 40.102765 
L 321.934362 41.680482 
L 323.464456 43.350594 
L 324.99455 45.106699 
L 326.524644 46.942455 
L 328.054738 48.851588 
L 329.584832 50.827898 
L 331.114925 52.865276 
L 332.645019 54.957711 
L 334.175113 57.099304 
L 335.705207 59.284277 
L 337.235301 61.506989 
L 338.765395 63.761945 
L 340.295489 66.043808 
L 341.825583 68.347408 
L 343.355677 70.667755 
L 344.88577 73.000047 
L 346.415864 75.339675 
L 347.945958 77.682235 
L 349.476052 80.023531 
L 351.006146 82.359579 
L 352.53624 84.686614 
L 354.066334 87.00109 
L 355.596428 89.299681 
L 357.126521 91.579283 
L 358.656615 93.837012 
L 360.186709 96.070202 
L 361.716803 98.276402 
L 363.246897 100.453373 
L 364.776991 102.599082 
L 366.307085 104.711697 
L 367.837179 106.789584 
L 369.367273 108.831293 
L 370.897366 110.835559 
L 372.42746 112.801288 
L 373.957554 114.727556 
L 375.487648 116.613592 
L 377.017742 118.458778 
L 378.547836 120.262634 
L 380.07793 122.024816 
L 381.608024 123.745101 
L 383.138118 125.423384 
L 384.668211 127.059666 
L 386.198305 128.654048 
L 387.728399 130.206723 
L 389.258493 131.717967 
L 390.788587 133.188134 
L 392.318681 134.617646 
L 393.848775 136.006988 
L 395.378869 137.356702 
L 396.908962 138.667378 
L 398.439056 139.939653 
L 399.96915 141.1742 
L 401.499244 142.371726 
L 403.029338 143.532969 
L 404.559432 144.658687 
L 406.089526 145.749661 
L 407.61962 146.806687 
L 409.149714 147.830571 
L 410.679807 148.822132 
" clip-path="url(#p5780afe056)" style="fill: none; stroke-dasharray: 1.5,2.475; stroke-dashoffset: 0; stroke: #ff0000; stroke-width: 1.5"/>
   </g>
   <g id="line2d_27">
    <g clip-path="url(#p5780afe056)">
     <use xlink:href="#m1fd41bcaf3" x="264.489747" y="105.840105" style="fill: #bfbf00; stroke: #0000ff"/>
     <use xlink:href="#m1fd41bcaf3" x="269.738092" y="109.779055" style="fill: #bfbf00; stroke: #0000ff"/>
     <use xlink:href="#m1fd41bcaf3" x="272.676856" y="105.807648" style="fill: #bfbf00; stroke: #0000ff"/>
     <use xlink:href="#m1fd41bcaf3" x="276.582602" y="94.704847" style="fill: #bfbf00; stroke: #0000ff"/>
     <use xlink:href="#m1fd41bcaf3" x="282.75839" y="73.29768" style="fill: #bfbf00; stroke: #0000ff"/>
     <use xlink:href="#m1fd41bcaf3" x="287.641431" y="59.81515" style="fill: #bfbf00; stroke: #0000ff"/>
     <use xlink:href="#m1fd41bcaf3" x="288.313591" y="67.731998" style="fill: #bfbf00; stroke: #0000ff"/>
     <use xlink:href="#m1fd41bcaf3" x="294.168771" y="49.493907" style="fill: #bfbf00; stroke: #0000ff"/>
     <use xlink:href="#m1fd41bcaf3" x="301.023595" y="39.171366" style="fill: #bfbf00; stroke: #0000ff"/>
     <use xlink:href="#m1fd41bcaf3" x="307.249236" y="40.730588" style="fill: #bfbf00; stroke: #0000ff"/>
     <use xlink:href="#m1fd41bcaf3" x="313.140517" y="39.12333" style="fill: #bfbf00; stroke: #0000ff"/>
     <use xlink:href="#m1fd41bcaf3" x="313.150831" y="43.874997" style="fill: #bfbf00; stroke: #0000ff"/>
     <use xlink:href="#m1fd41bcaf3" x="319.373034" y="43.850329" style="fill: #bfbf00; stroke: #0000ff"/>
     <use xlink:href="#m1fd41bcaf3" x="325.614147" y="52.537051" style="fill: #bfbf00; stroke: #0000ff"/>
     <use xlink:href="#m1fd41bcaf3" x="331.526057" y="60.433127" style="fill: #bfbf00; stroke: #0000ff"/>
     <use xlink:href="#m1fd41bcaf3" x="338.091216" y="67.534661" style="fill: #bfbf00; stroke: #0000ff"/>
     <use xlink:href="#m1fd41bcaf3" x="344.006564" y="77.014626" style="fill: #bfbf00; stroke: #0000ff"/>
     <use xlink:href="#m1fd41bcaf3" x="350.5786" y="87.283938" style="fill: #bfbf00; stroke: #0000ff"/>
     <use xlink:href="#m1fd41bcaf3" x="356.492229" y="95.971958" style="fill: #bfbf00; stroke: #0000ff"/>
     <use xlink:href="#m1fd41bcaf3" x="362.4007" y="102.284145" style="fill: #bfbf00; stroke: #0000ff"/>
     <use xlink:href="#m1fd41bcaf3" x="368.969298" y="110.969568" style="fill: #bfbf00; stroke: #0000ff"/>
     <use xlink:href="#m1fd41bcaf3" x="375.21213" y="120.448234" style="fill: #bfbf00; stroke: #0000ff"/>
     <use xlink:href="#m1fd41bcaf3" x="381.442928" y="124.383289" style="fill: #bfbf00; stroke: #0000ff"/>
     <use xlink:href="#m1fd41bcaf3" x="387.677165" y="129.902233" style="fill: #bfbf00; stroke: #0000ff"/>
     <use xlink:href="#m1fd41bcaf3" x="393.585637" y="136.21442" style="fill: #bfbf00; stroke: #0000ff"/>
     <use xlink:href="#m1fd41bcaf3" x="397.854967" y="141.741153" style="fill: #bfbf00; stroke: #0000ff"/>
    </g>
   </g>
   <g id="patch_8">
    <path d="M 243.15767 189.48 
L 243.15767 23.16 
" style="fill: none; stroke: #000000; stroke-width: 0.8; stroke-linejoin: miter; stroke-linecap: square"/>
   </g>
   <g id="patch_9">
    <path d="M 420.703125 189.48 
L 420.703125 23.16 
" style="fill: none; stroke: #000000; stroke-width: 0.8; stroke-linejoin: miter; stroke-linecap: square"/>
   </g>
   <g id="patch_10">
    <path d="M 243.15767 189.48 
L 420.703125 189.48 
" style="fill: none; stroke: #000000; stroke-width: 0.8; stroke-linejoin: miter; stroke-linecap: square"/>
   </g>
   <g id="patch_11">
    <path d="M 243.15767 23.16 
L 420.703125 23.16 
" style="fill: none; stroke: #000000; stroke-width: 0.8; stroke-linejoin: miter; stroke-linecap: square"/>
   </g>
   <g id="text_25">
    <!-- Heave radiation damping $b^{\ast}_{zz}$ -->
    <g transform="translate(245.470398 17.16) scale(0.12 -0.12)">
     <defs>
      <path id="DejaVuSans-72" d="M 2631 2963 
Q 2534 3019 2420 3045 
Q 2306 3072 2169 3072 
Q 1681 3072 1420 2755 
Q 1159 2438 1159 1844 
L 1159 0 
L 581 0 
L 581 3500 
L 1159 3500 
L 1159 2956 
Q 1341 3275 1631 3429 
Q 1922 3584 2338 3584 
Q 2397 3584 2469 3576 
Q 2541 3569 2628 3553 
L 2631 2963 
z
" transform="scale(0.015625)"/>
      <path id="DejaVuSans-69" d="M 603 3500 
L 1178 3500 
L 1178 0 
L 603 0 
L 603 3500 
z
M 603 4863 
L 1178 4863 
L 1178 4134 
L 603 4134 
L 603 4863 
z
" transform="scale(0.015625)"/>
      <path id="DejaVuSans-74" d="M 1172 4494 
L 1172 3500 
L 2356 3500 
L 2356 3053 
L 1172 3053 
L 1172 1153 
Q 1172 725 1289 603 
Q 1406 481 1766 481 
L 2356 481 
L 2356 0 
L 1766 0 
Q 1100 0 847 248 
Q 594 497 594 1153 
L 594 3053 
L 172 3053 
L 172 3500 
L 594 3500 
L 594 4494 
L 1172 4494 
z
" transform="scale(0.015625)"/>
      <path id="DejaVuSans-6f" d="M 1959 3097 
Q 1497 3097 1228 2736 
Q 959 2375 959 1747 
Q 959 1119 1226 758 
Q 1494 397 1959 397 
Q 2419 397 2687 759 
Q 2956 1122 2956 1747 
Q 2956 2369 2687 2733 
Q 2419 3097 1959 3097 
z
M 1959 3584 
Q 2709 3584 3137 3096 
Q 3566 2609 3566 1747 
Q 3566 888 3137 398 
Q 2709 -91 1959 -91 
Q 1206 -91 779 398 
Q 353 888 353 1747 
Q 353 2609 779 3096 
Q 1206 3584 1959 3584 
z
" transform="scale(0.015625)"/>
      <path id="DejaVuSans-6e" d="M 3513 2113 
L 3513 0 
L 2938 0 
L 2938 2094 
Q 2938 2591 2744 2837 
Q 2550 3084 2163 3084 
Q 1697 3084 1428 2787 
Q 1159 2491 1159 1978 
L 1159 0 
L 581 0 
L 581 3500 
L 1159 3500 
L 1159 2956 
Q 1366 3272 1645 3428 
Q 1925 3584 2291 3584 
Q 2894 3584 3203 3211 
Q 3513 2838 3513 2113 
z
" transform="scale(0.015625)"/>
      <path id="DejaVuSans-70" d="M 1159 525 
L 1159 -1331 
L 581 -1331 
L 581 3500 
L 1159 3500 
L 1159 2969 
Q 1341 3281 1617 3432 
Q 1894 3584 2278 3584 
Q 2916 3584 3314 3078 
Q 3713 2572 3713 1747 
Q 3713 922 3314 415 
Q 2916 -91 2278 -91 
Q 1894 -91 1617 61 
Q 1341 213 1159 525 
z
M 3116 1747 
Q 3116 2381 2855 2742 
Q 2594 3103 2138 3103 
Q 1681 3103 1420 2742 
Q 1159 2381 1159 1747 
Q 1159 1113 1420 752 
Q 1681 391 2138 391 
Q 2594 391 2855 752 
Q 3116 1113 3116 1747 
z
" transform="scale(0.015625)"/>
      <path id="DejaVuSans-67" d="M 2906 1791 
Q 2906 2416 2648 2759 
Q 2391 3103 1925 3103 
Q 1463 3103 1205 2759 
Q 947 2416 947 1791 
Q 947 1169 1205 825 
Q 1463 481 1925 481 
Q 2391 481 2648 825 
Q 2906 1169 2906 1791 
z
M 3481 434 
Q 3481 -459 3084 -895 
Q 2688 -1331 1869 -1331 
Q 1566 -1331 1297 -1286 
Q 1028 -1241 775 -1147 
L 775 -588 
Q 1028 -725 1275 -790 
Q 1522 -856 1778 -856 
Q 2344 -856 2625 -561 
Q 2906 -266 2906 331 
L 2906 616 
Q 2728 306 2450 153 
Q 2172 0 1784 0 
Q 1141 0 747 490 
Q 353 981 353 1791 
Q 353 2603 747 3093 
Q 1141 3584 1784 3584 
Q 2172 3584 2450 3431 
Q 2728 3278 2906 2969 
L 2906 3500 
L 3481 3500 
L 3481 434 
z
" transform="scale(0.015625)"/>
      <path id="DejaVuSans-Oblique-62" d="M 3169 2138 
Q 3169 2591 2961 2847 
Q 2753 3103 2388 3103 
Q 2122 3103 1889 2973 
Q 1656 2844 1484 2597 
Q 1303 2338 1198 1995 
Q 1094 1653 1094 1313 
Q 1094 881 1298 636 
Q 1503 391 1863 391 
Q 2134 391 2365 517 
Q 2597 644 2772 891 
Q 2950 1147 3059 1487 
Q 3169 1828 3169 2138 
z
M 1381 2969 
Q 1594 3256 1914 3420 
Q 2234 3584 2584 3584 
Q 3122 3584 3439 3221 
Q 3756 2859 3756 2241 
Q 3756 1734 3570 1259 
Q 3384 784 3041 416 
Q 2816 172 2522 40 
Q 2228 -91 1906 -91 
Q 1566 -91 1316 65 
Q 1066 222 909 531 
L 806 0 
L 231 0 
L 1178 4863 
L 1753 4863 
L 1381 2969 
z
" transform="scale(0.015625)"/>
     </defs>
     <use xlink:href="#DejaVuSans-48" transform="translate(0 0.826562)"/>
     <use xlink:href="#DejaVuSans-65" transform="translate(75.195312 0.826562)"/>
     <use xlink:href="#DejaVuSans-61" transform="translate(136.71875 0.826562)"/>
     <use xlink:href="#DejaVuSans-76" transform="translate(197.998047 0.826562)"/>
     <use xlink:href="#DejaVuSans-65" transform="translate(257.177734 0.826562)"/>
     <use xlink:href="#DejaVuSans-20" transform="translate(318.701172 0.826562)"/>
     <use xlink:href="#DejaVuSans-72" transform="translate(350.488281 0.826562)"/>
     <use xlink:href="#DejaVuSans-61" transform="translate(391.601562 0.826562)"/>
     <use xlink:href="#DejaVuSans-64" transform="translate(452.880859 0.826562)"/>
     <use xlink:href="#DejaVuSans-69" transform="translate(516.357422 0.826562)"/>
     <use xlink:href="#DejaVuSans-61" transform="translate(544.140625 0.826562)"/>
     <use xlink:href="#DejaVuSans-74" transform="translate(605.419922 0.826562)"/>
     <use xlink:href="#DejaVuSans-69" transform="translate(644.628906 0.826562)"/>
     <use xlink:href="#DejaVuSans-6f" transform="translate(672.412109 0.826562)"/>
     <use xlink:href="#DejaVuSans-6e" transform="translate(733.59375 0.826562)"/>
     <use xlink:href="#DejaVuSans-20" transform="translate(796.972656 0.826562)"/>
     <use xlink:href="#DejaVuSans-64" transform="translate(828.759766 0.826562)"/>
     <use xlink:href="#DejaVuSans-61" transform="translate(892.236328 0.826562)"/>
     <use xlink:href="#DejaVuSans-6d" transform="translate(953.515625 0.826562)"/>
     <use xlink:href="#DejaVuSans-70" transform="translate(1050.927734 0.826562)"/>
     <use xlink:href="#DejaVuSans-69" transform="translate(1114.404297 0.826562)"/>
     <use xlink:href="#DejaVuSans-6e" transform="translate(1142.1875 0.826562)"/>
     <use xlink:href="#DejaVuSans-67" transform="translate(1205.566406 0.826562)"/>
     <use xlink:href="#DejaVuSans-20" transform="translate(1269.042969 0.826562)"/>
     <use xlink:href="#DejaVuSans-Oblique-62" transform="translate(1300.830078 0.826562)"/>
     <use xlink:href="#DejaVuSans-2217" transform="translate(1371.754349 39.107813) scale(0.7)"/>
     <use xlink:href="#DejaVuSans-Oblique-7a" transform="translate(1364.306641 -26.517188) scale(0.7)"/>
     <use xlink:href="#DejaVuSans-Oblique-7a" transform="translate(1401.049805 -26.517188) scale(0.7)"/>
    </g>
   </g>
   <g id="legend_1">
    <g id="patch_12">
     <path d="M 282.587429 184.48 
L 381.273366 184.48 
Q 383.273366 184.48 383.273366 182.48 
L 383.273366 139.445625 
Q 383.273366 137.445625 381.273366 137.445625 
L 282.587429 137.445625 
Q 280.587429 137.445625 280.587429 139.445625 
L 280.587429 182.48 
Q 280.587429 184.48 282.587429 184.48 
z
" style="fill: #ffffff; opacity: 0.8; stroke: #cccccc; stroke-linejoin: miter"/>
    </g>
    <g id="line2d_28">
     <path d="M 284.587429 145.544063 
L 294.587429 145.544063 
L 304.587429 145.544063 
" style="fill: none; stroke: #000000; stroke-width: 1.5; stroke-linecap: square"/>
    </g>
    <g id="text_26">
     <!-- Analytical -->
     <g transform="translate(312.587429 149.044063) scale(0.1 -0.1)">
      <defs>
       <path id="DejaVuSans-41" d="M 2188 4044 
L 1331 1722 
L 3047 1722 
L 2188 4044 
z
M 1831 4666 
L 2547 4666 
L 4325 0 
L 3669 0 
L 3244 1197 
L 1141 1197 
L 716 0 
L 50 0 
L 1831 4666 
z
" transform="scale(0.015625)"/>
       <path id="DejaVuSans-6c" d="M 603 4863 
L 1178 4863 
L 1178 0 
L 603 0 
L 603 4863 
z
" transform="scale(0.015625)"/>
       <path id="DejaVuSans-79" d="M 2059 -325 
Q 1816 -950 1584 -1140 
Q 1353 -1331 966 -1331 
L 506 -1331 
L 506 -850 
L 844 -850 
Q 1081 -850 1212 -737 
Q 1344 -625 1503 -206 
L 1606 56 
L 191 3500 
L 800 3500 
L 1894 763 
L 2988 3500 
L 3597 3500 
L 2059 -325 
z
" transform="scale(0.015625)"/>
       <path id="DejaVuSans-63" d="M 3122 3366 
L 3122 2828 
Q 2878 2963 2633 3030 
Q 2388 3097 2138 3097 
Q 1578 3097 1268 2742 
Q 959 2388 959 1747 
Q 959 1106 1268 751 
Q 1578 397 2138 397 
Q 2388 397 2633 464 
Q 2878 531 3122 666 
L 3122 134 
Q 2881 22 2623 -34 
Q 2366 -91 2075 -91 
Q 1284 -91 818 406 
Q 353 903 353 1747 
Q 353 2603 823 3093 
Q 1294 3584 2113 3584 
Q 2378 3584 2631 3529 
Q 2884 3475 3122 3366 
z
" transform="scale(0.015625)"/>
      </defs>
      <use xlink:href="#DejaVuSans-41"/>
      <use xlink:href="#DejaVuSans-6e" transform="translate(68.408203 0)"/>
      <use xlink:href="#DejaVuSans-61" transform="translate(131.787109 0)"/>
      <use xlink:href="#DejaVuSans-6c" transform="translate(193.066406 0)"/>
      <use xlink:href="#DejaVuSans-79" transform="translate(220.849609 0)"/>
      <use xlink:href="#DejaVuSans-74" transform="translate(280.029297 0)"/>
      <use xlink:href="#DejaVuSans-69" transform="translate(319.238281 0)"/>
      <use xlink:href="#DejaVuSans-63" transform="translate(347.021484 0)"/>
      <use xlink:href="#DejaVuSans-61" transform="translate(402.001953 0)"/>
      <use xlink:href="#DejaVuSans-6c" transform="translate(463.28125 0)"/>
     </g>
    </g>
    <g id="line2d_29">
     <g>
      <use xlink:href="#m1fd41bcaf3" x="294.587429" y="160.222188" style="fill: #bfbf00; stroke: #0000ff"/>
     </g>
    </g>
    <g id="text_27">
     <!-- Experimental -->
     <g transform="translate(312.587429 163.722188) scale(0.1 -0.1)">
      <defs>
       <path id="DejaVuSans-45" d="M 628 4666 
L 3578 4666 
L 3578 4134 
L 1259 4134 
L 1259 2753 
L 3481 2753 
L 3481 2222 
L 1259 2222 
L 1259 531 
L 3634 531 
L 3634 0 
L 628 0 
L 628 4666 
z
" transform="scale(0.015625)"/>
       <path id="DejaVuSans-78" d="M 3513 3500 
L 2247 1797 
L 3578 0 
L 2900 0 
L 1881 1375 
L 863 0 
L 184 0 
L 1544 1831 
L 300 3500 
L 978 3500 
L 1906 2253 
L 2834 3500 
L 3513 3500 
z
" transform="scale(0.015625)"/>
      </defs>
      <use xlink:href="#DejaVuSans-45"/>
      <use xlink:href="#DejaVuSans-78" transform="translate(63.183594 0)"/>
      <use xlink:href="#DejaVuSans-70" transform="translate(122.363281 0)"/>
      <use xlink:href="#DejaVuSans-65" transform="translate(185.839844 0)"/>
      <use xlink:href="#DejaVuSans-72" transform="translate(247.363281 0)"/>
      <use xlink:href="#DejaVuSans-69" transform="translate(288.476562 0)"/>
      <use xlink:href="#DejaVuSans-6d" transform="translate(316.259766 0)"/>
      <use xlink:href="#DejaVuSans-65" transform="translate(413.671875 0)"/>
      <use xlink:href="#DejaVuSans-6e" transform="translate(475.195312 0)"/>
      <use xlink:href="#DejaVuSans-74" transform="translate(538.574219 0)"/>
      <use xlink:href="#DejaVuSans-61" transform="translate(577.783203 0)"/>
      <use xlink:href="#DejaVuSans-6c" transform="translate(639.0625 0)"/>
     </g>
    </g>
    <g id="line2d_30">
     <path d="M 284.587429 174.900313 
L 294.587429 174.900313 
L 304.587429 174.900313 
" style="fill: none; stroke-dasharray: 1.5,2.475; stroke-dashoffset: 0; stroke: #ff0000; stroke-width: 1.5"/>
    </g>
    <g id="text_28">
     <!-- BEM -->
     <g transform="translate(312.587429 178.400313) scale(0.1 -0.1)">
      <defs>
       <path id="DejaVuSans-42" d="M 1259 2228 
L 1259 519 
L 2272 519 
Q 2781 519 3026 730 
Q 3272 941 3272 1375 
Q 3272 1813 3026 2020 
Q 2781 2228 2272 2228 
L 1259 2228 
z
M 1259 4147 
L 1259 2741 
L 2194 2741 
Q 2656 2741 2882 2914 
Q 3109 3088 3109 3444 
Q 3109 3797 2882 3972 
Q 2656 4147 2194 4147 
L 1259 4147 
z
M 628 4666 
L 2241 4666 
Q 2963 4666 3353 4366 
Q 3744 4066 3744 3513 
Q 3744 3084 3544 2831 
Q 3344 2578 2956 2516 
Q 3422 2416 3680 2098 
Q 3938 1781 3938 1306 
Q 3938 681 3513 340 
Q 3088 0 2303 0 
L 628 0 
L 628 4666 
z
" transform="scale(0.015625)"/>
       <path id="DejaVuSans-4d" d="M 628 4666 
L 1569 4666 
L 2759 1491 
L 3956 4666 
L 4897 4666 
L 4897 0 
L 4281 0 
L 4281 4097 
L 3078 897 
L 2444 897 
L 1241 4097 
L 1241 0 
L 628 0 
L 628 4666 
z
" transform="scale(0.015625)"/>
      </defs>
      <use xlink:href="#DejaVuSans-42"/>
      <use xlink:href="#DejaVuSans-45" transform="translate(68.603516 0)"/>
      <use xlink:href="#DejaVuSans-4d" transform="translate(131.787109 0)"/>
     </g>
    </g>
   </g>
  </g>
 </g>
 <defs>
  <clipPath id="p4573293cfa">
   <rect x="30.103125" y="23.16" width="177.545455" height="166.32"/>
  </clipPath>
  <clipPath id="p5780afe056">
   <rect x="243.15767" y="23.16" width="177.545455" height="166.32"/>
  </clipPath>
 </defs>
</svg>
