<?xml version="1.0" encoding="utf-8" standalone="no"?>
<!DOCTYPE svg PUBLIC "-//W3C//DTD SVG 1.1//EN"
  "http://www.w3.org/Graphics/SVG/1.1/DTD/svg11.dtd">
<svg xmlns:xlink="http://www.w3.org/1999/xlink" width="434.265625pt" height="226.194375pt" viewBox="0 0 434.265625 226.194375" xmlns="http://www.w3.org/2000/svg" version="1.1">
 <metadata>
  <rdf:RDF xmlns:dc="http://purl.org/dc/elements/1.1/" xmlns:cc="http://creativecommons.org/ns#" xmlns:rdf="http://www.w3.org/1999/02/22-rdf-syntax-ns#">
   <cc:Work>
    <dc:type rdf:resource="http://purl.org/dc/dcmitype/StillImage"/>
    <dc:date>2025-08-23T00:06:47.122100</dc:date>
    <dc:format>image/svg+xml</dc:format>
    <dc:creator>
     <cc:Agent>
      <dc:title>Matplotlib v3.10.0, https://matplotlib.org/</dc:title>
     </cc:Agent>
    </dc:creator>
   </cc:Work>
  </rdf:RDF>
 </metadata>
 <defs>
  <style type="text/css">*{stroke-linejoin: round; stroke-linecap: butt}</style>
 </defs>
 <g id="figure_1">
  <g id="patch_1">
   <path d="M 0 226.194375 
L 434.265625 226.194375 
L 434.265625 0 
L 0 0 
z
" style="fill: #ffffff"/>
  </g>
  <g id="axes_1">
   <g id="patch_2">
    <path d="M 36.465625 188.638125 
L 214.01108 188.638125 
L 214.01108 22.318125 
L 36.465625 22.318125 
z
" style="fill: #ffffff"/>
   </g>
   <g id="matplotlib.axis_1">
    <g id="xtick_1">
     <g id="line2d_1">
      <defs>
       <path id="m774f52a3cd" d="M 0 0 
L 0 3.5 
" style="stroke: #000000; stroke-width: 0.8"/>
      </defs>
      <g>
       <use xlink:href="#m774f52a3cd" x="44.212416" y="188.638125" style="stroke: #000000; stroke-width: 0.8"/>
      </g>
     </g>
     <g id="text_1">
      <!-- 0.0 -->
      <g transform="translate(36.260854 203.236563) scale(0.1 -0.1)">
       <defs>
        <path id="DejaVuSans-30" d="M 2034 4250 
Q 1547 4250 1301 3770 
Q 1056 3291 1056 2328 
Q 1056 1369 1301 889 
Q 1547 409 2034 409 
Q 2525 409 2770 889 
Q 3016 1369 3016 2328 
Q 3016 3291 2770 3770 
Q 2525 4250 2034 4250 
z
M 2034 4750 
Q 2819 4750 3233 4129 
Q 3647 3509 3647 2328 
Q 3647 1150 3233 529 
Q 2819 -91 2034 -91 
Q 1250 -91 836 529 
Q 422 1150 422 2328 
Q 422 3509 836 4129 
Q 1250 4750 2034 4750 
z
" transform="scale(0.015625)"/>
        <path id="DejaVuSans-2e" d="M 684 794 
L 1344 794 
L 1344 0 
L 684 0 
L 684 794 
z
" transform="scale(0.015625)"/>
       </defs>
       <use xlink:href="#DejaVuSans-30"/>
       <use xlink:href="#DejaVuSans-2e" transform="translate(63.623047 0)"/>
       <use xlink:href="#DejaVuSans-30" transform="translate(95.410156 0)"/>
      </g>
     </g>
    </g>
    <g id="xtick_2">
     <g id="line2d_2">
      <g>
       <use xlink:href="#m774f52a3cd" x="94.486849" y="188.638125" style="stroke: #000000; stroke-width: 0.8"/>
      </g>
     </g>
     <g id="text_2">
      <!-- 0.5 -->
      <g transform="translate(86.535287 203.236563) scale(0.1 -0.1)">
       <defs>
        <path id="DejaVuSans-35" d="M 691 4666 
L 3169 4666 
L 3169 4134 
L 1269 4134 
L 1269 2991 
Q 1406 3038 1543 3061 
Q 1681 3084 1819 3084 
Q 2600 3084 3056 2656 
Q 3513 2228 3513 1497 
Q 3513 744 3044 326 
Q 2575 -91 1722 -91 
Q 1428 -91 1123 -41 
Q 819 9 494 109 
L 494 744 
Q 775 591 1075 516 
Q 1375 441 1709 441 
Q 2250 441 2565 725 
Q 2881 1009 2881 1497 
Q 2881 1984 2565 2268 
Q 2250 2553 1709 2553 
Q 1456 2553 1204 2497 
Q 953 2441 691 2322 
L 691 4666 
z
" transform="scale(0.015625)"/>
       </defs>
       <use xlink:href="#DejaVuSans-30"/>
       <use xlink:href="#DejaVuSans-2e" transform="translate(63.623047 0)"/>
       <use xlink:href="#DejaVuSans-35" transform="translate(95.410156 0)"/>
      </g>
     </g>
    </g>
    <g id="xtick_3">
     <g id="line2d_3">
      <g>
       <use xlink:href="#m774f52a3cd" x="144.761282" y="188.638125" style="stroke: #000000; stroke-width: 0.8"/>
      </g>
     </g>
     <g id="text_3">
      <!-- 1.0 -->
      <g transform="translate(136.80972 203.236563) scale(0.1 -0.1)">
       <defs>
        <path id="DejaVuSans-31" d="M 794 531 
L 1825 531 
L 1825 4091 
L 703 3866 
L 703 4441 
L 1819 4666 
L 2450 4666 
L 2450 531 
L 3481 531 
L 3481 0 
L 794 0 
L 794 531 
z
" transform="scale(0.015625)"/>
       </defs>
       <use xlink:href="#DejaVuSans-31"/>
       <use xlink:href="#DejaVuSans-2e" transform="translate(63.623047 0)"/>
       <use xlink:href="#DejaVuSans-30" transform="translate(95.410156 0)"/>
      </g>
     </g>
    </g>
    <g id="xtick_4">
     <g id="line2d_4">
      <g>
       <use xlink:href="#m774f52a3cd" x="195.035716" y="188.638125" style="stroke: #000000; stroke-width: 0.8"/>
      </g>
     </g>
     <g id="text_4">
      <!-- 1.5 -->
      <g transform="translate(187.084153 203.236563) scale(0.1 -0.1)">
       <use xlink:href="#DejaVuSans-31"/>
       <use xlink:href="#DejaVuSans-2e" transform="translate(63.623047 0)"/>
       <use xlink:href="#DejaVuSans-35" transform="translate(95.410156 0)"/>
      </g>
     </g>
    </g>
    <g id="text_5">
     <!-- $\omega^{\ast}$ -->
     <g transform="translate(117.738352 216.914688) scale(0.1 -0.1)">
      <defs>
       <path id="DejaVuSans-Oblique-3c9" d="M 1369 -91 
Q 72 -91 434 1766 
Q 575 2500 1256 3500 
L 1875 3500 
Q 1231 2500 1088 1750 
Q 819 397 1519 397 
Q 2166 397 2478 2078 
L 3009 2078 
Q 2669 388 3316 397 
Q 4013 403 4275 1750 
Q 4419 2500 4169 3500 
L 4788 3500 
Q 5075 2500 4934 1766 
Q 4578 -94 3278 -91 
Q 2428 -88 2503 844 
Q 2194 -91 1369 -91 
z
" transform="scale(0.015625)"/>
       <path id="DejaVuSans-2217" d="M 2153 2006 
L 816 2778 
L 1081 3238 
L 2419 2466 
L 2419 4013 
L 2944 4013 
L 2944 2466 
L 4281 3238 
L 4547 2778 
L 3209 2006 
L 4547 1234 
L 4281 775 
L 2944 1547 
L 2944 0 
L 2419 0 
L 2419 1547 
L 1081 775 
L 816 1234 
L 2153 2006 
z
" transform="scale(0.015625)"/>
      </defs>
      <use xlink:href="#DejaVuSans-Oblique-3c9" transform="translate(0 0.826562)"/>
      <use xlink:href="#DejaVuSans-2217" transform="translate(88.20638 39.107812) scale(0.7)"/>
     </g>
    </g>
   </g>
   <g id="matplotlib.axis_2">
    <g id="ytick_1">
     <g id="line2d_5">
      <defs>
       <path id="m0da243be3b" d="M 0 0 
L -3.5 0 
" style="stroke: #000000; stroke-width: 0.8"/>
      </defs>
      <g>
       <use xlink:href="#m0da243be3b" x="36.465625" y="181.07917" style="stroke: #000000; stroke-width: 0.8"/>
      </g>
     </g>
     <g id="text_6">
      <!-- 0.00 -->
      <g transform="translate(7.2 184.878389) scale(0.1 -0.1)">
       <use xlink:href="#DejaVuSans-30"/>
       <use xlink:href="#DejaVuSans-2e" transform="translate(63.623047 0)"/>
       <use xlink:href="#DejaVuSans-30" transform="translate(95.410156 0)"/>
       <use xlink:href="#DejaVuSans-30" transform="translate(159.033203 0)"/>
      </g>
     </g>
    </g>
    <g id="ytick_2">
     <g id="line2d_6">
      <g>
       <use xlink:href="#m0da243be3b" x="36.465625" y="159.046003" style="stroke: #000000; stroke-width: 0.8"/>
      </g>
     </g>
     <g id="text_7">
      <!-- 0.25 -->
      <g transform="translate(7.2 162.845221) scale(0.1 -0.1)">
       <defs>
        <path id="DejaVuSans-32" d="M 1228 531 
L 3431 531 
L 3431 0 
L 469 0 
L 469 531 
Q 828 903 1448 1529 
Q 2069 2156 2228 2338 
Q 2531 2678 2651 2914 
Q 2772 3150 2772 3378 
Q 2772 3750 2511 3984 
Q 2250 4219 1831 4219 
Q 1534 4219 1204 4116 
Q 875 4013 500 3803 
L 500 4441 
Q 881 4594 1212 4672 
Q 1544 4750 1819 4750 
Q 2544 4750 2975 4387 
Q 3406 4025 3406 3419 
Q 3406 3131 3298 2873 
Q 3191 2616 2906 2266 
Q 2828 2175 2409 1742 
Q 1991 1309 1228 531 
z
" transform="scale(0.015625)"/>
       </defs>
       <use xlink:href="#DejaVuSans-30"/>
       <use xlink:href="#DejaVuSans-2e" transform="translate(63.623047 0)"/>
       <use xlink:href="#DejaVuSans-32" transform="translate(95.410156 0)"/>
       <use xlink:href="#DejaVuSans-35" transform="translate(159.033203 0)"/>
      </g>
     </g>
    </g>
    <g id="ytick_3">
     <g id="line2d_7">
      <g>
       <use xlink:href="#m0da243be3b" x="36.465625" y="137.012835" style="stroke: #000000; stroke-width: 0.8"/>
      </g>
     </g>
     <g id="text_8">
      <!-- 0.50 -->
      <g transform="translate(7.2 140.812054) scale(0.1 -0.1)">
       <use xlink:href="#DejaVuSans-30"/>
       <use xlink:href="#DejaVuSans-2e" transform="translate(63.623047 0)"/>
       <use xlink:href="#DejaVuSans-35" transform="translate(95.410156 0)"/>
       <use xlink:href="#DejaVuSans-30" transform="translate(159.033203 0)"/>
      </g>
     </g>
    </g>
    <g id="ytick_4">
     <g id="line2d_8">
      <g>
       <use xlink:href="#m0da243be3b" x="36.465625" y="114.979667" style="stroke: #000000; stroke-width: 0.8"/>
      </g>
     </g>
     <g id="text_9">
      <!-- 0.75 -->
      <g transform="translate(7.2 118.778886) scale(0.1 -0.1)">
       <defs>
        <path id="DejaVuSans-37" d="M 525 4666 
L 3525 4666 
L 3525 4397 
L 1831 0 
L 1172 0 
L 2766 4134 
L 525 4134 
L 525 4666 
z
" transform="scale(0.015625)"/>
       </defs>
       <use xlink:href="#DejaVuSans-30"/>
       <use xlink:href="#DejaVuSans-2e" transform="translate(63.623047 0)"/>
       <use xlink:href="#DejaVuSans-37" transform="translate(95.410156 0)"/>
       <use xlink:href="#DejaVuSans-35" transform="translate(159.033203 0)"/>
      </g>
     </g>
    </g>
    <g id="ytick_5">
     <g id="line2d_9">
      <g>
       <use xlink:href="#m0da243be3b" x="36.465625" y="92.9465" style="stroke: #000000; stroke-width: 0.8"/>
      </g>
     </g>
     <g id="text_10">
      <!-- 1.00 -->
      <g transform="translate(7.2 96.745718) scale(0.1 -0.1)">
       <use xlink:href="#DejaVuSans-31"/>
       <use xlink:href="#DejaVuSans-2e" transform="translate(63.623047 0)"/>
       <use xlink:href="#DejaVuSans-30" transform="translate(95.410156 0)"/>
       <use xlink:href="#DejaVuSans-30" transform="translate(159.033203 0)"/>
      </g>
     </g>
    </g>
    <g id="ytick_6">
     <g id="line2d_10">
      <g>
       <use xlink:href="#m0da243be3b" x="36.465625" y="70.913332" style="stroke: #000000; stroke-width: 0.8"/>
      </g>
     </g>
     <g id="text_11">
      <!-- 1.25 -->
      <g transform="translate(7.2 74.712551) scale(0.1 -0.1)">
       <use xlink:href="#DejaVuSans-31"/>
       <use xlink:href="#DejaVuSans-2e" transform="translate(63.623047 0)"/>
       <use xlink:href="#DejaVuSans-32" transform="translate(95.410156 0)"/>
       <use xlink:href="#DejaVuSans-35" transform="translate(159.033203 0)"/>
      </g>
     </g>
    </g>
    <g id="ytick_7">
     <g id="line2d_11">
      <g>
       <use xlink:href="#m0da243be3b" x="36.465625" y="48.880164" style="stroke: #000000; stroke-width: 0.8"/>
      </g>
     </g>
     <g id="text_12">
      <!-- 1.50 -->
      <g transform="translate(7.2 52.679383) scale(0.1 -0.1)">
       <use xlink:href="#DejaVuSans-31"/>
       <use xlink:href="#DejaVuSans-2e" transform="translate(63.623047 0)"/>
       <use xlink:href="#DejaVuSans-35" transform="translate(95.410156 0)"/>
       <use xlink:href="#DejaVuSans-30" transform="translate(159.033203 0)"/>
      </g>
     </g>
    </g>
    <g id="ytick_8">
     <g id="line2d_12">
      <g>
       <use xlink:href="#m0da243be3b" x="36.465625" y="26.846997" style="stroke: #000000; stroke-width: 0.8"/>
      </g>
     </g>
     <g id="text_13">
      <!-- 1.75 -->
      <g transform="translate(7.2 30.646215) scale(0.1 -0.1)">
       <use xlink:href="#DejaVuSans-31"/>
       <use xlink:href="#DejaVuSans-2e" transform="translate(63.623047 0)"/>
       <use xlink:href="#DejaVuSans-37" transform="translate(95.410156 0)"/>
       <use xlink:href="#DejaVuSans-35" transform="translate(159.033203 0)"/>
      </g>
     </g>
    </g>
   </g>
   <g id="line2d_13">
    <path d="M 44.535873 181.078125 
L 61.679085 181.022729 
L 69.765506 180.428 
L 75.911186 178.702347 
L 80.439581 176.981921 
L 85.291434 173.554655 
L 90.7902 168.988104 
L 96.288966 162.715758 
L 101.787732 154.737619 
L 106.316128 146.194018 
L 111.814894 137.078684 
L 116.990203 127.395796 
L 121.518599 119.420793 
L 126.370451 111.444744 
L 130.898847 104.606937 
L 136.397613 96.628798 
L 140.926009 90.359588 
L 146.424775 83.518645 
L 151.923541 76.677702 
L 158.392677 69.833623 
L 163.891444 64.129876 
L 170.36058 57.854395 
L 176.829717 52.147512 
L 182.65194 47.579915 
L 189.76799 41.870941 
L 197.207497 36.160922 
L 205.940832 29.878125 
" clip-path="url(#p6c123e5bc5)" style="fill: none; stroke: #000000; stroke-width: 1.5; stroke-linecap: square"/>
   </g>
   <g id="line2d_14">
    <path d="M 52.238112 181.068157 
L 53.778397 181.05694 
L 55.318682 181.038772 
L 56.858967 181.011236 
L 58.399252 180.971554 
L 59.939537 180.916576 
L 61.479822 180.842782 
L 63.020107 180.746279 
L 64.560392 180.622797 
L 66.100677 180.467687 
L 67.640962 180.275927 
L 69.181247 180.042125 
L 70.721532 179.760527 
L 72.261817 179.42504 
L 73.802102 179.029256 
L 75.342387 178.566488 
L 76.882672 178.029827 
L 78.422957 177.412208 
L 79.963242 176.7065 
L 81.503527 175.905619 
L 83.043812 175.002663 
L 84.584097 173.991071 
L 86.124382 172.864812 
L 87.664667 171.618588 
L 89.204952 170.248059 
L 90.745237 168.750078 
L 92.285522 167.122911 
L 93.825807 165.366453 
L 95.366092 163.482403 
L 96.906377 161.474378 
L 98.446662 159.347974 
L 99.986947 157.110726 
L 101.527232 154.77199 
L 103.067517 152.342723 
L 104.607802 149.835186 
L 106.148087 147.262577 
L 107.688372 144.63862 
L 109.228657 141.97714 
L 110.768942 139.291654 
L 112.309227 136.595 
L 113.849512 133.899032 
L 115.389797 131.214387 
L 116.930082 128.550334 
L 118.470367 125.914703 
L 120.010652 123.313885 
L 121.550937 120.75289 
L 123.091222 118.23545 
L 124.631507 115.764147 
L 126.171792 113.340567 
L 127.712077 110.965448 
L 129.252362 108.638836 
L 130.792647 106.360221 
L 132.332932 104.128666 
L 133.873217 101.94292 
L 135.413502 99.80151 
L 136.953787 97.702824 
L 138.494072 95.645169 
L 140.034357 93.626831 
L 141.574642 91.646106 
L 143.114927 89.701334 
L 144.655212 87.79092 
L 146.195497 85.913344 
L 147.735782 84.067179 
L 149.276068 82.251086 
L 150.816353 80.463822 
L 152.356638 78.704236 
L 153.896923 76.971267 
L 155.437208 75.26394 
L 156.977493 73.581362 
L 158.517778 71.922713 
L 160.058063 70.287243 
L 161.598348 68.674268 
L 163.138633 67.083159 
L 164.678918 65.513339 
L 166.219203 63.96428 
L 167.759488 62.435491 
L 169.299773 60.926522 
L 170.840058 59.436951 
L 172.380343 57.966385 
L 173.920628 56.514454 
L 175.460913 55.080808 
L 177.001198 53.665114 
L 178.541483 52.26705 
L 180.081768 50.886306 
L 181.622053 49.52258 
L 183.162338 48.175574 
L 184.702623 46.844995 
L 186.242908 45.530548 
L 187.783193 44.231941 
L 189.323478 42.948878 
L 190.863763 41.68106 
L 192.404048 40.428182 
L 193.944333 39.189933 
L 195.484618 37.965998 
L 197.024903 36.756049 
L 198.565188 35.559754 
L 200.105473 34.376769 
L 201.645758 33.206742 
L 203.186043 32.049312 
L 204.726328 30.904106 
" clip-path="url(#p6c123e5bc5)" style="fill: none; stroke-dasharray: 1.5,2.475; stroke-dashoffset: 0; stroke: #ff0000; stroke-width: 1.5"/>
   </g>
   <g id="line2d_15">
    <defs>
     <path id="mce07fae5ff" d="M 0 2 
C 0.530406 2 1.03916 1.789267 1.414214 1.414214 
C 1.789267 1.03916 2 0.530406 2 0 
C 2 -0.530406 1.789267 -1.03916 1.414214 -1.414214 
C 1.03916 -1.789267 0.530406 -2 0 -2 
C -0.530406 -2 -1.03916 -1.789267 -1.414214 -1.414214 
C -1.789267 -1.03916 -2 -0.530406 -2 0 
C -2 0.530406 -1.789267 1.03916 -1.414214 1.414214 
C -1.03916 1.789267 -0.530406 2 0 2 
z
" style="stroke: #0000ff"/>
    </defs>
    <g clip-path="url(#p6c123e5bc5)">
     <use xlink:href="#mce07fae5ff" x="57.150689" y="181.037362" style="fill: #bfbf00; stroke: #0000ff"/>
     <use xlink:href="#mce07fae5ff" x="63.296369" y="179.311709" style="fill: #bfbf00; stroke: #0000ff"/>
     <use xlink:href="#mce07fae5ff" x="75.911186" y="175.859358" style="fill: #bfbf00; stroke: #0000ff"/>
     <use xlink:href="#mce07fae5ff" x="82.703779" y="172.994419" style="fill: #bfbf00; stroke: #0000ff"/>
     <use xlink:href="#mce07fae5ff" x="88.849459" y="171.837364" style="fill: #bfbf00; stroke: #0000ff"/>
     <use xlink:href="#mce07fae5ff" x="94.348225" y="164.996421" style="fill: #bfbf00; stroke: #0000ff"/>
     <use xlink:href="#mce07fae5ff" x="100.817362" y="153.603559" style="fill: #bfbf00; stroke: #0000ff"/>
     <use xlink:href="#mce07fae5ff" x="106.963041" y="143.348938" style="fill: #bfbf00; stroke: #0000ff"/>
     <use xlink:href="#mce07fae5ff" x="112.785264" y="133.663961" style="fill: #bfbf00; stroke: #0000ff"/>
     <use xlink:href="#mce07fae5ff" x="118.607487" y="119.998798" style="fill: #bfbf00; stroke: #0000ff"/>
     <use xlink:href="#mce07fae5ff" x="124.42971" y="114.862603" style="fill: #bfbf00; stroke: #0000ff"/>
     <use xlink:href="#mce07fae5ff" x="131.54576" y="101.193259" style="fill: #bfbf00; stroke: #0000ff"/>
     <use xlink:href="#mce07fae5ff" x="138.014897" y="96.054974" style="fill: #bfbf00; stroke: #0000ff"/>
     <use xlink:href="#mce07fae5ff" x="143.83712" y="82.389811" style="fill: #bfbf00; stroke: #0000ff"/>
     <use xlink:href="#mce07fae5ff" x="150.629714" y="78.387676" style="fill: #bfbf00; stroke: #0000ff"/>
     <use xlink:href="#mce07fae5ff" x="156.12848" y="71.546733" style="fill: #bfbf00; stroke: #0000ff"/>
     <use xlink:href="#mce07fae5ff" x="163.24453" y="70.955141" style="fill: #bfbf00; stroke: #0000ff"/>
     <use xlink:href="#mce07fae5ff" x="168.743296" y="63.5456" style="fill: #bfbf00; stroke: #0000ff"/>
     <use xlink:href="#mce07fae5ff" x="175.212433" y="48.74115" style="fill: #bfbf00; stroke: #0000ff"/>
     <use xlink:href="#mce07fae5ff" x="181.681569" y="53.269029" style="fill: #bfbf00; stroke: #0000ff"/>
     <use xlink:href="#mce07fae5ff" x="191.061817" y="39.592369" style="fill: #bfbf00; stroke: #0000ff"/>
    </g>
   </g>
   <g id="patch_3">
    <path d="M 36.465625 188.638125 
L 36.465625 22.318125 
" style="fill: none; stroke: #000000; stroke-width: 0.8; stroke-linejoin: miter; stroke-linecap: square"/>
   </g>
   <g id="patch_4">
    <path d="M 214.01108 188.638125 
L 214.01108 22.318125 
" style="fill: none; stroke: #000000; stroke-width: 0.8; stroke-linejoin: miter; stroke-linecap: square"/>
   </g>
   <g id="patch_5">
    <path d="M 36.465625 188.638125 
L 214.01108 188.638125 
" style="fill: none; stroke: #000000; stroke-width: 0.8; stroke-linejoin: miter; stroke-linecap: square"/>
   </g>
   <g id="patch_6">
    <path d="M 36.465625 22.318125 
L 214.01108 22.318125 
" style="fill: none; stroke: #000000; stroke-width: 0.8; stroke-linejoin: miter; stroke-linecap: square"/>
   </g>
   <g id="text_14">
    <!-- Wave/Sway amplitudes ratio -->
    <g transform="translate(39.710227 16.318125) scale(0.12 -0.12)">
     <defs>
      <path id="DejaVuSans-57" d="M 213 4666 
L 850 4666 
L 1831 722 
L 2809 4666 
L 3519 4666 
L 4500 722 
L 5478 4666 
L 6119 4666 
L 4947 0 
L 4153 0 
L 3169 4050 
L 2175 0 
L 1381 0 
L 213 4666 
z
" transform="scale(0.015625)"/>
      <path id="DejaVuSans-61" d="M 2194 1759 
Q 1497 1759 1228 1600 
Q 959 1441 959 1056 
Q 959 750 1161 570 
Q 1363 391 1709 391 
Q 2188 391 2477 730 
Q 2766 1069 2766 1631 
L 2766 1759 
L 2194 1759 
z
M 3341 1997 
L 3341 0 
L 2766 0 
L 2766 531 
Q 2569 213 2275 61 
Q 1981 -91 1556 -91 
Q 1019 -91 701 211 
Q 384 513 384 1019 
Q 384 1609 779 1909 
Q 1175 2209 1959 2209 
L 2766 2209 
L 2766 2266 
Q 2766 2663 2505 2880 
Q 2244 3097 1772 3097 
Q 1472 3097 1187 3025 
Q 903 2953 641 2809 
L 641 3341 
Q 956 3463 1253 3523 
Q 1550 3584 1831 3584 
Q 2591 3584 2966 3190 
Q 3341 2797 3341 1997 
z
" transform="scale(0.015625)"/>
      <path id="DejaVuSans-76" d="M 191 3500 
L 800 3500 
L 1894 563 
L 2988 3500 
L 3597 3500 
L 2284 0 
L 1503 0 
L 191 3500 
z
" transform="scale(0.015625)"/>
      <path id="DejaVuSans-65" d="M 3597 1894 
L 3597 1613 
L 953 1613 
Q 991 1019 1311 708 
Q 1631 397 2203 397 
Q 2534 397 2845 478 
Q 3156 559 3463 722 
L 3463 178 
Q 3153 47 2828 -22 
Q 2503 -91 2169 -91 
Q 1331 -91 842 396 
Q 353 884 353 1716 
Q 353 2575 817 3079 
Q 1281 3584 2069 3584 
Q 2775 3584 3186 3129 
Q 3597 2675 3597 1894 
z
M 3022 2063 
Q 3016 2534 2758 2815 
Q 2500 3097 2075 3097 
Q 1594 3097 1305 2825 
Q 1016 2553 972 2059 
L 3022 2063 
z
" transform="scale(0.015625)"/>
      <path id="DejaVuSans-2f" d="M 1625 4666 
L 2156 4666 
L 531 -594 
L 0 -594 
L 1625 4666 
z
" transform="scale(0.015625)"/>
      <path id="DejaVuSans-53" d="M 3425 4513 
L 3425 3897 
Q 3066 4069 2747 4153 
Q 2428 4238 2131 4238 
Q 1616 4238 1336 4038 
Q 1056 3838 1056 3469 
Q 1056 3159 1242 3001 
Q 1428 2844 1947 2747 
L 2328 2669 
Q 3034 2534 3370 2195 
Q 3706 1856 3706 1288 
Q 3706 609 3251 259 
Q 2797 -91 1919 -91 
Q 1588 -91 1214 -16 
Q 841 59 441 206 
L 441 856 
Q 825 641 1194 531 
Q 1563 422 1919 422 
Q 2459 422 2753 634 
Q 3047 847 3047 1241 
Q 3047 1584 2836 1778 
Q 2625 1972 2144 2069 
L 1759 2144 
Q 1053 2284 737 2584 
Q 422 2884 422 3419 
Q 422 4038 858 4394 
Q 1294 4750 2059 4750 
Q 2388 4750 2728 4690 
Q 3069 4631 3425 4513 
z
" transform="scale(0.015625)"/>
      <path id="DejaVuSans-77" d="M 269 3500 
L 844 3500 
L 1563 769 
L 2278 3500 
L 2956 3500 
L 3675 769 
L 4391 3500 
L 4966 3500 
L 4050 0 
L 3372 0 
L 2619 2869 
L 1863 0 
L 1184 0 
L 269 3500 
z
" transform="scale(0.015625)"/>
      <path id="DejaVuSans-79" d="M 2059 -325 
Q 1816 -950 1584 -1140 
Q 1353 -1331 966 -1331 
L 506 -1331 
L 506 -850 
L 844 -850 
Q 1081 -850 1212 -737 
Q 1344 -625 1503 -206 
L 1606 56 
L 191 3500 
L 800 3500 
L 1894 763 
L 2988 3500 
L 3597 3500 
L 2059 -325 
z
" transform="scale(0.015625)"/>
      <path id="DejaVuSans-20" transform="scale(0.015625)"/>
      <path id="DejaVuSans-6d" d="M 3328 2828 
Q 3544 3216 3844 3400 
Q 4144 3584 4550 3584 
Q 5097 3584 5394 3201 
Q 5691 2819 5691 2113 
L 5691 0 
L 5113 0 
L 5113 2094 
Q 5113 2597 4934 2840 
Q 4756 3084 4391 3084 
Q 3944 3084 3684 2787 
Q 3425 2491 3425 1978 
L 3425 0 
L 2847 0 
L 2847 2094 
Q 2847 2600 2669 2842 
Q 2491 3084 2119 3084 
Q 1678 3084 1418 2786 
Q 1159 2488 1159 1978 
L 1159 0 
L 581 0 
L 581 3500 
L 1159 3500 
L 1159 2956 
Q 1356 3278 1631 3431 
Q 1906 3584 2284 3584 
Q 2666 3584 2933 3390 
Q 3200 3197 3328 2828 
z
" transform="scale(0.015625)"/>
      <path id="DejaVuSans-70" d="M 1159 525 
L 1159 -1331 
L 581 -1331 
L 581 3500 
L 1159 3500 
L 1159 2969 
Q 1341 3281 1617 3432 
Q 1894 3584 2278 3584 
Q 2916 3584 3314 3078 
Q 3713 2572 3713 1747 
Q 3713 922 3314 415 
Q 2916 -91 2278 -91 
Q 1894 -91 1617 61 
Q 1341 213 1159 525 
z
M 3116 1747 
Q 3116 2381 2855 2742 
Q 2594 3103 2138 3103 
Q 1681 3103 1420 2742 
Q 1159 2381 1159 1747 
Q 1159 1113 1420 752 
Q 1681 391 2138 391 
Q 2594 391 2855 752 
Q 3116 1113 3116 1747 
z
" transform="scale(0.015625)"/>
      <path id="DejaVuSans-6c" d="M 603 4863 
L 1178 4863 
L 1178 0 
L 603 0 
L 603 4863 
z
" transform="scale(0.015625)"/>
      <path id="DejaVuSans-69" d="M 603 3500 
L 1178 3500 
L 1178 0 
L 603 0 
L 603 3500 
z
M 603 4863 
L 1178 4863 
L 1178 4134 
L 603 4134 
L 603 4863 
z
" transform="scale(0.015625)"/>
      <path id="DejaVuSans-74" d="M 1172 4494 
L 1172 3500 
L 2356 3500 
L 2356 3053 
L 1172 3053 
L 1172 1153 
Q 1172 725 1289 603 
Q 1406 481 1766 481 
L 2356 481 
L 2356 0 
L 1766 0 
Q 1100 0 847 248 
Q 594 497 594 1153 
L 594 3053 
L 172 3053 
L 172 3500 
L 594 3500 
L 594 4494 
L 1172 4494 
z
" transform="scale(0.015625)"/>
      <path id="DejaVuSans-75" d="M 544 1381 
L 544 3500 
L 1119 3500 
L 1119 1403 
Q 1119 906 1312 657 
Q 1506 409 1894 409 
Q 2359 409 2629 706 
Q 2900 1003 2900 1516 
L 2900 3500 
L 3475 3500 
L 3475 0 
L 2900 0 
L 2900 538 
Q 2691 219 2414 64 
Q 2138 -91 1772 -91 
Q 1169 -91 856 284 
Q 544 659 544 1381 
z
M 1991 3584 
L 1991 3584 
z
" transform="scale(0.015625)"/>
      <path id="DejaVuSans-64" d="M 2906 2969 
L 2906 4863 
L 3481 4863 
L 3481 0 
L 2906 0 
L 2906 525 
Q 2725 213 2448 61 
Q 2172 -91 1784 -91 
Q 1150 -91 751 415 
Q 353 922 353 1747 
Q 353 2572 751 3078 
Q 1150 3584 1784 3584 
Q 2172 3584 2448 3432 
Q 2725 3281 2906 2969 
z
M 947 1747 
Q 947 1113 1208 752 
Q 1469 391 1925 391 
Q 2381 391 2643 752 
Q 2906 1113 2906 1747 
Q 2906 2381 2643 2742 
Q 2381 3103 1925 3103 
Q 1469 3103 1208 2742 
Q 947 2381 947 1747 
z
" transform="scale(0.015625)"/>
      <path id="DejaVuSans-73" d="M 2834 3397 
L 2834 2853 
Q 2591 2978 2328 3040 
Q 2066 3103 1784 3103 
Q 1356 3103 1142 2972 
Q 928 2841 928 2578 
Q 928 2378 1081 2264 
Q 1234 2150 1697 2047 
L 1894 2003 
Q 2506 1872 2764 1633 
Q 3022 1394 3022 966 
Q 3022 478 2636 193 
Q 2250 -91 1575 -91 
Q 1294 -91 989 -36 
Q 684 19 347 128 
L 347 722 
Q 666 556 975 473 
Q 1284 391 1588 391 
Q 1994 391 2212 530 
Q 2431 669 2431 922 
Q 2431 1156 2273 1281 
Q 2116 1406 1581 1522 
L 1381 1569 
Q 847 1681 609 1914 
Q 372 2147 372 2553 
Q 372 3047 722 3315 
Q 1072 3584 1716 3584 
Q 2034 3584 2315 3537 
Q 2597 3491 2834 3397 
z
" transform="scale(0.015625)"/>
      <path id="DejaVuSans-72" d="M 2631 2963 
Q 2534 3019 2420 3045 
Q 2306 3072 2169 3072 
Q 1681 3072 1420 2755 
Q 1159 2438 1159 1844 
L 1159 0 
L 581 0 
L 581 3500 
L 1159 3500 
L 1159 2956 
Q 1341 3275 1631 3429 
Q 1922 3584 2338 3584 
Q 2397 3584 2469 3576 
Q 2541 3569 2628 3553 
L 2631 2963 
z
" transform="scale(0.015625)"/>
      <path id="DejaVuSans-6f" d="M 1959 3097 
Q 1497 3097 1228 2736 
Q 959 2375 959 1747 
Q 959 1119 1226 758 
Q 1494 397 1959 397 
Q 2419 397 2687 759 
Q 2956 1122 2956 1747 
Q 2956 2369 2687 2733 
Q 2419 3097 1959 3097 
z
M 1959 3584 
Q 2709 3584 3137 3096 
Q 3566 2609 3566 1747 
Q 3566 888 3137 398 
Q 2709 -91 1959 -91 
Q 1206 -91 779 398 
Q 353 888 353 1747 
Q 353 2609 779 3096 
Q 1206 3584 1959 3584 
z
" transform="scale(0.015625)"/>
     </defs>
     <use xlink:href="#DejaVuSans-57"/>
     <use xlink:href="#DejaVuSans-61" transform="translate(92.501953 0)"/>
     <use xlink:href="#DejaVuSans-76" transform="translate(153.78125 0)"/>
     <use xlink:href="#DejaVuSans-65" transform="translate(212.960938 0)"/>
     <use xlink:href="#DejaVuSans-2f" transform="translate(274.484375 0)"/>
     <use xlink:href="#DejaVuSans-53" transform="translate(308.175781 0)"/>
     <use xlink:href="#DejaVuSans-77" transform="translate(371.652344 0)"/>
     <use xlink:href="#DejaVuSans-61" transform="translate(453.439453 0)"/>
     <use xlink:href="#DejaVuSans-79" transform="translate(514.71875 0)"/>
     <use xlink:href="#DejaVuSans-20" transform="translate(573.898438 0)"/>
     <use xlink:href="#DejaVuSans-61" transform="translate(605.685547 0)"/>
     <use xlink:href="#DejaVuSans-6d" transform="translate(666.964844 0)"/>
     <use xlink:href="#DejaVuSans-70" transform="translate(764.376953 0)"/>
     <use xlink:href="#DejaVuSans-6c" transform="translate(827.853516 0)"/>
     <use xlink:href="#DejaVuSans-69" transform="translate(855.636719 0)"/>
     <use xlink:href="#DejaVuSans-74" transform="translate(883.419922 0)"/>
     <use xlink:href="#DejaVuSans-75" transform="translate(922.628906 0)"/>
     <use xlink:href="#DejaVuSans-64" transform="translate(986.007812 0)"/>
     <use xlink:href="#DejaVuSans-65" transform="translate(1049.484375 0)"/>
     <use xlink:href="#DejaVuSans-73" transform="translate(1111.007812 0)"/>
     <use xlink:href="#DejaVuSans-20" transform="translate(1163.107422 0)"/>
     <use xlink:href="#DejaVuSans-72" transform="translate(1194.894531 0)"/>
     <use xlink:href="#DejaVuSans-61" transform="translate(1236.007812 0)"/>
     <use xlink:href="#DejaVuSans-74" transform="translate(1297.287109 0)"/>
     <use xlink:href="#DejaVuSans-69" transform="translate(1336.496094 0)"/>
     <use xlink:href="#DejaVuSans-6f" transform="translate(1364.279297 0)"/>
    </g>
   </g>
  </g>
  <g id="axes_2">
   <g id="patch_7">
    <path d="M 249.52017 188.638125 
L 427.065625 188.638125 
L 427.065625 22.318125 
L 249.52017 22.318125 
z
" style="fill: #ffffff"/>
   </g>
   <g id="matplotlib.axis_3">
    <g id="xtick_5">
     <g id="line2d_16">
      <g>
       <use xlink:href="#m774f52a3cd" x="257.591433" y="188.638125" style="stroke: #000000; stroke-width: 0.8"/>
      </g>
     </g>
     <g id="text_15">
      <!-- 0.0 -->
      <g transform="translate(249.639871 203.236563) scale(0.1 -0.1)">
       <use xlink:href="#DejaVuSans-30"/>
       <use xlink:href="#DejaVuSans-2e" transform="translate(63.623047 0)"/>
       <use xlink:href="#DejaVuSans-30" transform="translate(95.410156 0)"/>
      </g>
     </g>
    </g>
    <g id="xtick_6">
     <g id="line2d_17">
      <g>
       <use xlink:href="#m774f52a3cd" x="307.412466" y="188.638125" style="stroke: #000000; stroke-width: 0.8"/>
      </g>
     </g>
     <g id="text_16">
      <!-- 0.5 -->
      <g transform="translate(299.460903 203.236563) scale(0.1 -0.1)">
       <use xlink:href="#DejaVuSans-30"/>
       <use xlink:href="#DejaVuSans-2e" transform="translate(63.623047 0)"/>
       <use xlink:href="#DejaVuSans-35" transform="translate(95.410156 0)"/>
      </g>
     </g>
    </g>
    <g id="xtick_7">
     <g id="line2d_18">
      <g>
       <use xlink:href="#m774f52a3cd" x="357.233498" y="188.638125" style="stroke: #000000; stroke-width: 0.8"/>
      </g>
     </g>
     <g id="text_17">
      <!-- 1.0 -->
      <g transform="translate(349.281936 203.236563) scale(0.1 -0.1)">
       <use xlink:href="#DejaVuSans-31"/>
       <use xlink:href="#DejaVuSans-2e" transform="translate(63.623047 0)"/>
       <use xlink:href="#DejaVuSans-30" transform="translate(95.410156 0)"/>
      </g>
     </g>
    </g>
    <g id="xtick_8">
     <g id="line2d_19">
      <g>
       <use xlink:href="#m774f52a3cd" x="407.054531" y="188.638125" style="stroke: #000000; stroke-width: 0.8"/>
      </g>
     </g>
     <g id="text_18">
      <!-- 1.5 -->
      <g transform="translate(399.102968 203.236563) scale(0.1 -0.1)">
       <use xlink:href="#DejaVuSans-31"/>
       <use xlink:href="#DejaVuSans-2e" transform="translate(63.623047 0)"/>
       <use xlink:href="#DejaVuSans-35" transform="translate(95.410156 0)"/>
      </g>
     </g>
    </g>
    <g id="text_19">
     <!-- $\omega^{\ast}$ -->
     <g transform="translate(330.792898 216.914688) scale(0.1 -0.1)">
      <use xlink:href="#DejaVuSans-Oblique-3c9" transform="translate(0 0.826562)"/>
      <use xlink:href="#DejaVuSans-2217" transform="translate(88.20638 39.107812) scale(0.7)"/>
     </g>
    </g>
   </g>
   <g id="matplotlib.axis_4">
    <g id="ytick_9">
     <g id="line2d_20">
      <g>
       <use xlink:href="#m0da243be3b" x="249.52017" y="181.599063" style="stroke: #000000; stroke-width: 0.8"/>
      </g>
     </g>
     <g id="text_20">
      <!-- 0.0 -->
      <g transform="translate(226.617045 185.398282) scale(0.1 -0.1)">
       <use xlink:href="#DejaVuSans-30"/>
       <use xlink:href="#DejaVuSans-2e" transform="translate(63.623047 0)"/>
       <use xlink:href="#DejaVuSans-30" transform="translate(95.410156 0)"/>
      </g>
     </g>
    </g>
    <g id="ytick_10">
     <g id="line2d_21">
      <g>
       <use xlink:href="#m0da243be3b" x="249.52017" y="148.98833" style="stroke: #000000; stroke-width: 0.8"/>
      </g>
     </g>
     <g id="text_21">
      <!-- 0.2 -->
      <g transform="translate(226.617045 152.787549) scale(0.1 -0.1)">
       <use xlink:href="#DejaVuSans-30"/>
       <use xlink:href="#DejaVuSans-2e" transform="translate(63.623047 0)"/>
       <use xlink:href="#DejaVuSans-32" transform="translate(95.410156 0)"/>
      </g>
     </g>
    </g>
    <g id="ytick_11">
     <g id="line2d_22">
      <g>
       <use xlink:href="#m0da243be3b" x="249.52017" y="116.377597" style="stroke: #000000; stroke-width: 0.8"/>
      </g>
     </g>
     <g id="text_22">
      <!-- 0.4 -->
      <g transform="translate(226.617045 120.176815) scale(0.1 -0.1)">
       <defs>
        <path id="DejaVuSans-34" d="M 2419 4116 
L 825 1625 
L 2419 1625 
L 2419 4116 
z
M 2253 4666 
L 3047 4666 
L 3047 1625 
L 3713 1625 
L 3713 1100 
L 3047 1100 
L 3047 0 
L 2419 0 
L 2419 1100 
L 313 1100 
L 313 1709 
L 2253 4666 
z
" transform="scale(0.015625)"/>
       </defs>
       <use xlink:href="#DejaVuSans-30"/>
       <use xlink:href="#DejaVuSans-2e" transform="translate(63.623047 0)"/>
       <use xlink:href="#DejaVuSans-34" transform="translate(95.410156 0)"/>
      </g>
     </g>
    </g>
    <g id="ytick_12">
     <g id="line2d_23">
      <g>
       <use xlink:href="#m0da243be3b" x="249.52017" y="83.766863" style="stroke: #000000; stroke-width: 0.8"/>
      </g>
     </g>
     <g id="text_23">
      <!-- 0.6 -->
      <g transform="translate(226.617045 87.566082) scale(0.1 -0.1)">
       <defs>
        <path id="DejaVuSans-36" d="M 2113 2584 
Q 1688 2584 1439 2293 
Q 1191 2003 1191 1497 
Q 1191 994 1439 701 
Q 1688 409 2113 409 
Q 2538 409 2786 701 
Q 3034 994 3034 1497 
Q 3034 2003 2786 2293 
Q 2538 2584 2113 2584 
z
M 3366 4563 
L 3366 3988 
Q 3128 4100 2886 4159 
Q 2644 4219 2406 4219 
Q 1781 4219 1451 3797 
Q 1122 3375 1075 2522 
Q 1259 2794 1537 2939 
Q 1816 3084 2150 3084 
Q 2853 3084 3261 2657 
Q 3669 2231 3669 1497 
Q 3669 778 3244 343 
Q 2819 -91 2113 -91 
Q 1303 -91 875 529 
Q 447 1150 447 2328 
Q 447 3434 972 4092 
Q 1497 4750 2381 4750 
Q 2619 4750 2861 4703 
Q 3103 4656 3366 4563 
z
" transform="scale(0.015625)"/>
       </defs>
       <use xlink:href="#DejaVuSans-30"/>
       <use xlink:href="#DejaVuSans-2e" transform="translate(63.623047 0)"/>
       <use xlink:href="#DejaVuSans-36" transform="translate(95.410156 0)"/>
      </g>
     </g>
    </g>
    <g id="ytick_13">
     <g id="line2d_24">
      <g>
       <use xlink:href="#m0da243be3b" x="249.52017" y="51.15613" style="stroke: #000000; stroke-width: 0.8"/>
      </g>
     </g>
     <g id="text_24">
      <!-- 0.8 -->
      <g transform="translate(226.617045 54.955349) scale(0.1 -0.1)">
       <defs>
        <path id="DejaVuSans-38" d="M 2034 2216 
Q 1584 2216 1326 1975 
Q 1069 1734 1069 1313 
Q 1069 891 1326 650 
Q 1584 409 2034 409 
Q 2484 409 2743 651 
Q 3003 894 3003 1313 
Q 3003 1734 2745 1975 
Q 2488 2216 2034 2216 
z
M 1403 2484 
Q 997 2584 770 2862 
Q 544 3141 544 3541 
Q 544 4100 942 4425 
Q 1341 4750 2034 4750 
Q 2731 4750 3128 4425 
Q 3525 4100 3525 3541 
Q 3525 3141 3298 2862 
Q 3072 2584 2669 2484 
Q 3125 2378 3379 2068 
Q 3634 1759 3634 1313 
Q 3634 634 3220 271 
Q 2806 -91 2034 -91 
Q 1263 -91 848 271 
Q 434 634 434 1313 
Q 434 1759 690 2068 
Q 947 2378 1403 2484 
z
M 1172 3481 
Q 1172 3119 1398 2916 
Q 1625 2713 2034 2713 
Q 2441 2713 2670 2916 
Q 2900 3119 2900 3481 
Q 2900 3844 2670 4047 
Q 2441 4250 2034 4250 
Q 1625 4250 1398 4047 
Q 1172 3844 1172 3481 
z
" transform="scale(0.015625)"/>
       </defs>
       <use xlink:href="#DejaVuSans-30"/>
       <use xlink:href="#DejaVuSans-2e" transform="translate(63.623047 0)"/>
       <use xlink:href="#DejaVuSans-38" transform="translate(95.410156 0)"/>
      </g>
     </g>
    </g>
   </g>
   <g id="line2d_25">
    <path d="M 257.590418 181.078125 
L 261.083228 180.557187 
L 264.892644 179.51531 
L 268.70003 177.431557 
L 272.506401 174.826866 
L 277.26056 169.617484 
L 282.015734 164.92904 
L 286.766848 158.156843 
L 291.517963 151.384646 
L 298.167696 140.965881 
L 303.865583 131.068055 
L 310.197697 120.64929 
L 316.21219 110.230525 
L 320.642639 101.895514 
L 325.70833 93.560502 
L 330.140809 86.267367 
L 335.208529 78.974232 
L 340.277264 72.202035 
L 346.297846 64.908899 
L 352.318427 57.615764 
L 359.292885 50.843567 
L 366.271401 46.155123 
L 373.887188 42.508555 
L 382.140245 39.903864 
L 389.762121 39.382926 
L 395.479288 39.382926 
L 401.833726 40.424802 
L 410.095917 42.508555 
L 415.180888 44.07137 
L 418.995377 45.634185 
" clip-path="url(#p655fd104e9)" style="fill: none; stroke: #000000; stroke-width: 1.5; stroke-linecap: square"/>
   </g>
   <g id="line2d_26">
    <path d="M 265.544749 179.569328 
L 267.071143 178.737701 
L 268.597537 177.774423 
L 270.123931 176.684568 
L 271.650325 175.473327 
L 273.176719 174.14595 
L 274.703112 172.707693 
L 276.229506 171.16379 
L 277.7559 169.519427 
L 279.282294 167.779721 
L 280.808688 165.949716 
L 282.335082 164.034372 
L 283.861476 162.038561 
L 285.38787 159.967075 
L 286.914264 157.824617 
L 288.440658 155.615815 
L 289.967052 153.345218 
L 291.493446 151.017306 
L 293.01984 148.636491 
L 294.546234 146.207124 
L 296.072628 143.7335 
L 297.599021 141.219859 
L 299.125415 138.670392 
L 300.651809 136.089242 
L 302.178203 133.480504 
L 303.704597 130.848231 
L 305.230991 128.19643 
L 306.757385 125.529063 
L 308.283779 122.850044 
L 309.810173 120.163239 
L 311.336567 117.472461 
L 312.862961 114.781469 
L 314.389355 112.09396 
L 315.915749 109.413569 
L 317.442143 106.74386 
L 318.968536 104.08832 
L 320.49493 101.450358 
L 322.021324 98.833293 
L 323.547718 96.240351 
L 325.074112 93.674658 
L 326.600506 91.139236 
L 328.1269 88.63699 
L 329.653294 86.170711 
L 331.179688 83.743063 
L 332.706082 81.356584 
L 334.232476 79.013675 
L 335.75887 76.716599 
L 337.285264 74.467478 
L 338.811658 72.268288 
L 340.338052 70.120856 
L 341.864445 68.026859 
L 343.390839 65.987822 
L 344.917233 64.005117 
L 346.443627 62.079964 
L 347.970021 60.213428 
L 349.496415 58.406425 
L 351.022809 56.659718 
L 352.549203 54.973924 
L 354.075597 53.349511 
L 355.601991 51.786807 
L 357.128385 50.285998 
L 358.654779 48.847132 
L 360.181173 47.470128 
L 361.707567 46.154772 
L 363.233961 44.900728 
L 364.760354 43.707536 
L 366.286748 42.574623 
L 367.813142 41.5013 
L 369.339536 40.486771 
L 370.86593 39.530136 
L 372.392324 38.630394 
L 373.918718 37.786447 
L 375.445112 36.997104 
L 376.971506 36.261084 
L 378.4979 35.577018 
L 380.024294 34.943455 
L 381.550688 34.358862 
L 383.077082 33.821628 
L 384.603476 33.330065 
L 386.129869 32.882411 
L 387.656263 32.476832 
L 389.182657 32.111425 
L 390.709051 31.784219 
L 392.235445 31.493176 
L 393.761839 31.236195 
L 395.288233 31.011111 
L 396.814627 30.815704 
L 398.341021 30.647692 
L 399.867415 30.504742 
L 401.393809 30.384471 
L 402.920203 30.284447 
L 404.446597 30.202197 
L 405.972991 30.13521 
L 407.499385 30.080946 
L 409.025778 30.036837 
L 410.552172 30.000301 
L 412.078566 29.968745 
L 413.60496 29.939579 
L 415.131354 29.910224 
L 416.657748 29.878125 
" clip-path="url(#p655fd104e9)" style="fill: none; stroke-dasharray: 1.5,2.475; stroke-dashoffset: 0; stroke: #ff0000; stroke-width: 1.5"/>
   </g>
   <g id="line2d_27">
    <g clip-path="url(#p655fd104e9)">
     <use xlink:href="#mce07fae5ff" x="271.364817" y="171.893488" style="fill: #bfbf00; stroke: #0000ff"/>
     <use xlink:href="#mce07fae5ff" x="276.616907" y="171.354289" style="fill: #bfbf00; stroke: #0000ff"/>
     <use xlink:href="#mce07fae5ff" x="278.909865" y="168.119097" style="fill: #bfbf00; stroke: #0000ff"/>
     <use xlink:href="#mce07fae5ff" x="282.838293" y="161.109515" style="fill: #bfbf00; stroke: #0000ff"/>
     <use xlink:href="#mce07fae5ff" x="289.071839" y="158.413522" style="fill: #bfbf00; stroke: #0000ff"/>
     <use xlink:href="#mce07fae5ff" x="294.312639" y="150.864741" style="fill: #bfbf00; stroke: #0000ff"/>
     <use xlink:href="#mce07fae5ff" x="296.935644" y="148.707947" style="fill: #bfbf00; stroke: #0000ff"/>
     <use xlink:href="#mce07fae5ff" x="300.534025" y="140.619967" style="fill: #bfbf00; stroke: #0000ff"/>
     <use xlink:href="#mce07fae5ff" x="307.4129" y="130.914392" style="fill: #bfbf00; stroke: #0000ff"/>
     <use xlink:href="#mce07fae5ff" x="313.622127" y="113.120837" style="fill: #bfbf00; stroke: #0000ff"/>
     <use xlink:href="#mce07fae5ff" x="319.847856" y="105.572056" style="fill: #bfbf00; stroke: #0000ff"/>
     <use xlink:href="#mce07fae5ff" x="319.187762" y="103.415261" style="fill: #bfbf00; stroke: #0000ff"/>
     <use xlink:href="#mce07fae5ff" x="325.741801" y="95.866481" style="fill: #bfbf00; stroke: #0000ff"/>
     <use xlink:href="#mce07fae5ff" x="331.641826" y="89.935296" style="fill: #bfbf00; stroke: #0000ff"/>
     <use xlink:href="#mce07fae5ff" x="337.544456" y="85.621707" style="fill: #bfbf00; stroke: #0000ff"/>
     <use xlink:href="#mce07fae5ff" x="344.091547" y="73.759337" style="fill: #bfbf00; stroke: #0000ff"/>
     <use xlink:href="#mce07fae5ff" x="350.319013" y="67.288953" style="fill: #bfbf00; stroke: #0000ff"/>
     <use xlink:href="#mce07fae5ff" x="356.543005" y="58.661775" style="fill: #bfbf00; stroke: #0000ff"/>
     <use xlink:href="#mce07fae5ff" x="357.849296" y="54.348186" style="fill: #bfbf00; stroke: #0000ff"/>
     <use xlink:href="#mce07fae5ff" x="368.341318" y="45.721008" style="fill: #bfbf00; stroke: #0000ff"/>
     <use xlink:href="#mce07fae5ff" x="374.926624" y="57.583378" style="fill: #bfbf00; stroke: #0000ff"/>
     <use xlink:href="#mce07fae5ff" x="381.49456" y="58.661775" style="fill: #bfbf00; stroke: #0000ff"/>
     <use xlink:href="#mce07fae5ff" x="387.720289" y="51.112994" style="fill: #bfbf00; stroke: #0000ff"/>
     <use xlink:href="#mce07fae5ff" x="393.315455" y="59.740172" style="fill: #bfbf00; stroke: #0000ff"/>
     <use xlink:href="#mce07fae5ff" x="399.572451" y="71.602542" style="fill: #bfbf00; stroke: #0000ff"/>
     <use xlink:href="#mce07fae5ff" x="403.828321" y="64.053761" style="fill: #bfbf00; stroke: #0000ff"/>
    </g>
   </g>
   <g id="patch_8">
    <path d="M 249.52017 188.638125 
L 249.52017 22.318125 
" style="fill: none; stroke: #000000; stroke-width: 0.8; stroke-linejoin: miter; stroke-linecap: square"/>
   </g>
   <g id="patch_9">
    <path d="M 427.065625 188.638125 
L 427.065625 22.318125 
" style="fill: none; stroke: #000000; stroke-width: 0.8; stroke-linejoin: miter; stroke-linecap: square"/>
   </g>
   <g id="patch_10">
    <path d="M 249.52017 188.638125 
L 427.065625 188.638125 
" style="fill: none; stroke: #000000; stroke-width: 0.8; stroke-linejoin: miter; stroke-linecap: square"/>
   </g>
   <g id="patch_11">
    <path d="M 249.52017 22.318125 
L 427.065625 22.318125 
" style="fill: none; stroke: #000000; stroke-width: 0.8; stroke-linejoin: miter; stroke-linecap: square"/>
   </g>
   <g id="text_25">
    <!-- Wave/Heave amplitudes ratio -->
    <g transform="translate(249.584773 16.318125) scale(0.12 -0.12)">
     <defs>
      <path id="DejaVuSans-48" d="M 628 4666 
L 1259 4666 
L 1259 2753 
L 3553 2753 
L 3553 4666 
L 4184 4666 
L 4184 0 
L 3553 0 
L 3553 2222 
L 1259 2222 
L 1259 0 
L 628 0 
L 628 4666 
z
" transform="scale(0.015625)"/>
     </defs>
     <use xlink:href="#DejaVuSans-57"/>
     <use xlink:href="#DejaVuSans-61" transform="translate(92.501953 0)"/>
     <use xlink:href="#DejaVuSans-76" transform="translate(153.78125 0)"/>
     <use xlink:href="#DejaVuSans-65" transform="translate(212.960938 0)"/>
     <use xlink:href="#DejaVuSans-2f" transform="translate(274.484375 0)"/>
     <use xlink:href="#DejaVuSans-48" transform="translate(308.175781 0)"/>
     <use xlink:href="#DejaVuSans-65" transform="translate(383.371094 0)"/>
     <use xlink:href="#DejaVuSans-61" transform="translate(444.894531 0)"/>
     <use xlink:href="#DejaVuSans-76" transform="translate(506.173828 0)"/>
     <use xlink:href="#DejaVuSans-65" transform="translate(565.353516 0)"/>
     <use xlink:href="#DejaVuSans-20" transform="translate(626.876953 0)"/>
     <use xlink:href="#DejaVuSans-61" transform="translate(658.664062 0)"/>
     <use xlink:href="#DejaVuSans-6d" transform="translate(719.943359 0)"/>
     <use xlink:href="#DejaVuSans-70" transform="translate(817.355469 0)"/>
     <use xlink:href="#DejaVuSans-6c" transform="translate(880.832031 0)"/>
     <use xlink:href="#DejaVuSans-69" transform="translate(908.615234 0)"/>
     <use xlink:href="#DejaVuSans-74" transform="translate(936.398438 0)"/>
     <use xlink:href="#DejaVuSans-75" transform="translate(975.607422 0)"/>
     <use xlink:href="#DejaVuSans-64" transform="translate(1038.986328 0)"/>
     <use xlink:href="#DejaVuSans-65" transform="translate(1102.462891 0)"/>
     <use xlink:href="#DejaVuSans-73" transform="translate(1163.986328 0)"/>
     <use xlink:href="#DejaVuSans-20" transform="translate(1216.085938 0)"/>
     <use xlink:href="#DejaVuSans-72" transform="translate(1247.873047 0)"/>
     <use xlink:href="#DejaVuSans-61" transform="translate(1288.986328 0)"/>
     <use xlink:href="#DejaVuSans-74" transform="translate(1350.265625 0)"/>
     <use xlink:href="#DejaVuSans-69" transform="translate(1389.474609 0)"/>
     <use xlink:href="#DejaVuSans-6f" transform="translate(1417.257812 0)"/>
    </g>
   </g>
   <g id="legend_1">
    <g id="patch_12">
     <path d="M 321.379687 183.638125 
L 420.065625 183.638125 
Q 422.065625 183.638125 422.065625 181.638125 
L 422.065625 138.60375 
Q 422.065625 136.60375 420.065625 136.60375 
L 321.379687 136.60375 
Q 319.379687 136.60375 319.379687 138.60375 
L 319.379687 181.638125 
Q 319.379687 183.638125 321.379687 183.638125 
z
" style="fill: #ffffff; opacity: 0.8; stroke: #cccccc; stroke-linejoin: miter"/>
    </g>
    <g id="line2d_28">
     <path d="M 323.379687 144.702188 
L 333.379687 144.702188 
L 343.379687 144.702188 
" style="fill: none; stroke: #000000; stroke-width: 1.5; stroke-linecap: square"/>
    </g>
    <g id="text_26">
     <!-- Analytical -->
     <g transform="translate(351.379687 148.202188) scale(0.1 -0.1)">
      <defs>
       <path id="DejaVuSans-41" d="M 2188 4044 
L 1331 1722 
L 3047 1722 
L 2188 4044 
z
M 1831 4666 
L 2547 4666 
L 4325 0 
L 3669 0 
L 3244 1197 
L 1141 1197 
L 716 0 
L 50 0 
L 1831 4666 
z
" transform="scale(0.015625)"/>
       <path id="DejaVuSans-6e" d="M 3513 2113 
L 3513 0 
L 2938 0 
L 2938 2094 
Q 2938 2591 2744 2837 
Q 2550 3084 2163 3084 
Q 1697 3084 1428 2787 
Q 1159 2491 1159 1978 
L 1159 0 
L 581 0 
L 581 3500 
L 1159 3500 
L 1159 2956 
Q 1366 3272 1645 3428 
Q 1925 3584 2291 3584 
Q 2894 3584 3203 3211 
Q 3513 2838 3513 2113 
z
" transform="scale(0.015625)"/>
       <path id="DejaVuSans-63" d="M 3122 3366 
L 3122 2828 
Q 2878 2963 2633 3030 
Q 2388 3097 2138 3097 
Q 1578 3097 1268 2742 
Q 959 2388 959 1747 
Q 959 1106 1268 751 
Q 1578 397 2138 397 
Q 2388 397 2633 464 
Q 2878 531 3122 666 
L 3122 134 
Q 2881 22 2623 -34 
Q 2366 -91 2075 -91 
Q 1284 -91 818 406 
Q 353 903 353 1747 
Q 353 2603 823 3093 
Q 1294 3584 2113 3584 
Q 2378 3584 2631 3529 
Q 2884 3475 3122 3366 
z
" transform="scale(0.015625)"/>
      </defs>
      <use xlink:href="#DejaVuSans-41"/>
      <use xlink:href="#DejaVuSans-6e" transform="translate(68.408203 0)"/>
      <use xlink:href="#DejaVuSans-61" transform="translate(131.787109 0)"/>
      <use xlink:href="#DejaVuSans-6c" transform="translate(193.066406 0)"/>
      <use xlink:href="#DejaVuSans-79" transform="translate(220.849609 0)"/>
      <use xlink:href="#DejaVuSans-74" transform="translate(280.029297 0)"/>
      <use xlink:href="#DejaVuSans-69" transform="translate(319.238281 0)"/>
      <use xlink:href="#DejaVuSans-63" transform="translate(347.021484 0)"/>
      <use xlink:href="#DejaVuSans-61" transform="translate(402.001953 0)"/>
      <use xlink:href="#DejaVuSans-6c" transform="translate(463.28125 0)"/>
     </g>
    </g>
    <g id="line2d_29">
     <g>
      <use xlink:href="#mce07fae5ff" x="333.379687" y="159.380313" style="fill: #bfbf00; stroke: #0000ff"/>
     </g>
    </g>
    <g id="text_27">
     <!-- Experimental -->
     <g transform="translate(351.379687 162.880313) scale(0.1 -0.1)">
      <defs>
       <path id="DejaVuSans-45" d="M 628 4666 
L 3578 4666 
L 3578 4134 
L 1259 4134 
L 1259 2753 
L 3481 2753 
L 3481 2222 
L 1259 2222 
L 1259 531 
L 3634 531 
L 3634 0 
L 628 0 
L 628 4666 
z
" transform="scale(0.015625)"/>
       <path id="DejaVuSans-78" d="M 3513 3500 
L 2247 1797 
L 3578 0 
L 2900 0 
L 1881 1375 
L 863 0 
L 184 0 
L 1544 1831 
L 300 3500 
L 978 3500 
L 1906 2253 
L 2834 3500 
L 3513 3500 
z
" transform="scale(0.015625)"/>
      </defs>
      <use xlink:href="#DejaVuSans-45"/>
      <use xlink:href="#DejaVuSans-78" transform="translate(63.183594 0)"/>
      <use xlink:href="#DejaVuSans-70" transform="translate(122.363281 0)"/>
      <use xlink:href="#DejaVuSans-65" transform="translate(185.839844 0)"/>
      <use xlink:href="#DejaVuSans-72" transform="translate(247.363281 0)"/>
      <use xlink:href="#DejaVuSans-69" transform="translate(288.476562 0)"/>
      <use xlink:href="#DejaVuSans-6d" transform="translate(316.259766 0)"/>
      <use xlink:href="#DejaVuSans-65" transform="translate(413.671875 0)"/>
      <use xlink:href="#DejaVuSans-6e" transform="translate(475.195312 0)"/>
      <use xlink:href="#DejaVuSans-74" transform="translate(538.574219 0)"/>
      <use xlink:href="#DejaVuSans-61" transform="translate(577.783203 0)"/>
      <use xlink:href="#DejaVuSans-6c" transform="translate(639.0625 0)"/>
     </g>
    </g>
    <g id="line2d_30">
     <path d="M 323.379687 174.058438 
L 333.379687 174.058438 
L 343.379687 174.058438 
" style="fill: none; stroke-dasharray: 1.5,2.475; stroke-dashoffset: 0; stroke: #ff0000; stroke-width: 1.5"/>
    </g>
    <g id="text_28">
     <!-- BEM -->
     <g transform="translate(351.379687 177.558438) scale(0.1 -0.1)">
      <defs>
       <path id="DejaVuSans-42" d="M 1259 2228 
L 1259 519 
L 2272 519 
Q 2781 519 3026 730 
Q 3272 941 3272 1375 
Q 3272 1813 3026 2020 
Q 2781 2228 2272 2228 
L 1259 2228 
z
M 1259 4147 
L 1259 2741 
L 2194 2741 
Q 2656 2741 2882 2914 
Q 3109 3088 3109 3444 
Q 3109 3797 2882 3972 
Q 2656 4147 2194 4147 
L 1259 4147 
z
M 628 4666 
L 2241 4666 
Q 2963 4666 3353 4366 
Q 3744 4066 3744 3513 
Q 3744 3084 3544 2831 
Q 3344 2578 2956 2516 
Q 3422 2416 3680 2098 
Q 3938 1781 3938 1306 
Q 3938 681 3513 340 
Q 3088 0 2303 0 
L 628 0 
L 628 4666 
z
" transform="scale(0.015625)"/>
       <path id="DejaVuSans-4d" d="M 628 4666 
L 1569 4666 
L 2759 1491 
L 3956 4666 
L 4897 4666 
L 4897 0 
L 4281 0 
L 4281 4097 
L 3078 897 
L 2444 897 
L 1241 4097 
L 1241 0 
L 628 0 
L 628 4666 
z
" transform="scale(0.015625)"/>
      </defs>
      <use xlink:href="#DejaVuSans-42"/>
      <use xlink:href="#DejaVuSans-45" transform="translate(68.603516 0)"/>
      <use xlink:href="#DejaVuSans-4d" transform="translate(131.787109 0)"/>
     </g>
    </g>
   </g>
  </g>
 </g>
 <defs>
  <clipPath id="p6c123e5bc5">
   <rect x="36.465625" y="22.318125" width="177.545455" height="166.32"/>
  </clipPath>
  <clipPath id="p655fd104e9">
   <rect x="249.52017" y="22.318125" width="177.545455" height="166.32"/>
  </clipPath>
 </defs>
</svg>
