<?xml version="1.0" encoding="utf-8" standalone="no"?>
<!DOCTYPE svg PUBLIC "-//W3C//DTD SVG 1.1//EN"
  "http://www.w3.org/Graphics/SVG/1.1/DTD/svg11.dtd">
<svg xmlns:xlink="http://www.w3.org/1999/xlink" width="427.903125pt" height="227.03625pt" viewBox="0 0 427.903125 227.03625" xmlns="http://www.w3.org/2000/svg" version="1.1">
 <metadata>
  <rdf:RDF xmlns:dc="http://purl.org/dc/elements/1.1/" xmlns:cc="http://creativecommons.org/ns#" xmlns:rdf="http://www.w3.org/1999/02/22-rdf-syntax-ns#">
   <cc:Work>
    <dc:type rdf:resource="http://purl.org/dc/dcmitype/StillImage"/>
    <dc:date>2025-08-23T00:06:46.156399</dc:date>
    <dc:format>image/svg+xml</dc:format>
    <dc:creator>
     <cc:Agent>
      <dc:title>Matplotlib v3.10.0, https://matplotlib.org/</dc:title>
     </cc:Agent>
    </dc:creator>
   </cc:Work>
  </rdf:RDF>
 </metadata>
 <defs>
  <style type="text/css">*{stroke-linejoin: round; stroke-linecap: butt}</style>
 </defs>
 <g id="figure_1">
  <g id="patch_1">
   <path d="M 0 227.03625 
L 427.903125 227.03625 
L 427.903125 0 
L 0 0 
z
" style="fill: #ffffff"/>
  </g>
  <g id="axes_1">
   <g id="patch_2">
    <path d="M 30.103125 189.48 
L 207.64858 189.48 
L 207.64858 23.16 
L 30.103125 23.16 
z
" style="fill: #ffffff"/>
   </g>
   <g id="matplotlib.axis_1">
    <g id="xtick_1">
     <g id="line2d_1">
      <defs>
       <path id="m640f9e8c88" d="M 0 0 
L 0 3.5 
" style="stroke: #000000; stroke-width: 0.8"/>
      </defs>
      <g>
       <use xlink:href="#m640f9e8c88" x="38.173373" y="189.48" style="stroke: #000000; stroke-width: 0.8"/>
      </g>
     </g>
     <g id="text_1">
      <!-- 0.0 -->
      <g transform="translate(30.22181 204.078438) scale(0.1 -0.1)">
       <defs>
        <path id="DejaVuSans-30" d="M 2034 4250 
Q 1547 4250 1301 3770 
Q 1056 3291 1056 2328 
Q 1056 1369 1301 889 
Q 1547 409 2034 409 
Q 2525 409 2770 889 
Q 3016 1369 3016 2328 
Q 3016 3291 2770 3770 
Q 2525 4250 2034 4250 
z
M 2034 4750 
Q 2819 4750 3233 4129 
Q 3647 3509 3647 2328 
Q 3647 1150 3233 529 
Q 2819 -91 2034 -91 
Q 1250 -91 836 529 
Q 422 1150 422 2328 
Q 422 3509 836 4129 
Q 1250 4750 2034 4750 
z
" transform="scale(0.015625)"/>
        <path id="DejaVuSans-2e" d="M 684 794 
L 1344 794 
L 1344 0 
L 684 0 
L 684 794 
z
" transform="scale(0.015625)"/>
       </defs>
       <use xlink:href="#DejaVuSans-30"/>
       <use xlink:href="#DejaVuSans-2e" transform="translate(63.623047 0)"/>
       <use xlink:href="#DejaVuSans-30" transform="translate(95.410156 0)"/>
      </g>
     </g>
    </g>
    <g id="xtick_2">
     <g id="line2d_2">
      <g>
       <use xlink:href="#m640f9e8c88" x="88.070563" y="189.48" style="stroke: #000000; stroke-width: 0.8"/>
      </g>
     </g>
     <g id="text_2">
      <!-- 0.5 -->
      <g transform="translate(80.119001 204.078438) scale(0.1 -0.1)">
       <defs>
        <path id="DejaVuSans-35" d="M 691 4666 
L 3169 4666 
L 3169 4134 
L 1269 4134 
L 1269 2991 
Q 1406 3038 1543 3061 
Q 1681 3084 1819 3084 
Q 2600 3084 3056 2656 
Q 3513 2228 3513 1497 
Q 3513 744 3044 326 
Q 2575 -91 1722 -91 
Q 1428 -91 1123 -41 
Q 819 9 494 109 
L 494 744 
Q 775 591 1075 516 
Q 1375 441 1709 441 
Q 2250 441 2565 725 
Q 2881 1009 2881 1497 
Q 2881 1984 2565 2268 
Q 2250 2553 1709 2553 
Q 1456 2553 1204 2497 
Q 953 2441 691 2322 
L 691 4666 
z
" transform="scale(0.015625)"/>
       </defs>
       <use xlink:href="#DejaVuSans-30"/>
       <use xlink:href="#DejaVuSans-2e" transform="translate(63.623047 0)"/>
       <use xlink:href="#DejaVuSans-35" transform="translate(95.410156 0)"/>
      </g>
     </g>
    </g>
    <g id="xtick_3">
     <g id="line2d_3">
      <g>
       <use xlink:href="#m640f9e8c88" x="137.967753" y="189.48" style="stroke: #000000; stroke-width: 0.8"/>
      </g>
     </g>
     <g id="text_3">
      <!-- 1.0 -->
      <g transform="translate(130.016191 204.078438) scale(0.1 -0.1)">
       <defs>
        <path id="DejaVuSans-31" d="M 794 531 
L 1825 531 
L 1825 4091 
L 703 3866 
L 703 4441 
L 1819 4666 
L 2450 4666 
L 2450 531 
L 3481 531 
L 3481 0 
L 794 0 
L 794 531 
z
" transform="scale(0.015625)"/>
       </defs>
       <use xlink:href="#DejaVuSans-31"/>
       <use xlink:href="#DejaVuSans-2e" transform="translate(63.623047 0)"/>
       <use xlink:href="#DejaVuSans-30" transform="translate(95.410156 0)"/>
      </g>
     </g>
    </g>
    <g id="xtick_4">
     <g id="line2d_4">
      <g>
       <use xlink:href="#m640f9e8c88" x="187.864943" y="189.48" style="stroke: #000000; stroke-width: 0.8"/>
      </g>
     </g>
     <g id="text_4">
      <!-- 1.5 -->
      <g transform="translate(179.913381 204.078438) scale(0.1 -0.1)">
       <use xlink:href="#DejaVuSans-31"/>
       <use xlink:href="#DejaVuSans-2e" transform="translate(63.623047 0)"/>
       <use xlink:href="#DejaVuSans-35" transform="translate(95.410156 0)"/>
      </g>
     </g>
    </g>
    <g id="text_5">
     <!-- $\omega^{\ast}$ -->
     <g transform="translate(111.375852 217.756563) scale(0.1 -0.1)">
      <defs>
       <path id="DejaVuSans-Oblique-3c9" d="M 1369 -91 
Q 72 -91 434 1766 
Q 575 2500 1256 3500 
L 1875 3500 
Q 1231 2500 1088 1750 
Q 819 397 1519 397 
Q 2166 397 2478 2078 
L 3009 2078 
Q 2669 388 3316 397 
Q 4013 403 4275 1750 
Q 4419 2500 4169 3500 
L 4788 3500 
Q 5075 2500 4934 1766 
Q 4578 -94 3278 -91 
Q 2428 -88 2503 844 
Q 2194 -91 1369 -91 
z
" transform="scale(0.015625)"/>
       <path id="DejaVuSans-2217" d="M 2153 2006 
L 816 2778 
L 1081 3238 
L 2419 2466 
L 2419 4013 
L 2944 4013 
L 2944 2466 
L 4281 3238 
L 4547 2778 
L 3209 2006 
L 4547 1234 
L 4281 775 
L 2944 1547 
L 2944 0 
L 2419 0 
L 2419 1547 
L 1081 775 
L 816 1234 
L 2153 2006 
z
" transform="scale(0.015625)"/>
      </defs>
      <use xlink:href="#DejaVuSans-Oblique-3c9" transform="translate(0 0.826562)"/>
      <use xlink:href="#DejaVuSans-2217" transform="translate(88.20638 39.107812) scale(0.7)"/>
     </g>
    </g>
   </g>
   <g id="matplotlib.axis_2">
    <g id="ytick_1">
     <g id="line2d_5">
      <defs>
       <path id="m72fd5319da" d="M 0 0 
L -3.5 0 
" style="stroke: #000000; stroke-width: 0.8"/>
      </defs>
      <g>
       <use xlink:href="#m72fd5319da" x="30.103125" y="180.295611" style="stroke: #000000; stroke-width: 0.8"/>
      </g>
     </g>
     <g id="text_6">
      <!-- 0.2 -->
      <g transform="translate(7.2 184.09483) scale(0.1 -0.1)">
       <defs>
        <path id="DejaVuSans-32" d="M 1228 531 
L 3431 531 
L 3431 0 
L 469 0 
L 469 531 
Q 828 903 1448 1529 
Q 2069 2156 2228 2338 
Q 2531 2678 2651 2914 
Q 2772 3150 2772 3378 
Q 2772 3750 2511 3984 
Q 2250 4219 1831 4219 
Q 1534 4219 1204 4116 
Q 875 4013 500 3803 
L 500 4441 
Q 881 4594 1212 4672 
Q 1544 4750 1819 4750 
Q 2544 4750 2975 4387 
Q 3406 4025 3406 3419 
Q 3406 3131 3298 2873 
Q 3191 2616 2906 2266 
Q 2828 2175 2409 1742 
Q 1991 1309 1228 531 
z
" transform="scale(0.015625)"/>
       </defs>
       <use xlink:href="#DejaVuSans-30"/>
       <use xlink:href="#DejaVuSans-2e" transform="translate(63.623047 0)"/>
       <use xlink:href="#DejaVuSans-32" transform="translate(95.410156 0)"/>
      </g>
     </g>
    </g>
    <g id="ytick_2">
     <g id="line2d_6">
      <g>
       <use xlink:href="#m72fd5319da" x="30.103125" y="155.895618" style="stroke: #000000; stroke-width: 0.8"/>
      </g>
     </g>
     <g id="text_7">
      <!-- 0.4 -->
      <g transform="translate(7.2 159.694836) scale(0.1 -0.1)">
       <defs>
        <path id="DejaVuSans-34" d="M 2419 4116 
L 825 1625 
L 2419 1625 
L 2419 4116 
z
M 2253 4666 
L 3047 4666 
L 3047 1625 
L 3713 1625 
L 3713 1100 
L 3047 1100 
L 3047 0 
L 2419 0 
L 2419 1100 
L 313 1100 
L 313 1709 
L 2253 4666 
z
" transform="scale(0.015625)"/>
       </defs>
       <use xlink:href="#DejaVuSans-30"/>
       <use xlink:href="#DejaVuSans-2e" transform="translate(63.623047 0)"/>
       <use xlink:href="#DejaVuSans-34" transform="translate(95.410156 0)"/>
      </g>
     </g>
    </g>
    <g id="ytick_3">
     <g id="line2d_7">
      <g>
       <use xlink:href="#m72fd5319da" x="30.103125" y="131.495625" style="stroke: #000000; stroke-width: 0.8"/>
      </g>
     </g>
     <g id="text_8">
      <!-- 0.6 -->
      <g transform="translate(7.2 135.294843) scale(0.1 -0.1)">
       <defs>
        <path id="DejaVuSans-36" d="M 2113 2584 
Q 1688 2584 1439 2293 
Q 1191 2003 1191 1497 
Q 1191 994 1439 701 
Q 1688 409 2113 409 
Q 2538 409 2786 701 
Q 3034 994 3034 1497 
Q 3034 2003 2786 2293 
Q 2538 2584 2113 2584 
z
M 3366 4563 
L 3366 3988 
Q 3128 4100 2886 4159 
Q 2644 4219 2406 4219 
Q 1781 4219 1451 3797 
Q 1122 3375 1075 2522 
Q 1259 2794 1537 2939 
Q 1816 3084 2150 3084 
Q 2853 3084 3261 2657 
Q 3669 2231 3669 1497 
Q 3669 778 3244 343 
Q 2819 -91 2113 -91 
Q 1303 -91 875 529 
Q 447 1150 447 2328 
Q 447 3434 972 4092 
Q 1497 4750 2381 4750 
Q 2619 4750 2861 4703 
Q 3103 4656 3366 4563 
z
" transform="scale(0.015625)"/>
       </defs>
       <use xlink:href="#DejaVuSans-30"/>
       <use xlink:href="#DejaVuSans-2e" transform="translate(63.623047 0)"/>
       <use xlink:href="#DejaVuSans-36" transform="translate(95.410156 0)"/>
      </g>
     </g>
    </g>
    <g id="ytick_4">
     <g id="line2d_8">
      <g>
       <use xlink:href="#m72fd5319da" x="30.103125" y="107.095632" style="stroke: #000000; stroke-width: 0.8"/>
      </g>
     </g>
     <g id="text_9">
      <!-- 0.8 -->
      <g transform="translate(7.2 110.89485) scale(0.1 -0.1)">
       <defs>
        <path id="DejaVuSans-38" d="M 2034 2216 
Q 1584 2216 1326 1975 
Q 1069 1734 1069 1313 
Q 1069 891 1326 650 
Q 1584 409 2034 409 
Q 2484 409 2743 651 
Q 3003 894 3003 1313 
Q 3003 1734 2745 1975 
Q 2488 2216 2034 2216 
z
M 1403 2484 
Q 997 2584 770 2862 
Q 544 3141 544 3541 
Q 544 4100 942 4425 
Q 1341 4750 2034 4750 
Q 2731 4750 3128 4425 
Q 3525 4100 3525 3541 
Q 3525 3141 3298 2862 
Q 3072 2584 2669 2484 
Q 3125 2378 3379 2068 
Q 3634 1759 3634 1313 
Q 3634 634 3220 271 
Q 2806 -91 2034 -91 
Q 1263 -91 848 271 
Q 434 634 434 1313 
Q 434 1759 690 2068 
Q 947 2378 1403 2484 
z
M 1172 3481 
Q 1172 3119 1398 2916 
Q 1625 2713 2034 2713 
Q 2441 2713 2670 2916 
Q 2900 3119 2900 3481 
Q 2900 3844 2670 4047 
Q 2441 4250 2034 4250 
Q 1625 4250 1398 4047 
Q 1172 3844 1172 3481 
z
" transform="scale(0.015625)"/>
       </defs>
       <use xlink:href="#DejaVuSans-30"/>
       <use xlink:href="#DejaVuSans-2e" transform="translate(63.623047 0)"/>
       <use xlink:href="#DejaVuSans-38" transform="translate(95.410156 0)"/>
      </g>
     </g>
    </g>
    <g id="ytick_5">
     <g id="line2d_9">
      <g>
       <use xlink:href="#m72fd5319da" x="30.103125" y="82.695639" style="stroke: #000000; stroke-width: 0.8"/>
      </g>
     </g>
     <g id="text_10">
      <!-- 1.0 -->
      <g transform="translate(7.2 86.494857) scale(0.1 -0.1)">
       <use xlink:href="#DejaVuSans-31"/>
       <use xlink:href="#DejaVuSans-2e" transform="translate(63.623047 0)"/>
       <use xlink:href="#DejaVuSans-30" transform="translate(95.410156 0)"/>
      </g>
     </g>
    </g>
    <g id="ytick_6">
     <g id="line2d_10">
      <g>
       <use xlink:href="#m72fd5319da" x="30.103125" y="58.295646" style="stroke: #000000; stroke-width: 0.8"/>
      </g>
     </g>
     <g id="text_11">
      <!-- 1.2 -->
      <g transform="translate(7.2 62.094864) scale(0.1 -0.1)">
       <use xlink:href="#DejaVuSans-31"/>
       <use xlink:href="#DejaVuSans-2e" transform="translate(63.623047 0)"/>
       <use xlink:href="#DejaVuSans-32" transform="translate(95.410156 0)"/>
      </g>
     </g>
    </g>
    <g id="ytick_7">
     <g id="line2d_11">
      <g>
       <use xlink:href="#m72fd5319da" x="30.103125" y="33.895652" style="stroke: #000000; stroke-width: 0.8"/>
      </g>
     </g>
     <g id="text_12">
      <!-- 1.4 -->
      <g transform="translate(7.2 37.694871) scale(0.1 -0.1)">
       <use xlink:href="#DejaVuSans-31"/>
       <use xlink:href="#DejaVuSans-2e" transform="translate(63.623047 0)"/>
       <use xlink:href="#DejaVuSans-34" transform="translate(95.410156 0)"/>
      </g>
     </g>
    </g>
   </g>
   <g id="line2d_12">
    <path d="M 38.173373 82.300817 
L 44.629571 81.481981 
L 49.79453 80.668983 
L 55.605108 78.273779 
L 60.447257 74.303666 
L 65.612216 69.54245 
L 70.454365 63.99305 
L 74.973704 57.655465 
L 78.524613 52.901546 
L 82.398332 48.146169 
L 85.303621 46.553745 
L 88.20891 45.750964 
L 91.437009 47.315656 
L 94.342299 49.671451 
L 97.247588 53.606533 
L 99.507257 58.334179 
L 102.089737 63.850009 
L 104.349406 70.156942 
L 106.931885 77.252059 
L 108.868745 83.560452 
L 110.805604 91.448132 
L 114.356513 102.487089 
L 119.198662 117.468427 
L 122.426761 126.929557 
L 126.30048 136.387767 
L 132.433869 148.994335 
L 139.212877 160.018697 
L 144.700646 166.311034 
L 150.834034 171.810808 
L 157.613042 175.728375 
L 163.423621 178.071034 
L 171.171059 180.404935 
L 178.595687 181.161008 
L 185.374695 181.92 
L 191.830894 181.890808 
L 199.578332 181.855778 
" clip-path="url(#p8d3ee1e8b1)" style="fill: none; stroke: #000000; stroke-width: 1.5; stroke-linecap: square"/>
   </g>
   <g id="line2d_13">
    <path d="M 46.138846 84.69764 
L 47.667574 84.255977 
L 49.196301 83.72577 
L 50.725028 83.10344 
L 52.253755 82.385633 
L 53.782482 81.569352 
L 55.31121 80.652096 
L 56.839937 79.632004 
L 58.368664 78.508023 
L 59.897391 77.280083 
L 61.426118 75.949307 
L 62.954846 74.518238 
L 64.483573 72.991095 
L 66.0123 71.374061 
L 67.541027 69.675589 
L 69.069754 67.90673 
L 70.598482 66.081477 
L 72.127209 64.217096 
L 73.655936 62.334443 
L 75.184663 60.45822 
L 76.713391 58.617158 
L 78.242118 56.844058 
L 79.770845 55.175679 
L 81.299572 53.652384 
L 82.828299 52.317538 
L 84.357027 51.216588 
L 85.885754 50.395828 
L 87.414481 49.900848 
L 88.943208 49.774716 
L 90.471935 50.055975 
L 92.000663 50.776578 
L 93.52939 51.959941 
L 95.058117 53.619261 
L 96.586844 55.756306 
L 98.115572 58.360805 
L 99.644299 61.410537 
L 101.173026 64.872133 
L 102.701753 68.70254 
L 104.23048 72.851014 
L 105.759208 77.261447 
L 107.287935 81.874851 
L 108.816662 86.631758 
L 110.345389 91.474396 
L 111.874116 96.3485 
L 113.402844 101.204689 
L 114.931571 105.99939 
L 116.460298 110.695338 
L 117.989025 115.261701 
L 119.517752 119.6739 
L 121.04648 123.913216 
L 122.575207 127.966235 
L 124.103934 131.824219 
L 125.632661 135.482443 
L 127.161389 138.939536 
L 128.690116 142.196871 
L 130.218843 145.257995 
L 131.74757 148.128138 
L 133.276297 150.81378 
L 134.805025 153.322287 
L 136.333752 155.661612 
L 137.862479 157.840044 
L 139.391206 159.866017 
L 140.919933 161.747953 
L 142.448661 163.494147 
L 143.977388 165.112677 
L 145.506115 166.61134 
L 147.034842 167.997613 
L 148.56357 169.278622 
L 150.092297 170.461127 
L 151.621024 171.551516 
L 153.149751 172.555813 
L 154.678478 173.479674 
L 156.207206 174.328409 
L 157.735933 175.10699 
L 159.26466 175.820068 
L 160.793387 176.471988 
L 162.322114 177.06681 
L 163.850842 177.608321 
L 165.379569 178.100058 
L 166.908296 178.545319 
L 168.437023 178.947179 
L 169.965751 179.308511 
L 171.494478 179.631993 
L 173.023205 179.920127 
L 174.551932 180.175245 
L 176.080659 180.39953 
L 177.609387 180.595019 
L 179.138114 180.763616 
L 180.666841 180.907102 
L 182.195568 181.027142 
L 183.724295 181.125297 
L 185.253023 181.203027 
L 186.78175 181.2617 
L 188.310477 181.302597 
L 189.839204 181.32692 
L 191.367931 181.335798 
L 192.896659 181.330288 
L 194.425386 181.311383 
L 195.954113 181.280015 
L 197.48284 181.237061 
" clip-path="url(#p8d3ee1e8b1)" style="fill: none; stroke-dasharray: 1.5,2.475; stroke-dashoffset: 0; stroke: #ff0000; stroke-width: 1.5"/>
   </g>
   <g id="line2d_14">
    <defs>
     <path id="m219810fa15" d="M 0 2 
C 0.530406 2 1.03916 1.789267 1.414214 1.414214 
C 1.789267 1.03916 2 0.530406 2 0 
C 2 -0.530406 1.789267 -1.03916 1.414214 -1.414214 
C 1.03916 -1.789267 0.530406 -2 0 -2 
C -0.530406 -2 -1.03916 -1.789267 -1.414214 -1.414214 
C -1.789267 -1.03916 -2 -0.530406 -2 0 
C -2 0.530406 -1.789267 1.03916 -1.414214 1.414214 
C -1.03916 1.789267 -0.530406 2 0 2 
z
" style="stroke: #0000ff"/>
    </defs>
    <g clip-path="url(#p8d3ee1e8b1)">
     <use xlink:href="#m219810fa15" x="50.76296" y="90.929974" style="fill: #bfbf00; stroke: #0000ff"/>
     <use xlink:href="#m219810fa15" x="56.896348" y="85.374735" style="fill: #bfbf00; stroke: #0000ff"/>
     <use xlink:href="#m219810fa15" x="63.352546" y="77.449105" style="fill: #bfbf00; stroke: #0000ff"/>
     <use xlink:href="#m219810fa15" x="69.485935" y="69.524935" style="fill: #bfbf00; stroke: #0000ff"/>
     <use xlink:href="#m219810fa15" x="75.942133" y="60.020017" style="fill: #bfbf00; stroke: #0000ff"/>
     <use xlink:href="#m219810fa15" x="81.752712" y="44.990513" style="fill: #bfbf00; stroke: #0000ff"/>
     <use xlink:href="#m219810fa15" x="88.20891" y="35.485595" style="fill: #bfbf00; stroke: #0000ff"/>
     <use xlink:href="#m219810fa15" x="94.342299" y="30.72" style="fill: #bfbf00; stroke: #0000ff"/>
     <use xlink:href="#m219810fa15" x="100.152877" y="42.538384" style="fill: #bfbf00; stroke: #0000ff"/>
     <use xlink:href="#m219810fa15" x="106.286265" y="66.199965" style="fill: #bfbf00; stroke: #0000ff"/>
     <use xlink:href="#m219810fa15" x="112.096844" y="89.863006" style="fill: #bfbf00; stroke: #0000ff"/>
     <use xlink:href="#m219810fa15" x="118.553042" y="111.154196" style="fill: #bfbf00; stroke: #0000ff"/>
     <use xlink:href="#m219810fa15" x="124.686431" y="130.077915" style="fill: #bfbf00; stroke: #0000ff"/>
     <use xlink:href="#m219810fa15" x="130.819819" y="145.843058" style="fill: #bfbf00; stroke: #0000ff"/>
     <use xlink:href="#m219810fa15" x="136.953208" y="156.080695" style="fill: #bfbf00; stroke: #0000ff"/>
     <use xlink:href="#m219810fa15" x="143.086596" y="162.370113" style="fill: #bfbf00; stroke: #0000ff"/>
     <use xlink:href="#m219810fa15" x="149.219985" y="167.080243" style="fill: #bfbf00; stroke: #0000ff"/>
     <use xlink:href="#m219810fa15" x="155.353373" y="169.421442" style="fill: #bfbf00; stroke: #0000ff"/>
     <use xlink:href="#m219810fa15" x="161.809571" y="169.39225" style="fill: #bfbf00; stroke: #0000ff"/>
     <use xlink:href="#m219810fa15" x="174.076348" y="164.598923" style="fill: #bfbf00; stroke: #0000ff"/>
    </g>
   </g>
   <g id="patch_3">
    <path d="M 30.103125 189.48 
L 30.103125 23.16 
" style="fill: none; stroke: #000000; stroke-width: 0.8; stroke-linejoin: miter; stroke-linecap: square"/>
   </g>
   <g id="patch_4">
    <path d="M 207.64858 189.48 
L 207.64858 23.16 
" style="fill: none; stroke: #000000; stroke-width: 0.8; stroke-linejoin: miter; stroke-linecap: square"/>
   </g>
   <g id="patch_5">
    <path d="M 30.103125 189.48 
L 207.64858 189.48 
" style="fill: none; stroke: #000000; stroke-width: 0.8; stroke-linejoin: miter; stroke-linecap: square"/>
   </g>
   <g id="patch_6">
    <path d="M 30.103125 23.16 
L 207.64858 23.16 
" style="fill: none; stroke: #000000; stroke-width: 0.8; stroke-linejoin: miter; stroke-linecap: square"/>
   </g>
   <g id="text_13">
    <!-- Sway added mass $a^{\ast}_{xx}$ -->
    <g transform="translate(53.775852 17.16) scale(0.12 -0.12)">
     <defs>
      <path id="DejaVuSans-53" d="M 3425 4513 
L 3425 3897 
Q 3066 4069 2747 4153 
Q 2428 4238 2131 4238 
Q 1616 4238 1336 4038 
Q 1056 3838 1056 3469 
Q 1056 3159 1242 3001 
Q 1428 2844 1947 2747 
L 2328 2669 
Q 3034 2534 3370 2195 
Q 3706 1856 3706 1288 
Q 3706 609 3251 259 
Q 2797 -91 1919 -91 
Q 1588 -91 1214 -16 
Q 841 59 441 206 
L 441 856 
Q 825 641 1194 531 
Q 1563 422 1919 422 
Q 2459 422 2753 634 
Q 3047 847 3047 1241 
Q 3047 1584 2836 1778 
Q 2625 1972 2144 2069 
L 1759 2144 
Q 1053 2284 737 2584 
Q 422 2884 422 3419 
Q 422 4038 858 4394 
Q 1294 4750 2059 4750 
Q 2388 4750 2728 4690 
Q 3069 4631 3425 4513 
z
" transform="scale(0.015625)"/>
      <path id="DejaVuSans-77" d="M 269 3500 
L 844 3500 
L 1563 769 
L 2278 3500 
L 2956 3500 
L 3675 769 
L 4391 3500 
L 4966 3500 
L 4050 0 
L 3372 0 
L 2619 2869 
L 1863 0 
L 1184 0 
L 269 3500 
z
" transform="scale(0.015625)"/>
      <path id="DejaVuSans-61" d="M 2194 1759 
Q 1497 1759 1228 1600 
Q 959 1441 959 1056 
Q 959 750 1161 570 
Q 1363 391 1709 391 
Q 2188 391 2477 730 
Q 2766 1069 2766 1631 
L 2766 1759 
L 2194 1759 
z
M 3341 1997 
L 3341 0 
L 2766 0 
L 2766 531 
Q 2569 213 2275 61 
Q 1981 -91 1556 -91 
Q 1019 -91 701 211 
Q 384 513 384 1019 
Q 384 1609 779 1909 
Q 1175 2209 1959 2209 
L 2766 2209 
L 2766 2266 
Q 2766 2663 2505 2880 
Q 2244 3097 1772 3097 
Q 1472 3097 1187 3025 
Q 903 2953 641 2809 
L 641 3341 
Q 956 3463 1253 3523 
Q 1550 3584 1831 3584 
Q 2591 3584 2966 3190 
Q 3341 2797 3341 1997 
z
" transform="scale(0.015625)"/>
      <path id="DejaVuSans-79" d="M 2059 -325 
Q 1816 -950 1584 -1140 
Q 1353 -1331 966 -1331 
L 506 -1331 
L 506 -850 
L 844 -850 
Q 1081 -850 1212 -737 
Q 1344 -625 1503 -206 
L 1606 56 
L 191 3500 
L 800 3500 
L 1894 763 
L 2988 3500 
L 3597 3500 
L 2059 -325 
z
" transform="scale(0.015625)"/>
      <path id="DejaVuSans-20" transform="scale(0.015625)"/>
      <path id="DejaVuSans-64" d="M 2906 2969 
L 2906 4863 
L 3481 4863 
L 3481 0 
L 2906 0 
L 2906 525 
Q 2725 213 2448 61 
Q 2172 -91 1784 -91 
Q 1150 -91 751 415 
Q 353 922 353 1747 
Q 353 2572 751 3078 
Q 1150 3584 1784 3584 
Q 2172 3584 2448 3432 
Q 2725 3281 2906 2969 
z
M 947 1747 
Q 947 1113 1208 752 
Q 1469 391 1925 391 
Q 2381 391 2643 752 
Q 2906 1113 2906 1747 
Q 2906 2381 2643 2742 
Q 2381 3103 1925 3103 
Q 1469 3103 1208 2742 
Q 947 2381 947 1747 
z
" transform="scale(0.015625)"/>
      <path id="DejaVuSans-65" d="M 3597 1894 
L 3597 1613 
L 953 1613 
Q 991 1019 1311 708 
Q 1631 397 2203 397 
Q 2534 397 2845 478 
Q 3156 559 3463 722 
L 3463 178 
Q 3153 47 2828 -22 
Q 2503 -91 2169 -91 
Q 1331 -91 842 396 
Q 353 884 353 1716 
Q 353 2575 817 3079 
Q 1281 3584 2069 3584 
Q 2775 3584 3186 3129 
Q 3597 2675 3597 1894 
z
M 3022 2063 
Q 3016 2534 2758 2815 
Q 2500 3097 2075 3097 
Q 1594 3097 1305 2825 
Q 1016 2553 972 2059 
L 3022 2063 
z
" transform="scale(0.015625)"/>
      <path id="DejaVuSans-6d" d="M 3328 2828 
Q 3544 3216 3844 3400 
Q 4144 3584 4550 3584 
Q 5097 3584 5394 3201 
Q 5691 2819 5691 2113 
L 5691 0 
L 5113 0 
L 5113 2094 
Q 5113 2597 4934 2840 
Q 4756 3084 4391 3084 
Q 3944 3084 3684 2787 
Q 3425 2491 3425 1978 
L 3425 0 
L 2847 0 
L 2847 2094 
Q 2847 2600 2669 2842 
Q 2491 3084 2119 3084 
Q 1678 3084 1418 2786 
Q 1159 2488 1159 1978 
L 1159 0 
L 581 0 
L 581 3500 
L 1159 3500 
L 1159 2956 
Q 1356 3278 1631 3431 
Q 1906 3584 2284 3584 
Q 2666 3584 2933 3390 
Q 3200 3197 3328 2828 
z
" transform="scale(0.015625)"/>
      <path id="DejaVuSans-73" d="M 2834 3397 
L 2834 2853 
Q 2591 2978 2328 3040 
Q 2066 3103 1784 3103 
Q 1356 3103 1142 2972 
Q 928 2841 928 2578 
Q 928 2378 1081 2264 
Q 1234 2150 1697 2047 
L 1894 2003 
Q 2506 1872 2764 1633 
Q 3022 1394 3022 966 
Q 3022 478 2636 193 
Q 2250 -91 1575 -91 
Q 1294 -91 989 -36 
Q 684 19 347 128 
L 347 722 
Q 666 556 975 473 
Q 1284 391 1588 391 
Q 1994 391 2212 530 
Q 2431 669 2431 922 
Q 2431 1156 2273 1281 
Q 2116 1406 1581 1522 
L 1381 1569 
Q 847 1681 609 1914 
Q 372 2147 372 2553 
Q 372 3047 722 3315 
Q 1072 3584 1716 3584 
Q 2034 3584 2315 3537 
Q 2597 3491 2834 3397 
z
" transform="scale(0.015625)"/>
      <path id="DejaVuSans-Oblique-61" d="M 3438 1997 
L 3047 0 
L 2472 0 
L 2578 531 
Q 2325 219 2001 64 
Q 1678 -91 1281 -91 
Q 834 -91 548 182 
Q 263 456 263 884 
Q 263 1497 752 1853 
Q 1241 2209 2100 2209 
L 2900 2209 
L 2931 2363 
Q 2938 2388 2941 2417 
Q 2944 2447 2944 2509 
Q 2944 2788 2717 2942 
Q 2491 3097 2081 3097 
Q 1800 3097 1504 3025 
Q 1209 2953 897 2809 
L 997 3341 
Q 1322 3463 1633 3523 
Q 1944 3584 2234 3584 
Q 2853 3584 3176 3315 
Q 3500 3047 3500 2534 
Q 3500 2431 3484 2292 
Q 3469 2153 3438 1997 
z
M 2816 1759 
L 2241 1759 
Q 1534 1759 1195 1570 
Q 856 1381 856 984 
Q 856 709 1029 553 
Q 1203 397 1509 397 
Q 1978 397 2328 733 
Q 2678 1069 2791 1631 
L 2816 1759 
z
" transform="scale(0.015625)"/>
      <path id="DejaVuSans-Oblique-78" d="M 3841 3500 
L 2234 1784 
L 3219 0 
L 2559 0 
L 1819 1388 
L 531 0 
L -166 0 
L 1556 1844 
L 641 3500 
L 1300 3500 
L 1972 2234 
L 3144 3500 
L 3841 3500 
z
" transform="scale(0.015625)"/>
     </defs>
     <use xlink:href="#DejaVuSans-53" transform="translate(0 0.826562)"/>
     <use xlink:href="#DejaVuSans-77" transform="translate(63.476562 0.826562)"/>
     <use xlink:href="#DejaVuSans-61" transform="translate(145.263672 0.826562)"/>
     <use xlink:href="#DejaVuSans-79" transform="translate(206.542969 0.826562)"/>
     <use xlink:href="#DejaVuSans-20" transform="translate(265.722656 0.826562)"/>
     <use xlink:href="#DejaVuSans-61" transform="translate(297.509766 0.826562)"/>
     <use xlink:href="#DejaVuSans-64" transform="translate(358.789062 0.826562)"/>
     <use xlink:href="#DejaVuSans-64" transform="translate(422.265625 0.826562)"/>
     <use xlink:href="#DejaVuSans-65" transform="translate(485.742188 0.826562)"/>
     <use xlink:href="#DejaVuSans-64" transform="translate(547.265625 0.826562)"/>
     <use xlink:href="#DejaVuSans-20" transform="translate(610.742188 0.826562)"/>
     <use xlink:href="#DejaVuSans-6d" transform="translate(642.529297 0.826562)"/>
     <use xlink:href="#DejaVuSans-61" transform="translate(739.941406 0.826562)"/>
     <use xlink:href="#DejaVuSans-73" transform="translate(801.220703 0.826562)"/>
     <use xlink:href="#DejaVuSans-73" transform="translate(853.320312 0.826562)"/>
     <use xlink:href="#DejaVuSans-20" transform="translate(905.419922 0.826562)"/>
     <use xlink:href="#DejaVuSans-Oblique-61" transform="translate(937.207031 0.826562)"/>
     <use xlink:href="#DejaVuSans-2217" transform="translate(1003.136224 39.107813) scale(0.7)"/>
     <use xlink:href="#DejaVuSans-Oblique-78" transform="translate(998.486328 -26.517188) scale(0.7)"/>
     <use xlink:href="#DejaVuSans-Oblique-78" transform="translate(1039.912109 -26.517188) scale(0.7)"/>
    </g>
   </g>
  </g>
  <g id="axes_2">
   <g id="patch_7">
    <path d="M 243.15767 189.48 
L 420.703125 189.48 
L 420.703125 23.16 
L 243.15767 23.16 
z
" style="fill: #ffffff"/>
   </g>
   <g id="matplotlib.axis_3">
    <g id="xtick_5">
     <g id="line2d_15">
      <g>
       <use xlink:href="#m640f9e8c88" x="251.227918" y="189.48" style="stroke: #000000; stroke-width: 0.8"/>
      </g>
     </g>
     <g id="text_14">
      <!-- 0.0 -->
      <g transform="translate(243.276356 204.078438) scale(0.1 -0.1)">
       <use xlink:href="#DejaVuSans-30"/>
       <use xlink:href="#DejaVuSans-2e" transform="translate(63.623047 0)"/>
       <use xlink:href="#DejaVuSans-30" transform="translate(95.410156 0)"/>
      </g>
     </g>
    </g>
    <g id="xtick_6">
     <g id="line2d_16">
      <g>
       <use xlink:href="#m640f9e8c88" x="301.199683" y="189.48" style="stroke: #000000; stroke-width: 0.8"/>
      </g>
     </g>
     <g id="text_15">
      <!-- 0.5 -->
      <g transform="translate(293.24812 204.078438) scale(0.1 -0.1)">
       <use xlink:href="#DejaVuSans-30"/>
       <use xlink:href="#DejaVuSans-2e" transform="translate(63.623047 0)"/>
       <use xlink:href="#DejaVuSans-35" transform="translate(95.410156 0)"/>
      </g>
     </g>
    </g>
    <g id="xtick_7">
     <g id="line2d_17">
      <g>
       <use xlink:href="#m640f9e8c88" x="351.171447" y="189.48" style="stroke: #000000; stroke-width: 0.8"/>
      </g>
     </g>
     <g id="text_16">
      <!-- 1.0 -->
      <g transform="translate(343.219885 204.078438) scale(0.1 -0.1)">
       <use xlink:href="#DejaVuSans-31"/>
       <use xlink:href="#DejaVuSans-2e" transform="translate(63.623047 0)"/>
       <use xlink:href="#DejaVuSans-30" transform="translate(95.410156 0)"/>
      </g>
     </g>
    </g>
    <g id="xtick_8">
     <g id="line2d_18">
      <g>
       <use xlink:href="#m640f9e8c88" x="401.143212" y="189.48" style="stroke: #000000; stroke-width: 0.8"/>
      </g>
     </g>
     <g id="text_17">
      <!-- 1.5 -->
      <g transform="translate(393.191649 204.078438) scale(0.1 -0.1)">
       <use xlink:href="#DejaVuSans-31"/>
       <use xlink:href="#DejaVuSans-2e" transform="translate(63.623047 0)"/>
       <use xlink:href="#DejaVuSans-35" transform="translate(95.410156 0)"/>
      </g>
     </g>
    </g>
    <g id="text_18">
     <!-- $\omega^{\ast}$ -->
     <g transform="translate(324.430398 217.756563) scale(0.1 -0.1)">
      <use xlink:href="#DejaVuSans-Oblique-3c9" transform="translate(0 0.826562)"/>
      <use xlink:href="#DejaVuSans-2217" transform="translate(88.20638 39.107812) scale(0.7)"/>
     </g>
    </g>
   </g>
   <g id="matplotlib.axis_4">
    <g id="ytick_8">
     <g id="line2d_19">
      <g>
       <use xlink:href="#m72fd5319da" x="243.15767" y="181.92" style="stroke: #000000; stroke-width: 0.8"/>
      </g>
     </g>
     <g id="text_19">
      <!-- 0.0 -->
      <g transform="translate(220.254545 185.719219) scale(0.1 -0.1)">
       <use xlink:href="#DejaVuSans-30"/>
       <use xlink:href="#DejaVuSans-2e" transform="translate(63.623047 0)"/>
       <use xlink:href="#DejaVuSans-30" transform="translate(95.410156 0)"/>
      </g>
     </g>
    </g>
    <g id="ytick_9">
     <g id="line2d_20">
      <g>
       <use xlink:href="#m72fd5319da" x="243.15767" y="146.007953" style="stroke: #000000; stroke-width: 0.8"/>
      </g>
     </g>
     <g id="text_20">
      <!-- 0.2 -->
      <g transform="translate(220.254545 149.807172) scale(0.1 -0.1)">
       <use xlink:href="#DejaVuSans-30"/>
       <use xlink:href="#DejaVuSans-2e" transform="translate(63.623047 0)"/>
       <use xlink:href="#DejaVuSans-32" transform="translate(95.410156 0)"/>
      </g>
     </g>
    </g>
    <g id="ytick_10">
     <g id="line2d_21">
      <g>
       <use xlink:href="#m72fd5319da" x="243.15767" y="110.095906" style="stroke: #000000; stroke-width: 0.8"/>
      </g>
     </g>
     <g id="text_21">
      <!-- 0.4 -->
      <g transform="translate(220.254545 113.895125) scale(0.1 -0.1)">
       <use xlink:href="#DejaVuSans-30"/>
       <use xlink:href="#DejaVuSans-2e" transform="translate(63.623047 0)"/>
       <use xlink:href="#DejaVuSans-34" transform="translate(95.410156 0)"/>
      </g>
     </g>
    </g>
    <g id="ytick_11">
     <g id="line2d_22">
      <g>
       <use xlink:href="#m72fd5319da" x="243.15767" y="74.183859" style="stroke: #000000; stroke-width: 0.8"/>
      </g>
     </g>
     <g id="text_22">
      <!-- 0.6 -->
      <g transform="translate(220.254545 77.983078) scale(0.1 -0.1)">
       <use xlink:href="#DejaVuSans-30"/>
       <use xlink:href="#DejaVuSans-2e" transform="translate(63.623047 0)"/>
       <use xlink:href="#DejaVuSans-36" transform="translate(95.410156 0)"/>
      </g>
     </g>
    </g>
    <g id="ytick_12">
     <g id="line2d_23">
      <g>
       <use xlink:href="#m72fd5319da" x="243.15767" y="38.271812" style="stroke: #000000; stroke-width: 0.8"/>
      </g>
     </g>
     <g id="text_23">
      <!-- 0.8 -->
      <g transform="translate(220.254545 42.071031) scale(0.1 -0.1)">
       <use xlink:href="#DejaVuSans-30"/>
       <use xlink:href="#DejaVuSans-2e" transform="translate(63.623047 0)"/>
       <use xlink:href="#DejaVuSans-38" transform="translate(95.410156 0)"/>
      </g>
     </g>
    </g>
   </g>
   <g id="line2d_24">
    <path d="M 251.227918 181.92 
L 268.717934 181.862633 
L 276.66591 180.689214 
L 281.432866 178.952554 
L 286.196775 175.494879 
L 291.275635 170.315146 
L 296.032432 162.841771 
L 299.83218 153.65051 
L 302.993895 143.313991 
L 305.523674 135.274246 
L 308.680309 122.06937 
L 311.20704 112.308609 
L 313.734787 103.12152 
L 316.261518 93.36076 
L 318.474312 85.895729 
L 320.68609 77.857026 
L 323.214853 69.243608 
L 326.06568 62.923834 
L 329.233491 56.029345 
L 333.357335 50.27907 
L 337.803243 46.822439 
L 342.253215 45.660493 
L 347.024236 46.218519 
L 352.116304 48.496516 
L 356.573388 51.350272 
L 360.076471 54.207156 
L 363.579554 57.06404 
L 369.312703 62.208309 
L 375.683885 68.497835 
L 382.692083 75.358947 
L 391.930347 84.507444 
L 399.574546 91.366469 
L 404.670678 95.939153 
L 412.632877 102.797135 
" clip-path="url(#p7813b911f4)" style="fill: none; stroke: #000000; stroke-width: 1.5; stroke-linecap: square"/>
   </g>
   <g id="line2d_25">
    <path d="M 259.205297 181.916433 
L 260.736309 181.911418 
L 262.267321 181.901889 
L 263.798333 181.885313 
L 265.329345 181.858341 
L 266.860357 181.816686 
L 268.391369 181.75501 
L 269.922381 181.666791 
L 271.453393 181.544204 
L 272.984405 181.377995 
L 274.515417 181.157361 
L 276.046428 180.869844 
L 277.57744 180.501226 
L 279.108452 180.035468 
L 280.639464 179.454667 
L 282.170476 178.73907 
L 283.701488 177.86716 
L 285.2325 176.815815 
L 286.763512 175.56059 
L 288.294524 174.076122 
L 289.825536 172.33669 
L 291.356548 170.316948 
L 292.88756 167.992842 
L 294.418572 165.342698 
L 295.949584 162.348478 
L 297.480596 158.997148 
L 299.011608 155.28209 
L 300.54262 151.204474 
L 302.073632 146.774449 
L 303.604644 142.012041 
L 305.135656 136.947611 
L 306.666668 131.621756 
L 308.19768 126.08459 
L 309.728692 120.394379 
L 311.259704 114.615582 
L 312.790716 108.816437 
L 314.321728 103.066254 
L 315.85274 97.432664 
L 317.383752 91.979024 
L 318.914764 86.762194 
L 320.445776 81.830833 
L 321.976788 77.224295 
L 323.5078 72.97214 
L 325.038812 69.09421 
L 326.569824 65.601181 
L 328.100836 62.495473 
L 329.631848 59.772384 
L 331.16286 57.421342 
L 332.693872 55.427164 
L 334.224884 53.771263 
L 335.755896 52.432726 
L 337.286908 51.389258 
L 338.81792 50.617964 
L 340.348932 50.095979 
L 341.879944 49.800952 
L 343.410956 49.711401 
L 344.941968 49.806962 
L 346.47298 50.068544 
L 348.003992 50.478412 
L 349.535004 51.020219 
L 351.066016 51.67899 
L 352.597028 52.44108 
L 354.12804 53.294108 
L 355.659052 54.226883 
L 357.190064 55.229317 
L 358.721076 56.292338 
L 360.252088 57.407805 
L 361.7831 58.568421 
L 363.314112 59.767655 
L 364.845124 60.999666 
L 366.376136 62.259231 
L 367.907148 63.541685 
L 369.43816 64.842859 
L 370.969172 66.159027 
L 372.500184 67.486861 
L 374.031196 68.823387 
L 375.562208 70.165944 
L 377.09322 71.512154 
L 378.624232 72.85989 
L 380.155244 74.207245 
L 381.686256 75.552517 
L 383.217268 76.894176 
L 384.74828 78.230858 
L 386.279292 79.561336 
L 387.810304 80.884514 
L 389.341315 82.199412 
L 390.872327 83.505151 
L 392.403339 84.800947 
L 393.934351 86.0861 
L 395.465363 87.359985 
L 396.996375 88.622049 
L 398.527387 89.871799 
L 400.058399 91.1088 
L 401.589411 92.33267 
L 403.120423 93.543076 
L 404.651435 94.739725 
L 406.182447 95.922367 
L 407.713459 97.090789 
L 409.244471 98.24481 
L 410.775483 99.384284 
" clip-path="url(#p7813b911f4)" style="fill: none; stroke-dasharray: 1.5,2.475; stroke-dashoffset: 0; stroke: #ff0000; stroke-width: 1.5"/>
   </g>
   <g id="line2d_26">
    <g clip-path="url(#p7813b911f4)">
     <use xlink:href="#m219810fa15" x="270.304888" y="180.136403" style="fill: #bfbf00; stroke: #0000ff"/>
     <use xlink:href="#m219810fa15" x="276.661846" y="178.394528" style="fill: #bfbf00; stroke: #0000ff"/>
     <use xlink:href="#m219810fa15" x="282.699787" y="176.080024" style="fill: #bfbf00; stroke: #0000ff"/>
     <use xlink:href="#m219810fa15" x="289.054713" y="173.190805" style="fill: #bfbf00; stroke: #0000ff"/>
     <use xlink:href="#m219810fa15" x="295.083511" y="165.713257" style="fill: #bfbf00; stroke: #0000ff"/>
     <use xlink:href="#m219810fa15" x="301.419133" y="151.92428" style="fill: #bfbf00; stroke: #0000ff"/>
     <use xlink:href="#m219810fa15" x="307.41034" y="123.220885" style="fill: #bfbf00; stroke: #0000ff"/>
     <use xlink:href="#m219810fa15" x="313.087611" y="96.81322" style="fill: #bfbf00; stroke: #0000ff"/>
     <use xlink:href="#m219810fa15" x="319.403929" y="72.124483" style="fill: #bfbf00; stroke: #0000ff"/>
     <use xlink:href="#m219810fa15" x="325.412408" y="53.173504" style="fill: #bfbf00; stroke: #0000ff"/>
     <use xlink:href="#m219810fa15" x="331.431046" y="39.959241" style="fill: #bfbf00; stroke: #0000ff"/>
     <use xlink:href="#m219810fa15" x="337.77886" y="33.054322" style="fill: #bfbf00; stroke: #0000ff"/>
     <use xlink:href="#m219810fa15" x="343.498801" y="30.740861" style="fill: #bfbf00; stroke: #0000ff"/>
     <use xlink:href="#m219810fa15" x="349.858807" y="30.72" style="fill: #bfbf00; stroke: #0000ff"/>
     <use xlink:href="#m219810fa15" x="356.225925" y="34.71484" style="fill: #bfbf00; stroke: #0000ff"/>
     <use xlink:href="#m219810fa15" x="362.277074" y="39.858066" style="fill: #bfbf00; stroke: #0000ff"/>
     <use xlink:href="#m219810fa15" x="368.96524" y="45.572878" style="fill: #bfbf00; stroke: #0000ff"/>
     <use xlink:href="#m219810fa15" x="374.697373" y="50.143475" style="fill: #bfbf00; stroke: #0000ff"/>
     <use xlink:href="#m219810fa15" x="387.114624" y="58.70787" style="fill: #bfbf00; stroke: #0000ff"/>
     <use xlink:href="#m219810fa15" x="399.851907" y="68.418564" style="fill: #bfbf00; stroke: #0000ff"/>
    </g>
   </g>
   <g id="patch_8">
    <path d="M 243.15767 189.48 
L 243.15767 23.16 
" style="fill: none; stroke: #000000; stroke-width: 0.8; stroke-linejoin: miter; stroke-linecap: square"/>
   </g>
   <g id="patch_9">
    <path d="M 420.703125 189.48 
L 420.703125 23.16 
" style="fill: none; stroke: #000000; stroke-width: 0.8; stroke-linejoin: miter; stroke-linecap: square"/>
   </g>
   <g id="patch_10">
    <path d="M 243.15767 189.48 
L 420.703125 189.48 
" style="fill: none; stroke: #000000; stroke-width: 0.8; stroke-linejoin: miter; stroke-linecap: square"/>
   </g>
   <g id="patch_11">
    <path d="M 243.15767 23.16 
L 420.703125 23.16 
" style="fill: none; stroke: #000000; stroke-width: 0.8; stroke-linejoin: miter; stroke-linecap: square"/>
   </g>
   <g id="text_24">
    <!-- Sway radiation damping $b^{\ast}_{xx}$ -->
    <g transform="translate(248.110398 17.16) scale(0.12 -0.12)">
     <defs>
      <path id="DejaVuSans-72" d="M 2631 2963 
Q 2534 3019 2420 3045 
Q 2306 3072 2169 3072 
Q 1681 3072 1420 2755 
Q 1159 2438 1159 1844 
L 1159 0 
L 581 0 
L 581 3500 
L 1159 3500 
L 1159 2956 
Q 1341 3275 1631 3429 
Q 1922 3584 2338 3584 
Q 2397 3584 2469 3576 
Q 2541 3569 2628 3553 
L 2631 2963 
z
" transform="scale(0.015625)"/>
      <path id="DejaVuSans-69" d="M 603 3500 
L 1178 3500 
L 1178 0 
L 603 0 
L 603 3500 
z
M 603 4863 
L 1178 4863 
L 1178 4134 
L 603 4134 
L 603 4863 
z
" transform="scale(0.015625)"/>
      <path id="DejaVuSans-74" d="M 1172 4494 
L 1172 3500 
L 2356 3500 
L 2356 3053 
L 1172 3053 
L 1172 1153 
Q 1172 725 1289 603 
Q 1406 481 1766 481 
L 2356 481 
L 2356 0 
L 1766 0 
Q 1100 0 847 248 
Q 594 497 594 1153 
L 594 3053 
L 172 3053 
L 172 3500 
L 594 3500 
L 594 4494 
L 1172 4494 
z
" transform="scale(0.015625)"/>
      <path id="DejaVuSans-6f" d="M 1959 3097 
Q 1497 3097 1228 2736 
Q 959 2375 959 1747 
Q 959 1119 1226 758 
Q 1494 397 1959 397 
Q 2419 397 2687 759 
Q 2956 1122 2956 1747 
Q 2956 2369 2687 2733 
Q 2419 3097 1959 3097 
z
M 1959 3584 
Q 2709 3584 3137 3096 
Q 3566 2609 3566 1747 
Q 3566 888 3137 398 
Q 2709 -91 1959 -91 
Q 1206 -91 779 398 
Q 353 888 353 1747 
Q 353 2609 779 3096 
Q 1206 3584 1959 3584 
z
" transform="scale(0.015625)"/>
      <path id="DejaVuSans-6e" d="M 3513 2113 
L 3513 0 
L 2938 0 
L 2938 2094 
Q 2938 2591 2744 2837 
Q 2550 3084 2163 3084 
Q 1697 3084 1428 2787 
Q 1159 2491 1159 1978 
L 1159 0 
L 581 0 
L 581 3500 
L 1159 3500 
L 1159 2956 
Q 1366 3272 1645 3428 
Q 1925 3584 2291 3584 
Q 2894 3584 3203 3211 
Q 3513 2838 3513 2113 
z
" transform="scale(0.015625)"/>
      <path id="DejaVuSans-70" d="M 1159 525 
L 1159 -1331 
L 581 -1331 
L 581 3500 
L 1159 3500 
L 1159 2969 
Q 1341 3281 1617 3432 
Q 1894 3584 2278 3584 
Q 2916 3584 3314 3078 
Q 3713 2572 3713 1747 
Q 3713 922 3314 415 
Q 2916 -91 2278 -91 
Q 1894 -91 1617 61 
Q 1341 213 1159 525 
z
M 3116 1747 
Q 3116 2381 2855 2742 
Q 2594 3103 2138 3103 
Q 1681 3103 1420 2742 
Q 1159 2381 1159 1747 
Q 1159 1113 1420 752 
Q 1681 391 2138 391 
Q 2594 391 2855 752 
Q 3116 1113 3116 1747 
z
" transform="scale(0.015625)"/>
      <path id="DejaVuSans-67" d="M 2906 1791 
Q 2906 2416 2648 2759 
Q 2391 3103 1925 3103 
Q 1463 3103 1205 2759 
Q 947 2416 947 1791 
Q 947 1169 1205 825 
Q 1463 481 1925 481 
Q 2391 481 2648 825 
Q 2906 1169 2906 1791 
z
M 3481 434 
Q 3481 -459 3084 -895 
Q 2688 -1331 1869 -1331 
Q 1566 -1331 1297 -1286 
Q 1028 -1241 775 -1147 
L 775 -588 
Q 1028 -725 1275 -790 
Q 1522 -856 1778 -856 
Q 2344 -856 2625 -561 
Q 2906 -266 2906 331 
L 2906 616 
Q 2728 306 2450 153 
Q 2172 0 1784 0 
Q 1141 0 747 490 
Q 353 981 353 1791 
Q 353 2603 747 3093 
Q 1141 3584 1784 3584 
Q 2172 3584 2450 3431 
Q 2728 3278 2906 2969 
L 2906 3500 
L 3481 3500 
L 3481 434 
z
" transform="scale(0.015625)"/>
      <path id="DejaVuSans-Oblique-62" d="M 3169 2138 
Q 3169 2591 2961 2847 
Q 2753 3103 2388 3103 
Q 2122 3103 1889 2973 
Q 1656 2844 1484 2597 
Q 1303 2338 1198 1995 
Q 1094 1653 1094 1313 
Q 1094 881 1298 636 
Q 1503 391 1863 391 
Q 2134 391 2365 517 
Q 2597 644 2772 891 
Q 2950 1147 3059 1487 
Q 3169 1828 3169 2138 
z
M 1381 2969 
Q 1594 3256 1914 3420 
Q 2234 3584 2584 3584 
Q 3122 3584 3439 3221 
Q 3756 2859 3756 2241 
Q 3756 1734 3570 1259 
Q 3384 784 3041 416 
Q 2816 172 2522 40 
Q 2228 -91 1906 -91 
Q 1566 -91 1316 65 
Q 1066 222 909 531 
L 806 0 
L 231 0 
L 1178 4863 
L 1753 4863 
L 1381 2969 
z
" transform="scale(0.015625)"/>
     </defs>
     <use xlink:href="#DejaVuSans-53" transform="translate(0 0.826562)"/>
     <use xlink:href="#DejaVuSans-77" transform="translate(63.476562 0.826562)"/>
     <use xlink:href="#DejaVuSans-61" transform="translate(145.263672 0.826562)"/>
     <use xlink:href="#DejaVuSans-79" transform="translate(206.542969 0.826562)"/>
     <use xlink:href="#DejaVuSans-20" transform="translate(265.722656 0.826562)"/>
     <use xlink:href="#DejaVuSans-72" transform="translate(297.509766 0.826562)"/>
     <use xlink:href="#DejaVuSans-61" transform="translate(338.623047 0.826562)"/>
     <use xlink:href="#DejaVuSans-64" transform="translate(399.902344 0.826562)"/>
     <use xlink:href="#DejaVuSans-69" transform="translate(463.378906 0.826562)"/>
     <use xlink:href="#DejaVuSans-61" transform="translate(491.162109 0.826562)"/>
     <use xlink:href="#DejaVuSans-74" transform="translate(552.441406 0.826562)"/>
     <use xlink:href="#DejaVuSans-69" transform="translate(591.650391 0.826562)"/>
     <use xlink:href="#DejaVuSans-6f" transform="translate(619.433594 0.826562)"/>
     <use xlink:href="#DejaVuSans-6e" transform="translate(680.615234 0.826562)"/>
     <use xlink:href="#DejaVuSans-20" transform="translate(743.994141 0.826562)"/>
     <use xlink:href="#DejaVuSans-64" transform="translate(775.78125 0.826562)"/>
     <use xlink:href="#DejaVuSans-61" transform="translate(839.257812 0.826562)"/>
     <use xlink:href="#DejaVuSans-6d" transform="translate(900.537109 0.826562)"/>
     <use xlink:href="#DejaVuSans-70" transform="translate(997.949219 0.826562)"/>
     <use xlink:href="#DejaVuSans-69" transform="translate(1061.425781 0.826562)"/>
     <use xlink:href="#DejaVuSans-6e" transform="translate(1089.208984 0.826562)"/>
     <use xlink:href="#DejaVuSans-67" transform="translate(1152.587891 0.826562)"/>
     <use xlink:href="#DejaVuSans-20" transform="translate(1216.064453 0.826562)"/>
     <use xlink:href="#DejaVuSans-Oblique-62" transform="translate(1247.851562 0.826562)"/>
     <use xlink:href="#DejaVuSans-2217" transform="translate(1318.775833 39.107813) scale(0.7)"/>
     <use xlink:href="#DejaVuSans-Oblique-78" transform="translate(1311.328125 -26.517188) scale(0.7)"/>
     <use xlink:href="#DejaVuSans-Oblique-78" transform="translate(1352.753906 -26.517188) scale(0.7)"/>
    </g>
   </g>
   <g id="legend_1">
    <g id="patch_12">
     <path d="M 315.017187 184.48 
L 413.703125 184.48 
Q 415.703125 184.48 415.703125 182.48 
L 415.703125 139.445625 
Q 415.703125 137.445625 413.703125 137.445625 
L 315.017187 137.445625 
Q 313.017187 137.445625 313.017187 139.445625 
L 313.017187 182.48 
Q 313.017187 184.48 315.017187 184.48 
z
" style="fill: #ffffff; opacity: 0.8; stroke: #cccccc; stroke-linejoin: miter"/>
    </g>
    <g id="line2d_27">
     <path d="M 317.017187 145.544063 
L 327.017187 145.544063 
L 337.017187 145.544063 
" style="fill: none; stroke: #000000; stroke-width: 1.5; stroke-linecap: square"/>
    </g>
    <g id="text_25">
     <!-- Analytical -->
     <g transform="translate(345.017187 149.044063) scale(0.1 -0.1)">
      <defs>
       <path id="DejaVuSans-41" d="M 2188 4044 
L 1331 1722 
L 3047 1722 
L 2188 4044 
z
M 1831 4666 
L 2547 4666 
L 4325 0 
L 3669 0 
L 3244 1197 
L 1141 1197 
L 716 0 
L 50 0 
L 1831 4666 
z
" transform="scale(0.015625)"/>
       <path id="DejaVuSans-6c" d="M 603 4863 
L 1178 4863 
L 1178 0 
L 603 0 
L 603 4863 
z
" transform="scale(0.015625)"/>
       <path id="DejaVuSans-63" d="M 3122 3366 
L 3122 2828 
Q 2878 2963 2633 3030 
Q 2388 3097 2138 3097 
Q 1578 3097 1268 2742 
Q 959 2388 959 1747 
Q 959 1106 1268 751 
Q 1578 397 2138 397 
Q 2388 397 2633 464 
Q 2878 531 3122 666 
L 3122 134 
Q 2881 22 2623 -34 
Q 2366 -91 2075 -91 
Q 1284 -91 818 406 
Q 353 903 353 1747 
Q 353 2603 823 3093 
Q 1294 3584 2113 3584 
Q 2378 3584 2631 3529 
Q 2884 3475 3122 3366 
z
" transform="scale(0.015625)"/>
      </defs>
      <use xlink:href="#DejaVuSans-41"/>
      <use xlink:href="#DejaVuSans-6e" transform="translate(68.408203 0)"/>
      <use xlink:href="#DejaVuSans-61" transform="translate(131.787109 0)"/>
      <use xlink:href="#DejaVuSans-6c" transform="translate(193.066406 0)"/>
      <use xlink:href="#DejaVuSans-79" transform="translate(220.849609 0)"/>
      <use xlink:href="#DejaVuSans-74" transform="translate(280.029297 0)"/>
      <use xlink:href="#DejaVuSans-69" transform="translate(319.238281 0)"/>
      <use xlink:href="#DejaVuSans-63" transform="translate(347.021484 0)"/>
      <use xlink:href="#DejaVuSans-61" transform="translate(402.001953 0)"/>
      <use xlink:href="#DejaVuSans-6c" transform="translate(463.28125 0)"/>
     </g>
    </g>
    <g id="line2d_28">
     <g>
      <use xlink:href="#m219810fa15" x="327.017187" y="160.222188" style="fill: #bfbf00; stroke: #0000ff"/>
     </g>
    </g>
    <g id="text_26">
     <!-- Experimental -->
     <g transform="translate(345.017187 163.722188) scale(0.1 -0.1)">
      <defs>
       <path id="DejaVuSans-45" d="M 628 4666 
L 3578 4666 
L 3578 4134 
L 1259 4134 
L 1259 2753 
L 3481 2753 
L 3481 2222 
L 1259 2222 
L 1259 531 
L 3634 531 
L 3634 0 
L 628 0 
L 628 4666 
z
" transform="scale(0.015625)"/>
       <path id="DejaVuSans-78" d="M 3513 3500 
L 2247 1797 
L 3578 0 
L 2900 0 
L 1881 1375 
L 863 0 
L 184 0 
L 1544 1831 
L 300 3500 
L 978 3500 
L 1906 2253 
L 2834 3500 
L 3513 3500 
z
" transform="scale(0.015625)"/>
      </defs>
      <use xlink:href="#DejaVuSans-45"/>
      <use xlink:href="#DejaVuSans-78" transform="translate(63.183594 0)"/>
      <use xlink:href="#DejaVuSans-70" transform="translate(122.363281 0)"/>
      <use xlink:href="#DejaVuSans-65" transform="translate(185.839844 0)"/>
      <use xlink:href="#DejaVuSans-72" transform="translate(247.363281 0)"/>
      <use xlink:href="#DejaVuSans-69" transform="translate(288.476562 0)"/>
      <use xlink:href="#DejaVuSans-6d" transform="translate(316.259766 0)"/>
      <use xlink:href="#DejaVuSans-65" transform="translate(413.671875 0)"/>
      <use xlink:href="#DejaVuSans-6e" transform="translate(475.195312 0)"/>
      <use xlink:href="#DejaVuSans-74" transform="translate(538.574219 0)"/>
      <use xlink:href="#DejaVuSans-61" transform="translate(577.783203 0)"/>
      <use xlink:href="#DejaVuSans-6c" transform="translate(639.0625 0)"/>
     </g>
    </g>
    <g id="line2d_29">
     <path d="M 317.017187 174.900313 
L 327.017187 174.900313 
L 337.017187 174.900313 
" style="fill: none; stroke-dasharray: 1.5,2.475; stroke-dashoffset: 0; stroke: #ff0000; stroke-width: 1.5"/>
    </g>
    <g id="text_27">
     <!-- BEM -->
     <g transform="translate(345.017187 178.400313) scale(0.1 -0.1)">
      <defs>
       <path id="DejaVuSans-42" d="M 1259 2228 
L 1259 519 
L 2272 519 
Q 2781 519 3026 730 
Q 3272 941 3272 1375 
Q 3272 1813 3026 2020 
Q 2781 2228 2272 2228 
L 1259 2228 
z
M 1259 4147 
L 1259 2741 
L 2194 2741 
Q 2656 2741 2882 2914 
Q 3109 3088 3109 3444 
Q 3109 3797 2882 3972 
Q 2656 4147 2194 4147 
L 1259 4147 
z
M 628 4666 
L 2241 4666 
Q 2963 4666 3353 4366 
Q 3744 4066 3744 3513 
Q 3744 3084 3544 2831 
Q 3344 2578 2956 2516 
Q 3422 2416 3680 2098 
Q 3938 1781 3938 1306 
Q 3938 681 3513 340 
Q 3088 0 2303 0 
L 628 0 
L 628 4666 
z
" transform="scale(0.015625)"/>
       <path id="DejaVuSans-4d" d="M 628 4666 
L 1569 4666 
L 2759 1491 
L 3956 4666 
L 4897 4666 
L 4897 0 
L 4281 0 
L 4281 4097 
L 3078 897 
L 2444 897 
L 1241 4097 
L 1241 0 
L 628 0 
L 628 4666 
z
" transform="scale(0.015625)"/>
      </defs>
      <use xlink:href="#DejaVuSans-42"/>
      <use xlink:href="#DejaVuSans-45" transform="translate(68.603516 0)"/>
      <use xlink:href="#DejaVuSans-4d" transform="translate(131.787109 0)"/>
     </g>
    </g>
   </g>
  </g>
 </g>
 <defs>
  <clipPath id="p8d3ee1e8b1">
   <rect x="30.103125" y="23.16" width="177.545455" height="166.32"/>
  </clipPath>
  <clipPath id="p7813b911f4">
   <rect x="243.15767" y="23.16" width="177.545455" height="166.32"/>
  </clipPath>
 </defs>
</svg>
