<?xml version="1.0" encoding="utf-8" standalone="no"?>
<!DOCTYPE svg PUBLIC "-//W3C//DTD SVG 1.1//EN"
  "http://www.w3.org/Graphics/SVG/1.1/DTD/svg11.dtd">
<svg xmlns:xlink="http://www.w3.org/1999/xlink" width="427.903125pt" height="337.074375pt" viewBox="0 0 427.903125 337.074375" xmlns="http://www.w3.org/2000/svg" version="1.1">
 <metadata>
  <rdf:RDF xmlns:dc="http://purl.org/dc/elements/1.1/" xmlns:cc="http://creativecommons.org/ns#" xmlns:rdf="http://www.w3.org/1999/02/22-rdf-syntax-ns#">
   <cc:Work>
    <dc:type rdf:resource="http://purl.org/dc/dcmitype/StillImage"/>
    <dc:date>2025-08-23T00:06:48.002222</dc:date>
    <dc:format>image/svg+xml</dc:format>
    <dc:creator>
     <cc:Agent>
      <dc:title>Matplotlib v3.10.0, https://matplotlib.org/</dc:title>
     </cc:Agent>
    </dc:creator>
   </cc:Work>
  </rdf:RDF>
 </metadata>
 <defs>
  <style type="text/css">*{stroke-linejoin: round; stroke-linecap: butt}</style>
 </defs>
 <g id="figure_1">
  <g id="patch_1">
   <path d="M 0 337.074375 
L 427.903125 337.074375 
L 427.903125 0 
L 0 0 
z
" style="fill: #ffffff"/>
  </g>
  <g id="axes_1">
   <g id="patch_2">
    <path d="M 30.103125 148.318125 
L 207.64858 148.318125 
L 207.64858 22.318125 
L 30.103125 22.318125 
z
" style="fill: #ffffff"/>
   </g>
   <g id="matplotlib.axis_1">
    <g id="ytick_1">
     <g id="line2d_1">
      <defs>
       <path id="m79a9dc2be1" d="M 0 0 
L -3.5 0 
" style="stroke: #000000; stroke-width: 0.8"/>
      </defs>
      <g>
       <use xlink:href="#m79a9dc2be1" x="30.103125" y="132.832094" style="stroke: #000000; stroke-width: 0.8"/>
      </g>
     </g>
     <g id="text_1">
      <!-- 0.2 -->
      <g transform="translate(7.2 136.631313) scale(0.1 -0.1)">
       <defs>
        <path id="DejaVuSans-30" d="M 2034 4250 
Q 1547 4250 1301 3770 
Q 1056 3291 1056 2328 
Q 1056 1369 1301 889 
Q 1547 409 2034 409 
Q 2525 409 2770 889 
Q 3016 1369 3016 2328 
Q 3016 3291 2770 3770 
Q 2525 4250 2034 4250 
z
M 2034 4750 
Q 2819 4750 3233 4129 
Q 3647 3509 3647 2328 
Q 3647 1150 3233 529 
Q 2819 -91 2034 -91 
Q 1250 -91 836 529 
Q 422 1150 422 2328 
Q 422 3509 836 4129 
Q 1250 4750 2034 4750 
z
" transform="scale(0.015625)"/>
        <path id="DejaVuSans-2e" d="M 684 794 
L 1344 794 
L 1344 0 
L 684 0 
L 684 794 
z
" transform="scale(0.015625)"/>
        <path id="DejaVuSans-32" d="M 1228 531 
L 3431 531 
L 3431 0 
L 469 0 
L 469 531 
Q 828 903 1448 1529 
Q 2069 2156 2228 2338 
Q 2531 2678 2651 2914 
Q 2772 3150 2772 3378 
Q 2772 3750 2511 3984 
Q 2250 4219 1831 4219 
Q 1534 4219 1204 4116 
Q 875 4013 500 3803 
L 500 4441 
Q 881 4594 1212 4672 
Q 1544 4750 1819 4750 
Q 2544 4750 2975 4387 
Q 3406 4025 3406 3419 
Q 3406 3131 3298 2873 
Q 3191 2616 2906 2266 
Q 2828 2175 2409 1742 
Q 1991 1309 1228 531 
z
" transform="scale(0.015625)"/>
       </defs>
       <use xlink:href="#DejaVuSans-30"/>
       <use xlink:href="#DejaVuSans-2e" transform="translate(63.623047 0)"/>
       <use xlink:href="#DejaVuSans-32" transform="translate(95.410156 0)"/>
      </g>
     </g>
    </g>
    <g id="ytick_2">
     <g id="line2d_2">
      <g>
       <use xlink:href="#m79a9dc2be1" x="30.103125" y="106.227254" style="stroke: #000000; stroke-width: 0.8"/>
      </g>
     </g>
     <g id="text_2">
      <!-- 0.4 -->
      <g transform="translate(7.2 110.026473) scale(0.1 -0.1)">
       <defs>
        <path id="DejaVuSans-34" d="M 2419 4116 
L 825 1625 
L 2419 1625 
L 2419 4116 
z
M 2253 4666 
L 3047 4666 
L 3047 1625 
L 3713 1625 
L 3713 1100 
L 3047 1100 
L 3047 0 
L 2419 0 
L 2419 1100 
L 313 1100 
L 313 1709 
L 2253 4666 
z
" transform="scale(0.015625)"/>
       </defs>
       <use xlink:href="#DejaVuSans-30"/>
       <use xlink:href="#DejaVuSans-2e" transform="translate(63.623047 0)"/>
       <use xlink:href="#DejaVuSans-34" transform="translate(95.410156 0)"/>
      </g>
     </g>
    </g>
    <g id="ytick_3">
     <g id="line2d_3">
      <g>
       <use xlink:href="#m79a9dc2be1" x="30.103125" y="79.622415" style="stroke: #000000; stroke-width: 0.8"/>
      </g>
     </g>
     <g id="text_3">
      <!-- 0.6 -->
      <g transform="translate(7.2 83.421634) scale(0.1 -0.1)">
       <defs>
        <path id="DejaVuSans-36" d="M 2113 2584 
Q 1688 2584 1439 2293 
Q 1191 2003 1191 1497 
Q 1191 994 1439 701 
Q 1688 409 2113 409 
Q 2538 409 2786 701 
Q 3034 994 3034 1497 
Q 3034 2003 2786 2293 
Q 2538 2584 2113 2584 
z
M 3366 4563 
L 3366 3988 
Q 3128 4100 2886 4159 
Q 2644 4219 2406 4219 
Q 1781 4219 1451 3797 
Q 1122 3375 1075 2522 
Q 1259 2794 1537 2939 
Q 1816 3084 2150 3084 
Q 2853 3084 3261 2657 
Q 3669 2231 3669 1497 
Q 3669 778 3244 343 
Q 2819 -91 2113 -91 
Q 1303 -91 875 529 
Q 447 1150 447 2328 
Q 447 3434 972 4092 
Q 1497 4750 2381 4750 
Q 2619 4750 2861 4703 
Q 3103 4656 3366 4563 
z
" transform="scale(0.015625)"/>
       </defs>
       <use xlink:href="#DejaVuSans-30"/>
       <use xlink:href="#DejaVuSans-2e" transform="translate(63.623047 0)"/>
       <use xlink:href="#DejaVuSans-36" transform="translate(95.410156 0)"/>
      </g>
     </g>
    </g>
    <g id="ytick_4">
     <g id="line2d_4">
      <g>
       <use xlink:href="#m79a9dc2be1" x="30.103125" y="53.017575" style="stroke: #000000; stroke-width: 0.8"/>
      </g>
     </g>
     <g id="text_4">
      <!-- 0.8 -->
      <g transform="translate(7.2 56.816794) scale(0.1 -0.1)">
       <defs>
        <path id="DejaVuSans-38" d="M 2034 2216 
Q 1584 2216 1326 1975 
Q 1069 1734 1069 1313 
Q 1069 891 1326 650 
Q 1584 409 2034 409 
Q 2484 409 2743 651 
Q 3003 894 3003 1313 
Q 3003 1734 2745 1975 
Q 2488 2216 2034 2216 
z
M 1403 2484 
Q 997 2584 770 2862 
Q 544 3141 544 3541 
Q 544 4100 942 4425 
Q 1341 4750 2034 4750 
Q 2731 4750 3128 4425 
Q 3525 4100 3525 3541 
Q 3525 3141 3298 2862 
Q 3072 2584 2669 2484 
Q 3125 2378 3379 2068 
Q 3634 1759 3634 1313 
Q 3634 634 3220 271 
Q 2806 -91 2034 -91 
Q 1263 -91 848 271 
Q 434 634 434 1313 
Q 434 1759 690 2068 
Q 947 2378 1403 2484 
z
M 1172 3481 
Q 1172 3119 1398 2916 
Q 1625 2713 2034 2713 
Q 2441 2713 2670 2916 
Q 2900 3119 2900 3481 
Q 2900 3844 2670 4047 
Q 2441 4250 2034 4250 
Q 1625 4250 1398 4047 
Q 1172 3844 1172 3481 
z
" transform="scale(0.015625)"/>
       </defs>
       <use xlink:href="#DejaVuSans-30"/>
       <use xlink:href="#DejaVuSans-2e" transform="translate(63.623047 0)"/>
       <use xlink:href="#DejaVuSans-38" transform="translate(95.410156 0)"/>
      </g>
     </g>
    </g>
    <g id="ytick_5">
     <g id="line2d_5">
      <g>
       <use xlink:href="#m79a9dc2be1" x="30.103125" y="26.412736" style="stroke: #000000; stroke-width: 0.8"/>
      </g>
     </g>
     <g id="text_5">
      <!-- 1.0 -->
      <g transform="translate(7.2 30.211955) scale(0.1 -0.1)">
       <defs>
        <path id="DejaVuSans-31" d="M 794 531 
L 1825 531 
L 1825 4091 
L 703 3866 
L 703 4441 
L 1819 4666 
L 2450 4666 
L 2450 531 
L 3481 531 
L 3481 0 
L 794 0 
L 794 531 
z
" transform="scale(0.015625)"/>
       </defs>
       <use xlink:href="#DejaVuSans-31"/>
       <use xlink:href="#DejaVuSans-2e" transform="translate(63.623047 0)"/>
       <use xlink:href="#DejaVuSans-30" transform="translate(95.410156 0)"/>
      </g>
     </g>
    </g>
   </g>
   <g id="line2d_6">
    <path d="M 38.173373 28.045398 
L 39.803726 28.268804 
L 41.434079 28.531578 
L 43.064432 28.833854 
L 44.694785 29.175793 
L 46.325139 29.557583 
L 47.955492 29.979437 
L 49.585845 30.44159 
L 51.216198 30.944297 
L 52.846551 31.487828 
L 54.476904 32.072462 
L 56.107257 32.698486 
L 57.73761 33.366178 
L 59.367963 34.075811 
L 60.998317 34.827633 
L 62.62867 35.621865 
L 64.259023 36.458689 
L 65.889376 37.338235 
L 67.519729 38.260575 
L 69.150082 39.225707 
L 70.780435 40.233549 
L 72.410788 41.283926 
L 74.041142 42.376561 
L 75.671495 43.511068 
L 77.301848 44.68694 
L 78.932201 45.903547 
L 80.562554 47.160126 
L 82.192907 48.455779 
L 83.82326 49.789472 
L 85.453613 51.160031 
L 87.083966 52.566145 
L 88.71432 54.006369 
L 90.344673 55.479125 
L 91.975026 56.982712 
L 93.605379 58.515311 
L 95.235732 60.074995 
L 96.866085 61.659739 
L 98.496438 63.26743 
L 100.126791 64.895883 
L 101.757145 66.54285 
L 103.387498 68.206037 
L 105.017851 69.883117 
L 106.648204 71.571742 
L 108.278557 73.26956 
L 109.90891 74.97423 
L 111.539263 76.68343 
L 113.169616 78.394878 
L 114.799969 80.106335 
L 116.430323 81.815624 
L 118.060676 83.520637 
L 119.691029 85.219344 
L 121.321382 86.909804 
L 122.951735 88.590168 
L 124.582088 90.25869 
L 126.212441 91.913726 
L 127.842794 93.553745 
L 129.473148 95.177324 
L 131.103501 96.783156 
L 132.733854 98.370045 
L 134.364207 99.936909 
L 135.99456 101.482777 
L 137.624913 103.006787 
L 139.255266 104.508182 
L 140.885619 105.986307 
L 142.515972 107.440601 
L 144.146326 108.870597 
L 145.776679 110.275913 
L 147.407032 111.656244 
L 149.037385 113.011358 
L 150.667738 114.341091 
L 152.298091 115.645333 
L 153.928444 116.924029 
L 155.558797 118.177166 
L 157.189151 119.404769 
L 158.819504 120.606894 
L 160.449857 121.783619 
L 162.08021 122.935039 
L 163.710563 124.061263 
L 165.340916 125.162402 
L 166.971269 126.238571 
L 168.601622 127.289878 
L 170.231975 128.316425 
L 171.862329 129.318303 
L 173.492682 130.295586 
L 175.123035 131.248335 
L 176.753388 132.17659 
L 178.383741 133.080377 
L 180.014094 133.959698 
L 181.644447 134.814543 
L 183.2748 135.644884 
L 184.905154 136.450679 
L 186.535507 137.231878 
L 188.16586 137.988424 
L 189.796213 138.720261 
L 191.426566 139.427339 
L 193.056919 140.109618 
L 194.687272 140.767079 
L 196.317625 141.399734 
L 197.947978 142.007627 
L 199.578332 142.590852 
" clip-path="url(#p394e9ee6ef)" style="fill: none; stroke: #ff0000; stroke-width: 1.5; stroke-linecap: square"/>
   </g>
   <g id="patch_3">
    <path d="M 30.103125 148.318125 
L 30.103125 22.318125 
" style="fill: none; stroke: #000000; stroke-width: 0.8; stroke-linejoin: miter; stroke-linecap: square"/>
   </g>
   <g id="patch_4">
    <path d="M 207.64858 148.318125 
L 207.64858 22.318125 
" style="fill: none; stroke: #000000; stroke-width: 0.8; stroke-linejoin: miter; stroke-linecap: square"/>
   </g>
   <g id="patch_5">
    <path d="M 30.103125 148.318125 
L 207.64858 148.318125 
" style="fill: none; stroke: #000000; stroke-width: 0.8; stroke-linejoin: miter; stroke-linecap: square"/>
   </g>
   <g id="patch_6">
    <path d="M 30.103125 22.318125 
L 207.64858 22.318125 
" style="fill: none; stroke: #000000; stroke-width: 0.8; stroke-linejoin: miter; stroke-linecap: square"/>
   </g>
   <g id="text_6">
    <!-- RAO sway -->
    <g transform="translate(89.05679 16.318125) scale(0.12 -0.12)">
     <defs>
      <path id="DejaVuSans-52" d="M 2841 2188 
Q 3044 2119 3236 1894 
Q 3428 1669 3622 1275 
L 4263 0 
L 3584 0 
L 2988 1197 
Q 2756 1666 2539 1819 
Q 2322 1972 1947 1972 
L 1259 1972 
L 1259 0 
L 628 0 
L 628 4666 
L 2053 4666 
Q 2853 4666 3247 4331 
Q 3641 3997 3641 3322 
Q 3641 2881 3436 2590 
Q 3231 2300 2841 2188 
z
M 1259 4147 
L 1259 2491 
L 2053 2491 
Q 2509 2491 2742 2702 
Q 2975 2913 2975 3322 
Q 2975 3731 2742 3939 
Q 2509 4147 2053 4147 
L 1259 4147 
z
" transform="scale(0.015625)"/>
      <path id="DejaVuSans-41" d="M 2188 4044 
L 1331 1722 
L 3047 1722 
L 2188 4044 
z
M 1831 4666 
L 2547 4666 
L 4325 0 
L 3669 0 
L 3244 1197 
L 1141 1197 
L 716 0 
L 50 0 
L 1831 4666 
z
" transform="scale(0.015625)"/>
      <path id="DejaVuSans-4f" d="M 2522 4238 
Q 1834 4238 1429 3725 
Q 1025 3213 1025 2328 
Q 1025 1447 1429 934 
Q 1834 422 2522 422 
Q 3209 422 3611 934 
Q 4013 1447 4013 2328 
Q 4013 3213 3611 3725 
Q 3209 4238 2522 4238 
z
M 2522 4750 
Q 3503 4750 4090 4092 
Q 4678 3434 4678 2328 
Q 4678 1225 4090 567 
Q 3503 -91 2522 -91 
Q 1538 -91 948 565 
Q 359 1222 359 2328 
Q 359 3434 948 4092 
Q 1538 4750 2522 4750 
z
" transform="scale(0.015625)"/>
      <path id="DejaVuSans-20" transform="scale(0.015625)"/>
      <path id="DejaVuSans-73" d="M 2834 3397 
L 2834 2853 
Q 2591 2978 2328 3040 
Q 2066 3103 1784 3103 
Q 1356 3103 1142 2972 
Q 928 2841 928 2578 
Q 928 2378 1081 2264 
Q 1234 2150 1697 2047 
L 1894 2003 
Q 2506 1872 2764 1633 
Q 3022 1394 3022 966 
Q 3022 478 2636 193 
Q 2250 -91 1575 -91 
Q 1294 -91 989 -36 
Q 684 19 347 128 
L 347 722 
Q 666 556 975 473 
Q 1284 391 1588 391 
Q 1994 391 2212 530 
Q 2431 669 2431 922 
Q 2431 1156 2273 1281 
Q 2116 1406 1581 1522 
L 1381 1569 
Q 847 1681 609 1914 
Q 372 2147 372 2553 
Q 372 3047 722 3315 
Q 1072 3584 1716 3584 
Q 2034 3584 2315 3537 
Q 2597 3491 2834 3397 
z
" transform="scale(0.015625)"/>
      <path id="DejaVuSans-77" d="M 269 3500 
L 844 3500 
L 1563 769 
L 2278 3500 
L 2956 3500 
L 3675 769 
L 4391 3500 
L 4966 3500 
L 4050 0 
L 3372 0 
L 2619 2869 
L 1863 0 
L 1184 0 
L 269 3500 
z
" transform="scale(0.015625)"/>
      <path id="DejaVuSans-61" d="M 2194 1759 
Q 1497 1759 1228 1600 
Q 959 1441 959 1056 
Q 959 750 1161 570 
Q 1363 391 1709 391 
Q 2188 391 2477 730 
Q 2766 1069 2766 1631 
L 2766 1759 
L 2194 1759 
z
M 3341 1997 
L 3341 0 
L 2766 0 
L 2766 531 
Q 2569 213 2275 61 
Q 1981 -91 1556 -91 
Q 1019 -91 701 211 
Q 384 513 384 1019 
Q 384 1609 779 1909 
Q 1175 2209 1959 2209 
L 2766 2209 
L 2766 2266 
Q 2766 2663 2505 2880 
Q 2244 3097 1772 3097 
Q 1472 3097 1187 3025 
Q 903 2953 641 2809 
L 641 3341 
Q 956 3463 1253 3523 
Q 1550 3584 1831 3584 
Q 2591 3584 2966 3190 
Q 3341 2797 3341 1997 
z
" transform="scale(0.015625)"/>
      <path id="DejaVuSans-79" d="M 2059 -325 
Q 1816 -950 1584 -1140 
Q 1353 -1331 966 -1331 
L 506 -1331 
L 506 -850 
L 844 -850 
Q 1081 -850 1212 -737 
Q 1344 -625 1503 -206 
L 1606 56 
L 191 3500 
L 800 3500 
L 1894 763 
L 2988 3500 
L 3597 3500 
L 2059 -325 
z
" transform="scale(0.015625)"/>
     </defs>
     <use xlink:href="#DejaVuSans-52"/>
     <use xlink:href="#DejaVuSans-41" transform="translate(65.482422 0)"/>
     <use xlink:href="#DejaVuSans-4f" transform="translate(132.140625 0)"/>
     <use xlink:href="#DejaVuSans-20" transform="translate(210.851562 0)"/>
     <use xlink:href="#DejaVuSans-73" transform="translate(242.638672 0)"/>
     <use xlink:href="#DejaVuSans-77" transform="translate(294.738281 0)"/>
     <use xlink:href="#DejaVuSans-61" transform="translate(376.525391 0)"/>
     <use xlink:href="#DejaVuSans-79" transform="translate(437.804688 0)"/>
    </g>
   </g>
  </g>
  <g id="axes_2">
   <g id="patch_7">
    <path d="M 243.15767 148.318125 
L 420.703125 148.318125 
L 420.703125 22.318125 
L 243.15767 22.318125 
z
" style="fill: #ffffff"/>
   </g>
   <g id="matplotlib.axis_2">
    <g id="ytick_6">
     <g id="line2d_7">
      <g>
       <use xlink:href="#m79a9dc2be1" x="243.15767" y="130.655668" style="stroke: #000000; stroke-width: 0.8"/>
      </g>
     </g>
     <g id="text_7">
      <!-- -2.8 -->
      <g transform="translate(216.646733 134.454886) scale(0.1 -0.1)">
       <defs>
        <path id="DejaVuSans-2d" d="M 313 2009 
L 1997 2009 
L 1997 1497 
L 313 1497 
L 313 2009 
z
" transform="scale(0.015625)"/>
       </defs>
       <use xlink:href="#DejaVuSans-2d"/>
       <use xlink:href="#DejaVuSans-32" transform="translate(36.083984 0)"/>
       <use xlink:href="#DejaVuSans-2e" transform="translate(99.707031 0)"/>
       <use xlink:href="#DejaVuSans-38" transform="translate(131.494141 0)"/>
      </g>
     </g>
    </g>
    <g id="ytick_7">
     <g id="line2d_8">
      <g>
       <use xlink:href="#m79a9dc2be1" x="243.15767" y="108.901625" style="stroke: #000000; stroke-width: 0.8"/>
      </g>
     </g>
     <g id="text_8">
      <!-- -2.5 -->
      <g transform="translate(216.646733 112.700844) scale(0.1 -0.1)">
       <defs>
        <path id="DejaVuSans-35" d="M 691 4666 
L 3169 4666 
L 3169 4134 
L 1269 4134 
L 1269 2991 
Q 1406 3038 1543 3061 
Q 1681 3084 1819 3084 
Q 2600 3084 3056 2656 
Q 3513 2228 3513 1497 
Q 3513 744 3044 326 
Q 2575 -91 1722 -91 
Q 1428 -91 1123 -41 
Q 819 9 494 109 
L 494 744 
Q 775 591 1075 516 
Q 1375 441 1709 441 
Q 2250 441 2565 725 
Q 2881 1009 2881 1497 
Q 2881 1984 2565 2268 
Q 2250 2553 1709 2553 
Q 1456 2553 1204 2497 
Q 953 2441 691 2322 
L 691 4666 
z
" transform="scale(0.015625)"/>
       </defs>
       <use xlink:href="#DejaVuSans-2d"/>
       <use xlink:href="#DejaVuSans-32" transform="translate(36.083984 0)"/>
       <use xlink:href="#DejaVuSans-2e" transform="translate(99.707031 0)"/>
       <use xlink:href="#DejaVuSans-35" transform="translate(131.494141 0)"/>
      </g>
     </g>
    </g>
    <g id="ytick_8">
     <g id="line2d_9">
      <g>
       <use xlink:href="#m79a9dc2be1" x="243.15767" y="87.147582" style="stroke: #000000; stroke-width: 0.8"/>
      </g>
     </g>
     <g id="text_9">
      <!-- -2.2 -->
      <g transform="translate(216.646733 90.946801) scale(0.1 -0.1)">
       <use xlink:href="#DejaVuSans-2d"/>
       <use xlink:href="#DejaVuSans-32" transform="translate(36.083984 0)"/>
       <use xlink:href="#DejaVuSans-2e" transform="translate(99.707031 0)"/>
       <use xlink:href="#DejaVuSans-32" transform="translate(131.494141 0)"/>
      </g>
     </g>
    </g>
    <g id="ytick_9">
     <g id="line2d_10">
      <g>
       <use xlink:href="#m79a9dc2be1" x="243.15767" y="65.39354" style="stroke: #000000; stroke-width: 0.8"/>
      </g>
     </g>
     <g id="text_10">
      <!-- -2.0 -->
      <g transform="translate(216.646733 69.192758) scale(0.1 -0.1)">
       <use xlink:href="#DejaVuSans-2d"/>
       <use xlink:href="#DejaVuSans-32" transform="translate(36.083984 0)"/>
       <use xlink:href="#DejaVuSans-2e" transform="translate(99.707031 0)"/>
       <use xlink:href="#DejaVuSans-30" transform="translate(131.494141 0)"/>
      </g>
     </g>
    </g>
    <g id="ytick_10">
     <g id="line2d_11">
      <g>
       <use xlink:href="#m79a9dc2be1" x="243.15767" y="43.639497" style="stroke: #000000; stroke-width: 0.8"/>
      </g>
     </g>
     <g id="text_11">
      <!-- -1.8 -->
      <g transform="translate(216.646733 47.438716) scale(0.1 -0.1)">
       <use xlink:href="#DejaVuSans-2d"/>
       <use xlink:href="#DejaVuSans-31" transform="translate(36.083984 0)"/>
       <use xlink:href="#DejaVuSans-2e" transform="translate(99.707031 0)"/>
       <use xlink:href="#DejaVuSans-38" transform="translate(131.494141 0)"/>
      </g>
     </g>
    </g>
   </g>
   <g id="line2d_12">
    <path d="M 251.227918 28.045804 
L 252.858272 28.045739 
L 254.488625 28.045653 
L 256.118978 28.045552 
L 257.749331 28.045456 
L 259.379684 28.045398 
L 261.010037 28.045431 
L 262.64039 28.04563 
L 264.270743 28.046099 
L 265.901096 28.046973 
L 267.53145 28.048424 
L 269.161803 28.050667 
L 270.792156 28.053962 
L 272.422509 28.058619 
L 274.052862 28.065005 
L 275.683215 28.073543 
L 277.313568 28.084719 
L 278.943921 28.099084 
L 280.574275 28.117256 
L 282.204628 28.139922 
L 283.834981 28.167839 
L 285.465334 28.201835 
L 287.095687 28.242809 
L 288.72604 28.291728 
L 290.356393 28.349629 
L 291.986746 28.417612 
L 293.617099 28.496843 
L 295.247453 28.588543 
L 296.877806 28.693991 
L 298.508159 28.814513 
L 300.138512 28.951479 
L 301.768865 29.106299 
L 303.399218 29.280414 
L 305.029571 29.475288 
L 306.659924 29.692408 
L 308.290278 29.933267 
L 309.920631 30.199368 
L 311.550984 30.492207 
L 313.181337 30.813275 
L 314.81169 31.164044 
L 316.442043 31.545967 
L 318.072396 31.960466 
L 319.702749 32.40893 
L 321.333102 32.892712 
L 322.963456 33.413119 
L 324.593809 33.971409 
L 326.224162 34.568792 
L 327.854515 35.206421 
L 329.484868 35.885392 
L 331.115221 36.606744 
L 332.745574 37.371453 
L 334.375927 38.180437 
L 336.006281 39.034551 
L 337.636634 39.934589 
L 339.266987 40.88129 
L 340.89734 41.875332 
L 342.527693 42.91734 
L 344.158046 44.00789 
L 345.788399 45.14751 
L 347.418752 46.336686 
L 349.049105 47.575867 
L 350.679459 48.865473 
L 352.309812 50.2059 
L 353.940165 51.597527 
L 355.570518 53.040724 
L 357.200871 54.535863 
L 358.831224 56.083321 
L 360.461577 57.683494 
L 362.09193 59.336808 
L 363.722284 61.043719 
L 365.352637 62.804735 
L 366.98299 64.620415 
L 368.613343 66.491386 
L 370.243696 68.418346 
L 371.874049 70.402078 
L 373.504402 72.443454 
L 375.134755 74.543443 
L 376.765108 76.70312 
L 378.395462 78.923667 
L 380.025815 81.206378 
L 381.656168 83.552663 
L 383.286521 85.964045 
L 384.916874 88.442158 
L 386.547227 90.988744 
L 388.17758 93.605643 
L 389.807933 96.294782 
L 391.438287 99.05816 
L 393.06864 101.897829 
L 394.698993 104.815866 
L 396.329346 107.814349 
L 397.959699 110.895317 
L 399.590052 114.060732 
L 401.220405 117.312428 
L 402.850758 120.652063 
L 404.481111 124.081055 
L 406.111465 127.600518 
L 407.741818 131.211196 
L 409.372171 134.913388 
L 411.002524 138.706876 
L 412.632877 142.590852 
" clip-path="url(#p2ddb9cf09b)" style="fill: none; stroke: #008000; stroke-width: 1.5; stroke-linecap: square"/>
   </g>
   <g id="patch_8">
    <path d="M 243.15767 148.318125 
L 243.15767 22.318125 
" style="fill: none; stroke: #000000; stroke-width: 0.8; stroke-linejoin: miter; stroke-linecap: square"/>
   </g>
   <g id="patch_9">
    <path d="M 420.703125 148.318125 
L 420.703125 22.318125 
" style="fill: none; stroke: #000000; stroke-width: 0.8; stroke-linejoin: miter; stroke-linecap: square"/>
   </g>
   <g id="patch_10">
    <path d="M 243.15767 148.318125 
L 420.703125 148.318125 
" style="fill: none; stroke: #000000; stroke-width: 0.8; stroke-linejoin: miter; stroke-linecap: square"/>
   </g>
   <g id="patch_11">
    <path d="M 243.15767 22.318125 
L 420.703125 22.318125 
" style="fill: none; stroke: #000000; stroke-width: 0.8; stroke-linejoin: miter; stroke-linecap: square"/>
   </g>
   <g id="text_12">
    <!-- Phase angle sway (rad) -->
    <g transform="translate(261.752898 16.318125) scale(0.12 -0.12)">
     <defs>
      <path id="DejaVuSans-50" d="M 1259 4147 
L 1259 2394 
L 2053 2394 
Q 2494 2394 2734 2622 
Q 2975 2850 2975 3272 
Q 2975 3691 2734 3919 
Q 2494 4147 2053 4147 
L 1259 4147 
z
M 628 4666 
L 2053 4666 
Q 2838 4666 3239 4311 
Q 3641 3956 3641 3272 
Q 3641 2581 3239 2228 
Q 2838 1875 2053 1875 
L 1259 1875 
L 1259 0 
L 628 0 
L 628 4666 
z
" transform="scale(0.015625)"/>
      <path id="DejaVuSans-68" d="M 3513 2113 
L 3513 0 
L 2938 0 
L 2938 2094 
Q 2938 2591 2744 2837 
Q 2550 3084 2163 3084 
Q 1697 3084 1428 2787 
Q 1159 2491 1159 1978 
L 1159 0 
L 581 0 
L 581 4863 
L 1159 4863 
L 1159 2956 
Q 1366 3272 1645 3428 
Q 1925 3584 2291 3584 
Q 2894 3584 3203 3211 
Q 3513 2838 3513 2113 
z
" transform="scale(0.015625)"/>
      <path id="DejaVuSans-65" d="M 3597 1894 
L 3597 1613 
L 953 1613 
Q 991 1019 1311 708 
Q 1631 397 2203 397 
Q 2534 397 2845 478 
Q 3156 559 3463 722 
L 3463 178 
Q 3153 47 2828 -22 
Q 2503 -91 2169 -91 
Q 1331 -91 842 396 
Q 353 884 353 1716 
Q 353 2575 817 3079 
Q 1281 3584 2069 3584 
Q 2775 3584 3186 3129 
Q 3597 2675 3597 1894 
z
M 3022 2063 
Q 3016 2534 2758 2815 
Q 2500 3097 2075 3097 
Q 1594 3097 1305 2825 
Q 1016 2553 972 2059 
L 3022 2063 
z
" transform="scale(0.015625)"/>
      <path id="DejaVuSans-6e" d="M 3513 2113 
L 3513 0 
L 2938 0 
L 2938 2094 
Q 2938 2591 2744 2837 
Q 2550 3084 2163 3084 
Q 1697 3084 1428 2787 
Q 1159 2491 1159 1978 
L 1159 0 
L 581 0 
L 581 3500 
L 1159 3500 
L 1159 2956 
Q 1366 3272 1645 3428 
Q 1925 3584 2291 3584 
Q 2894 3584 3203 3211 
Q 3513 2838 3513 2113 
z
" transform="scale(0.015625)"/>
      <path id="DejaVuSans-67" d="M 2906 1791 
Q 2906 2416 2648 2759 
Q 2391 3103 1925 3103 
Q 1463 3103 1205 2759 
Q 947 2416 947 1791 
Q 947 1169 1205 825 
Q 1463 481 1925 481 
Q 2391 481 2648 825 
Q 2906 1169 2906 1791 
z
M 3481 434 
Q 3481 -459 3084 -895 
Q 2688 -1331 1869 -1331 
Q 1566 -1331 1297 -1286 
Q 1028 -1241 775 -1147 
L 775 -588 
Q 1028 -725 1275 -790 
Q 1522 -856 1778 -856 
Q 2344 -856 2625 -561 
Q 2906 -266 2906 331 
L 2906 616 
Q 2728 306 2450 153 
Q 2172 0 1784 0 
Q 1141 0 747 490 
Q 353 981 353 1791 
Q 353 2603 747 3093 
Q 1141 3584 1784 3584 
Q 2172 3584 2450 3431 
Q 2728 3278 2906 2969 
L 2906 3500 
L 3481 3500 
L 3481 434 
z
" transform="scale(0.015625)"/>
      <path id="DejaVuSans-6c" d="M 603 4863 
L 1178 4863 
L 1178 0 
L 603 0 
L 603 4863 
z
" transform="scale(0.015625)"/>
      <path id="DejaVuSans-28" d="M 1984 4856 
Q 1566 4138 1362 3434 
Q 1159 2731 1159 2009 
Q 1159 1288 1364 580 
Q 1569 -128 1984 -844 
L 1484 -844 
Q 1016 -109 783 600 
Q 550 1309 550 2009 
Q 550 2706 781 3412 
Q 1013 4119 1484 4856 
L 1984 4856 
z
" transform="scale(0.015625)"/>
      <path id="DejaVuSans-72" d="M 2631 2963 
Q 2534 3019 2420 3045 
Q 2306 3072 2169 3072 
Q 1681 3072 1420 2755 
Q 1159 2438 1159 1844 
L 1159 0 
L 581 0 
L 581 3500 
L 1159 3500 
L 1159 2956 
Q 1341 3275 1631 3429 
Q 1922 3584 2338 3584 
Q 2397 3584 2469 3576 
Q 2541 3569 2628 3553 
L 2631 2963 
z
" transform="scale(0.015625)"/>
      <path id="DejaVuSans-64" d="M 2906 2969 
L 2906 4863 
L 3481 4863 
L 3481 0 
L 2906 0 
L 2906 525 
Q 2725 213 2448 61 
Q 2172 -91 1784 -91 
Q 1150 -91 751 415 
Q 353 922 353 1747 
Q 353 2572 751 3078 
Q 1150 3584 1784 3584 
Q 2172 3584 2448 3432 
Q 2725 3281 2906 2969 
z
M 947 1747 
Q 947 1113 1208 752 
Q 1469 391 1925 391 
Q 2381 391 2643 752 
Q 2906 1113 2906 1747 
Q 2906 2381 2643 2742 
Q 2381 3103 1925 3103 
Q 1469 3103 1208 2742 
Q 947 2381 947 1747 
z
" transform="scale(0.015625)"/>
      <path id="DejaVuSans-29" d="M 513 4856 
L 1013 4856 
Q 1481 4119 1714 3412 
Q 1947 2706 1947 2009 
Q 1947 1309 1714 600 
Q 1481 -109 1013 -844 
L 513 -844 
Q 928 -128 1133 580 
Q 1338 1288 1338 2009 
Q 1338 2731 1133 3434 
Q 928 4138 513 4856 
z
" transform="scale(0.015625)"/>
     </defs>
     <use xlink:href="#DejaVuSans-50"/>
     <use xlink:href="#DejaVuSans-68" transform="translate(60.302734 0)"/>
     <use xlink:href="#DejaVuSans-61" transform="translate(123.681641 0)"/>
     <use xlink:href="#DejaVuSans-73" transform="translate(184.960938 0)"/>
     <use xlink:href="#DejaVuSans-65" transform="translate(237.060547 0)"/>
     <use xlink:href="#DejaVuSans-20" transform="translate(298.583984 0)"/>
     <use xlink:href="#DejaVuSans-61" transform="translate(330.371094 0)"/>
     <use xlink:href="#DejaVuSans-6e" transform="translate(391.650391 0)"/>
     <use xlink:href="#DejaVuSans-67" transform="translate(455.029297 0)"/>
     <use xlink:href="#DejaVuSans-6c" transform="translate(518.505859 0)"/>
     <use xlink:href="#DejaVuSans-65" transform="translate(546.289062 0)"/>
     <use xlink:href="#DejaVuSans-20" transform="translate(607.8125 0)"/>
     <use xlink:href="#DejaVuSans-73" transform="translate(639.599609 0)"/>
     <use xlink:href="#DejaVuSans-77" transform="translate(691.699219 0)"/>
     <use xlink:href="#DejaVuSans-61" transform="translate(773.486328 0)"/>
     <use xlink:href="#DejaVuSans-79" transform="translate(834.765625 0)"/>
     <use xlink:href="#DejaVuSans-20" transform="translate(893.945312 0)"/>
     <use xlink:href="#DejaVuSans-28" transform="translate(925.732422 0)"/>
     <use xlink:href="#DejaVuSans-72" transform="translate(964.746094 0)"/>
     <use xlink:href="#DejaVuSans-61" transform="translate(1005.859375 0)"/>
     <use xlink:href="#DejaVuSans-64" transform="translate(1067.138672 0)"/>
     <use xlink:href="#DejaVuSans-29" transform="translate(1130.615234 0)"/>
    </g>
   </g>
  </g>
  <g id="axes_3">
   <g id="patch_12">
    <path d="M 30.103125 299.518125 
L 207.64858 299.518125 
L 207.64858 173.518125 
L 30.103125 173.518125 
z
" style="fill: #ffffff"/>
   </g>
   <g id="matplotlib.axis_3">
    <g id="xtick_1">
     <g id="line2d_13">
      <defs>
       <path id="m029081ccbc" d="M 0 0 
L 0 3.5 
" style="stroke: #000000; stroke-width: 0.8"/>
      </defs>
      <g>
       <use xlink:href="#m029081ccbc" x="82.892604" y="299.518125" style="stroke: #000000; stroke-width: 0.8"/>
      </g>
     </g>
     <g id="text_13">
      <!-- 0.5 -->
      <g transform="translate(74.941041 314.116563) scale(0.1 -0.1)">
       <use xlink:href="#DejaVuSans-30"/>
       <use xlink:href="#DejaVuSans-2e" transform="translate(63.623047 0)"/>
       <use xlink:href="#DejaVuSans-35" transform="translate(95.410156 0)"/>
      </g>
     </g>
    </g>
    <g id="xtick_2">
     <g id="line2d_14">
      <g>
       <use xlink:href="#m029081ccbc" x="136.106832" y="299.518125" style="stroke: #000000; stroke-width: 0.8"/>
      </g>
     </g>
     <g id="text_14">
      <!-- 1.0 -->
      <g transform="translate(128.15527 314.116563) scale(0.1 -0.1)">
       <use xlink:href="#DejaVuSans-31"/>
       <use xlink:href="#DejaVuSans-2e" transform="translate(63.623047 0)"/>
       <use xlink:href="#DejaVuSans-30" transform="translate(95.410156 0)"/>
      </g>
     </g>
    </g>
    <g id="xtick_3">
     <g id="line2d_15">
      <g>
       <use xlink:href="#m029081ccbc" x="189.321061" y="299.518125" style="stroke: #000000; stroke-width: 0.8"/>
      </g>
     </g>
     <g id="text_15">
      <!-- 1.5 -->
      <g transform="translate(181.369499 314.116563) scale(0.1 -0.1)">
       <use xlink:href="#DejaVuSans-31"/>
       <use xlink:href="#DejaVuSans-2e" transform="translate(63.623047 0)"/>
       <use xlink:href="#DejaVuSans-35" transform="translate(95.410156 0)"/>
      </g>
     </g>
    </g>
    <g id="text_16">
     <!-- $\omega^{\ast}$ -->
     <g transform="translate(111.375852 327.794688) scale(0.1 -0.1)">
      <defs>
       <path id="DejaVuSans-Oblique-3c9" d="M 1369 -91 
Q 72 -91 434 1766 
Q 575 2500 1256 3500 
L 1875 3500 
Q 1231 2500 1088 1750 
Q 819 397 1519 397 
Q 2166 397 2478 2078 
L 3009 2078 
Q 2669 388 3316 397 
Q 4013 403 4275 1750 
Q 4419 2500 4169 3500 
L 4788 3500 
Q 5075 2500 4934 1766 
Q 4578 -94 3278 -91 
Q 2428 -88 2503 844 
Q 2194 -91 1369 -91 
z
" transform="scale(0.015625)"/>
       <path id="DejaVuSans-2217" d="M 2153 2006 
L 816 2778 
L 1081 3238 
L 2419 2466 
L 2419 4013 
L 2944 4013 
L 2944 2466 
L 4281 3238 
L 4547 2778 
L 3209 2006 
L 4547 1234 
L 4281 775 
L 2944 1547 
L 2944 0 
L 2419 0 
L 2419 1547 
L 1081 775 
L 816 1234 
L 2153 2006 
z
" transform="scale(0.015625)"/>
      </defs>
      <use xlink:href="#DejaVuSans-Oblique-3c9" transform="translate(0 0.826562)"/>
      <use xlink:href="#DejaVuSans-2217" transform="translate(88.20638 39.107812) scale(0.7)"/>
     </g>
    </g>
   </g>
   <g id="matplotlib.axis_4">
    <g id="ytick_11">
     <g id="line2d_16">
      <g>
       <use xlink:href="#m79a9dc2be1" x="30.103125" y="278.190872" style="stroke: #000000; stroke-width: 0.8"/>
      </g>
     </g>
     <g id="text_17">
      <!-- 0.2 -->
      <g transform="translate(7.2 281.99009) scale(0.1 -0.1)">
       <use xlink:href="#DejaVuSans-30"/>
       <use xlink:href="#DejaVuSans-2e" transform="translate(63.623047 0)"/>
       <use xlink:href="#DejaVuSans-32" transform="translate(95.410156 0)"/>
      </g>
     </g>
    </g>
    <g id="ytick_12">
     <g id="line2d_17">
      <g>
       <use xlink:href="#m79a9dc2be1" x="30.103125" y="256.167191" style="stroke: #000000; stroke-width: 0.8"/>
      </g>
     </g>
     <g id="text_18">
      <!-- 0.5 -->
      <g transform="translate(7.2 259.96641) scale(0.1 -0.1)">
       <use xlink:href="#DejaVuSans-30"/>
       <use xlink:href="#DejaVuSans-2e" transform="translate(63.623047 0)"/>
       <use xlink:href="#DejaVuSans-35" transform="translate(95.410156 0)"/>
      </g>
     </g>
    </g>
    <g id="ytick_13">
     <g id="line2d_18">
      <g>
       <use xlink:href="#m79a9dc2be1" x="30.103125" y="234.143511" style="stroke: #000000; stroke-width: 0.8"/>
      </g>
     </g>
     <g id="text_19">
      <!-- 0.8 -->
      <g transform="translate(7.2 237.94273) scale(0.1 -0.1)">
       <use xlink:href="#DejaVuSans-30"/>
       <use xlink:href="#DejaVuSans-2e" transform="translate(63.623047 0)"/>
       <use xlink:href="#DejaVuSans-38" transform="translate(95.410156 0)"/>
      </g>
     </g>
    </g>
    <g id="ytick_14">
     <g id="line2d_19">
      <g>
       <use xlink:href="#m79a9dc2be1" x="30.103125" y="212.119831" style="stroke: #000000; stroke-width: 0.8"/>
      </g>
     </g>
     <g id="text_20">
      <!-- 1.0 -->
      <g transform="translate(7.2 215.91905) scale(0.1 -0.1)">
       <use xlink:href="#DejaVuSans-31"/>
       <use xlink:href="#DejaVuSans-2e" transform="translate(63.623047 0)"/>
       <use xlink:href="#DejaVuSans-30" transform="translate(95.410156 0)"/>
      </g>
     </g>
    </g>
    <g id="ytick_15">
     <g id="line2d_20">
      <g>
       <use xlink:href="#m79a9dc2be1" x="30.103125" y="190.096151" style="stroke: #000000; stroke-width: 0.8"/>
      </g>
     </g>
     <g id="text_21">
      <!-- 1.2 -->
      <g transform="translate(7.2 193.895369) scale(0.1 -0.1)">
       <use xlink:href="#DejaVuSans-31"/>
       <use xlink:href="#DejaVuSans-2e" transform="translate(63.623047 0)"/>
       <use xlink:href="#DejaVuSans-32" transform="translate(95.410156 0)"/>
      </g>
     </g>
    </g>
   </g>
   <g id="line2d_21">
    <path d="M 38.173373 212.111306 
L 39.803726 212.106947 
L 41.434079 212.101236 
L 43.064432 212.093881 
L 44.694785 212.084538 
L 46.325139 212.072808 
L 47.955492 212.058231 
L 49.585845 212.040279 
L 51.216198 212.018354 
L 52.846551 211.991774 
L 54.476904 211.95977 
L 56.107257 211.921476 
L 57.73761 211.875918 
L 59.367963 211.822003 
L 60.998317 211.758512 
L 62.62867 211.684081 
L 64.259023 211.597196 
L 65.889376 211.496175 
L 67.519729 211.379152 
L 69.150082 211.244068 
L 70.780435 211.088651 
L 72.410788 210.910402 
L 74.041142 210.706575 
L 75.671495 210.474161 
L 77.301848 210.209873 
L 78.932201 209.910118 
L 80.562554 209.570988 
L 82.192907 209.188233 
L 83.82326 208.757247 
L 85.453613 208.27305 
L 87.083966 207.730276 
L 88.71432 207.123164 
L 90.344673 206.445567 
L 91.975026 205.690964 
L 93.605379 204.85251 
L 95.235732 203.923106 
L 96.866085 202.895535 
L 98.496438 201.762663 
L 100.126791 200.517756 
L 101.757145 199.154941 
L 103.387498 197.669899 
L 105.017851 196.060841 
L 106.648204 194.329911 
L 108.278557 192.485115 
L 109.90891 190.542949 
L 111.539263 188.531837 
L 113.169616 186.496444 
L 114.799969 184.50269 
L 116.430323 182.64291 
L 118.060676 181.039887 
L 119.691029 179.847572 
L 121.321382 179.245398 
L 122.951735 179.422992 
L 124.582088 180.55389 
L 126.212441 182.761287 
L 127.842794 186.084818 
L 129.473148 190.4611 
L 131.103501 195.727904 
L 132.733854 201.65223 
L 134.364207 207.971938 
L 135.99456 214.436227 
L 137.624913 220.833997 
L 139.255266 227.006674 
L 140.885619 232.848264 
L 142.515972 238.297819 
L 144.146326 243.329027 
L 145.776679 247.940008 
L 147.407032 252.14477 
L 149.037385 255.966731 
L 150.667738 259.434136 
L 152.298091 262.576991 
L 153.928444 265.425134 
L 155.558797 268.007089 
L 157.189151 270.349451 
L 158.819504 272.476618 
L 160.449857 274.410728 
L 162.08021 276.171729 
L 163.710563 277.777509 
L 165.340916 279.244069 
L 166.971269 280.585695 
L 168.601622 281.815137 
L 170.231975 282.943774 
L 171.862329 283.981765 
L 173.492682 284.938184 
L 175.123035 285.821144 
L 176.753388 286.637907 
L 178.383741 287.394972 
L 180.014094 288.098167 
L 181.644447 288.752713 
L 183.2748 289.363295 
L 184.905154 289.934115 
L 186.535507 290.46894 
L 188.16586 290.971148 
L 189.796213 291.443763 
L 191.426566 291.889493 
L 193.056919 292.310757 
L 194.687272 292.709711 
L 196.317625 293.088275 
L 197.947978 293.448153 
L 199.578332 293.790852 
" clip-path="url(#p17dfbb9829)" style="fill: none; stroke: #ff0000; stroke-width: 1.5; stroke-linecap: square"/>
   </g>
   <g id="patch_13">
    <path d="M 30.103125 299.518125 
L 30.103125 173.518125 
" style="fill: none; stroke: #000000; stroke-width: 0.8; stroke-linejoin: miter; stroke-linecap: square"/>
   </g>
   <g id="patch_14">
    <path d="M 207.64858 299.518125 
L 207.64858 173.518125 
" style="fill: none; stroke: #000000; stroke-width: 0.8; stroke-linejoin: miter; stroke-linecap: square"/>
   </g>
   <g id="patch_15">
    <path d="M 30.103125 299.518125 
L 207.64858 299.518125 
" style="fill: none; stroke: #000000; stroke-width: 0.8; stroke-linejoin: miter; stroke-linecap: square"/>
   </g>
   <g id="patch_16">
    <path d="M 30.103125 173.518125 
L 207.64858 173.518125 
" style="fill: none; stroke: #000000; stroke-width: 0.8; stroke-linejoin: miter; stroke-linecap: square"/>
   </g>
   <g id="text_22">
    <!-- RAO heave -->
    <g transform="translate(85.90304 167.518125) scale(0.12 -0.12)">
     <defs>
      <path id="DejaVuSans-76" d="M 191 3500 
L 800 3500 
L 1894 563 
L 2988 3500 
L 3597 3500 
L 2284 0 
L 1503 0 
L 191 3500 
z
" transform="scale(0.015625)"/>
     </defs>
     <use xlink:href="#DejaVuSans-52"/>
     <use xlink:href="#DejaVuSans-41" transform="translate(65.482422 0)"/>
     <use xlink:href="#DejaVuSans-4f" transform="translate(132.140625 0)"/>
     <use xlink:href="#DejaVuSans-20" transform="translate(210.851562 0)"/>
     <use xlink:href="#DejaVuSans-68" transform="translate(242.638672 0)"/>
     <use xlink:href="#DejaVuSans-65" transform="translate(306.017578 0)"/>
     <use xlink:href="#DejaVuSans-61" transform="translate(367.541016 0)"/>
     <use xlink:href="#DejaVuSans-76" transform="translate(428.820312 0)"/>
     <use xlink:href="#DejaVuSans-65" transform="translate(488 0)"/>
    </g>
   </g>
  </g>
  <g id="axes_4">
   <g id="patch_17">
    <path d="M 243.15767 299.518125 
L 420.703125 299.518125 
L 420.703125 173.518125 
L 243.15767 173.518125 
z
" style="fill: #ffffff"/>
   </g>
   <g id="matplotlib.axis_5">
    <g id="xtick_4">
     <g id="line2d_22">
      <g>
       <use xlink:href="#m029081ccbc" x="295.947149" y="299.518125" style="stroke: #000000; stroke-width: 0.8"/>
      </g>
     </g>
     <g id="text_23">
      <!-- 0.5 -->
      <g transform="translate(287.995587 314.116563) scale(0.1 -0.1)">
       <use xlink:href="#DejaVuSans-30"/>
       <use xlink:href="#DejaVuSans-2e" transform="translate(63.623047 0)"/>
       <use xlink:href="#DejaVuSans-35" transform="translate(95.410156 0)"/>
      </g>
     </g>
    </g>
    <g id="xtick_5">
     <g id="line2d_23">
      <g>
       <use xlink:href="#m029081ccbc" x="349.161378" y="299.518125" style="stroke: #000000; stroke-width: 0.8"/>
      </g>
     </g>
     <g id="text_24">
      <!-- 1.0 -->
      <g transform="translate(341.209815 314.116563) scale(0.1 -0.1)">
       <use xlink:href="#DejaVuSans-31"/>
       <use xlink:href="#DejaVuSans-2e" transform="translate(63.623047 0)"/>
       <use xlink:href="#DejaVuSans-30" transform="translate(95.410156 0)"/>
      </g>
     </g>
    </g>
    <g id="xtick_6">
     <g id="line2d_24">
      <g>
       <use xlink:href="#m029081ccbc" x="402.375607" y="299.518125" style="stroke: #000000; stroke-width: 0.8"/>
      </g>
     </g>
     <g id="text_25">
      <!-- 1.5 -->
      <g transform="translate(394.424044 314.116563) scale(0.1 -0.1)">
       <use xlink:href="#DejaVuSans-31"/>
       <use xlink:href="#DejaVuSans-2e" transform="translate(63.623047 0)"/>
       <use xlink:href="#DejaVuSans-35" transform="translate(95.410156 0)"/>
      </g>
     </g>
    </g>
    <g id="text_26">
     <!-- $\omega^{\ast}$ -->
     <g transform="translate(324.430398 327.794688) scale(0.1 -0.1)">
      <use xlink:href="#DejaVuSans-Oblique-3c9" transform="translate(0 0.826562)"/>
      <use xlink:href="#DejaVuSans-2217" transform="translate(88.20638 39.107812) scale(0.7)"/>
     </g>
    </g>
   </g>
   <g id="matplotlib.axis_6">
    <g id="ytick_16">
     <g id="line2d_25">
      <g>
       <use xlink:href="#m79a9dc2be1" x="243.15767" y="281.088631" style="stroke: #000000; stroke-width: 0.8"/>
      </g>
     </g>
     <g id="text_27">
      <!-- -3.0 -->
      <g transform="translate(216.646733 284.88785) scale(0.1 -0.1)">
       <defs>
        <path id="DejaVuSans-33" d="M 2597 2516 
Q 3050 2419 3304 2112 
Q 3559 1806 3559 1356 
Q 3559 666 3084 287 
Q 2609 -91 1734 -91 
Q 1441 -91 1130 -33 
Q 819 25 488 141 
L 488 750 
Q 750 597 1062 519 
Q 1375 441 1716 441 
Q 2309 441 2620 675 
Q 2931 909 2931 1356 
Q 2931 1769 2642 2001 
Q 2353 2234 1838 2234 
L 1294 2234 
L 1294 2753 
L 1863 2753 
Q 2328 2753 2575 2939 
Q 2822 3125 2822 3475 
Q 2822 3834 2567 4026 
Q 2313 4219 1838 4219 
Q 1578 4219 1281 4162 
Q 984 4106 628 3988 
L 628 4550 
Q 988 4650 1302 4700 
Q 1616 4750 1894 4750 
Q 2613 4750 3031 4423 
Q 3450 4097 3450 3541 
Q 3450 3153 3228 2886 
Q 3006 2619 2597 2516 
z
" transform="scale(0.015625)"/>
       </defs>
       <use xlink:href="#DejaVuSans-2d"/>
       <use xlink:href="#DejaVuSans-33" transform="translate(36.083984 0)"/>
       <use xlink:href="#DejaVuSans-2e" transform="translate(99.707031 0)"/>
       <use xlink:href="#DejaVuSans-30" transform="translate(131.494141 0)"/>
      </g>
     </g>
    </g>
    <g id="ytick_17">
     <g id="line2d_26">
      <g>
       <use xlink:href="#m79a9dc2be1" x="243.15767" y="258.661063" style="stroke: #000000; stroke-width: 0.8"/>
      </g>
     </g>
     <g id="text_28">
      <!-- -2.8 -->
      <g transform="translate(216.646733 262.460282) scale(0.1 -0.1)">
       <use xlink:href="#DejaVuSans-2d"/>
       <use xlink:href="#DejaVuSans-32" transform="translate(36.083984 0)"/>
       <use xlink:href="#DejaVuSans-2e" transform="translate(99.707031 0)"/>
       <use xlink:href="#DejaVuSans-38" transform="translate(131.494141 0)"/>
      </g>
     </g>
    </g>
    <g id="ytick_18">
     <g id="line2d_27">
      <g>
       <use xlink:href="#m79a9dc2be1" x="243.15767" y="236.233495" style="stroke: #000000; stroke-width: 0.8"/>
      </g>
     </g>
     <g id="text_29">
      <!-- -2.5 -->
      <g transform="translate(216.646733 240.032714) scale(0.1 -0.1)">
       <use xlink:href="#DejaVuSans-2d"/>
       <use xlink:href="#DejaVuSans-32" transform="translate(36.083984 0)"/>
       <use xlink:href="#DejaVuSans-2e" transform="translate(99.707031 0)"/>
       <use xlink:href="#DejaVuSans-35" transform="translate(131.494141 0)"/>
      </g>
     </g>
    </g>
    <g id="ytick_19">
     <g id="line2d_28">
      <g>
       <use xlink:href="#m79a9dc2be1" x="243.15767" y="213.805928" style="stroke: #000000; stroke-width: 0.8"/>
      </g>
     </g>
     <g id="text_30">
      <!-- -2.2 -->
      <g transform="translate(216.646733 217.605146) scale(0.1 -0.1)">
       <use xlink:href="#DejaVuSans-2d"/>
       <use xlink:href="#DejaVuSans-32" transform="translate(36.083984 0)"/>
       <use xlink:href="#DejaVuSans-2e" transform="translate(99.707031 0)"/>
       <use xlink:href="#DejaVuSans-32" transform="translate(131.494141 0)"/>
      </g>
     </g>
    </g>
    <g id="ytick_20">
     <g id="line2d_29">
      <g>
       <use xlink:href="#m79a9dc2be1" x="243.15767" y="191.37836" style="stroke: #000000; stroke-width: 0.8"/>
      </g>
     </g>
     <g id="text_31">
      <!-- -2.0 -->
      <g transform="translate(216.646733 195.177578) scale(0.1 -0.1)">
       <use xlink:href="#DejaVuSans-2d"/>
       <use xlink:href="#DejaVuSans-32" transform="translate(36.083984 0)"/>
       <use xlink:href="#DejaVuSans-2e" transform="translate(99.707031 0)"/>
       <use xlink:href="#DejaVuSans-30" transform="translate(131.494141 0)"/>
      </g>
     </g>
    </g>
   </g>
   <g id="line2d_30">
    <path d="M 251.227918 293.790852 
L 252.858272 293.790755 
L 254.488625 293.790596 
L 256.118978 293.790352 
L 257.749331 293.789994 
L 259.379684 293.789485 
L 261.010037 293.788782 
L 262.64039 293.787828 
L 264.270743 293.786552 
L 265.901096 293.784864 
L 267.53145 293.782649 
L 269.161803 293.779759 
L 270.792156 293.776009 
L 272.422509 293.771162 
L 274.052862 293.764921 
L 275.683215 293.756913 
L 277.313568 293.746672 
L 278.943921 293.733626 
L 280.574275 293.717068 
L 282.204628 293.696136 
L 283.834981 293.669784 
L 285.465334 293.636751 
L 287.095687 293.595522 
L 288.72604 293.544289 
L 290.356393 293.480904 
L 291.986746 293.402822 
L 293.617099 293.307046 
L 295.247453 293.190053 
L 296.877806 293.047712 
L 298.508159 292.875201 
L 300.138512 292.666892 
L 301.768865 292.416236 
L 303.399218 292.115618 
L 305.029571 291.756199 
L 306.659924 291.327727 
L 308.290278 290.81832 
L 309.920631 290.214224 
L 311.550984 289.499527 
L 313.181337 288.655852 
L 314.81169 287.662011 
L 316.442043 286.493648 
L 318.072396 285.122878 
L 319.702749 283.517983 
L 321.333102 281.643212 
L 322.963456 279.458815 
L 324.593809 276.921485 
L 326.224162 273.985447 
L 327.854515 270.60456 
L 329.484868 266.735822 
L 331.115221 262.344699 
L 332.745574 257.412461 
L 334.375927 251.94521 
L 336.006281 245.983307 
L 337.636634 239.608727 
L 339.266987 232.947002 
L 340.89734 226.160805 
L 342.527693 219.434579 
L 344.158046 212.953205 
L 345.788399 206.880529 
L 347.418752 201.343643 
L 349.049105 196.426069 
L 350.679459 192.169383 
L 352.309812 188.580395 
L 353.940165 185.640533 
L 355.570518 183.314903 
L 357.200871 181.559692 
L 358.831224 180.327555 
L 360.461577 179.571176 
L 362.09193 179.245398 
L 363.722284 179.308326 
L 365.352637 179.721777 
L 366.98299 180.451311 
L 368.613343 181.466027 
L 370.243696 182.738259 
L 371.874049 184.243214 
L 373.504402 185.958622 
L 375.134755 187.864405 
L 376.765108 189.942383 
L 378.395462 192.176025 
L 380.025815 194.550239 
L 381.656168 197.051197 
L 383.286521 199.666199 
L 384.916874 202.383572 
L 386.547227 205.192588 
L 388.17758 208.08341 
L 389.807933 211.047057 
L 391.438287 214.075381 
L 393.06864 217.161058 
L 394.698993 220.297587 
L 396.329346 223.479295 
L 397.959699 226.701346 
L 399.590052 229.959755 
L 401.220405 233.251401 
L 402.850758 236.574038 
L 404.481111 239.926319 
L 406.111465 243.307804 
L 407.741818 246.718983 
L 409.372171 250.161297 
L 411.002524 253.637158 
L 412.632877 257.149983 
" clip-path="url(#pda81b9628c)" style="fill: none; stroke: #008000; stroke-width: 1.5; stroke-linecap: square"/>
   </g>
   <g id="patch_18">
    <path d="M 243.15767 299.518125 
L 243.15767 173.518125 
" style="fill: none; stroke: #000000; stroke-width: 0.8; stroke-linejoin: miter; stroke-linecap: square"/>
   </g>
   <g id="patch_19">
    <path d="M 420.703125 299.518125 
L 420.703125 173.518125 
" style="fill: none; stroke: #000000; stroke-width: 0.8; stroke-linejoin: miter; stroke-linecap: square"/>
   </g>
   <g id="patch_20">
    <path d="M 243.15767 299.518125 
L 420.703125 299.518125 
" style="fill: none; stroke: #000000; stroke-width: 0.8; stroke-linejoin: miter; stroke-linecap: square"/>
   </g>
   <g id="patch_21">
    <path d="M 243.15767 173.518125 
L 420.703125 173.518125 
" style="fill: none; stroke: #000000; stroke-width: 0.8; stroke-linejoin: miter; stroke-linecap: square"/>
   </g>
   <g id="text_32">
    <!-- Phase angle heave (rad) -->
    <g transform="translate(258.599148 167.518125) scale(0.12 -0.12)">
     <use xlink:href="#DejaVuSans-50"/>
     <use xlink:href="#DejaVuSans-68" transform="translate(60.302734 0)"/>
     <use xlink:href="#DejaVuSans-61" transform="translate(123.681641 0)"/>
     <use xlink:href="#DejaVuSans-73" transform="translate(184.960938 0)"/>
     <use xlink:href="#DejaVuSans-65" transform="translate(237.060547 0)"/>
     <use xlink:href="#DejaVuSans-20" transform="translate(298.583984 0)"/>
     <use xlink:href="#DejaVuSans-61" transform="translate(330.371094 0)"/>
     <use xlink:href="#DejaVuSans-6e" transform="translate(391.650391 0)"/>
     <use xlink:href="#DejaVuSans-67" transform="translate(455.029297 0)"/>
     <use xlink:href="#DejaVuSans-6c" transform="translate(518.505859 0)"/>
     <use xlink:href="#DejaVuSans-65" transform="translate(546.289062 0)"/>
     <use xlink:href="#DejaVuSans-20" transform="translate(607.8125 0)"/>
     <use xlink:href="#DejaVuSans-68" transform="translate(639.599609 0)"/>
     <use xlink:href="#DejaVuSans-65" transform="translate(702.978516 0)"/>
     <use xlink:href="#DejaVuSans-61" transform="translate(764.501953 0)"/>
     <use xlink:href="#DejaVuSans-76" transform="translate(825.78125 0)"/>
     <use xlink:href="#DejaVuSans-65" transform="translate(884.960938 0)"/>
     <use xlink:href="#DejaVuSans-20" transform="translate(946.484375 0)"/>
     <use xlink:href="#DejaVuSans-28" transform="translate(978.271484 0)"/>
     <use xlink:href="#DejaVuSans-72" transform="translate(1017.285156 0)"/>
     <use xlink:href="#DejaVuSans-61" transform="translate(1058.398438 0)"/>
     <use xlink:href="#DejaVuSans-64" transform="translate(1119.677734 0)"/>
     <use xlink:href="#DejaVuSans-29" transform="translate(1183.154297 0)"/>
    </g>
   </g>
  </g>
 </g>
 <defs>
  <clipPath id="p394e9ee6ef">
   <rect x="30.103125" y="22.318125" width="177.545455" height="126"/>
  </clipPath>
  <clipPath id="p2ddb9cf09b">
   <rect x="243.15767" y="22.318125" width="177.545455" height="126"/>
  </clipPath>
  <clipPath id="p17dfbb9829">
   <rect x="30.103125" y="173.518125" width="177.545455" height="126"/>
  </clipPath>
  <clipPath id="pda81b9628c">
   <rect x="243.15767" y="173.518125" width="177.545455" height="126"/>
  </clipPath>
 </defs>
</svg>
