<?xml version="1.0" encoding="utf-8" standalone="no"?>
<!DOCTYPE svg PUBLIC "-//W3C//DTD SVG 1.1//EN"
  "http://www.w3.org/Graphics/SVG/1.1/DTD/svg11.dtd">
<svg xmlns:xlink="http://www.w3.org/1999/xlink" width="251.1pt" height="146.475pt" viewBox="0 0 251.1 146.475" xmlns="http://www.w3.org/2000/svg" version="1.1">
 <metadata>
  <rdf:RDF xmlns:dc="http://purl.org/dc/elements/1.1/" xmlns:cc="http://creativecommons.org/ns#" xmlns:rdf="http://www.w3.org/1999/02/22-rdf-syntax-ns#">
   <cc:Work>
    <dc:type rdf:resource="http://purl.org/dc/dcmitype/StillImage"/>
    <dc:date>2025-08-10T02:25:49.197948</dc:date>
    <dc:format>image/svg+xml</dc:format>
    <dc:creator>
     <cc:Agent>
      <dc:title>Matplotlib v3.10.0, https://matplotlib.org/</dc:title>
     </cc:Agent>
    </dc:creator>
   </cc:Work>
  </rdf:RDF>
 </metadata>
 <defs>
  <style type="text/css">*{stroke-linejoin: round; stroke-linecap: butt}</style>
 </defs>
 <g id="figure_1">
  <g id="patch_1">
   <path d="M 0 146.475 
L 251.1 146.475 
L 251.1 0 
L 0 0 
z
" style="fill: #ffffff"/>
  </g>
  <g id="axes_1">
   <g id="patch_2">
    <path d="M 0 146.475 
L 251.1 146.475 
L 251.1 0 
L 0 0 
z
" style="fill: #87ceeb"/>
   </g>
   <g id="patch_3">
    <path d="M 230.175 20.925 
L 225.054288 53.255903 
L 210.193403 82.422032 
L 187.047032 105.568403 
L 157.880903 120.429288 
L 125.55 125.55 
L 93.219097 120.429288 
L 64.052968 105.568403 
L 40.906597 82.422032 
L 26.045712 53.255903 
L 20.925 20.925 
z
" clip-path="url(#pcca60077ab)" style="fill: #ffffff; stroke: #ffffff; stroke-linejoin: miter"/>
   </g>
   <g id="patch_4">
    <path d="M 0 20.925 
L 251.1 20.925 
L 251.1 0 
L 0 0 
z
" clip-path="url(#pcca60077ab)" style="fill: #ffffff; stroke: #ffffff; stroke-linejoin: miter"/>
   </g>
   <g id="line2d_1">
    <path d="M 230.175 20.925 
L 225.054288 53.255903 
L 210.193403 82.422032 
L 187.047032 105.568403 
L 157.880903 120.429288 
L 125.55 125.55 
L 93.219097 120.429288 
L 64.052968 105.568403 
L 40.906597 82.422032 
L 26.045712 53.255903 
L 20.925 20.925 
" clip-path="url(#pcca60077ab)" style="fill: none; stroke: #ff0000; stroke-width: 2; stroke-linecap: square"/>
    <defs>
     <path id="m7ccea13441" d="M 0 1.5 
C 0.397805 1.5 0.77937 1.341951 1.06066 1.06066 
C 1.341951 0.77937 1.5 0.397805 1.5 0 
C 1.5 -0.397805 1.341951 -0.77937 1.06066 -1.06066 
C 0.77937 -1.341951 0.397805 -1.5 0 -1.5 
C -0.397805 -1.5 -0.77937 -1.341951 -1.06066 -1.06066 
C -1.341951 -0.77937 -1.5 -0.397805 -1.5 0 
C -1.5 0.397805 -1.341951 0.77937 -1.06066 1.06066 
C -0.77937 1.341951 -0.397805 1.5 0 1.5 
z
" style="stroke: #000000"/>
    </defs>
    <g clip-path="url(#pcca60077ab)">
     <use xlink:href="#m7ccea13441" x="230.175" y="20.925" style="fill: #0000ff; stroke: #000000"/>
     <use xlink:href="#m7ccea13441" x="225.054288" y="53.255903" style="fill: #0000ff; stroke: #000000"/>
     <use xlink:href="#m7ccea13441" x="210.193403" y="82.422032" style="fill: #0000ff; stroke: #000000"/>
     <use xlink:href="#m7ccea13441" x="187.047032" y="105.568403" style="fill: #0000ff; stroke: #000000"/>
     <use xlink:href="#m7ccea13441" x="157.880903" y="120.429288" style="fill: #0000ff; stroke: #000000"/>
     <use xlink:href="#m7ccea13441" x="125.55" y="125.55" style="fill: #0000ff; stroke: #000000"/>
     <use xlink:href="#m7ccea13441" x="93.219097" y="120.429288" style="fill: #0000ff; stroke: #000000"/>
     <use xlink:href="#m7ccea13441" x="64.052968" y="105.568403" style="fill: #0000ff; stroke: #000000"/>
     <use xlink:href="#m7ccea13441" x="40.906597" y="82.422032" style="fill: #0000ff; stroke: #000000"/>
     <use xlink:href="#m7ccea13441" x="26.045712" y="53.255903" style="fill: #0000ff; stroke: #000000"/>
     <use xlink:href="#m7ccea13441" x="20.925" y="20.925" style="fill: #0000ff; stroke: #000000"/>
    </g>
   </g>
  </g>
 </g>
 <defs>
  <clipPath id="pcca60077ab">
   <rect x="0" y="0" width="251.1" height="146.475"/>
  </clipPath>
 </defs>
</svg>
