<?xml version="1.0" encoding="utf-8"?>
<svg xmlns="http://www.w3.org/2000/svg" xmlns:xlink="http://www.w3.org/1999/xlink" width="500" height="300" viewBox="0 0 2000 1200">
<defs>
  <clipPath id="clip310">
    <rect x="0" y="0" width="2000" height="1200"/>
  </clipPath>
</defs>
<path clip-path="url(#clip310)" d="M0 1200 L2000 1200 L2000 0 L0 0  Z" fill="#ffffff" fill-rule="evenodd" fill-opacity="1"/>
<defs>
  <clipPath id="clip311">
    <rect x="400" y="0" width="1401" height="1200"/>
  </clipPath>
</defs>
<path clip-path="url(#clip310)" d="M240.443 1035.39 L1952.76 1035.39 L1952.76 117.424 L240.443 117.424  Z" fill="#ffffff" fill-rule="evenodd" fill-opacity="1"/>
<defs>
  <clipPath id="clip312">
    <rect x="240" y="117" width="1713" height="919"/>
  </clipPath>
</defs>
<polyline clip-path="url(#clip312)" style="stroke:#000000; stroke-linecap:round; stroke-linejoin:round; stroke-width:2; stroke-opacity:0.1; fill:none" points="609.528,1035.39 609.528,117.424 "/>
<polyline clip-path="url(#clip312)" style="stroke:#000000; stroke-linecap:round; stroke-linejoin:round; stroke-width:2; stroke-opacity:0.1; fill:none" points="1041.12,1035.39 1041.12,117.424 "/>
<polyline clip-path="url(#clip312)" style="stroke:#000000; stroke-linecap:round; stroke-linejoin:round; stroke-width:2; stroke-opacity:0.1; fill:none" points="1472.71,1035.39 1472.71,117.424 "/>
<polyline clip-path="url(#clip312)" style="stroke:#000000; stroke-linecap:round; stroke-linejoin:round; stroke-width:2; stroke-opacity:0.1; fill:none" points="1904.29,1035.39 1904.29,117.424 "/>
<polyline clip-path="url(#clip312)" style="stroke:#000000; stroke-linecap:round; stroke-linejoin:round; stroke-width:2; stroke-opacity:0.1; fill:none" points="240.443,932.559 1952.76,932.559 "/>
<polyline clip-path="url(#clip312)" style="stroke:#000000; stroke-linecap:round; stroke-linejoin:round; stroke-width:2; stroke-opacity:0.1; fill:none" points="240.443,808.042 1952.76,808.042 "/>
<polyline clip-path="url(#clip312)" style="stroke:#000000; stroke-linecap:round; stroke-linejoin:round; stroke-width:2; stroke-opacity:0.1; fill:none" points="240.443,683.524 1952.76,683.524 "/>
<polyline clip-path="url(#clip312)" style="stroke:#000000; stroke-linecap:round; stroke-linejoin:round; stroke-width:2; stroke-opacity:0.1; fill:none" points="240.443,559.007 1952.76,559.007 "/>
<polyline clip-path="url(#clip312)" style="stroke:#000000; stroke-linecap:round; stroke-linejoin:round; stroke-width:2; stroke-opacity:0.1; fill:none" points="240.443,434.49 1952.76,434.49 "/>
<polyline clip-path="url(#clip312)" style="stroke:#000000; stroke-linecap:round; stroke-linejoin:round; stroke-width:2; stroke-opacity:0.1; fill:none" points="240.443,309.972 1952.76,309.972 "/>
<polyline clip-path="url(#clip312)" style="stroke:#000000; stroke-linecap:round; stroke-linejoin:round; stroke-width:2; stroke-opacity:0.1; fill:none" points="240.443,185.455 1952.76,185.455 "/>
<polyline clip-path="url(#clip310)" style="stroke:#000000; stroke-linecap:round; stroke-linejoin:round; stroke-width:4; stroke-opacity:1; fill:none" points="240.443,1035.39 1952.76,1035.39 "/>
<polyline clip-path="url(#clip310)" style="stroke:#000000; stroke-linecap:round; stroke-linejoin:round; stroke-width:4; stroke-opacity:1; fill:none" points="609.528,1035.39 609.528,1016.49 "/>
<polyline clip-path="url(#clip310)" style="stroke:#000000; stroke-linecap:round; stroke-linejoin:round; stroke-width:4; stroke-opacity:1; fill:none" points="1041.12,1035.39 1041.12,1016.49 "/>
<polyline clip-path="url(#clip310)" style="stroke:#000000; stroke-linecap:round; stroke-linejoin:round; stroke-width:4; stroke-opacity:1; fill:none" points="1472.71,1035.39 1472.71,1016.49 "/>
<polyline clip-path="url(#clip310)" style="stroke:#000000; stroke-linecap:round; stroke-linejoin:round; stroke-width:4; stroke-opacity:1; fill:none" points="1904.29,1035.39 1904.29,1016.49 "/>
<path clip-path="url(#clip310)" d="M587.411 1063.11 Q583.799 1063.11 581.971 1066.67 Q580.165 1070.21 580.165 1077.34 Q580.165 1084.45 581.971 1088.01 Q583.799 1091.56 587.411 1091.56 Q591.045 1091.56 592.85 1088.01 Q594.679 1084.45 594.679 1077.34 Q594.679 1070.21 592.85 1066.67 Q591.045 1063.11 587.411 1063.11 M587.411 1059.4 Q593.221 1059.4 596.276 1064.01 Q599.355 1068.59 599.355 1077.34 Q599.355 1086.07 596.276 1090.68 Q593.221 1095.26 587.411 1095.26 Q581.6 1095.26 578.522 1090.68 Q575.466 1086.07 575.466 1077.34 Q575.466 1068.59 578.522 1064.01 Q581.6 1059.4 587.411 1059.4 Z" fill="#000000" fill-rule="nonzero" fill-opacity="1" /><path clip-path="url(#clip310)" d="M607.572 1088.71 L612.457 1088.71 L612.457 1094.59 L607.572 1094.59 L607.572 1088.71 Z" fill="#000000" fill-rule="nonzero" fill-opacity="1" /><path clip-path="url(#clip310)" d="M622.688 1060.03 L641.045 1060.03 L641.045 1063.96 L626.971 1063.96 L626.971 1072.44 Q627.989 1072.09 629.008 1071.93 Q630.026 1071.74 631.045 1071.74 Q636.832 1071.74 640.211 1074.91 Q643.591 1078.08 643.591 1083.5 Q643.591 1089.08 640.119 1092.18 Q636.646 1095.26 630.327 1095.26 Q628.151 1095.26 625.883 1094.89 Q623.637 1094.52 621.23 1093.78 L621.23 1089.08 Q623.313 1090.21 625.535 1090.77 Q627.758 1091.32 630.234 1091.32 Q634.239 1091.32 636.577 1089.22 Q638.915 1087.11 638.915 1083.5 Q638.915 1079.89 636.577 1077.78 Q634.239 1075.68 630.234 1075.68 Q628.359 1075.68 626.484 1076.09 Q624.633 1076.51 622.688 1077.39 L622.688 1060.03 Z" fill="#000000" fill-rule="nonzero" fill-opacity="1" /><path clip-path="url(#clip310)" d="M1008.27 1090.65 L1015.91 1090.65 L1015.91 1064.29 L1007.6 1065.95 L1007.6 1061.69 L1015.86 1060.03 L1020.54 1060.03 L1020.54 1090.65 L1028.18 1090.65 L1028.18 1094.59 L1008.27 1094.59 L1008.27 1090.65 Z" fill="#000000" fill-rule="nonzero" fill-opacity="1" /><path clip-path="url(#clip310)" d="M1037.62 1088.71 L1042.51 1088.71 L1042.51 1094.59 L1037.62 1094.59 L1037.62 1088.71 Z" fill="#000000" fill-rule="nonzero" fill-opacity="1" /><path clip-path="url(#clip310)" d="M1062.69 1063.11 Q1059.08 1063.11 1057.25 1066.67 Q1055.45 1070.21 1055.45 1077.34 Q1055.45 1084.45 1057.25 1088.01 Q1059.08 1091.56 1062.69 1091.56 Q1066.33 1091.56 1068.13 1088.01 Q1069.96 1084.45 1069.96 1077.34 Q1069.96 1070.21 1068.13 1066.67 Q1066.33 1063.11 1062.69 1063.11 M1062.69 1059.4 Q1068.5 1059.4 1071.56 1064.01 Q1074.64 1068.59 1074.64 1077.34 Q1074.64 1086.07 1071.56 1090.68 Q1068.5 1095.26 1062.69 1095.26 Q1056.88 1095.26 1053.8 1090.68 Q1050.75 1086.07 1050.75 1077.34 Q1050.75 1068.59 1053.8 1064.01 Q1056.88 1059.4 1062.69 1059.4 Z" fill="#000000" fill-rule="nonzero" fill-opacity="1" /><path clip-path="url(#clip310)" d="M1440.36 1090.65 L1448 1090.65 L1448 1064.29 L1439.68 1065.95 L1439.68 1061.69 L1447.95 1060.03 L1452.62 1060.03 L1452.62 1090.65 L1460.26 1090.65 L1460.26 1094.59 L1440.36 1094.59 L1440.36 1090.65 Z" fill="#000000" fill-rule="nonzero" fill-opacity="1" /><path clip-path="url(#clip310)" d="M1469.71 1088.71 L1474.59 1088.71 L1474.59 1094.59 L1469.71 1094.59 L1469.71 1088.71 Z" fill="#000000" fill-rule="nonzero" fill-opacity="1" /><path clip-path="url(#clip310)" d="M1484.82 1060.03 L1503.18 1060.03 L1503.18 1063.96 L1489.11 1063.96 L1489.11 1072.44 Q1490.12 1072.09 1491.14 1071.93 Q1492.16 1071.74 1493.18 1071.74 Q1498.97 1071.74 1502.35 1074.91 Q1505.73 1078.08 1505.73 1083.5 Q1505.73 1089.08 1502.25 1092.18 Q1498.78 1095.26 1492.46 1095.26 Q1490.29 1095.26 1488.02 1094.89 Q1485.77 1094.52 1483.37 1093.78 L1483.37 1089.08 Q1485.45 1090.21 1487.67 1090.77 Q1489.89 1091.32 1492.37 1091.32 Q1496.37 1091.32 1498.71 1089.22 Q1501.05 1087.11 1501.05 1083.5 Q1501.05 1079.89 1498.71 1077.78 Q1496.37 1075.68 1492.37 1075.68 Q1490.49 1075.68 1488.62 1076.09 Q1486.77 1076.51 1484.82 1077.39 L1484.82 1060.03 Z" fill="#000000" fill-rule="nonzero" fill-opacity="1" /><path clip-path="url(#clip310)" d="M1875.53 1090.65 L1891.85 1090.65 L1891.85 1094.59 L1869.91 1094.59 L1869.91 1090.65 Q1872.57 1087.9 1877.15 1083.27 Q1881.76 1078.62 1882.94 1077.27 Q1885.19 1074.75 1886.07 1073.01 Q1886.97 1071.25 1886.97 1069.56 Q1886.97 1066.81 1885.02 1065.07 Q1883.1 1063.34 1880 1063.34 Q1877.8 1063.34 1875.35 1064.1 Q1872.92 1064.87 1870.14 1066.42 L1870.14 1061.69 Q1872.96 1060.56 1875.42 1059.98 Q1877.87 1059.4 1879.91 1059.4 Q1885.28 1059.4 1888.47 1062.09 Q1891.67 1064.77 1891.67 1069.26 Q1891.67 1071.39 1890.86 1073.31 Q1890.07 1075.21 1887.96 1077.81 Q1887.38 1078.48 1884.28 1081.69 Q1881.18 1084.89 1875.53 1090.65 Z" fill="#000000" fill-rule="nonzero" fill-opacity="1" /><path clip-path="url(#clip310)" d="M1901.67 1088.71 L1906.55 1088.71 L1906.55 1094.59 L1901.67 1094.59 L1901.67 1088.71 Z" fill="#000000" fill-rule="nonzero" fill-opacity="1" /><path clip-path="url(#clip310)" d="M1926.74 1063.11 Q1923.13 1063.11 1921.3 1066.67 Q1919.49 1070.21 1919.49 1077.34 Q1919.49 1084.45 1921.3 1088.01 Q1923.13 1091.56 1926.74 1091.56 Q1930.37 1091.56 1932.18 1088.01 Q1934 1084.45 1934 1077.34 Q1934 1070.21 1932.18 1066.67 Q1930.37 1063.11 1926.74 1063.11 M1926.74 1059.4 Q1932.55 1059.4 1935.6 1064.01 Q1938.68 1068.59 1938.68 1077.34 Q1938.68 1086.07 1935.6 1090.68 Q1932.55 1095.26 1926.74 1095.26 Q1920.93 1095.26 1917.85 1090.68 Q1914.79 1086.07 1914.79 1077.34 Q1914.79 1068.59 1917.85 1064.01 Q1920.93 1059.4 1926.74 1059.4 Z" fill="#000000" fill-rule="nonzero" fill-opacity="1" /><path clip-path="url(#clip310)" d="M1115.27 1135.27 Q1115.27 1138.26 1113.75 1144.06 Q1113.14 1146.57 1112.3 1148.86 Q1111.5 1151.11 1110.31 1153.3 Q1109.11 1155.49 1107.73 1157.07 Q1106.34 1158.62 1104.54 1159.58 Q1102.74 1160.55 1100.74 1160.55 Q1097.58 1160.55 1095.72 1158.68 Q1093.88 1156.78 1093.3 1153.53 Q1088.99 1160.55 1083.22 1160.55 Q1079.65 1160.55 1077.97 1158.01 Q1076.3 1155.43 1076.3 1151.11 Q1076.3 1147.47 1077.26 1143.71 Q1079.1 1136.56 1082.67 1131.56 Q1083.16 1130.98 1083.87 1130.98 Q1084.28 1130.98 1084.48 1131.11 Q1085.06 1131.47 1085.06 1132.05 Q1085.06 1132.47 1084.73 1132.88 Q1082.48 1136.01 1081 1138.68 Q1079.52 1141.35 1078.84 1144.06 Q1078.33 1146.38 1078.33 1148.34 Q1078.33 1151.66 1079.74 1153.72 Q1081.19 1155.78 1084.06 1155.78 Q1086.7 1155.78 1089.02 1154.14 Q1091.34 1152.47 1093.04 1149.66 Q1093.14 1146.6 1093.88 1143.71 Q1094.56 1140.61 1096.14 1140.61 Q1097.39 1140.61 1097.39 1142.32 Q1097.39 1142.9 1097.13 1144.06 Q1096.43 1147.12 1095.14 1149.86 Q1095.59 1152.53 1097.26 1154.17 Q1098.94 1155.78 1101.61 1155.78 Q1104.09 1155.78 1106.28 1153.98 Q1108.5 1152.18 1109.92 1149.54 Q1111.37 1146.86 1112.17 1143.71 Q1112.43 1142.64 1112.43 1141.29 Q1112.43 1137.68 1109.92 1135.46 Q1109.21 1134.75 1109.21 1133.82 Q1109.21 1132.72 1110.11 1131.73 Q1111.18 1130.66 1112.43 1130.66 Q1113.37 1130.66 1113.95 1131.24 Q1115.27 1132.4 1115.27 1135.27 Z" fill="#000000" fill-rule="nonzero" fill-opacity="1" /><polyline clip-path="url(#clip310)" style="stroke:#000000; stroke-linecap:round; stroke-linejoin:round; stroke-width:4; stroke-opacity:1; fill:none" points="240.443,1035.39 240.443,117.424 "/>
<polyline clip-path="url(#clip310)" style="stroke:#000000; stroke-linecap:round; stroke-linejoin:round; stroke-width:4; stroke-opacity:1; fill:none" points="240.443,932.559 259.34,932.559 "/>
<polyline clip-path="url(#clip310)" style="stroke:#000000; stroke-linecap:round; stroke-linejoin:round; stroke-width:4; stroke-opacity:1; fill:none" points="240.443,808.042 259.34,808.042 "/>
<polyline clip-path="url(#clip310)" style="stroke:#000000; stroke-linecap:round; stroke-linejoin:round; stroke-width:4; stroke-opacity:1; fill:none" points="240.443,683.524 259.34,683.524 "/>
<polyline clip-path="url(#clip310)" style="stroke:#000000; stroke-linecap:round; stroke-linejoin:round; stroke-width:4; stroke-opacity:1; fill:none" points="240.443,559.007 259.34,559.007 "/>
<polyline clip-path="url(#clip310)" style="stroke:#000000; stroke-linecap:round; stroke-linejoin:round; stroke-width:4; stroke-opacity:1; fill:none" points="240.443,434.49 259.34,434.49 "/>
<polyline clip-path="url(#clip310)" style="stroke:#000000; stroke-linecap:round; stroke-linejoin:round; stroke-width:4; stroke-opacity:1; fill:none" points="240.443,309.972 259.34,309.972 "/>
<polyline clip-path="url(#clip310)" style="stroke:#000000; stroke-linecap:round; stroke-linejoin:round; stroke-width:4; stroke-opacity:1; fill:none" points="240.443,185.455 259.34,185.455 "/>
<path clip-path="url(#clip310)" d="M124.101 918.358 Q120.49 918.358 118.661 921.923 Q116.855 925.464 116.855 932.594 Q116.855 939.7 118.661 943.265 Q120.49 946.807 124.101 946.807 Q127.735 946.807 129.54 943.265 Q131.369 939.7 131.369 932.594 Q131.369 925.464 129.54 921.923 Q127.735 918.358 124.101 918.358 M124.101 914.654 Q129.911 914.654 132.966 919.261 Q136.045 923.844 136.045 932.594 Q136.045 941.321 132.966 945.927 Q129.911 950.511 124.101 950.511 Q118.291 950.511 115.212 945.927 Q112.156 941.321 112.156 932.594 Q112.156 923.844 115.212 919.261 Q118.291 914.654 124.101 914.654 Z" fill="#000000" fill-rule="nonzero" fill-opacity="1" /><path clip-path="url(#clip310)" d="M144.263 943.96 L149.147 943.96 L149.147 949.839 L144.263 949.839 L144.263 943.96 Z" fill="#000000" fill-rule="nonzero" fill-opacity="1" /><path clip-path="url(#clip310)" d="M158.151 915.279 L180.374 915.279 L180.374 917.27 L167.827 949.839 L162.943 949.839 L174.749 919.214 L158.151 919.214 L158.151 915.279 Z" fill="#000000" fill-rule="nonzero" fill-opacity="1" /><path clip-path="url(#clip310)" d="M189.54 915.279 L207.897 915.279 L207.897 919.214 L193.823 919.214 L193.823 927.687 Q194.841 927.339 195.86 927.177 Q196.878 926.992 197.897 926.992 Q203.684 926.992 207.063 930.163 Q210.443 933.335 210.443 938.751 Q210.443 944.33 206.971 947.432 Q203.498 950.511 197.179 950.511 Q195.003 950.511 192.735 950.14 Q190.489 949.77 188.082 949.029 L188.082 944.33 Q190.165 945.464 192.387 946.02 Q194.61 946.575 197.086 946.575 Q201.091 946.575 203.429 944.469 Q205.767 942.362 205.767 938.751 Q205.767 935.14 203.429 933.034 Q201.091 930.927 197.086 930.927 Q195.211 930.927 193.336 931.344 Q191.485 931.761 189.54 932.64 L189.54 915.279 Z" fill="#000000" fill-rule="nonzero" fill-opacity="1" /><path clip-path="url(#clip310)" d="M113.916 821.387 L121.554 821.387 L121.554 795.021 L113.244 796.688 L113.244 792.428 L121.508 790.762 L126.184 790.762 L126.184 821.387 L133.823 821.387 L133.823 825.322 L113.916 825.322 L113.916 821.387 Z" fill="#000000" fill-rule="nonzero" fill-opacity="1" /><path clip-path="url(#clip310)" d="M143.267 819.442 L148.151 819.442 L148.151 825.322 L143.267 825.322 L143.267 819.442 Z" fill="#000000" fill-rule="nonzero" fill-opacity="1" /><path clip-path="url(#clip310)" d="M168.337 793.841 Q164.725 793.841 162.897 797.405 Q161.091 800.947 161.091 808.077 Q161.091 815.183 162.897 818.748 Q164.725 822.289 168.337 822.289 Q171.971 822.289 173.776 818.748 Q175.605 815.183 175.605 808.077 Q175.605 800.947 173.776 797.405 Q171.971 793.841 168.337 793.841 M168.337 790.137 Q174.147 790.137 177.202 794.743 Q180.281 799.327 180.281 808.077 Q180.281 816.803 177.202 821.41 Q174.147 825.993 168.337 825.993 Q162.526 825.993 159.448 821.41 Q156.392 816.803 156.392 808.077 Q156.392 799.327 159.448 794.743 Q162.526 790.137 168.337 790.137 Z" fill="#000000" fill-rule="nonzero" fill-opacity="1" /><path clip-path="url(#clip310)" d="M198.498 793.841 Q194.887 793.841 193.059 797.405 Q191.253 800.947 191.253 808.077 Q191.253 815.183 193.059 818.748 Q194.887 822.289 198.498 822.289 Q202.133 822.289 203.938 818.748 Q205.767 815.183 205.767 808.077 Q205.767 800.947 203.938 797.405 Q202.133 793.841 198.498 793.841 M198.498 790.137 Q204.309 790.137 207.364 794.743 Q210.443 799.327 210.443 808.077 Q210.443 816.803 207.364 821.41 Q204.309 825.993 198.498 825.993 Q192.688 825.993 189.61 821.41 Q186.554 816.803 186.554 808.077 Q186.554 799.327 189.61 794.743 Q192.688 790.137 198.498 790.137 Z" fill="#000000" fill-rule="nonzero" fill-opacity="1" /><path clip-path="url(#clip310)" d="M114.911 696.869 L122.55 696.869 L122.55 670.504 L114.24 672.17 L114.24 667.911 L122.503 666.244 L127.179 666.244 L127.179 696.869 L134.818 696.869 L134.818 700.804 L114.911 700.804 L114.911 696.869 Z" fill="#000000" fill-rule="nonzero" fill-opacity="1" /><path clip-path="url(#clip310)" d="M144.263 694.925 L149.147 694.925 L149.147 700.804 L144.263 700.804 L144.263 694.925 Z" fill="#000000" fill-rule="nonzero" fill-opacity="1" /><path clip-path="url(#clip310)" d="M163.36 696.869 L179.679 696.869 L179.679 700.804 L157.735 700.804 L157.735 696.869 Q160.397 694.115 164.98 689.485 Q169.587 684.832 170.767 683.49 Q173.012 680.967 173.892 679.23 Q174.795 677.471 174.795 675.781 Q174.795 673.027 172.85 671.291 Q170.929 669.555 167.827 669.555 Q165.628 669.555 163.175 670.319 Q160.744 671.082 157.966 672.633 L157.966 667.911 Q160.79 666.777 163.244 666.198 Q165.698 665.619 167.735 665.619 Q173.105 665.619 176.299 668.305 Q179.494 670.99 179.494 675.481 Q179.494 677.61 178.684 679.531 Q177.897 681.43 175.79 684.022 Q175.212 684.693 172.11 687.911 Q169.008 691.105 163.36 696.869 Z" fill="#000000" fill-rule="nonzero" fill-opacity="1" /><path clip-path="url(#clip310)" d="M189.54 666.244 L207.897 666.244 L207.897 670.18 L193.823 670.18 L193.823 678.652 Q194.841 678.305 195.86 678.143 Q196.878 677.957 197.897 677.957 Q203.684 677.957 207.063 681.129 Q210.443 684.3 210.443 689.717 Q210.443 695.295 206.971 698.397 Q203.498 701.476 197.179 701.476 Q195.003 701.476 192.735 701.105 Q190.489 700.735 188.082 699.994 L188.082 695.295 Q190.165 696.429 192.387 696.985 Q194.61 697.541 197.086 697.541 Q201.091 697.541 203.429 695.434 Q205.767 693.328 205.767 689.717 Q205.767 686.105 203.429 683.999 Q201.091 681.893 197.086 681.893 Q195.211 681.893 193.336 682.309 Q191.485 682.726 189.54 683.605 L189.54 666.244 Z" fill="#000000" fill-rule="nonzero" fill-opacity="1" /><path clip-path="url(#clip310)" d="M113.916 572.352 L121.554 572.352 L121.554 545.986 L113.244 547.653 L113.244 543.394 L121.508 541.727 L126.184 541.727 L126.184 572.352 L133.823 572.352 L133.823 576.287 L113.916 576.287 L113.916 572.352 Z" fill="#000000" fill-rule="nonzero" fill-opacity="1" /><path clip-path="url(#clip310)" d="M143.267 570.407 L148.151 570.407 L148.151 576.287 L143.267 576.287 L143.267 570.407 Z" fill="#000000" fill-rule="nonzero" fill-opacity="1" /><path clip-path="url(#clip310)" d="M158.383 541.727 L176.739 541.727 L176.739 545.662 L162.665 545.662 L162.665 554.134 Q163.684 553.787 164.702 553.625 Q165.721 553.44 166.739 553.44 Q172.526 553.44 175.906 556.611 Q179.286 559.783 179.286 565.199 Q179.286 570.778 175.813 573.88 Q172.341 576.958 166.022 576.958 Q163.846 576.958 161.577 576.588 Q159.332 576.218 156.925 575.477 L156.925 570.778 Q159.008 571.912 161.23 572.468 Q163.452 573.023 165.929 573.023 Q169.934 573.023 172.272 570.917 Q174.61 568.81 174.61 565.199 Q174.61 561.588 172.272 559.482 Q169.934 557.375 165.929 557.375 Q164.054 557.375 162.179 557.792 Q160.327 558.208 158.383 559.088 L158.383 541.727 Z" fill="#000000" fill-rule="nonzero" fill-opacity="1" /><path clip-path="url(#clip310)" d="M198.498 544.806 Q194.887 544.806 193.059 548.371 Q191.253 551.912 191.253 559.042 Q191.253 566.148 193.059 569.713 Q194.887 573.255 198.498 573.255 Q202.133 573.255 203.938 569.713 Q205.767 566.148 205.767 559.042 Q205.767 551.912 203.938 548.371 Q202.133 544.806 198.498 544.806 M198.498 541.102 Q204.309 541.102 207.364 545.709 Q210.443 550.292 210.443 559.042 Q210.443 567.769 207.364 572.375 Q204.309 576.958 198.498 576.958 Q192.688 576.958 189.61 572.375 Q186.554 567.769 186.554 559.042 Q186.554 550.292 189.61 545.709 Q192.688 541.102 198.498 541.102 Z" fill="#000000" fill-rule="nonzero" fill-opacity="1" /><path clip-path="url(#clip310)" d="M114.911 447.835 L122.55 447.835 L122.55 421.469 L114.24 423.136 L114.24 418.876 L122.503 417.21 L127.179 417.21 L127.179 447.835 L134.818 447.835 L134.818 451.77 L114.911 451.77 L114.911 447.835 Z" fill="#000000" fill-rule="nonzero" fill-opacity="1" /><path clip-path="url(#clip310)" d="M144.263 445.89 L149.147 445.89 L149.147 451.77 L144.263 451.77 L144.263 445.89 Z" fill="#000000" fill-rule="nonzero" fill-opacity="1" /><path clip-path="url(#clip310)" d="M158.151 417.21 L180.374 417.21 L180.374 419.2 L167.827 451.77 L162.943 451.77 L174.749 421.145 L158.151 421.145 L158.151 417.21 Z" fill="#000000" fill-rule="nonzero" fill-opacity="1" /><path clip-path="url(#clip310)" d="M189.54 417.21 L207.897 417.21 L207.897 421.145 L193.823 421.145 L193.823 429.617 Q194.841 429.27 195.86 429.108 Q196.878 428.923 197.897 428.923 Q203.684 428.923 207.063 432.094 Q210.443 435.265 210.443 440.682 Q210.443 446.26 206.971 449.362 Q203.498 452.441 197.179 452.441 Q195.003 452.441 192.735 452.071 Q190.489 451.7 188.082 450.96 L188.082 446.26 Q190.165 447.395 192.387 447.95 Q194.61 448.506 197.086 448.506 Q201.091 448.506 203.429 446.399 Q205.767 444.293 205.767 440.682 Q205.767 437.071 203.429 434.964 Q201.091 432.858 197.086 432.858 Q195.211 432.858 193.336 433.274 Q191.485 433.691 189.54 434.571 L189.54 417.21 Z" fill="#000000" fill-rule="nonzero" fill-opacity="1" /><path clip-path="url(#clip310)" d="M117.133 323.317 L133.452 323.317 L133.452 327.252 L111.508 327.252 L111.508 323.317 Q114.17 320.563 118.753 315.933 Q123.36 311.28 124.54 309.938 Q126.786 307.414 127.665 305.678 Q128.568 303.919 128.568 302.229 Q128.568 299.475 126.624 297.739 Q124.703 296.002 121.601 296.002 Q119.402 296.002 116.948 296.766 Q114.517 297.53 111.74 299.081 L111.74 294.359 Q114.564 293.225 117.017 292.646 Q119.471 292.067 121.508 292.067 Q126.878 292.067 130.073 294.752 Q133.267 297.438 133.267 301.928 Q133.267 304.058 132.457 305.979 Q131.67 307.877 129.564 310.47 Q128.985 311.141 125.883 314.359 Q122.781 317.553 117.133 323.317 Z" fill="#000000" fill-rule="nonzero" fill-opacity="1" /><path clip-path="url(#clip310)" d="M143.267 321.373 L148.151 321.373 L148.151 327.252 L143.267 327.252 L143.267 321.373 Z" fill="#000000" fill-rule="nonzero" fill-opacity="1" /><path clip-path="url(#clip310)" d="M168.337 295.771 Q164.725 295.771 162.897 299.336 Q161.091 302.877 161.091 310.007 Q161.091 317.113 162.897 320.678 Q164.725 324.22 168.337 324.22 Q171.971 324.22 173.776 320.678 Q175.605 317.113 175.605 310.007 Q175.605 302.877 173.776 299.336 Q171.971 295.771 168.337 295.771 M168.337 292.067 Q174.147 292.067 177.202 296.674 Q180.281 301.257 180.281 310.007 Q180.281 318.734 177.202 323.34 Q174.147 327.924 168.337 327.924 Q162.526 327.924 159.448 323.34 Q156.392 318.734 156.392 310.007 Q156.392 301.257 159.448 296.674 Q162.526 292.067 168.337 292.067 Z" fill="#000000" fill-rule="nonzero" fill-opacity="1" /><path clip-path="url(#clip310)" d="M198.498 295.771 Q194.887 295.771 193.059 299.336 Q191.253 302.877 191.253 310.007 Q191.253 317.113 193.059 320.678 Q194.887 324.22 198.498 324.22 Q202.133 324.22 203.938 320.678 Q205.767 317.113 205.767 310.007 Q205.767 302.877 203.938 299.336 Q202.133 295.771 198.498 295.771 M198.498 292.067 Q204.309 292.067 207.364 296.674 Q210.443 301.257 210.443 310.007 Q210.443 318.734 207.364 323.34 Q204.309 327.924 198.498 327.924 Q192.688 327.924 189.61 323.34 Q186.554 318.734 186.554 310.007 Q186.554 301.257 189.61 296.674 Q192.688 292.067 198.498 292.067 Z" fill="#000000" fill-rule="nonzero" fill-opacity="1" /><path clip-path="url(#clip310)" d="M118.128 198.8 L134.448 198.8 L134.448 202.735 L112.504 202.735 L112.504 198.8 Q115.166 196.045 119.749 191.416 Q124.355 186.763 125.536 185.42 Q127.781 182.897 128.661 181.161 Q129.564 179.402 129.564 177.712 Q129.564 174.957 127.619 173.221 Q125.698 171.485 122.596 171.485 Q120.397 171.485 117.943 172.249 Q115.513 173.013 112.735 174.564 L112.735 169.842 Q115.559 168.707 118.013 168.129 Q120.466 167.55 122.503 167.55 Q127.874 167.55 131.068 170.235 Q134.263 172.92 134.263 177.411 Q134.263 179.541 133.452 181.462 Q132.665 183.36 130.559 185.953 Q129.98 186.624 126.878 189.841 Q123.777 193.036 118.128 198.8 Z" fill="#000000" fill-rule="nonzero" fill-opacity="1" /><path clip-path="url(#clip310)" d="M144.263 196.855 L149.147 196.855 L149.147 202.735 L144.263 202.735 L144.263 196.855 Z" fill="#000000" fill-rule="nonzero" fill-opacity="1" /><path clip-path="url(#clip310)" d="M163.36 198.8 L179.679 198.8 L179.679 202.735 L157.735 202.735 L157.735 198.8 Q160.397 196.045 164.98 191.416 Q169.587 186.763 170.767 185.42 Q173.012 182.897 173.892 181.161 Q174.795 179.402 174.795 177.712 Q174.795 174.957 172.85 173.221 Q170.929 171.485 167.827 171.485 Q165.628 171.485 163.175 172.249 Q160.744 173.013 157.966 174.564 L157.966 169.842 Q160.79 168.707 163.244 168.129 Q165.698 167.55 167.735 167.55 Q173.105 167.55 176.299 170.235 Q179.494 172.92 179.494 177.411 Q179.494 179.541 178.684 181.462 Q177.897 183.36 175.79 185.953 Q175.212 186.624 172.11 189.841 Q169.008 193.036 163.36 198.8 Z" fill="#000000" fill-rule="nonzero" fill-opacity="1" /><path clip-path="url(#clip310)" d="M189.54 168.175 L207.897 168.175 L207.897 172.11 L193.823 172.11 L193.823 180.582 Q194.841 180.235 195.86 180.073 Q196.878 179.888 197.897 179.888 Q203.684 179.888 207.063 183.059 Q210.443 186.23 210.443 191.647 Q210.443 197.226 206.971 200.328 Q203.498 203.406 197.179 203.406 Q195.003 203.406 192.735 203.036 Q190.489 202.665 188.082 201.925 L188.082 197.226 Q190.165 198.36 192.387 198.916 Q194.61 199.471 197.086 199.471 Q201.091 199.471 203.429 197.365 Q205.767 195.258 205.767 191.647 Q205.767 188.036 203.429 185.929 Q201.091 183.823 197.086 183.823 Q195.211 183.823 193.336 184.24 Q191.485 184.656 189.54 185.536 L189.54 168.175 Z" fill="#000000" fill-rule="nonzero" fill-opacity="1" /><path clip-path="url(#clip310)" d="M51.3115 565.851 Q51.5692 565.851 52.5676 566.141 Q53.5659 566.431 55.1118 567.139 Q56.6577 567.816 58.0748 568.782 Q59.4596 569.716 60.4902 571.262 Q61.4886 572.775 61.4886 574.515 Q61.4886 576.833 59.9427 578.379 Q58.3968 579.925 56.078 579.925 Q54.822 579.925 52.4387 579.056 Q41.5532 574.965 37.6562 574.965 Q33.0508 574.965 33.0508 578.54 Q33.0508 580.569 33.8882 582.405 Q34.7255 584.241 35.8849 585.432 Q37.0443 586.624 38.3648 587.558 Q39.6852 588.492 40.5548 588.911 Q41.4243 589.297 41.8108 589.394 L57.7205 593.355 Q59.0731 593.677 59.7173 593.902 Q60.3614 594.128 60.9089 594.74 Q61.4886 595.352 61.4886 596.318 Q61.4886 597.123 61.0055 597.703 Q60.5224 598.25 59.6851 598.25 Q59.5562 598.25 58.8799 598.089 Q58.2036 597.928 57.2696 597.703 Q56.3356 597.477 55.7881 597.381 Q51.4082 596.221 50.7962 596.06 L43.1312 594.225 Q39.331 593.226 37.6562 593.226 Q33.0508 593.226 33.0508 596.801 Q33.0508 598.572 33.7271 600.247 Q34.3712 601.89 35.273 603.017 Q36.1748 604.144 37.4308 605.175 Q38.6546 606.173 39.492 606.688 Q40.2971 607.171 41.1023 607.558 L44.3873 608.395 Q45.289 608.588 48.7995 609.522 L54.7576 610.972 Q59.202 612.002 59.6206 612.228 Q60.5224 612.55 61.0055 613.258 Q61.4886 613.967 61.4886 614.675 Q61.4886 615.48 61.0055 616.028 Q60.5224 616.575 59.6851 616.575 Q59.5562 616.575 59.0731 616.479 Q58.5901 616.382 57.9137 616.221 Q57.2374 616.06 56.8509 615.996 L41.6176 612.163 Q38.8479 611.455 37.9783 611.294 Q37.0765 611.1 36.0782 611.1 Q33.0508 611.1 33.0508 613.162 Q33.0508 614.836 35.0476 615.931 Q37.0443 617.026 40.909 617.96 Q41.9718 618.25 42.1973 618.443 Q42.4227 618.604 42.4227 619.087 Q42.3905 619.893 41.7464 619.893 Q41.5854 619.893 40.5548 619.635 Q39.5242 619.377 37.9783 618.894 Q36.4002 618.379 35.3696 617.831 Q34.6933 617.509 34.2424 617.22 Q33.7915 616.93 33.083 616.35 Q32.3745 615.77 31.988 614.901 Q31.6015 614.031 31.6015 612.968 Q31.6015 610.617 33.1152 608.878 Q34.6289 607.107 37.3342 606.881 Q31.6015 602.598 31.6015 596.608 Q31.6015 593.226 33.3085 591.197 Q34.951 589.297 37.9783 589.072 Q31.6015 584.627 31.6015 578.315 Q31.6015 574.676 33.5017 572.711 Q35.3696 570.746 38.6546 570.746 Q40.3615 570.746 43.6143 571.616 Q46.8349 572.486 48.4452 573.065 Q50.0555 573.645 53.1473 574.772 Q56.1102 575.964 57.8493 575.964 Q58.9765 575.964 59.4918 575.577 Q60.0071 575.191 60.0071 574.354 Q60.0071 573.065 59.2664 571.938 Q58.4934 570.811 57.2374 570.006 Q55.9492 569.168 54.6609 568.621 Q53.3405 568.073 51.859 567.655 Q51.0539 567.397 50.8607 567.268 Q50.6674 567.107 50.6674 566.656 Q50.6674 565.851 51.3115 565.851 Z" fill="#000000" fill-rule="nonzero" fill-opacity="1" /><path clip-path="url(#clip310)" d="M53.6497 539.769 Q53.8075 539.769 54.4838 540.152 Q55.1376 540.513 56.7833 541.843 Q58.4291 543.173 60.3453 545.157 Q61.0893 545.901 62.1263 547.028 Q63.1633 548.155 63.8396 548.922 L64.516 549.688 Q66.9958 552.619 69.7687 555.189 Q69.7011 555.009 69.6786 554.693 Q69.6335 554.377 69.6335 554.152 L69.6335 553.926 Q69.6335 552.754 70.4225 550.703 Q71.0087 548.899 71.0087 547.975 Q71.0087 547.073 70.693 546.081 Q70.3774 545.089 69.4531 544.007 Q68.5288 542.925 67.1311 542.429 Q66.9056 542.339 66.838 542.294 Q66.7478 542.249 66.6577 542.113 Q66.5449 541.978 66.5449 541.798 Q66.5449 541.55 66.6802 541.392 Q66.8155 541.234 66.9958 541.234 Q67.4016 541.234 68.2132 541.55 Q69.0248 541.843 70.0393 542.497 Q71.0538 543.128 71.9781 543.962 Q72.8798 544.773 73.5111 545.991 Q74.1197 547.208 74.1197 548.493 Q74.1197 549.418 73.6689 550.094 Q73.2405 550.77 72.4064 551.447 Q71.3468 552.371 71.0087 552.867 Q70.648 553.363 70.648 554.129 Q70.648 556.181 73.5111 558.052 Q73.9169 558.255 74.007 558.39 Q74.1197 558.503 74.1197 558.773 Q74.0972 559.337 73.6463 559.337 Q73.466 559.337 72.6769 558.841 Q71.8653 558.322 70.4451 557.173 Q69.0248 556 67.6045 554.58 L63.7269 550.432 Q59.8493 545.833 57.6626 544.007 Q57.6626 544.773 57.64 545.112 Q57.6175 545.427 57.4822 546.058 Q57.3244 546.69 56.9862 547.569 Q56.2874 549.62 56.2874 550.477 Q56.2874 550.703 56.3099 550.951 Q56.3325 551.199 56.4452 551.762 Q56.5579 552.303 56.7833 552.754 Q56.9862 553.205 57.4371 553.678 Q57.8655 554.152 58.4516 554.4 Q58.632 554.467 58.7221 554.513 Q58.8123 554.558 58.9025 554.693 Q58.9701 554.806 58.9701 554.986 Q58.9701 555.256 58.8123 555.414 Q58.6545 555.55 58.4516 555.55 Q58.0458 555.55 57.2117 555.144 Q56.3775 554.738 55.4758 554.062 Q54.5515 553.385 53.8751 552.281 Q53.1988 551.176 53.1988 549.959 Q53.1988 549.237 53.5144 548.629 Q53.8301 547.997 54.1682 547.682 Q54.4838 547.344 55.1827 546.78 Q55.7238 546.306 55.9492 546.081 Q56.1746 545.856 56.4226 545.405 Q56.6481 544.931 56.6481 544.413 Q56.6481 543.556 55.9943 542.767 Q55.318 541.978 53.6948 540.964 Q53.1988 540.693 53.1988 540.265 Q53.1988 539.769 53.6497 539.769 Z" fill="#000000" fill-rule="nonzero" fill-opacity="1" /><path clip-path="url(#clip310)" d="M705.14 12.096 L713.323 12.096 L713.323 36.8875 L743.057 36.8875 L743.057 12.096 L751.24 12.096 L751.24 72.576 L743.057 72.576 L743.057 43.7741 L713.323 43.7741 L713.323 72.576 L705.14 72.576 L705.14 12.096 Z" fill="#000000" fill-rule="nonzero" fill-opacity="1" /><path clip-path="url(#clip310)" d="M806.008 48.0275 L806.008 51.6733 L771.737 51.6733 Q772.223 59.3701 776.355 63.421 Q780.528 67.4314 787.941 67.4314 Q792.235 67.4314 796.245 66.3781 Q800.296 65.3249 804.266 63.2184 L804.266 70.267 Q800.255 71.9684 796.043 72.8596 Q791.83 73.7508 787.495 73.7508 Q776.639 73.7508 770.279 67.4314 Q763.959 61.1119 763.959 50.3365 Q763.959 39.1965 769.955 32.6746 Q775.991 26.1121 786.199 26.1121 Q795.354 26.1121 800.661 32.0264 Q806.008 37.9003 806.008 48.0275 M798.554 45.84 Q798.473 39.7232 795.111 36.0774 Q791.789 32.4315 786.28 32.4315 Q780.041 32.4315 776.274 35.9558 Q772.547 39.4801 771.98 45.8805 L798.554 45.84 Z" fill="#000000" fill-rule="nonzero" fill-opacity="1" /><path clip-path="url(#clip310)" d="M838.861 49.7694 Q829.827 49.7694 826.343 51.8354 Q822.86 53.9013 822.86 58.8839 Q822.86 62.8538 825.452 65.2034 Q828.085 67.5124 832.582 67.5124 Q838.78 67.5124 842.506 63.1374 Q846.274 58.7219 846.274 51.4303 L846.274 49.7694 L838.861 49.7694 M853.727 46.6907 L853.727 72.576 L846.274 72.576 L846.274 65.6895 Q843.722 69.8214 839.914 71.8063 Q836.106 73.7508 830.597 73.7508 Q823.629 73.7508 819.497 69.8619 Q815.406 65.9325 815.406 59.3701 Q815.406 51.7138 820.51 47.825 Q825.655 43.9361 835.822 43.9361 L846.274 43.9361 L846.274 43.2069 Q846.274 38.0623 842.871 35.2672 Q839.509 32.4315 833.392 32.4315 Q829.503 32.4315 825.817 33.3632 Q822.13 34.295 818.728 36.1584 L818.728 29.2718 Q822.819 27.692 826.667 26.9223 Q830.516 26.1121 834.162 26.1121 Q844.005 26.1121 848.866 31.2163 Q853.727 36.3204 853.727 46.6907 Z" fill="#000000" fill-rule="nonzero" fill-opacity="1" /><path clip-path="url(#clip310)" d="M863.733 27.2059 L871.632 27.2059 L885.811 65.2844 L899.989 27.2059 L907.888 27.2059 L890.874 72.576 L880.747 72.576 L863.733 27.2059 Z" fill="#000000" fill-rule="nonzero" fill-opacity="1" /><path clip-path="url(#clip310)" d="M956.985 48.0275 L956.985 51.6733 L922.714 51.6733 Q923.2 59.3701 927.332 63.421 Q931.505 67.4314 938.918 67.4314 Q943.212 67.4314 947.222 66.3781 Q951.273 65.3249 955.243 63.2184 L955.243 70.267 Q951.233 71.9684 947.02 72.8596 Q942.807 73.7508 938.472 73.7508 Q927.616 73.7508 921.256 67.4314 Q914.937 61.1119 914.937 50.3365 Q914.937 39.1965 920.932 32.6746 Q926.968 26.1121 937.176 26.1121 Q946.331 26.1121 951.638 32.0264 Q956.985 37.9003 956.985 48.0275 M949.531 45.84 Q949.45 39.7232 946.088 36.0774 Q942.766 32.4315 937.257 32.4315 Q931.019 32.4315 927.251 35.9558 Q923.524 39.4801 922.957 45.8805 L949.531 45.84 Z" fill="#000000" fill-rule="nonzero" fill-opacity="1" /><path clip-path="url(#clip310)" d="M1016.21 49.7694 Q1007.18 49.7694 1003.69 51.8354 Q1000.21 53.9013 1000.21 58.8839 Q1000.21 62.8538 1002.8 65.2034 Q1005.43 67.5124 1009.93 67.5124 Q1016.13 67.5124 1019.85 63.1374 Q1023.62 58.7219 1023.62 51.4303 L1023.62 49.7694 L1016.21 49.7694 M1031.08 46.6907 L1031.08 72.576 L1023.62 72.576 L1023.62 65.6895 Q1021.07 69.8214 1017.26 71.8063 Q1013.45 73.7508 1007.95 73.7508 Q1000.98 73.7508 996.846 69.8619 Q992.754 65.9325 992.754 59.3701 Q992.754 51.7138 997.859 47.825 Q1003 43.9361 1013.17 43.9361 L1023.62 43.9361 L1023.62 43.2069 Q1023.62 38.0623 1020.22 35.2672 Q1016.86 32.4315 1010.74 32.4315 Q1006.85 32.4315 1003.17 33.3632 Q999.479 34.295 996.076 36.1584 L996.076 29.2718 Q1000.17 27.692 1004.02 26.9223 Q1007.86 26.1121 1011.51 26.1121 Q1021.35 26.1121 1026.21 31.2163 Q1031.08 36.3204 1031.08 46.6907 Z" fill="#000000" fill-rule="nonzero" fill-opacity="1" /><path clip-path="url(#clip310)" d="M1076.28 34.0924 L1076.28 9.54393 L1083.74 9.54393 L1083.74 72.576 L1076.28 72.576 L1076.28 65.7705 Q1073.93 69.8214 1070.33 71.8063 Q1066.76 73.7508 1061.74 73.7508 Q1053.52 73.7508 1048.33 67.1883 Q1043.19 60.6258 1043.19 49.9314 Q1043.19 39.2371 1048.33 32.6746 Q1053.52 26.1121 1061.74 26.1121 Q1066.76 26.1121 1070.33 28.0971 Q1073.93 30.0415 1076.28 34.0924 M1050.88 49.9314 Q1050.88 58.1548 1054.25 62.8538 Q1057.65 67.5124 1063.56 67.5124 Q1069.48 67.5124 1072.88 62.8538 Q1076.28 58.1548 1076.28 49.9314 Q1076.28 41.7081 1072.88 37.0496 Q1069.48 32.3505 1063.56 32.3505 Q1057.65 32.3505 1054.25 37.0496 Q1050.88 41.7081 1050.88 49.9314 Z" fill="#000000" fill-rule="nonzero" fill-opacity="1" /><path clip-path="url(#clip310)" d="M1128.95 34.0924 L1128.95 9.54393 L1136.4 9.54393 L1136.4 72.576 L1128.95 72.576 L1128.95 65.7705 Q1126.6 69.8214 1122.99 71.8063 Q1119.43 73.7508 1114.4 73.7508 Q1106.18 73.7508 1100.99 67.1883 Q1095.85 60.6258 1095.85 49.9314 Q1095.85 39.2371 1100.99 32.6746 Q1106.18 26.1121 1114.4 26.1121 Q1119.43 26.1121 1122.99 28.0971 Q1126.6 30.0415 1128.95 34.0924 M1103.55 49.9314 Q1103.55 58.1548 1106.91 62.8538 Q1110.31 67.5124 1116.23 67.5124 Q1122.14 67.5124 1125.54 62.8538 Q1128.95 58.1548 1128.95 49.9314 Q1128.95 41.7081 1125.54 37.0496 Q1122.14 32.3505 1116.23 32.3505 Q1110.31 32.3505 1106.91 37.0496 Q1103.55 41.7081 1103.55 49.9314 Z" fill="#000000" fill-rule="nonzero" fill-opacity="1" /><path clip-path="url(#clip310)" d="M1190.56 48.0275 L1190.56 51.6733 L1156.29 51.6733 Q1156.78 59.3701 1160.91 63.421 Q1165.08 67.4314 1172.49 67.4314 Q1176.79 67.4314 1180.8 66.3781 Q1184.85 65.3249 1188.82 63.2184 L1188.82 70.267 Q1184.81 71.9684 1180.59 72.8596 Q1176.38 73.7508 1172.05 73.7508 Q1161.19 73.7508 1154.83 67.4314 Q1148.51 61.1119 1148.51 50.3365 Q1148.51 39.1965 1154.51 32.6746 Q1160.54 26.1121 1170.75 26.1121 Q1179.91 26.1121 1185.21 32.0264 Q1190.56 37.9003 1190.56 48.0275 M1183.11 45.84 Q1183.03 39.7232 1179.66 36.0774 Q1176.34 32.4315 1170.83 32.4315 Q1164.59 32.4315 1160.83 35.9558 Q1157.1 39.4801 1156.53 45.8805 L1183.11 45.84 Z" fill="#000000" fill-rule="nonzero" fill-opacity="1" /><path clip-path="url(#clip310)" d="M1232.65 34.0924 L1232.65 9.54393 L1240.1 9.54393 L1240.1 72.576 L1232.65 72.576 L1232.65 65.7705 Q1230.3 69.8214 1226.69 71.8063 Q1223.13 73.7508 1218.11 73.7508 Q1209.88 73.7508 1204.7 67.1883 Q1199.55 60.6258 1199.55 49.9314 Q1199.55 39.2371 1204.7 32.6746 Q1209.88 26.1121 1218.11 26.1121 Q1223.13 26.1121 1226.69 28.0971 Q1230.3 30.0415 1232.65 34.0924 M1207.25 49.9314 Q1207.25 58.1548 1210.61 62.8538 Q1214.01 67.5124 1219.93 67.5124 Q1225.84 67.5124 1229.25 62.8538 Q1232.65 58.1548 1232.65 49.9314 Q1232.65 41.7081 1229.25 37.0496 Q1225.84 32.3505 1219.93 32.3505 Q1214.01 32.3505 1210.61 37.0496 Q1207.25 41.7081 1207.25 49.9314 Z" fill="#000000" fill-rule="nonzero" fill-opacity="1" /><path clip-path="url(#clip310)" d="M1317.15 35.9153 Q1319.95 30.8922 1323.83 28.5022 Q1327.72 26.1121 1332.99 26.1121 Q1340.08 26.1121 1343.93 31.0947 Q1347.78 36.0368 1347.78 45.1919 L1347.78 72.576 L1340.28 72.576 L1340.28 45.4349 Q1340.28 38.913 1337.97 35.7533 Q1335.66 32.5936 1330.92 32.5936 Q1325.13 32.5936 1321.77 36.4419 Q1318.41 40.2903 1318.41 46.9338 L1318.41 72.576 L1310.91 72.576 L1310.91 45.4349 Q1310.91 38.8725 1308.6 35.7533 Q1306.29 32.5936 1301.47 32.5936 Q1295.76 32.5936 1292.4 36.4824 Q1289.04 40.3308 1289.04 46.9338 L1289.04 72.576 L1281.54 72.576 L1281.54 27.2059 L1289.04 27.2059 L1289.04 34.2544 Q1291.59 30.082 1295.15 28.0971 Q1298.72 26.1121 1303.62 26.1121 Q1308.56 26.1121 1312.01 28.6237 Q1315.49 31.1352 1317.15 35.9153 Z" fill="#000000" fill-rule="nonzero" fill-opacity="1" /><path clip-path="url(#clip310)" d="M1383.26 49.7694 Q1374.23 49.7694 1370.74 51.8354 Q1367.26 53.9013 1367.26 58.8839 Q1367.26 62.8538 1369.85 65.2034 Q1372.49 67.5124 1376.98 67.5124 Q1383.18 67.5124 1386.91 63.1374 Q1390.67 58.7219 1390.67 51.4303 L1390.67 49.7694 L1383.26 49.7694 M1398.13 46.6907 L1398.13 72.576 L1390.67 72.576 L1390.67 65.6895 Q1388.12 69.8214 1384.31 71.8063 Q1380.51 73.7508 1375 73.7508 Q1368.03 73.7508 1363.9 69.8619 Q1359.81 65.9325 1359.81 59.3701 Q1359.81 51.7138 1364.91 47.825 Q1370.06 43.9361 1380.22 43.9361 L1390.67 43.9361 L1390.67 43.2069 Q1390.67 38.0623 1387.27 35.2672 Q1383.91 32.4315 1377.79 32.4315 Q1373.9 32.4315 1370.22 33.3632 Q1366.53 34.295 1363.13 36.1584 L1363.13 29.2718 Q1367.22 27.692 1371.07 26.9223 Q1374.92 26.1121 1378.56 26.1121 Q1388.41 26.1121 1393.27 31.2163 Q1398.13 36.3204 1398.13 46.6907 Z" fill="#000000" fill-rule="nonzero" fill-opacity="1" /><path clip-path="url(#clip310)" d="M1442.4 28.5427 L1442.4 35.5912 Q1439.25 33.9709 1435.84 33.1607 Q1432.44 32.3505 1428.79 32.3505 Q1423.24 32.3505 1420.45 34.0519 Q1417.69 35.7533 1417.69 39.156 Q1417.69 41.7486 1419.68 43.2475 Q1421.66 44.7058 1427.66 46.0426 L1430.21 46.6097 Q1438.15 48.3111 1441.47 51.4303 Q1444.84 54.509 1444.84 60.0587 Q1444.84 66.3781 1439.81 70.0644 Q1434.83 73.7508 1426.08 73.7508 Q1422.43 73.7508 1418.46 73.0216 Q1414.53 72.3329 1410.16 70.9151 L1410.16 63.2184 Q1414.29 65.3654 1418.3 66.4591 Q1422.31 67.5124 1426.24 67.5124 Q1431.51 67.5124 1434.34 65.73 Q1437.18 63.9071 1437.18 60.6258 Q1437.18 57.5877 1435.11 55.9673 Q1433.09 54.3469 1426.16 52.8481 L1423.57 52.2405 Q1416.64 50.7821 1413.56 47.7845 Q1410.48 44.7463 1410.48 39.4801 Q1410.48 33.0797 1415.02 29.5959 Q1419.56 26.1121 1427.9 26.1121 Q1432.03 26.1121 1435.68 26.7198 Q1439.33 27.3274 1442.4 28.5427 Z" fill="#000000" fill-rule="nonzero" fill-opacity="1" /><path clip-path="url(#clip310)" d="M1485.63 28.5427 L1485.63 35.5912 Q1482.47 33.9709 1479.07 33.1607 Q1475.66 32.3505 1472.02 32.3505 Q1466.47 32.3505 1463.67 34.0519 Q1460.92 35.7533 1460.92 39.156 Q1460.92 41.7486 1462.9 43.2475 Q1464.89 44.7058 1470.88 46.0426 L1473.43 46.6097 Q1481.37 48.3111 1484.7 51.4303 Q1488.06 54.509 1488.06 60.0587 Q1488.06 66.3781 1483.04 70.0644 Q1478.05 73.7508 1469.3 73.7508 Q1465.66 73.7508 1461.69 73.0216 Q1457.76 72.3329 1453.38 70.9151 L1453.38 63.2184 Q1457.51 65.3654 1461.53 66.4591 Q1465.54 67.5124 1469.46 67.5124 Q1474.73 67.5124 1477.57 65.73 Q1480.4 63.9071 1480.4 60.6258 Q1480.4 57.5877 1478.34 55.9673 Q1476.31 54.3469 1469.38 52.8481 L1466.79 52.2405 Q1459.86 50.7821 1456.79 47.7845 Q1453.71 44.7463 1453.71 39.4801 Q1453.71 33.0797 1458.24 29.5959 Q1462.78 26.1121 1471.13 26.1121 Q1475.26 26.1121 1478.9 26.7198 Q1482.55 27.3274 1485.63 28.5427 Z" fill="#000000" fill-rule="nonzero" fill-opacity="1" /><polyline clip-path="url(#clip312)" style="stroke:#009af9; stroke-linecap:round; stroke-linejoin:round; stroke-width:4; stroke-opacity:1; fill:none" points="327.447,143.404 350.575,260.4 370.952,348.847 389.374,419.196 406.315,477.065 422.083,525.828 436.893,567.668 450.9,604.079 464.223,636.125 476.953,664.594 489.163,690.083 500.911,713.052 512.247,733.869 523.211,752.827 533.837,770.166 544.155,786.083 554.19,800.742 563.964,814.283 573.497,826.823 582.806,838.464 591.905,849.292 600.809,859.383 609.528,868.803 618.076,877.61 626.46,885.854 634.69,893.582 642.775,900.832 650.722,907.643 658.537,914.045 666.227,920.068 673.797,925.738 681.254,931.079 688.602,936.113 695.846,940.859 702.99,945.335 710.038,949.559 716.994,953.544 723.861,957.306 730.643,960.856 737.343,964.208 743.963,967.371 750.507,970.357 756.977,973.174 763.375,975.831 769.704,978.337 775.967,980.7 782.164,982.926 788.298,985.023 794.372,986.996 800.386,988.852 806.342,990.597 812.243,992.234 818.089,993.77 823.883,995.21 829.624,996.557 835.316,997.815 840.959,998.989 846.554,1000.08 852.103,1001.1 857.606,1002.04 863.066,1002.91 868.482,1003.72 873.856,1004.46 879.188,1005.14 884.481,1005.76 889.734,1006.32 894.949,1006.83 900.126,1007.28 905.266,1007.69 910.37,1008.04 915.439,1008.36 920.473,1008.62 925.473,1008.85 930.44,1009.03 935.375,1009.18 940.277,1009.29 945.149,1009.36 949.989,1009.4 954.799,1009.41 959.58,1009.38 964.332,1009.33 969.055,1009.24 973.75,1009.13 978.417,1008.99 983.058,1008.82 987.672,1008.63 992.26,1008.42 996.822,1008.19 1001.36,1007.93 1005.87,1007.65 1010.36,1007.35 1014.82,1007.03 1019.26,1006.7 1023.68,1006.35 1028.07,1005.98 1032.44,1005.59 1036.79,1005.19 1041.12,1004.77 1045.42,1004.34 1049.71,1003.9 1053.97,1003.45 1058.21,1002.98 1062.43,1002.5 1066.64,1002.01 1070.82,1001.51 1074.98,1000.99 1079.12,1000.47 1083.25,999.942 1087.35,999.403 1091.44,998.855 1095.51,998.3 1099.56,997.737 1103.59,997.167 1107.61,996.59 1111.61,996.007 1115.59,995.417 1119.56,994.823 1123.5,994.222 1127.43,993.617 1131.35,993.007 1135.25,992.393 1139.13,991.774 1143,991.151 1146.85,990.525 1150.69,989.895 1154.51,989.263 1158.32,988.627 1162.11,987.988 1165.89,987.348 1169.65,986.704 1173.4,986.059 1177.14,985.412 1180.86,984.763 1184.57,984.113 1188.26,983.461 1191.94,982.809 1195.61,982.155 1199.26,981.5 1202.91,980.845 1206.53,980.189 1210.15,979.533 1213.75,978.877 1217.34,978.22 1220.92,977.564 1224.49,976.907 1228.04,976.251 1231.58,975.595 1235.11,974.94 1238.63,974.285 1242.14,973.631 1245.63,972.978 1249.11,972.325 1252.59,971.674 1256.05,971.023 1259.5,970.374 1262.94,969.726 1266.36,969.079 1269.78,968.433 1273.19,967.789 1276.59,967.146 1279.97,966.505 1283.35,965.866 1286.71,965.228 1290.07,964.592 1293.41,963.957 1296.75,963.325 1300.07,962.694 1303.39,962.065 1306.69,961.439 1309.99,960.814 1313.27,960.191 1316.55,959.571 1319.82,958.952 1323.07,958.336 1326.32,957.722 1329.56,957.11 1332.79,956.501 1336.01,955.894 1339.23,955.289 1342.43,954.686 1345.62,954.086 1348.81,953.488 1351.99,952.893 1355.16,952.3 1358.32,951.709 1361.47,951.121 1364.61,950.536 1367.75,949.953 1370.87,949.373 1373.99,948.795 1377.1,948.22 1380.21,947.647 1383.3,947.077 1386.39,946.509 1389.47,945.944 1392.54,945.382 1395.6,944.822 1398.66,944.265 1401.7,943.711 1404.75,943.159 1407.78,942.609 1410.8,942.063 1413.82,941.519 1416.83,940.978 1419.84,940.439 1422.83,939.903 1425.82,939.37 1428.8,938.839 1431.78,938.311 1434.74,937.786 1437.71,937.263 1440.66,936.743 1443.61,936.226 1446.55,935.711 1449.48,935.199 1452.41,934.689 1455.33,934.183 1458.24,933.678 1461.14,933.177 1464.04,932.678 1466.94,932.181 1469.83,931.688 1472.71,931.196 1475.58,930.708 1478.45,930.222 1481.31,929.738 1484.16,929.258 1487.01,928.779 1489.86,928.304 1492.69,927.83 1495.52,927.36 1498.35,926.892 1501.17,926.426 1503.98,925.963 1506.78,925.503 1509.58,925.044 1512.38,924.589 1515.17,924.136 1517.95,923.685 1520.73,923.237 1523.5,922.791 1526.27,922.348 1529.03,921.907 1531.78,921.469 1534.53,921.033 1537.27,920.599 1540.01,920.168 1542.74,919.739 1545.47,919.312 1548.19,918.888 1550.91,918.466 1553.62,918.047 1556.32,917.63 1559.02,917.215 1561.72,916.802 1564.41,916.392 1567.09,915.984 1569.77,915.578 1572.45,915.175 1575.11,914.774 1577.78,914.375 1580.44,913.978 1583.09,913.583 1585.74,913.191 1588.38,912.8 1591.02,912.412 1593.66,912.026 1596.28,911.643 1598.91,911.261 1601.53,910.881 1604.14,910.504 1606.75,910.129 1609.36,909.756 1611.96,909.384 1614.55,909.015 1617.14,908.648 1619.73,908.283 1622.31,907.92 1624.89,907.559 1627.46,907.2 1630.03,906.843 1632.59,906.488 1635.15,906.135 1637.7,905.784 1640.25,905.435 1642.8,905.088 1645.34,904.743 1647.88,904.399 1650.41,904.058 1652.94,903.718 1655.46,903.381 1657.98,903.045 1660.5,902.711 1663.01,902.379 1665.51,902.049 1668.01,901.72 1670.51,901.393 1673.01,901.069 1675.5,900.746 1677.98,900.424 1680.46,900.105 1682.94,899.787 1685.41,899.471 1687.88,899.157 1690.35,898.844 1692.81,898.533 1695.27,898.224 1697.72,897.917 1700.17,897.611 1702.61,897.307 1705.06,897.004 1707.49,896.703 1709.93,896.404 1712.36,896.107 1714.78,895.811 1717.21,895.516 1719.62,895.224 1722.04,894.932 1724.45,894.643 1726.86,894.355 1729.26,894.068 1731.66,893.784 1734.05,893.5 1736.45,893.218 1738.84,892.938 1741.22,892.659 1743.6,892.382 1745.98,892.106 1748.35,891.832 1750.72,891.559 1753.09,891.287 1755.45,891.017 1757.81,890.749 1760.17,890.482 1762.52,890.216 1764.87,889.952 1767.22,889.689 1769.56,889.428 1771.9,889.168 1774.23,888.909 1776.57,888.651 1778.9,888.396 1781.22,888.141 1783.54,887.888 1785.86,887.636 1788.18,887.385 1790.49,887.136 1792.8,886.888 1795.1,886.641 1797.4,886.396 1799.7,886.152 1802,885.909 1804.29,885.667 1806.58,885.427 1808.87,885.188 1811.15,884.95 1813.43,884.713 1815.7,884.478 1817.98,884.244 1820.25,884.011 1822.51,883.779 1824.78,883.549 1827.04,883.319 1829.3,883.091 1831.55,882.864 1833.8,882.638 1836.05,882.413 1838.29,882.19 1840.54,881.968 1842.78,881.746 1845.01,881.526 1847.25,881.307 1849.48,881.089 1851.7,880.872 1853.93,880.657 1856.15,880.442 1858.37,880.229 1860.58,880.016 1862.79,879.805 1865,879.595 1867.21,879.385 1869.41,879.177 1871.62,878.97 1873.81,878.764 1876.01,878.559 1878.2,878.355 1880.39,878.152 1882.58,877.95 1884.76,877.749 1886.94,877.548 1889.12,877.349 1891.3,877.151 1893.47,876.954 1895.64,876.758 1897.81,876.563 1899.97,876.369 1902.13,876.176 1904.29,875.983 "/>
<circle clip-path="url(#clip312)" cx="288.905" cy="641.162" r="14.4" fill="#e26f46" fill-rule="evenodd" fill-opacity="1" stroke="#000000" stroke-opacity="1" stroke-width="2.4"/>
<circle clip-path="url(#clip312)" cx="337.347" cy="926.423" r="14.4" fill="#e26f46" fill-rule="evenodd" fill-opacity="1" stroke="#000000" stroke-opacity="1" stroke-width="2.4"/>
<circle clip-path="url(#clip312)" cx="362.058" cy="663.723" r="14.4" fill="#e26f46" fill-rule="evenodd" fill-opacity="1" stroke="#000000" stroke-opacity="1" stroke-width="2.4"/>
<circle clip-path="url(#clip312)" cx="393.199" cy="757.701" r="14.4" fill="#e26f46" fill-rule="evenodd" fill-opacity="1" stroke="#000000" stroke-opacity="1" stroke-width="2.4"/>
<circle clip-path="url(#clip312)" cx="446.466" cy="689.505" r="14.4" fill="#e26f46" fill-rule="evenodd" fill-opacity="1" stroke="#000000" stroke-opacity="1" stroke-width="2.4"/>
<circle clip-path="url(#clip312)" cx="491.665" cy="783.457" r="14.4" fill="#e26f46" fill-rule="evenodd" fill-opacity="1" stroke="#000000" stroke-opacity="1" stroke-width="2.4"/>
<circle clip-path="url(#clip312)" cx="494.432" cy="763.996" r="14.4" fill="#e26f46" fill-rule="evenodd" fill-opacity="1" stroke="#000000" stroke-opacity="1" stroke-width="2.4"/>
<circle clip-path="url(#clip312)" cx="547.89" cy="780.109" r="14.4" fill="#e26f46" fill-rule="evenodd" fill-opacity="1" stroke="#000000" stroke-opacity="1" stroke-width="2.4"/>
<circle clip-path="url(#clip312)" cx="607.14" cy="870.791" r="14.4" fill="#e26f46" fill-rule="evenodd" fill-opacity="1" stroke="#000000" stroke-opacity="1" stroke-width="2.4"/>
<circle clip-path="url(#clip312)" cx="660.641" cy="906.36" r="14.4" fill="#e26f46" fill-rule="evenodd" fill-opacity="1" stroke="#000000" stroke-opacity="1" stroke-width="2.4"/>
<circle clip-path="url(#clip312)" cx="711.339" cy="945.176" r="14.4" fill="#e26f46" fill-rule="evenodd" fill-opacity="1" stroke="#000000" stroke-opacity="1" stroke-width="2.4"/>
<circle clip-path="url(#clip312)" cx="711.309" cy="932.206" r="14.4" fill="#e26f46" fill-rule="evenodd" fill-opacity="1" stroke="#000000" stroke-opacity="1" stroke-width="2.4"/>
<circle clip-path="url(#clip312)" cx="767.637" cy="974.254" r="14.4" fill="#e26f46" fill-rule="evenodd" fill-opacity="1" stroke="#000000" stroke-opacity="1" stroke-width="2.4"/>
<circle clip-path="url(#clip312)" cx="818.269" cy="983.887" r="14.4" fill="#e26f46" fill-rule="evenodd" fill-opacity="1" stroke="#000000" stroke-opacity="1" stroke-width="2.4"/>
<circle clip-path="url(#clip312)" cx="871.719" cy="996.757" r="14.4" fill="#e26f46" fill-rule="evenodd" fill-opacity="1" stroke="#000000" stroke-opacity="1" stroke-width="2.4"/>
<circle clip-path="url(#clip312)" cx="925.155" cy="1003.14" r="14.4" fill="#e26f46" fill-rule="evenodd" fill-opacity="1" stroke="#000000" stroke-opacity="1" stroke-width="2.4"/>
<circle clip-path="url(#clip312)" cx="981.388" cy="1003.04" r="14.4" fill="#e26f46" fill-rule="evenodd" fill-opacity="1" stroke="#000000" stroke-opacity="1" stroke-width="2.4"/>
<circle clip-path="url(#clip312)" cx="1032" cy="1002.94" r="14.4" fill="#e26f46" fill-rule="evenodd" fill-opacity="1" stroke="#000000" stroke-opacity="1" stroke-width="2.4"/>
<circle clip-path="url(#clip312)" cx="1085.4" cy="996.356" r="14.4" fill="#e26f46" fill-rule="evenodd" fill-opacity="1" stroke="#000000" stroke-opacity="1" stroke-width="2.4"/>
<circle clip-path="url(#clip312)" cx="1138.79" cy="980.043" r="14.4" fill="#e26f46" fill-rule="evenodd" fill-opacity="1" stroke="#000000" stroke-opacity="1" stroke-width="2.4"/>
<circle clip-path="url(#clip312)" cx="1194.99" cy="966.966" r="14.4" fill="#e26f46" fill-rule="evenodd" fill-opacity="1" stroke="#000000" stroke-opacity="1" stroke-width="2.4"/>
<circle clip-path="url(#clip312)" cx="1245.59" cy="963.629" r="14.4" fill="#e26f46" fill-rule="evenodd" fill-opacity="1" stroke="#000000" stroke-opacity="1" stroke-width="2.4"/>
<circle clip-path="url(#clip312)" cx="1301.79" cy="947.31" r="14.4" fill="#e26f46" fill-rule="evenodd" fill-opacity="1" stroke="#000000" stroke-opacity="1" stroke-width="2.4"/>
<circle clip-path="url(#clip312)" cx="1355.18" cy="934.239" r="14.4" fill="#e26f46" fill-rule="evenodd" fill-opacity="1" stroke="#000000" stroke-opacity="1" stroke-width="2.4"/>
<circle clip-path="url(#clip312)" cx="1408.59" cy="927.654" r="14.4" fill="#e26f46" fill-rule="evenodd" fill-opacity="1" stroke="#000000" stroke-opacity="1" stroke-width="2.4"/>
<circle clip-path="url(#clip312)" cx="1442.28" cy="908.134" r="14.4" fill="#e26f46" fill-rule="evenodd" fill-opacity="1" stroke="#000000" stroke-opacity="1" stroke-width="2.4"/>
<path clip-path="url(#clip310)" d="M1423.55 303.543 L1895.68 303.543 L1895.68 148.023 L1423.55 148.023  Z" fill="#ffffff" fill-rule="evenodd" fill-opacity="1"/>
<polyline clip-path="url(#clip310)" style="stroke:#000000; stroke-linecap:round; stroke-linejoin:round; stroke-width:4; stroke-opacity:1; fill:none" points="1423.55,303.543 1895.68,303.543 1895.68,148.023 1423.55,148.023 1423.55,303.543 "/>
<polyline clip-path="url(#clip310)" style="stroke:#009af9; stroke-linecap:round; stroke-linejoin:round; stroke-width:4; stroke-opacity:1; fill:none" points="1442.57,199.863 1556.73,199.863 "/>
<path clip-path="url(#clip310)" d="M1575.75 182.583 L1580.45 182.583 L1580.45 203.578 Q1580.45 209.134 1582.46 211.587 Q1584.48 214.018 1588.99 214.018 Q1593.48 214.018 1595.5 211.587 Q1597.51 209.134 1597.51 203.578 L1597.51 182.583 L1602.21 182.583 L1602.21 204.157 Q1602.21 210.916 1598.85 214.365 Q1595.52 217.814 1588.99 217.814 Q1582.44 217.814 1579.09 214.365 Q1575.75 210.916 1575.75 204.157 L1575.75 182.583 Z" fill="#000000" fill-rule="nonzero" fill-opacity="1" /><path clip-path="url(#clip310)" d="M1625.82 195.199 Q1625.1 194.782 1624.25 194.597 Q1623.41 194.388 1622.4 194.388 Q1618.78 194.388 1616.84 196.75 Q1614.92 199.087 1614.92 203.486 L1614.92 217.143 L1610.64 217.143 L1610.64 191.217 L1614.92 191.217 L1614.92 195.245 Q1616.26 192.884 1618.41 191.75 Q1620.57 190.592 1623.65 190.592 Q1624.09 190.592 1624.62 190.662 Q1625.15 190.708 1625.8 190.824 L1625.82 195.199 Z" fill="#000000" fill-rule="nonzero" fill-opacity="1" /><path clip-path="url(#clip310)" d="M1646.82 191.981 L1646.82 196.009 Q1645.01 195.083 1643.07 194.62 Q1641.12 194.157 1639.04 194.157 Q1635.87 194.157 1634.27 195.129 Q1632.7 196.101 1632.7 198.046 Q1632.7 199.527 1633.83 200.384 Q1634.96 201.217 1638.39 201.981 L1639.85 202.305 Q1644.39 203.277 1646.28 205.06 Q1648.21 206.819 1648.21 209.99 Q1648.21 213.601 1645.33 215.708 Q1642.49 217.814 1637.49 217.814 Q1635.4 217.814 1633.14 217.398 Q1630.89 217.004 1628.39 216.194 L1628.39 211.796 Q1630.75 213.023 1633.04 213.648 Q1635.33 214.249 1637.58 214.249 Q1640.59 214.249 1642.21 213.231 Q1643.83 212.189 1643.83 210.314 Q1643.83 208.578 1642.65 207.652 Q1641.49 206.726 1637.53 205.87 L1636.05 205.523 Q1632.09 204.689 1630.33 202.976 Q1628.58 201.24 1628.58 198.231 Q1628.58 194.574 1631.17 192.583 Q1633.76 190.592 1638.53 190.592 Q1640.89 190.592 1642.97 190.939 Q1645.06 191.287 1646.82 191.981 Z" fill="#000000" fill-rule="nonzero" fill-opacity="1" /><path clip-path="url(#clip310)" d="M1677.16 203.115 L1677.16 205.199 L1657.58 205.199 Q1657.86 209.597 1660.22 211.911 Q1662.6 214.203 1666.84 214.203 Q1669.29 214.203 1671.58 213.601 Q1673.9 212.999 1676.17 211.796 L1676.17 215.823 Q1673.88 216.796 1671.47 217.305 Q1669.06 217.814 1666.58 217.814 Q1660.38 217.814 1656.75 214.203 Q1653.14 210.592 1653.14 204.435 Q1653.14 198.069 1656.56 194.342 Q1660.01 190.592 1665.84 190.592 Q1671.08 190.592 1674.11 193.972 Q1677.16 197.328 1677.16 203.115 M1672.9 201.865 Q1672.86 198.37 1670.94 196.287 Q1669.04 194.203 1665.89 194.203 Q1662.33 194.203 1660.17 196.217 Q1658.04 198.231 1657.72 201.888 L1672.9 201.865 Z" fill="#000000" fill-rule="nonzero" fill-opacity="1" /><path clip-path="url(#clip310)" d="M1684.15 181.125 L1688.41 181.125 L1688.41 217.143 L1684.15 217.143 L1684.15 181.125 Z" fill="#000000" fill-rule="nonzero" fill-opacity="1" /><path clip-path="url(#clip310)" d="M1697.33 181.125 L1701.58 181.125 L1701.58 217.143 L1697.33 217.143 L1697.33 181.125 Z" fill="#000000" fill-rule="nonzero" fill-opacity="1" /><path clip-path="url(#clip310)" d="M1735.8 181.171 Q1732.7 186.495 1731.19 191.703 Q1729.69 196.912 1729.69 202.259 Q1729.69 207.606 1731.19 212.861 Q1732.72 218.092 1735.8 223.393 L1732.09 223.393 Q1728.62 217.953 1726.89 212.698 Q1725.17 207.444 1725.17 202.259 Q1725.17 197.097 1726.89 191.865 Q1728.6 186.634 1732.09 181.171 L1735.8 181.171 Z" fill="#000000" fill-rule="nonzero" fill-opacity="1" /><path clip-path="url(#clip310)" d="M1745.47 213.208 L1753.11 213.208 L1753.11 186.842 L1744.8 188.509 L1744.8 184.25 L1753.07 182.583 L1757.74 182.583 L1757.74 213.208 L1765.38 213.208 L1765.38 217.143 L1745.47 217.143 L1745.47 213.208 Z" fill="#000000" fill-rule="nonzero" fill-opacity="1" /><path clip-path="url(#clip310)" d="M1774.96 216.425 L1774.96 212.166 Q1776.72 212.999 1778.53 213.439 Q1780.33 213.879 1782.07 213.879 Q1786.7 213.879 1789.13 210.777 Q1791.58 207.652 1791.93 201.31 Q1790.59 203.3 1788.53 204.365 Q1786.47 205.43 1783.97 205.43 Q1778.78 205.43 1775.75 202.305 Q1772.74 199.157 1772.74 193.717 Q1772.74 188.393 1775.89 185.175 Q1779.04 181.958 1784.27 181.958 Q1790.26 181.958 1793.41 186.564 Q1796.58 191.148 1796.58 199.898 Q1796.58 208.069 1792.7 212.953 Q1788.83 217.814 1782.28 217.814 Q1780.52 217.814 1778.71 217.467 Q1776.91 217.12 1774.96 216.425 M1784.27 201.773 Q1787.42 201.773 1789.25 199.62 Q1791.1 197.467 1791.1 193.717 Q1791.1 189.99 1789.25 187.838 Q1787.42 185.662 1784.27 185.662 Q1781.12 185.662 1779.27 187.838 Q1777.44 189.99 1777.44 193.717 Q1777.44 197.467 1779.27 199.62 Q1781.12 201.773 1784.27 201.773 Z" fill="#000000" fill-rule="nonzero" fill-opacity="1" /><path clip-path="url(#clip310)" d="M1817.83 186.657 L1806.03 205.106 L1817.83 205.106 L1817.83 186.657 M1816.61 182.583 L1822.49 182.583 L1822.49 205.106 L1827.42 205.106 L1827.42 208.995 L1822.49 208.995 L1822.49 217.143 L1817.83 217.143 L1817.83 208.995 L1802.23 208.995 L1802.23 204.481 L1816.61 182.583 Z" fill="#000000" fill-rule="nonzero" fill-opacity="1" /><path clip-path="url(#clip310)" d="M1835.29 216.425 L1835.29 212.166 Q1837.05 212.999 1838.85 213.439 Q1840.66 213.879 1842.39 213.879 Q1847.02 213.879 1849.45 210.777 Q1851.91 207.652 1852.26 201.31 Q1850.91 203.3 1848.85 204.365 Q1846.79 205.43 1844.29 205.43 Q1839.11 205.43 1836.07 202.305 Q1833.07 199.157 1833.07 193.717 Q1833.07 188.393 1836.21 185.175 Q1839.36 181.958 1844.59 181.958 Q1850.59 181.958 1853.74 186.564 Q1856.91 191.148 1856.91 199.898 Q1856.91 208.069 1853.02 212.953 Q1849.15 217.814 1842.6 217.814 Q1840.84 217.814 1839.04 217.467 Q1837.23 217.12 1835.29 216.425 M1844.59 201.773 Q1847.74 201.773 1849.57 199.62 Q1851.42 197.467 1851.42 193.717 Q1851.42 189.99 1849.57 187.838 Q1847.74 185.662 1844.59 185.662 Q1841.44 185.662 1839.59 187.838 Q1837.76 189.99 1837.76 193.717 Q1837.76 197.467 1839.59 199.62 Q1841.44 201.773 1844.59 201.773 Z" fill="#000000" fill-rule="nonzero" fill-opacity="1" /><path clip-path="url(#clip310)" d="M1864.04 181.171 L1867.74 181.171 Q1871.21 186.634 1872.93 191.865 Q1874.66 197.097 1874.66 202.259 Q1874.66 207.444 1872.93 212.698 Q1871.21 217.953 1867.74 223.393 L1864.04 223.393 Q1867.12 218.092 1868.62 212.861 Q1870.15 207.606 1870.15 202.259 Q1870.15 196.912 1868.62 191.703 Q1867.12 186.495 1864.04 181.171 Z" fill="#000000" fill-rule="nonzero" fill-opacity="1" /><circle clip-path="url(#clip310)" cx="1499.65" cy="251.703" r="20.48" fill="#e26f46" fill-rule="evenodd" fill-opacity="1" stroke="#000000" stroke-opacity="1" stroke-width="3.41333"/>
<path clip-path="url(#clip310)" d="M1588.95 268.983 L1575.75 234.423 L1580.64 234.423 L1591.59 263.52 L1602.56 234.423 L1607.42 234.423 L1594.25 268.983 L1588.95 268.983 Z" fill="#000000" fill-rule="nonzero" fill-opacity="1" /><path clip-path="url(#clip310)" d="M1608.62 258.751 L1608.62 243.057 L1612.88 243.057 L1612.88 258.589 Q1612.88 262.27 1614.32 264.122 Q1615.75 265.951 1618.62 265.951 Q1622.07 265.951 1624.06 263.751 Q1626.08 261.552 1626.08 257.756 L1626.08 243.057 L1630.33 243.057 L1630.33 268.983 L1626.08 268.983 L1626.08 265.001 Q1624.52 267.363 1622.46 268.52 Q1620.43 269.654 1617.72 269.654 Q1613.25 269.654 1610.94 266.876 Q1608.62 264.099 1608.62 258.751 M1619.34 242.432 L1619.34 242.432 Z" fill="#000000" fill-rule="nonzero" fill-opacity="1" /><path clip-path="url(#clip310)" d="M1656.17 255.719 Q1656.17 251.089 1654.25 248.543 Q1652.35 245.997 1648.9 245.997 Q1645.47 245.997 1643.55 248.543 Q1641.65 251.089 1641.65 255.719 Q1641.65 260.326 1643.55 262.872 Q1645.47 265.418 1648.9 265.418 Q1652.35 265.418 1654.25 262.872 Q1656.17 260.326 1656.17 255.719 M1660.43 265.765 Q1660.43 272.386 1657.49 275.603 Q1654.55 278.844 1648.48 278.844 Q1646.24 278.844 1644.25 278.497 Q1642.26 278.173 1640.38 277.478 L1640.38 273.335 Q1642.26 274.353 1644.08 274.839 Q1645.91 275.325 1647.81 275.325 Q1652 275.325 1654.08 273.126 Q1656.17 270.95 1656.17 266.529 L1656.17 264.423 Q1654.85 266.714 1652.79 267.849 Q1650.73 268.983 1647.86 268.983 Q1643.09 268.983 1640.17 265.349 Q1637.26 261.714 1637.26 255.719 Q1637.26 249.701 1640.17 246.066 Q1643.09 242.432 1647.86 242.432 Q1650.73 242.432 1652.79 243.566 Q1654.85 244.701 1656.17 246.992 L1656.17 243.057 L1660.43 243.057 L1660.43 265.765 Z" fill="#000000" fill-rule="nonzero" fill-opacity="1" /><path clip-path="url(#clip310)" d="M1673.41 235.696 L1673.41 243.057 L1682.19 243.057 L1682.19 246.367 L1673.41 246.367 L1673.41 260.441 Q1673.41 263.613 1674.27 264.515 Q1675.15 265.418 1677.81 265.418 L1682.19 265.418 L1682.19 268.983 L1677.81 268.983 Q1672.88 268.983 1671.01 267.154 Q1669.13 265.302 1669.13 260.441 L1669.13 246.367 L1666.01 246.367 L1666.01 243.057 L1669.13 243.057 L1669.13 235.696 L1673.41 235.696 Z" fill="#000000" fill-rule="nonzero" fill-opacity="1" /><path clip-path="url(#clip310)" d="M1704.32 243.821 L1704.32 247.849 Q1702.51 246.923 1700.57 246.46 Q1698.62 245.997 1696.54 245.997 Q1693.37 245.997 1691.77 246.969 Q1690.2 247.941 1690.2 249.886 Q1690.2 251.367 1691.33 252.224 Q1692.46 253.057 1695.89 253.821 L1697.35 254.145 Q1701.89 255.117 1703.78 256.9 Q1705.7 258.659 1705.7 261.83 Q1705.7 265.441 1702.83 267.548 Q1699.99 269.654 1694.99 269.654 Q1692.9 269.654 1690.64 269.238 Q1688.39 268.844 1685.89 268.034 L1685.89 263.636 Q1688.25 264.863 1690.54 265.488 Q1692.83 266.089 1695.08 266.089 Q1698.09 266.089 1699.71 265.071 Q1701.33 264.029 1701.33 262.154 Q1701.33 260.418 1700.15 259.492 Q1698.99 258.566 1695.03 257.71 L1693.55 257.363 Q1689.59 256.529 1687.83 254.816 Q1686.08 253.08 1686.08 250.071 Q1686.08 246.414 1688.67 244.423 Q1691.26 242.432 1696.03 242.432 Q1698.39 242.432 1700.47 242.779 Q1702.56 243.127 1704.32 243.821 Z" fill="#000000" fill-rule="nonzero" fill-opacity="1" /><path clip-path="url(#clip310)" d="M1737.79 233.011 Q1734.69 238.335 1733.18 243.543 Q1731.68 248.752 1731.68 254.099 Q1731.68 259.446 1733.18 264.701 Q1734.71 269.932 1737.79 275.233 L1734.08 275.233 Q1730.61 269.793 1728.88 264.538 Q1727.16 259.284 1727.16 254.099 Q1727.16 248.937 1728.88 243.705 Q1730.59 238.474 1734.08 233.011 L1737.79 233.011 Z" fill="#000000" fill-rule="nonzero" fill-opacity="1" /><path clip-path="url(#clip310)" d="M1747.46 265.048 L1755.1 265.048 L1755.1 238.682 L1746.79 240.349 L1746.79 236.09 L1755.06 234.423 L1759.73 234.423 L1759.73 265.048 L1767.37 265.048 L1767.37 268.983 L1747.46 268.983 L1747.46 265.048 Z" fill="#000000" fill-rule="nonzero" fill-opacity="1" /><path clip-path="url(#clip310)" d="M1776.95 268.265 L1776.95 264.006 Q1778.71 264.839 1780.52 265.279 Q1782.32 265.719 1784.06 265.719 Q1788.69 265.719 1791.12 262.617 Q1793.57 259.492 1793.92 253.15 Q1792.58 255.14 1790.52 256.205 Q1788.46 257.27 1785.96 257.27 Q1780.77 257.27 1777.74 254.145 Q1774.73 250.997 1774.73 245.557 Q1774.73 240.233 1777.88 237.015 Q1781.03 233.798 1786.26 233.798 Q1792.26 233.798 1795.4 238.404 Q1798.57 242.988 1798.57 251.738 Q1798.57 259.909 1794.69 264.793 Q1790.82 269.654 1784.27 269.654 Q1782.51 269.654 1780.7 269.307 Q1778.9 268.96 1776.95 268.265 M1786.26 253.613 Q1789.41 253.613 1791.24 251.46 Q1793.09 249.307 1793.09 245.557 Q1793.09 241.83 1791.24 239.678 Q1789.41 237.502 1786.26 237.502 Q1783.11 237.502 1781.26 239.678 Q1779.43 241.83 1779.43 245.557 Q1779.43 249.307 1781.26 251.46 Q1783.11 253.613 1786.26 253.613 Z" fill="#000000" fill-rule="nonzero" fill-opacity="1" /><path clip-path="url(#clip310)" d="M1817.56 249.84 Q1814.41 249.84 1812.56 251.992 Q1810.73 254.145 1810.73 257.895 Q1810.73 261.622 1812.56 263.798 Q1814.41 265.951 1817.56 265.951 Q1820.7 265.951 1822.53 263.798 Q1824.38 261.622 1824.38 257.895 Q1824.38 254.145 1822.53 251.992 Q1820.7 249.84 1817.56 249.84 M1826.84 235.187 L1826.84 239.446 Q1825.08 238.613 1823.27 238.173 Q1821.49 237.733 1819.73 237.733 Q1815.1 237.733 1812.65 240.858 Q1810.22 243.983 1809.87 250.302 Q1811.24 248.289 1813.3 247.224 Q1815.36 246.136 1817.83 246.136 Q1823.04 246.136 1826.05 249.307 Q1829.08 252.455 1829.08 257.895 Q1829.08 263.219 1825.94 266.437 Q1822.79 269.654 1817.56 269.654 Q1811.56 269.654 1808.39 265.071 Q1805.22 260.464 1805.22 251.738 Q1805.22 243.543 1809.11 238.682 Q1813 233.798 1819.55 233.798 Q1821.31 233.798 1823.09 234.145 Q1824.89 234.492 1826.84 235.187 Z" fill="#000000" fill-rule="nonzero" fill-opacity="1" /><path clip-path="url(#clip310)" d="M1847.14 252.571 Q1843.81 252.571 1841.88 254.353 Q1839.99 256.136 1839.99 259.261 Q1839.99 262.386 1841.88 264.168 Q1843.81 265.951 1847.14 265.951 Q1850.47 265.951 1852.39 264.168 Q1854.32 262.363 1854.32 259.261 Q1854.32 256.136 1852.39 254.353 Q1850.5 252.571 1847.14 252.571 M1842.46 250.58 Q1839.45 249.84 1837.76 247.779 Q1836.1 245.719 1836.1 242.756 Q1836.1 238.613 1839.04 236.205 Q1842 233.798 1847.14 233.798 Q1852.3 233.798 1855.24 236.205 Q1858.18 238.613 1858.18 242.756 Q1858.18 245.719 1856.49 247.779 Q1854.82 249.84 1851.84 250.58 Q1855.22 251.367 1857.09 253.659 Q1858.99 255.951 1858.99 259.261 Q1858.99 264.284 1855.91 266.969 Q1852.86 269.654 1847.14 269.654 Q1841.42 269.654 1838.34 266.969 Q1835.29 264.284 1835.29 259.261 Q1835.29 255.951 1837.19 253.659 Q1839.08 251.367 1842.46 250.58 M1840.75 243.196 Q1840.75 245.881 1842.42 247.386 Q1844.11 248.89 1847.14 248.89 Q1850.15 248.89 1851.84 247.386 Q1853.55 245.881 1853.55 243.196 Q1853.55 240.511 1851.84 239.006 Q1850.15 237.502 1847.14 237.502 Q1844.11 237.502 1842.42 239.006 Q1840.75 240.511 1840.75 243.196 Z" fill="#000000" fill-rule="nonzero" fill-opacity="1" /><path clip-path="url(#clip310)" d="M1866.03 233.011 L1869.73 233.011 Q1873.2 238.474 1874.92 243.705 Q1876.65 248.937 1876.65 254.099 Q1876.65 259.284 1874.92 264.538 Q1873.2 269.793 1869.73 275.233 L1866.03 275.233 Q1869.11 269.932 1870.61 264.701 Q1872.14 259.446 1872.14 254.099 Q1872.14 248.752 1870.61 243.543 Q1869.11 238.335 1866.03 233.011 Z" fill="#000000" fill-rule="nonzero" fill-opacity="1" /></svg>
