<?xml version="1.0" encoding="UTF-8" standalone="no"?>
<!-- Created with Inkscape (http://www.inkscape.org/) -->

<svg
   width="106.0236mm"
   height="47.625mm"
   viewBox="0 0 106.0236 47.625"
   version="1.1"
   id="svg1"
   inkscape:version="1.4 (86a8ad7, 2024-10-11)"
   sodipodi:docname="cylinder.svg"
   xmlns:inkscape="http://www.inkscape.org/namespaces/inkscape"
   xmlns:sodipodi="http://sodipodi.sourceforge.net/DTD/sodipodi-0.dtd"
   xmlns="http://www.w3.org/2000/svg"
   xmlns:svg="http://www.w3.org/2000/svg">
  <sodipodi:namedview
     id="namedview1"
     pagecolor="#ffffff"
     bordercolor="#000000"
     borderopacity="0.25"
     inkscape:showpageshadow="2"
     inkscape:pageopacity="0.0"
     inkscape:pagecheckerboard="0"
     inkscape:deskcolor="#d1d1d1"
     inkscape:document-units="mm"
     showgrid="false"
     inkscape:zoom="1.8519888"
     inkscape:cx="229.75301"
     inkscape:cy="101.78247"
     inkscape:window-width="1920"
     inkscape:window-height="974"
     inkscape:window-x="-11"
     inkscape:window-y="-11"
     inkscape:window-maximized="1"
     inkscape:current-layer="layer3">
    <inkscape:grid
       id="grid1"
       units="mm"
       originx="-67.000453"
       originy="-103.46246"
       spacingx="0.99999998"
       spacingy="1"
       empcolor="#0099e5"
       empopacity="0.30196078"
       color="#0099e5"
       opacity="0.14901961"
       empspacing="5"
       enabled="true"
       visible="false" />
    <inkscape:page
       x="0"
       y="0"
       width="106.0236"
       height="47.625"
       id="page27"
       margin="0"
       bleed="0" />
  </sodipodi:namedview>
  <defs
     id="defs1">
    <inkscape:path-effect
       effect="bspline"
       id="path-effect6"
       is_visible="true"
       lpeversion="1.3"
       weight="33.333333"
       steps="2"
       helper_size="0"
       apply_no_weight="true"
       apply_with_weight="true"
       only_selected="false"
       uniform="false" />
    <inkscape:path-effect
       effect="bspline"
       id="path-effect27"
       is_visible="true"
       lpeversion="1.3"
       weight="33.333333"
       steps="2"
       helper_size="0"
       apply_no_weight="true"
       apply_with_weight="true"
       only_selected="false"
       uniform="false" />
    <inkscape:path-effect
       effect="bspline"
       id="path-effect26"
       is_visible="true"
       lpeversion="1.3"
       weight="33.333333"
       steps="2"
       helper_size="0"
       apply_no_weight="true"
       apply_with_weight="true"
       only_selected="false"
       uniform="false" />
    <inkscape:path-effect
       effect="bspline"
       id="path-effect24"
       is_visible="true"
       lpeversion="1.3"
       weight="33.333333"
       steps="2"
       helper_size="0"
       apply_no_weight="true"
       apply_with_weight="true"
       only_selected="false"
       uniform="false" />
    <inkscape:path-effect
       effect="bspline"
       id="path-effect22"
       is_visible="true"
       lpeversion="1.3"
       weight="33.333333"
       steps="2"
       helper_size="0"
       apply_no_weight="true"
       apply_with_weight="true"
       only_selected="false"
       uniform="false" />
    <inkscape:path-effect
       effect="bspline"
       id="path-effect19"
       is_visible="true"
       lpeversion="1.3"
       weight="33.333333"
       steps="2"
       helper_size="0"
       apply_no_weight="true"
       apply_with_weight="true"
       only_selected="false"
       uniform="false" />
    <inkscape:path-effect
       effect="bspline"
       id="path-effect15"
       is_visible="true"
       lpeversion="1.3"
       weight="33.333333"
       steps="2"
       helper_size="0"
       apply_no_weight="true"
       apply_with_weight="true"
       only_selected="false"
       uniform="false" />
    <inkscape:path-effect
       effect="bspline"
       id="path-effect14"
       is_visible="true"
       lpeversion="1.3"
       weight="33.333333"
       steps="2"
       helper_size="0"
       apply_no_weight="true"
       apply_with_weight="true"
       only_selected="false"
       uniform="false" />
    <inkscape:path-effect
       effect="bspline"
       id="path-effect12"
       is_visible="true"
       lpeversion="1.3"
       weight="33.333333"
       steps="2"
       helper_size="0"
       apply_no_weight="true"
       apply_with_weight="true"
       only_selected="false"
       uniform="false" />
    <marker
       style="overflow:visible"
       id="DartArrow"
       refX="6"
       refY="0"
       orient="auto-start-reverse"
       inkscape:stockid="Dart arrow"
       markerWidth="1"
       markerHeight="1"
       viewBox="0 0 1 1"
       inkscape:isstock="true"
       inkscape:collect="always"
       preserveAspectRatio="xMidYMid">
      <path
         style="fill:context-stroke;fill-rule:evenodd;stroke:none"
         d="M 0,0 5,-5 -12.5,0 5,5 Z"
         transform="scale(-0.5)"
         id="path6" />
    </marker>
    <inkscape:path-effect
       effect="bspline"
       id="path-effect10"
       is_visible="true"
       lpeversion="1.3"
       weight="33.333333"
       steps="2"
       helper_size="0"
       apply_no_weight="true"
       apply_with_weight="true"
       only_selected="false"
       uniform="false" />
    <inkscape:path-effect
       effect="bspline"
       id="path-effect8"
       is_visible="true"
       lpeversion="1.3"
       weight="33.333333"
       steps="2"
       helper_size="0"
       apply_no_weight="true"
       apply_with_weight="true"
       only_selected="false"
       uniform="false" />
    <inkscape:path-effect
       effect="bspline"
       id="path-effect4"
       is_visible="true"
       lpeversion="1.3"
       weight="33.333333"
       steps="2"
       helper_size="0"
       apply_no_weight="true"
       apply_with_weight="true"
       only_selected="false"
       uniform="false" />
    <inkscape:path-effect
       effect="bspline"
       id="path-effect3"
       is_visible="true"
       lpeversion="1.3"
       weight="33.333333"
       steps="2"
       helper_size="0"
       apply_no_weight="true"
       apply_with_weight="true"
       only_selected="false"
       uniform="false" />
    <inkscape:path-effect
       effect="bspline"
       id="path-effect2"
       is_visible="true"
       lpeversion="1.3"
       weight="33.333333"
       steps="2"
       helper_size="0"
       apply_no_weight="true"
       apply_with_weight="true"
       only_selected="false"
       uniform="false" />
    <inkscape:path-effect
       effect="bspline"
       id="path-effect15-4"
       is_visible="true"
       lpeversion="1.3"
       weight="33.333333"
       steps="2"
       helper_size="0"
       apply_no_weight="true"
       apply_with_weight="true"
       only_selected="false"
       uniform="false" />
  </defs>
  <rect
     style="display:inline;fill:#ffffff;fill-opacity:1;stroke:none;stroke-width:0.122588;stroke-dasharray:none;stroke-opacity:1"
     id="rect27"
     width="106.0236"
     height="47.625"
     x="-7.0623287e-08"
     y="1.9602629e-08"
     inkscape:label="background" />
  <g
     inkscape:groupmode="layer"
     id="layer2"
     inkscape:label="water"
     transform="translate(-67.000452,-103.46246)"
     style="stroke-width:0.26458333;stroke-dasharray:none">
    <path
       style="fill:none;stroke:#2254d4;stroke-width:0.29213406;stroke-dasharray:none;stroke-opacity:1"
       d="m 90.110211,109.9102 c -8.081634,0 -16.163271,0 -24.244906,0"
       id="path24"
       inkscape:path-effect="#path-effect26"
       inkscape:original-d="m 90.110211,109.9102 c -8.081634,0 -16.163271,0 -24.244906,0"
       transform="matrix(0.8202771,0,0,1,95.88649,0.79181772)" />
    <path
       style="fill:none;stroke:#2254d4;stroke-width:0.29213406;stroke-dasharray:none;stroke-opacity:1"
       d="m 90.110211,109.9102 c -8.081634,0 -16.163271,0 -24.244906,0"
       id="path15"
       inkscape:path-effect="#path-effect15"
       inkscape:original-d="m 90.110211,109.9102 c -8.081634,0 -16.163271,0 -24.244906,0"
       transform="matrix(0.8202771,0,0,1,16.19487,0.79181772)" />
    <path
       sodipodi:type="star"
       style="fill:none;fill-opacity:1;stroke:#2254d4;stroke-width:0.26458333;stroke-dasharray:none;stroke-opacity:1"
       id="path18"
       inkscape:flatsided="false"
       sodipodi:sides="3"
       sodipodi:cx="74.047958"
       sodipodi:cy="95.363266"
       sodipodi:r1="3.1575949"
       sodipodi:r2="1.5787975"
       sodipodi:arg1="1.5707963"
       sodipodi:arg2="2.6179939"
       inkscape:rounded="0"
       inkscape:randomized="0"
       d="m 74.047958,98.520861 -1.367278,-2.368196 -1.367279,-2.368196 2.734557,0 2.734558,-10e-7 -1.367279,2.368197 z"
       inkscape:transform-center-y="0.78939871"
       transform="translate(6.118483,12.115011)" />
    <path
       style="fill:none;fill-opacity:1;stroke:#2254d4;stroke-width:0.26458333;stroke-dasharray:none;stroke-opacity:1"
       d="m 75.253201,104.97537 c 1.823037,0 3.646075,0 5.469115,0"
       id="path19"
       inkscape:path-effect="#path-effect19"
       inkscape:original-d="m 75.253201,104.97537 c 1.823037,0 3.646075,0 5.469115,0"
       transform="translate(2.1786827,6.4588858)" />
    <path
       style="fill:none;fill-opacity:1;stroke:#2254d4;stroke-width:0.347349;stroke-dasharray:none;stroke-opacity:1"
       d="m 75.253201,104.97537 c 1.823037,0 3.646075,0 5.469115,0"
       id="path21"
       inkscape:path-effect="#path-effect22"
       inkscape:original-d="m 75.253201,104.97537 c 1.823037,0 3.646075,0 5.469115,0"
       transform="matrix(0.67965291,0,0,0.85370302,27.161834,22.606936)" />
    <path
       style="fill:none;fill-opacity:1;stroke:#2254d4;stroke-width:0.347349;stroke-dasharray:none;stroke-opacity:1"
       d="m 75.253201,104.97537 c 1.823037,0 3.646075,0 5.469115,0"
       id="path5"
       inkscape:path-effect="#path-effect6"
       inkscape:original-d="m 75.253201,104.97537 c 1.823037,0 3.646075,0 5.469115,0"
       transform="matrix(0.41182238,0,0,0.85370302,48.049337,23.406936)" />
  </g>
  <g
     inkscape:label="cylinder"
     inkscape:groupmode="layer"
     id="layer1"
     style="display:inline;stroke-width:0.52916667;stroke-dasharray:none"
     transform="translate(-67.000452,-103.46246)">
    <path
       id="path1"
       style="fill:#ffb0b0;stroke:#ff0000;stroke-width:0.529167;stroke-dasharray:none;stroke-opacity:1;fill-opacity:0.49887639"
       d="m 149.91429,110.70202 c 0,16.51444 -13.3876,29.90204 -29.90204,29.90204 -16.51444,0 -29.902038,-13.3876 -29.902039,-29.90204 19.934689,0 39.869389,0 59.804079,0 z"
       sodipodi:nodetypes="ssccs" />
  </g>
  <g
     inkscape:groupmode="layer"
     id="layer4"
     inkscape:label="coordinate system"
     style="display:inline;stroke-width:0.26458333;stroke-dasharray:none"
     transform="translate(-67.000452,-103.46246)">
    <path
       id="path10"
       style="display:inline;fill:none;stroke:#000000;stroke-width:0.26458333;stroke-dasharray:none;stroke-opacity:1;marker-start:url(#DartArrow)"
       d="m 127.15874,125.53669 a 16.466322,16.466322 0 0 1 -7.14649,1.63165" />
    <path
       id="path14"
       style="display:inline;fill:none;stroke:#000000;stroke-width:0.26458333;stroke-dasharray:none;stroke-opacity:1;marker-start:url(#DartArrow)"
       d="M 120.01225,147.2982 V 110.70201" />
    <path
       style="display:inline;fill:none;stroke:#000000;stroke-width:0.32985143;stroke-dasharray:none;stroke-opacity:1;marker-start:url(#DartArrow)"
       d="m 149.91429,109.9102 c -19.93469,0 -39.86939,0 -59.804079,0"
       id="path3"
       inkscape:path-effect="#path-effect3"
       inkscape:original-d="m 149.91429,109.9102 c -19.93469,0 -39.86939,0 -59.804079,0"
       transform="matrix(0.64341063,0,0,1,62.034383,0.79181772)" />
    <path
       style="display:inline;fill:none;stroke:#000000;stroke-width:0.21534693;stroke-dasharray:none;stroke-opacity:1;marker-end:url(#DartArrow)"
       d="m 120.01225,109.9102 c 4.31771,8.98362 8.63541,17.96724 12.95312,26.95086"
       id="path4"
       transform="matrix(1.2286376,0,0,1.2286376,-27.418702,-24.32788)"
       inkscape:original-d="m 120.01225,109.9102 c 4.31771,8.98362 8.63541,17.96724 12.95312,26.95086"
       inkscape:path-effect="#path-effect4" />
  </g>
  <g
     inkscape:groupmode="layer"
     id="layer3"
     inkscape:label="text"
     style="display:inline"
     transform="translate(-67.000452,-103.46246)">
    <path
       style="font-style:italic;font-size:5.29167px;font-family:Cambria;-inkscape-font-specification:'Cambria Italic';stroke:#000000;stroke-width:0"
       d="m 160.71668,112.58476 q -0.50126,0.53485 -1.04903,1.05678 l 0.24029,0.56586 q 0.0956,0.22737 0.15245,0.33589 0.0568,0.10594 0.10335,0.15503 0.0465,0.0465 0.093,0.0698 0.0465,0.0207 0.14728,0.0336 l -0.0284,0.1266 h -0.64338 l -0.35915,-1.03869 q -0.062,0.0543 -0.16536,0.15244 -0.10077,0.0956 -0.19637,0.20671 -0.0956,0.10852 -0.13436,0.1757 -0.0388,0.0672 -0.0517,0.11627 -0.0103,0.0491 -0.0103,0.10077 0,0.0672 0.0362,0.10594 0.0388,0.0387 0.12919,0.0543 l -0.0284,0.1266 h -0.73639 l -0.0491,-0.1266 q 0.56586,-0.6072 1.11363,-1.1188 l -0.24547,-0.57619 q -0.0749,-0.1757 -0.12144,-0.26614 -0.0465,-0.093 -0.0904,-0.14211 -0.0413,-0.0517 -0.0982,-0.0775 -0.0543,-0.0284 -0.15761,-0.0362 l 0.0284,-0.12661 h 0.64337 l 0.34365,0.9741 q 0.12661,-0.11627 0.2403,-0.2403 0.11369,-0.12402 0.1602,-0.19637 0.0465,-0.0723 0.0646,-0.12919 0.0181,-0.0568 0.0181,-0.11885 0,-0.14211 -0.16537,-0.16278 l 0.0284,-0.12661 h 0.73638 z"
       id="text1"
       aria-label="x" />
    <path
       style="font-style:italic;font-size:5.29167px;font-family:Cambria;-inkscape-font-specification:'Cambria Italic';stroke:#000000;stroke-width:0"
       d="m 138.19133,142.15284 h 0.15502 l -0.18086,0.63562 0.031,0.0103 q 0.24547,-0.33848 0.47801,-0.50126 0.23513,-0.16278 0.48318,-0.16278 0.18861,0 0.31522,0.0284 l -0.12402,0.57878 h -0.26614 q -0.0207,-0.13436 -0.0646,-0.20412 -0.0439,-0.0698 -0.13694,-0.0698 -0.10077,0 -0.23255,0.10335 -0.13177,0.10336 -0.26872,0.28423 -0.13694,0.18086 -0.2067,0.33331 -0.0672,0.15244 -0.10335,0.33848 l -0.23513,1.11879 h -0.447 l 0.39274,-1.76475 q 0.0543,-0.24288 0.0543,-0.36948 0,-0.0724 -0.0233,-0.11111 -0.0232,-0.0413 -0.0749,-0.0594 -0.0517,-0.0207 -0.1757,-0.0284 l 0.0284,-0.13694 z"
       id="text2"
       aria-label="r" />
    <path
       style="font-style:italic;font-size:5.29167px;font-family:Cambria;-inkscape-font-specification:'Cambria Italic';stroke:#000000;stroke-width:0"
       d="m 116.12818,145.87038 q -0.0258,-0.19638 -0.0491,-0.27131 -0.0232,-0.0775 -0.0749,-0.11627 -0.0517,-0.0413 -0.16795,-0.0491 l 0.0284,-0.12661 h 0.66405 l 0.19637,2.05414 q 0.87333,-1.19372 0.87333,-1.71049 0,-0.12144 -0.0517,-0.16536 -0.0517,-0.0439 -0.1757,-0.0517 l 0.0258,-0.12661 h 0.66663 l 0.0698,0.12919 q -0.13694,0.35915 -0.3514,0.74414 -0.21187,0.38499 -0.52193,0.84233 -0.30748,0.45734 -0.68471,0.95085 -0.28939,0.37982 -0.48576,0.57361 -0.15245,0.14727 -0.28164,0.22221 -0.12661,0.0775 -0.24546,0.10852 -0.12144,0.0336 -0.2558,0.0336 -0.0698,0 -0.15761,-0.0155 -0.0879,-0.0129 -0.14987,-0.0362 l 0.11111,-0.48318 h 0.20154 q 0.003,0.0879 0.0413,0.13953 0.0388,0.0517 0.11369,0.0517 0.0827,0 0.14211,-0.0181 0.0594,-0.0155 0.12402,-0.0543 0.0672,-0.0388 0.1602,-0.12402 0.0956,-0.0853 0.21445,-0.22738 0.11886,-0.13953 0.26614,-0.33848 z"
       id="text3"
       aria-label="y" />
    <path
       style="font-style:italic;font-size:5.29167px;font-family:Cambria;-inkscape-font-specification:'Cambria Italic';stroke:#000000;stroke-width:0"
       d="m 123.86251,132.06782 q -0.82941,0 -0.82941,-1.04129 0,-0.89917 0.48317,-1.76991 0.48576,-0.87075 1.2299,-0.87075 0.78032,0 0.78032,1.02061 0,0.90434 -0.47284,1.78284 -0.47284,0.8785 -1.19114,0.8785 z m -0.19896,-2.03606 h 1.32809 q 0.10077,-0.54777 0.10077,-0.84232 0,-0.58653 -0.39791,-0.58653 -0.30231,0 -0.57103,0.37207 -0.26872,0.37207 -0.45992,1.05678 z m -0.0646,0.24288 q -0.13695,0.58136 -0.13695,0.97927 0,0.59686 0.44959,0.59686 0.32039,0 0.58394,-0.41599 0.26614,-0.416 0.44184,-1.16014 z m 1.05678,-1.91978 z"
       id="text4"
       aria-label="θ" />
    <path
       d="m 88.128787,132.05858 h 0.15503 l -0.180868,0.63562 0.03101,0.0103 q 0.245463,-0.33848 0.478007,-0.50126 0.235128,-0.16278 0.483175,-0.16278 0.188619,0 0.315227,0.0284 l -0.124024,0.57877 h -0.266134 q -0.02067,-0.13436 -0.06459,-0.20412 -0.04393,-0.0698 -0.136943,-0.0698 -0.100769,0 -0.232544,0.10335 -0.131775,0.10335 -0.268718,0.28422 -0.136942,0.18087 -0.206705,0.33332 -0.06718,0.15244 -0.103353,0.33848 l -0.235128,1.11879 h -0.447002 l 0.392741,-1.76475 q 0.05426,-0.24288 0.05426,-0.36949 0,-0.0723 -0.02326,-0.1111 -0.02325,-0.0413 -0.07493,-0.0594 -0.05168,-0.0207 -0.1757,-0.0284 l 0.02842,-0.13694 z m 2.75694,0.62012 0.07751,-0.34882 h 2.144574 l -0.07752,0.34882 z m -0.235128,1.07229 0.07752,-0.34882 h 2.144573 l -0.07752,0.34882 z m 5.885949,-1.54255 0.237712,-0.17053 0.165364,0.0413 -0.395325,1.75442 q -0.03617,0.15503 -0.04909,0.24029 -0.01292,0.0827 -0.01292,0.13695 0,0.10593 0.05943,0.15503 0.05943,0.0465 0.227376,0.0594 l -0.02325,0.12661 h -0.738974 l 0.162781,-0.64854 -0.03359,-0.0103 q -0.248047,0.36173 -0.470255,0.52968 -0.222209,0.16795 -0.470256,0.16795 -0.284221,0 -0.441834,-0.21446 -0.155029,-0.21446 -0.155029,-0.60203 0,-0.24805 0.05684,-0.49609 0.05684,-0.25063 0.170532,-0.47284 0.116272,-0.2248 0.276469,-0.39533 0.160197,-0.17053 0.369487,-0.2713 0.211873,-0.10077 0.45992,-0.10077 0.160197,0 0.304892,0.0388 0.144694,0.0362 0.299723,0.13177 z m -0.227376,0.76998 q 0.02325,-0.10593 0.031,-0.18345 0.0078,-0.0775 0.0078,-0.16795 0,-0.20154 -0.08527,-0.29197 -0.08527,-0.093 -0.284221,-0.093 -0.10852,0 -0.206706,0.0362 -0.09819,0.0336 -0.198954,0.11627 -0.100769,0.0801 -0.193787,0.21187 -0.09043,0.13178 -0.165364,0.3204 -0.07493,0.18862 -0.116273,0.40566 -0.04134,0.21445 -0.04134,0.41858 0,0.26871 0.07235,0.40307 0.07493,0.13178 0.248047,0.13178 0.0801,0 0.165365,-0.0362 0.08785,-0.0362 0.193787,-0.13177 0.105937,-0.0982 0.240295,-0.28681 0.12144,-0.17311 0.191203,-0.34106 0.07235,-0.17053 0.118856,-0.40049 z"
       id="text5"
       style="font-style:italic;font-size:5.29167px;font-family:Cambria;-inkscape-font-specification:'Cambria Italic';fill:#ff0000;stroke:#ff0000;stroke-width:0"
       aria-label="r = a" />
  </g>
</svg>
