<?xml version="1.0" encoding="utf-8"?>
<svg xmlns="http://www.w3.org/2000/svg" xmlns:xlink="http://www.w3.org/1999/xlink" width="500" height="300" viewBox="0 0 2000 1200">
<defs>
  <clipPath id="clip650">
    <rect x="0" y="0" width="2000" height="1200"/>
  </clipPath>
</defs>
<path clip-path="url(#clip650)" d="M0 1200 L2000 1200 L2000 0 L0 0  Z" fill="#ffffff" fill-rule="evenodd" fill-opacity="1"/>
<defs>
  <clipPath id="clip651">
    <rect x="400" y="0" width="1401" height="1200"/>
  </clipPath>
</defs>
<path clip-path="url(#clip650)" d="M181.927 1035.39 L1952.76 1035.39 L1952.76 117.424 L181.927 117.424  Z" fill="#ffffff" fill-rule="evenodd" fill-opacity="1"/>
<defs>
  <clipPath id="clip652">
    <rect x="181" y="117" width="1772" height="919"/>
  </clipPath>
</defs>
<polyline clip-path="url(#clip652)" style="stroke:#000000; stroke-linecap:round; stroke-linejoin:round; stroke-width:2; stroke-opacity:0.1; fill:none" points="563.625,1035.39 563.625,117.424 "/>
<polyline clip-path="url(#clip652)" style="stroke:#000000; stroke-linecap:round; stroke-linejoin:round; stroke-width:2; stroke-opacity:0.1; fill:none" points="1009.96,1035.39 1009.96,117.424 "/>
<polyline clip-path="url(#clip652)" style="stroke:#000000; stroke-linecap:round; stroke-linejoin:round; stroke-width:2; stroke-opacity:0.1; fill:none" points="1456.3,1035.39 1456.3,117.424 "/>
<polyline clip-path="url(#clip652)" style="stroke:#000000; stroke-linecap:round; stroke-linejoin:round; stroke-width:2; stroke-opacity:0.1; fill:none" points="1902.64,1035.39 1902.64,117.424 "/>
<polyline clip-path="url(#clip652)" style="stroke:#000000; stroke-linecap:round; stroke-linejoin:round; stroke-width:2; stroke-opacity:0.1; fill:none" points="181.927,932.559 1952.76,932.559 "/>
<polyline clip-path="url(#clip652)" style="stroke:#000000; stroke-linecap:round; stroke-linejoin:round; stroke-width:2; stroke-opacity:0.1; fill:none" points="181.927,808.042 1952.76,808.042 "/>
<polyline clip-path="url(#clip652)" style="stroke:#000000; stroke-linecap:round; stroke-linejoin:round; stroke-width:2; stroke-opacity:0.1; fill:none" points="181.927,683.524 1952.76,683.524 "/>
<polyline clip-path="url(#clip652)" style="stroke:#000000; stroke-linecap:round; stroke-linejoin:round; stroke-width:2; stroke-opacity:0.1; fill:none" points="181.927,559.007 1952.76,559.007 "/>
<polyline clip-path="url(#clip652)" style="stroke:#000000; stroke-linecap:round; stroke-linejoin:round; stroke-width:2; stroke-opacity:0.1; fill:none" points="181.927,434.49 1952.76,434.49 "/>
<polyline clip-path="url(#clip652)" style="stroke:#000000; stroke-linecap:round; stroke-linejoin:round; stroke-width:2; stroke-opacity:0.1; fill:none" points="181.927,309.972 1952.76,309.972 "/>
<polyline clip-path="url(#clip652)" style="stroke:#000000; stroke-linecap:round; stroke-linejoin:round; stroke-width:2; stroke-opacity:0.1; fill:none" points="181.927,185.455 1952.76,185.455 "/>
<polyline clip-path="url(#clip650)" style="stroke:#000000; stroke-linecap:round; stroke-linejoin:round; stroke-width:4; stroke-opacity:1; fill:none" points="181.927,1035.39 1952.76,1035.39 "/>
<polyline clip-path="url(#clip650)" style="stroke:#000000; stroke-linecap:round; stroke-linejoin:round; stroke-width:4; stroke-opacity:1; fill:none" points="563.625,1035.39 563.625,1016.49 "/>
<polyline clip-path="url(#clip650)" style="stroke:#000000; stroke-linecap:round; stroke-linejoin:round; stroke-width:4; stroke-opacity:1; fill:none" points="1009.96,1035.39 1009.96,1016.49 "/>
<polyline clip-path="url(#clip650)" style="stroke:#000000; stroke-linecap:round; stroke-linejoin:round; stroke-width:4; stroke-opacity:1; fill:none" points="1456.3,1035.39 1456.3,1016.49 "/>
<polyline clip-path="url(#clip650)" style="stroke:#000000; stroke-linecap:round; stroke-linejoin:round; stroke-width:4; stroke-opacity:1; fill:none" points="1902.64,1035.39 1902.64,1016.49 "/>
<path clip-path="url(#clip650)" d="M541.508 1063.11 Q537.896 1063.11 536.068 1066.67 Q534.262 1070.21 534.262 1077.34 Q534.262 1084.45 536.068 1088.01 Q537.896 1091.56 541.508 1091.56 Q545.142 1091.56 546.947 1088.01 Q548.776 1084.45 548.776 1077.34 Q548.776 1070.21 546.947 1066.67 Q545.142 1063.11 541.508 1063.11 M541.508 1059.4 Q547.318 1059.4 550.373 1064.01 Q553.452 1068.59 553.452 1077.34 Q553.452 1086.07 550.373 1090.68 Q547.318 1095.26 541.508 1095.26 Q535.697 1095.26 532.619 1090.68 Q529.563 1086.07 529.563 1077.34 Q529.563 1068.59 532.619 1064.01 Q535.697 1059.4 541.508 1059.4 Z" fill="#000000" fill-rule="nonzero" fill-opacity="1" /><path clip-path="url(#clip650)" d="M561.669 1088.71 L566.554 1088.71 L566.554 1094.59 L561.669 1094.59 L561.669 1088.71 Z" fill="#000000" fill-rule="nonzero" fill-opacity="1" /><path clip-path="url(#clip650)" d="M576.785 1060.03 L595.142 1060.03 L595.142 1063.96 L581.068 1063.96 L581.068 1072.44 Q582.086 1072.09 583.105 1071.93 Q584.123 1071.74 585.142 1071.74 Q590.929 1071.74 594.308 1074.91 Q597.688 1078.08 597.688 1083.5 Q597.688 1089.08 594.216 1092.18 Q590.743 1095.26 584.424 1095.26 Q582.248 1095.26 579.98 1094.89 Q577.734 1094.52 575.327 1093.78 L575.327 1089.08 Q577.41 1090.21 579.632 1090.77 Q581.855 1091.32 584.331 1091.32 Q588.336 1091.32 590.674 1089.22 Q593.012 1087.11 593.012 1083.5 Q593.012 1079.89 590.674 1077.78 Q588.336 1075.68 584.331 1075.68 Q582.456 1075.68 580.581 1076.09 Q578.73 1076.51 576.785 1077.39 L576.785 1060.03 Z" fill="#000000" fill-rule="nonzero" fill-opacity="1" /><path clip-path="url(#clip650)" d="M977.116 1090.65 L984.755 1090.65 L984.755 1064.29 L976.445 1065.95 L976.445 1061.69 L984.709 1060.03 L989.384 1060.03 L989.384 1090.65 L997.023 1090.65 L997.023 1094.59 L977.116 1094.59 L977.116 1090.65 Z" fill="#000000" fill-rule="nonzero" fill-opacity="1" /><path clip-path="url(#clip650)" d="M1006.47 1088.71 L1011.35 1088.71 L1011.35 1094.59 L1006.47 1094.59 L1006.47 1088.71 Z" fill="#000000" fill-rule="nonzero" fill-opacity="1" /><path clip-path="url(#clip650)" d="M1031.54 1063.11 Q1027.93 1063.11 1026.1 1066.67 Q1024.29 1070.21 1024.29 1077.34 Q1024.29 1084.45 1026.1 1088.01 Q1027.93 1091.56 1031.54 1091.56 Q1035.17 1091.56 1036.98 1088.01 Q1038.81 1084.45 1038.81 1077.34 Q1038.81 1070.21 1036.98 1066.67 Q1035.17 1063.11 1031.54 1063.11 M1031.54 1059.4 Q1037.35 1059.4 1040.4 1064.01 Q1043.48 1068.59 1043.48 1077.34 Q1043.48 1086.07 1040.4 1090.68 Q1037.35 1095.26 1031.54 1095.26 Q1025.73 1095.26 1022.65 1090.68 Q1019.59 1086.07 1019.59 1077.34 Q1019.59 1068.59 1022.65 1064.01 Q1025.73 1059.4 1031.54 1059.4 Z" fill="#000000" fill-rule="nonzero" fill-opacity="1" /><path clip-path="url(#clip650)" d="M1423.95 1090.65 L1431.59 1090.65 L1431.59 1064.29 L1423.28 1065.95 L1423.28 1061.69 L1431.54 1060.03 L1436.22 1060.03 L1436.22 1090.65 L1443.86 1090.65 L1443.86 1094.59 L1423.95 1094.59 L1423.95 1090.65 Z" fill="#000000" fill-rule="nonzero" fill-opacity="1" /><path clip-path="url(#clip650)" d="M1453.3 1088.71 L1458.19 1088.71 L1458.19 1094.59 L1453.3 1094.59 L1453.3 1088.71 Z" fill="#000000" fill-rule="nonzero" fill-opacity="1" /><path clip-path="url(#clip650)" d="M1468.42 1060.03 L1486.77 1060.03 L1486.77 1063.96 L1472.7 1063.96 L1472.7 1072.44 Q1473.72 1072.09 1474.74 1071.93 Q1475.76 1071.74 1476.77 1071.74 Q1482.56 1071.74 1485.94 1074.91 Q1489.32 1078.08 1489.32 1083.5 Q1489.32 1089.08 1485.85 1092.18 Q1482.38 1095.26 1476.06 1095.26 Q1473.88 1095.26 1471.61 1094.89 Q1469.37 1094.52 1466.96 1093.78 L1466.96 1089.08 Q1469.04 1090.21 1471.27 1090.77 Q1473.49 1091.32 1475.96 1091.32 Q1479.97 1091.32 1482.31 1089.22 Q1484.65 1087.11 1484.65 1083.5 Q1484.65 1079.89 1482.31 1077.78 Q1479.97 1075.68 1475.96 1075.68 Q1474.09 1075.68 1472.21 1076.09 Q1470.36 1076.51 1468.42 1077.39 L1468.42 1060.03 Z" fill="#000000" fill-rule="nonzero" fill-opacity="1" /><path clip-path="url(#clip650)" d="M1873.88 1090.65 L1890.2 1090.65 L1890.2 1094.59 L1868.25 1094.59 L1868.25 1090.65 Q1870.91 1087.9 1875.5 1083.27 Q1880.1 1078.62 1881.28 1077.27 Q1883.53 1074.75 1884.41 1073.01 Q1885.31 1071.25 1885.31 1069.56 Q1885.31 1066.81 1883.37 1065.07 Q1881.45 1063.34 1878.34 1063.34 Q1876.15 1063.34 1873.69 1064.1 Q1871.26 1064.87 1868.48 1066.42 L1868.48 1061.69 Q1871.31 1060.56 1873.76 1059.98 Q1876.21 1059.4 1878.25 1059.4 Q1883.62 1059.4 1886.82 1062.09 Q1890.01 1064.77 1890.01 1069.26 Q1890.01 1071.39 1889.2 1073.31 Q1888.41 1075.21 1886.31 1077.81 Q1885.73 1078.48 1882.63 1081.69 Q1879.52 1084.89 1873.88 1090.65 Z" fill="#000000" fill-rule="nonzero" fill-opacity="1" /><path clip-path="url(#clip650)" d="M1900.01 1088.71 L1904.9 1088.71 L1904.9 1094.59 L1900.01 1094.59 L1900.01 1088.71 Z" fill="#000000" fill-rule="nonzero" fill-opacity="1" /><path clip-path="url(#clip650)" d="M1925.08 1063.11 Q1921.47 1063.11 1919.64 1066.67 Q1917.83 1070.21 1917.83 1077.34 Q1917.83 1084.45 1919.64 1088.01 Q1921.47 1091.56 1925.08 1091.56 Q1928.71 1091.56 1930.52 1088.01 Q1932.35 1084.45 1932.35 1077.34 Q1932.35 1070.21 1930.52 1066.67 Q1928.71 1063.11 1925.08 1063.11 M1925.08 1059.4 Q1930.89 1059.4 1933.95 1064.01 Q1937.02 1068.59 1937.02 1077.34 Q1937.02 1086.07 1933.95 1090.68 Q1930.89 1095.26 1925.08 1095.26 Q1919.27 1095.26 1916.19 1090.68 Q1913.14 1086.07 1913.14 1077.34 Q1913.14 1068.59 1916.19 1064.01 Q1919.27 1059.4 1925.08 1059.4 Z" fill="#000000" fill-rule="nonzero" fill-opacity="1" /><path clip-path="url(#clip650)" d="M1057.63 1175.17 Q1044.42 1175.17 1044.42 1156.27 Q1044.42 1148.79 1049.36 1138.6 L1055.66 1138.6 Q1051.11 1148.79 1051.11 1156.43 Q1051.11 1170.21 1058.17 1170.21 Q1064.64 1170.21 1064.64 1153.09 L1070.05 1153.09 Q1070.05 1170.21 1076.51 1170.21 Q1083.57 1170.21 1083.57 1156.43 Q1083.57 1148.79 1079.02 1138.6 L1085.32 1138.6 Q1090.26 1148.79 1090.26 1156.27 Q1090.26 1175.17 1077.05 1175.17 Q1068.39 1175.17 1067.34 1165.66 Q1066.04 1175.17 1057.63 1175.17 Z" fill="#000000" fill-rule="nonzero" fill-opacity="1" /><polyline clip-path="url(#clip650)" style="stroke:#000000; stroke-linecap:round; stroke-linejoin:round; stroke-width:4; stroke-opacity:1; fill:none" points="181.927,1035.39 181.927,117.424 "/>
<polyline clip-path="url(#clip650)" style="stroke:#000000; stroke-linecap:round; stroke-linejoin:round; stroke-width:4; stroke-opacity:1; fill:none" points="181.927,932.559 200.824,932.559 "/>
<polyline clip-path="url(#clip650)" style="stroke:#000000; stroke-linecap:round; stroke-linejoin:round; stroke-width:4; stroke-opacity:1; fill:none" points="181.927,808.042 200.824,808.042 "/>
<polyline clip-path="url(#clip650)" style="stroke:#000000; stroke-linecap:round; stroke-linejoin:round; stroke-width:4; stroke-opacity:1; fill:none" points="181.927,683.524 200.824,683.524 "/>
<polyline clip-path="url(#clip650)" style="stroke:#000000; stroke-linecap:round; stroke-linejoin:round; stroke-width:4; stroke-opacity:1; fill:none" points="181.927,559.007 200.824,559.007 "/>
<polyline clip-path="url(#clip650)" style="stroke:#000000; stroke-linecap:round; stroke-linejoin:round; stroke-width:4; stroke-opacity:1; fill:none" points="181.927,434.49 200.824,434.49 "/>
<polyline clip-path="url(#clip650)" style="stroke:#000000; stroke-linecap:round; stroke-linejoin:round; stroke-width:4; stroke-opacity:1; fill:none" points="181.927,309.972 200.824,309.972 "/>
<polyline clip-path="url(#clip650)" style="stroke:#000000; stroke-linecap:round; stroke-linejoin:round; stroke-width:4; stroke-opacity:1; fill:none" points="181.927,185.455 200.824,185.455 "/>
<path clip-path="url(#clip650)" d="M65.5847 918.358 Q61.9736 918.358 60.1449 921.923 Q58.3393 925.464 58.3393 932.594 Q58.3393 939.7 60.1449 943.265 Q61.9736 946.807 65.5847 946.807 Q69.2189 946.807 71.0244 943.265 Q72.8531 939.7 72.8531 932.594 Q72.8531 925.464 71.0244 921.923 Q69.2189 918.358 65.5847 918.358 M65.5847 914.654 Q71.3948 914.654 74.4503 919.261 Q77.529 923.844 77.529 932.594 Q77.529 941.321 74.4503 945.927 Q71.3948 950.511 65.5847 950.511 Q59.7745 950.511 56.6958 945.927 Q53.6403 941.321 53.6403 932.594 Q53.6403 923.844 56.6958 919.261 Q59.7745 914.654 65.5847 914.654 Z" fill="#000000" fill-rule="nonzero" fill-opacity="1" /><path clip-path="url(#clip650)" d="M85.7466 943.96 L90.6308 943.96 L90.6308 949.839 L85.7466 949.839 L85.7466 943.96 Z" fill="#000000" fill-rule="nonzero" fill-opacity="1" /><path clip-path="url(#clip650)" d="M99.6354 915.279 L121.857 915.279 L121.857 917.27 L109.311 949.839 L104.427 949.839 L116.233 919.214 L99.6354 919.214 L99.6354 915.279 Z" fill="#000000" fill-rule="nonzero" fill-opacity="1" /><path clip-path="url(#clip650)" d="M131.024 915.279 L149.38 915.279 L149.38 919.214 L135.306 919.214 L135.306 927.687 Q136.325 927.339 137.344 927.177 Q138.362 926.992 139.381 926.992 Q145.168 926.992 148.547 930.163 Q151.927 933.335 151.927 938.751 Q151.927 944.33 148.455 947.432 Q144.982 950.511 138.663 950.511 Q136.487 950.511 134.219 950.14 Q131.973 949.77 129.566 949.029 L129.566 944.33 Q131.649 945.464 133.871 946.02 Q136.094 946.575 138.57 946.575 Q142.575 946.575 144.913 944.469 Q147.251 942.362 147.251 938.751 Q147.251 935.14 144.913 933.034 Q142.575 930.927 138.57 930.927 Q136.695 930.927 134.82 931.344 Q132.969 931.761 131.024 932.64 L131.024 915.279 Z" fill="#000000" fill-rule="nonzero" fill-opacity="1" /><path clip-path="url(#clip650)" d="M55.3995 821.387 L63.0384 821.387 L63.0384 795.021 L54.7282 796.688 L54.7282 792.428 L62.9921 790.762 L67.668 790.762 L67.668 821.387 L75.3068 821.387 L75.3068 825.322 L55.3995 825.322 L55.3995 821.387 Z" fill="#000000" fill-rule="nonzero" fill-opacity="1" /><path clip-path="url(#clip650)" d="M84.7512 819.442 L89.6354 819.442 L89.6354 825.322 L84.7512 825.322 L84.7512 819.442 Z" fill="#000000" fill-rule="nonzero" fill-opacity="1" /><path clip-path="url(#clip650)" d="M109.821 793.841 Q106.209 793.841 104.381 797.405 Q102.575 800.947 102.575 808.077 Q102.575 815.183 104.381 818.748 Q106.209 822.289 109.821 822.289 Q113.455 822.289 115.26 818.748 Q117.089 815.183 117.089 808.077 Q117.089 800.947 115.26 797.405 Q113.455 793.841 109.821 793.841 M109.821 790.137 Q115.631 790.137 118.686 794.743 Q121.765 799.327 121.765 808.077 Q121.765 816.803 118.686 821.41 Q115.631 825.993 109.821 825.993 Q104.01 825.993 100.932 821.41 Q97.8761 816.803 97.8761 808.077 Q97.8761 799.327 100.932 794.743 Q104.01 790.137 109.821 790.137 Z" fill="#000000" fill-rule="nonzero" fill-opacity="1" /><path clip-path="url(#clip650)" d="M139.982 793.841 Q136.371 793.841 134.543 797.405 Q132.737 800.947 132.737 808.077 Q132.737 815.183 134.543 818.748 Q136.371 822.289 139.982 822.289 Q143.617 822.289 145.422 818.748 Q147.251 815.183 147.251 808.077 Q147.251 800.947 145.422 797.405 Q143.617 793.841 139.982 793.841 M139.982 790.137 Q145.793 790.137 148.848 794.743 Q151.927 799.327 151.927 808.077 Q151.927 816.803 148.848 821.41 Q145.793 825.993 139.982 825.993 Q134.172 825.993 131.094 821.41 Q128.038 816.803 128.038 808.077 Q128.038 799.327 131.094 794.743 Q134.172 790.137 139.982 790.137 Z" fill="#000000" fill-rule="nonzero" fill-opacity="1" /><path clip-path="url(#clip650)" d="M56.3949 696.869 L64.0337 696.869 L64.0337 670.504 L55.7236 672.17 L55.7236 667.911 L63.9874 666.244 L68.6633 666.244 L68.6633 696.869 L76.3022 696.869 L76.3022 700.804 L56.3949 700.804 L56.3949 696.869 Z" fill="#000000" fill-rule="nonzero" fill-opacity="1" /><path clip-path="url(#clip650)" d="M85.7466 694.925 L90.6308 694.925 L90.6308 700.804 L85.7466 700.804 L85.7466 694.925 Z" fill="#000000" fill-rule="nonzero" fill-opacity="1" /><path clip-path="url(#clip650)" d="M104.844 696.869 L121.163 696.869 L121.163 700.804 L99.2187 700.804 L99.2187 696.869 Q101.881 694.115 106.464 689.485 Q111.071 684.832 112.251 683.49 Q114.496 680.967 115.376 679.23 Q116.279 677.471 116.279 675.781 Q116.279 673.027 114.334 671.291 Q112.413 669.555 109.311 669.555 Q107.112 669.555 104.659 670.319 Q102.228 671.082 99.4502 672.633 L99.4502 667.911 Q102.274 666.777 104.728 666.198 Q107.182 665.619 109.219 665.619 Q114.589 665.619 117.783 668.305 Q120.978 670.99 120.978 675.481 Q120.978 677.61 120.168 679.531 Q119.381 681.43 117.274 684.022 Q116.695 684.693 113.594 687.911 Q110.492 691.105 104.844 696.869 Z" fill="#000000" fill-rule="nonzero" fill-opacity="1" /><path clip-path="url(#clip650)" d="M131.024 666.244 L149.38 666.244 L149.38 670.18 L135.306 670.18 L135.306 678.652 Q136.325 678.305 137.344 678.143 Q138.362 677.957 139.381 677.957 Q145.168 677.957 148.547 681.129 Q151.927 684.3 151.927 689.717 Q151.927 695.295 148.455 698.397 Q144.982 701.476 138.663 701.476 Q136.487 701.476 134.219 701.105 Q131.973 700.735 129.566 699.994 L129.566 695.295 Q131.649 696.429 133.871 696.985 Q136.094 697.541 138.57 697.541 Q142.575 697.541 144.913 695.434 Q147.251 693.328 147.251 689.717 Q147.251 686.105 144.913 683.999 Q142.575 681.893 138.57 681.893 Q136.695 681.893 134.82 682.309 Q132.969 682.726 131.024 683.605 L131.024 666.244 Z" fill="#000000" fill-rule="nonzero" fill-opacity="1" /><path clip-path="url(#clip650)" d="M55.3995 572.352 L63.0384 572.352 L63.0384 545.986 L54.7282 547.653 L54.7282 543.394 L62.9921 541.727 L67.668 541.727 L67.668 572.352 L75.3068 572.352 L75.3068 576.287 L55.3995 576.287 L55.3995 572.352 Z" fill="#000000" fill-rule="nonzero" fill-opacity="1" /><path clip-path="url(#clip650)" d="M84.7512 570.407 L89.6354 570.407 L89.6354 576.287 L84.7512 576.287 L84.7512 570.407 Z" fill="#000000" fill-rule="nonzero" fill-opacity="1" /><path clip-path="url(#clip650)" d="M99.8669 541.727 L118.223 541.727 L118.223 545.662 L104.149 545.662 L104.149 554.134 Q105.168 553.787 106.186 553.625 Q107.205 553.44 108.223 553.44 Q114.01 553.44 117.39 556.611 Q120.77 559.783 120.77 565.199 Q120.77 570.778 117.297 573.88 Q113.825 576.958 107.506 576.958 Q105.33 576.958 103.061 576.588 Q100.816 576.218 98.4085 575.477 L98.4085 570.778 Q100.492 571.912 102.714 572.468 Q104.936 573.023 107.413 573.023 Q111.418 573.023 113.756 570.917 Q116.094 568.81 116.094 565.199 Q116.094 561.588 113.756 559.482 Q111.418 557.375 107.413 557.375 Q105.538 557.375 103.663 557.792 Q101.811 558.208 99.8669 559.088 L99.8669 541.727 Z" fill="#000000" fill-rule="nonzero" fill-opacity="1" /><path clip-path="url(#clip650)" d="M139.982 544.806 Q136.371 544.806 134.543 548.371 Q132.737 551.912 132.737 559.042 Q132.737 566.148 134.543 569.713 Q136.371 573.255 139.982 573.255 Q143.617 573.255 145.422 569.713 Q147.251 566.148 147.251 559.042 Q147.251 551.912 145.422 548.371 Q143.617 544.806 139.982 544.806 M139.982 541.102 Q145.793 541.102 148.848 545.709 Q151.927 550.292 151.927 559.042 Q151.927 567.769 148.848 572.375 Q145.793 576.958 139.982 576.958 Q134.172 576.958 131.094 572.375 Q128.038 567.769 128.038 559.042 Q128.038 550.292 131.094 545.709 Q134.172 541.102 139.982 541.102 Z" fill="#000000" fill-rule="nonzero" fill-opacity="1" /><path clip-path="url(#clip650)" d="M56.3949 447.835 L64.0337 447.835 L64.0337 421.469 L55.7236 423.136 L55.7236 418.876 L63.9874 417.21 L68.6633 417.21 L68.6633 447.835 L76.3022 447.835 L76.3022 451.77 L56.3949 451.77 L56.3949 447.835 Z" fill="#000000" fill-rule="nonzero" fill-opacity="1" /><path clip-path="url(#clip650)" d="M85.7466 445.89 L90.6308 445.89 L90.6308 451.77 L85.7466 451.77 L85.7466 445.89 Z" fill="#000000" fill-rule="nonzero" fill-opacity="1" /><path clip-path="url(#clip650)" d="M99.6354 417.21 L121.857 417.21 L121.857 419.2 L109.311 451.77 L104.427 451.77 L116.233 421.145 L99.6354 421.145 L99.6354 417.21 Z" fill="#000000" fill-rule="nonzero" fill-opacity="1" /><path clip-path="url(#clip650)" d="M131.024 417.21 L149.38 417.21 L149.38 421.145 L135.306 421.145 L135.306 429.617 Q136.325 429.27 137.344 429.108 Q138.362 428.923 139.381 428.923 Q145.168 428.923 148.547 432.094 Q151.927 435.265 151.927 440.682 Q151.927 446.26 148.455 449.362 Q144.982 452.441 138.663 452.441 Q136.487 452.441 134.219 452.071 Q131.973 451.7 129.566 450.96 L129.566 446.26 Q131.649 447.395 133.871 447.95 Q136.094 448.506 138.57 448.506 Q142.575 448.506 144.913 446.399 Q147.251 444.293 147.251 440.682 Q147.251 437.071 144.913 434.964 Q142.575 432.858 138.57 432.858 Q136.695 432.858 134.82 433.274 Q132.969 433.691 131.024 434.571 L131.024 417.21 Z" fill="#000000" fill-rule="nonzero" fill-opacity="1" /><path clip-path="url(#clip650)" d="M58.6171 323.317 L74.9365 323.317 L74.9365 327.252 L52.9921 327.252 L52.9921 323.317 Q55.6541 320.563 60.2375 315.933 Q64.8439 311.28 66.0245 309.938 Q68.2698 307.414 69.1494 305.678 Q70.0522 303.919 70.0522 302.229 Q70.0522 299.475 68.1078 297.739 Q66.1865 296.002 63.0847 296.002 Q60.8856 296.002 58.4319 296.766 Q56.0014 297.53 53.2236 299.081 L53.2236 294.359 Q56.0477 293.225 58.5014 292.646 Q60.955 292.067 62.9921 292.067 Q68.3624 292.067 71.5568 294.752 Q74.7513 297.438 74.7513 301.928 Q74.7513 304.058 73.9411 305.979 Q73.1541 307.877 71.0476 310.47 Q70.4689 311.141 67.367 314.359 Q64.2652 317.553 58.6171 323.317 Z" fill="#000000" fill-rule="nonzero" fill-opacity="1" /><path clip-path="url(#clip650)" d="M84.7512 321.373 L89.6354 321.373 L89.6354 327.252 L84.7512 327.252 L84.7512 321.373 Z" fill="#000000" fill-rule="nonzero" fill-opacity="1" /><path clip-path="url(#clip650)" d="M109.821 295.771 Q106.209 295.771 104.381 299.336 Q102.575 302.877 102.575 310.007 Q102.575 317.113 104.381 320.678 Q106.209 324.22 109.821 324.22 Q113.455 324.22 115.26 320.678 Q117.089 317.113 117.089 310.007 Q117.089 302.877 115.26 299.336 Q113.455 295.771 109.821 295.771 M109.821 292.067 Q115.631 292.067 118.686 296.674 Q121.765 301.257 121.765 310.007 Q121.765 318.734 118.686 323.34 Q115.631 327.924 109.821 327.924 Q104.01 327.924 100.932 323.34 Q97.8761 318.734 97.8761 310.007 Q97.8761 301.257 100.932 296.674 Q104.01 292.067 109.821 292.067 Z" fill="#000000" fill-rule="nonzero" fill-opacity="1" /><path clip-path="url(#clip650)" d="M139.982 295.771 Q136.371 295.771 134.543 299.336 Q132.737 302.877 132.737 310.007 Q132.737 317.113 134.543 320.678 Q136.371 324.22 139.982 324.22 Q143.617 324.22 145.422 320.678 Q147.251 317.113 147.251 310.007 Q147.251 302.877 145.422 299.336 Q143.617 295.771 139.982 295.771 M139.982 292.067 Q145.793 292.067 148.848 296.674 Q151.927 301.257 151.927 310.007 Q151.927 318.734 148.848 323.34 Q145.793 327.924 139.982 327.924 Q134.172 327.924 131.094 323.34 Q128.038 318.734 128.038 310.007 Q128.038 301.257 131.094 296.674 Q134.172 292.067 139.982 292.067 Z" fill="#000000" fill-rule="nonzero" fill-opacity="1" /><path clip-path="url(#clip650)" d="M59.6125 198.8 L75.9318 198.8 L75.9318 202.735 L53.9875 202.735 L53.9875 198.8 Q56.6495 196.045 61.2328 191.416 Q65.8393 186.763 67.0198 185.42 Q69.2652 182.897 70.1448 181.161 Q71.0476 179.402 71.0476 177.712 Q71.0476 174.957 69.1032 173.221 Q67.1819 171.485 64.08 171.485 Q61.881 171.485 59.4273 172.249 Q56.9967 173.013 54.219 174.564 L54.219 169.842 Q57.043 168.707 59.4967 168.129 Q61.9504 167.55 63.9874 167.55 Q69.3578 167.55 72.5522 170.235 Q75.7466 172.92 75.7466 177.411 Q75.7466 179.541 74.9365 181.462 Q74.1494 183.36 72.0429 185.953 Q71.4642 186.624 68.3624 189.841 Q65.2606 193.036 59.6125 198.8 Z" fill="#000000" fill-rule="nonzero" fill-opacity="1" /><path clip-path="url(#clip650)" d="M85.7466 196.855 L90.6308 196.855 L90.6308 202.735 L85.7466 202.735 L85.7466 196.855 Z" fill="#000000" fill-rule="nonzero" fill-opacity="1" /><path clip-path="url(#clip650)" d="M104.844 198.8 L121.163 198.8 L121.163 202.735 L99.2187 202.735 L99.2187 198.8 Q101.881 196.045 106.464 191.416 Q111.071 186.763 112.251 185.42 Q114.496 182.897 115.376 181.161 Q116.279 179.402 116.279 177.712 Q116.279 174.957 114.334 173.221 Q112.413 171.485 109.311 171.485 Q107.112 171.485 104.659 172.249 Q102.228 173.013 99.4502 174.564 L99.4502 169.842 Q102.274 168.707 104.728 168.129 Q107.182 167.55 109.219 167.55 Q114.589 167.55 117.783 170.235 Q120.978 172.92 120.978 177.411 Q120.978 179.541 120.168 181.462 Q119.381 183.36 117.274 185.953 Q116.695 186.624 113.594 189.841 Q110.492 193.036 104.844 198.8 Z" fill="#000000" fill-rule="nonzero" fill-opacity="1" /><path clip-path="url(#clip650)" d="M131.024 168.175 L149.38 168.175 L149.38 172.11 L135.306 172.11 L135.306 180.582 Q136.325 180.235 137.344 180.073 Q138.362 179.888 139.381 179.888 Q145.168 179.888 148.547 183.059 Q151.927 186.23 151.927 191.647 Q151.927 197.226 148.455 200.328 Q144.982 203.406 138.663 203.406 Q136.487 203.406 134.219 203.036 Q131.973 202.665 129.566 201.925 L129.566 197.226 Q131.649 198.36 133.871 198.916 Q136.094 199.471 138.57 199.471 Q142.575 199.471 144.913 197.365 Q147.251 195.258 147.251 191.647 Q147.251 188.036 144.913 185.929 Q142.575 183.823 138.57 183.823 Q136.695 183.823 134.82 184.24 Q132.969 184.656 131.024 185.536 L131.024 168.175 Z" fill="#000000" fill-rule="nonzero" fill-opacity="1" /><path clip-path="url(#clip650)" d="M718.477 45.1919 L718.477 72.576 L711.024 72.576 L711.024 45.4349 Q711.024 38.994 708.512 35.7938 Q706.001 32.5936 700.978 32.5936 Q694.942 32.5936 691.458 36.4419 Q687.974 40.2903 687.974 46.9338 L687.974 72.576 L680.48 72.576 L680.48 9.54393 L687.974 9.54393 L687.974 34.2544 Q690.648 30.163 694.253 28.1376 Q697.899 26.1121 702.638 26.1121 Q710.457 26.1121 714.467 30.9732 Q718.477 35.7938 718.477 45.1919 Z" fill="#000000" fill-rule="nonzero" fill-opacity="1" /><path clip-path="url(#clip650)" d="M772.152 48.0275 L772.152 51.6733 L737.881 51.6733 Q738.367 59.3701 742.499 63.421 Q746.672 67.4314 754.085 67.4314 Q758.379 67.4314 762.389 66.3781 Q766.44 65.3249 770.41 63.2184 L770.41 70.267 Q766.4 71.9684 762.187 72.8596 Q757.974 73.7508 753.639 73.7508 Q742.783 73.7508 736.423 67.4314 Q730.104 61.1119 730.104 50.3365 Q730.104 39.1965 736.099 32.6746 Q742.135 26.1121 752.343 26.1121 Q761.498 26.1121 766.805 32.0264 Q772.152 37.9003 772.152 48.0275 M764.698 45.84 Q764.617 39.7232 761.255 36.0774 Q757.933 32.4315 752.424 32.4315 Q746.186 32.4315 742.418 35.9558 Q738.691 39.4801 738.124 45.8805 L764.698 45.84 Z" fill="#000000" fill-rule="nonzero" fill-opacity="1" /><path clip-path="url(#clip650)" d="M805.005 49.7694 Q795.971 49.7694 792.487 51.8354 Q789.004 53.9013 789.004 58.8839 Q789.004 62.8538 791.596 65.2034 Q794.229 67.5124 798.726 67.5124 Q804.924 67.5124 808.651 63.1374 Q812.418 58.7219 812.418 51.4303 L812.418 49.7694 L805.005 49.7694 M819.872 46.6907 L819.872 72.576 L812.418 72.576 L812.418 65.6895 Q809.866 69.8214 806.058 71.8063 Q802.25 73.7508 796.741 73.7508 Q789.773 73.7508 785.641 69.8619 Q781.55 65.9325 781.55 59.3701 Q781.55 51.7138 786.654 47.825 Q791.799 43.9361 801.967 43.9361 L812.418 43.9361 L812.418 43.2069 Q812.418 38.0623 809.015 35.2672 Q805.653 32.4315 799.536 32.4315 Q795.647 32.4315 791.961 33.3632 Q788.275 34.295 784.872 36.1584 L784.872 29.2718 Q788.963 27.692 792.812 26.9223 Q796.66 26.1121 800.306 26.1121 Q810.149 26.1121 815.011 31.2163 Q819.872 36.3204 819.872 46.6907 Z" fill="#000000" fill-rule="nonzero" fill-opacity="1" /><path clip-path="url(#clip650)" d="M829.877 27.2059 L837.777 27.2059 L851.955 65.2844 L866.133 27.2059 L874.032 27.2059 L857.018 72.576 L846.891 72.576 L829.877 27.2059 Z" fill="#000000" fill-rule="nonzero" fill-opacity="1" /><path clip-path="url(#clip650)" d="M923.129 48.0275 L923.129 51.6733 L888.859 51.6733 Q889.345 59.3701 893.477 63.421 Q897.649 67.4314 905.062 67.4314 Q909.356 67.4314 913.366 66.3781 Q917.417 65.3249 921.387 63.2184 L921.387 70.267 Q917.377 71.9684 913.164 72.8596 Q908.951 73.7508 904.617 73.7508 Q893.76 73.7508 887.4 67.4314 Q881.081 61.1119 881.081 50.3365 Q881.081 39.1965 887.076 32.6746 Q893.112 26.1121 903.32 26.1121 Q912.475 26.1121 917.782 32.0264 Q923.129 37.9003 923.129 48.0275 M915.675 45.84 Q915.594 39.7232 912.232 36.0774 Q908.91 32.4315 903.401 32.4315 Q897.163 32.4315 893.396 35.9558 Q889.669 39.4801 889.102 45.8805 L915.675 45.84 Z" fill="#000000" fill-rule="nonzero" fill-opacity="1" /><path clip-path="url(#clip650)" d="M982.353 49.7694 Q973.32 49.7694 969.836 51.8354 Q966.352 53.9013 966.352 58.8839 Q966.352 62.8538 968.945 65.2034 Q971.578 67.5124 976.074 67.5124 Q982.272 67.5124 985.999 63.1374 Q989.767 58.7219 989.767 51.4303 L989.767 49.7694 L982.353 49.7694 M997.22 46.6907 L997.22 72.576 L989.767 72.576 L989.767 65.6895 Q987.214 69.8214 983.407 71.8063 Q979.599 73.7508 974.09 73.7508 Q967.122 73.7508 962.99 69.8619 Q958.899 65.9325 958.899 59.3701 Q958.899 51.7138 964.003 47.825 Q969.147 43.9361 979.315 43.9361 L989.767 43.9361 L989.767 43.2069 Q989.767 38.0623 986.364 35.2672 Q983.002 32.4315 976.885 32.4315 Q972.996 32.4315 969.309 33.3632 Q965.623 34.295 962.22 36.1584 L962.22 29.2718 Q966.312 27.692 970.16 26.9223 Q974.009 26.1121 977.654 26.1121 Q987.498 26.1121 992.359 31.2163 Q997.22 36.3204 997.22 46.6907 Z" fill="#000000" fill-rule="nonzero" fill-opacity="1" /><path clip-path="url(#clip650)" d="M1042.43 34.0924 L1042.43 9.54393 L1049.88 9.54393 L1049.88 72.576 L1042.43 72.576 L1042.43 65.7705 Q1040.08 69.8214 1036.47 71.8063 Q1032.91 73.7508 1027.89 73.7508 Q1019.66 73.7508 1014.48 67.1883 Q1009.33 60.6258 1009.33 49.9314 Q1009.33 39.2371 1014.48 32.6746 Q1019.66 26.1121 1027.89 26.1121 Q1032.91 26.1121 1036.47 28.0971 Q1040.08 30.0415 1042.43 34.0924 M1017.03 49.9314 Q1017.03 58.1548 1020.39 62.8538 Q1023.79 67.5124 1029.71 67.5124 Q1035.62 67.5124 1039.03 62.8538 Q1042.43 58.1548 1042.43 49.9314 Q1042.43 41.7081 1039.03 37.0496 Q1035.62 32.3505 1029.71 32.3505 Q1023.79 32.3505 1020.39 37.0496 Q1017.03 41.7081 1017.03 49.9314 Z" fill="#000000" fill-rule="nonzero" fill-opacity="1" /><path clip-path="url(#clip650)" d="M1095.09 34.0924 L1095.09 9.54393 L1102.54 9.54393 L1102.54 72.576 L1095.09 72.576 L1095.09 65.7705 Q1092.74 69.8214 1089.14 71.8063 Q1085.57 73.7508 1080.55 73.7508 Q1072.32 73.7508 1067.14 67.1883 Q1061.99 60.6258 1061.99 49.9314 Q1061.99 39.2371 1067.14 32.6746 Q1072.32 26.1121 1080.55 26.1121 Q1085.57 26.1121 1089.14 28.0971 Q1092.74 30.0415 1095.09 34.0924 M1069.69 49.9314 Q1069.69 58.1548 1073.05 62.8538 Q1076.46 67.5124 1082.37 67.5124 Q1088.28 67.5124 1091.69 62.8538 Q1095.09 58.1548 1095.09 49.9314 Q1095.09 41.7081 1091.69 37.0496 Q1088.28 32.3505 1082.37 32.3505 Q1076.46 32.3505 1073.05 37.0496 Q1069.69 41.7081 1069.69 49.9314 Z" fill="#000000" fill-rule="nonzero" fill-opacity="1" /><path clip-path="url(#clip650)" d="M1156.7 48.0275 L1156.7 51.6733 L1122.43 51.6733 Q1122.92 59.3701 1127.05 63.421 Q1131.22 67.4314 1138.64 67.4314 Q1142.93 67.4314 1146.94 66.3781 Q1150.99 65.3249 1154.96 63.2184 L1154.96 70.267 Q1150.95 71.9684 1146.74 72.8596 Q1142.53 73.7508 1138.19 73.7508 Q1127.34 73.7508 1120.98 67.4314 Q1114.66 61.1119 1114.66 50.3365 Q1114.66 39.1965 1120.65 32.6746 Q1126.69 26.1121 1136.9 26.1121 Q1146.05 26.1121 1151.36 32.0264 Q1156.7 37.9003 1156.7 48.0275 M1149.25 45.84 Q1149.17 39.7232 1145.81 36.0774 Q1142.49 32.4315 1136.98 32.4315 Q1130.74 32.4315 1126.97 35.9558 Q1123.24 39.4801 1122.68 45.8805 L1149.25 45.84 Z" fill="#000000" fill-rule="nonzero" fill-opacity="1" /><path clip-path="url(#clip650)" d="M1198.79 34.0924 L1198.79 9.54393 L1206.25 9.54393 L1206.25 72.576 L1198.79 72.576 L1198.79 65.7705 Q1196.44 69.8214 1192.84 71.8063 Q1189.27 73.7508 1184.25 73.7508 Q1176.03 73.7508 1170.84 67.1883 Q1165.7 60.6258 1165.7 49.9314 Q1165.7 39.2371 1170.84 32.6746 Q1176.03 26.1121 1184.25 26.1121 Q1189.27 26.1121 1192.84 28.0971 Q1196.44 30.0415 1198.79 34.0924 M1173.39 49.9314 Q1173.39 58.1548 1176.76 62.8538 Q1180.16 67.5124 1186.07 67.5124 Q1191.99 67.5124 1195.39 62.8538 Q1198.79 58.1548 1198.79 49.9314 Q1198.79 41.7081 1195.39 37.0496 Q1191.99 32.3505 1186.07 32.3505 Q1180.16 32.3505 1176.76 37.0496 Q1173.39 41.7081 1173.39 49.9314 Z" fill="#000000" fill-rule="nonzero" fill-opacity="1" /><path clip-path="url(#clip650)" d="M1283.3 35.9153 Q1286.09 30.8922 1289.98 28.5022 Q1293.87 26.1121 1299.13 26.1121 Q1306.22 26.1121 1310.07 31.0947 Q1313.92 36.0368 1313.92 45.1919 L1313.92 72.576 L1306.43 72.576 L1306.43 45.4349 Q1306.43 38.913 1304.12 35.7533 Q1301.81 32.5936 1297.07 32.5936 Q1291.28 32.5936 1287.91 36.4419 Q1284.55 40.2903 1284.55 46.9338 L1284.55 72.576 L1277.06 72.576 L1277.06 45.4349 Q1277.06 38.8725 1274.75 35.7533 Q1272.44 32.5936 1267.62 32.5936 Q1261.91 32.5936 1258.54 36.4824 Q1255.18 40.3308 1255.18 46.9338 L1255.18 72.576 L1247.69 72.576 L1247.69 27.2059 L1255.18 27.2059 L1255.18 34.2544 Q1257.73 30.082 1261.3 28.0971 Q1264.86 26.1121 1269.77 26.1121 Q1274.71 26.1121 1278.15 28.6237 Q1281.63 31.1352 1283.3 35.9153 Z" fill="#000000" fill-rule="nonzero" fill-opacity="1" /><path clip-path="url(#clip650)" d="M1349.41 49.7694 Q1340.37 49.7694 1336.89 51.8354 Q1333.4 53.9013 1333.4 58.8839 Q1333.4 62.8538 1336 65.2034 Q1338.63 67.5124 1343.13 67.5124 Q1349.32 67.5124 1353.05 63.1374 Q1356.82 58.7219 1356.82 51.4303 L1356.82 49.7694 L1349.41 49.7694 M1364.27 46.6907 L1364.27 72.576 L1356.82 72.576 L1356.82 65.6895 Q1354.27 69.8214 1350.46 71.8063 Q1346.65 73.7508 1341.14 73.7508 Q1334.17 73.7508 1330.04 69.8619 Q1325.95 65.9325 1325.95 59.3701 Q1325.95 51.7138 1331.06 47.825 Q1336.2 43.9361 1346.37 43.9361 L1356.82 43.9361 L1356.82 43.2069 Q1356.82 38.0623 1353.42 35.2672 Q1350.05 32.4315 1343.94 32.4315 Q1340.05 32.4315 1336.36 33.3632 Q1332.68 34.295 1329.27 36.1584 L1329.27 29.2718 Q1333.36 27.692 1337.21 26.9223 Q1341.06 26.1121 1344.71 26.1121 Q1354.55 26.1121 1359.41 31.2163 Q1364.27 36.3204 1364.27 46.6907 Z" fill="#000000" fill-rule="nonzero" fill-opacity="1" /><path clip-path="url(#clip650)" d="M1408.55 28.5427 L1408.55 35.5912 Q1405.39 33.9709 1401.99 33.1607 Q1398.58 32.3505 1394.94 32.3505 Q1389.39 32.3505 1386.59 34.0519 Q1383.84 35.7533 1383.84 39.156 Q1383.84 41.7486 1385.82 43.2475 Q1387.81 44.7058 1393.8 46.0426 L1396.36 46.6097 Q1404.3 48.3111 1407.62 51.4303 Q1410.98 54.509 1410.98 60.0587 Q1410.98 66.3781 1405.96 70.0644 Q1400.97 73.7508 1392.22 73.7508 Q1388.58 73.7508 1384.61 73.0216 Q1380.68 72.3329 1376.3 70.9151 L1376.3 63.2184 Q1380.44 65.3654 1384.45 66.4591 Q1388.46 67.5124 1392.39 67.5124 Q1397.65 67.5124 1400.49 65.73 Q1403.32 63.9071 1403.32 60.6258 Q1403.32 57.5877 1401.26 55.9673 Q1399.23 54.3469 1392.3 52.8481 L1389.71 52.2405 Q1382.79 50.7821 1379.71 47.7845 Q1376.63 44.7463 1376.63 39.4801 Q1376.63 33.0797 1381.16 29.5959 Q1385.7 26.1121 1394.05 26.1121 Q1398.18 26.1121 1401.82 26.7198 Q1405.47 27.3274 1408.55 28.5427 Z" fill="#000000" fill-rule="nonzero" fill-opacity="1" /><path clip-path="url(#clip650)" d="M1451.77 28.5427 L1451.77 35.5912 Q1448.61 33.9709 1445.21 33.1607 Q1441.81 32.3505 1438.16 32.3505 Q1432.61 32.3505 1429.82 34.0519 Q1427.06 35.7533 1427.06 39.156 Q1427.06 41.7486 1429.05 43.2475 Q1431.03 44.7058 1437.03 46.0426 L1439.58 46.6097 Q1447.52 48.3111 1450.84 51.4303 Q1454.2 54.509 1454.2 60.0587 Q1454.2 66.3781 1449.18 70.0644 Q1444.2 73.7508 1435.45 73.7508 Q1431.8 73.7508 1427.83 73.0216 Q1423.9 72.3329 1419.53 70.9151 L1419.53 63.2184 Q1423.66 65.3654 1427.67 66.4591 Q1431.68 67.5124 1435.61 67.5124 Q1440.88 67.5124 1443.71 65.73 Q1446.55 63.9071 1446.55 60.6258 Q1446.55 57.5877 1444.48 55.9673 Q1442.46 54.3469 1435.53 52.8481 L1432.94 52.2405 Q1426.01 50.7821 1422.93 47.7845 Q1419.85 44.7463 1419.85 39.4801 Q1419.85 33.0797 1424.39 29.5959 Q1428.93 26.1121 1437.27 26.1121 Q1441.4 26.1121 1445.05 26.7198 Q1448.69 27.3274 1451.77 28.5427 Z" fill="#000000" fill-rule="nonzero" fill-opacity="1" /><polyline clip-path="url(#clip652)" style="stroke:#009af9; stroke-linecap:round; stroke-linejoin:round; stroke-width:4; stroke-opacity:1; fill:none" points="271.904,143.404 295.823,260.4 316.896,348.847 335.948,419.196 353.468,477.065 369.775,525.828 385.09,567.668 399.577,604.079 413.355,636.125 426.52,664.594 439.147,690.083 451.296,713.052 463.019,733.869 474.358,752.827 485.347,770.166 496.018,786.083 506.396,800.742 516.504,814.283 526.363,826.823 535.99,838.464 545.4,849.292 554.608,859.383 563.625,868.803 572.465,877.61 581.136,885.854 589.647,893.582 598.008,900.832 606.226,907.643 614.308,914.045 622.261,920.068 630.091,925.738 637.802,931.079 645.402,936.113 652.893,940.859 660.281,945.335 667.57,949.559 674.763,953.544 681.865,957.306 688.879,960.856 695.808,964.208 702.654,967.371 709.422,970.357 716.113,973.174 722.73,975.831 729.275,978.337 735.751,980.7 742.16,982.926 748.505,985.023 754.785,986.996 761.005,988.852 767.165,990.597 773.267,992.234 779.313,993.77 785.305,995.21 791.243,996.557 797.129,997.815 802.965,998.989 808.751,1000.08 814.489,1001.1 820.181,1002.04 825.827,1002.91 831.428,1003.72 836.986,1004.46 842.501,1005.14 847.974,1005.76 853.407,1006.32 858.8,1006.83 864.153,1007.28 869.469,1007.69 874.748,1008.04 879.99,1008.36 885.196,1008.62 890.367,1008.85 895.504,1009.03 900.607,1009.18 905.677,1009.29 910.715,1009.36 915.721,1009.4 920.696,1009.41 925.64,1009.38 930.554,1009.33 935.438,1009.24 940.294,1009.13 945.121,1008.99 949.92,1008.82 954.691,1008.63 959.436,1008.42 964.154,1008.19 968.846,1007.93 973.512,1007.65 978.153,1007.35 982.769,1007.03 987.36,1006.7 991.927,1006.35 996.471,1005.98 1000.99,1005.59 1005.49,1005.19 1009.96,1004.77 1014.42,1004.34 1018.85,1003.9 1023.25,1003.45 1027.64,1002.98 1032.01,1002.5 1036.35,1002.01 1040.68,1001.51 1044.98,1000.99 1049.27,1000.47 1053.53,999.942 1057.78,999.403 1062.01,998.855 1066.21,998.3 1070.4,997.737 1074.58,997.167 1078.73,996.59 1082.86,996.007 1086.98,995.417 1091.08,994.823 1095.16,994.222 1099.23,993.617 1103.28,993.007 1107.31,992.393 1111.33,991.774 1115.33,991.151 1119.31,990.525 1123.28,989.895 1127.23,989.263 1131.17,988.627 1135.09,987.988 1139,987.348 1142.89,986.704 1146.77,986.059 1150.63,985.412 1154.48,984.763 1158.32,984.113 1162.14,983.461 1165.94,982.809 1169.74,982.155 1173.52,981.5 1177.28,980.845 1181.03,980.189 1184.77,979.533 1188.5,978.877 1192.21,978.22 1195.91,977.564 1199.6,976.907 1203.27,976.251 1206.94,975.595 1210.59,974.94 1214.23,974.285 1217.85,973.631 1221.47,972.978 1225.07,972.325 1228.66,971.674 1232.24,971.023 1235.81,970.374 1239.36,969.726 1242.91,969.079 1246.44,968.433 1249.97,967.789 1253.48,967.146 1256.98,966.505 1260.47,965.866 1263.95,965.228 1267.42,964.592 1270.88,963.957 1274.33,963.325 1277.77,962.694 1281.19,962.065 1284.61,961.439 1288.02,960.814 1291.42,960.191 1294.81,959.571 1298.19,958.952 1301.56,958.336 1304.91,957.722 1308.27,957.11 1311.61,956.501 1314.94,955.894 1318.26,955.289 1321.57,954.686 1324.88,954.086 1328.17,953.488 1331.46,952.893 1334.73,952.3 1338,951.709 1341.26,951.121 1344.51,950.536 1347.76,949.953 1350.99,949.373 1354.21,948.795 1357.43,948.22 1360.64,947.647 1363.84,947.077 1367.03,946.509 1370.22,945.944 1373.39,945.382 1376.56,944.822 1379.72,944.265 1382.87,943.711 1386.02,943.159 1389.15,942.609 1392.28,942.063 1395.4,941.519 1398.52,940.978 1401.62,940.439 1404.72,939.903 1407.81,939.37 1410.9,938.839 1413.97,938.311 1417.04,937.786 1420.1,937.263 1423.16,936.743 1426.21,936.226 1429.25,935.711 1432.28,935.199 1435.31,934.689 1438.33,934.183 1441.34,933.678 1444.34,933.177 1447.34,932.678 1450.34,932.181 1453.32,931.688 1456.3,931.196 1459.27,930.708 1462.24,930.222 1465.2,929.738 1468.15,929.258 1471.1,928.779 1474.04,928.304 1476.97,927.83 1479.9,927.36 1482.82,926.892 1485.73,926.426 1488.64,925.963 1491.54,925.503 1494.44,925.044 1497.33,924.589 1500.21,924.136 1503.09,923.685 1505.96,923.237 1508.83,922.791 1511.69,922.348 1514.55,921.907 1517.39,921.469 1520.24,921.033 1523.07,920.599 1525.91,920.168 1528.73,919.739 1531.55,919.312 1534.37,918.888 1537.17,918.466 1539.98,918.047 1542.78,917.63 1545.57,917.215 1548.35,916.802 1551.14,916.392 1553.91,915.984 1556.68,915.578 1559.45,915.175 1562.21,914.774 1564.96,914.375 1567.71,913.978 1570.46,913.583 1573.2,913.191 1575.93,912.8 1578.66,912.412 1581.38,912.026 1584.1,911.643 1586.82,911.261 1589.53,910.881 1592.23,910.504 1594.93,910.129 1597.62,909.756 1600.31,909.384 1603,909.015 1605.67,908.648 1608.35,908.283 1611.02,907.92 1613.68,907.559 1616.34,907.2 1619,906.843 1621.65,906.488 1624.3,906.135 1626.94,905.784 1629.58,905.435 1632.21,905.088 1634.84,904.743 1637.46,904.399 1640.08,904.058 1642.69,903.718 1645.3,903.381 1647.91,903.045 1650.51,902.711 1653.1,902.379 1655.7,902.049 1658.28,901.72 1660.87,901.393 1663.45,901.069 1666.02,900.746 1668.59,900.424 1671.16,900.105 1673.72,899.787 1676.28,899.471 1678.83,899.157 1681.38,898.844 1683.93,898.533 1686.47,898.224 1689,897.917 1691.54,897.611 1694.07,897.307 1696.59,897.004 1699.11,896.703 1701.63,896.404 1704.14,896.107 1706.65,895.811 1709.16,895.516 1711.66,895.224 1714.15,894.932 1716.65,894.643 1719.14,894.355 1721.62,894.068 1724.1,893.784 1726.58,893.5 1729.05,893.218 1731.52,892.938 1733.99,892.659 1736.45,892.382 1738.91,892.106 1741.37,891.832 1743.82,891.559 1746.27,891.287 1748.71,891.017 1751.15,890.749 1753.59,890.482 1756.02,890.216 1758.45,889.952 1760.88,889.689 1763.3,889.428 1765.72,889.168 1768.13,888.909 1770.55,888.651 1772.95,888.396 1775.36,888.141 1777.76,887.888 1780.16,887.636 1782.55,887.385 1784.94,887.136 1787.33,886.888 1789.71,886.641 1792.09,886.396 1794.47,886.152 1796.85,885.909 1799.22,885.667 1801.58,885.427 1803.95,885.188 1806.31,884.95 1808.67,884.713 1811.02,884.478 1813.37,884.244 1815.72,884.011 1818.06,883.779 1820.4,883.549 1822.74,883.319 1825.08,883.091 1827.41,882.864 1829.74,882.638 1832.06,882.413 1834.38,882.19 1836.7,881.968 1839.02,881.746 1841.33,881.526 1843.64,881.307 1845.95,881.089 1848.25,880.872 1850.55,880.657 1852.85,880.442 1855.14,880.229 1857.43,880.016 1859.72,879.805 1862.01,879.595 1864.29,879.385 1866.57,879.177 1868.84,878.97 1871.12,878.764 1873.39,878.559 1875.65,878.355 1877.92,878.152 1880.18,877.95 1882.44,877.749 1884.69,877.548 1886.95,877.349 1889.2,877.151 1891.44,876.954 1893.69,876.758 1895.93,876.563 1898.17,876.369 1900.41,876.176 1902.64,875.983 "/>
<circle clip-path="url(#clip652)" cx="232.045" cy="641.162" r="14.4" fill="#e26f46" fill-rule="evenodd" fill-opacity="1" stroke="#000000" stroke-opacity="1" stroke-width="2.4"/>
<circle clip-path="url(#clip652)" cx="282.142" cy="926.423" r="14.4" fill="#e26f46" fill-rule="evenodd" fill-opacity="1" stroke="#000000" stroke-opacity="1" stroke-width="2.4"/>
<circle clip-path="url(#clip652)" cx="307.698" cy="663.723" r="14.4" fill="#e26f46" fill-rule="evenodd" fill-opacity="1" stroke="#000000" stroke-opacity="1" stroke-width="2.4"/>
<circle clip-path="url(#clip652)" cx="339.903" cy="757.701" r="14.4" fill="#e26f46" fill-rule="evenodd" fill-opacity="1" stroke="#000000" stroke-opacity="1" stroke-width="2.4"/>
<circle clip-path="url(#clip652)" cx="394.991" cy="689.505" r="14.4" fill="#e26f46" fill-rule="evenodd" fill-opacity="1" stroke="#000000" stroke-opacity="1" stroke-width="2.4"/>
<circle clip-path="url(#clip652)" cx="441.734" cy="783.457" r="14.4" fill="#e26f46" fill-rule="evenodd" fill-opacity="1" stroke="#000000" stroke-opacity="1" stroke-width="2.4"/>
<circle clip-path="url(#clip652)" cx="444.596" cy="763.996" r="14.4" fill="#e26f46" fill-rule="evenodd" fill-opacity="1" stroke="#000000" stroke-opacity="1" stroke-width="2.4"/>
<circle clip-path="url(#clip652)" cx="499.881" cy="780.109" r="14.4" fill="#e26f46" fill-rule="evenodd" fill-opacity="1" stroke="#000000" stroke-opacity="1" stroke-width="2.4"/>
<circle clip-path="url(#clip652)" cx="561.155" cy="870.791" r="14.4" fill="#e26f46" fill-rule="evenodd" fill-opacity="1" stroke="#000000" stroke-opacity="1" stroke-width="2.4"/>
<circle clip-path="url(#clip652)" cx="616.485" cy="906.36" r="14.4" fill="#e26f46" fill-rule="evenodd" fill-opacity="1" stroke="#000000" stroke-opacity="1" stroke-width="2.4"/>
<circle clip-path="url(#clip652)" cx="668.915" cy="945.176" r="14.4" fill="#e26f46" fill-rule="evenodd" fill-opacity="1" stroke="#000000" stroke-opacity="1" stroke-width="2.4"/>
<circle clip-path="url(#clip652)" cx="668.885" cy="932.206" r="14.4" fill="#e26f46" fill-rule="evenodd" fill-opacity="1" stroke="#000000" stroke-opacity="1" stroke-width="2.4"/>
<circle clip-path="url(#clip652)" cx="727.138" cy="974.254" r="14.4" fill="#e26f46" fill-rule="evenodd" fill-opacity="1" stroke="#000000" stroke-opacity="1" stroke-width="2.4"/>
<circle clip-path="url(#clip652)" cx="779.499" cy="983.887" r="14.4" fill="#e26f46" fill-rule="evenodd" fill-opacity="1" stroke="#000000" stroke-opacity="1" stroke-width="2.4"/>
<circle clip-path="url(#clip652)" cx="834.776" cy="996.757" r="14.4" fill="#e26f46" fill-rule="evenodd" fill-opacity="1" stroke="#000000" stroke-opacity="1" stroke-width="2.4"/>
<circle clip-path="url(#clip652)" cx="890.038" cy="1003.14" r="14.4" fill="#e26f46" fill-rule="evenodd" fill-opacity="1" stroke="#000000" stroke-opacity="1" stroke-width="2.4"/>
<circle clip-path="url(#clip652)" cx="948.193" cy="1003.04" r="14.4" fill="#e26f46" fill-rule="evenodd" fill-opacity="1" stroke="#000000" stroke-opacity="1" stroke-width="2.4"/>
<circle clip-path="url(#clip652)" cx="1000.53" cy="1002.94" r="14.4" fill="#e26f46" fill-rule="evenodd" fill-opacity="1" stroke="#000000" stroke-opacity="1" stroke-width="2.4"/>
<circle clip-path="url(#clip652)" cx="1055.76" cy="996.356" r="14.4" fill="#e26f46" fill-rule="evenodd" fill-opacity="1" stroke="#000000" stroke-opacity="1" stroke-width="2.4"/>
<circle clip-path="url(#clip652)" cx="1110.97" cy="980.043" r="14.4" fill="#e26f46" fill-rule="evenodd" fill-opacity="1" stroke="#000000" stroke-opacity="1" stroke-width="2.4"/>
<circle clip-path="url(#clip652)" cx="1169.1" cy="966.966" r="14.4" fill="#e26f46" fill-rule="evenodd" fill-opacity="1" stroke="#000000" stroke-opacity="1" stroke-width="2.4"/>
<circle clip-path="url(#clip652)" cx="1221.43" cy="963.629" r="14.4" fill="#e26f46" fill-rule="evenodd" fill-opacity="1" stroke="#000000" stroke-opacity="1" stroke-width="2.4"/>
<circle clip-path="url(#clip652)" cx="1279.54" cy="947.31" r="14.4" fill="#e26f46" fill-rule="evenodd" fill-opacity="1" stroke="#000000" stroke-opacity="1" stroke-width="2.4"/>
<circle clip-path="url(#clip652)" cx="1334.76" cy="934.239" r="14.4" fill="#e26f46" fill-rule="evenodd" fill-opacity="1" stroke="#000000" stroke-opacity="1" stroke-width="2.4"/>
<circle clip-path="url(#clip652)" cx="1389.99" cy="927.654" r="14.4" fill="#e26f46" fill-rule="evenodd" fill-opacity="1" stroke="#000000" stroke-opacity="1" stroke-width="2.4"/>
<circle clip-path="url(#clip652)" cx="1424.84" cy="908.134" r="14.4" fill="#e26f46" fill-rule="evenodd" fill-opacity="1" stroke="#000000" stroke-opacity="1" stroke-width="2.4"/>
<path clip-path="url(#clip650)" d="M1415.74 303.543 L1893.73 303.543 L1893.73 148.023 L1415.74 148.023  Z" fill="#ffffff" fill-rule="evenodd" fill-opacity="1"/>
<polyline clip-path="url(#clip650)" style="stroke:#000000; stroke-linecap:round; stroke-linejoin:round; stroke-width:4; stroke-opacity:1; fill:none" points="1415.74,303.543 1893.73,303.543 1893.73,148.023 1415.74,148.023 1415.74,303.543 "/>
<polyline clip-path="url(#clip650)" style="stroke:#009af9; stroke-linecap:round; stroke-linejoin:round; stroke-width:4; stroke-opacity:1; fill:none" points="1435.42,199.863 1553.48,199.863 "/>
<path clip-path="url(#clip650)" d="M1573.15 182.583 L1577.85 182.583 L1577.85 203.578 Q1577.85 209.134 1579.86 211.587 Q1581.88 214.018 1586.39 214.018 Q1590.88 214.018 1592.9 211.587 Q1594.91 209.134 1594.91 203.578 L1594.91 182.583 L1599.61 182.583 L1599.61 204.157 Q1599.61 210.916 1596.25 214.365 Q1592.92 217.814 1586.39 217.814 Q1579.84 217.814 1576.48 214.365 Q1573.15 210.916 1573.15 204.157 L1573.15 182.583 Z" fill="#000000" fill-rule="nonzero" fill-opacity="1" /><path clip-path="url(#clip650)" d="M1623.22 195.199 Q1622.5 194.782 1621.65 194.597 Q1620.81 194.388 1619.79 194.388 Q1616.18 194.388 1614.24 196.75 Q1612.32 199.087 1612.32 203.486 L1612.32 217.143 L1608.04 217.143 L1608.04 191.217 L1612.32 191.217 L1612.32 195.245 Q1613.66 192.884 1615.81 191.75 Q1617.97 190.592 1621.04 190.592 Q1621.48 190.592 1622.02 190.662 Q1622.55 190.708 1623.2 190.824 L1623.22 195.199 Z" fill="#000000" fill-rule="nonzero" fill-opacity="1" /><path clip-path="url(#clip650)" d="M1644.22 191.981 L1644.22 196.009 Q1642.41 195.083 1640.47 194.62 Q1638.52 194.157 1636.44 194.157 Q1633.27 194.157 1631.67 195.129 Q1630.1 196.101 1630.1 198.046 Q1630.1 199.527 1631.23 200.384 Q1632.36 201.217 1635.79 201.981 L1637.25 202.305 Q1641.79 203.277 1643.68 205.06 Q1645.6 206.819 1645.6 209.99 Q1645.6 213.601 1642.73 215.708 Q1639.89 217.814 1634.89 217.814 Q1632.8 217.814 1630.54 217.398 Q1628.29 217.004 1625.79 216.194 L1625.79 211.796 Q1628.15 213.023 1630.44 213.648 Q1632.73 214.249 1634.98 214.249 Q1637.99 214.249 1639.61 213.231 Q1641.23 212.189 1641.23 210.314 Q1641.23 208.578 1640.05 207.652 Q1638.89 206.726 1634.93 205.87 L1633.45 205.523 Q1629.49 204.689 1627.73 202.976 Q1625.98 201.24 1625.98 198.231 Q1625.98 194.574 1628.57 192.583 Q1631.16 190.592 1635.93 190.592 Q1638.29 190.592 1640.37 190.939 Q1642.46 191.287 1644.22 191.981 Z" fill="#000000" fill-rule="nonzero" fill-opacity="1" /><path clip-path="url(#clip650)" d="M1674.56 203.115 L1674.56 205.199 L1654.98 205.199 Q1655.26 209.597 1657.62 211.911 Q1660 214.203 1664.24 214.203 Q1666.69 214.203 1668.98 213.601 Q1671.3 212.999 1673.57 211.796 L1673.57 215.823 Q1671.28 216.796 1668.87 217.305 Q1666.46 217.814 1663.98 217.814 Q1657.78 217.814 1654.15 214.203 Q1650.54 210.592 1650.54 204.435 Q1650.54 198.069 1653.96 194.342 Q1657.41 190.592 1663.24 190.592 Q1668.47 190.592 1671.51 193.972 Q1674.56 197.328 1674.56 203.115 M1670.3 201.865 Q1670.26 198.37 1668.34 196.287 Q1666.44 194.203 1663.29 194.203 Q1659.72 194.203 1657.57 196.217 Q1655.44 198.231 1655.12 201.888 L1670.3 201.865 Z" fill="#000000" fill-rule="nonzero" fill-opacity="1" /><path clip-path="url(#clip650)" d="M1681.55 181.125 L1685.81 181.125 L1685.81 217.143 L1681.55 217.143 L1681.55 181.125 Z" fill="#000000" fill-rule="nonzero" fill-opacity="1" /><path clip-path="url(#clip650)" d="M1694.72 181.125 L1698.98 181.125 L1698.98 217.143 L1694.72 217.143 L1694.72 181.125 Z" fill="#000000" fill-rule="nonzero" fill-opacity="1" /><path clip-path="url(#clip650)" d="M1733.2 181.171 Q1730.09 186.495 1728.59 191.703 Q1727.09 196.912 1727.09 202.259 Q1727.09 207.606 1728.59 212.861 Q1730.12 218.092 1733.2 223.393 L1729.49 223.393 Q1726.02 217.953 1724.28 212.698 Q1722.57 207.444 1722.57 202.259 Q1722.57 197.097 1724.28 191.865 Q1726 186.634 1729.49 181.171 L1733.2 181.171 Z" fill="#000000" fill-rule="nonzero" fill-opacity="1" /><path clip-path="url(#clip650)" d="M1742.87 213.208 L1750.51 213.208 L1750.51 186.842 L1742.2 188.509 L1742.2 184.25 L1750.47 182.583 L1755.14 182.583 L1755.14 213.208 L1762.78 213.208 L1762.78 217.143 L1742.87 217.143 L1742.87 213.208 Z" fill="#000000" fill-rule="nonzero" fill-opacity="1" /><path clip-path="url(#clip650)" d="M1772.36 216.425 L1772.36 212.166 Q1774.12 212.999 1775.93 213.439 Q1777.73 213.879 1779.47 213.879 Q1784.1 213.879 1786.53 210.777 Q1788.98 207.652 1789.33 201.31 Q1787.99 203.3 1785.93 204.365 Q1783.87 205.43 1781.37 205.43 Q1776.18 205.43 1773.15 202.305 Q1770.14 199.157 1770.14 193.717 Q1770.14 188.393 1773.29 185.175 Q1776.44 181.958 1781.67 181.958 Q1787.66 181.958 1790.81 186.564 Q1793.98 191.148 1793.98 199.898 Q1793.98 208.069 1790.09 212.953 Q1786.23 217.814 1779.68 217.814 Q1777.92 217.814 1776.11 217.467 Q1774.31 217.12 1772.36 216.425 M1781.67 201.773 Q1784.82 201.773 1786.65 199.62 Q1788.5 197.467 1788.5 193.717 Q1788.5 189.99 1786.65 187.838 Q1784.82 185.662 1781.67 185.662 Q1778.52 185.662 1776.67 187.838 Q1774.84 189.99 1774.84 193.717 Q1774.84 197.467 1776.67 199.62 Q1778.52 201.773 1781.67 201.773 Z" fill="#000000" fill-rule="nonzero" fill-opacity="1" /><path clip-path="url(#clip650)" d="M1815.23 186.657 L1803.43 205.106 L1815.23 205.106 L1815.23 186.657 M1814.01 182.583 L1819.89 182.583 L1819.89 205.106 L1824.82 205.106 L1824.82 208.995 L1819.89 208.995 L1819.89 217.143 L1815.23 217.143 L1815.23 208.995 L1799.63 208.995 L1799.63 204.481 L1814.01 182.583 Z" fill="#000000" fill-rule="nonzero" fill-opacity="1" /><path clip-path="url(#clip650)" d="M1832.69 216.425 L1832.69 212.166 Q1834.45 212.999 1836.25 213.439 Q1838.06 213.879 1839.79 213.879 Q1844.42 213.879 1846.85 210.777 Q1849.31 207.652 1849.65 201.31 Q1848.31 203.3 1846.25 204.365 Q1844.19 205.43 1841.69 205.43 Q1836.51 205.43 1833.47 202.305 Q1830.46 199.157 1830.46 193.717 Q1830.46 188.393 1833.61 185.175 Q1836.76 181.958 1841.99 181.958 Q1847.99 181.958 1851.14 186.564 Q1854.31 191.148 1854.31 199.898 Q1854.31 208.069 1850.42 212.953 Q1846.55 217.814 1840 217.814 Q1838.24 217.814 1836.44 217.467 Q1834.63 217.12 1832.69 216.425 M1841.99 201.773 Q1845.14 201.773 1846.97 199.62 Q1848.82 197.467 1848.82 193.717 Q1848.82 189.99 1846.97 187.838 Q1845.14 185.662 1841.99 185.662 Q1838.84 185.662 1836.99 187.838 Q1835.16 189.99 1835.16 193.717 Q1835.16 197.467 1836.99 199.62 Q1838.84 201.773 1841.99 201.773 Z" fill="#000000" fill-rule="nonzero" fill-opacity="1" /><path clip-path="url(#clip650)" d="M1861.44 181.171 L1865.14 181.171 Q1868.61 186.634 1870.33 191.865 Q1872.06 197.097 1872.06 202.259 Q1872.06 207.444 1870.33 212.698 Q1868.61 217.953 1865.14 223.393 L1861.44 223.393 Q1864.52 218.092 1866.02 212.861 Q1867.55 207.606 1867.55 202.259 Q1867.55 196.912 1866.02 191.703 Q1864.52 186.495 1861.44 181.171 Z" fill="#000000" fill-rule="nonzero" fill-opacity="1" /><circle clip-path="url(#clip650)" cx="1494.45" cy="251.703" r="20.48" fill="#e26f46" fill-rule="evenodd" fill-opacity="1" stroke="#000000" stroke-opacity="1" stroke-width="3.41333"/>
<path clip-path="url(#clip650)" d="M1586.35 268.983 L1573.15 234.423 L1578.04 234.423 L1588.98 263.52 L1599.96 234.423 L1604.82 234.423 L1591.65 268.983 L1586.35 268.983 Z" fill="#000000" fill-rule="nonzero" fill-opacity="1" /><path clip-path="url(#clip650)" d="M1606.02 258.751 L1606.02 243.057 L1610.28 243.057 L1610.28 258.589 Q1610.28 262.27 1611.72 264.122 Q1613.15 265.951 1616.02 265.951 Q1619.47 265.951 1621.46 263.751 Q1623.48 261.552 1623.48 257.756 L1623.48 243.057 L1627.73 243.057 L1627.73 268.983 L1623.48 268.983 L1623.48 265.001 Q1621.92 267.363 1619.86 268.52 Q1617.83 269.654 1615.12 269.654 Q1610.65 269.654 1608.34 266.876 Q1606.02 264.099 1606.02 258.751 M1616.74 242.432 L1616.74 242.432 Z" fill="#000000" fill-rule="nonzero" fill-opacity="1" /><path clip-path="url(#clip650)" d="M1653.57 255.719 Q1653.57 251.089 1651.65 248.543 Q1649.75 245.997 1646.3 245.997 Q1642.87 245.997 1640.95 248.543 Q1639.05 251.089 1639.05 255.719 Q1639.05 260.326 1640.95 262.872 Q1642.87 265.418 1646.3 265.418 Q1649.75 265.418 1651.65 262.872 Q1653.57 260.326 1653.57 255.719 M1657.83 265.765 Q1657.83 272.386 1654.89 275.603 Q1651.95 278.844 1645.88 278.844 Q1643.64 278.844 1641.65 278.497 Q1639.66 278.173 1637.78 277.478 L1637.78 273.335 Q1639.66 274.353 1641.48 274.839 Q1643.31 275.325 1645.21 275.325 Q1649.4 275.325 1651.48 273.126 Q1653.57 270.95 1653.57 266.529 L1653.57 264.423 Q1652.25 266.714 1650.19 267.849 Q1648.13 268.983 1645.26 268.983 Q1640.49 268.983 1637.57 265.349 Q1634.66 261.714 1634.66 255.719 Q1634.66 249.701 1637.57 246.066 Q1640.49 242.432 1645.26 242.432 Q1648.13 242.432 1650.19 243.566 Q1652.25 244.701 1653.57 246.992 L1653.57 243.057 L1657.83 243.057 L1657.83 265.765 Z" fill="#000000" fill-rule="nonzero" fill-opacity="1" /><path clip-path="url(#clip650)" d="M1670.81 235.696 L1670.81 243.057 L1679.59 243.057 L1679.59 246.367 L1670.81 246.367 L1670.81 260.441 Q1670.81 263.613 1671.67 264.515 Q1672.55 265.418 1675.21 265.418 L1679.59 265.418 L1679.59 268.983 L1675.21 268.983 Q1670.28 268.983 1668.41 267.154 Q1666.53 265.302 1666.53 260.441 L1666.53 246.367 L1663.41 246.367 L1663.41 243.057 L1666.53 243.057 L1666.53 235.696 L1670.81 235.696 Z" fill="#000000" fill-rule="nonzero" fill-opacity="1" /><path clip-path="url(#clip650)" d="M1701.72 243.821 L1701.72 247.849 Q1699.91 246.923 1697.97 246.46 Q1696.02 245.997 1693.94 245.997 Q1690.77 245.997 1689.17 246.969 Q1687.6 247.941 1687.6 249.886 Q1687.6 251.367 1688.73 252.224 Q1689.86 253.057 1693.29 253.821 L1694.75 254.145 Q1699.28 255.117 1701.18 256.9 Q1703.1 258.659 1703.1 261.83 Q1703.1 265.441 1700.23 267.548 Q1697.39 269.654 1692.39 269.654 Q1690.3 269.654 1688.03 269.238 Q1685.79 268.844 1683.29 268.034 L1683.29 263.636 Q1685.65 264.863 1687.94 265.488 Q1690.23 266.089 1692.48 266.089 Q1695.49 266.089 1697.11 265.071 Q1698.73 264.029 1698.73 262.154 Q1698.73 260.418 1697.55 259.492 Q1696.39 258.566 1692.43 257.71 L1690.95 257.363 Q1686.99 256.529 1685.23 254.816 Q1683.47 253.08 1683.47 250.071 Q1683.47 246.414 1686.07 244.423 Q1688.66 242.432 1693.43 242.432 Q1695.79 242.432 1697.87 242.779 Q1699.96 243.127 1701.72 243.821 Z" fill="#000000" fill-rule="nonzero" fill-opacity="1" /><path clip-path="url(#clip650)" d="M1735.19 233.011 Q1732.09 238.335 1730.58 243.543 Q1729.08 248.752 1729.08 254.099 Q1729.08 259.446 1730.58 264.701 Q1732.11 269.932 1735.19 275.233 L1731.48 275.233 Q1728.01 269.793 1726.28 264.538 Q1724.56 259.284 1724.56 254.099 Q1724.56 248.937 1726.28 243.705 Q1727.99 238.474 1731.48 233.011 L1735.19 233.011 Z" fill="#000000" fill-rule="nonzero" fill-opacity="1" /><path clip-path="url(#clip650)" d="M1744.86 265.048 L1752.5 265.048 L1752.5 238.682 L1744.19 240.349 L1744.19 236.09 L1752.46 234.423 L1757.13 234.423 L1757.13 265.048 L1764.77 265.048 L1764.77 268.983 L1744.86 268.983 L1744.86 265.048 Z" fill="#000000" fill-rule="nonzero" fill-opacity="1" /><path clip-path="url(#clip650)" d="M1774.35 268.265 L1774.35 264.006 Q1776.11 264.839 1777.92 265.279 Q1779.72 265.719 1781.46 265.719 Q1786.09 265.719 1788.52 262.617 Q1790.97 259.492 1791.32 253.15 Q1789.98 255.14 1787.92 256.205 Q1785.86 257.27 1783.36 257.27 Q1778.17 257.27 1775.14 254.145 Q1772.13 250.997 1772.13 245.557 Q1772.13 240.233 1775.28 237.015 Q1778.43 233.798 1783.66 233.798 Q1789.65 233.798 1792.8 238.404 Q1795.97 242.988 1795.97 251.738 Q1795.97 259.909 1792.09 264.793 Q1788.22 269.654 1781.67 269.654 Q1779.91 269.654 1778.1 269.307 Q1776.3 268.96 1774.35 268.265 M1783.66 253.613 Q1786.81 253.613 1788.64 251.46 Q1790.49 249.307 1790.49 245.557 Q1790.49 241.83 1788.64 239.678 Q1786.81 237.502 1783.66 237.502 Q1780.51 237.502 1778.66 239.678 Q1776.83 241.83 1776.83 245.557 Q1776.83 249.307 1778.66 251.46 Q1780.51 253.613 1783.66 253.613 Z" fill="#000000" fill-rule="nonzero" fill-opacity="1" /><path clip-path="url(#clip650)" d="M1814.96 249.84 Q1811.81 249.84 1809.96 251.992 Q1808.13 254.145 1808.13 257.895 Q1808.13 261.622 1809.96 263.798 Q1811.81 265.951 1814.96 265.951 Q1818.1 265.951 1819.93 263.798 Q1821.78 261.622 1821.78 257.895 Q1821.78 254.145 1819.93 251.992 Q1818.1 249.84 1814.96 249.84 M1824.24 235.187 L1824.24 239.446 Q1822.48 238.613 1820.67 238.173 Q1818.89 237.733 1817.13 237.733 Q1812.5 237.733 1810.05 240.858 Q1807.62 243.983 1807.27 250.302 Q1808.64 248.289 1810.7 247.224 Q1812.76 246.136 1815.23 246.136 Q1820.44 246.136 1823.45 249.307 Q1826.48 252.455 1826.48 257.895 Q1826.48 263.219 1823.34 266.437 Q1820.19 269.654 1814.96 269.654 Q1808.96 269.654 1805.79 265.071 Q1802.62 260.464 1802.62 251.738 Q1802.62 243.543 1806.51 238.682 Q1810.4 233.798 1816.95 233.798 Q1818.71 233.798 1820.49 234.145 Q1822.29 234.492 1824.24 235.187 Z" fill="#000000" fill-rule="nonzero" fill-opacity="1" /><path clip-path="url(#clip650)" d="M1844.54 252.571 Q1841.21 252.571 1839.28 254.353 Q1837.39 256.136 1837.39 259.261 Q1837.39 262.386 1839.28 264.168 Q1841.21 265.951 1844.54 265.951 Q1847.87 265.951 1849.79 264.168 Q1851.71 262.363 1851.71 259.261 Q1851.71 256.136 1849.79 254.353 Q1847.9 252.571 1844.54 252.571 M1839.86 250.58 Q1836.85 249.84 1835.16 247.779 Q1833.5 245.719 1833.5 242.756 Q1833.5 238.613 1836.44 236.205 Q1839.4 233.798 1844.54 233.798 Q1849.7 233.798 1852.64 236.205 Q1855.58 238.613 1855.58 242.756 Q1855.58 245.719 1853.89 247.779 Q1852.22 249.84 1849.24 250.58 Q1852.62 251.367 1854.49 253.659 Q1856.39 255.951 1856.39 259.261 Q1856.39 264.284 1853.31 266.969 Q1850.26 269.654 1844.54 269.654 Q1838.82 269.654 1835.74 266.969 Q1832.69 264.284 1832.69 259.261 Q1832.69 255.951 1834.59 253.659 Q1836.48 251.367 1839.86 250.58 M1838.15 243.196 Q1838.15 245.881 1839.82 247.386 Q1841.51 248.89 1844.54 248.89 Q1847.55 248.89 1849.24 247.386 Q1850.95 245.881 1850.95 243.196 Q1850.95 240.511 1849.24 239.006 Q1847.55 237.502 1844.54 237.502 Q1841.51 237.502 1839.82 239.006 Q1838.15 240.511 1838.15 243.196 Z" fill="#000000" fill-rule="nonzero" fill-opacity="1" /><path clip-path="url(#clip650)" d="M1863.43 233.011 L1867.13 233.011 Q1870.6 238.474 1872.32 243.705 Q1874.05 248.937 1874.05 254.099 Q1874.05 259.284 1872.32 264.538 Q1870.6 269.793 1867.13 275.233 L1863.43 275.233 Q1866.51 269.932 1868.01 264.701 Q1869.54 259.446 1869.54 254.099 Q1869.54 248.752 1868.01 243.543 Q1866.51 238.335 1863.43 233.011 Z" fill="#000000" fill-rule="nonzero" fill-opacity="1" /></svg>
