<?xml version="1.0" encoding="utf-8"?>
<svg xmlns="http://www.w3.org/2000/svg" xmlns:xlink="http://www.w3.org/1999/xlink" width="500" height="300" viewBox="0 0 2000 1200">
<defs>
  <clipPath id="clip690">
    <rect x="0" y="0" width="2000" height="1200"/>
  </clipPath>
</defs>
<path clip-path="url(#clip690)" d="M0 1200 L2000 1200 L2000 0 L0 0  Z" fill="#ffffff" fill-rule="evenodd" fill-opacity="1"/>
<defs>
  <clipPath id="clip691">
    <rect x="400" y="0" width="1401" height="1200"/>
  </clipPath>
</defs>
<path clip-path="url(#clip690)" d="M152.598 1035.39 L1952.76 1035.39 L1952.76 117.424 L152.598 117.424  Z" fill="#ffffff" fill-rule="evenodd" fill-opacity="1"/>
<defs>
  <clipPath id="clip692">
    <rect x="152" y="117" width="1801" height="919"/>
  </clipPath>
</defs>
<polyline clip-path="url(#clip692)" style="stroke:#000000; stroke-linecap:round; stroke-linejoin:round; stroke-width:2; stroke-opacity:0.1; fill:none" points="537.543,1035.39 537.543,117.424 "/>
<polyline clip-path="url(#clip692)" style="stroke:#000000; stroke-linecap:round; stroke-linejoin:round; stroke-width:2; stroke-opacity:0.1; fill:none" points="992.298,1035.39 992.298,117.424 "/>
<polyline clip-path="url(#clip692)" style="stroke:#000000; stroke-linecap:round; stroke-linejoin:round; stroke-width:2; stroke-opacity:0.1; fill:none" points="1447.05,1035.39 1447.05,117.424 "/>
<polyline clip-path="url(#clip692)" style="stroke:#000000; stroke-linecap:round; stroke-linejoin:round; stroke-width:2; stroke-opacity:0.1; fill:none" points="1901.81,1035.39 1901.81,117.424 "/>
<polyline clip-path="url(#clip692)" style="stroke:#000000; stroke-linecap:round; stroke-linejoin:round; stroke-width:2; stroke-opacity:0.1; fill:none" points="152.598,922.975 1952.76,922.975 "/>
<polyline clip-path="url(#clip692)" style="stroke:#000000; stroke-linecap:round; stroke-linejoin:round; stroke-width:2; stroke-opacity:0.1; fill:none" points="152.598,773.841 1952.76,773.841 "/>
<polyline clip-path="url(#clip692)" style="stroke:#000000; stroke-linecap:round; stroke-linejoin:round; stroke-width:2; stroke-opacity:0.1; fill:none" points="152.598,624.707 1952.76,624.707 "/>
<polyline clip-path="url(#clip692)" style="stroke:#000000; stroke-linecap:round; stroke-linejoin:round; stroke-width:2; stroke-opacity:0.1; fill:none" points="152.598,475.573 1952.76,475.573 "/>
<polyline clip-path="url(#clip692)" style="stroke:#000000; stroke-linecap:round; stroke-linejoin:round; stroke-width:2; stroke-opacity:0.1; fill:none" points="152.598,326.44 1952.76,326.44 "/>
<polyline clip-path="url(#clip692)" style="stroke:#000000; stroke-linecap:round; stroke-linejoin:round; stroke-width:2; stroke-opacity:0.1; fill:none" points="152.598,177.306 1952.76,177.306 "/>
<polyline clip-path="url(#clip690)" style="stroke:#000000; stroke-linecap:round; stroke-linejoin:round; stroke-width:4; stroke-opacity:1; fill:none" points="152.598,1035.39 1952.76,1035.39 "/>
<polyline clip-path="url(#clip690)" style="stroke:#000000; stroke-linecap:round; stroke-linejoin:round; stroke-width:4; stroke-opacity:1; fill:none" points="537.543,1035.39 537.543,1016.49 "/>
<polyline clip-path="url(#clip690)" style="stroke:#000000; stroke-linecap:round; stroke-linejoin:round; stroke-width:4; stroke-opacity:1; fill:none" points="992.298,1035.39 992.298,1016.49 "/>
<polyline clip-path="url(#clip690)" style="stroke:#000000; stroke-linecap:round; stroke-linejoin:round; stroke-width:4; stroke-opacity:1; fill:none" points="1447.05,1035.39 1447.05,1016.49 "/>
<polyline clip-path="url(#clip690)" style="stroke:#000000; stroke-linecap:round; stroke-linejoin:round; stroke-width:4; stroke-opacity:1; fill:none" points="1901.81,1035.39 1901.81,1016.49 "/>
<path clip-path="url(#clip690)" d="M515.425 1063.11 Q511.814 1063.11 509.985 1066.67 Q508.18 1070.21 508.18 1077.34 Q508.18 1084.45 509.985 1088.01 Q511.814 1091.56 515.425 1091.56 Q519.059 1091.56 520.865 1088.01 Q522.693 1084.45 522.693 1077.34 Q522.693 1070.21 520.865 1066.67 Q519.059 1063.11 515.425 1063.11 M515.425 1059.4 Q521.235 1059.4 524.291 1064.01 Q527.369 1068.59 527.369 1077.34 Q527.369 1086.07 524.291 1090.68 Q521.235 1095.26 515.425 1095.26 Q509.615 1095.26 506.536 1090.68 Q503.481 1086.07 503.481 1077.34 Q503.481 1068.59 506.536 1064.01 Q509.615 1059.4 515.425 1059.4 Z" fill="#000000" fill-rule="nonzero" fill-opacity="1" /><path clip-path="url(#clip690)" d="M535.587 1088.71 L540.471 1088.71 L540.471 1094.59 L535.587 1094.59 L535.587 1088.71 Z" fill="#000000" fill-rule="nonzero" fill-opacity="1" /><path clip-path="url(#clip690)" d="M550.703 1060.03 L569.059 1060.03 L569.059 1063.96 L554.985 1063.96 L554.985 1072.44 Q556.003 1072.09 557.022 1071.93 Q558.04 1071.74 559.059 1071.74 Q564.846 1071.74 568.226 1074.91 Q571.605 1078.08 571.605 1083.5 Q571.605 1089.08 568.133 1092.18 Q564.661 1095.26 558.341 1095.26 Q556.165 1095.26 553.897 1094.89 Q551.652 1094.52 549.244 1093.78 L549.244 1089.08 Q551.328 1090.21 553.55 1090.77 Q555.772 1091.32 558.249 1091.32 Q562.253 1091.32 564.591 1089.22 Q566.929 1087.11 566.929 1083.5 Q566.929 1079.89 564.591 1077.78 Q562.253 1075.68 558.249 1075.68 Q556.374 1075.68 554.499 1076.09 Q552.647 1076.51 550.703 1077.39 L550.703 1060.03 Z" fill="#000000" fill-rule="nonzero" fill-opacity="1" /><path clip-path="url(#clip690)" d="M959.451 1090.65 L967.09 1090.65 L967.09 1064.29 L958.78 1065.95 L958.78 1061.69 L967.043 1060.03 L971.719 1060.03 L971.719 1090.65 L979.358 1090.65 L979.358 1094.59 L959.451 1094.59 L959.451 1090.65 Z" fill="#000000" fill-rule="nonzero" fill-opacity="1" /><path clip-path="url(#clip690)" d="M988.803 1088.71 L993.687 1088.71 L993.687 1094.59 L988.803 1094.59 L988.803 1088.71 Z" fill="#000000" fill-rule="nonzero" fill-opacity="1" /><path clip-path="url(#clip690)" d="M1013.87 1063.11 Q1010.26 1063.11 1008.43 1066.67 Q1006.63 1070.21 1006.63 1077.34 Q1006.63 1084.45 1008.43 1088.01 Q1010.26 1091.56 1013.87 1091.56 Q1017.51 1091.56 1019.31 1088.01 Q1021.14 1084.45 1021.14 1077.34 Q1021.14 1070.21 1019.31 1066.67 Q1017.51 1063.11 1013.87 1063.11 M1013.87 1059.4 Q1019.68 1059.4 1022.74 1064.01 Q1025.82 1068.59 1025.82 1077.34 Q1025.82 1086.07 1022.74 1090.68 Q1019.68 1095.26 1013.87 1095.26 Q1008.06 1095.26 1004.98 1090.68 Q1001.93 1086.07 1001.93 1077.34 Q1001.93 1068.59 1004.98 1064.01 Q1008.06 1059.4 1013.87 1059.4 Z" fill="#000000" fill-rule="nonzero" fill-opacity="1" /><path clip-path="url(#clip690)" d="M1414.7 1090.65 L1422.34 1090.65 L1422.34 1064.29 L1414.03 1065.95 L1414.03 1061.69 L1422.3 1060.03 L1426.97 1060.03 L1426.97 1090.65 L1434.61 1090.65 L1434.61 1094.59 L1414.7 1094.59 L1414.7 1090.65 Z" fill="#000000" fill-rule="nonzero" fill-opacity="1" /><path clip-path="url(#clip690)" d="M1444.06 1088.71 L1448.94 1088.71 L1448.94 1094.59 L1444.06 1094.59 L1444.06 1088.71 Z" fill="#000000" fill-rule="nonzero" fill-opacity="1" /><path clip-path="url(#clip690)" d="M1459.17 1060.03 L1477.53 1060.03 L1477.53 1063.96 L1463.45 1063.96 L1463.45 1072.44 Q1464.47 1072.09 1465.49 1071.93 Q1466.51 1071.74 1467.53 1071.74 Q1473.31 1071.74 1476.69 1074.91 Q1480.07 1078.08 1480.07 1083.5 Q1480.07 1089.08 1476.6 1092.18 Q1473.13 1095.26 1466.81 1095.26 Q1464.63 1095.26 1462.37 1094.89 Q1460.12 1094.52 1457.71 1093.78 L1457.71 1089.08 Q1459.8 1090.21 1462.02 1090.77 Q1464.24 1091.32 1466.72 1091.32 Q1470.72 1091.32 1473.06 1089.22 Q1475.4 1087.11 1475.4 1083.5 Q1475.4 1079.89 1473.06 1077.78 Q1470.72 1075.68 1466.72 1075.68 Q1464.84 1075.68 1462.97 1076.09 Q1461.12 1076.51 1459.17 1077.39 L1459.17 1060.03 Z" fill="#000000" fill-rule="nonzero" fill-opacity="1" /><path clip-path="url(#clip690)" d="M1873.05 1090.65 L1889.37 1090.65 L1889.37 1094.59 L1867.42 1094.59 L1867.42 1090.65 Q1870.08 1087.9 1874.67 1083.27 Q1879.27 1078.62 1880.45 1077.27 Q1882.7 1074.75 1883.58 1073.01 Q1884.48 1071.25 1884.48 1069.56 Q1884.48 1066.81 1882.54 1065.07 Q1880.62 1063.34 1877.51 1063.34 Q1875.32 1063.34 1872.86 1064.1 Q1870.43 1064.87 1867.65 1066.42 L1867.65 1061.69 Q1870.48 1060.56 1872.93 1059.98 Q1875.38 1059.4 1877.42 1059.4 Q1882.79 1059.4 1885.99 1062.09 Q1889.18 1064.77 1889.18 1069.26 Q1889.18 1071.39 1888.37 1073.31 Q1887.58 1075.21 1885.48 1077.81 Q1884.9 1078.48 1881.8 1081.69 Q1878.69 1084.89 1873.05 1090.65 Z" fill="#000000" fill-rule="nonzero" fill-opacity="1" /><path clip-path="url(#clip690)" d="M1899.18 1088.71 L1904.06 1088.71 L1904.06 1094.59 L1899.18 1094.59 L1899.18 1088.71 Z" fill="#000000" fill-rule="nonzero" fill-opacity="1" /><path clip-path="url(#clip690)" d="M1924.25 1063.11 Q1920.64 1063.11 1918.81 1066.67 Q1917 1070.21 1917 1077.34 Q1917 1084.45 1918.81 1088.01 Q1920.64 1091.56 1924.25 1091.56 Q1927.88 1091.56 1929.69 1088.01 Q1931.52 1084.45 1931.52 1077.34 Q1931.52 1070.21 1929.69 1066.67 Q1927.88 1063.11 1924.25 1063.11 M1924.25 1059.4 Q1930.06 1059.4 1933.12 1064.01 Q1936.19 1068.59 1936.19 1077.34 Q1936.19 1086.07 1933.12 1090.68 Q1930.06 1095.26 1924.25 1095.26 Q1918.44 1095.26 1915.36 1090.68 Q1912.31 1086.07 1912.31 1077.34 Q1912.31 1068.59 1915.36 1064.01 Q1918.44 1059.4 1924.25 1059.4 Z" fill="#000000" fill-rule="nonzero" fill-opacity="1" /><path clip-path="url(#clip690)" d="M1042.97 1175.17 Q1029.76 1175.17 1029.76 1156.27 Q1029.76 1148.79 1034.69 1138.6 L1041 1138.6 Q1036.44 1148.79 1036.44 1156.43 Q1036.44 1170.21 1043.51 1170.21 Q1049.97 1170.21 1049.97 1153.09 L1055.38 1153.09 Q1055.38 1170.21 1061.84 1170.21 Q1068.91 1170.21 1068.91 1156.43 Q1068.91 1148.79 1064.36 1138.6 L1070.66 1138.6 Q1075.59 1148.79 1075.59 1156.27 Q1075.59 1175.17 1062.38 1175.17 Q1053.73 1175.17 1052.68 1165.66 Q1051.37 1175.17 1042.97 1175.17 Z" fill="#000000" fill-rule="nonzero" fill-opacity="1" /><polyline clip-path="url(#clip690)" style="stroke:#000000; stroke-linecap:round; stroke-linejoin:round; stroke-width:4; stroke-opacity:1; fill:none" points="152.598,1035.39 152.598,117.424 "/>
<polyline clip-path="url(#clip690)" style="stroke:#000000; stroke-linecap:round; stroke-linejoin:round; stroke-width:4; stroke-opacity:1; fill:none" points="152.598,922.975 171.496,922.975 "/>
<polyline clip-path="url(#clip690)" style="stroke:#000000; stroke-linecap:round; stroke-linejoin:round; stroke-width:4; stroke-opacity:1; fill:none" points="152.598,773.841 171.496,773.841 "/>
<polyline clip-path="url(#clip690)" style="stroke:#000000; stroke-linecap:round; stroke-linejoin:round; stroke-width:4; stroke-opacity:1; fill:none" points="152.598,624.707 171.496,624.707 "/>
<polyline clip-path="url(#clip690)" style="stroke:#000000; stroke-linecap:round; stroke-linejoin:round; stroke-width:4; stroke-opacity:1; fill:none" points="152.598,475.573 171.496,475.573 "/>
<polyline clip-path="url(#clip690)" style="stroke:#000000; stroke-linecap:round; stroke-linejoin:round; stroke-width:4; stroke-opacity:1; fill:none" points="152.598,326.44 171.496,326.44 "/>
<polyline clip-path="url(#clip690)" style="stroke:#000000; stroke-linecap:round; stroke-linejoin:round; stroke-width:4; stroke-opacity:1; fill:none" points="152.598,177.306 171.496,177.306 "/>
<path clip-path="url(#clip690)" d="M66.6495 908.774 Q63.0384 908.774 61.2097 912.339 Q59.4041 915.88 59.4041 923.01 Q59.4041 930.116 61.2097 933.681 Q63.0384 937.223 66.6495 937.223 Q70.2837 937.223 72.0892 933.681 Q73.9179 930.116 73.9179 923.01 Q73.9179 915.88 72.0892 912.339 Q70.2837 908.774 66.6495 908.774 M66.6495 905.07 Q72.4596 905.07 75.5152 909.677 Q78.5938 914.26 78.5938 923.01 Q78.5938 931.737 75.5152 936.343 Q72.4596 940.927 66.6495 940.927 Q60.8393 940.927 57.7606 936.343 Q54.7051 931.737 54.7051 923.01 Q54.7051 914.26 57.7606 909.677 Q60.8393 905.07 66.6495 905.07 Z" fill="#000000" fill-rule="nonzero" fill-opacity="1" /><path clip-path="url(#clip690)" d="M86.8114 934.376 L91.6956 934.376 L91.6956 940.255 L86.8114 940.255 L86.8114 934.376 Z" fill="#000000" fill-rule="nonzero" fill-opacity="1" /><path clip-path="url(#clip690)" d="M102.691 936.32 L110.33 936.32 L110.33 909.955 L102.02 911.621 L102.02 907.362 L110.283 905.695 L114.959 905.695 L114.959 936.32 L122.598 936.32 L122.598 940.255 L102.691 940.255 L102.691 936.32 Z" fill="#000000" fill-rule="nonzero" fill-opacity="1" /><path clip-path="url(#clip690)" d="M67.0198 759.64 Q63.4087 759.64 61.58 763.205 Q59.7745 766.747 59.7745 773.876 Q59.7745 780.983 61.58 784.547 Q63.4087 788.089 67.0198 788.089 Q70.6541 788.089 72.4596 784.547 Q74.2883 780.983 74.2883 773.876 Q74.2883 766.747 72.4596 763.205 Q70.6541 759.64 67.0198 759.64 M67.0198 755.936 Q72.83 755.936 75.8855 760.543 Q78.9642 765.126 78.9642 773.876 Q78.9642 782.603 75.8855 787.209 Q72.83 791.793 67.0198 791.793 Q61.2097 791.793 58.131 787.209 Q55.0754 782.603 55.0754 773.876 Q55.0754 765.126 58.131 760.543 Q61.2097 755.936 67.0198 755.936 Z" fill="#000000" fill-rule="nonzero" fill-opacity="1" /><path clip-path="url(#clip690)" d="M87.1818 785.242 L92.066 785.242 L92.066 791.121 L87.1818 791.121 L87.1818 785.242 Z" fill="#000000" fill-rule="nonzero" fill-opacity="1" /><path clip-path="url(#clip690)" d="M106.279 787.186 L122.598 787.186 L122.598 791.121 L100.654 791.121 L100.654 787.186 Q103.316 784.432 107.899 779.802 Q112.506 775.149 113.686 773.807 Q115.932 771.284 116.811 769.547 Q117.714 767.788 117.714 766.098 Q117.714 763.344 115.77 761.608 Q113.848 759.872 110.746 759.872 Q108.547 759.872 106.094 760.635 Q103.663 761.399 100.885 762.95 L100.885 758.228 Q103.709 757.094 106.163 756.515 Q108.617 755.936 110.654 755.936 Q116.024 755.936 119.219 758.622 Q122.413 761.307 122.413 765.797 Q122.413 767.927 121.603 769.848 Q120.816 771.746 118.709 774.339 Q118.131 775.01 115.029 778.228 Q111.927 781.422 106.279 787.186 Z" fill="#000000" fill-rule="nonzero" fill-opacity="1" /><path clip-path="url(#clip690)" d="M66.0708 610.506 Q62.4597 610.506 60.631 614.071 Q58.8254 617.613 58.8254 624.742 Q58.8254 631.849 60.631 635.413 Q62.4597 638.955 66.0708 638.955 Q69.705 638.955 71.5105 635.413 Q73.3392 631.849 73.3392 624.742 Q73.3392 617.613 71.5105 614.071 Q69.705 610.506 66.0708 610.506 M66.0708 606.802 Q71.8809 606.802 74.9365 611.409 Q78.0151 615.992 78.0151 624.742 Q78.0151 633.469 74.9365 638.075 Q71.8809 642.659 66.0708 642.659 Q60.2606 642.659 57.1819 638.075 Q54.1264 633.469 54.1264 624.742 Q54.1264 615.992 57.1819 611.409 Q60.2606 606.802 66.0708 606.802 Z" fill="#000000" fill-rule="nonzero" fill-opacity="1" /><path clip-path="url(#clip690)" d="M86.2327 636.108 L91.1169 636.108 L91.1169 641.987 L86.2327 641.987 L86.2327 636.108 Z" fill="#000000" fill-rule="nonzero" fill-opacity="1" /><path clip-path="url(#clip690)" d="M115.469 623.353 Q118.825 624.071 120.7 626.339 Q122.598 628.608 122.598 631.941 Q122.598 637.057 119.08 639.858 Q115.561 642.659 109.08 642.659 Q106.904 642.659 104.589 642.219 Q102.297 641.802 99.8437 640.946 L99.8437 636.432 Q101.788 637.566 104.103 638.145 Q106.418 638.724 108.941 638.724 Q113.339 638.724 115.631 636.987 Q117.945 635.251 117.945 631.941 Q117.945 628.886 115.793 627.173 Q113.663 625.437 109.844 625.437 L105.816 625.437 L105.816 621.594 L110.029 621.594 Q113.478 621.594 115.307 620.228 Q117.135 618.839 117.135 616.247 Q117.135 613.585 115.237 612.173 Q113.362 610.738 109.844 610.738 Q107.922 610.738 105.723 611.154 Q103.524 611.571 100.885 612.451 L100.885 608.284 Q103.547 607.543 105.862 607.173 Q108.2 606.802 110.26 606.802 Q115.584 606.802 118.686 609.233 Q121.788 611.64 121.788 615.761 Q121.788 618.631 120.145 620.622 Q118.501 622.589 115.469 623.353 Z" fill="#000000" fill-rule="nonzero" fill-opacity="1" /><path clip-path="url(#clip690)" d="M64.9365 461.372 Q61.3254 461.372 59.4967 464.937 Q57.6912 468.479 57.6912 475.608 Q57.6912 482.715 59.4967 486.279 Q61.3254 489.821 64.9365 489.821 Q68.5707 489.821 70.3763 486.279 Q72.205 482.715 72.205 475.608 Q72.205 468.479 70.3763 464.937 Q68.5707 461.372 64.9365 461.372 M64.9365 457.668 Q70.7467 457.668 73.8022 462.275 Q76.8809 466.858 76.8809 475.608 Q76.8809 484.335 73.8022 488.941 Q70.7467 493.525 64.9365 493.525 Q59.1264 493.525 56.0477 488.941 Q52.9921 484.335 52.9921 475.608 Q52.9921 466.858 56.0477 462.275 Q59.1264 457.668 64.9365 457.668 Z" fill="#000000" fill-rule="nonzero" fill-opacity="1" /><path clip-path="url(#clip690)" d="M85.0984 486.974 L89.9827 486.974 L89.9827 492.853 L85.0984 492.853 L85.0984 486.974 Z" fill="#000000" fill-rule="nonzero" fill-opacity="1" /><path clip-path="url(#clip690)" d="M113.015 462.368 L101.209 480.816 L113.015 480.816 L113.015 462.368 M111.788 458.293 L117.668 458.293 L117.668 480.816 L122.598 480.816 L122.598 484.705 L117.668 484.705 L117.668 492.853 L113.015 492.853 L113.015 484.705 L97.4132 484.705 L97.4132 480.191 L111.788 458.293 Z" fill="#000000" fill-rule="nonzero" fill-opacity="1" /><path clip-path="url(#clip690)" d="M66.418 312.238 Q62.8069 312.238 60.9782 315.803 Q59.1726 319.345 59.1726 326.474 Q59.1726 333.581 60.9782 337.145 Q62.8069 340.687 66.418 340.687 Q70.0522 340.687 71.8578 337.145 Q73.6865 333.581 73.6865 326.474 Q73.6865 319.345 71.8578 315.803 Q70.0522 312.238 66.418 312.238 M66.418 308.535 Q72.2281 308.535 75.2837 313.141 Q78.3624 317.724 78.3624 326.474 Q78.3624 335.201 75.2837 339.807 Q72.2281 344.391 66.418 344.391 Q60.6078 344.391 57.5291 339.807 Q54.4736 335.201 54.4736 326.474 Q54.4736 317.724 57.5291 313.141 Q60.6078 308.535 66.418 308.535 Z" fill="#000000" fill-rule="nonzero" fill-opacity="1" /><path clip-path="url(#clip690)" d="M86.5799 337.84 L91.4641 337.84 L91.4641 343.72 L86.5799 343.72 L86.5799 337.84 Z" fill="#000000" fill-rule="nonzero" fill-opacity="1" /><path clip-path="url(#clip690)" d="M101.696 309.16 L120.052 309.16 L120.052 313.095 L105.978 313.095 L105.978 321.567 Q106.996 321.22 108.015 321.058 Q109.033 320.872 110.052 320.872 Q115.839 320.872 119.219 324.044 Q122.598 327.215 122.598 332.632 Q122.598 338.21 119.126 341.312 Q115.654 344.391 109.334 344.391 Q107.159 344.391 104.89 344.02 Q102.645 343.65 100.237 342.909 L100.237 338.21 Q102.321 339.345 104.543 339.9 Q106.765 340.456 109.242 340.456 Q113.246 340.456 115.584 338.349 Q117.922 336.243 117.922 332.632 Q117.922 329.021 115.584 326.914 Q113.246 324.808 109.242 324.808 Q107.367 324.808 105.492 325.224 Q103.64 325.641 101.696 326.521 L101.696 309.16 Z" fill="#000000" fill-rule="nonzero" fill-opacity="1" /><path clip-path="url(#clip690)" d="M65.2606 163.104 Q61.6495 163.104 59.8208 166.669 Q58.0152 170.211 58.0152 177.34 Q58.0152 184.447 59.8208 188.012 Q61.6495 191.553 65.2606 191.553 Q68.8948 191.553 70.7004 188.012 Q72.5291 184.447 72.5291 177.34 Q72.5291 170.211 70.7004 166.669 Q68.8948 163.104 65.2606 163.104 M65.2606 159.401 Q71.0707 159.401 74.1263 164.007 Q77.205 168.59 77.205 177.34 Q77.205 186.067 74.1263 190.674 Q71.0707 195.257 65.2606 195.257 Q59.4504 195.257 56.3717 190.674 Q53.3162 186.067 53.3162 177.34 Q53.3162 168.59 56.3717 164.007 Q59.4504 159.401 65.2606 159.401 Z" fill="#000000" fill-rule="nonzero" fill-opacity="1" /><path clip-path="url(#clip690)" d="M85.4225 188.706 L90.3067 188.706 L90.3067 194.586 L85.4225 194.586 L85.4225 188.706 Z" fill="#000000" fill-rule="nonzero" fill-opacity="1" /><path clip-path="url(#clip690)" d="M111.071 175.442 Q107.922 175.442 106.071 177.595 Q104.242 179.748 104.242 183.498 Q104.242 187.224 106.071 189.4 Q107.922 191.553 111.071 191.553 Q114.219 191.553 116.047 189.4 Q117.899 187.224 117.899 183.498 Q117.899 179.748 116.047 177.595 Q114.219 175.442 111.071 175.442 M120.353 160.789 L120.353 165.049 Q118.594 164.215 116.788 163.776 Q115.006 163.336 113.246 163.336 Q108.617 163.336 106.163 166.461 Q103.733 169.586 103.385 175.905 Q104.751 173.891 106.811 172.826 Q108.871 171.738 111.348 171.738 Q116.557 171.738 119.566 174.91 Q122.598 178.058 122.598 183.498 Q122.598 188.822 119.45 192.039 Q116.302 195.257 111.071 195.257 Q105.075 195.257 101.904 190.674 Q98.7326 186.067 98.7326 177.34 Q98.7326 169.146 102.621 164.285 Q106.51 159.401 113.061 159.401 Q114.82 159.401 116.603 159.748 Q118.408 160.095 120.353 160.789 Z" fill="#000000" fill-rule="nonzero" fill-opacity="1" /><path clip-path="url(#clip690)" d="M652.488 45.1919 L652.488 72.576 L645.035 72.576 L645.035 45.4349 Q645.035 38.994 642.523 35.7938 Q640.011 32.5936 634.988 32.5936 Q628.952 32.5936 625.469 36.4419 Q621.985 40.2903 621.985 46.9338 L621.985 72.576 L614.491 72.576 L614.491 9.54393 L621.985 9.54393 L621.985 34.2544 Q624.659 30.163 628.264 28.1376 Q631.91 26.1121 636.649 26.1121 Q644.467 26.1121 648.478 30.9732 Q652.488 35.7938 652.488 45.1919 Z" fill="#000000" fill-rule="nonzero" fill-opacity="1" /><path clip-path="url(#clip690)" d="M706.163 48.0275 L706.163 51.6733 L671.892 51.6733 Q672.378 59.3701 676.51 63.421 Q680.683 67.4314 688.096 67.4314 Q692.39 67.4314 696.4 66.3781 Q700.451 65.3249 704.421 63.2184 L704.421 70.267 Q700.41 71.9684 696.197 72.8596 Q691.985 73.7508 687.65 73.7508 Q676.794 73.7508 670.434 67.4314 Q664.114 61.1119 664.114 50.3365 Q664.114 39.1965 670.11 32.6746 Q676.146 26.1121 686.354 26.1121 Q695.509 26.1121 700.816 32.0264 Q706.163 37.9003 706.163 48.0275 M698.709 45.84 Q698.628 39.7232 695.266 36.0774 Q691.944 32.4315 686.435 32.4315 Q680.196 32.4315 676.429 35.9558 Q672.702 39.4801 672.135 45.8805 L698.709 45.84 Z" fill="#000000" fill-rule="nonzero" fill-opacity="1" /><path clip-path="url(#clip690)" d="M739.016 49.7694 Q729.982 49.7694 726.498 51.8354 Q723.014 53.9013 723.014 58.8839 Q723.014 62.8538 725.607 65.2034 Q728.24 67.5124 732.737 67.5124 Q738.935 67.5124 742.661 63.1374 Q746.429 58.7219 746.429 51.4303 L746.429 49.7694 L739.016 49.7694 M753.882 46.6907 L753.882 72.576 L746.429 72.576 L746.429 65.6895 Q743.877 69.8214 740.069 71.8063 Q736.261 73.7508 730.752 73.7508 Q723.784 73.7508 719.652 69.8619 Q715.561 65.9325 715.561 59.3701 Q715.561 51.7138 720.665 47.825 Q725.81 43.9361 735.977 43.9361 L746.429 43.9361 L746.429 43.2069 Q746.429 38.0623 743.026 35.2672 Q739.664 32.4315 733.547 32.4315 Q729.658 32.4315 725.972 33.3632 Q722.285 34.295 718.883 36.1584 L718.883 29.2718 Q722.974 27.692 726.822 26.9223 Q730.671 26.1121 734.317 26.1121 Q744.16 26.1121 749.021 31.2163 Q753.882 36.3204 753.882 46.6907 Z" fill="#000000" fill-rule="nonzero" fill-opacity="1" /><path clip-path="url(#clip690)" d="M763.888 27.2059 L771.787 27.2059 L785.966 65.2844 L800.144 27.2059 L808.043 27.2059 L791.029 72.576 L780.902 72.576 L763.888 27.2059 Z" fill="#000000" fill-rule="nonzero" fill-opacity="1" /><path clip-path="url(#clip690)" d="M857.14 48.0275 L857.14 51.6733 L822.869 51.6733 Q823.355 59.3701 827.487 63.421 Q831.66 67.4314 839.073 67.4314 Q843.367 67.4314 847.377 66.3781 Q851.428 65.3249 855.398 63.2184 L855.398 70.267 Q851.388 71.9684 847.175 72.8596 Q842.962 73.7508 838.627 73.7508 Q827.771 73.7508 821.411 67.4314 Q815.092 61.1119 815.092 50.3365 Q815.092 39.1965 821.087 32.6746 Q827.123 26.1121 837.331 26.1121 Q846.486 26.1121 851.793 32.0264 Q857.14 37.9003 857.14 48.0275 M849.686 45.84 Q849.605 39.7232 846.243 36.0774 Q842.921 32.4315 837.412 32.4315 Q831.174 32.4315 827.406 35.9558 Q823.679 39.4801 823.112 45.8805 L849.686 45.84 Z" fill="#000000" fill-rule="nonzero" fill-opacity="1" /><path clip-path="url(#clip690)" d="M891.411 27.2059 L898.864 27.2059 L908.181 62.6108 L917.458 27.2059 L926.248 27.2059 L935.565 62.6108 L944.842 27.2059 L952.296 27.2059 L940.427 72.576 L931.636 72.576 L921.873 35.3887 L912.07 72.576 L903.28 72.576 L891.411 27.2059 Z" fill="#000000" fill-rule="nonzero" fill-opacity="1" /><path clip-path="url(#clip690)" d="M984.217 49.7694 Q975.183 49.7694 971.699 51.8354 Q968.216 53.9013 968.216 58.8839 Q968.216 62.8538 970.808 65.2034 Q973.441 67.5124 977.938 67.5124 Q984.136 67.5124 987.863 63.1374 Q991.63 58.7219 991.63 51.4303 L991.63 49.7694 L984.217 49.7694 M999.084 46.6907 L999.084 72.576 L991.63 72.576 L991.63 65.6895 Q989.078 69.8214 985.27 71.8063 Q981.462 73.7508 975.953 73.7508 Q968.985 73.7508 964.853 69.8619 Q960.762 65.9325 960.762 59.3701 Q960.762 51.7138 965.866 47.825 Q971.011 43.9361 981.179 43.9361 L991.63 43.9361 L991.63 43.2069 Q991.63 38.0623 988.227 35.2672 Q984.865 32.4315 978.748 32.4315 Q974.859 32.4315 971.173 33.3632 Q967.487 34.295 964.084 36.1584 L964.084 29.2718 Q968.175 27.692 972.024 26.9223 Q975.872 26.1121 979.518 26.1121 Q989.361 26.1121 994.223 31.2163 Q999.084 36.3204 999.084 46.6907 Z" fill="#000000" fill-rule="nonzero" fill-opacity="1" /><path clip-path="url(#clip690)" d="M1009.09 27.2059 L1016.99 27.2059 L1031.17 65.2844 L1045.34 27.2059 L1053.24 27.2059 L1036.23 72.576 L1026.1 72.576 L1009.09 27.2059 Z" fill="#000000" fill-rule="nonzero" fill-opacity="1" /><path clip-path="url(#clip690)" d="M1102.34 48.0275 L1102.34 51.6733 L1068.07 51.6733 Q1068.56 59.3701 1072.69 63.421 Q1076.86 67.4314 1084.27 67.4314 Q1088.57 67.4314 1092.58 66.3781 Q1096.63 65.3249 1100.6 63.2184 L1100.6 70.267 Q1096.59 71.9684 1092.38 72.8596 Q1088.16 73.7508 1083.83 73.7508 Q1072.97 73.7508 1066.61 67.4314 Q1060.29 61.1119 1060.29 50.3365 Q1060.29 39.1965 1066.29 32.6746 Q1072.32 26.1121 1082.53 26.1121 Q1091.69 26.1121 1096.99 32.0264 Q1102.34 37.9003 1102.34 48.0275 M1094.89 45.84 Q1094.81 39.7232 1091.44 36.0774 Q1088.12 32.4315 1082.61 32.4315 Q1076.37 32.4315 1072.61 35.9558 Q1068.88 39.4801 1068.31 45.8805 L1094.89 45.84 Z" fill="#000000" fill-rule="nonzero" fill-opacity="1" /><path clip-path="url(#clip690)" d="M1170.8 34.0924 L1170.8 9.54393 L1178.26 9.54393 L1178.26 72.576 L1170.8 72.576 L1170.8 65.7705 Q1168.45 69.8214 1164.85 71.8063 Q1161.28 73.7508 1156.26 73.7508 Q1148.04 73.7508 1142.85 67.1883 Q1137.71 60.6258 1137.71 49.9314 Q1137.71 39.2371 1142.85 32.6746 Q1148.04 26.1121 1156.26 26.1121 Q1161.28 26.1121 1164.85 28.0971 Q1168.45 30.0415 1170.8 34.0924 M1145.4 49.9314 Q1145.4 58.1548 1148.76 62.8538 Q1152.17 67.5124 1158.08 67.5124 Q1164 67.5124 1167.4 62.8538 Q1170.8 58.1548 1170.8 49.9314 Q1170.8 41.7081 1167.4 37.0496 Q1164 32.3505 1158.08 32.3505 Q1152.17 32.3505 1148.76 37.0496 Q1145.4 41.7081 1145.4 49.9314 Z" fill="#000000" fill-rule="nonzero" fill-opacity="1" /><path clip-path="url(#clip690)" d="M1214.23 49.7694 Q1205.19 49.7694 1201.71 51.8354 Q1198.23 53.9013 1198.23 58.8839 Q1198.23 62.8538 1200.82 65.2034 Q1203.45 67.5124 1207.95 67.5124 Q1214.15 67.5124 1217.87 63.1374 Q1221.64 58.7219 1221.64 51.4303 L1221.64 49.7694 L1214.23 49.7694 M1229.09 46.6907 L1229.09 72.576 L1221.64 72.576 L1221.64 65.6895 Q1219.09 69.8214 1215.28 71.8063 Q1211.47 73.7508 1205.96 73.7508 Q1199 73.7508 1194.86 69.8619 Q1190.77 65.9325 1190.77 59.3701 Q1190.77 51.7138 1195.88 47.825 Q1201.02 43.9361 1211.19 43.9361 L1221.64 43.9361 L1221.64 43.2069 Q1221.64 38.0623 1218.24 35.2672 Q1214.88 32.4315 1208.76 32.4315 Q1204.87 32.4315 1201.18 33.3632 Q1197.5 34.295 1194.09 36.1584 L1194.09 29.2718 Q1198.19 27.692 1202.03 26.9223 Q1205.88 26.1121 1209.53 26.1121 Q1219.37 26.1121 1224.23 31.2163 Q1229.09 36.3204 1229.09 46.6907 Z" fill="#000000" fill-rule="nonzero" fill-opacity="1" /><path clip-path="url(#clip690)" d="M1279.77 35.9153 Q1282.57 30.8922 1286.45 28.5022 Q1290.34 26.1121 1295.61 26.1121 Q1302.7 26.1121 1306.55 31.0947 Q1310.4 36.0368 1310.4 45.1919 L1310.4 72.576 L1302.9 72.576 L1302.9 45.4349 Q1302.9 38.913 1300.59 35.7533 Q1298.28 32.5936 1293.54 32.5936 Q1287.75 32.5936 1284.39 36.4419 Q1281.03 40.2903 1281.03 46.9338 L1281.03 72.576 L1273.53 72.576 L1273.53 45.4349 Q1273.53 38.8725 1271.22 35.7533 Q1268.91 32.5936 1264.09 32.5936 Q1258.38 32.5936 1255.02 36.4824 Q1251.66 40.3308 1251.66 46.9338 L1251.66 72.576 L1244.16 72.576 L1244.16 27.2059 L1251.66 27.2059 L1251.66 34.2544 Q1254.21 30.082 1257.77 28.0971 Q1261.34 26.1121 1266.24 26.1121 Q1271.18 26.1121 1274.63 28.6237 Q1278.11 31.1352 1279.77 35.9153 Z" fill="#000000" fill-rule="nonzero" fill-opacity="1" /><path clip-path="url(#clip690)" d="M1332.47 65.7705 L1332.47 89.8329 L1324.98 89.8329 L1324.98 27.2059 L1332.47 27.2059 L1332.47 34.0924 Q1334.82 30.0415 1338.39 28.0971 Q1341.99 26.1121 1346.98 26.1121 Q1355.24 26.1121 1360.38 32.6746 Q1365.57 39.2371 1365.57 49.9314 Q1365.57 60.6258 1360.38 67.1883 Q1355.24 73.7508 1346.98 73.7508 Q1341.99 73.7508 1338.39 71.8063 Q1334.82 69.8214 1332.47 65.7705 M1357.83 49.9314 Q1357.83 41.7081 1354.43 37.0496 Q1351.07 32.3505 1345.15 32.3505 Q1339.24 32.3505 1335.84 37.0496 Q1332.47 41.7081 1332.47 49.9314 Q1332.47 58.1548 1335.84 62.8538 Q1339.24 67.5124 1345.15 67.5124 Q1351.07 67.5124 1354.43 62.8538 Q1357.83 58.1548 1357.83 49.9314 Z" fill="#000000" fill-rule="nonzero" fill-opacity="1" /><path clip-path="url(#clip690)" d="M1377.92 27.2059 L1385.38 27.2059 L1385.38 72.576 L1377.92 72.576 L1377.92 27.2059 M1377.92 9.54393 L1385.38 9.54393 L1385.38 18.9825 L1377.92 18.9825 L1377.92 9.54393 Z" fill="#000000" fill-rule="nonzero" fill-opacity="1" /><path clip-path="url(#clip690)" d="M1438.69 45.1919 L1438.69 72.576 L1431.23 72.576 L1431.23 45.4349 Q1431.23 38.994 1428.72 35.7938 Q1426.21 32.5936 1421.19 32.5936 Q1415.15 32.5936 1411.67 36.4419 Q1408.18 40.2903 1408.18 46.9338 L1408.18 72.576 L1400.69 72.576 L1400.69 27.2059 L1408.18 27.2059 L1408.18 34.2544 Q1410.86 30.163 1414.46 28.1376 Q1418.11 26.1121 1422.85 26.1121 Q1430.67 26.1121 1434.68 30.9732 Q1438.69 35.7938 1438.69 45.1919 Z" fill="#000000" fill-rule="nonzero" fill-opacity="1" /><path clip-path="url(#clip690)" d="M1483.41 49.3643 Q1483.41 41.2625 1480.05 36.8065 Q1476.73 32.3505 1470.69 32.3505 Q1464.69 32.3505 1461.33 36.8065 Q1458.01 41.2625 1458.01 49.3643 Q1458.01 57.4256 1461.33 61.8816 Q1464.69 66.3376 1470.69 66.3376 Q1476.73 66.3376 1480.05 61.8816 Q1483.41 57.4256 1483.41 49.3643 M1490.86 66.9452 Q1490.86 78.5308 1485.72 84.1616 Q1480.57 89.8329 1469.96 89.8329 Q1466.03 89.8329 1462.55 89.2252 Q1459.06 88.6581 1455.78 87.4428 L1455.78 80.1917 Q1459.06 81.9741 1462.26 82.8248 Q1465.46 83.6755 1468.79 83.6755 Q1476.12 83.6755 1479.76 79.8271 Q1483.41 76.0193 1483.41 68.282 L1483.41 64.5957 Q1481.1 68.6061 1477.5 70.5911 Q1473.89 72.576 1468.87 72.576 Q1460.52 72.576 1455.42 66.2161 Q1450.31 59.8562 1450.31 49.3643 Q1450.31 38.832 1455.42 32.472 Q1460.52 26.1121 1468.87 26.1121 Q1473.89 26.1121 1477.5 28.0971 Q1481.1 30.082 1483.41 34.0924 L1483.41 27.2059 L1490.86 27.2059 L1490.86 66.9452 Z" fill="#000000" fill-rule="nonzero" fill-opacity="1" /><polyline clip-path="url(#clip692)" style="stroke:#009af9; stroke-linecap:round; stroke-linejoin:round; stroke-width:4; stroke-opacity:1; fill:none" points="240.32,511.554 264.69,449.306 286.16,400.071 305.571,359.925 323.422,326.53 340.036,298.368 355.641,274.388 370.4,253.83 384.438,236.124 397.851,220.833 410.716,207.61 423.095,196.179 435.04,186.314 446.592,177.828 457.788,170.565 468.66,164.392 479.234,159.197 489.533,154.882 499.578,151.363 509.386,148.567 518.974,146.428 528.355,144.891 537.543,143.904 546.549,143.422 555.383,143.404 564.055,143.814 572.574,144.62 580.947,145.79 589.182,147.298 597.284,149.119 605.262,151.23 613.119,153.611 620.861,156.242 628.494,159.106 636.021,162.186 643.448,165.467 650.777,168.935 658.013,172.577 665.158,176.381 672.218,180.336 679.194,184.431 686.089,188.656 692.906,193.002 699.648,197.459 706.317,202.021 712.915,206.679 719.445,211.426 725.909,216.256 732.308,221.161 738.645,226.136 744.921,231.175 751.139,236.273 757.299,241.425 763.403,246.625 769.453,251.869 775.45,257.154 781.396,262.474 787.291,267.826 793.138,273.206 798.937,278.611 804.689,284.038 810.396,289.483 816.058,294.943 821.677,300.415 827.254,305.898 832.789,311.387 838.284,316.882 843.739,322.379 849.155,327.876 854.533,333.372 859.874,338.863 865.178,344.35 870.447,349.828 875.68,355.298 880.88,360.757 886.045,366.204 891.178,371.638 896.278,377.056 901.347,382.458 906.384,387.843 911.391,393.209 916.368,398.555 921.315,403.88 926.233,409.184 931.122,414.465 935.984,419.723 940.818,424.956 945.625,430.164 950.405,435.346 955.159,440.502 959.888,445.63 964.591,450.731 969.269,455.803 973.922,460.847 978.551,465.861 983.157,470.845 987.739,475.799 992.298,480.722 996.834,485.614 1001.35,490.475 1005.84,495.304 1010.31,500.101 1014.76,504.866 1019.19,509.599 1023.59,514.299 1027.98,518.966 1032.34,523.6 1036.69,528.201 1041.02,532.768 1045.32,537.302 1049.61,541.803 1053.88,546.27 1058.13,550.703 1062.36,555.103 1066.57,559.469 1070.77,563.801 1074.95,568.1 1079.11,572.364 1083.25,576.595 1087.37,580.793 1091.48,584.956 1095.58,589.086 1099.65,593.183 1103.71,597.246 1107.75,601.276 1111.78,605.272 1115.79,609.235 1119.79,613.165 1123.77,617.063 1127.74,620.927 1131.69,624.759 1135.62,628.558 1139.54,632.324 1143.45,636.059 1147.34,639.761 1151.22,643.431 1155.08,647.069 1158.93,650.676 1162.77,654.251 1166.59,657.795 1170.4,661.308 1174.2,664.79 1177.98,668.241 1181.75,671.662 1185.51,675.052 1189.25,678.412 1192.99,681.742 1196.71,685.042 1200.41,688.312 1204.11,691.553 1207.79,694.765 1211.46,697.948 1215.12,701.103 1218.77,704.228 1222.4,707.325 1226.02,710.394 1229.64,713.436 1233.24,716.449 1236.83,719.435 1240.41,722.394 1243.97,725.325 1247.53,728.23 1251.07,731.108 1254.61,733.959 1258.13,736.785 1261.65,739.584 1265.15,742.357 1268.64,745.105 1272.13,747.828 1275.6,750.525 1279.06,753.198 1282.51,755.846 1285.96,758.469 1289.39,761.068 1292.81,763.642 1296.23,766.193 1299.63,768.721 1303.02,771.224 1306.41,773.705 1309.78,776.162 1313.15,778.597 1316.51,781.009 1319.86,783.399 1323.19,785.766 1326.52,788.111 1329.85,790.435 1333.16,792.737 1336.46,795.017 1339.76,797.277 1343.04,799.515 1346.32,801.732 1349.59,803.929 1352.85,806.105 1356.1,808.262 1359.35,810.398 1362.58,812.514 1365.81,814.61 1369.03,816.687 1372.24,818.745 1375.44,820.783 1378.64,822.803 1381.83,824.804 1385.01,826.786 1388.18,828.75 1391.35,830.696 1394.5,832.623 1397.65,834.533 1400.79,836.425 1403.93,838.3 1407.05,840.157 1410.17,841.997 1413.29,843.82 1416.39,845.626 1419.49,847.415 1422.58,849.188 1425.66,850.945 1428.74,852.685 1431.81,854.409 1434.87,856.118 1437.93,857.81 1440.98,859.487 1444.02,861.149 1447.05,862.796 1450.08,864.427 1453.1,866.043 1456.12,867.645 1459.13,869.231 1462.13,870.804 1465.12,872.362 1468.11,873.905 1471.09,875.435 1474.07,876.951 1477.04,878.452 1480,879.94 1482.96,881.415 1485.91,882.876 1488.86,884.324 1491.79,885.759 1494.73,887.18 1497.65,888.589 1500.57,889.985 1503.49,891.369 1506.4,892.74 1509.3,894.098 1512.2,895.444 1515.09,896.779 1517.97,898.101 1520.85,899.411 1523.72,900.709 1526.59,901.996 1529.45,903.271 1532.31,904.535 1535.16,905.788 1538,907.029 1540.84,908.259 1543.68,909.478 1546.51,910.687 1549.33,911.884 1552.15,913.071 1554.96,914.248 1557.77,915.414 1560.57,916.569 1563.36,917.715 1566.15,918.85 1568.94,919.975 1571.72,921.09 1574.5,922.196 1577.27,923.291 1580.03,924.377 1582.79,925.454 1585.55,926.521 1588.29,927.578 1591.04,928.627 1593.78,929.666 1596.51,930.696 1599.24,931.717 1601.97,932.729 1604.69,933.733 1607.4,934.727 1610.12,935.714 1612.82,936.691 1615.52,937.66 1618.22,938.62 1620.91,939.573 1623.6,940.517 1626.28,941.453 1628.96,942.38 1631.63,943.3 1634.3,944.212 1636.96,945.116 1639.62,946.013 1642.27,946.901 1644.92,947.782 1647.57,948.656 1650.21,949.522 1652.85,950.38 1655.48,951.232 1658.11,952.076 1660.73,952.913 1663.35,953.742 1665.96,954.565 1668.57,955.381 1671.18,956.19 1673.78,956.992 1676.38,957.787 1678.97,958.576 1681.56,959.358 1684.15,960.133 1686.73,960.902 1689.3,961.665 1691.88,962.421 1694.44,963.17 1697.01,963.914 1699.57,964.651 1702.12,965.382 1704.68,966.107 1707.22,966.826 1709.77,967.539 1712.31,968.246 1714.85,968.948 1717.38,969.643 1719.91,970.333 1722.43,971.017 1724.95,971.695 1727.47,972.368 1729.98,973.035 1732.49,973.697 1734.99,974.354 1737.5,975.005 1739.99,975.65 1742.49,976.291 1744.98,976.926 1747.46,977.556 1749.95,978.181 1752.43,978.801 1754.9,979.416 1757.37,980.026 1759.84,980.63 1762.31,981.23 1764.77,981.826 1767.22,982.416 1769.68,983.002 1772.13,983.583 1774.57,984.159 1777.02,984.73 1779.46,985.297 1781.89,985.86 1784.33,986.418 1786.75,986.972 1789.18,987.521 1791.6,988.066 1794.02,988.606 1796.44,989.142 1798.85,989.674 1801.26,990.202 1803.66,990.725 1806.06,991.245 1808.46,991.76 1810.86,992.271 1813.25,992.779 1815.64,993.282 1818.02,993.781 1820.4,994.277 1822.78,994.768 1825.16,995.256 1827.53,995.74 1829.9,996.22 1832.27,996.696 1834.63,997.169 1836.99,997.638 1839.34,998.104 1841.7,998.565 1844.05,999.024 1846.39,999.478 1848.74,999.929 1851.08,1000.38 1853.42,1000.82 1855.75,1001.26 1858.08,1001.7 1860.41,1002.13 1862.73,1002.56 1865.06,1002.99 1867.38,1003.42 1869.69,1003.84 1872,1004.26 1874.31,1004.67 1876.62,1005.08 1878.93,1005.49 1881.23,1005.89 1883.53,1006.3 1885.82,1006.7 1888.11,1007.09 1890.4,1007.49 1892.69,1007.88 1894.97,1008.26 1897.25,1008.65 1899.53,1009.03 1901.81,1009.41 "/>
<circle clip-path="url(#clip692)" cx="203.546" cy="602.071" r="14.4" fill="#e26f46" fill-rule="evenodd" fill-opacity="1" stroke="#000000" stroke-opacity="1" stroke-width="2.4"/>
<circle clip-path="url(#clip692)" cx="251.336" cy="626.407" r="14.4" fill="#e26f46" fill-rule="evenodd" fill-opacity="1" stroke="#000000" stroke-opacity="1" stroke-width="2.4"/>
<circle clip-path="url(#clip692)" cx="278.095" cy="601.871" r="14.4" fill="#e26f46" fill-rule="evenodd" fill-opacity="1" stroke="#000000" stroke-opacity="1" stroke-width="2.4"/>
<circle clip-path="url(#clip692)" cx="313.66" cy="533.275" r="14.4" fill="#e26f46" fill-rule="evenodd" fill-opacity="1" stroke="#000000" stroke-opacity="1" stroke-width="2.4"/>
<circle clip-path="url(#clip692)" cx="369.895" cy="401.017" r="14.4" fill="#e26f46" fill-rule="evenodd" fill-opacity="1" stroke="#000000" stroke-opacity="1" stroke-width="2.4"/>
<circle clip-path="url(#clip692)" cx="414.358" cy="317.719" r="14.4" fill="#e26f46" fill-rule="evenodd" fill-opacity="1" stroke="#000000" stroke-opacity="1" stroke-width="2.4"/>
<circle clip-path="url(#clip692)" cx="420.479" cy="366.631" r="14.4" fill="#e26f46" fill-rule="evenodd" fill-opacity="1" stroke="#000000" stroke-opacity="1" stroke-width="2.4"/>
<circle clip-path="url(#clip692)" cx="473.794" cy="253.952" r="14.4" fill="#e26f46" fill-rule="evenodd" fill-opacity="1" stroke="#000000" stroke-opacity="1" stroke-width="2.4"/>
<circle clip-path="url(#clip692)" cx="536.212" cy="190.177" r="14.4" fill="#e26f46" fill-rule="evenodd" fill-opacity="1" stroke="#000000" stroke-opacity="1" stroke-width="2.4"/>
<circle clip-path="url(#clip692)" cx="592.901" cy="199.811" r="14.4" fill="#e26f46" fill-rule="evenodd" fill-opacity="1" stroke="#000000" stroke-opacity="1" stroke-width="2.4"/>
<circle clip-path="url(#clip692)" cx="646.545" cy="189.881" r="14.4" fill="#e26f46" fill-rule="evenodd" fill-opacity="1" stroke="#000000" stroke-opacity="1" stroke-width="2.4"/>
<circle clip-path="url(#clip692)" cx="646.639" cy="219.237" r="14.4" fill="#e26f46" fill-rule="evenodd" fill-opacity="1" stroke="#000000" stroke-opacity="1" stroke-width="2.4"/>
<circle clip-path="url(#clip692)" cx="703.297" cy="219.085" r="14.4" fill="#e26f46" fill-rule="evenodd" fill-opacity="1" stroke="#000000" stroke-opacity="1" stroke-width="2.4"/>
<circle clip-path="url(#clip692)" cx="760.127" cy="272.753" r="14.4" fill="#e26f46" fill-rule="evenodd" fill-opacity="1" stroke="#000000" stroke-opacity="1" stroke-width="2.4"/>
<circle clip-path="url(#clip692)" cx="813.959" cy="321.537" r="14.4" fill="#e26f46" fill-rule="evenodd" fill-opacity="1" stroke="#000000" stroke-opacity="1" stroke-width="2.4"/>
<circle clip-path="url(#clip692)" cx="873.739" cy="365.412" r="14.4" fill="#e26f46" fill-rule="evenodd" fill-opacity="1" stroke="#000000" stroke-opacity="1" stroke-width="2.4"/>
<circle clip-path="url(#clip692)" cx="927.602" cy="423.981" r="14.4" fill="#e26f46" fill-rule="evenodd" fill-opacity="1" stroke="#000000" stroke-opacity="1" stroke-width="2.4"/>
<circle clip-path="url(#clip692)" cx="987.445" cy="487.427" r="14.4" fill="#e26f46" fill-rule="evenodd" fill-opacity="1" stroke="#000000" stroke-opacity="1" stroke-width="2.4"/>
<circle clip-path="url(#clip692)" cx="1041.29" cy="541.104" r="14.4" fill="#e26f46" fill-rule="evenodd" fill-opacity="1" stroke="#000000" stroke-opacity="1" stroke-width="2.4"/>
<circle clip-path="url(#clip692)" cx="1095.09" cy="580.102" r="14.4" fill="#e26f46" fill-rule="evenodd" fill-opacity="1" stroke="#000000" stroke-opacity="1" stroke-width="2.4"/>
<circle clip-path="url(#clip692)" cx="1154.91" cy="633.762" r="14.4" fill="#e26f46" fill-rule="evenodd" fill-opacity="1" stroke="#000000" stroke-opacity="1" stroke-width="2.4"/>
<circle clip-path="url(#clip692)" cx="1211.75" cy="692.323" r="14.4" fill="#e26f46" fill-rule="evenodd" fill-opacity="1" stroke="#000000" stroke-opacity="1" stroke-width="2.4"/>
<circle clip-path="url(#clip692)" cx="1268.49" cy="716.635" r="14.4" fill="#e26f46" fill-rule="evenodd" fill-opacity="1" stroke="#000000" stroke-opacity="1" stroke-width="2.4"/>
<circle clip-path="url(#clip692)" cx="1325.25" cy="750.732" r="14.4" fill="#e26f46" fill-rule="evenodd" fill-opacity="1" stroke="#000000" stroke-opacity="1" stroke-width="2.4"/>
<circle clip-path="url(#clip692)" cx="1379.05" cy="789.73" r="14.4" fill="#e26f46" fill-rule="evenodd" fill-opacity="1" stroke="#000000" stroke-opacity="1" stroke-width="2.4"/>
<circle clip-path="url(#clip692)" cx="1417.93" cy="823.876" r="14.4" fill="#e26f46" fill-rule="evenodd" fill-opacity="1" stroke="#000000" stroke-opacity="1" stroke-width="2.4"/>
<path clip-path="url(#clip690)" d="M1411.83 303.543 L1892.75 303.543 L1892.75 148.023 L1411.83 148.023  Z" fill="#ffffff" fill-rule="evenodd" fill-opacity="1"/>
<polyline clip-path="url(#clip690)" style="stroke:#000000; stroke-linecap:round; stroke-linejoin:round; stroke-width:4; stroke-opacity:1; fill:none" points="1411.83,303.543 1892.75,303.543 1892.75,148.023 1411.83,148.023 1411.83,303.543 "/>
<polyline clip-path="url(#clip690)" style="stroke:#009af9; stroke-linecap:round; stroke-linejoin:round; stroke-width:4; stroke-opacity:1; fill:none" points="1431.84,199.863 1551.85,199.863 "/>
<path clip-path="url(#clip690)" d="M1571.85 182.583 L1576.55 182.583 L1576.55 203.578 Q1576.55 209.134 1578.56 211.587 Q1580.57 214.018 1585.09 214.018 Q1589.58 214.018 1591.59 211.587 Q1593.61 209.134 1593.61 203.578 L1593.61 182.583 L1598.31 182.583 L1598.31 204.157 Q1598.31 210.916 1594.95 214.365 Q1591.62 217.814 1585.09 217.814 Q1578.54 217.814 1575.18 214.365 Q1571.85 210.916 1571.85 204.157 L1571.85 182.583 Z" fill="#000000" fill-rule="nonzero" fill-opacity="1" /><path clip-path="url(#clip690)" d="M1621.92 195.199 Q1621.2 194.782 1620.34 194.597 Q1619.51 194.388 1618.49 194.388 Q1614.88 194.388 1612.94 196.75 Q1611.01 199.087 1611.01 203.486 L1611.01 217.143 L1606.73 217.143 L1606.73 191.217 L1611.01 191.217 L1611.01 195.245 Q1612.36 192.884 1614.51 191.75 Q1616.66 190.592 1619.74 190.592 Q1620.18 190.592 1620.71 190.662 Q1621.25 190.708 1621.89 190.824 L1621.92 195.199 Z" fill="#000000" fill-rule="nonzero" fill-opacity="1" /><path clip-path="url(#clip690)" d="M1642.91 191.981 L1642.91 196.009 Q1641.11 195.083 1639.16 194.62 Q1637.22 194.157 1635.13 194.157 Q1631.96 194.157 1630.37 195.129 Q1628.79 196.101 1628.79 198.046 Q1628.79 199.527 1629.93 200.384 Q1631.06 201.217 1634.49 201.981 L1635.94 202.305 Q1640.48 203.277 1642.38 205.06 Q1644.3 206.819 1644.3 209.99 Q1644.3 213.601 1641.43 215.708 Q1638.58 217.814 1633.58 217.814 Q1631.5 217.814 1629.23 217.398 Q1626.99 217.004 1624.49 216.194 L1624.49 211.796 Q1626.85 213.023 1629.14 213.648 Q1631.43 214.249 1633.68 214.249 Q1636.69 214.249 1638.31 213.231 Q1639.93 212.189 1639.93 210.314 Q1639.93 208.578 1638.75 207.652 Q1637.59 206.726 1633.63 205.87 L1632.15 205.523 Q1628.19 204.689 1626.43 202.976 Q1624.67 201.24 1624.67 198.231 Q1624.67 194.574 1627.26 192.583 Q1629.86 190.592 1634.63 190.592 Q1636.99 190.592 1639.07 190.939 Q1641.15 191.287 1642.91 191.981 Z" fill="#000000" fill-rule="nonzero" fill-opacity="1" /><path clip-path="url(#clip690)" d="M1673.26 203.115 L1673.26 205.199 L1653.68 205.199 Q1653.95 209.597 1656.31 211.911 Q1658.7 214.203 1662.94 214.203 Q1665.39 214.203 1667.68 213.601 Q1670 212.999 1672.26 211.796 L1672.26 215.823 Q1669.97 216.796 1667.56 217.305 Q1665.16 217.814 1662.68 217.814 Q1656.48 217.814 1652.84 214.203 Q1649.23 210.592 1649.23 204.435 Q1649.23 198.069 1652.66 194.342 Q1656.11 190.592 1661.94 190.592 Q1667.17 190.592 1670.2 193.972 Q1673.26 197.328 1673.26 203.115 M1669 201.865 Q1668.95 198.37 1667.03 196.287 Q1665.13 194.203 1661.99 194.203 Q1658.42 194.203 1656.27 196.217 Q1654.14 198.231 1653.81 201.888 L1669 201.865 Z" fill="#000000" fill-rule="nonzero" fill-opacity="1" /><path clip-path="url(#clip690)" d="M1680.25 181.125 L1684.51 181.125 L1684.51 217.143 L1680.25 217.143 L1680.25 181.125 Z" fill="#000000" fill-rule="nonzero" fill-opacity="1" /><path clip-path="url(#clip690)" d="M1693.42 181.125 L1697.68 181.125 L1697.68 217.143 L1693.42 217.143 L1693.42 181.125 Z" fill="#000000" fill-rule="nonzero" fill-opacity="1" /><path clip-path="url(#clip690)" d="M1731.89 181.171 Q1728.79 186.495 1727.29 191.703 Q1725.78 196.912 1725.78 202.259 Q1725.78 207.606 1727.29 212.861 Q1728.81 218.092 1731.89 223.393 L1728.19 223.393 Q1724.72 217.953 1722.98 212.698 Q1721.27 207.444 1721.27 202.259 Q1721.27 197.097 1722.98 191.865 Q1724.69 186.634 1728.19 181.171 L1731.89 181.171 Z" fill="#000000" fill-rule="nonzero" fill-opacity="1" /><path clip-path="url(#clip690)" d="M1741.57 213.208 L1749.21 213.208 L1749.21 186.842 L1740.9 188.509 L1740.9 184.25 L1749.16 182.583 L1753.84 182.583 L1753.84 213.208 L1761.48 213.208 L1761.48 217.143 L1741.57 217.143 L1741.57 213.208 Z" fill="#000000" fill-rule="nonzero" fill-opacity="1" /><path clip-path="url(#clip690)" d="M1771.06 216.425 L1771.06 212.166 Q1772.82 212.999 1774.62 213.439 Q1776.43 213.879 1778.17 213.879 Q1782.8 213.879 1785.23 210.777 Q1787.68 207.652 1788.03 201.31 Q1786.68 203.3 1784.62 204.365 Q1782.56 205.43 1780.06 205.43 Q1774.88 205.43 1771.85 202.305 Q1768.84 199.157 1768.84 193.717 Q1768.84 188.393 1771.99 185.175 Q1775.13 181.958 1780.37 181.958 Q1786.36 181.958 1789.51 186.564 Q1792.68 191.148 1792.68 199.898 Q1792.68 208.069 1788.79 212.953 Q1784.93 217.814 1778.37 217.814 Q1776.62 217.814 1774.81 217.467 Q1773 217.12 1771.06 216.425 M1780.37 201.773 Q1783.51 201.773 1785.34 199.62 Q1787.19 197.467 1787.19 193.717 Q1787.19 189.99 1785.34 187.838 Q1783.51 185.662 1780.37 185.662 Q1777.22 185.662 1775.37 187.838 Q1773.54 189.99 1773.54 193.717 Q1773.54 197.467 1775.37 199.62 Q1777.22 201.773 1780.37 201.773 Z" fill="#000000" fill-rule="nonzero" fill-opacity="1" /><path clip-path="url(#clip690)" d="M1813.93 186.657 L1802.12 205.106 L1813.93 205.106 L1813.93 186.657 M1812.7 182.583 L1818.58 182.583 L1818.58 205.106 L1823.51 205.106 L1823.51 208.995 L1818.58 208.995 L1818.58 217.143 L1813.93 217.143 L1813.93 208.995 L1798.33 208.995 L1798.33 204.481 L1812.7 182.583 Z" fill="#000000" fill-rule="nonzero" fill-opacity="1" /><path clip-path="url(#clip690)" d="M1831.38 216.425 L1831.38 212.166 Q1833.14 212.999 1834.95 213.439 Q1836.75 213.879 1838.49 213.879 Q1843.12 213.879 1845.55 210.777 Q1848 207.652 1848.35 201.31 Q1847.01 203.3 1844.95 204.365 Q1842.89 205.43 1840.39 205.43 Q1835.2 205.43 1832.17 202.305 Q1829.16 199.157 1829.16 193.717 Q1829.16 188.393 1832.31 185.175 Q1835.46 181.958 1840.69 181.958 Q1846.68 181.958 1849.83 186.564 Q1853 191.148 1853 199.898 Q1853 208.069 1849.11 212.953 Q1845.25 217.814 1838.7 217.814 Q1836.94 217.814 1835.13 217.467 Q1833.33 217.12 1831.38 216.425 M1840.69 201.773 Q1843.84 201.773 1845.67 199.62 Q1847.52 197.467 1847.52 193.717 Q1847.52 189.99 1845.67 187.838 Q1843.84 185.662 1840.69 185.662 Q1837.54 185.662 1835.69 187.838 Q1833.86 189.99 1833.86 193.717 Q1833.86 197.467 1835.69 199.62 Q1837.54 201.773 1840.69 201.773 Z" fill="#000000" fill-rule="nonzero" fill-opacity="1" /><path clip-path="url(#clip690)" d="M1860.13 181.171 L1863.84 181.171 Q1867.31 186.634 1869.02 191.865 Q1870.76 197.097 1870.76 202.259 Q1870.76 207.444 1869.02 212.698 Q1867.31 217.953 1863.84 223.393 L1860.13 223.393 Q1863.21 218.092 1864.72 212.861 Q1866.24 207.606 1866.24 202.259 Q1866.24 196.912 1864.72 191.703 Q1863.21 186.495 1860.13 181.171 Z" fill="#000000" fill-rule="nonzero" fill-opacity="1" /><circle clip-path="url(#clip690)" cx="1491.84" cy="251.703" r="20.48" fill="#e26f46" fill-rule="evenodd" fill-opacity="1" stroke="#000000" stroke-opacity="1" stroke-width="3.41333"/>
<path clip-path="url(#clip690)" d="M1585.04 268.983 L1571.85 234.423 L1576.73 234.423 L1587.68 263.52 L1598.65 234.423 L1603.51 234.423 L1590.34 268.983 L1585.04 268.983 Z" fill="#000000" fill-rule="nonzero" fill-opacity="1" /><path clip-path="url(#clip690)" d="M1604.72 258.751 L1604.72 243.057 L1608.98 243.057 L1608.98 258.589 Q1608.98 262.27 1610.41 264.122 Q1611.85 265.951 1614.72 265.951 Q1618.17 265.951 1620.16 263.751 Q1622.17 261.552 1622.17 257.756 L1622.17 243.057 L1626.43 243.057 L1626.43 268.983 L1622.17 268.983 L1622.17 265.001 Q1620.62 267.363 1618.56 268.52 Q1616.52 269.654 1613.82 269.654 Q1609.35 269.654 1607.03 266.876 Q1604.72 264.099 1604.72 258.751 M1615.44 242.432 L1615.44 242.432 Z" fill="#000000" fill-rule="nonzero" fill-opacity="1" /><path clip-path="url(#clip690)" d="M1652.26 255.719 Q1652.26 251.089 1650.34 248.543 Q1648.44 245.997 1645 245.997 Q1641.57 245.997 1639.65 248.543 Q1637.75 251.089 1637.75 255.719 Q1637.75 260.326 1639.65 262.872 Q1641.57 265.418 1645 265.418 Q1648.44 265.418 1650.34 262.872 Q1652.26 260.326 1652.26 255.719 M1656.52 265.765 Q1656.52 272.386 1653.58 275.603 Q1650.64 278.844 1644.58 278.844 Q1642.33 278.844 1640.34 278.497 Q1638.35 278.173 1636.48 277.478 L1636.48 273.335 Q1638.35 274.353 1640.18 274.839 Q1642.01 275.325 1643.91 275.325 Q1648.1 275.325 1650.18 273.126 Q1652.26 270.95 1652.26 266.529 L1652.26 264.423 Q1650.94 266.714 1648.88 267.849 Q1646.82 268.983 1643.95 268.983 Q1639.19 268.983 1636.27 265.349 Q1633.35 261.714 1633.35 255.719 Q1633.35 249.701 1636.27 246.066 Q1639.19 242.432 1643.95 242.432 Q1646.82 242.432 1648.88 243.566 Q1650.94 244.701 1652.26 246.992 L1652.26 243.057 L1656.52 243.057 L1656.52 265.765 Z" fill="#000000" fill-rule="nonzero" fill-opacity="1" /><path clip-path="url(#clip690)" d="M1669.51 235.696 L1669.51 243.057 L1678.28 243.057 L1678.28 246.367 L1669.51 246.367 L1669.51 260.441 Q1669.51 263.613 1670.37 264.515 Q1671.25 265.418 1673.91 265.418 L1678.28 265.418 L1678.28 268.983 L1673.91 268.983 Q1668.98 268.983 1667.1 267.154 Q1665.23 265.302 1665.23 260.441 L1665.23 246.367 L1662.1 246.367 L1662.1 243.057 L1665.23 243.057 L1665.23 235.696 L1669.51 235.696 Z" fill="#000000" fill-rule="nonzero" fill-opacity="1" /><path clip-path="url(#clip690)" d="M1700.41 243.821 L1700.41 247.849 Q1698.61 246.923 1696.66 246.46 Q1694.72 245.997 1692.63 245.997 Q1689.46 245.997 1687.87 246.969 Q1686.29 247.941 1686.29 249.886 Q1686.29 251.367 1687.43 252.224 Q1688.56 253.057 1691.99 253.821 L1693.44 254.145 Q1697.98 255.117 1699.88 256.9 Q1701.8 258.659 1701.8 261.83 Q1701.8 265.441 1698.93 267.548 Q1696.08 269.654 1691.08 269.654 Q1689 269.654 1686.73 269.238 Q1684.49 268.844 1681.99 268.034 L1681.99 263.636 Q1684.35 264.863 1686.64 265.488 Q1688.93 266.089 1691.18 266.089 Q1694.19 266.089 1695.81 265.071 Q1697.43 264.029 1697.43 262.154 Q1697.43 260.418 1696.25 259.492 Q1695.09 258.566 1691.13 257.71 L1689.65 257.363 Q1685.69 256.529 1683.93 254.816 Q1682.17 253.08 1682.17 250.071 Q1682.17 246.414 1684.76 244.423 Q1687.36 242.432 1692.12 242.432 Q1694.49 242.432 1696.57 242.779 Q1698.65 243.127 1700.41 243.821 Z" fill="#000000" fill-rule="nonzero" fill-opacity="1" /><path clip-path="url(#clip690)" d="M1733.88 233.011 Q1730.78 238.335 1729.28 243.543 Q1727.77 248.752 1727.77 254.099 Q1727.77 259.446 1729.28 264.701 Q1730.81 269.932 1733.88 275.233 L1730.18 275.233 Q1726.71 269.793 1724.97 264.538 Q1723.26 259.284 1723.26 254.099 Q1723.26 248.937 1724.97 243.705 Q1726.68 238.474 1730.18 233.011 L1733.88 233.011 Z" fill="#000000" fill-rule="nonzero" fill-opacity="1" /><path clip-path="url(#clip690)" d="M1743.56 265.048 L1751.2 265.048 L1751.2 238.682 L1742.89 240.349 L1742.89 236.09 L1751.15 234.423 L1755.83 234.423 L1755.83 265.048 L1763.47 265.048 L1763.47 268.983 L1743.56 268.983 L1743.56 265.048 Z" fill="#000000" fill-rule="nonzero" fill-opacity="1" /><path clip-path="url(#clip690)" d="M1773.05 268.265 L1773.05 264.006 Q1774.81 264.839 1776.62 265.279 Q1778.42 265.719 1780.16 265.719 Q1784.79 265.719 1787.22 262.617 Q1789.67 259.492 1790.02 253.15 Q1788.68 255.14 1786.62 256.205 Q1784.55 257.27 1782.05 257.27 Q1776.87 257.27 1773.84 254.145 Q1770.83 250.997 1770.83 245.557 Q1770.83 240.233 1773.98 237.015 Q1777.12 233.798 1782.36 233.798 Q1788.35 233.798 1791.5 238.404 Q1794.67 242.988 1794.67 251.738 Q1794.67 259.909 1790.78 264.793 Q1786.92 269.654 1780.37 269.654 Q1778.61 269.654 1776.8 269.307 Q1774.99 268.96 1773.05 268.265 M1782.36 253.613 Q1785.5 253.613 1787.33 251.46 Q1789.18 249.307 1789.18 245.557 Q1789.18 241.83 1787.33 239.678 Q1785.5 237.502 1782.36 237.502 Q1779.21 237.502 1777.36 239.678 Q1775.53 241.83 1775.53 245.557 Q1775.53 249.307 1777.36 251.46 Q1779.21 253.613 1782.36 253.613 Z" fill="#000000" fill-rule="nonzero" fill-opacity="1" /><path clip-path="url(#clip690)" d="M1813.65 249.84 Q1810.5 249.84 1808.65 251.992 Q1806.82 254.145 1806.82 257.895 Q1806.82 261.622 1808.65 263.798 Q1810.5 265.951 1813.65 265.951 Q1816.8 265.951 1818.63 263.798 Q1820.48 261.622 1820.48 257.895 Q1820.48 254.145 1818.63 251.992 Q1816.8 249.84 1813.65 249.84 M1822.93 235.187 L1822.93 239.446 Q1821.18 238.613 1819.37 238.173 Q1817.59 237.733 1815.83 237.733 Q1811.2 237.733 1808.74 240.858 Q1806.31 243.983 1805.97 250.302 Q1807.33 248.289 1809.39 247.224 Q1811.45 246.136 1813.93 246.136 Q1819.14 246.136 1822.15 249.307 Q1825.18 252.455 1825.18 257.895 Q1825.18 263.219 1822.03 266.437 Q1818.88 269.654 1813.65 269.654 Q1807.66 269.654 1804.49 265.071 Q1801.31 260.464 1801.31 251.738 Q1801.31 243.543 1805.2 238.682 Q1809.09 233.798 1815.64 233.798 Q1817.4 233.798 1819.18 234.145 Q1820.99 234.492 1822.93 235.187 Z" fill="#000000" fill-rule="nonzero" fill-opacity="1" /><path clip-path="url(#clip690)" d="M1843.24 252.571 Q1839.9 252.571 1837.98 254.353 Q1836.08 256.136 1836.08 259.261 Q1836.08 262.386 1837.98 264.168 Q1839.9 265.951 1843.24 265.951 Q1846.57 265.951 1848.49 264.168 Q1850.41 262.363 1850.41 259.261 Q1850.41 256.136 1848.49 254.353 Q1846.59 252.571 1843.24 252.571 M1838.56 250.58 Q1835.55 249.84 1833.86 247.779 Q1832.19 245.719 1832.19 242.756 Q1832.19 238.613 1835.13 236.205 Q1838.1 233.798 1843.24 233.798 Q1848.4 233.798 1851.34 236.205 Q1854.28 238.613 1854.28 242.756 Q1854.28 245.719 1852.59 247.779 Q1850.92 249.84 1847.93 250.58 Q1851.31 251.367 1853.19 253.659 Q1855.09 255.951 1855.09 259.261 Q1855.09 264.284 1852.01 266.969 Q1848.95 269.654 1843.24 269.654 Q1837.52 269.654 1834.44 266.969 Q1831.38 264.284 1831.38 259.261 Q1831.38 255.951 1833.28 253.659 Q1835.18 251.367 1838.56 250.58 M1836.85 243.196 Q1836.85 245.881 1838.51 247.386 Q1840.2 248.89 1843.24 248.89 Q1846.24 248.89 1847.93 247.386 Q1849.65 245.881 1849.65 243.196 Q1849.65 240.511 1847.93 239.006 Q1846.24 237.502 1843.24 237.502 Q1840.2 237.502 1838.51 239.006 Q1836.85 240.511 1836.85 243.196 Z" fill="#000000" fill-rule="nonzero" fill-opacity="1" /><path clip-path="url(#clip690)" d="M1862.12 233.011 L1865.83 233.011 Q1869.3 238.474 1871.01 243.705 Q1872.75 248.937 1872.75 254.099 Q1872.75 259.284 1871.01 264.538 Q1869.3 269.793 1865.83 275.233 L1862.12 275.233 Q1865.2 269.932 1866.71 264.701 Q1868.24 259.446 1868.24 254.099 Q1868.24 248.752 1866.71 243.543 Q1865.2 238.335 1862.12 233.011 Z" fill="#000000" fill-rule="nonzero" fill-opacity="1" /></svg>
