<?xml version="1.0" encoding="utf-8"?>
<svg xmlns="http://www.w3.org/2000/svg" xmlns:xlink="http://www.w3.org/1999/xlink" width="500" height="300" viewBox="0 0 2000 1200">
<defs>
  <clipPath id="clip350">
    <rect x="0" y="0" width="2000" height="1200"/>
  </clipPath>
</defs>
<path clip-path="url(#clip350)" d="M0 1200 L2000 1200 L2000 0 L0 0  Z" fill="#ffffff" fill-rule="evenodd" fill-opacity="1"/>
<defs>
  <clipPath id="clip351">
    <rect x="400" y="0" width="1401" height="1200"/>
  </clipPath>
</defs>
<path clip-path="url(#clip350)" d="M211.114 1035.39 L1952.76 1035.39 L1952.76 117.424 L211.114 117.424  Z" fill="#ffffff" fill-rule="evenodd" fill-opacity="1"/>
<defs>
  <clipPath id="clip352">
    <rect x="211" y="117" width="1743" height="919"/>
  </clipPath>
</defs>
<polyline clip-path="url(#clip352)" style="stroke:#000000; stroke-linecap:round; stroke-linejoin:round; stroke-width:2; stroke-opacity:0.1; fill:none" points="583.546,1035.39 583.546,117.424 "/>
<polyline clip-path="url(#clip352)" style="stroke:#000000; stroke-linecap:round; stroke-linejoin:round; stroke-width:2; stroke-opacity:0.1; fill:none" points="1023.52,1035.39 1023.52,117.424 "/>
<polyline clip-path="url(#clip352)" style="stroke:#000000; stroke-linecap:round; stroke-linejoin:round; stroke-width:2; stroke-opacity:0.1; fill:none" points="1463.49,1035.39 1463.49,117.424 "/>
<polyline clip-path="url(#clip352)" style="stroke:#000000; stroke-linecap:round; stroke-linejoin:round; stroke-width:2; stroke-opacity:0.1; fill:none" points="1903.46,1035.39 1903.46,117.424 "/>
<polyline clip-path="url(#clip352)" style="stroke:#000000; stroke-linecap:round; stroke-linejoin:round; stroke-width:2; stroke-opacity:0.1; fill:none" points="211.114,922.975 1952.76,922.975 "/>
<polyline clip-path="url(#clip352)" style="stroke:#000000; stroke-linecap:round; stroke-linejoin:round; stroke-width:2; stroke-opacity:0.1; fill:none" points="211.114,773.841 1952.76,773.841 "/>
<polyline clip-path="url(#clip352)" style="stroke:#000000; stroke-linecap:round; stroke-linejoin:round; stroke-width:2; stroke-opacity:0.1; fill:none" points="211.114,624.707 1952.76,624.707 "/>
<polyline clip-path="url(#clip352)" style="stroke:#000000; stroke-linecap:round; stroke-linejoin:round; stroke-width:2; stroke-opacity:0.1; fill:none" points="211.114,475.573 1952.76,475.573 "/>
<polyline clip-path="url(#clip352)" style="stroke:#000000; stroke-linecap:round; stroke-linejoin:round; stroke-width:2; stroke-opacity:0.1; fill:none" points="211.114,326.44 1952.76,326.44 "/>
<polyline clip-path="url(#clip352)" style="stroke:#000000; stroke-linecap:round; stroke-linejoin:round; stroke-width:2; stroke-opacity:0.1; fill:none" points="211.114,177.306 1952.76,177.306 "/>
<polyline clip-path="url(#clip350)" style="stroke:#000000; stroke-linecap:round; stroke-linejoin:round; stroke-width:4; stroke-opacity:1; fill:none" points="211.114,1035.39 1952.76,1035.39 "/>
<polyline clip-path="url(#clip350)" style="stroke:#000000; stroke-linecap:round; stroke-linejoin:round; stroke-width:4; stroke-opacity:1; fill:none" points="583.546,1035.39 583.546,1016.49 "/>
<polyline clip-path="url(#clip350)" style="stroke:#000000; stroke-linecap:round; stroke-linejoin:round; stroke-width:4; stroke-opacity:1; fill:none" points="1023.52,1035.39 1023.52,1016.49 "/>
<polyline clip-path="url(#clip350)" style="stroke:#000000; stroke-linecap:round; stroke-linejoin:round; stroke-width:4; stroke-opacity:1; fill:none" points="1463.49,1035.39 1463.49,1016.49 "/>
<polyline clip-path="url(#clip350)" style="stroke:#000000; stroke-linecap:round; stroke-linejoin:round; stroke-width:4; stroke-opacity:1; fill:none" points="1903.46,1035.39 1903.46,1016.49 "/>
<path clip-path="url(#clip350)" d="M561.428 1063.11 Q557.817 1063.11 555.988 1066.67 Q554.183 1070.21 554.183 1077.34 Q554.183 1084.45 555.988 1088.01 Q557.817 1091.56 561.428 1091.56 Q565.062 1091.56 566.868 1088.01 Q568.696 1084.45 568.696 1077.34 Q568.696 1070.21 566.868 1066.67 Q565.062 1063.11 561.428 1063.11 M561.428 1059.4 Q567.238 1059.4 570.294 1064.01 Q573.372 1068.59 573.372 1077.34 Q573.372 1086.07 570.294 1090.68 Q567.238 1095.26 561.428 1095.26 Q555.618 1095.26 552.539 1090.68 Q549.484 1086.07 549.484 1077.34 Q549.484 1068.59 552.539 1064.01 Q555.618 1059.4 561.428 1059.4 Z" fill="#000000" fill-rule="nonzero" fill-opacity="1" /><path clip-path="url(#clip350)" d="M581.59 1088.71 L586.474 1088.71 L586.474 1094.59 L581.59 1094.59 L581.59 1088.71 Z" fill="#000000" fill-rule="nonzero" fill-opacity="1" /><path clip-path="url(#clip350)" d="M596.706 1060.03 L615.062 1060.03 L615.062 1063.96 L600.988 1063.96 L600.988 1072.44 Q602.006 1072.09 603.025 1071.93 Q604.043 1071.74 605.062 1071.74 Q610.849 1071.74 614.229 1074.91 Q617.608 1078.08 617.608 1083.5 Q617.608 1089.08 614.136 1092.18 Q610.664 1095.26 604.344 1095.26 Q602.168 1095.26 599.9 1094.89 Q597.655 1094.52 595.247 1093.78 L595.247 1089.08 Q597.331 1090.21 599.553 1090.77 Q601.775 1091.32 604.252 1091.32 Q608.256 1091.32 610.594 1089.22 Q612.932 1087.11 612.932 1083.5 Q612.932 1079.89 610.594 1077.78 Q608.256 1075.68 604.252 1075.68 Q602.377 1075.68 600.502 1076.09 Q598.65 1076.51 596.706 1077.39 L596.706 1060.03 Z" fill="#000000" fill-rule="nonzero" fill-opacity="1" /><path clip-path="url(#clip350)" d="M990.672 1090.65 L998.31 1090.65 L998.31 1064.29 L990 1065.95 L990 1061.69 L998.264 1060.03 L1002.94 1060.03 L1002.94 1090.65 L1010.58 1090.65 L1010.58 1094.59 L990.672 1094.59 L990.672 1090.65 Z" fill="#000000" fill-rule="nonzero" fill-opacity="1" /><path clip-path="url(#clip350)" d="M1020.02 1088.71 L1024.91 1088.71 L1024.91 1094.59 L1020.02 1094.59 L1020.02 1088.71 Z" fill="#000000" fill-rule="nonzero" fill-opacity="1" /><path clip-path="url(#clip350)" d="M1045.09 1063.11 Q1041.48 1063.11 1039.65 1066.67 Q1037.85 1070.21 1037.85 1077.34 Q1037.85 1084.45 1039.65 1088.01 Q1041.48 1091.56 1045.09 1091.56 Q1048.73 1091.56 1050.53 1088.01 Q1052.36 1084.45 1052.36 1077.34 Q1052.36 1070.21 1050.53 1066.67 Q1048.73 1063.11 1045.09 1063.11 M1045.09 1059.4 Q1050.9 1059.4 1053.96 1064.01 Q1057.04 1068.59 1057.04 1077.34 Q1057.04 1086.07 1053.96 1090.68 Q1050.9 1095.26 1045.09 1095.26 Q1039.28 1095.26 1036.2 1090.68 Q1033.15 1086.07 1033.15 1077.34 Q1033.15 1068.59 1036.2 1064.01 Q1039.28 1059.4 1045.09 1059.4 Z" fill="#000000" fill-rule="nonzero" fill-opacity="1" /><path clip-path="url(#clip350)" d="M1431.14 1090.65 L1438.78 1090.65 L1438.78 1064.29 L1430.47 1065.95 L1430.47 1061.69 L1438.73 1060.03 L1443.41 1060.03 L1443.41 1090.65 L1451.05 1090.65 L1451.05 1094.59 L1431.14 1094.59 L1431.14 1090.65 Z" fill="#000000" fill-rule="nonzero" fill-opacity="1" /><path clip-path="url(#clip350)" d="M1460.49 1088.71 L1465.38 1088.71 L1465.38 1094.59 L1460.49 1094.59 L1460.49 1088.71 Z" fill="#000000" fill-rule="nonzero" fill-opacity="1" /><path clip-path="url(#clip350)" d="M1475.61 1060.03 L1493.97 1060.03 L1493.97 1063.96 L1479.89 1063.96 L1479.89 1072.44 Q1480.91 1072.09 1481.93 1071.93 Q1482.95 1071.74 1483.97 1071.74 Q1489.75 1071.74 1493.13 1074.91 Q1496.51 1078.08 1496.51 1083.5 Q1496.51 1089.08 1493.04 1092.18 Q1489.57 1095.26 1483.25 1095.26 Q1481.07 1095.26 1478.8 1094.89 Q1476.56 1094.52 1474.15 1093.78 L1474.15 1089.08 Q1476.23 1090.21 1478.46 1090.77 Q1480.68 1091.32 1483.16 1091.32 Q1487.16 1091.32 1489.5 1089.22 Q1491.84 1087.11 1491.84 1083.5 Q1491.84 1079.89 1489.5 1077.78 Q1487.16 1075.68 1483.16 1075.68 Q1481.28 1075.68 1479.41 1076.09 Q1477.55 1076.51 1475.61 1077.39 L1475.61 1060.03 Z" fill="#000000" fill-rule="nonzero" fill-opacity="1" /><path clip-path="url(#clip350)" d="M1874.7 1090.65 L1891.02 1090.65 L1891.02 1094.59 L1869.08 1094.59 L1869.08 1090.65 Q1871.74 1087.9 1876.32 1083.27 Q1880.93 1078.62 1882.11 1077.27 Q1884.36 1074.75 1885.24 1073.01 Q1886.14 1071.25 1886.14 1069.56 Q1886.14 1066.81 1884.19 1065.07 Q1882.27 1063.34 1879.17 1063.34 Q1876.97 1063.34 1874.52 1064.1 Q1872.09 1064.87 1869.31 1066.42 L1869.31 1061.69 Q1872.13 1060.56 1874.59 1059.98 Q1877.04 1059.4 1879.08 1059.4 Q1884.45 1059.4 1887.64 1062.09 Q1890.84 1064.77 1890.84 1069.26 Q1890.84 1071.39 1890.03 1073.31 Q1889.24 1075.21 1887.13 1077.81 Q1886.55 1078.48 1883.45 1081.69 Q1880.35 1084.89 1874.7 1090.65 Z" fill="#000000" fill-rule="nonzero" fill-opacity="1" /><path clip-path="url(#clip350)" d="M1900.84 1088.71 L1905.72 1088.71 L1905.72 1094.59 L1900.84 1094.59 L1900.84 1088.71 Z" fill="#000000" fill-rule="nonzero" fill-opacity="1" /><path clip-path="url(#clip350)" d="M1925.91 1063.11 Q1922.3 1063.11 1920.47 1066.67 Q1918.66 1070.21 1918.66 1077.34 Q1918.66 1084.45 1920.47 1088.01 Q1922.3 1091.56 1925.91 1091.56 Q1929.54 1091.56 1931.35 1088.01 Q1933.17 1084.45 1933.17 1077.34 Q1933.17 1070.21 1931.35 1066.67 Q1929.54 1063.11 1925.91 1063.11 M1925.91 1059.4 Q1931.72 1059.4 1934.77 1064.01 Q1937.85 1068.59 1937.85 1077.34 Q1937.85 1086.07 1934.77 1090.68 Q1931.72 1095.26 1925.91 1095.26 Q1920.1 1095.26 1917.02 1090.68 Q1913.96 1086.07 1913.96 1077.34 Q1913.96 1068.59 1917.02 1064.01 Q1920.1 1059.4 1925.91 1059.4 Z" fill="#000000" fill-rule="nonzero" fill-opacity="1" /><path clip-path="url(#clip350)" d="M1100.6 1135.27 Q1100.6 1138.26 1099.09 1144.06 Q1098.48 1146.57 1097.64 1148.86 Q1096.83 1151.11 1095.64 1153.3 Q1094.45 1155.49 1093.07 1157.07 Q1091.68 1158.62 1089.88 1159.58 Q1088.07 1160.55 1086.08 1160.55 Q1082.92 1160.55 1081.05 1158.68 Q1079.22 1156.78 1078.64 1153.53 Q1074.32 1160.55 1068.56 1160.55 Q1064.98 1160.55 1063.31 1158.01 Q1061.63 1155.43 1061.63 1151.11 Q1061.63 1147.47 1062.6 1143.71 Q1064.43 1136.56 1068.01 1131.56 Q1068.49 1130.98 1069.2 1130.98 Q1069.62 1130.98 1069.81 1131.11 Q1070.39 1131.47 1070.39 1132.05 Q1070.39 1132.47 1070.07 1132.88 Q1067.82 1136.01 1066.33 1138.68 Q1064.85 1141.35 1064.18 1144.06 Q1063.66 1146.38 1063.66 1148.34 Q1063.66 1151.66 1065.08 1153.72 Q1066.53 1155.78 1069.39 1155.78 Q1072.03 1155.78 1074.35 1154.14 Q1076.67 1152.47 1078.38 1149.66 Q1078.48 1146.6 1079.22 1143.71 Q1079.89 1140.61 1081.47 1140.61 Q1082.73 1140.61 1082.73 1142.32 Q1082.73 1142.9 1082.47 1144.06 Q1081.76 1147.12 1080.47 1149.86 Q1080.92 1152.53 1082.6 1154.17 Q1084.27 1155.78 1086.95 1155.78 Q1089.43 1155.78 1091.62 1153.98 Q1093.84 1152.18 1095.26 1149.54 Q1096.7 1146.86 1097.51 1143.71 Q1097.77 1142.64 1097.77 1141.29 Q1097.77 1137.68 1095.26 1135.46 Q1094.55 1134.75 1094.55 1133.82 Q1094.55 1132.72 1095.45 1131.73 Q1096.51 1130.66 1097.77 1130.66 Q1098.7 1130.66 1099.28 1131.24 Q1100.6 1132.4 1100.6 1135.27 Z" fill="#000000" fill-rule="nonzero" fill-opacity="1" /><polyline clip-path="url(#clip350)" style="stroke:#000000; stroke-linecap:round; stroke-linejoin:round; stroke-width:4; stroke-opacity:1; fill:none" points="211.114,1035.39 211.114,117.424 "/>
<polyline clip-path="url(#clip350)" style="stroke:#000000; stroke-linecap:round; stroke-linejoin:round; stroke-width:4; stroke-opacity:1; fill:none" points="211.114,922.975 230.012,922.975 "/>
<polyline clip-path="url(#clip350)" style="stroke:#000000; stroke-linecap:round; stroke-linejoin:round; stroke-width:4; stroke-opacity:1; fill:none" points="211.114,773.841 230.012,773.841 "/>
<polyline clip-path="url(#clip350)" style="stroke:#000000; stroke-linecap:round; stroke-linejoin:round; stroke-width:4; stroke-opacity:1; fill:none" points="211.114,624.707 230.012,624.707 "/>
<polyline clip-path="url(#clip350)" style="stroke:#000000; stroke-linecap:round; stroke-linejoin:round; stroke-width:4; stroke-opacity:1; fill:none" points="211.114,475.573 230.012,475.573 "/>
<polyline clip-path="url(#clip350)" style="stroke:#000000; stroke-linecap:round; stroke-linejoin:round; stroke-width:4; stroke-opacity:1; fill:none" points="211.114,326.44 230.012,326.44 "/>
<polyline clip-path="url(#clip350)" style="stroke:#000000; stroke-linecap:round; stroke-linejoin:round; stroke-width:4; stroke-opacity:1; fill:none" points="211.114,177.306 230.012,177.306 "/>
<path clip-path="url(#clip350)" d="M125.165 908.774 Q121.554 908.774 119.726 912.339 Q117.92 915.88 117.92 923.01 Q117.92 930.116 119.726 933.681 Q121.554 937.223 125.165 937.223 Q128.8 937.223 130.605 933.681 Q132.434 930.116 132.434 923.01 Q132.434 915.88 130.605 912.339 Q128.8 908.774 125.165 908.774 M125.165 905.07 Q130.976 905.07 134.031 909.677 Q137.11 914.26 137.11 923.01 Q137.11 931.737 134.031 936.343 Q130.976 940.927 125.165 940.927 Q119.355 940.927 116.277 936.343 Q113.221 931.737 113.221 923.01 Q113.221 914.26 116.277 909.677 Q119.355 905.07 125.165 905.07 Z" fill="#000000" fill-rule="nonzero" fill-opacity="1" /><path clip-path="url(#clip350)" d="M145.327 934.376 L150.212 934.376 L150.212 940.255 L145.327 940.255 L145.327 934.376 Z" fill="#000000" fill-rule="nonzero" fill-opacity="1" /><path clip-path="url(#clip350)" d="M161.207 936.32 L168.846 936.32 L168.846 909.955 L160.536 911.621 L160.536 907.362 L168.8 905.695 L173.475 905.695 L173.475 936.32 L181.114 936.32 L181.114 940.255 L161.207 940.255 L161.207 936.32 Z" fill="#000000" fill-rule="nonzero" fill-opacity="1" /><path clip-path="url(#clip350)" d="M125.536 759.64 Q121.925 759.64 120.096 763.205 Q118.291 766.747 118.291 773.876 Q118.291 780.983 120.096 784.547 Q121.925 788.089 125.536 788.089 Q129.17 788.089 130.976 784.547 Q132.804 780.983 132.804 773.876 Q132.804 766.747 130.976 763.205 Q129.17 759.64 125.536 759.64 M125.536 755.936 Q131.346 755.936 134.402 760.543 Q137.48 765.126 137.48 773.876 Q137.48 782.603 134.402 787.209 Q131.346 791.793 125.536 791.793 Q119.726 791.793 116.647 787.209 Q113.591 782.603 113.591 773.876 Q113.591 765.126 116.647 760.543 Q119.726 755.936 125.536 755.936 Z" fill="#000000" fill-rule="nonzero" fill-opacity="1" /><path clip-path="url(#clip350)" d="M145.698 785.242 L150.582 785.242 L150.582 791.121 L145.698 791.121 L145.698 785.242 Z" fill="#000000" fill-rule="nonzero" fill-opacity="1" /><path clip-path="url(#clip350)" d="M164.795 787.186 L181.114 787.186 L181.114 791.121 L159.17 791.121 L159.17 787.186 Q161.832 784.432 166.415 779.802 Q171.022 775.149 172.202 773.807 Q174.448 771.284 175.327 769.547 Q176.23 767.788 176.23 766.098 Q176.23 763.344 174.286 761.608 Q172.364 759.872 169.262 759.872 Q167.063 759.872 164.61 760.635 Q162.179 761.399 159.401 762.95 L159.401 758.228 Q162.225 757.094 164.679 756.515 Q167.133 755.936 169.17 755.936 Q174.54 755.936 177.735 758.622 Q180.929 761.307 180.929 765.797 Q180.929 767.927 180.119 769.848 Q179.332 771.746 177.225 774.339 Q176.647 775.01 173.545 778.228 Q170.443 781.422 164.795 787.186 Z" fill="#000000" fill-rule="nonzero" fill-opacity="1" /><path clip-path="url(#clip350)" d="M124.587 610.506 Q120.976 610.506 119.147 614.071 Q117.341 617.613 117.341 624.742 Q117.341 631.849 119.147 635.413 Q120.976 638.955 124.587 638.955 Q128.221 638.955 130.027 635.413 Q131.855 631.849 131.855 624.742 Q131.855 617.613 130.027 614.071 Q128.221 610.506 124.587 610.506 M124.587 606.802 Q130.397 606.802 133.452 611.409 Q136.531 615.992 136.531 624.742 Q136.531 633.469 133.452 638.075 Q130.397 642.659 124.587 642.659 Q118.777 642.659 115.698 638.075 Q112.642 633.469 112.642 624.742 Q112.642 615.992 115.698 611.409 Q118.777 606.802 124.587 606.802 Z" fill="#000000" fill-rule="nonzero" fill-opacity="1" /><path clip-path="url(#clip350)" d="M144.749 636.108 L149.633 636.108 L149.633 641.987 L144.749 641.987 L144.749 636.108 Z" fill="#000000" fill-rule="nonzero" fill-opacity="1" /><path clip-path="url(#clip350)" d="M173.985 623.353 Q177.341 624.071 179.216 626.339 Q181.114 628.608 181.114 631.941 Q181.114 637.057 177.596 639.858 Q174.077 642.659 167.596 642.659 Q165.42 642.659 163.105 642.219 Q160.813 641.802 158.36 640.946 L158.36 636.432 Q160.304 637.566 162.619 638.145 Q164.934 638.724 167.457 638.724 Q171.855 638.724 174.147 636.987 Q176.462 635.251 176.462 631.941 Q176.462 628.886 174.309 627.173 Q172.179 625.437 168.36 625.437 L164.332 625.437 L164.332 621.594 L168.545 621.594 Q171.994 621.594 173.823 620.228 Q175.651 618.839 175.651 616.247 Q175.651 613.585 173.753 612.173 Q171.878 610.738 168.36 610.738 Q166.438 610.738 164.239 611.154 Q162.04 611.571 159.401 612.451 L159.401 608.284 Q162.063 607.543 164.378 607.173 Q166.716 606.802 168.776 606.802 Q174.1 606.802 177.202 609.233 Q180.304 611.64 180.304 615.761 Q180.304 618.631 178.661 620.622 Q177.017 622.589 173.985 623.353 Z" fill="#000000" fill-rule="nonzero" fill-opacity="1" /><path clip-path="url(#clip350)" d="M123.453 461.372 Q119.841 461.372 118.013 464.937 Q116.207 468.479 116.207 475.608 Q116.207 482.715 118.013 486.279 Q119.841 489.821 123.453 489.821 Q127.087 489.821 128.892 486.279 Q130.721 482.715 130.721 475.608 Q130.721 468.479 128.892 464.937 Q127.087 461.372 123.453 461.372 M123.453 457.668 Q129.263 457.668 132.318 462.275 Q135.397 466.858 135.397 475.608 Q135.397 484.335 132.318 488.941 Q129.263 493.525 123.453 493.525 Q117.642 493.525 114.564 488.941 Q111.508 484.335 111.508 475.608 Q111.508 466.858 114.564 462.275 Q117.642 457.668 123.453 457.668 Z" fill="#000000" fill-rule="nonzero" fill-opacity="1" /><path clip-path="url(#clip350)" d="M143.614 486.974 L148.499 486.974 L148.499 492.853 L143.614 492.853 L143.614 486.974 Z" fill="#000000" fill-rule="nonzero" fill-opacity="1" /><path clip-path="url(#clip350)" d="M171.531 462.368 L159.725 480.816 L171.531 480.816 L171.531 462.368 M170.304 458.293 L176.184 458.293 L176.184 480.816 L181.114 480.816 L181.114 484.705 L176.184 484.705 L176.184 492.853 L171.531 492.853 L171.531 484.705 L155.929 484.705 L155.929 480.191 L170.304 458.293 Z" fill="#000000" fill-rule="nonzero" fill-opacity="1" /><path clip-path="url(#clip350)" d="M124.934 312.238 Q121.323 312.238 119.494 315.803 Q117.689 319.345 117.689 326.474 Q117.689 333.581 119.494 337.145 Q121.323 340.687 124.934 340.687 Q128.568 340.687 130.374 337.145 Q132.202 333.581 132.202 326.474 Q132.202 319.345 130.374 315.803 Q128.568 312.238 124.934 312.238 M124.934 308.535 Q130.744 308.535 133.8 313.141 Q136.878 317.724 136.878 326.474 Q136.878 335.201 133.8 339.807 Q130.744 344.391 124.934 344.391 Q119.124 344.391 116.045 339.807 Q112.99 335.201 112.99 326.474 Q112.99 317.724 116.045 313.141 Q119.124 308.535 124.934 308.535 Z" fill="#000000" fill-rule="nonzero" fill-opacity="1" /><path clip-path="url(#clip350)" d="M145.096 337.84 L149.98 337.84 L149.98 343.72 L145.096 343.72 L145.096 337.84 Z" fill="#000000" fill-rule="nonzero" fill-opacity="1" /><path clip-path="url(#clip350)" d="M160.212 309.16 L178.568 309.16 L178.568 313.095 L164.494 313.095 L164.494 321.567 Q165.512 321.22 166.531 321.058 Q167.55 320.872 168.568 320.872 Q174.355 320.872 177.735 324.044 Q181.114 327.215 181.114 332.632 Q181.114 338.21 177.642 341.312 Q174.17 344.391 167.85 344.391 Q165.675 344.391 163.406 344.02 Q161.161 343.65 158.753 342.909 L158.753 338.21 Q160.837 339.345 163.059 339.9 Q165.281 340.456 167.758 340.456 Q171.762 340.456 174.1 338.349 Q176.438 336.243 176.438 332.632 Q176.438 329.021 174.1 326.914 Q171.762 324.808 167.758 324.808 Q165.883 324.808 164.008 325.224 Q162.156 325.641 160.212 326.521 L160.212 309.16 Z" fill="#000000" fill-rule="nonzero" fill-opacity="1" /><path clip-path="url(#clip350)" d="M123.777 163.104 Q120.166 163.104 118.337 166.669 Q116.531 170.211 116.531 177.34 Q116.531 184.447 118.337 188.012 Q120.166 191.553 123.777 191.553 Q127.411 191.553 129.216 188.012 Q131.045 184.447 131.045 177.34 Q131.045 170.211 129.216 166.669 Q127.411 163.104 123.777 163.104 M123.777 159.401 Q129.587 159.401 132.642 164.007 Q135.721 168.59 135.721 177.34 Q135.721 186.067 132.642 190.674 Q129.587 195.257 123.777 195.257 Q117.966 195.257 114.888 190.674 Q111.832 186.067 111.832 177.34 Q111.832 168.59 114.888 164.007 Q117.966 159.401 123.777 159.401 Z" fill="#000000" fill-rule="nonzero" fill-opacity="1" /><path clip-path="url(#clip350)" d="M143.939 188.706 L148.823 188.706 L148.823 194.586 L143.939 194.586 L143.939 188.706 Z" fill="#000000" fill-rule="nonzero" fill-opacity="1" /><path clip-path="url(#clip350)" d="M169.587 175.442 Q166.438 175.442 164.587 177.595 Q162.758 179.748 162.758 183.498 Q162.758 187.224 164.587 189.4 Q166.438 191.553 169.587 191.553 Q172.735 191.553 174.563 189.4 Q176.415 187.224 176.415 183.498 Q176.415 179.748 174.563 177.595 Q172.735 175.442 169.587 175.442 M178.869 160.789 L178.869 165.049 Q177.11 164.215 175.304 163.776 Q173.522 163.336 171.762 163.336 Q167.133 163.336 164.679 166.461 Q162.249 169.586 161.901 175.905 Q163.267 173.891 165.327 172.826 Q167.387 171.738 169.864 171.738 Q175.073 171.738 178.082 174.91 Q181.114 178.058 181.114 183.498 Q181.114 188.822 177.966 192.039 Q174.818 195.257 169.587 195.257 Q163.591 195.257 160.42 190.674 Q157.249 186.067 157.249 177.34 Q157.249 169.146 161.138 164.285 Q165.026 159.401 171.577 159.401 Q173.337 159.401 175.119 159.748 Q176.924 160.095 178.869 160.789 Z" fill="#000000" fill-rule="nonzero" fill-opacity="1" /><path clip-path="url(#clip350)" d="M50.362 580.876 Q54.9997 580.876 59.5407 583.227 Q64.0495 585.546 66.8836 589.282 Q69.7178 592.986 69.7178 596.786 Q69.7178 600.49 66.8836 602.841 Q64.0173 605.16 59.3475 605.16 Q57.705 605.16 56.5456 604.966 Q55.3861 604.773 52.6809 604.097 L31.1673 598.686 Q27.1416 597.752 27.1094 597.752 Q26.7229 597.752 26.5297 597.913 Q26.3043 598.042 26.1432 598.815 Q25.9822 599.588 25.9822 601.069 Q25.9822 601.681 25.95 601.971 Q25.9178 602.229 25.7568 602.454 Q25.5635 602.647 25.177 602.647 Q24.6295 602.647 24.3397 602.422 Q24.0176 602.164 23.9532 601.971 Q23.8888 601.778 23.8566 601.391 Q23.8244 600.844 23.6634 599.008 Q23.4701 597.172 23.3413 595.594 Q23.2125 594.016 23.2125 593.34 Q23.2125 592.954 23.4057 592.76 Q23.5668 592.535 23.76 592.535 L23.921 592.503 L43.792 597.366 Q39.8307 593.533 39.8307 589.636 Q39.8307 585.739 42.8259 583.324 Q45.821 580.876 50.362 580.876 M47.4635 585.643 Q44.4039 585.643 42.8581 586.802 Q41.28 587.929 41.28 589.797 Q41.28 591.375 42.4716 593.437 Q43.6632 595.498 46.5617 597.688 Q47.1092 598.106 47.4313 598.267 Q47.7534 598.396 48.8484 598.686 L54.9353 600.135 Q59.0898 601.198 61.6019 601.198 Q65.0157 601.198 66.626 599.942 Q68.2363 598.686 68.2363 596.786 Q68.2363 594.789 66.465 592.696 Q64.6936 590.602 61.4731 588.992 Q59.3475 587.994 54.7742 586.834 Q50.1688 585.643 47.4635 585.643 Z" fill="#000000" fill-rule="nonzero" fill-opacity="1" /><path clip-path="url(#clip350)" d="M61.8789 554.502 Q62.0367 554.502 62.713 554.885 Q63.3668 555.246 65.0125 556.576 Q66.6582 557.906 68.5745 559.89 Q69.3184 560.634 70.3555 561.761 Q71.3925 562.888 72.0688 563.655 L72.7451 564.421 Q75.225 567.352 77.9979 569.922 Q77.9303 569.742 77.9077 569.426 Q77.8626 569.11 77.8626 568.885 L77.8626 568.659 Q77.8626 567.487 78.6517 565.436 Q79.2378 563.632 79.2378 562.708 Q79.2378 561.806 78.9222 560.814 Q78.6066 559.822 77.6823 558.74 Q76.758 557.658 75.3602 557.162 Q75.1348 557.072 75.0672 557.027 Q74.977 556.982 74.8868 556.846 Q74.7741 556.711 74.7741 556.531 Q74.7741 556.283 74.9094 556.125 Q75.0446 555.967 75.225 555.967 Q75.6308 555.967 76.4424 556.283 Q77.2539 556.576 78.2684 557.23 Q79.2829 557.861 80.2072 558.695 Q81.109 559.507 81.7402 560.724 Q82.3489 561.941 82.3489 563.226 Q82.3489 564.151 81.898 564.827 Q81.4697 565.503 80.6356 566.18 Q79.576 567.104 79.2378 567.6 Q78.8771 568.096 78.8771 568.862 Q78.8771 570.914 81.7402 572.785 Q82.146 572.988 82.2362 573.123 Q82.3489 573.236 82.3489 573.506 Q82.3264 574.07 81.8755 574.07 Q81.6951 574.07 80.9061 573.574 Q80.0945 573.056 78.6742 571.906 Q77.2539 570.734 75.8337 569.313 L71.9561 565.165 Q68.0785 560.566 65.8917 558.74 Q65.8917 559.507 65.8692 559.845 Q65.8466 560.16 65.7114 560.792 Q65.5536 561.423 65.2154 562.302 Q64.5165 564.354 64.5165 565.21 Q64.5165 565.436 64.5391 565.684 Q64.5616 565.932 64.6743 566.495 Q64.7871 567.036 65.0125 567.487 Q65.2154 567.938 65.6663 568.411 Q66.0946 568.885 66.6808 569.133 Q66.8611 569.201 66.9513 569.246 Q67.0415 569.291 67.1316 569.426 Q67.1993 569.539 67.1993 569.719 Q67.1993 569.99 67.0415 570.147 Q66.8837 570.283 66.6808 570.283 Q66.275 570.283 65.4408 569.877 Q64.6067 569.471 63.7049 568.795 Q62.7806 568.118 62.1043 567.014 Q61.428 565.909 61.428 564.692 Q61.428 563.97 61.7436 563.362 Q62.0592 562.73 62.3974 562.415 Q62.713 562.077 63.4119 561.513 Q63.9529 561.04 64.1784 560.814 Q64.4038 560.589 64.6518 560.138 Q64.8772 559.664 64.8772 559.146 Q64.8772 558.289 64.2235 557.5 Q63.5471 556.711 61.924 555.697 Q61.428 555.426 61.428 554.998 Q61.428 554.502 61.8789 554.502 Z" fill="#000000" fill-rule="nonzero" fill-opacity="1" /><path clip-path="url(#clip350)" d="M639.151 12.096 L647.334 12.096 L647.334 36.8875 L677.067 36.8875 L677.067 12.096 L685.25 12.096 L685.25 72.576 L677.067 72.576 L677.067 43.7741 L647.334 43.7741 L647.334 72.576 L639.151 72.576 L639.151 12.096 Z" fill="#000000" fill-rule="nonzero" fill-opacity="1" /><path clip-path="url(#clip350)" d="M740.019 48.0275 L740.019 51.6733 L705.748 51.6733 Q706.234 59.3701 710.366 63.421 Q714.538 67.4314 721.951 67.4314 Q726.245 67.4314 730.256 66.3781 Q734.307 65.3249 738.277 63.2184 L738.277 70.267 Q734.266 71.9684 730.053 72.8596 Q725.84 73.7508 721.506 73.7508 Q710.649 73.7508 704.29 67.4314 Q697.97 61.1119 697.97 50.3365 Q697.97 39.1965 703.965 32.6746 Q710.001 26.1121 720.21 26.1121 Q729.365 26.1121 734.671 32.0264 Q740.019 37.9003 740.019 48.0275 M732.565 45.84 Q732.484 39.7232 729.122 36.0774 Q725.8 32.4315 720.291 32.4315 Q714.052 32.4315 710.285 35.9558 Q706.558 39.4801 705.991 45.8805 L732.565 45.84 Z" fill="#000000" fill-rule="nonzero" fill-opacity="1" /><path clip-path="url(#clip350)" d="M772.871 49.7694 Q763.838 49.7694 760.354 51.8354 Q756.87 53.9013 756.87 58.8839 Q756.87 62.8538 759.463 65.2034 Q762.096 67.5124 766.592 67.5124 Q772.79 67.5124 776.517 63.1374 Q780.285 58.7219 780.285 51.4303 L780.285 49.7694 L772.871 49.7694 M787.738 46.6907 L787.738 72.576 L780.285 72.576 L780.285 65.6895 Q777.732 69.8214 773.925 71.8063 Q770.117 73.7508 764.608 73.7508 Q757.64 73.7508 753.508 69.8619 Q749.417 65.9325 749.417 59.3701 Q749.417 51.7138 754.521 47.825 Q759.665 43.9361 769.833 43.9361 L780.285 43.9361 L780.285 43.2069 Q780.285 38.0623 776.882 35.2672 Q773.519 32.4315 767.403 32.4315 Q763.514 32.4315 759.827 33.3632 Q756.141 34.295 752.738 36.1584 L752.738 29.2718 Q756.83 27.692 760.678 26.9223 Q764.526 26.1121 768.172 26.1121 Q778.016 26.1121 782.877 31.2163 Q787.738 36.3204 787.738 46.6907 Z" fill="#000000" fill-rule="nonzero" fill-opacity="1" /><path clip-path="url(#clip350)" d="M797.744 27.2059 L805.643 27.2059 L819.821 65.2844 L833.999 27.2059 L841.899 27.2059 L824.885 72.576 L814.758 72.576 L797.744 27.2059 Z" fill="#000000" fill-rule="nonzero" fill-opacity="1" /><path clip-path="url(#clip350)" d="M890.996 48.0275 L890.996 51.6733 L856.725 51.6733 Q857.211 59.3701 861.343 63.421 Q865.516 67.4314 872.929 67.4314 Q877.223 67.4314 881.233 66.3781 Q885.284 65.3249 889.254 63.2184 L889.254 70.267 Q885.243 71.9684 881.03 72.8596 Q876.818 73.7508 872.483 73.7508 Q861.627 73.7508 855.267 67.4314 Q848.947 61.1119 848.947 50.3365 Q848.947 39.1965 854.943 32.6746 Q860.979 26.1121 871.187 26.1121 Q880.342 26.1121 885.649 32.0264 Q890.996 37.9003 890.996 48.0275 M883.542 45.84 Q883.461 39.7232 880.099 36.0774 Q876.777 32.4315 871.268 32.4315 Q865.029 32.4315 861.262 35.9558 Q857.535 39.4801 856.968 45.8805 L883.542 45.84 Z" fill="#000000" fill-rule="nonzero" fill-opacity="1" /><path clip-path="url(#clip350)" d="M925.266 27.2059 L932.72 27.2059 L942.037 62.6108 L951.314 27.2059 L960.104 27.2059 L969.421 62.6108 L978.698 27.2059 L986.151 27.2059 L974.282 72.576 L965.492 72.576 L955.729 35.3887 L945.926 72.576 L937.136 72.576 L925.266 27.2059 Z" fill="#000000" fill-rule="nonzero" fill-opacity="1" /><path clip-path="url(#clip350)" d="M1018.07 49.7694 Q1009.04 49.7694 1005.56 51.8354 Q1002.07 53.9013 1002.07 58.8839 Q1002.07 62.8538 1004.66 65.2034 Q1007.3 67.5124 1011.79 67.5124 Q1017.99 67.5124 1021.72 63.1374 Q1025.49 58.7219 1025.49 51.4303 L1025.49 49.7694 L1018.07 49.7694 M1032.94 46.6907 L1032.94 72.576 L1025.49 72.576 L1025.49 65.6895 Q1022.93 69.8214 1019.13 71.8063 Q1015.32 73.7508 1009.81 73.7508 Q1002.84 73.7508 998.709 69.8619 Q994.618 65.9325 994.618 59.3701 Q994.618 51.7138 999.722 47.825 Q1004.87 43.9361 1015.03 43.9361 L1025.49 43.9361 L1025.49 43.2069 Q1025.49 38.0623 1022.08 35.2672 Q1018.72 32.4315 1012.6 32.4315 Q1008.71 32.4315 1005.03 33.3632 Q1001.34 34.295 997.94 36.1584 L997.94 29.2718 Q1002.03 27.692 1005.88 26.9223 Q1009.73 26.1121 1013.37 26.1121 Q1023.22 26.1121 1028.08 31.2163 Q1032.94 36.3204 1032.94 46.6907 Z" fill="#000000" fill-rule="nonzero" fill-opacity="1" /><path clip-path="url(#clip350)" d="M1042.95 27.2059 L1050.84 27.2059 L1065.02 65.2844 L1079.2 27.2059 L1087.1 27.2059 L1070.09 72.576 L1059.96 72.576 L1042.95 27.2059 Z" fill="#000000" fill-rule="nonzero" fill-opacity="1" /><path clip-path="url(#clip350)" d="M1136.2 48.0275 L1136.2 51.6733 L1101.93 51.6733 Q1102.41 59.3701 1106.54 63.421 Q1110.72 67.4314 1118.13 67.4314 Q1122.42 67.4314 1126.43 66.3781 Q1130.49 65.3249 1134.46 63.2184 L1134.46 70.267 Q1130.44 71.9684 1126.23 72.8596 Q1122.02 73.7508 1117.68 73.7508 Q1106.83 73.7508 1100.47 67.4314 Q1094.15 61.1119 1094.15 50.3365 Q1094.15 39.1965 1100.14 32.6746 Q1106.18 26.1121 1116.39 26.1121 Q1125.54 26.1121 1130.85 32.0264 Q1136.2 37.9003 1136.2 48.0275 M1128.74 45.84 Q1128.66 39.7232 1125.3 36.0774 Q1121.98 32.4315 1116.47 32.4315 Q1110.23 32.4315 1106.46 35.9558 Q1102.74 39.4801 1102.17 45.8805 L1128.74 45.84 Z" fill="#000000" fill-rule="nonzero" fill-opacity="1" /><path clip-path="url(#clip350)" d="M1204.66 34.0924 L1204.66 9.54393 L1212.11 9.54393 L1212.11 72.576 L1204.66 72.576 L1204.66 65.7705 Q1202.31 69.8214 1198.7 71.8063 Q1195.14 73.7508 1190.11 73.7508 Q1181.89 73.7508 1176.71 67.1883 Q1171.56 60.6258 1171.56 49.9314 Q1171.56 39.2371 1176.71 32.6746 Q1181.89 26.1121 1190.11 26.1121 Q1195.14 26.1121 1198.7 28.0971 Q1202.31 30.0415 1204.66 34.0924 M1179.26 49.9314 Q1179.26 58.1548 1182.62 62.8538 Q1186.02 67.5124 1191.94 67.5124 Q1197.85 67.5124 1201.25 62.8538 Q1204.66 58.1548 1204.66 49.9314 Q1204.66 41.7081 1201.25 37.0496 Q1197.85 32.3505 1191.94 32.3505 Q1186.02 32.3505 1182.62 37.0496 Q1179.26 41.7081 1179.26 49.9314 Z" fill="#000000" fill-rule="nonzero" fill-opacity="1" /><path clip-path="url(#clip350)" d="M1248.08 49.7694 Q1239.05 49.7694 1235.57 51.8354 Q1232.08 53.9013 1232.08 58.8839 Q1232.08 62.8538 1234.67 65.2034 Q1237.31 67.5124 1241.8 67.5124 Q1248 67.5124 1251.73 63.1374 Q1255.5 58.7219 1255.5 51.4303 L1255.5 49.7694 L1248.08 49.7694 M1262.95 46.6907 L1262.95 72.576 L1255.5 72.576 L1255.5 65.6895 Q1252.94 69.8214 1249.14 71.8063 Q1245.33 73.7508 1239.82 73.7508 Q1232.85 73.7508 1228.72 69.8619 Q1224.63 65.9325 1224.63 59.3701 Q1224.63 51.7138 1229.73 47.825 Q1234.88 43.9361 1245.04 43.9361 L1255.5 43.9361 L1255.5 43.2069 Q1255.5 38.0623 1252.09 35.2672 Q1248.73 32.4315 1242.61 32.4315 Q1238.73 32.4315 1235.04 33.3632 Q1231.35 34.295 1227.95 36.1584 L1227.95 29.2718 Q1232.04 27.692 1235.89 26.9223 Q1239.74 26.1121 1243.38 26.1121 Q1253.23 26.1121 1258.09 31.2163 Q1262.95 36.3204 1262.95 46.6907 Z" fill="#000000" fill-rule="nonzero" fill-opacity="1" /><path clip-path="url(#clip350)" d="M1313.63 35.9153 Q1316.42 30.8922 1320.31 28.5022 Q1324.2 26.1121 1329.47 26.1121 Q1336.55 26.1121 1340.4 31.0947 Q1344.25 36.0368 1344.25 45.1919 L1344.25 72.576 L1336.76 72.576 L1336.76 45.4349 Q1336.76 38.913 1334.45 35.7533 Q1332.14 32.5936 1327.4 32.5936 Q1321.61 32.5936 1318.24 36.4419 Q1314.88 40.2903 1314.88 46.9338 L1314.88 72.576 L1307.39 72.576 L1307.39 45.4349 Q1307.39 38.8725 1305.08 35.7533 Q1302.77 32.5936 1297.95 32.5936 Q1292.24 32.5936 1288.88 36.4824 Q1285.51 40.3308 1285.51 46.9338 L1285.51 72.576 L1278.02 72.576 L1278.02 27.2059 L1285.51 27.2059 L1285.51 34.2544 Q1288.07 30.082 1291.63 28.0971 Q1295.19 26.1121 1300.1 26.1121 Q1305.04 26.1121 1308.48 28.6237 Q1311.97 31.1352 1313.63 35.9153 Z" fill="#000000" fill-rule="nonzero" fill-opacity="1" /><path clip-path="url(#clip350)" d="M1366.33 65.7705 L1366.33 89.8329 L1358.83 89.8329 L1358.83 27.2059 L1366.33 27.2059 L1366.33 34.0924 Q1368.68 30.0415 1372.24 28.0971 Q1375.85 26.1121 1380.83 26.1121 Q1389.09 26.1121 1394.24 32.6746 Q1399.42 39.2371 1399.42 49.9314 Q1399.42 60.6258 1394.24 67.1883 Q1389.09 73.7508 1380.83 73.7508 Q1375.85 73.7508 1372.24 71.8063 Q1368.68 69.8214 1366.33 65.7705 M1391.69 49.9314 Q1391.69 41.7081 1388.28 37.0496 Q1384.92 32.3505 1379.01 32.3505 Q1373.09 32.3505 1369.69 37.0496 Q1366.33 41.7081 1366.33 49.9314 Q1366.33 58.1548 1369.69 62.8538 Q1373.09 67.5124 1379.01 67.5124 Q1384.92 67.5124 1388.28 62.8538 Q1391.69 58.1548 1391.69 49.9314 Z" fill="#000000" fill-rule="nonzero" fill-opacity="1" /><path clip-path="url(#clip350)" d="M1411.78 27.2059 L1419.23 27.2059 L1419.23 72.576 L1411.78 72.576 L1411.78 27.2059 M1411.78 9.54393 L1419.23 9.54393 L1419.23 18.9825 L1411.78 18.9825 L1411.78 9.54393 Z" fill="#000000" fill-rule="nonzero" fill-opacity="1" /><path clip-path="url(#clip350)" d="M1472.54 45.1919 L1472.54 72.576 L1465.09 72.576 L1465.09 45.4349 Q1465.09 38.994 1462.58 35.7938 Q1460.07 32.5936 1455.04 32.5936 Q1449.01 32.5936 1445.52 36.4419 Q1442.04 40.2903 1442.04 46.9338 L1442.04 72.576 L1434.55 72.576 L1434.55 27.2059 L1442.04 27.2059 L1442.04 34.2544 Q1444.71 30.163 1448.32 28.1376 Q1451.96 26.1121 1456.7 26.1121 Q1464.52 26.1121 1468.53 30.9732 Q1472.54 35.7938 1472.54 45.1919 Z" fill="#000000" fill-rule="nonzero" fill-opacity="1" /><path clip-path="url(#clip350)" d="M1517.27 49.3643 Q1517.27 41.2625 1513.9 36.8065 Q1510.58 32.3505 1504.55 32.3505 Q1498.55 32.3505 1495.19 36.8065 Q1491.87 41.2625 1491.87 49.3643 Q1491.87 57.4256 1495.19 61.8816 Q1498.55 66.3376 1504.55 66.3376 Q1510.58 66.3376 1513.9 61.8816 Q1517.27 57.4256 1517.27 49.3643 M1524.72 66.9452 Q1524.72 78.5308 1519.57 84.1616 Q1514.43 89.8329 1503.82 89.8329 Q1499.89 89.8329 1496.4 89.2252 Q1492.92 88.6581 1489.64 87.4428 L1489.64 80.1917 Q1492.92 81.9741 1496.12 82.8248 Q1499.32 83.6755 1502.64 83.6755 Q1509.97 83.6755 1513.62 79.8271 Q1517.27 76.0193 1517.27 68.282 L1517.27 64.5957 Q1514.96 68.6061 1511.35 70.5911 Q1507.75 72.576 1502.72 72.576 Q1494.38 72.576 1489.27 66.2161 Q1484.17 59.8562 1484.17 49.3643 Q1484.17 38.832 1489.27 32.472 Q1494.38 26.1121 1502.72 26.1121 Q1507.75 26.1121 1511.35 28.0971 Q1514.96 30.082 1517.27 34.0924 L1517.27 27.2059 L1524.72 27.2059 L1524.72 66.9452 Z" fill="#000000" fill-rule="nonzero" fill-opacity="1" /><polyline clip-path="url(#clip352)" style="stroke:#009af9; stroke-linecap:round; stroke-linejoin:round; stroke-width:4; stroke-opacity:1; fill:none" points="295.984,511.554 319.562,449.306 340.335,400.071 359.115,359.925 376.385,326.53 392.459,298.368 407.557,274.388 421.836,253.83 435.418,236.124 448.395,220.833 460.842,207.61 472.819,196.179 484.375,186.314 495.551,177.828 506.384,170.565 516.902,164.392 527.133,159.197 537.097,154.882 546.815,151.363 556.304,148.567 565.58,146.428 574.657,144.891 583.546,143.904 592.259,143.422 600.806,143.404 609.197,143.814 617.438,144.62 625.539,145.79 633.506,147.298 641.345,149.119 649.063,151.23 656.665,153.611 664.156,156.242 671.54,159.106 678.823,162.186 686.008,165.467 693.099,168.935 700.1,172.577 707.013,176.381 713.843,180.336 720.592,184.431 727.263,188.656 733.859,193.002 740.381,197.459 746.833,202.021 753.217,206.679 759.535,211.426 765.789,216.256 771.98,221.161 778.111,226.136 784.183,231.175 790.198,236.273 796.158,241.425 802.064,246.625 807.917,251.869 813.72,257.154 819.472,262.474 825.176,267.826 830.833,273.206 836.443,278.611 842.008,284.038 847.53,289.483 853.008,294.943 858.444,300.415 863.84,305.898 869.195,311.387 874.511,316.882 879.788,322.379 885.028,327.876 890.232,333.372 895.399,338.863 900.531,344.35 905.628,349.828 910.692,355.298 915.722,360.757 920.72,366.204 925.686,371.638 930.62,377.056 935.524,382.458 940.398,387.843 945.242,393.209 950.057,398.555 954.843,403.88 959.601,409.184 964.332,414.465 969.035,419.723 973.712,424.956 978.363,430.164 982.988,435.346 987.587,440.502 992.162,445.63 996.712,450.731 1001.24,455.803 1005.74,460.847 1010.22,465.861 1014.67,470.845 1019.11,475.799 1023.52,480.722 1027.91,485.614 1032.27,490.475 1036.62,495.304 1040.95,500.101 1045.25,504.866 1049.53,509.599 1053.8,514.299 1058.04,518.966 1062.26,523.6 1066.47,528.201 1070.65,532.768 1074.82,537.302 1078.97,541.803 1083.1,546.27 1087.21,550.703 1091.3,555.103 1095.38,559.469 1099.44,563.801 1103.48,568.1 1107.51,572.364 1111.51,576.595 1115.5,580.793 1119.48,584.956 1123.44,589.086 1127.38,593.183 1131.31,597.246 1135.22,601.276 1139.12,605.272 1143,609.235 1146.87,613.165 1150.72,617.063 1154.55,620.927 1158.38,624.759 1162.18,628.558 1165.98,632.324 1169.76,636.059 1173.52,639.761 1177.28,643.431 1181.01,647.069 1184.74,650.676 1188.45,654.251 1192.15,657.795 1195.83,661.308 1199.51,664.79 1203.17,668.241 1206.82,671.662 1210.45,675.052 1214.07,678.412 1217.68,681.742 1221.28,685.042 1224.87,688.312 1228.44,691.553 1232.01,694.765 1235.56,697.948 1239.1,701.103 1242.62,704.228 1246.14,707.325 1249.65,710.394 1253.14,713.436 1256.63,716.449 1260.1,719.435 1263.56,722.394 1267.01,725.325 1270.45,728.23 1273.88,731.108 1277.3,733.959 1280.71,736.785 1284.11,739.584 1287.5,742.357 1290.88,745.105 1294.25,747.828 1297.61,750.525 1300.96,753.198 1304.3,755.846 1307.63,758.469 1310.95,761.068 1314.26,763.642 1317.57,766.193 1320.86,768.721 1324.14,771.224 1327.42,773.705 1330.68,776.162 1333.94,778.597 1337.19,781.009 1340.43,783.399 1343.66,785.766 1346.88,788.111 1350.09,790.435 1353.3,792.737 1356.49,795.017 1359.68,797.277 1362.86,799.515 1366.03,801.732 1369.2,803.929 1372.35,806.105 1375.5,808.262 1378.64,810.398 1381.77,812.514 1384.89,814.61 1388,816.687 1391.11,818.745 1394.21,820.783 1397.3,822.803 1400.39,824.804 1403.46,826.786 1406.53,828.75 1409.59,830.696 1412.65,832.623 1415.7,834.533 1418.74,836.425 1421.77,838.3 1424.79,840.157 1427.81,841.997 1430.82,843.82 1433.83,845.626 1436.82,847.415 1439.81,849.188 1442.8,850.945 1445.77,852.685 1448.74,854.409 1451.71,856.118 1454.66,857.81 1457.61,859.487 1460.55,861.149 1463.49,862.796 1466.42,864.427 1469.34,866.043 1472.26,867.645 1475.17,869.231 1478.08,870.804 1480.97,872.362 1483.87,873.905 1486.75,875.435 1489.63,876.951 1492.5,878.452 1495.37,879.94 1498.23,881.415 1501.09,882.876 1503.94,884.324 1506.78,885.759 1509.62,887.18 1512.45,888.589 1515.27,889.985 1518.09,891.369 1520.91,892.74 1523.71,894.098 1526.52,895.444 1529.31,896.779 1532.1,898.101 1534.89,899.411 1537.67,900.709 1540.44,901.996 1543.21,903.271 1545.98,904.535 1548.73,905.788 1551.49,907.029 1554.23,908.259 1556.97,909.478 1559.71,910.687 1562.44,911.884 1565.17,913.071 1567.89,914.248 1570.6,915.414 1573.32,916.569 1576.02,917.715 1578.72,918.85 1581.42,919.975 1584.11,921.09 1586.79,922.196 1589.47,923.291 1592.15,924.377 1594.82,925.454 1597.48,926.521 1600.14,927.578 1602.8,928.627 1605.45,929.666 1608.09,930.696 1610.74,931.717 1613.37,932.729 1616,933.733 1618.63,934.727 1621.25,935.714 1623.87,936.691 1626.48,937.66 1629.09,938.62 1631.7,939.573 1634.3,940.517 1636.89,941.453 1639.48,942.38 1642.07,943.3 1644.65,944.212 1647.22,945.116 1649.8,946.013 1652.37,946.901 1654.93,947.782 1657.49,948.656 1660.04,949.522 1662.59,950.38 1665.14,951.232 1667.68,952.076 1670.22,952.913 1672.76,953.742 1675.29,954.565 1677.81,955.381 1680.33,956.19 1682.85,956.992 1685.36,957.787 1687.87,958.576 1690.38,959.358 1692.88,960.133 1695.37,960.902 1697.87,961.665 1700.36,962.421 1702.84,963.17 1705.32,963.914 1707.8,964.651 1710.27,965.382 1712.74,966.107 1715.21,966.826 1717.67,967.539 1720.13,968.246 1722.58,968.948 1725.03,969.643 1727.48,970.333 1729.92,971.017 1732.36,971.695 1734.79,972.368 1737.22,973.035 1739.65,973.697 1742.07,974.354 1744.49,975.005 1746.91,975.65 1749.32,976.291 1751.73,976.926 1754.14,977.556 1756.54,978.181 1758.94,978.801 1761.33,979.416 1763.72,980.026 1766.11,980.63 1768.5,981.23 1770.88,981.826 1773.26,982.416 1775.63,983.002 1778,983.583 1780.37,984.159 1782.73,984.73 1785.09,985.297 1787.45,985.86 1789.8,986.418 1792.15,986.972 1794.5,987.521 1796.84,988.066 1799.18,988.606 1801.52,989.142 1803.85,989.674 1806.18,990.202 1808.51,990.725 1810.83,991.245 1813.15,991.76 1815.47,992.271 1817.78,992.779 1820.09,993.282 1822.4,993.781 1824.71,994.277 1827.01,994.768 1829.31,995.256 1831.6,995.74 1833.89,996.22 1836.18,996.696 1838.47,997.169 1840.75,997.638 1843.03,998.104 1845.31,998.565 1847.58,999.024 1849.85,999.478 1852.12,999.929 1854.38,1000.38 1856.64,1000.82 1858.9,1001.26 1861.16,1001.7 1863.41,1002.13 1865.66,1002.56 1867.91,1002.99 1870.15,1003.42 1872.39,1003.84 1874.63,1004.26 1876.86,1004.67 1879.1,1005.08 1881.33,1005.49 1883.55,1005.89 1885.78,1006.3 1888,1006.7 1890.22,1007.09 1892.43,1007.49 1894.64,1007.88 1896.85,1008.26 1899.06,1008.65 1901.26,1009.03 1903.46,1009.41 "/>
<circle clip-path="url(#clip352)" cx="260.406" cy="602.071" r="14.4" fill="#e26f46" fill-rule="evenodd" fill-opacity="1" stroke="#000000" stroke-opacity="1" stroke-width="2.4"/>
<circle clip-path="url(#clip352)" cx="306.642" cy="626.407" r="14.4" fill="#e26f46" fill-rule="evenodd" fill-opacity="1" stroke="#000000" stroke-opacity="1" stroke-width="2.4"/>
<circle clip-path="url(#clip352)" cx="332.532" cy="601.871" r="14.4" fill="#e26f46" fill-rule="evenodd" fill-opacity="1" stroke="#000000" stroke-opacity="1" stroke-width="2.4"/>
<circle clip-path="url(#clip352)" cx="366.941" cy="533.275" r="14.4" fill="#e26f46" fill-rule="evenodd" fill-opacity="1" stroke="#000000" stroke-opacity="1" stroke-width="2.4"/>
<circle clip-path="url(#clip352)" cx="421.347" cy="401.017" r="14.4" fill="#e26f46" fill-rule="evenodd" fill-opacity="1" stroke="#000000" stroke-opacity="1" stroke-width="2.4"/>
<circle clip-path="url(#clip352)" cx="464.366" cy="317.719" r="14.4" fill="#e26f46" fill-rule="evenodd" fill-opacity="1" stroke="#000000" stroke-opacity="1" stroke-width="2.4"/>
<circle clip-path="url(#clip352)" cx="470.287" cy="366.631" r="14.4" fill="#e26f46" fill-rule="evenodd" fill-opacity="1" stroke="#000000" stroke-opacity="1" stroke-width="2.4"/>
<circle clip-path="url(#clip352)" cx="521.87" cy="253.952" r="14.4" fill="#e26f46" fill-rule="evenodd" fill-opacity="1" stroke="#000000" stroke-opacity="1" stroke-width="2.4"/>
<circle clip-path="url(#clip352)" cx="582.259" cy="190.177" r="14.4" fill="#e26f46" fill-rule="evenodd" fill-opacity="1" stroke="#000000" stroke-opacity="1" stroke-width="2.4"/>
<circle clip-path="url(#clip352)" cx="637.105" cy="199.811" r="14.4" fill="#e26f46" fill-rule="evenodd" fill-opacity="1" stroke="#000000" stroke-opacity="1" stroke-width="2.4"/>
<circle clip-path="url(#clip352)" cx="689.005" cy="189.881" r="14.4" fill="#e26f46" fill-rule="evenodd" fill-opacity="1" stroke="#000000" stroke-opacity="1" stroke-width="2.4"/>
<circle clip-path="url(#clip352)" cx="689.096" cy="219.237" r="14.4" fill="#e26f46" fill-rule="evenodd" fill-opacity="1" stroke="#000000" stroke-opacity="1" stroke-width="2.4"/>
<circle clip-path="url(#clip352)" cx="743.912" cy="219.085" r="14.4" fill="#e26f46" fill-rule="evenodd" fill-opacity="1" stroke="#000000" stroke-opacity="1" stroke-width="2.4"/>
<circle clip-path="url(#clip352)" cx="798.894" cy="272.753" r="14.4" fill="#e26f46" fill-rule="evenodd" fill-opacity="1" stroke="#000000" stroke-opacity="1" stroke-width="2.4"/>
<circle clip-path="url(#clip352)" cx="850.976" cy="321.537" r="14.4" fill="#e26f46" fill-rule="evenodd" fill-opacity="1" stroke="#000000" stroke-opacity="1" stroke-width="2.4"/>
<circle clip-path="url(#clip352)" cx="908.814" cy="365.412" r="14.4" fill="#e26f46" fill-rule="evenodd" fill-opacity="1" stroke="#000000" stroke-opacity="1" stroke-width="2.4"/>
<circle clip-path="url(#clip352)" cx="960.926" cy="423.981" r="14.4" fill="#e26f46" fill-rule="evenodd" fill-opacity="1" stroke="#000000" stroke-opacity="1" stroke-width="2.4"/>
<circle clip-path="url(#clip352)" cx="1018.82" cy="487.427" r="14.4" fill="#e26f46" fill-rule="evenodd" fill-opacity="1" stroke="#000000" stroke-opacity="1" stroke-width="2.4"/>
<circle clip-path="url(#clip352)" cx="1070.92" cy="541.104" r="14.4" fill="#e26f46" fill-rule="evenodd" fill-opacity="1" stroke="#000000" stroke-opacity="1" stroke-width="2.4"/>
<circle clip-path="url(#clip352)" cx="1122.97" cy="580.102" r="14.4" fill="#e26f46" fill-rule="evenodd" fill-opacity="1" stroke="#000000" stroke-opacity="1" stroke-width="2.4"/>
<circle clip-path="url(#clip352)" cx="1180.84" cy="633.762" r="14.4" fill="#e26f46" fill-rule="evenodd" fill-opacity="1" stroke="#000000" stroke-opacity="1" stroke-width="2.4"/>
<circle clip-path="url(#clip352)" cx="1235.84" cy="692.323" r="14.4" fill="#e26f46" fill-rule="evenodd" fill-opacity="1" stroke="#000000" stroke-opacity="1" stroke-width="2.4"/>
<circle clip-path="url(#clip352)" cx="1290.73" cy="716.635" r="14.4" fill="#e26f46" fill-rule="evenodd" fill-opacity="1" stroke="#000000" stroke-opacity="1" stroke-width="2.4"/>
<circle clip-path="url(#clip352)" cx="1345.65" cy="750.732" r="14.4" fill="#e26f46" fill-rule="evenodd" fill-opacity="1" stroke="#000000" stroke-opacity="1" stroke-width="2.4"/>
<circle clip-path="url(#clip352)" cx="1397.7" cy="789.73" r="14.4" fill="#e26f46" fill-rule="evenodd" fill-opacity="1" stroke="#000000" stroke-opacity="1" stroke-width="2.4"/>
<circle clip-path="url(#clip352)" cx="1435.31" cy="823.876" r="14.4" fill="#e26f46" fill-rule="evenodd" fill-opacity="1" stroke="#000000" stroke-opacity="1" stroke-width="2.4"/>
<path clip-path="url(#clip350)" d="M1419.64 303.543 L1894.7 303.543 L1894.7 148.023 L1419.64 148.023  Z" fill="#ffffff" fill-rule="evenodd" fill-opacity="1"/>
<polyline clip-path="url(#clip350)" style="stroke:#000000; stroke-linecap:round; stroke-linejoin:round; stroke-width:4; stroke-opacity:1; fill:none" points="1419.64,303.543 1894.7,303.543 1894.7,148.023 1419.64,148.023 1419.64,303.543 "/>
<polyline clip-path="url(#clip350)" style="stroke:#009af9; stroke-linecap:round; stroke-linejoin:round; stroke-width:4; stroke-opacity:1; fill:none" points="1438.99,199.863 1555.1,199.863 "/>
<path clip-path="url(#clip350)" d="M1574.45 182.583 L1579.15 182.583 L1579.15 203.578 Q1579.15 209.134 1581.16 211.587 Q1583.18 214.018 1587.69 214.018 Q1592.18 214.018 1594.19 211.587 Q1596.21 209.134 1596.21 203.578 L1596.21 182.583 L1600.91 182.583 L1600.91 204.157 Q1600.91 210.916 1597.55 214.365 Q1594.22 217.814 1587.69 217.814 Q1581.14 217.814 1577.78 214.365 Q1574.45 210.916 1574.45 204.157 L1574.45 182.583 Z" fill="#000000" fill-rule="nonzero" fill-opacity="1" /><path clip-path="url(#clip350)" d="M1624.52 195.199 Q1623.8 194.782 1622.94 194.597 Q1622.11 194.388 1621.09 194.388 Q1617.48 194.388 1615.54 196.75 Q1613.61 199.087 1613.61 203.486 L1613.61 217.143 L1609.33 217.143 L1609.33 191.217 L1613.61 191.217 L1613.61 195.245 Q1614.96 192.884 1617.11 191.75 Q1619.26 190.592 1622.34 190.592 Q1622.78 190.592 1623.31 190.662 Q1623.85 190.708 1624.49 190.824 L1624.52 195.199 Z" fill="#000000" fill-rule="nonzero" fill-opacity="1" /><path clip-path="url(#clip350)" d="M1645.51 191.981 L1645.51 196.009 Q1643.71 195.083 1641.76 194.62 Q1639.82 194.157 1637.74 194.157 Q1634.56 194.157 1632.97 195.129 Q1631.39 196.101 1631.39 198.046 Q1631.39 199.527 1632.53 200.384 Q1633.66 201.217 1637.09 201.981 L1638.55 202.305 Q1643.08 203.277 1644.98 205.06 Q1646.9 206.819 1646.9 209.99 Q1646.9 213.601 1644.03 215.708 Q1641.18 217.814 1636.18 217.814 Q1634.1 217.814 1631.83 217.398 Q1629.59 217.004 1627.09 216.194 L1627.09 211.796 Q1629.45 213.023 1631.74 213.648 Q1634.03 214.249 1636.28 214.249 Q1639.29 214.249 1640.91 213.231 Q1642.53 212.189 1642.53 210.314 Q1642.53 208.578 1641.35 207.652 Q1640.19 206.726 1636.23 205.87 L1634.75 205.523 Q1630.79 204.689 1629.03 202.976 Q1627.27 201.24 1627.27 198.231 Q1627.27 194.574 1629.86 192.583 Q1632.46 190.592 1637.23 190.592 Q1639.59 190.592 1641.67 190.939 Q1643.75 191.287 1645.51 191.981 Z" fill="#000000" fill-rule="nonzero" fill-opacity="1" /><path clip-path="url(#clip350)" d="M1675.86 203.115 L1675.86 205.199 L1656.28 205.199 Q1656.55 209.597 1658.92 211.911 Q1661.3 214.203 1665.54 214.203 Q1667.99 214.203 1670.28 213.601 Q1672.6 212.999 1674.86 211.796 L1674.86 215.823 Q1672.57 216.796 1670.17 217.305 Q1667.76 217.814 1665.28 217.814 Q1659.08 217.814 1655.44 214.203 Q1651.83 210.592 1651.83 204.435 Q1651.83 198.069 1655.26 194.342 Q1658.71 190.592 1664.54 190.592 Q1669.77 190.592 1672.8 193.972 Q1675.86 197.328 1675.86 203.115 M1671.6 201.865 Q1671.55 198.37 1669.63 196.287 Q1667.73 194.203 1664.59 194.203 Q1661.02 194.203 1658.87 196.217 Q1656.74 198.231 1656.42 201.888 L1671.6 201.865 Z" fill="#000000" fill-rule="nonzero" fill-opacity="1" /><path clip-path="url(#clip350)" d="M1682.85 181.125 L1687.11 181.125 L1687.11 217.143 L1682.85 217.143 L1682.85 181.125 Z" fill="#000000" fill-rule="nonzero" fill-opacity="1" /><path clip-path="url(#clip350)" d="M1696.02 181.125 L1700.28 181.125 L1700.28 217.143 L1696.02 217.143 L1696.02 181.125 Z" fill="#000000" fill-rule="nonzero" fill-opacity="1" /><path clip-path="url(#clip350)" d="M1734.49 181.171 Q1731.39 186.495 1729.89 191.703 Q1728.38 196.912 1728.38 202.259 Q1728.38 207.606 1729.89 212.861 Q1731.42 218.092 1734.49 223.393 L1730.79 223.393 Q1727.32 217.953 1725.58 212.698 Q1723.87 207.444 1723.87 202.259 Q1723.87 197.097 1725.58 191.865 Q1727.29 186.634 1730.79 181.171 L1734.49 181.171 Z" fill="#000000" fill-rule="nonzero" fill-opacity="1" /><path clip-path="url(#clip350)" d="M1744.17 213.208 L1751.81 213.208 L1751.81 186.842 L1743.5 188.509 L1743.5 184.25 L1751.76 182.583 L1756.44 182.583 L1756.44 213.208 L1764.08 213.208 L1764.08 217.143 L1744.17 217.143 L1744.17 213.208 Z" fill="#000000" fill-rule="nonzero" fill-opacity="1" /><path clip-path="url(#clip350)" d="M1773.66 216.425 L1773.66 212.166 Q1775.42 212.999 1777.23 213.439 Q1779.03 213.879 1780.77 213.879 Q1785.4 213.879 1787.83 210.777 Q1790.28 207.652 1790.63 201.31 Q1789.29 203.3 1787.23 204.365 Q1785.16 205.43 1782.66 205.43 Q1777.48 205.43 1774.45 202.305 Q1771.44 199.157 1771.44 193.717 Q1771.44 188.393 1774.59 185.175 Q1777.73 181.958 1782.97 181.958 Q1788.96 181.958 1792.11 186.564 Q1795.28 191.148 1795.28 199.898 Q1795.28 208.069 1791.39 212.953 Q1787.53 217.814 1780.98 217.814 Q1779.22 217.814 1777.41 217.467 Q1775.6 217.12 1773.66 216.425 M1782.97 201.773 Q1786.11 201.773 1787.94 199.62 Q1789.79 197.467 1789.79 193.717 Q1789.79 189.99 1787.94 187.838 Q1786.11 185.662 1782.97 185.662 Q1779.82 185.662 1777.97 187.838 Q1776.14 189.99 1776.14 193.717 Q1776.14 197.467 1777.97 199.62 Q1779.82 201.773 1782.97 201.773 Z" fill="#000000" fill-rule="nonzero" fill-opacity="1" /><path clip-path="url(#clip350)" d="M1816.53 186.657 L1804.72 205.106 L1816.53 205.106 L1816.53 186.657 M1815.3 182.583 L1821.18 182.583 L1821.18 205.106 L1826.11 205.106 L1826.11 208.995 L1821.18 208.995 L1821.18 217.143 L1816.53 217.143 L1816.53 208.995 L1800.93 208.995 L1800.93 204.481 L1815.3 182.583 Z" fill="#000000" fill-rule="nonzero" fill-opacity="1" /><path clip-path="url(#clip350)" d="M1833.98 216.425 L1833.98 212.166 Q1835.74 212.999 1837.55 213.439 Q1839.35 213.879 1841.09 213.879 Q1845.72 213.879 1848.15 210.777 Q1850.6 207.652 1850.95 201.31 Q1849.61 203.3 1847.55 204.365 Q1845.49 205.43 1842.99 205.43 Q1837.8 205.43 1834.77 202.305 Q1831.76 199.157 1831.76 193.717 Q1831.76 188.393 1834.91 185.175 Q1838.06 181.958 1843.29 181.958 Q1849.28 181.958 1852.43 186.564 Q1855.6 191.148 1855.6 199.898 Q1855.6 208.069 1851.72 212.953 Q1847.85 217.814 1841.3 217.814 Q1839.54 217.814 1837.73 217.467 Q1835.93 217.12 1833.98 216.425 M1843.29 201.773 Q1846.44 201.773 1848.27 199.62 Q1850.12 197.467 1850.12 193.717 Q1850.12 189.99 1848.27 187.838 Q1846.44 185.662 1843.29 185.662 Q1840.14 185.662 1838.29 187.838 Q1836.46 189.99 1836.46 193.717 Q1836.46 197.467 1838.29 199.62 Q1840.14 201.773 1843.29 201.773 Z" fill="#000000" fill-rule="nonzero" fill-opacity="1" /><path clip-path="url(#clip350)" d="M1862.73 181.171 L1866.44 181.171 Q1869.91 186.634 1871.62 191.865 Q1873.36 197.097 1873.36 202.259 Q1873.36 207.444 1871.62 212.698 Q1869.91 217.953 1866.44 223.393 L1862.73 223.393 Q1865.81 218.092 1867.32 212.861 Q1868.85 207.606 1868.85 202.259 Q1868.85 196.912 1867.32 191.703 Q1865.81 186.495 1862.73 181.171 Z" fill="#000000" fill-rule="nonzero" fill-opacity="1" /><circle clip-path="url(#clip350)" cx="1497.04" cy="251.703" r="20.48" fill="#e26f46" fill-rule="evenodd" fill-opacity="1" stroke="#000000" stroke-opacity="1" stroke-width="3.41333"/>
<path clip-path="url(#clip350)" d="M1587.64 268.983 L1574.45 234.423 L1579.33 234.423 L1590.28 263.52 L1601.25 234.423 L1606.11 234.423 L1592.94 268.983 L1587.64 268.983 Z" fill="#000000" fill-rule="nonzero" fill-opacity="1" /><path clip-path="url(#clip350)" d="M1607.32 258.751 L1607.32 243.057 L1611.58 243.057 L1611.58 258.589 Q1611.58 262.27 1613.01 264.122 Q1614.45 265.951 1617.32 265.951 Q1620.77 265.951 1622.76 263.751 Q1624.77 261.552 1624.77 257.756 L1624.77 243.057 L1629.03 243.057 L1629.03 268.983 L1624.77 268.983 L1624.77 265.001 Q1623.22 267.363 1621.16 268.52 Q1619.12 269.654 1616.42 269.654 Q1611.95 269.654 1609.63 266.876 Q1607.32 264.099 1607.32 258.751 M1618.04 242.432 L1618.04 242.432 Z" fill="#000000" fill-rule="nonzero" fill-opacity="1" /><path clip-path="url(#clip350)" d="M1654.86 255.719 Q1654.86 251.089 1652.94 248.543 Q1651.05 245.997 1647.6 245.997 Q1644.17 245.997 1642.25 248.543 Q1640.35 251.089 1640.35 255.719 Q1640.35 260.326 1642.25 262.872 Q1644.17 265.418 1647.6 265.418 Q1651.05 265.418 1652.94 262.872 Q1654.86 260.326 1654.86 255.719 M1659.12 265.765 Q1659.12 272.386 1656.18 275.603 Q1653.24 278.844 1647.18 278.844 Q1644.93 278.844 1642.94 278.497 Q1640.95 278.173 1639.08 277.478 L1639.08 273.335 Q1640.95 274.353 1642.78 274.839 Q1644.61 275.325 1646.51 275.325 Q1650.7 275.325 1652.78 273.126 Q1654.86 270.95 1654.86 266.529 L1654.86 264.423 Q1653.55 266.714 1651.49 267.849 Q1649.42 268.983 1646.55 268.983 Q1641.79 268.983 1638.87 265.349 Q1635.95 261.714 1635.95 255.719 Q1635.95 249.701 1638.87 246.066 Q1641.79 242.432 1646.55 242.432 Q1649.42 242.432 1651.49 243.566 Q1653.55 244.701 1654.86 246.992 L1654.86 243.057 L1659.12 243.057 L1659.12 265.765 Z" fill="#000000" fill-rule="nonzero" fill-opacity="1" /><path clip-path="url(#clip350)" d="M1672.11 235.696 L1672.11 243.057 L1680.88 243.057 L1680.88 246.367 L1672.11 246.367 L1672.11 260.441 Q1672.11 263.613 1672.97 264.515 Q1673.85 265.418 1676.51 265.418 L1680.88 265.418 L1680.88 268.983 L1676.51 268.983 Q1671.58 268.983 1669.7 267.154 Q1667.83 265.302 1667.83 260.441 L1667.83 246.367 L1664.7 246.367 L1664.7 243.057 L1667.83 243.057 L1667.83 235.696 L1672.11 235.696 Z" fill="#000000" fill-rule="nonzero" fill-opacity="1" /><path clip-path="url(#clip350)" d="M1703.01 243.821 L1703.01 247.849 Q1701.21 246.923 1699.26 246.46 Q1697.32 245.997 1695.23 245.997 Q1692.06 245.997 1690.47 246.969 Q1688.89 247.941 1688.89 249.886 Q1688.89 251.367 1690.03 252.224 Q1691.16 253.057 1694.59 253.821 L1696.05 254.145 Q1700.58 255.117 1702.48 256.9 Q1704.4 258.659 1704.4 261.83 Q1704.4 265.441 1701.53 267.548 Q1698.68 269.654 1693.68 269.654 Q1691.6 269.654 1689.33 269.238 Q1687.09 268.844 1684.59 268.034 L1684.59 263.636 Q1686.95 264.863 1689.24 265.488 Q1691.53 266.089 1693.78 266.089 Q1696.79 266.089 1698.41 265.071 Q1700.03 264.029 1700.03 262.154 Q1700.03 260.418 1698.85 259.492 Q1697.69 258.566 1693.73 257.71 L1692.25 257.363 Q1688.29 256.529 1686.53 254.816 Q1684.77 253.08 1684.77 250.071 Q1684.77 246.414 1687.36 244.423 Q1689.96 242.432 1694.73 242.432 Q1697.09 242.432 1699.17 242.779 Q1701.25 243.127 1703.01 243.821 Z" fill="#000000" fill-rule="nonzero" fill-opacity="1" /><path clip-path="url(#clip350)" d="M1736.48 233.011 Q1733.38 238.335 1731.88 243.543 Q1730.37 248.752 1730.37 254.099 Q1730.37 259.446 1731.88 264.701 Q1733.41 269.932 1736.48 275.233 L1732.78 275.233 Q1729.31 269.793 1727.57 264.538 Q1725.86 259.284 1725.86 254.099 Q1725.86 248.937 1727.57 243.705 Q1729.29 238.474 1732.78 233.011 L1736.48 233.011 Z" fill="#000000" fill-rule="nonzero" fill-opacity="1" /><path clip-path="url(#clip350)" d="M1746.16 265.048 L1753.8 265.048 L1753.8 238.682 L1745.49 240.349 L1745.49 236.09 L1753.75 234.423 L1758.43 234.423 L1758.43 265.048 L1766.07 265.048 L1766.07 268.983 L1746.16 268.983 L1746.16 265.048 Z" fill="#000000" fill-rule="nonzero" fill-opacity="1" /><path clip-path="url(#clip350)" d="M1775.65 268.265 L1775.65 264.006 Q1777.41 264.839 1779.22 265.279 Q1781.02 265.719 1782.76 265.719 Q1787.39 265.719 1789.82 262.617 Q1792.27 259.492 1792.62 253.15 Q1791.28 255.14 1789.22 256.205 Q1787.16 257.27 1784.66 257.27 Q1779.47 257.27 1776.44 254.145 Q1773.43 250.997 1773.43 245.557 Q1773.43 240.233 1776.58 237.015 Q1779.73 233.798 1784.96 233.798 Q1790.95 233.798 1794.1 238.404 Q1797.27 242.988 1797.27 251.738 Q1797.27 259.909 1793.38 264.793 Q1789.52 269.654 1782.97 269.654 Q1781.21 269.654 1779.4 269.307 Q1777.6 268.96 1775.65 268.265 M1784.96 253.613 Q1788.1 253.613 1789.93 251.46 Q1791.79 249.307 1791.79 245.557 Q1791.79 241.83 1789.93 239.678 Q1788.1 237.502 1784.96 237.502 Q1781.81 237.502 1779.96 239.678 Q1778.13 241.83 1778.13 245.557 Q1778.13 249.307 1779.96 251.46 Q1781.81 253.613 1784.96 253.613 Z" fill="#000000" fill-rule="nonzero" fill-opacity="1" /><path clip-path="url(#clip350)" d="M1816.25 249.84 Q1813.1 249.84 1811.25 251.992 Q1809.42 254.145 1809.42 257.895 Q1809.42 261.622 1811.25 263.798 Q1813.1 265.951 1816.25 265.951 Q1819.4 265.951 1821.23 263.798 Q1823.08 261.622 1823.08 257.895 Q1823.08 254.145 1821.23 251.992 Q1819.4 249.84 1816.25 249.84 M1825.54 235.187 L1825.54 239.446 Q1823.78 238.613 1821.97 238.173 Q1820.19 237.733 1818.43 237.733 Q1813.8 237.733 1811.35 240.858 Q1808.91 243.983 1808.57 250.302 Q1809.93 248.289 1811.99 247.224 Q1814.05 246.136 1816.53 246.136 Q1821.74 246.136 1824.75 249.307 Q1827.78 252.455 1827.78 257.895 Q1827.78 263.219 1824.63 266.437 Q1821.48 269.654 1816.25 269.654 Q1810.26 269.654 1807.09 265.071 Q1803.91 260.464 1803.91 251.738 Q1803.91 243.543 1807.8 238.682 Q1811.69 233.798 1818.24 233.798 Q1820 233.798 1821.79 234.145 Q1823.59 234.492 1825.54 235.187 Z" fill="#000000" fill-rule="nonzero" fill-opacity="1" /><path clip-path="url(#clip350)" d="M1845.84 252.571 Q1842.5 252.571 1840.58 254.353 Q1838.68 256.136 1838.68 259.261 Q1838.68 262.386 1840.58 264.168 Q1842.5 265.951 1845.84 265.951 Q1849.17 265.951 1851.09 264.168 Q1853.01 262.363 1853.01 259.261 Q1853.01 256.136 1851.09 254.353 Q1849.19 252.571 1845.84 252.571 M1841.16 250.58 Q1838.15 249.84 1836.46 247.779 Q1834.79 245.719 1834.79 242.756 Q1834.79 238.613 1837.73 236.205 Q1840.7 233.798 1845.84 233.798 Q1851 233.798 1853.94 236.205 Q1856.88 238.613 1856.88 242.756 Q1856.88 245.719 1855.19 247.779 Q1853.52 249.84 1850.53 250.58 Q1853.91 251.367 1855.79 253.659 Q1857.69 255.951 1857.69 259.261 Q1857.69 264.284 1854.61 266.969 Q1851.55 269.654 1845.84 269.654 Q1840.12 269.654 1837.04 266.969 Q1833.98 264.284 1833.98 259.261 Q1833.98 255.951 1835.88 253.659 Q1837.78 251.367 1841.16 250.58 M1839.45 243.196 Q1839.45 245.881 1841.11 247.386 Q1842.8 248.89 1845.84 248.89 Q1848.85 248.89 1850.53 247.386 Q1852.25 245.881 1852.25 243.196 Q1852.25 240.511 1850.53 239.006 Q1848.85 237.502 1845.84 237.502 Q1842.8 237.502 1841.11 239.006 Q1839.45 240.511 1839.45 243.196 Z" fill="#000000" fill-rule="nonzero" fill-opacity="1" /><path clip-path="url(#clip350)" d="M1864.72 233.011 L1868.43 233.011 Q1871.9 238.474 1873.61 243.705 Q1875.35 248.937 1875.35 254.099 Q1875.35 259.284 1873.61 264.538 Q1871.9 269.793 1868.43 275.233 L1864.72 275.233 Q1867.8 269.932 1869.31 264.701 Q1870.84 259.446 1870.84 254.099 Q1870.84 248.752 1869.31 243.543 Q1867.8 238.335 1864.72 233.011 Z" fill="#000000" fill-rule="nonzero" fill-opacity="1" /></svg>
