<?xml version="1.0" encoding="utf-8"?>
<svg xmlns="http://www.w3.org/2000/svg" xmlns:xlink="http://www.w3.org/1999/xlink" width="500" height="300" viewBox="0 0 2000 1200">
<defs>
  <clipPath id="clip610">
    <rect x="0" y="0" width="2000" height="1200"/>
  </clipPath>
</defs>
<path clip-path="url(#clip610)" d="M0 1200 L2000 1200 L2000 0 L0 0  Z" fill="#ffffff" fill-rule="evenodd" fill-opacity="1"/>
<defs>
  <clipPath id="clip611">
    <rect x="400" y="0" width="1401" height="1200"/>
  </clipPath>
</defs>
<path clip-path="url(#clip610)" d="M152.598 1035.39 L1952.76 1035.39 L1952.76 117.424 L152.598 117.424  Z" fill="#ffffff" fill-rule="evenodd" fill-opacity="1"/>
<defs>
  <clipPath id="clip612">
    <rect x="152" y="117" width="1801" height="919"/>
  </clipPath>
</defs>
<polyline clip-path="url(#clip612)" style="stroke:#000000; stroke-linecap:round; stroke-linejoin:round; stroke-width:2; stroke-opacity:0.1; fill:none" points="533.545,1035.39 533.545,117.424 "/>
<polyline clip-path="url(#clip612)" style="stroke:#000000; stroke-linecap:round; stroke-linejoin:round; stroke-width:2; stroke-opacity:0.1; fill:none" points="989.633,1035.39 989.633,117.424 "/>
<polyline clip-path="url(#clip612)" style="stroke:#000000; stroke-linecap:round; stroke-linejoin:round; stroke-width:2; stroke-opacity:0.1; fill:none" points="1445.72,1035.39 1445.72,117.424 "/>
<polyline clip-path="url(#clip612)" style="stroke:#000000; stroke-linecap:round; stroke-linejoin:round; stroke-width:2; stroke-opacity:0.1; fill:none" points="1901.81,1035.39 1901.81,117.424 "/>
<polyline clip-path="url(#clip612)" style="stroke:#000000; stroke-linecap:round; stroke-linejoin:round; stroke-width:2; stroke-opacity:0.1; fill:none" points="152.598,856.656 1952.76,856.656 "/>
<polyline clip-path="url(#clip612)" style="stroke:#000000; stroke-linecap:round; stroke-linejoin:round; stroke-width:2; stroke-opacity:0.1; fill:none" points="152.598,645.398 1952.76,645.398 "/>
<polyline clip-path="url(#clip612)" style="stroke:#000000; stroke-linecap:round; stroke-linejoin:round; stroke-width:2; stroke-opacity:0.1; fill:none" points="152.598,434.139 1952.76,434.139 "/>
<polyline clip-path="url(#clip612)" style="stroke:#000000; stroke-linecap:round; stroke-linejoin:round; stroke-width:2; stroke-opacity:0.1; fill:none" points="152.598,222.881 1952.76,222.881 "/>
<polyline clip-path="url(#clip610)" style="stroke:#000000; stroke-linecap:round; stroke-linejoin:round; stroke-width:4; stroke-opacity:1; fill:none" points="152.598,1035.39 1952.76,1035.39 "/>
<polyline clip-path="url(#clip610)" style="stroke:#000000; stroke-linecap:round; stroke-linejoin:round; stroke-width:4; stroke-opacity:1; fill:none" points="533.545,1035.39 533.545,1016.49 "/>
<polyline clip-path="url(#clip610)" style="stroke:#000000; stroke-linecap:round; stroke-linejoin:round; stroke-width:4; stroke-opacity:1; fill:none" points="989.633,1035.39 989.633,1016.49 "/>
<polyline clip-path="url(#clip610)" style="stroke:#000000; stroke-linecap:round; stroke-linejoin:round; stroke-width:4; stroke-opacity:1; fill:none" points="1445.72,1035.39 1445.72,1016.49 "/>
<polyline clip-path="url(#clip610)" style="stroke:#000000; stroke-linecap:round; stroke-linejoin:round; stroke-width:4; stroke-opacity:1; fill:none" points="1901.81,1035.39 1901.81,1016.49 "/>
<path clip-path="url(#clip610)" d="M511.427 1063.11 Q507.816 1063.11 505.987 1066.67 Q504.182 1070.21 504.182 1077.34 Q504.182 1084.45 505.987 1088.01 Q507.816 1091.56 511.427 1091.56 Q515.061 1091.56 516.867 1088.01 Q518.696 1084.45 518.696 1077.34 Q518.696 1070.21 516.867 1066.67 Q515.061 1063.11 511.427 1063.11 M511.427 1059.4 Q517.237 1059.4 520.293 1064.01 Q523.371 1068.59 523.371 1077.34 Q523.371 1086.07 520.293 1090.68 Q517.237 1095.26 511.427 1095.26 Q505.617 1095.26 502.538 1090.68 Q499.483 1086.07 499.483 1077.34 Q499.483 1068.59 502.538 1064.01 Q505.617 1059.4 511.427 1059.4 Z" fill="#000000" fill-rule="nonzero" fill-opacity="1" /><path clip-path="url(#clip610)" d="M531.589 1088.71 L536.473 1088.71 L536.473 1094.59 L531.589 1094.59 L531.589 1088.71 Z" fill="#000000" fill-rule="nonzero" fill-opacity="1" /><path clip-path="url(#clip610)" d="M546.705 1060.03 L565.061 1060.03 L565.061 1063.96 L550.987 1063.96 L550.987 1072.44 Q552.006 1072.09 553.024 1071.93 Q554.043 1071.74 555.061 1071.74 Q560.848 1071.74 564.228 1074.91 Q567.607 1078.08 567.607 1083.5 Q567.607 1089.08 564.135 1092.18 Q560.663 1095.26 554.344 1095.26 Q552.168 1095.26 549.899 1094.89 Q547.654 1094.52 545.246 1093.78 L545.246 1089.08 Q547.33 1090.21 549.552 1090.77 Q551.774 1091.32 554.251 1091.32 Q558.256 1091.32 560.594 1089.22 Q562.931 1087.11 562.931 1083.5 Q562.931 1079.89 560.594 1077.78 Q558.256 1075.68 554.251 1075.68 Q552.376 1075.68 550.501 1076.09 Q548.649 1076.51 546.705 1077.39 L546.705 1060.03 Z" fill="#000000" fill-rule="nonzero" fill-opacity="1" /><path clip-path="url(#clip610)" d="M956.786 1090.65 L964.425 1090.65 L964.425 1064.29 L956.114 1065.95 L956.114 1061.69 L964.378 1060.03 L969.054 1060.03 L969.054 1090.65 L976.693 1090.65 L976.693 1094.59 L956.786 1094.59 L956.786 1090.65 Z" fill="#000000" fill-rule="nonzero" fill-opacity="1" /><path clip-path="url(#clip610)" d="M986.137 1088.71 L991.022 1088.71 L991.022 1094.59 L986.137 1094.59 L986.137 1088.71 Z" fill="#000000" fill-rule="nonzero" fill-opacity="1" /><path clip-path="url(#clip610)" d="M1011.21 1063.11 Q1007.6 1063.11 1005.77 1066.67 Q1003.96 1070.21 1003.96 1077.34 Q1003.96 1084.45 1005.77 1088.01 Q1007.6 1091.56 1011.21 1091.56 Q1014.84 1091.56 1016.65 1088.01 Q1018.48 1084.45 1018.48 1077.34 Q1018.48 1070.21 1016.65 1066.67 Q1014.84 1063.11 1011.21 1063.11 M1011.21 1059.4 Q1017.02 1059.4 1020.07 1064.01 Q1023.15 1068.59 1023.15 1077.34 Q1023.15 1086.07 1020.07 1090.68 Q1017.02 1095.26 1011.21 1095.26 Q1005.4 1095.26 1002.32 1090.68 Q999.262 1086.07 999.262 1077.34 Q999.262 1068.59 1002.32 1064.01 Q1005.4 1059.4 1011.21 1059.4 Z" fill="#000000" fill-rule="nonzero" fill-opacity="1" /><path clip-path="url(#clip610)" d="M1413.37 1090.65 L1421.01 1090.65 L1421.01 1064.29 L1412.7 1065.95 L1412.7 1061.69 L1420.96 1060.03 L1425.64 1060.03 L1425.64 1090.65 L1433.28 1090.65 L1433.28 1094.59 L1413.37 1094.59 L1413.37 1090.65 Z" fill="#000000" fill-rule="nonzero" fill-opacity="1" /><path clip-path="url(#clip610)" d="M1442.72 1088.71 L1447.61 1088.71 L1447.61 1094.59 L1442.72 1094.59 L1442.72 1088.71 Z" fill="#000000" fill-rule="nonzero" fill-opacity="1" /><path clip-path="url(#clip610)" d="M1457.84 1060.03 L1476.19 1060.03 L1476.19 1063.96 L1462.12 1063.96 L1462.12 1072.44 Q1463.14 1072.09 1464.16 1071.93 Q1465.18 1071.74 1466.19 1071.74 Q1471.98 1071.74 1475.36 1074.91 Q1478.74 1078.08 1478.74 1083.5 Q1478.74 1089.08 1475.27 1092.18 Q1471.8 1095.26 1465.48 1095.26 Q1463.3 1095.26 1461.03 1094.89 Q1458.79 1094.52 1456.38 1093.78 L1456.38 1089.08 Q1458.46 1090.21 1460.69 1090.77 Q1462.91 1091.32 1465.38 1091.32 Q1469.39 1091.32 1471.73 1089.22 Q1474.07 1087.11 1474.07 1083.5 Q1474.07 1079.89 1471.73 1077.78 Q1469.39 1075.68 1465.38 1075.68 Q1463.51 1075.68 1461.63 1076.09 Q1459.78 1076.51 1457.84 1077.39 L1457.84 1060.03 Z" fill="#000000" fill-rule="nonzero" fill-opacity="1" /><path clip-path="url(#clip610)" d="M1873.05 1090.65 L1889.37 1090.65 L1889.37 1094.59 L1867.42 1094.59 L1867.42 1090.65 Q1870.08 1087.9 1874.67 1083.27 Q1879.27 1078.62 1880.45 1077.27 Q1882.7 1074.75 1883.58 1073.01 Q1884.48 1071.25 1884.48 1069.56 Q1884.48 1066.81 1882.54 1065.07 Q1880.62 1063.34 1877.51 1063.34 Q1875.32 1063.34 1872.86 1064.1 Q1870.43 1064.87 1867.65 1066.42 L1867.65 1061.69 Q1870.48 1060.56 1872.93 1059.98 Q1875.38 1059.4 1877.42 1059.4 Q1882.79 1059.4 1885.99 1062.09 Q1889.18 1064.77 1889.18 1069.26 Q1889.18 1071.39 1888.37 1073.31 Q1887.58 1075.21 1885.48 1077.81 Q1884.9 1078.48 1881.8 1081.69 Q1878.69 1084.89 1873.05 1090.65 Z" fill="#000000" fill-rule="nonzero" fill-opacity="1" /><path clip-path="url(#clip610)" d="M1899.18 1088.71 L1904.06 1088.71 L1904.06 1094.59 L1899.18 1094.59 L1899.18 1088.71 Z" fill="#000000" fill-rule="nonzero" fill-opacity="1" /><path clip-path="url(#clip610)" d="M1924.25 1063.11 Q1920.64 1063.11 1918.81 1066.67 Q1917 1070.21 1917 1077.34 Q1917 1084.45 1918.81 1088.01 Q1920.64 1091.56 1924.25 1091.56 Q1927.88 1091.56 1929.69 1088.01 Q1931.52 1084.45 1931.52 1077.34 Q1931.52 1070.21 1929.69 1066.67 Q1927.88 1063.11 1924.25 1063.11 M1924.25 1059.4 Q1930.06 1059.4 1933.12 1064.01 Q1936.19 1068.59 1936.19 1077.34 Q1936.19 1086.07 1933.12 1090.68 Q1930.06 1095.26 1924.25 1095.26 Q1918.44 1095.26 1915.36 1090.68 Q1912.31 1086.07 1912.31 1077.34 Q1912.31 1068.59 1915.36 1064.01 Q1918.44 1059.4 1924.25 1059.4 Z" fill="#000000" fill-rule="nonzero" fill-opacity="1" /><path clip-path="url(#clip610)" d="M1042.97 1175.17 Q1029.76 1175.17 1029.76 1156.27 Q1029.76 1148.79 1034.69 1138.6 L1041 1138.6 Q1036.44 1148.79 1036.44 1156.43 Q1036.44 1170.21 1043.51 1170.21 Q1049.97 1170.21 1049.97 1153.09 L1055.38 1153.09 Q1055.38 1170.21 1061.84 1170.21 Q1068.91 1170.21 1068.91 1156.43 Q1068.91 1148.79 1064.36 1138.6 L1070.66 1138.6 Q1075.59 1148.79 1075.59 1156.27 Q1075.59 1175.17 1062.38 1175.17 Q1053.73 1175.17 1052.68 1165.66 Q1051.37 1175.17 1042.97 1175.17 Z" fill="#000000" fill-rule="nonzero" fill-opacity="1" /><polyline clip-path="url(#clip610)" style="stroke:#000000; stroke-linecap:round; stroke-linejoin:round; stroke-width:4; stroke-opacity:1; fill:none" points="152.598,1035.39 152.598,117.424 "/>
<polyline clip-path="url(#clip610)" style="stroke:#000000; stroke-linecap:round; stroke-linejoin:round; stroke-width:4; stroke-opacity:1; fill:none" points="152.598,856.656 171.496,856.656 "/>
<polyline clip-path="url(#clip610)" style="stroke:#000000; stroke-linecap:round; stroke-linejoin:round; stroke-width:4; stroke-opacity:1; fill:none" points="152.598,645.398 171.496,645.398 "/>
<polyline clip-path="url(#clip610)" style="stroke:#000000; stroke-linecap:round; stroke-linejoin:round; stroke-width:4; stroke-opacity:1; fill:none" points="152.598,434.139 171.496,434.139 "/>
<polyline clip-path="url(#clip610)" style="stroke:#000000; stroke-linecap:round; stroke-linejoin:round; stroke-width:4; stroke-opacity:1; fill:none" points="152.598,222.881 171.496,222.881 "/>
<path clip-path="url(#clip610)" d="M67.0198 842.455 Q63.4087 842.455 61.58 846.02 Q59.7745 849.561 59.7745 856.691 Q59.7745 863.797 61.58 867.362 Q63.4087 870.904 67.0198 870.904 Q70.6541 870.904 72.4596 867.362 Q74.2883 863.797 74.2883 856.691 Q74.2883 849.561 72.4596 846.02 Q70.6541 842.455 67.0198 842.455 M67.0198 838.751 Q72.83 838.751 75.8855 843.358 Q78.9642 847.941 78.9642 856.691 Q78.9642 865.418 75.8855 870.024 Q72.83 874.607 67.0198 874.607 Q61.2097 874.607 58.131 870.024 Q55.0754 865.418 55.0754 856.691 Q55.0754 847.941 58.131 843.358 Q61.2097 838.751 67.0198 838.751 Z" fill="#000000" fill-rule="nonzero" fill-opacity="1" /><path clip-path="url(#clip610)" d="M87.1818 868.057 L92.066 868.057 L92.066 873.936 L87.1818 873.936 L87.1818 868.057 Z" fill="#000000" fill-rule="nonzero" fill-opacity="1" /><path clip-path="url(#clip610)" d="M106.279 870.001 L122.598 870.001 L122.598 873.936 L100.654 873.936 L100.654 870.001 Q103.316 867.246 107.899 862.617 Q112.506 857.964 113.686 856.621 Q115.932 854.098 116.811 852.362 Q117.714 850.603 117.714 848.913 Q117.714 846.159 115.77 844.422 Q113.848 842.686 110.746 842.686 Q108.547 842.686 106.094 843.45 Q103.663 844.214 100.885 845.765 L100.885 841.043 Q103.709 839.909 106.163 839.33 Q108.617 838.751 110.654 838.751 Q116.024 838.751 119.219 841.436 Q122.413 844.122 122.413 848.612 Q122.413 850.742 121.603 852.663 Q120.816 854.561 118.709 857.154 Q118.131 857.825 115.029 861.043 Q111.927 864.237 106.279 870.001 Z" fill="#000000" fill-rule="nonzero" fill-opacity="1" /><path clip-path="url(#clip610)" d="M64.9365 631.196 Q61.3254 631.196 59.4967 634.761 Q57.6912 638.303 57.6912 645.433 Q57.6912 652.539 59.4967 656.104 Q61.3254 659.645 64.9365 659.645 Q68.5707 659.645 70.3763 656.104 Q72.205 652.539 72.205 645.433 Q72.205 638.303 70.3763 634.761 Q68.5707 631.196 64.9365 631.196 M64.9365 627.493 Q70.7467 627.493 73.8022 632.099 Q76.8809 636.683 76.8809 645.433 Q76.8809 654.159 73.8022 658.766 Q70.7467 663.349 64.9365 663.349 Q59.1264 663.349 56.0477 658.766 Q52.9921 654.159 52.9921 645.433 Q52.9921 636.683 56.0477 632.099 Q59.1264 627.493 64.9365 627.493 Z" fill="#000000" fill-rule="nonzero" fill-opacity="1" /><path clip-path="url(#clip610)" d="M85.0984 656.798 L89.9827 656.798 L89.9827 662.678 L85.0984 662.678 L85.0984 656.798 Z" fill="#000000" fill-rule="nonzero" fill-opacity="1" /><path clip-path="url(#clip610)" d="M113.015 632.192 L101.209 650.641 L113.015 650.641 L113.015 632.192 M111.788 628.118 L117.668 628.118 L117.668 650.641 L122.598 650.641 L122.598 654.53 L117.668 654.53 L117.668 662.678 L113.015 662.678 L113.015 654.53 L97.4132 654.53 L97.4132 650.016 L111.788 628.118 Z" fill="#000000" fill-rule="nonzero" fill-opacity="1" /><path clip-path="url(#clip610)" d="M65.2606 419.938 Q61.6495 419.938 59.8208 423.503 Q58.0152 427.045 58.0152 434.174 Q58.0152 441.281 59.8208 444.845 Q61.6495 448.387 65.2606 448.387 Q68.8948 448.387 70.7004 444.845 Q72.5291 441.281 72.5291 434.174 Q72.5291 427.045 70.7004 423.503 Q68.8948 419.938 65.2606 419.938 M65.2606 416.234 Q71.0707 416.234 74.1263 420.841 Q77.205 425.424 77.205 434.174 Q77.205 442.901 74.1263 447.507 Q71.0707 452.091 65.2606 452.091 Q59.4504 452.091 56.3717 447.507 Q53.3162 442.901 53.3162 434.174 Q53.3162 425.424 56.3717 420.841 Q59.4504 416.234 65.2606 416.234 Z" fill="#000000" fill-rule="nonzero" fill-opacity="1" /><path clip-path="url(#clip610)" d="M85.4225 445.54 L90.3067 445.54 L90.3067 451.419 L85.4225 451.419 L85.4225 445.54 Z" fill="#000000" fill-rule="nonzero" fill-opacity="1" /><path clip-path="url(#clip610)" d="M111.071 432.276 Q107.922 432.276 106.071 434.429 Q104.242 436.582 104.242 440.331 Q104.242 444.058 106.071 446.234 Q107.922 448.387 111.071 448.387 Q114.219 448.387 116.047 446.234 Q117.899 444.058 117.899 440.331 Q117.899 436.582 116.047 434.429 Q114.219 432.276 111.071 432.276 M120.353 417.623 L120.353 421.883 Q118.594 421.049 116.788 420.609 Q115.006 420.17 113.246 420.17 Q108.617 420.17 106.163 423.295 Q103.733 426.42 103.385 432.739 Q104.751 430.725 106.811 429.66 Q108.871 428.572 111.348 428.572 Q116.557 428.572 119.566 431.744 Q122.598 434.892 122.598 440.331 Q122.598 445.656 119.45 448.873 Q116.302 452.091 111.071 452.091 Q105.075 452.091 101.904 447.507 Q98.7326 442.901 98.7326 434.174 Q98.7326 425.98 102.621 421.119 Q106.51 416.234 113.061 416.234 Q114.82 416.234 116.603 416.582 Q118.408 416.929 120.353 417.623 Z" fill="#000000" fill-rule="nonzero" fill-opacity="1" /><path clip-path="url(#clip610)" d="M65.5152 208.68 Q61.9041 208.68 60.0754 212.244 Q58.2699 215.786 58.2699 222.916 Q58.2699 230.022 60.0754 233.587 Q61.9041 237.129 65.5152 237.129 Q69.1494 237.129 70.955 233.587 Q72.7837 230.022 72.7837 222.916 Q72.7837 215.786 70.955 212.244 Q69.1494 208.68 65.5152 208.68 M65.5152 204.976 Q71.3254 204.976 74.3809 209.582 Q77.4596 214.166 77.4596 222.916 Q77.4596 231.643 74.3809 236.249 Q71.3254 240.832 65.5152 240.832 Q59.7051 240.832 56.6264 236.249 Q53.5708 231.643 53.5708 222.916 Q53.5708 214.166 56.6264 209.582 Q59.7051 204.976 65.5152 204.976 Z" fill="#000000" fill-rule="nonzero" fill-opacity="1" /><path clip-path="url(#clip610)" d="M85.6771 234.281 L90.5614 234.281 L90.5614 240.161 L85.6771 240.161 L85.6771 234.281 Z" fill="#000000" fill-rule="nonzero" fill-opacity="1" /><path clip-path="url(#clip610)" d="M110.746 223.749 Q107.413 223.749 105.492 225.531 Q103.594 227.314 103.594 230.439 Q103.594 233.564 105.492 235.346 Q107.413 237.129 110.746 237.129 Q114.08 237.129 116.001 235.346 Q117.922 233.541 117.922 230.439 Q117.922 227.314 116.001 225.531 Q114.103 223.749 110.746 223.749 M106.071 221.758 Q103.061 221.018 101.371 218.957 Q99.7048 216.897 99.7048 213.934 Q99.7048 209.791 102.645 207.383 Q105.608 204.976 110.746 204.976 Q115.908 204.976 118.848 207.383 Q121.788 209.791 121.788 213.934 Q121.788 216.897 120.098 218.957 Q118.432 221.018 115.445 221.758 Q118.825 222.545 120.7 224.837 Q122.598 227.129 122.598 230.439 Q122.598 235.462 119.52 238.147 Q116.464 240.832 110.746 240.832 Q105.029 240.832 101.95 238.147 Q98.8947 235.462 98.8947 230.439 Q98.8947 227.129 100.793 224.837 Q102.691 222.545 106.071 221.758 M104.358 214.374 Q104.358 217.059 106.024 218.564 Q107.714 220.069 110.746 220.069 Q113.756 220.069 115.445 218.564 Q117.158 217.059 117.158 214.374 Q117.158 211.689 115.445 210.184 Q113.756 208.68 110.746 208.68 Q107.714 208.68 106.024 210.184 Q104.358 211.689 104.358 214.374 Z" fill="#000000" fill-rule="nonzero" fill-opacity="1" /><path clip-path="url(#clip610)" d="M452.758 27.2059 L460.212 27.2059 L469.529 62.6108 L478.806 27.2059 L487.596 27.2059 L496.913 62.6108 L506.19 27.2059 L513.644 27.2059 L501.774 72.576 L492.984 72.576 L483.221 35.3887 L473.418 72.576 L464.628 72.576 L452.758 27.2059 Z" fill="#000000" fill-rule="nonzero" fill-opacity="1" /><path clip-path="url(#clip610)" d="M545.565 49.7694 Q536.531 49.7694 533.047 51.8354 Q529.564 53.9013 529.564 58.8839 Q529.564 62.8538 532.156 65.2034 Q534.789 67.5124 539.286 67.5124 Q545.484 67.5124 549.21 63.1374 Q552.978 58.7219 552.978 51.4303 L552.978 49.7694 L545.565 49.7694 M560.431 46.6907 L560.431 72.576 L552.978 72.576 L552.978 65.6895 Q550.426 69.8214 546.618 71.8063 Q542.81 73.7508 537.301 73.7508 Q530.333 73.7508 526.201 69.8619 Q522.11 65.9325 522.11 59.3701 Q522.11 51.7138 527.214 47.825 Q532.359 43.9361 542.526 43.9361 L552.978 43.9361 L552.978 43.2069 Q552.978 38.0623 549.575 35.2672 Q546.213 32.4315 540.096 32.4315 Q536.207 32.4315 532.521 33.3632 Q528.834 34.295 525.432 36.1584 L525.432 29.2718 Q529.523 27.692 533.371 26.9223 Q537.22 26.1121 540.866 26.1121 Q550.709 26.1121 555.57 31.2163 Q560.431 36.3204 560.431 46.6907 Z" fill="#000000" fill-rule="nonzero" fill-opacity="1" /><path clip-path="url(#clip610)" d="M570.437 27.2059 L578.336 27.2059 L592.515 65.2844 L606.693 27.2059 L614.592 27.2059 L597.578 72.576 L587.451 72.576 L570.437 27.2059 Z" fill="#000000" fill-rule="nonzero" fill-opacity="1" /><path clip-path="url(#clip610)" d="M663.689 48.0275 L663.689 51.6733 L629.418 51.6733 Q629.904 59.3701 634.036 63.421 Q638.209 67.4314 645.622 67.4314 Q649.916 67.4314 653.926 66.3781 Q657.977 65.3249 661.947 63.2184 L661.947 70.267 Q657.937 71.9684 653.724 72.8596 Q649.511 73.7508 645.176 73.7508 Q634.32 73.7508 627.96 67.4314 Q621.641 61.1119 621.641 50.3365 Q621.641 39.1965 627.636 32.6746 Q633.672 26.1121 643.88 26.1121 Q653.035 26.1121 658.342 32.0264 Q663.689 37.9003 663.689 48.0275 M656.235 45.84 Q656.154 39.7232 652.792 36.0774 Q649.47 32.4315 643.961 32.4315 Q637.723 32.4315 633.955 35.9558 Q630.229 39.4801 629.661 45.8805 L656.235 45.84 Z" fill="#000000" fill-rule="nonzero" fill-opacity="1" /><path clip-path="url(#clip610)" d="M689.169 12.096 L696.056 12.096 L674.991 80.2727 L668.104 80.2727 L689.169 12.096 Z" fill="#000000" fill-rule="nonzero" fill-opacity="1" /><path clip-path="url(#clip610)" d="M741.588 45.1919 L741.588 72.576 L734.134 72.576 L734.134 45.4349 Q734.134 38.994 731.623 35.7938 Q729.111 32.5936 724.088 32.5936 Q718.052 32.5936 714.568 36.4419 Q711.085 40.2903 711.085 46.9338 L711.085 72.576 L703.59 72.576 L703.59 9.54393 L711.085 9.54393 L711.085 34.2544 Q713.758 30.163 717.363 28.1376 Q721.009 26.1121 725.749 26.1121 Q733.567 26.1121 737.577 30.9732 Q741.588 35.7938 741.588 45.1919 Z" fill="#000000" fill-rule="nonzero" fill-opacity="1" /><path clip-path="url(#clip610)" d="M795.262 48.0275 L795.262 51.6733 L760.992 51.6733 Q761.478 59.3701 765.61 63.421 Q769.782 67.4314 777.195 67.4314 Q781.489 67.4314 785.5 66.3781 Q789.551 65.3249 793.52 63.2184 L793.52 70.267 Q789.51 71.9684 785.297 72.8596 Q781.084 73.7508 776.75 73.7508 Q765.893 73.7508 759.533 67.4314 Q753.214 61.1119 753.214 50.3365 Q753.214 39.1965 759.209 32.6746 Q765.245 26.1121 775.453 26.1121 Q784.608 26.1121 789.915 32.0264 Q795.262 37.9003 795.262 48.0275 M787.809 45.84 Q787.728 39.7232 784.365 36.0774 Q781.044 32.4315 775.534 32.4315 Q769.296 32.4315 765.529 35.9558 Q761.802 39.4801 761.235 45.8805 L787.809 45.84 Z" fill="#000000" fill-rule="nonzero" fill-opacity="1" /><path clip-path="url(#clip610)" d="M828.115 49.7694 Q819.082 49.7694 815.598 51.8354 Q812.114 53.9013 812.114 58.8839 Q812.114 62.8538 814.707 65.2034 Q817.34 67.5124 821.836 67.5124 Q828.034 67.5124 831.761 63.1374 Q835.528 58.7219 835.528 51.4303 L835.528 49.7694 L828.115 49.7694 M842.982 46.6907 L842.982 72.576 L835.528 72.576 L835.528 65.6895 Q832.976 69.8214 829.168 71.8063 Q825.361 73.7508 819.851 73.7508 Q812.884 73.7508 808.752 69.8619 Q804.66 65.9325 804.66 59.3701 Q804.66 51.7138 809.765 47.825 Q814.909 43.9361 825.077 43.9361 L835.528 43.9361 L835.528 43.2069 Q835.528 38.0623 832.126 35.2672 Q828.763 32.4315 822.646 32.4315 Q818.758 32.4315 815.071 33.3632 Q811.385 34.295 807.982 36.1584 L807.982 29.2718 Q812.074 27.692 815.922 26.9223 Q819.77 26.1121 823.416 26.1121 Q833.26 26.1121 838.121 31.2163 Q842.982 36.3204 842.982 46.6907 Z" fill="#000000" fill-rule="nonzero" fill-opacity="1" /><path clip-path="url(#clip610)" d="M852.988 27.2059 L860.887 27.2059 L875.065 65.2844 L889.243 27.2059 L897.143 27.2059 L880.129 72.576 L870.002 72.576 L852.988 27.2059 Z" fill="#000000" fill-rule="nonzero" fill-opacity="1" /><path clip-path="url(#clip610)" d="M946.24 48.0275 L946.24 51.6733 L911.969 51.6733 Q912.455 59.3701 916.587 63.421 Q920.759 67.4314 928.173 67.4314 Q932.466 67.4314 936.477 66.3781 Q940.528 65.3249 944.498 63.2184 L944.498 70.267 Q940.487 71.9684 936.274 72.8596 Q932.061 73.7508 927.727 73.7508 Q916.871 73.7508 910.511 67.4314 Q904.191 61.1119 904.191 50.3365 Q904.191 39.1965 910.187 32.6746 Q916.222 26.1121 926.431 26.1121 Q935.586 26.1121 940.892 32.0264 Q946.24 37.9003 946.24 48.0275 M938.786 45.84 Q938.705 39.7232 935.343 36.0774 Q932.021 32.4315 926.512 32.4315 Q920.273 32.4315 916.506 35.9558 Q912.779 39.4801 912.212 45.8805 L938.786 45.84 Z" fill="#000000" fill-rule="nonzero" fill-opacity="1" /><path clip-path="url(#clip610)" d="M1005.46 49.7694 Q996.43 49.7694 992.946 51.8354 Q989.463 53.9013 989.463 58.8839 Q989.463 62.8538 992.055 65.2034 Q994.688 67.5124 999.185 67.5124 Q1005.38 67.5124 1009.11 63.1374 Q1012.88 58.7219 1012.88 51.4303 L1012.88 49.7694 L1005.46 49.7694 M1020.33 46.6907 L1020.33 72.576 L1012.88 72.576 L1012.88 65.6895 Q1010.32 69.8214 1006.52 71.8063 Q1002.71 73.7508 997.2 73.7508 Q990.232 73.7508 986.1 69.8619 Q982.009 65.9325 982.009 59.3701 Q982.009 51.7138 987.113 47.825 Q992.258 43.9361 1002.43 43.9361 L1012.88 43.9361 L1012.88 43.2069 Q1012.88 38.0623 1009.47 35.2672 Q1006.11 32.4315 999.995 32.4315 Q996.106 32.4315 992.42 33.3632 Q988.734 34.295 985.331 36.1584 L985.331 29.2718 Q989.422 27.692 993.271 26.9223 Q997.119 26.1121 1000.76 26.1121 Q1010.61 26.1121 1015.47 31.2163 Q1020.33 36.3204 1020.33 46.6907 Z" fill="#000000" fill-rule="nonzero" fill-opacity="1" /><path clip-path="url(#clip610)" d="M1071.01 35.9153 Q1073.8 30.8922 1077.69 28.5022 Q1081.58 26.1121 1086.85 26.1121 Q1093.94 26.1121 1097.78 31.0947 Q1101.63 36.0368 1101.63 45.1919 L1101.63 72.576 L1094.14 72.576 L1094.14 45.4349 Q1094.14 38.913 1091.83 35.7533 Q1089.52 32.5936 1084.78 32.5936 Q1078.99 32.5936 1075.63 36.4419 Q1072.26 40.2903 1072.26 46.9338 L1072.26 72.576 L1064.77 72.576 L1064.77 45.4349 Q1064.77 38.8725 1062.46 35.7533 Q1060.15 32.5936 1055.33 32.5936 Q1049.62 32.5936 1046.26 36.4824 Q1042.89 40.3308 1042.89 46.9338 L1042.89 72.576 L1035.4 72.576 L1035.4 27.2059 L1042.89 27.2059 L1042.89 34.2544 Q1045.45 30.082 1049.01 28.0971 Q1052.58 26.1121 1057.48 26.1121 Q1062.42 26.1121 1065.86 28.6237 Q1069.35 31.1352 1071.01 35.9153 Z" fill="#000000" fill-rule="nonzero" fill-opacity="1" /><path clip-path="url(#clip610)" d="M1123.71 65.7705 L1123.71 89.8329 L1116.22 89.8329 L1116.22 27.2059 L1123.71 27.2059 L1123.71 34.0924 Q1126.06 30.0415 1129.62 28.0971 Q1133.23 26.1121 1138.21 26.1121 Q1146.48 26.1121 1151.62 32.6746 Q1156.81 39.2371 1156.81 49.9314 Q1156.81 60.6258 1151.62 67.1883 Q1146.48 73.7508 1138.21 73.7508 Q1133.23 73.7508 1129.62 71.8063 Q1126.06 69.8214 1123.71 65.7705 M1149.07 49.9314 Q1149.07 41.7081 1145.67 37.0496 Q1142.3 32.3505 1136.39 32.3505 Q1130.47 32.3505 1127.07 37.0496 Q1123.71 41.7081 1123.71 49.9314 Q1123.71 58.1548 1127.07 62.8538 Q1130.47 67.5124 1136.39 67.5124 Q1142.3 67.5124 1145.67 62.8538 Q1149.07 58.1548 1149.07 49.9314 Z" fill="#000000" fill-rule="nonzero" fill-opacity="1" /><path clip-path="url(#clip610)" d="M1169.16 9.54393 L1176.61 9.54393 L1176.61 72.576 L1169.16 72.576 L1169.16 9.54393 Z" fill="#000000" fill-rule="nonzero" fill-opacity="1" /><path clip-path="url(#clip610)" d="M1192.21 27.2059 L1199.66 27.2059 L1199.66 72.576 L1192.21 72.576 L1192.21 27.2059 M1192.21 9.54393 L1199.66 9.54393 L1199.66 18.9825 L1192.21 18.9825 L1192.21 9.54393 Z" fill="#000000" fill-rule="nonzero" fill-opacity="1" /><path clip-path="url(#clip610)" d="M1222.63 14.324 L1222.63 27.2059 L1237.99 27.2059 L1237.99 32.9987 L1222.63 32.9987 L1222.63 57.6282 Q1222.63 63.1779 1224.13 64.7578 Q1225.67 66.3376 1230.33 66.3376 L1237.99 66.3376 L1237.99 72.576 L1230.33 72.576 Q1221.7 72.576 1218.42 69.3758 Q1215.14 66.1351 1215.14 57.6282 L1215.14 32.9987 L1209.67 32.9987 L1209.67 27.2059 L1215.14 27.2059 L1215.14 14.324 L1222.63 14.324 Z" fill="#000000" fill-rule="nonzero" fill-opacity="1" /><path clip-path="url(#clip610)" d="M1247.02 54.671 L1247.02 27.2059 L1254.47 27.2059 L1254.47 54.3874 Q1254.47 60.8284 1256.98 64.0691 Q1259.5 67.2693 1264.52 67.2693 Q1270.55 67.2693 1274.04 63.421 Q1277.56 59.5726 1277.56 52.9291 L1277.56 27.2059 L1285.02 27.2059 L1285.02 72.576 L1277.56 72.576 L1277.56 65.6084 Q1274.85 69.7404 1271.24 71.7658 Q1267.68 73.7508 1262.94 73.7508 Q1255.12 73.7508 1251.07 68.8897 Q1247.02 64.0286 1247.02 54.671 M1265.77 26.1121 L1265.77 26.1121 Z" fill="#000000" fill-rule="nonzero" fill-opacity="1" /><path clip-path="url(#clip610)" d="M1330.22 34.0924 L1330.22 9.54393 L1337.68 9.54393 L1337.68 72.576 L1330.22 72.576 L1330.22 65.7705 Q1327.88 69.8214 1324.27 71.8063 Q1320.71 73.7508 1315.68 73.7508 Q1307.46 73.7508 1302.27 67.1883 Q1297.13 60.6258 1297.13 49.9314 Q1297.13 39.2371 1302.27 32.6746 Q1307.46 26.1121 1315.68 26.1121 Q1320.71 26.1121 1324.27 28.0971 Q1327.88 30.0415 1330.22 34.0924 M1304.83 49.9314 Q1304.83 58.1548 1308.19 62.8538 Q1311.59 67.5124 1317.5 67.5124 Q1323.42 67.5124 1326.82 62.8538 Q1330.22 58.1548 1330.22 49.9314 Q1330.22 41.7081 1326.82 37.0496 Q1323.42 32.3505 1317.5 32.3505 Q1311.59 32.3505 1308.19 37.0496 Q1304.83 41.7081 1304.83 49.9314 Z" fill="#000000" fill-rule="nonzero" fill-opacity="1" /><path clip-path="url(#clip610)" d="M1391.84 48.0275 L1391.84 51.6733 L1357.57 51.6733 Q1358.05 59.3701 1362.19 63.421 Q1366.36 67.4314 1373.77 67.4314 Q1378.07 67.4314 1382.08 66.3781 Q1386.13 65.3249 1390.1 63.2184 L1390.1 70.267 Q1386.09 71.9684 1381.87 72.8596 Q1377.66 73.7508 1373.33 73.7508 Q1362.47 73.7508 1356.11 67.4314 Q1349.79 61.1119 1349.79 50.3365 Q1349.79 39.1965 1355.79 32.6746 Q1361.82 26.1121 1372.03 26.1121 Q1381.19 26.1121 1386.49 32.0264 Q1391.84 37.9003 1391.84 48.0275 M1384.39 45.84 Q1384.3 39.7232 1380.94 36.0774 Q1377.62 32.4315 1372.11 32.4315 Q1365.87 32.4315 1362.11 35.9558 Q1358.38 39.4801 1357.81 45.8805 L1384.39 45.84 Z" fill="#000000" fill-rule="nonzero" fill-opacity="1" /><path clip-path="url(#clip610)" d="M1433 28.5427 L1433 35.5912 Q1429.84 33.9709 1426.43 33.1607 Q1423.03 32.3505 1419.39 32.3505 Q1413.84 32.3505 1411.04 34.0519 Q1408.29 35.7533 1408.29 39.156 Q1408.29 41.7486 1410.27 43.2475 Q1412.26 44.7058 1418.25 46.0426 L1420.8 46.6097 Q1428.74 48.3111 1432.06 51.4303 Q1435.43 54.509 1435.43 60.0587 Q1435.43 66.3781 1430.4 70.0644 Q1425.42 73.7508 1416.67 73.7508 Q1413.03 73.7508 1409.06 73.0216 Q1405.13 72.3329 1400.75 70.9151 L1400.75 63.2184 Q1404.88 65.3654 1408.89 66.4591 Q1412.9 67.5124 1416.83 67.5124 Q1422.1 67.5124 1424.93 65.73 Q1427.77 63.9071 1427.77 60.6258 Q1427.77 57.5877 1425.7 55.9673 Q1423.68 54.3469 1416.75 52.8481 L1414.16 52.2405 Q1407.23 50.7821 1404.15 47.7845 Q1401.08 44.7463 1401.08 39.4801 Q1401.08 33.0797 1405.61 29.5959 Q1410.15 26.1121 1418.49 26.1121 Q1422.63 26.1121 1426.27 26.7198 Q1429.92 27.3274 1433 28.5427 Z" fill="#000000" fill-rule="nonzero" fill-opacity="1" /><path clip-path="url(#clip610)" d="M1499.96 34.1734 Q1498.7 33.4443 1497.2 33.1202 Q1495.74 32.7556 1493.96 32.7556 Q1487.64 32.7556 1484.24 36.8875 Q1480.88 40.9789 1480.88 48.6757 L1480.88 72.576 L1473.38 72.576 L1473.38 27.2059 L1480.88 27.2059 L1480.88 34.2544 Q1483.23 30.1225 1486.99 28.1376 Q1490.76 26.1121 1496.15 26.1121 Q1496.92 26.1121 1497.85 26.2337 Q1498.78 26.3147 1499.92 26.5172 L1499.96 34.1734 Z" fill="#000000" fill-rule="nonzero" fill-opacity="1" /><path clip-path="url(#clip610)" d="M1528.4 49.7694 Q1519.36 49.7694 1515.88 51.8354 Q1512.39 53.9013 1512.39 58.8839 Q1512.39 62.8538 1514.99 65.2034 Q1517.62 67.5124 1522.12 67.5124 Q1528.31 67.5124 1532.04 63.1374 Q1535.81 58.7219 1535.81 51.4303 L1535.81 49.7694 L1528.4 49.7694 M1543.26 46.6907 L1543.26 72.576 L1535.81 72.576 L1535.81 65.6895 Q1533.26 69.8214 1529.45 71.8063 Q1525.64 73.7508 1520.13 73.7508 Q1513.16 73.7508 1509.03 69.8619 Q1504.94 65.9325 1504.94 59.3701 Q1504.94 51.7138 1510.04 47.825 Q1515.19 43.9361 1525.36 43.9361 L1535.81 43.9361 L1535.81 43.2069 Q1535.81 38.0623 1532.41 35.2672 Q1529.04 32.4315 1522.93 32.4315 Q1519.04 32.4315 1515.35 33.3632 Q1511.66 34.295 1508.26 36.1584 L1508.26 29.2718 Q1512.35 27.692 1516.2 26.9223 Q1520.05 26.1121 1523.7 26.1121 Q1533.54 26.1121 1538.4 31.2163 Q1543.26 36.3204 1543.26 46.6907 Z" fill="#000000" fill-rule="nonzero" fill-opacity="1" /><path clip-path="url(#clip610)" d="M1565.99 14.324 L1565.99 27.2059 L1581.34 27.2059 L1581.34 32.9987 L1565.99 32.9987 L1565.99 57.6282 Q1565.99 63.1779 1567.49 64.7578 Q1569.03 66.3376 1573.68 66.3376 L1581.34 66.3376 L1581.34 72.576 L1573.68 72.576 Q1565.06 72.576 1561.77 69.3758 Q1558.49 66.1351 1558.49 57.6282 L1558.49 32.9987 L1553.02 32.9987 L1553.02 27.2059 L1558.49 27.2059 L1558.49 14.324 L1565.99 14.324 Z" fill="#000000" fill-rule="nonzero" fill-opacity="1" /><path clip-path="url(#clip610)" d="M1591.14 27.2059 L1598.6 27.2059 L1598.6 72.576 L1591.14 72.576 L1591.14 27.2059 M1591.14 9.54393 L1598.6 9.54393 L1598.6 18.9825 L1591.14 18.9825 L1591.14 9.54393 Z" fill="#000000" fill-rule="nonzero" fill-opacity="1" /><path clip-path="url(#clip610)" d="M1631.77 32.4315 Q1625.78 32.4315 1622.29 37.1306 Q1618.81 41.7891 1618.81 49.9314 Q1618.81 58.0738 1622.25 62.7728 Q1625.74 67.4314 1631.77 67.4314 Q1637.73 67.4314 1641.21 62.7323 Q1644.7 58.0333 1644.7 49.9314 Q1644.7 41.8701 1641.21 37.1711 Q1637.73 32.4315 1631.77 32.4315 M1631.77 26.1121 Q1641.5 26.1121 1647.05 32.4315 Q1652.6 38.7509 1652.6 49.9314 Q1652.6 61.0714 1647.05 67.4314 Q1641.5 73.7508 1631.77 73.7508 Q1622.01 73.7508 1616.46 67.4314 Q1610.95 61.0714 1610.95 49.9314 Q1610.95 38.7509 1616.46 32.4315 Q1622.01 26.1121 1631.77 26.1121 Z" fill="#000000" fill-rule="nonzero" fill-opacity="1" /><polyline clip-path="url(#clip612)" style="stroke:#009af9; stroke-linecap:round; stroke-linejoin:round; stroke-width:4; stroke-opacity:1; fill:none" points="235.451,1009.41 259.892,991.394 281.426,973.946 300.894,957.005 318.796,940.527 335.46,924.474 351.11,908.816 365.913,893.529 379.992,878.592 393.444,863.985 406.347,849.692 418.762,835.699 430.741,821.994 442.328,808.564 453.557,795.399 464.461,782.49 475.065,769.828 485.395,757.406 495.469,745.216 505.306,733.251 514.921,721.505 524.33,709.972 533.545,698.646 542.577,687.524 551.438,676.599 560.135,665.867 568.679,655.324 577.076,644.965 585.335,634.787 593.462,624.787 601.462,614.959 609.342,605.302 617.108,595.811 624.763,586.484 632.312,577.318 639.76,568.309 647.111,559.455 654.368,550.754 661.535,542.201 668.615,533.796 675.611,525.535 682.526,517.416 689.363,509.437 696.125,501.595 702.813,493.889 709.431,486.315 715.98,478.872 722.463,471.559 728.881,464.372 735.236,457.309 741.531,450.37 747.767,443.552 753.945,436.853 760.067,430.271 766.135,423.805 772.149,417.453 778.113,411.213 784.025,405.083 789.889,399.062 795.705,393.149 801.474,387.34 807.198,381.636 812.877,376.034 818.512,370.534 824.105,365.132 829.656,359.829 835.167,354.622 840.638,349.51 846.07,344.492 851.464,339.567 856.82,334.732 862.14,329.987 867.424,325.33 872.673,320.76 877.888,316.276 883.069,311.877 888.217,307.56 893.332,303.326 898.415,299.172 903.467,295.098 908.489,291.103 913.48,287.185 918.441,283.343 923.374,279.576 928.278,275.883 933.154,272.262 938.002,268.714 942.823,265.236 947.617,261.828 952.385,258.488 957.127,255.216 961.844,252.011 966.536,248.871 971.203,245.796 975.846,242.785 980.465,239.836 985.06,236.949 989.633,234.123 994.182,231.357 998.709,228.651 1003.21,226.002 1007.7,223.41 1012.16,220.876 1016.6,218.396 1021.02,215.972 1025.42,213.601 1029.8,211.284 1034.15,209.019 1038.49,206.806 1042.81,204.643 1047.11,202.531 1051.39,200.468 1055.66,198.453 1059.9,196.486 1064.13,194.567 1068.33,192.693 1072.52,190.866 1076.7,189.083 1080.85,187.345 1084.99,185.65 1089.11,183.999 1093.21,182.389 1097.3,180.822 1101.37,179.295 1105.43,177.809 1109.47,176.363 1113.49,174.956 1117.5,173.587 1121.49,172.257 1125.47,170.964 1129.43,169.708 1133.38,168.488 1137.31,167.304 1141.23,166.155 1145.13,165.041 1149.02,163.961 1152.9,162.915 1156.76,161.901 1160.61,160.921 1164.44,159.972 1168.26,159.055 1172.07,158.169 1175.86,157.314 1179.64,156.489 1183.41,155.694 1187.17,154.927 1190.91,154.19 1194.64,153.481 1198.36,152.8 1202.06,152.146 1205.76,151.52 1209.44,150.92 1213.11,150.346 1216.76,149.798 1220.41,149.275 1224.04,148.778 1227.67,148.305 1231.28,147.856 1234.88,147.431 1238.47,147.03 1242.04,146.651 1245.61,146.296 1249.17,145.963 1252.71,145.651 1256.25,145.362 1259.77,145.094 1263.29,144.847 1266.79,144.621 1270.28,144.415 1273.76,144.229 1277.24,144.062 1280.7,143.916 1284.15,143.788 1287.59,143.679 1291.03,143.589 1294.45,143.517 1297.86,143.462 1301.27,143.426 1304.66,143.406 1308.05,143.404 1311.43,143.419 1314.79,143.45 1318.15,143.497 1321.5,143.561 1324.84,143.64 1328.17,143.735 1331.49,143.845 1334.8,143.97 1338.11,144.109 1341.4,144.264 1344.69,144.432 1347.97,144.615 1351.24,144.811 1354.5,145.021 1357.76,145.245 1361,145.481 1364.24,145.731 1367.47,145.993 1370.69,146.268 1373.9,146.555 1377.11,146.854 1380.3,147.165 1383.49,147.488 1386.68,147.822 1389.85,148.168 1393.02,148.525 1396.17,148.893 1399.33,149.271 1402.47,149.66 1405.6,150.06 1408.73,150.47 1411.85,150.89 1414.97,151.32 1418.08,151.759 1421.18,152.208 1424.27,152.667 1427.35,153.135 1430.43,153.612 1433.5,154.097 1436.57,154.592 1439.63,155.095 1442.68,155.607 1445.72,156.127 1448.76,156.655 1451.79,157.191 1454.81,157.736 1457.83,158.288 1460.84,158.847 1463.84,159.414 1466.84,159.989 1469.83,160.571 1472.82,161.159 1475.8,161.755 1478.77,162.358 1481.73,162.967 1484.69,163.583 1487.65,164.206 1490.59,164.835 1493.53,165.47 1496.47,166.111 1499.4,166.758 1502.32,167.411 1505.24,168.07 1508.15,168.735 1511.05,169.406 1513.95,170.081 1516.85,170.763 1519.73,171.449 1522.61,172.141 1525.49,172.838 1528.36,173.539 1531.23,174.246 1534.08,174.958 1536.94,175.674 1539.79,176.395 1542.63,177.12 1545.46,177.85 1548.3,178.584 1551.12,179.322 1553.94,180.065 1556.76,180.811 1559.57,181.562 1562.37,182.317 1565.17,183.075 1567.96,183.837 1570.75,184.603 1573.54,185.373 1576.31,186.146 1579.09,186.922 1581.86,187.702 1584.62,188.485 1587.38,189.272 1590.13,190.061 1592.88,190.854 1595.62,191.65 1598.36,192.449 1601.09,193.25 1603.82,194.055 1606.54,194.862 1609.26,195.672 1611.97,196.484 1614.68,197.3 1617.39,198.117 1620.09,198.937 1622.78,199.76 1625.47,200.585 1628.16,201.412 1630.84,202.241 1633.51,203.073 1636.18,203.907 1638.85,204.742 1641.51,205.58 1644.17,206.42 1646.82,207.262 1649.47,208.105 1652.12,208.95 1654.76,209.797 1657.39,210.646 1660.02,211.497 1662.65,212.349 1665.27,213.202 1667.89,214.057 1670.5,214.914 1673.11,215.772 1675.72,216.631 1678.32,217.492 1680.92,218.354 1683.51,219.217 1686.1,220.081 1688.68,220.947 1691.26,221.814 1693.84,222.681 1696.41,223.55 1698.98,224.42 1701.54,225.291 1704.1,226.163 1706.65,227.035 1709.21,227.909 1711.75,228.783 1714.3,229.658 1716.84,230.534 1719.37,231.411 1721.9,232.288 1724.43,233.166 1726.96,234.045 1729.48,234.924 1731.99,235.804 1734.51,236.684 1737.01,237.565 1739.52,238.446 1742.02,239.327 1744.52,240.209 1747.01,241.092 1749.5,241.974 1751.99,242.857 1754.47,243.741 1756.95,244.624 1759.43,245.508 1761.9,246.392 1764.37,247.276 1766.83,248.16 1769.29,249.045 1771.75,249.929 1774.2,250.814 1776.65,251.699 1779.1,252.583 1781.54,253.468 1783.98,254.353 1786.42,255.237 1788.85,256.122 1791.28,257.006 1793.71,257.891 1796.13,258.775 1798.55,259.659 1800.96,260.543 1803.37,261.427 1805.78,262.31 1808.19,263.193 1810.59,264.076 1812.99,264.959 1815.38,265.841 1817.78,266.724 1820.17,267.605 1822.55,268.487 1824.93,269.368 1827.31,270.248 1829.69,271.129 1832.06,272.009 1834.43,272.888 1836.8,273.767 1839.16,274.645 1841.52,275.523 1843.88,276.401 1846.23,277.278 1848.58,278.154 1850.93,279.03 1853.27,279.905 1855.61,280.78 1857.95,281.654 1860.29,282.528 1862.62,283.401 1864.95,284.273 1867.27,285.145 1869.6,286.016 1871.92,286.886 1874.23,287.756 1876.55,288.624 1878.86,289.493 1881.17,290.36 1883.47,291.227 1885.77,292.093 1888.07,292.958 1890.37,293.822 1892.66,294.686 1894.95,295.549 1897.24,296.411 1899.53,297.272 1901.81,298.133 "/>
<circle clip-path="url(#clip612)" cx="203.546" cy="1005.04" r="14.4" fill="#e26f46" fill-rule="evenodd" fill-opacity="1" stroke="#000000" stroke-opacity="1" stroke-width="2.4"/>
<circle clip-path="url(#clip612)" cx="251.626" cy="1001.55" r="14.4" fill="#e26f46" fill-rule="evenodd" fill-opacity="1" stroke="#000000" stroke-opacity="1" stroke-width="2.4"/>
<circle clip-path="url(#clip612)" cx="272.617" cy="980.589" r="14.4" fill="#e26f46" fill-rule="evenodd" fill-opacity="1" stroke="#000000" stroke-opacity="1" stroke-width="2.4"/>
<circle clip-path="url(#clip612)" cx="308.58" cy="935.179" r="14.4" fill="#e26f46" fill-rule="evenodd" fill-opacity="1" stroke="#000000" stroke-opacity="1" stroke-width="2.4"/>
<circle clip-path="url(#clip612)" cx="365.645" cy="917.714" r="14.4" fill="#e26f46" fill-rule="evenodd" fill-opacity="1" stroke="#000000" stroke-opacity="1" stroke-width="2.4"/>
<circle clip-path="url(#clip612)" cx="413.622" cy="868.812" r="14.4" fill="#e26f46" fill-rule="evenodd" fill-opacity="1" stroke="#000000" stroke-opacity="1" stroke-width="2.4"/>
<circle clip-path="url(#clip612)" cx="437.635" cy="854.84" r="14.4" fill="#e26f46" fill-rule="evenodd" fill-opacity="1" stroke="#000000" stroke-opacity="1" stroke-width="2.4"/>
<circle clip-path="url(#clip612)" cx="470.576" cy="802.444" r="14.4" fill="#e26f46" fill-rule="evenodd" fill-opacity="1" stroke="#000000" stroke-opacity="1" stroke-width="2.4"/>
<circle clip-path="url(#clip612)" cx="533.549" cy="739.57" r="14.4" fill="#e26f46" fill-rule="evenodd" fill-opacity="1" stroke="#000000" stroke-opacity="1" stroke-width="2.4"/>
<circle clip-path="url(#clip612)" cx="590.392" cy="624.3" r="14.4" fill="#e26f46" fill-rule="evenodd" fill-opacity="1" stroke="#000000" stroke-opacity="1" stroke-width="2.4"/>
<circle clip-path="url(#clip612)" cx="647.385" cy="575.397" r="14.4" fill="#e26f46" fill-rule="evenodd" fill-opacity="1" stroke="#000000" stroke-opacity="1" stroke-width="2.4"/>
<circle clip-path="url(#clip612)" cx="641.342" cy="561.425" r="14.4" fill="#e26f46" fill-rule="evenodd" fill-opacity="1" stroke="#000000" stroke-opacity="1" stroke-width="2.4"/>
<circle clip-path="url(#clip612)" cx="701.341" cy="512.523" r="14.4" fill="#e26f46" fill-rule="evenodd" fill-opacity="1" stroke="#000000" stroke-opacity="1" stroke-width="2.4"/>
<circle clip-path="url(#clip612)" cx="755.353" cy="474.1" r="14.4" fill="#e26f46" fill-rule="evenodd" fill-opacity="1" stroke="#000000" stroke-opacity="1" stroke-width="2.4"/>
<circle clip-path="url(#clip612)" cx="809.389" cy="446.155" r="14.4" fill="#e26f46" fill-rule="evenodd" fill-opacity="1" stroke="#000000" stroke-opacity="1" stroke-width="2.4"/>
<circle clip-path="url(#clip612)" cx="869.324" cy="369.309" r="14.4" fill="#e26f46" fill-rule="evenodd" fill-opacity="1" stroke="#000000" stroke-opacity="1" stroke-width="2.4"/>
<circle clip-path="url(#clip612)" cx="926.334" cy="327.392" r="14.4" fill="#e26f46" fill-rule="evenodd" fill-opacity="1" stroke="#000000" stroke-opacity="1" stroke-width="2.4"/>
<circle clip-path="url(#clip612)" cx="983.312" cy="271.504" r="14.4" fill="#e26f46" fill-rule="evenodd" fill-opacity="1" stroke="#000000" stroke-opacity="1" stroke-width="2.4"/>
<circle clip-path="url(#clip612)" cx="995.27" cy="243.56" r="14.4" fill="#e26f46" fill-rule="evenodd" fill-opacity="1" stroke="#000000" stroke-opacity="1" stroke-width="2.4"/>
<circle clip-path="url(#clip612)" cx="1091.32" cy="187.671" r="14.4" fill="#e26f46" fill-rule="evenodd" fill-opacity="1" stroke="#000000" stroke-opacity="1" stroke-width="2.4"/>
<circle clip-path="url(#clip612)" cx="1151.6" cy="264.518" r="14.4" fill="#e26f46" fill-rule="evenodd" fill-opacity="1" stroke="#000000" stroke-opacity="1" stroke-width="2.4"/>
<circle clip-path="url(#clip612)" cx="1211.73" cy="271.504" r="14.4" fill="#e26f46" fill-rule="evenodd" fill-opacity="1" stroke="#000000" stroke-opacity="1" stroke-width="2.4"/>
<circle clip-path="url(#clip612)" cx="1268.72" cy="222.602" r="14.4" fill="#e26f46" fill-rule="evenodd" fill-opacity="1" stroke="#000000" stroke-opacity="1" stroke-width="2.4"/>
<circle clip-path="url(#clip612)" cx="1319.95" cy="278.49" r="14.4" fill="#e26f46" fill-rule="evenodd" fill-opacity="1" stroke="#000000" stroke-opacity="1" stroke-width="2.4"/>
<circle clip-path="url(#clip612)" cx="1377.23" cy="355.337" r="14.4" fill="#e26f46" fill-rule="evenodd" fill-opacity="1" stroke="#000000" stroke-opacity="1" stroke-width="2.4"/>
<circle clip-path="url(#clip612)" cx="1416.19" cy="306.434" r="14.4" fill="#e26f46" fill-rule="evenodd" fill-opacity="1" stroke="#000000" stroke-opacity="1" stroke-width="2.4"/>
<path clip-path="url(#clip610)" d="M212.603 303.543 L693.52 303.543 L693.52 148.023 L212.603 148.023  Z" fill="#ffffff" fill-rule="evenodd" fill-opacity="1"/>
<polyline clip-path="url(#clip610)" style="stroke:#000000; stroke-linecap:round; stroke-linejoin:round; stroke-width:4; stroke-opacity:1; fill:none" points="212.603,303.543 693.52,303.543 693.52,148.023 212.603,148.023 212.603,303.543 "/>
<polyline clip-path="url(#clip610)" style="stroke:#009af9; stroke-linecap:round; stroke-linejoin:round; stroke-width:4; stroke-opacity:1; fill:none" points="232.605,199.863 352.616,199.863 "/>
<path clip-path="url(#clip610)" d="M372.618 182.583 L377.317 182.583 L377.317 203.578 Q377.317 209.134 379.33 211.587 Q381.344 214.018 385.858 214.018 Q390.349 214.018 392.363 211.587 Q394.377 209.134 394.377 203.578 L394.377 182.583 L399.076 182.583 L399.076 204.157 Q399.076 210.916 395.719 214.365 Q392.386 217.814 385.858 217.814 Q379.307 217.814 375.951 214.365 Q372.618 210.916 372.618 204.157 L372.618 182.583 Z" fill="#000000" fill-rule="nonzero" fill-opacity="1" /><path clip-path="url(#clip610)" d="M422.687 195.199 Q421.969 194.782 421.113 194.597 Q420.279 194.388 419.261 194.388 Q415.65 194.388 413.705 196.75 Q411.784 199.087 411.784 203.486 L411.784 217.143 L407.502 217.143 L407.502 191.217 L411.784 191.217 L411.784 195.245 Q413.127 192.884 415.279 191.75 Q417.432 190.592 420.511 190.592 Q420.951 190.592 421.483 190.662 Q422.015 190.708 422.664 190.824 L422.687 195.199 Z" fill="#000000" fill-rule="nonzero" fill-opacity="1" /><path clip-path="url(#clip610)" d="M443.682 191.981 L443.682 196.009 Q441.876 195.083 439.932 194.62 Q437.988 194.157 435.904 194.157 Q432.733 194.157 431.136 195.129 Q429.562 196.101 429.562 198.046 Q429.562 199.527 430.696 200.384 Q431.83 201.217 435.256 201.981 L436.714 202.305 Q441.251 203.277 443.15 205.06 Q445.071 206.819 445.071 209.99 Q445.071 213.601 442.2 215.708 Q439.353 217.814 434.353 217.814 Q432.27 217.814 430.001 217.398 Q427.756 217.004 425.256 216.194 L425.256 211.796 Q427.617 213.023 429.909 213.648 Q432.201 214.249 434.446 214.249 Q437.455 214.249 439.075 213.231 Q440.696 212.189 440.696 210.314 Q440.696 208.578 439.515 207.652 Q438.358 206.726 434.4 205.87 L432.918 205.523 Q428.96 204.689 427.201 202.976 Q425.441 201.24 425.441 198.231 Q425.441 194.574 428.034 192.583 Q430.626 190.592 435.395 190.592 Q437.756 190.592 439.839 190.939 Q441.923 191.287 443.682 191.981 Z" fill="#000000" fill-rule="nonzero" fill-opacity="1" /><path clip-path="url(#clip610)" d="M474.029 203.115 L474.029 205.199 L454.446 205.199 Q454.724 209.597 457.085 211.911 Q459.469 214.203 463.705 214.203 Q466.159 214.203 468.45 213.601 Q470.765 212.999 473.034 211.796 L473.034 215.823 Q470.742 216.796 468.335 217.305 Q465.927 217.814 463.45 217.814 Q457.247 217.814 453.612 214.203 Q450.001 210.592 450.001 204.435 Q450.001 198.069 453.427 194.342 Q456.876 190.592 462.71 190.592 Q467.941 190.592 470.973 193.972 Q474.029 197.328 474.029 203.115 M469.77 201.865 Q469.723 198.37 467.802 196.287 Q465.904 194.203 462.756 194.203 Q459.191 194.203 457.038 196.217 Q454.909 198.231 454.585 201.888 L469.77 201.865 Z" fill="#000000" fill-rule="nonzero" fill-opacity="1" /><path clip-path="url(#clip610)" d="M481.02 181.125 L485.279 181.125 L485.279 217.143 L481.02 217.143 L481.02 181.125 Z" fill="#000000" fill-rule="nonzero" fill-opacity="1" /><path clip-path="url(#clip610)" d="M494.191 181.125 L498.45 181.125 L498.45 217.143 L494.191 217.143 L494.191 181.125 Z" fill="#000000" fill-rule="nonzero" fill-opacity="1" /><path clip-path="url(#clip610)" d="M532.663 181.171 Q529.561 186.495 528.056 191.703 Q526.552 196.912 526.552 202.259 Q526.552 207.606 528.056 212.861 Q529.584 218.092 532.663 223.393 L528.959 223.393 Q525.487 217.953 523.751 212.698 Q522.038 207.444 522.038 202.259 Q522.038 197.097 523.751 191.865 Q525.464 186.634 528.959 181.171 L532.663 181.171 Z" fill="#000000" fill-rule="nonzero" fill-opacity="1" /><path clip-path="url(#clip610)" d="M542.339 213.208 L549.978 213.208 L549.978 186.842 L541.668 188.509 L541.668 184.25 L549.931 182.583 L554.607 182.583 L554.607 213.208 L562.246 213.208 L562.246 217.143 L542.339 217.143 L542.339 213.208 Z" fill="#000000" fill-rule="nonzero" fill-opacity="1" /><path clip-path="url(#clip610)" d="M571.829 216.425 L571.829 212.166 Q573.589 212.999 575.394 213.439 Q577.2 213.879 578.936 213.879 Q583.565 213.879 585.996 210.777 Q588.45 207.652 588.797 201.31 Q587.454 203.3 585.394 204.365 Q583.334 205.43 580.834 205.43 Q575.649 205.43 572.616 202.305 Q569.607 199.157 569.607 193.717 Q569.607 188.393 572.755 185.175 Q575.903 181.958 581.135 181.958 Q587.13 181.958 590.278 186.564 Q593.45 191.148 593.45 199.898 Q593.45 208.069 589.561 212.953 Q585.695 217.814 579.144 217.814 Q577.385 217.814 575.579 217.467 Q573.774 217.12 571.829 216.425 M581.135 201.773 Q584.283 201.773 586.112 199.62 Q587.964 197.467 587.964 193.717 Q587.964 189.99 586.112 187.838 Q584.283 185.662 581.135 185.662 Q577.987 185.662 576.135 187.838 Q574.306 189.99 574.306 193.717 Q574.306 197.467 576.135 199.62 Q577.987 201.773 581.135 201.773 Z" fill="#000000" fill-rule="nonzero" fill-opacity="1" /><path clip-path="url(#clip610)" d="M614.7 186.657 L602.894 205.106 L614.7 205.106 L614.7 186.657 M613.473 182.583 L619.352 182.583 L619.352 205.106 L624.283 205.106 L624.283 208.995 L619.352 208.995 L619.352 217.143 L614.7 217.143 L614.7 208.995 L599.098 208.995 L599.098 204.481 L613.473 182.583 Z" fill="#000000" fill-rule="nonzero" fill-opacity="1" /><path clip-path="url(#clip610)" d="M632.153 216.425 L632.153 212.166 Q633.912 212.999 635.718 213.439 Q637.523 213.879 639.26 213.879 Q643.889 213.879 646.32 210.777 Q648.773 207.652 649.121 201.31 Q647.778 203.3 645.718 204.365 Q643.658 205.43 641.158 205.43 Q635.973 205.43 632.94 202.305 Q629.931 199.157 629.931 193.717 Q629.931 188.393 633.079 185.175 Q636.227 181.958 641.459 181.958 Q647.454 181.958 650.602 186.564 Q653.773 191.148 653.773 199.898 Q653.773 208.069 649.885 212.953 Q646.019 217.814 639.468 217.814 Q637.709 217.814 635.903 217.467 Q634.098 217.12 632.153 216.425 M641.459 201.773 Q644.607 201.773 646.435 199.62 Q648.287 197.467 648.287 193.717 Q648.287 189.99 646.435 187.838 Q644.607 185.662 641.459 185.662 Q638.311 185.662 636.459 187.838 Q634.63 189.99 634.63 193.717 Q634.63 197.467 636.459 199.62 Q638.311 201.773 641.459 201.773 Z" fill="#000000" fill-rule="nonzero" fill-opacity="1" /><path clip-path="url(#clip610)" d="M660.903 181.171 L664.607 181.171 Q668.079 186.634 669.792 191.865 Q671.528 197.097 671.528 202.259 Q671.528 207.444 669.792 212.698 Q668.079 217.953 664.607 223.393 L660.903 223.393 Q663.982 218.092 665.486 212.861 Q667.014 207.606 667.014 202.259 Q667.014 196.912 665.486 191.703 Q663.982 186.495 660.903 181.171 Z" fill="#000000" fill-rule="nonzero" fill-opacity="1" /><circle clip-path="url(#clip610)" cx="292.61" cy="251.703" r="20.48" fill="#e26f46" fill-rule="evenodd" fill-opacity="1" stroke="#000000" stroke-opacity="1" stroke-width="3.41333"/>
<path clip-path="url(#clip610)" d="M385.812 268.983 L372.618 234.423 L377.502 234.423 L388.451 263.52 L399.423 234.423 L404.284 234.423 L391.113 268.983 L385.812 268.983 Z" fill="#000000" fill-rule="nonzero" fill-opacity="1" /><path clip-path="url(#clip610)" d="M405.488 258.751 L405.488 243.057 L409.747 243.057 L409.747 258.589 Q409.747 262.27 411.182 264.122 Q412.617 265.951 415.488 265.951 Q418.937 265.951 420.927 263.751 Q422.941 261.552 422.941 257.756 L422.941 243.057 L427.201 243.057 L427.201 268.983 L422.941 268.983 L422.941 265.001 Q421.39 267.363 419.33 268.52 Q417.293 269.654 414.585 269.654 Q410.117 269.654 407.803 266.876 Q405.488 264.099 405.488 258.751 M416.205 242.432 L416.205 242.432 Z" fill="#000000" fill-rule="nonzero" fill-opacity="1" /><path clip-path="url(#clip610)" d="M453.034 255.719 Q453.034 251.089 451.112 248.543 Q449.214 245.997 445.765 245.997 Q442.339 245.997 440.418 248.543 Q438.52 251.089 438.52 255.719 Q438.52 260.326 440.418 262.872 Q442.339 265.418 445.765 265.418 Q449.214 265.418 451.112 262.872 Q453.034 260.326 453.034 255.719 M457.293 265.765 Q457.293 272.386 454.353 275.603 Q451.413 278.844 445.349 278.844 Q443.103 278.844 441.113 278.497 Q439.122 278.173 437.247 277.478 L437.247 273.335 Q439.122 274.353 440.95 274.839 Q442.779 275.325 444.677 275.325 Q448.867 275.325 450.95 273.126 Q453.034 270.95 453.034 266.529 L453.034 264.423 Q451.714 266.714 449.654 267.849 Q447.594 268.983 444.724 268.983 Q439.955 268.983 437.038 265.349 Q434.122 261.714 434.122 255.719 Q434.122 249.701 437.038 246.066 Q439.955 242.432 444.724 242.432 Q447.594 242.432 449.654 243.566 Q451.714 244.701 453.034 246.992 L453.034 243.057 L457.293 243.057 L457.293 265.765 Z" fill="#000000" fill-rule="nonzero" fill-opacity="1" /><path clip-path="url(#clip610)" d="M470.279 235.696 L470.279 243.057 L479.052 243.057 L479.052 246.367 L470.279 246.367 L470.279 260.441 Q470.279 263.613 471.135 264.515 Q472.015 265.418 474.677 265.418 L479.052 265.418 L479.052 268.983 L474.677 268.983 Q469.747 268.983 467.872 267.154 Q465.997 265.302 465.997 260.441 L465.997 246.367 L462.872 246.367 L462.872 243.057 L465.997 243.057 L465.997 235.696 L470.279 235.696 Z" fill="#000000" fill-rule="nonzero" fill-opacity="1" /><path clip-path="url(#clip610)" d="M501.182 243.821 L501.182 247.849 Q499.376 246.923 497.432 246.46 Q495.487 245.997 493.404 245.997 Q490.233 245.997 488.635 246.969 Q487.061 247.941 487.061 249.886 Q487.061 251.367 488.196 252.224 Q489.33 253.057 492.756 253.821 L494.214 254.145 Q498.751 255.117 500.649 256.9 Q502.571 258.659 502.571 261.83 Q502.571 265.441 499.7 267.548 Q496.853 269.654 491.853 269.654 Q489.77 269.654 487.501 269.238 Q485.256 268.844 482.756 268.034 L482.756 263.636 Q485.117 264.863 487.409 265.488 Q489.7 266.089 491.946 266.089 Q494.955 266.089 496.575 265.071 Q498.196 264.029 498.196 262.154 Q498.196 260.418 497.015 259.492 Q495.858 258.566 491.899 257.71 L490.418 257.363 Q486.459 256.529 484.7 254.816 Q482.941 253.08 482.941 250.071 Q482.941 246.414 485.534 244.423 Q488.126 242.432 492.895 242.432 Q495.256 242.432 497.339 242.779 Q499.422 243.127 501.182 243.821 Z" fill="#000000" fill-rule="nonzero" fill-opacity="1" /><path clip-path="url(#clip610)" d="M534.654 233.011 Q531.552 238.335 530.047 243.543 Q528.543 248.752 528.543 254.099 Q528.543 259.446 530.047 264.701 Q531.575 269.932 534.654 275.233 L530.95 275.233 Q527.478 269.793 525.742 264.538 Q524.029 259.284 524.029 254.099 Q524.029 248.937 525.742 243.705 Q527.455 238.474 530.95 233.011 L534.654 233.011 Z" fill="#000000" fill-rule="nonzero" fill-opacity="1" /><path clip-path="url(#clip610)" d="M544.33 265.048 L551.968 265.048 L551.968 238.682 L543.658 240.349 L543.658 236.09 L551.922 234.423 L556.598 234.423 L556.598 265.048 L564.237 265.048 L564.237 268.983 L544.33 268.983 L544.33 265.048 Z" fill="#000000" fill-rule="nonzero" fill-opacity="1" /><path clip-path="url(#clip610)" d="M573.82 268.265 L573.82 264.006 Q575.579 264.839 577.385 265.279 Q579.19 265.719 580.927 265.719 Q585.556 265.719 587.987 262.617 Q590.44 259.492 590.788 253.15 Q589.445 255.14 587.385 256.205 Q585.325 257.27 582.825 257.27 Q577.64 257.27 574.607 254.145 Q571.598 250.997 571.598 245.557 Q571.598 240.233 574.746 237.015 Q577.894 233.798 583.126 233.798 Q589.121 233.798 592.269 238.404 Q595.44 242.988 595.44 251.738 Q595.44 259.909 591.552 264.793 Q587.686 269.654 581.135 269.654 Q579.376 269.654 577.57 269.307 Q575.765 268.96 573.82 268.265 M583.126 253.613 Q586.274 253.613 588.102 251.46 Q589.954 249.307 589.954 245.557 Q589.954 241.83 588.102 239.678 Q586.274 237.502 583.126 237.502 Q579.978 237.502 578.126 239.678 Q576.297 241.83 576.297 245.557 Q576.297 249.307 578.126 251.46 Q579.978 253.613 583.126 253.613 Z" fill="#000000" fill-rule="nonzero" fill-opacity="1" /><path clip-path="url(#clip610)" d="M614.422 249.84 Q611.274 249.84 609.422 251.992 Q607.593 254.145 607.593 257.895 Q607.593 261.622 609.422 263.798 Q611.274 265.951 614.422 265.951 Q617.57 265.951 619.399 263.798 Q621.25 261.622 621.25 257.895 Q621.25 254.145 619.399 251.992 Q617.57 249.84 614.422 249.84 M623.704 235.187 L623.704 239.446 Q621.945 238.613 620.139 238.173 Q618.357 237.733 616.598 237.733 Q611.968 237.733 609.514 240.858 Q607.084 243.983 606.737 250.302 Q608.102 248.289 610.163 247.224 Q612.223 246.136 614.7 246.136 Q619.908 246.136 622.917 249.307 Q625.949 252.455 625.949 257.895 Q625.949 263.219 622.801 266.437 Q619.653 269.654 614.422 269.654 Q608.426 269.654 605.255 265.071 Q602.084 260.464 602.084 251.738 Q602.084 243.543 605.973 238.682 Q609.862 233.798 616.412 233.798 Q618.172 233.798 619.954 234.145 Q621.76 234.492 623.704 235.187 Z" fill="#000000" fill-rule="nonzero" fill-opacity="1" /><path clip-path="url(#clip610)" d="M644.005 252.571 Q640.672 252.571 638.75 254.353 Q636.852 256.136 636.852 259.261 Q636.852 262.386 638.75 264.168 Q640.672 265.951 644.005 265.951 Q647.338 265.951 649.26 264.168 Q651.181 262.363 651.181 259.261 Q651.181 256.136 649.26 254.353 Q647.361 252.571 644.005 252.571 M639.329 250.58 Q636.32 249.84 634.63 247.779 Q632.963 245.719 632.963 242.756 Q632.963 238.613 635.903 236.205 Q638.866 233.798 644.005 233.798 Q649.167 233.798 652.107 236.205 Q655.047 238.613 655.047 242.756 Q655.047 245.719 653.357 247.779 Q651.69 249.84 648.704 250.58 Q652.084 251.367 653.959 253.659 Q655.857 255.951 655.857 259.261 Q655.857 264.284 652.778 266.969 Q649.723 269.654 644.005 269.654 Q638.287 269.654 635.209 266.969 Q632.153 264.284 632.153 259.261 Q632.153 255.951 634.051 253.659 Q635.949 251.367 639.329 250.58 M637.616 243.196 Q637.616 245.881 639.283 247.386 Q640.973 248.89 644.005 248.89 Q647.014 248.89 648.704 247.386 Q650.417 245.881 650.417 243.196 Q650.417 240.511 648.704 239.006 Q647.014 237.502 644.005 237.502 Q640.973 237.502 639.283 239.006 Q637.616 240.511 637.616 243.196 Z" fill="#000000" fill-rule="nonzero" fill-opacity="1" /><path clip-path="url(#clip610)" d="M662.894 233.011 L666.597 233.011 Q670.07 238.474 671.783 243.705 Q673.519 248.937 673.519 254.099 Q673.519 259.284 671.783 264.538 Q670.07 269.793 666.597 275.233 L662.894 275.233 Q665.972 269.932 667.477 264.701 Q669.005 259.446 669.005 254.099 Q669.005 248.752 667.477 243.543 Q665.972 238.335 662.894 233.011 Z" fill="#000000" fill-rule="nonzero" fill-opacity="1" /></svg>
