<?xml version="1.0" encoding="utf-8"?>
<svg xmlns="http://www.w3.org/2000/svg" xmlns:xlink="http://www.w3.org/1999/xlink" width="500" height="300" viewBox="0 0 2000 1200">
<defs>
  <clipPath id="clip270">
    <rect x="0" y="0" width="2000" height="1200"/>
  </clipPath>
</defs>
<path clip-path="url(#clip270)" d="M0 1200 L2000 1200 L2000 0 L0 0  Z" fill="#ffffff" fill-rule="evenodd" fill-opacity="1"/>
<defs>
  <clipPath id="clip271">
    <rect x="400" y="0" width="1401" height="1200"/>
  </clipPath>
</defs>
<path clip-path="url(#clip270)" d="M211.114 1035.39 L1952.76 1035.39 L1952.76 117.424 L211.114 117.424  Z" fill="#ffffff" fill-rule="evenodd" fill-opacity="1"/>
<defs>
  <clipPath id="clip272">
    <rect x="211" y="117" width="1743" height="919"/>
  </clipPath>
</defs>
<polyline clip-path="url(#clip272)" style="stroke:#000000; stroke-linecap:round; stroke-linejoin:round; stroke-width:2; stroke-opacity:0.1; fill:none" points="579.678,1035.39 579.678,117.424 "/>
<polyline clip-path="url(#clip272)" style="stroke:#000000; stroke-linecap:round; stroke-linejoin:round; stroke-width:2; stroke-opacity:0.1; fill:none" points="1020.94,1035.39 1020.94,117.424 "/>
<polyline clip-path="url(#clip272)" style="stroke:#000000; stroke-linecap:round; stroke-linejoin:round; stroke-width:2; stroke-opacity:0.1; fill:none" points="1462.2,1035.39 1462.2,117.424 "/>
<polyline clip-path="url(#clip272)" style="stroke:#000000; stroke-linecap:round; stroke-linejoin:round; stroke-width:2; stroke-opacity:0.1; fill:none" points="1903.46,1035.39 1903.46,117.424 "/>
<polyline clip-path="url(#clip272)" style="stroke:#000000; stroke-linecap:round; stroke-linejoin:round; stroke-width:2; stroke-opacity:0.1; fill:none" points="211.114,856.656 1952.76,856.656 "/>
<polyline clip-path="url(#clip272)" style="stroke:#000000; stroke-linecap:round; stroke-linejoin:round; stroke-width:2; stroke-opacity:0.1; fill:none" points="211.114,645.398 1952.76,645.398 "/>
<polyline clip-path="url(#clip272)" style="stroke:#000000; stroke-linecap:round; stroke-linejoin:round; stroke-width:2; stroke-opacity:0.1; fill:none" points="211.114,434.139 1952.76,434.139 "/>
<polyline clip-path="url(#clip272)" style="stroke:#000000; stroke-linecap:round; stroke-linejoin:round; stroke-width:2; stroke-opacity:0.1; fill:none" points="211.114,222.881 1952.76,222.881 "/>
<polyline clip-path="url(#clip270)" style="stroke:#000000; stroke-linecap:round; stroke-linejoin:round; stroke-width:4; stroke-opacity:1; fill:none" points="211.114,1035.39 1952.76,1035.39 "/>
<polyline clip-path="url(#clip270)" style="stroke:#000000; stroke-linecap:round; stroke-linejoin:round; stroke-width:4; stroke-opacity:1; fill:none" points="579.678,1035.39 579.678,1016.49 "/>
<polyline clip-path="url(#clip270)" style="stroke:#000000; stroke-linecap:round; stroke-linejoin:round; stroke-width:4; stroke-opacity:1; fill:none" points="1020.94,1035.39 1020.94,1016.49 "/>
<polyline clip-path="url(#clip270)" style="stroke:#000000; stroke-linecap:round; stroke-linejoin:round; stroke-width:4; stroke-opacity:1; fill:none" points="1462.2,1035.39 1462.2,1016.49 "/>
<polyline clip-path="url(#clip270)" style="stroke:#000000; stroke-linecap:round; stroke-linejoin:round; stroke-width:4; stroke-opacity:1; fill:none" points="1903.46,1035.39 1903.46,1016.49 "/>
<path clip-path="url(#clip270)" d="M557.56 1063.11 Q553.949 1063.11 552.12 1066.67 Q550.315 1070.21 550.315 1077.34 Q550.315 1084.45 552.12 1088.01 Q553.949 1091.56 557.56 1091.56 Q561.194 1091.56 563 1088.01 Q564.829 1084.45 564.829 1077.34 Q564.829 1070.21 563 1066.67 Q561.194 1063.11 557.56 1063.11 M557.56 1059.4 Q563.37 1059.4 566.426 1064.01 Q569.504 1068.59 569.504 1077.34 Q569.504 1086.07 566.426 1090.68 Q563.37 1095.26 557.56 1095.26 Q551.75 1095.26 548.671 1090.68 Q545.616 1086.07 545.616 1077.34 Q545.616 1068.59 548.671 1064.01 Q551.75 1059.4 557.56 1059.4 Z" fill="#000000" fill-rule="nonzero" fill-opacity="1" /><path clip-path="url(#clip270)" d="M577.722 1088.71 L582.606 1088.71 L582.606 1094.59 L577.722 1094.59 L577.722 1088.71 Z" fill="#000000" fill-rule="nonzero" fill-opacity="1" /><path clip-path="url(#clip270)" d="M592.838 1060.03 L611.194 1060.03 L611.194 1063.96 L597.12 1063.96 L597.12 1072.44 Q598.139 1072.09 599.157 1071.93 Q600.176 1071.74 601.194 1071.74 Q606.981 1071.74 610.361 1074.91 Q613.74 1078.08 613.74 1083.5 Q613.74 1089.08 610.268 1092.18 Q606.796 1095.26 600.476 1095.26 Q598.301 1095.26 596.032 1094.89 Q593.787 1094.52 591.379 1093.78 L591.379 1089.08 Q593.463 1090.21 595.685 1090.77 Q597.907 1091.32 600.384 1091.32 Q604.389 1091.32 606.726 1089.22 Q609.064 1087.11 609.064 1083.5 Q609.064 1079.89 606.726 1077.78 Q604.389 1075.68 600.384 1075.68 Q598.509 1075.68 596.634 1076.09 Q594.782 1076.51 592.838 1077.39 L592.838 1060.03 Z" fill="#000000" fill-rule="nonzero" fill-opacity="1" /><path clip-path="url(#clip270)" d="M988.093 1090.65 L995.732 1090.65 L995.732 1064.29 L987.422 1065.95 L987.422 1061.69 L995.686 1060.03 L1000.36 1060.03 L1000.36 1090.65 L1008 1090.65 L1008 1094.59 L988.093 1094.59 L988.093 1090.65 Z" fill="#000000" fill-rule="nonzero" fill-opacity="1" /><path clip-path="url(#clip270)" d="M1017.44 1088.71 L1022.33 1088.71 L1022.33 1094.59 L1017.44 1094.59 L1017.44 1088.71 Z" fill="#000000" fill-rule="nonzero" fill-opacity="1" /><path clip-path="url(#clip270)" d="M1042.51 1063.11 Q1038.9 1063.11 1037.07 1066.67 Q1035.27 1070.21 1035.27 1077.34 Q1035.27 1084.45 1037.07 1088.01 Q1038.9 1091.56 1042.51 1091.56 Q1046.15 1091.56 1047.95 1088.01 Q1049.78 1084.45 1049.78 1077.34 Q1049.78 1070.21 1047.95 1066.67 Q1046.15 1063.11 1042.51 1063.11 M1042.51 1059.4 Q1048.32 1059.4 1051.38 1064.01 Q1054.46 1068.59 1054.46 1077.34 Q1054.46 1086.07 1051.38 1090.68 Q1048.32 1095.26 1042.51 1095.26 Q1036.7 1095.26 1033.63 1090.68 Q1030.57 1086.07 1030.57 1077.34 Q1030.57 1068.59 1033.63 1064.01 Q1036.7 1059.4 1042.51 1059.4 Z" fill="#000000" fill-rule="nonzero" fill-opacity="1" /><path clip-path="url(#clip270)" d="M1429.85 1090.65 L1437.49 1090.65 L1437.49 1064.29 L1429.18 1065.95 L1429.18 1061.69 L1437.45 1060.03 L1442.12 1060.03 L1442.12 1090.65 L1449.76 1090.65 L1449.76 1094.59 L1429.85 1094.59 L1429.85 1090.65 Z" fill="#000000" fill-rule="nonzero" fill-opacity="1" /><path clip-path="url(#clip270)" d="M1459.2 1088.71 L1464.09 1088.71 L1464.09 1094.59 L1459.2 1094.59 L1459.2 1088.71 Z" fill="#000000" fill-rule="nonzero" fill-opacity="1" /><path clip-path="url(#clip270)" d="M1474.32 1060.03 L1492.68 1060.03 L1492.68 1063.96 L1478.6 1063.96 L1478.6 1072.44 Q1479.62 1072.09 1480.64 1071.93 Q1481.66 1071.74 1482.68 1071.74 Q1488.46 1071.74 1491.84 1074.91 Q1495.22 1078.08 1495.22 1083.5 Q1495.22 1089.08 1491.75 1092.18 Q1488.28 1095.26 1481.96 1095.26 Q1479.78 1095.26 1477.51 1094.89 Q1475.27 1094.52 1472.86 1093.78 L1472.86 1089.08 Q1474.95 1090.21 1477.17 1090.77 Q1479.39 1091.32 1481.87 1091.32 Q1485.87 1091.32 1488.21 1089.22 Q1490.55 1087.11 1490.55 1083.5 Q1490.55 1079.89 1488.21 1077.78 Q1485.87 1075.68 1481.87 1075.68 Q1479.99 1075.68 1478.12 1076.09 Q1476.26 1076.51 1474.32 1077.39 L1474.32 1060.03 Z" fill="#000000" fill-rule="nonzero" fill-opacity="1" /><path clip-path="url(#clip270)" d="M1874.7 1090.65 L1891.02 1090.65 L1891.02 1094.59 L1869.08 1094.59 L1869.08 1090.65 Q1871.74 1087.9 1876.32 1083.27 Q1880.93 1078.62 1882.11 1077.27 Q1884.36 1074.75 1885.24 1073.01 Q1886.14 1071.25 1886.14 1069.56 Q1886.14 1066.81 1884.19 1065.07 Q1882.27 1063.34 1879.17 1063.34 Q1876.97 1063.34 1874.52 1064.1 Q1872.09 1064.87 1869.31 1066.42 L1869.31 1061.69 Q1872.13 1060.56 1874.59 1059.98 Q1877.04 1059.4 1879.08 1059.4 Q1884.45 1059.4 1887.64 1062.09 Q1890.84 1064.77 1890.84 1069.26 Q1890.84 1071.39 1890.03 1073.31 Q1889.24 1075.21 1887.13 1077.81 Q1886.55 1078.48 1883.45 1081.69 Q1880.35 1084.89 1874.7 1090.65 Z" fill="#000000" fill-rule="nonzero" fill-opacity="1" /><path clip-path="url(#clip270)" d="M1900.84 1088.71 L1905.72 1088.71 L1905.72 1094.59 L1900.84 1094.59 L1900.84 1088.71 Z" fill="#000000" fill-rule="nonzero" fill-opacity="1" /><path clip-path="url(#clip270)" d="M1925.91 1063.11 Q1922.3 1063.11 1920.47 1066.67 Q1918.66 1070.21 1918.66 1077.34 Q1918.66 1084.45 1920.47 1088.01 Q1922.3 1091.56 1925.91 1091.56 Q1929.54 1091.56 1931.35 1088.01 Q1933.17 1084.45 1933.17 1077.34 Q1933.17 1070.21 1931.35 1066.67 Q1929.54 1063.11 1925.91 1063.11 M1925.91 1059.4 Q1931.72 1059.4 1934.77 1064.01 Q1937.85 1068.59 1937.85 1077.34 Q1937.85 1086.07 1934.77 1090.68 Q1931.72 1095.26 1925.91 1095.26 Q1920.1 1095.26 1917.02 1090.68 Q1913.96 1086.07 1913.96 1077.34 Q1913.96 1068.59 1917.02 1064.01 Q1920.1 1059.4 1925.91 1059.4 Z" fill="#000000" fill-rule="nonzero" fill-opacity="1" /><path clip-path="url(#clip270)" d="M1100.6 1135.27 Q1100.6 1138.26 1099.09 1144.06 Q1098.48 1146.57 1097.64 1148.86 Q1096.83 1151.11 1095.64 1153.3 Q1094.45 1155.49 1093.07 1157.07 Q1091.68 1158.62 1089.88 1159.58 Q1088.07 1160.55 1086.08 1160.55 Q1082.92 1160.55 1081.05 1158.68 Q1079.22 1156.78 1078.64 1153.53 Q1074.32 1160.55 1068.56 1160.55 Q1064.98 1160.55 1063.31 1158.01 Q1061.63 1155.43 1061.63 1151.11 Q1061.63 1147.47 1062.6 1143.71 Q1064.43 1136.56 1068.01 1131.56 Q1068.49 1130.98 1069.2 1130.98 Q1069.62 1130.98 1069.81 1131.11 Q1070.39 1131.47 1070.39 1132.05 Q1070.39 1132.47 1070.07 1132.88 Q1067.82 1136.01 1066.33 1138.68 Q1064.85 1141.35 1064.18 1144.06 Q1063.66 1146.38 1063.66 1148.34 Q1063.66 1151.66 1065.08 1153.72 Q1066.53 1155.78 1069.39 1155.78 Q1072.03 1155.78 1074.35 1154.14 Q1076.67 1152.47 1078.38 1149.66 Q1078.48 1146.6 1079.22 1143.71 Q1079.89 1140.61 1081.47 1140.61 Q1082.73 1140.61 1082.73 1142.32 Q1082.73 1142.9 1082.47 1144.06 Q1081.76 1147.12 1080.47 1149.86 Q1080.92 1152.53 1082.6 1154.17 Q1084.27 1155.78 1086.95 1155.78 Q1089.43 1155.78 1091.62 1153.98 Q1093.84 1152.18 1095.26 1149.54 Q1096.7 1146.86 1097.51 1143.71 Q1097.77 1142.64 1097.77 1141.29 Q1097.77 1137.68 1095.26 1135.46 Q1094.55 1134.75 1094.55 1133.82 Q1094.55 1132.72 1095.45 1131.73 Q1096.51 1130.66 1097.77 1130.66 Q1098.7 1130.66 1099.28 1131.24 Q1100.6 1132.4 1100.6 1135.27 Z" fill="#000000" fill-rule="nonzero" fill-opacity="1" /><polyline clip-path="url(#clip270)" style="stroke:#000000; stroke-linecap:round; stroke-linejoin:round; stroke-width:4; stroke-opacity:1; fill:none" points="211.114,1035.39 211.114,117.424 "/>
<polyline clip-path="url(#clip270)" style="stroke:#000000; stroke-linecap:round; stroke-linejoin:round; stroke-width:4; stroke-opacity:1; fill:none" points="211.114,856.656 230.012,856.656 "/>
<polyline clip-path="url(#clip270)" style="stroke:#000000; stroke-linecap:round; stroke-linejoin:round; stroke-width:4; stroke-opacity:1; fill:none" points="211.114,645.398 230.012,645.398 "/>
<polyline clip-path="url(#clip270)" style="stroke:#000000; stroke-linecap:round; stroke-linejoin:round; stroke-width:4; stroke-opacity:1; fill:none" points="211.114,434.139 230.012,434.139 "/>
<polyline clip-path="url(#clip270)" style="stroke:#000000; stroke-linecap:round; stroke-linejoin:round; stroke-width:4; stroke-opacity:1; fill:none" points="211.114,222.881 230.012,222.881 "/>
<path clip-path="url(#clip270)" d="M125.536 842.455 Q121.925 842.455 120.096 846.02 Q118.291 849.561 118.291 856.691 Q118.291 863.797 120.096 867.362 Q121.925 870.904 125.536 870.904 Q129.17 870.904 130.976 867.362 Q132.804 863.797 132.804 856.691 Q132.804 849.561 130.976 846.02 Q129.17 842.455 125.536 842.455 M125.536 838.751 Q131.346 838.751 134.402 843.358 Q137.48 847.941 137.48 856.691 Q137.48 865.418 134.402 870.024 Q131.346 874.607 125.536 874.607 Q119.726 874.607 116.647 870.024 Q113.591 865.418 113.591 856.691 Q113.591 847.941 116.647 843.358 Q119.726 838.751 125.536 838.751 Z" fill="#000000" fill-rule="nonzero" fill-opacity="1" /><path clip-path="url(#clip270)" d="M145.698 868.057 L150.582 868.057 L150.582 873.936 L145.698 873.936 L145.698 868.057 Z" fill="#000000" fill-rule="nonzero" fill-opacity="1" /><path clip-path="url(#clip270)" d="M164.795 870.001 L181.114 870.001 L181.114 873.936 L159.17 873.936 L159.17 870.001 Q161.832 867.246 166.415 862.617 Q171.022 857.964 172.202 856.621 Q174.448 854.098 175.327 852.362 Q176.23 850.603 176.23 848.913 Q176.23 846.159 174.286 844.422 Q172.364 842.686 169.262 842.686 Q167.063 842.686 164.61 843.45 Q162.179 844.214 159.401 845.765 L159.401 841.043 Q162.225 839.909 164.679 839.33 Q167.133 838.751 169.17 838.751 Q174.54 838.751 177.735 841.436 Q180.929 844.122 180.929 848.612 Q180.929 850.742 180.119 852.663 Q179.332 854.561 177.225 857.154 Q176.647 857.825 173.545 861.043 Q170.443 864.237 164.795 870.001 Z" fill="#000000" fill-rule="nonzero" fill-opacity="1" /><path clip-path="url(#clip270)" d="M123.453 631.196 Q119.841 631.196 118.013 634.761 Q116.207 638.303 116.207 645.433 Q116.207 652.539 118.013 656.104 Q119.841 659.645 123.453 659.645 Q127.087 659.645 128.892 656.104 Q130.721 652.539 130.721 645.433 Q130.721 638.303 128.892 634.761 Q127.087 631.196 123.453 631.196 M123.453 627.493 Q129.263 627.493 132.318 632.099 Q135.397 636.683 135.397 645.433 Q135.397 654.159 132.318 658.766 Q129.263 663.349 123.453 663.349 Q117.642 663.349 114.564 658.766 Q111.508 654.159 111.508 645.433 Q111.508 636.683 114.564 632.099 Q117.642 627.493 123.453 627.493 Z" fill="#000000" fill-rule="nonzero" fill-opacity="1" /><path clip-path="url(#clip270)" d="M143.614 656.798 L148.499 656.798 L148.499 662.678 L143.614 662.678 L143.614 656.798 Z" fill="#000000" fill-rule="nonzero" fill-opacity="1" /><path clip-path="url(#clip270)" d="M171.531 632.192 L159.725 650.641 L171.531 650.641 L171.531 632.192 M170.304 628.118 L176.184 628.118 L176.184 650.641 L181.114 650.641 L181.114 654.53 L176.184 654.53 L176.184 662.678 L171.531 662.678 L171.531 654.53 L155.929 654.53 L155.929 650.016 L170.304 628.118 Z" fill="#000000" fill-rule="nonzero" fill-opacity="1" /><path clip-path="url(#clip270)" d="M123.777 419.938 Q120.166 419.938 118.337 423.503 Q116.531 427.045 116.531 434.174 Q116.531 441.281 118.337 444.845 Q120.166 448.387 123.777 448.387 Q127.411 448.387 129.216 444.845 Q131.045 441.281 131.045 434.174 Q131.045 427.045 129.216 423.503 Q127.411 419.938 123.777 419.938 M123.777 416.234 Q129.587 416.234 132.642 420.841 Q135.721 425.424 135.721 434.174 Q135.721 442.901 132.642 447.507 Q129.587 452.091 123.777 452.091 Q117.966 452.091 114.888 447.507 Q111.832 442.901 111.832 434.174 Q111.832 425.424 114.888 420.841 Q117.966 416.234 123.777 416.234 Z" fill="#000000" fill-rule="nonzero" fill-opacity="1" /><path clip-path="url(#clip270)" d="M143.939 445.54 L148.823 445.54 L148.823 451.419 L143.939 451.419 L143.939 445.54 Z" fill="#000000" fill-rule="nonzero" fill-opacity="1" /><path clip-path="url(#clip270)" d="M169.587 432.276 Q166.438 432.276 164.587 434.429 Q162.758 436.582 162.758 440.331 Q162.758 444.058 164.587 446.234 Q166.438 448.387 169.587 448.387 Q172.735 448.387 174.563 446.234 Q176.415 444.058 176.415 440.331 Q176.415 436.582 174.563 434.429 Q172.735 432.276 169.587 432.276 M178.869 417.623 L178.869 421.883 Q177.11 421.049 175.304 420.609 Q173.522 420.17 171.762 420.17 Q167.133 420.17 164.679 423.295 Q162.249 426.42 161.901 432.739 Q163.267 430.725 165.327 429.66 Q167.387 428.572 169.864 428.572 Q175.073 428.572 178.082 431.744 Q181.114 434.892 181.114 440.331 Q181.114 445.656 177.966 448.873 Q174.818 452.091 169.587 452.091 Q163.591 452.091 160.42 447.507 Q157.249 442.901 157.249 434.174 Q157.249 425.98 161.138 421.119 Q165.026 416.234 171.577 416.234 Q173.337 416.234 175.119 416.582 Q176.924 416.929 178.869 417.623 Z" fill="#000000" fill-rule="nonzero" fill-opacity="1" /><path clip-path="url(#clip270)" d="M124.031 208.68 Q120.42 208.68 118.591 212.244 Q116.786 215.786 116.786 222.916 Q116.786 230.022 118.591 233.587 Q120.42 237.129 124.031 237.129 Q127.665 237.129 129.471 233.587 Q131.3 230.022 131.3 222.916 Q131.3 215.786 129.471 212.244 Q127.665 208.68 124.031 208.68 M124.031 204.976 Q129.841 204.976 132.897 209.582 Q135.976 214.166 135.976 222.916 Q135.976 231.643 132.897 236.249 Q129.841 240.832 124.031 240.832 Q118.221 240.832 115.142 236.249 Q112.087 231.643 112.087 222.916 Q112.087 214.166 115.142 209.582 Q118.221 204.976 124.031 204.976 Z" fill="#000000" fill-rule="nonzero" fill-opacity="1" /><path clip-path="url(#clip270)" d="M144.193 234.281 L149.077 234.281 L149.077 240.161 L144.193 240.161 L144.193 234.281 Z" fill="#000000" fill-rule="nonzero" fill-opacity="1" /><path clip-path="url(#clip270)" d="M169.262 223.749 Q165.929 223.749 164.008 225.531 Q162.11 227.314 162.11 230.439 Q162.11 233.564 164.008 235.346 Q165.929 237.129 169.262 237.129 Q172.596 237.129 174.517 235.346 Q176.438 233.541 176.438 230.439 Q176.438 227.314 174.517 225.531 Q172.619 223.749 169.262 223.749 M164.587 221.758 Q161.577 221.018 159.888 218.957 Q158.221 216.897 158.221 213.934 Q158.221 209.791 161.161 207.383 Q164.124 204.976 169.262 204.976 Q174.424 204.976 177.364 207.383 Q180.304 209.791 180.304 213.934 Q180.304 216.897 178.614 218.957 Q176.948 221.018 173.962 221.758 Q177.341 222.545 179.216 224.837 Q181.114 227.129 181.114 230.439 Q181.114 235.462 178.036 238.147 Q174.98 240.832 169.262 240.832 Q163.545 240.832 160.466 238.147 Q157.411 235.462 157.411 230.439 Q157.411 227.129 159.309 224.837 Q161.207 222.545 164.587 221.758 M162.874 214.374 Q162.874 217.059 164.54 218.564 Q166.23 220.069 169.262 220.069 Q172.272 220.069 173.962 218.564 Q175.674 217.059 175.674 214.374 Q175.674 211.689 173.962 210.184 Q172.272 208.68 169.262 208.68 Q166.23 208.68 164.54 210.184 Q162.874 211.689 162.874 214.374 Z" fill="#000000" fill-rule="nonzero" fill-opacity="1" /><path clip-path="url(#clip270)" d="M50.7158 592.186 Q55.3534 592.186 59.8945 594.537 Q64.4033 596.856 67.2374 600.591 Q70.0715 604.295 70.0715 608.095 Q70.0715 611.799 67.2374 614.15 Q64.3711 616.469 59.7012 616.469 Q58.0587 616.469 56.8993 616.276 Q55.7399 616.082 53.0346 615.406 L31.5211 609.996 Q27.4954 609.062 27.4632 609.062 Q27.0767 609.062 26.8835 609.223 Q26.658 609.351 26.497 610.124 Q26.336 610.897 26.336 612.379 Q26.336 612.991 26.3038 613.281 Q26.2716 613.538 26.1105 613.764 Q25.9173 613.957 25.5308 613.957 Q24.9833 613.957 24.6935 613.731 Q24.3714 613.474 24.307 613.281 Q24.2426 613.087 24.2104 612.701 Q24.1782 612.153 24.0171 610.318 Q23.8239 608.482 23.6951 606.904 Q23.5663 605.326 23.5663 604.649 Q23.5663 604.263 23.7595 604.07 Q23.9205 603.844 24.1138 603.844 L24.2748 603.812 L44.1458 608.675 Q40.1845 604.843 40.1845 600.946 Q40.1845 597.049 43.1796 594.633 Q46.1748 592.186 50.7158 592.186 M47.8173 596.952 Q44.7577 596.952 43.2118 598.112 Q41.6338 599.239 41.6338 601.107 Q41.6338 602.685 42.8254 604.746 Q44.017 606.807 46.9155 608.997 Q47.463 609.416 47.7851 609.577 Q48.1071 609.706 49.2021 609.996 L55.289 611.445 Q59.4436 612.508 61.9557 612.508 Q65.3695 612.508 66.9798 611.252 Q68.5901 609.996 68.5901 608.095 Q68.5901 606.099 66.8187 604.005 Q65.0474 601.912 61.8268 600.302 Q59.7012 599.303 55.128 598.144 Q50.5226 596.952 47.8173 596.952 Z" fill="#000000" fill-rule="nonzero" fill-opacity="1" /><path clip-path="url(#clip270)" d="M84.8862 588.463 Q84.5642 588.463 83.8556 588.205 L21.6339 564.921 Q21.5695 564.921 21.2152 564.76 Q20.861 564.599 20.6355 564.502 Q20.3779 564.405 20.1846 564.212 Q19.9914 563.987 19.9914 563.729 Q19.9914 563.085 20.7966 563.085 Q20.861 563.085 21.6339 563.278 L83.92 586.627 Q85.0473 587.014 85.3693 587.272 Q85.6914 587.497 85.6914 587.883 Q85.6914 588.463 84.8862 588.463 Z" fill="#000000" fill-rule="nonzero" fill-opacity="1" /><path clip-path="url(#clip270)" d="M24.2748 541.694 L62.4065 551.195 Q63.9202 551.581 65.5627 551.581 Q68.5901 551.581 68.5901 549.585 Q68.5901 548.651 67.9781 547.878 Q67.334 547.105 66.078 546.525 Q64.7898 545.913 63.5659 545.527 Q62.3421 545.108 60.442 544.593 Q59.7012 544.432 59.4758 544.271 Q59.2504 544.11 59.2504 543.659 Q59.2504 542.854 59.8945 542.854 Q63.8558 543.659 66.3679 544.85 Q70.0715 546.589 70.0715 549.81 Q70.0715 552.226 68.3968 554.029 Q66.6899 555.8 63.9846 555.8 Q62.954 555.8 61.7302 555.478 L28.7514 547.169 L27.4632 546.944 Q27.1089 546.944 26.9157 547.073 Q26.7224 547.201 26.5292 547.974 Q26.336 548.715 26.336 550.197 Q26.336 550.808 26.3038 551.098 Q26.2716 551.356 26.1105 551.614 Q25.9495 551.839 25.5952 551.839 Q25.0155 551.839 24.6935 551.614 Q24.3714 551.356 24.307 551.163 Q24.2426 550.969 24.2104 550.583 Q24.1782 550.036 24.0171 548.2 Q23.8239 546.364 23.6951 544.786 Q23.5663 543.208 23.5663 542.532 Q23.5663 542.145 23.7595 541.952 Q23.9205 541.726 24.1138 541.694 L24.2748 541.694 Z" fill="#000000" fill-rule="nonzero" fill-opacity="1" /><path clip-path="url(#clip270)" d="M472.315 12.096 L480.578 12.096 L493.298 63.2184 L505.978 12.096 L515.173 12.096 L527.893 63.2184 L540.572 12.096 L548.877 12.096 L533.686 72.576 L523.396 72.576 L510.636 20.0763 L497.754 72.576 L487.465 72.576 L472.315 12.096 Z" fill="#000000" fill-rule="nonzero" fill-opacity="1" /><path clip-path="url(#clip270)" d="M574.721 49.7694 Q565.688 49.7694 562.204 51.8354 Q558.72 53.9013 558.72 58.8839 Q558.72 62.8538 561.313 65.2034 Q563.946 67.5124 568.442 67.5124 Q574.64 67.5124 578.367 63.1374 Q582.135 58.7219 582.135 51.4303 L582.135 49.7694 L574.721 49.7694 M589.588 46.6907 L589.588 72.576 L582.135 72.576 L582.135 65.6895 Q579.582 69.8214 575.775 71.8063 Q571.967 73.7508 566.458 73.7508 Q559.49 73.7508 555.358 69.8619 Q551.267 65.9325 551.267 59.3701 Q551.267 51.7138 556.371 47.825 Q561.515 43.9361 571.683 43.9361 L582.135 43.9361 L582.135 43.2069 Q582.135 38.0623 578.732 35.2672 Q575.37 32.4315 569.253 32.4315 Q565.364 32.4315 561.677 33.3632 Q557.991 34.295 554.588 36.1584 L554.588 29.2718 Q558.68 27.692 562.528 26.9223 Q566.377 26.1121 570.022 26.1121 Q579.866 26.1121 584.727 31.2163 Q589.588 36.3204 589.588 46.6907 Z" fill="#000000" fill-rule="nonzero" fill-opacity="1" /><path clip-path="url(#clip270)" d="M599.594 27.2059 L607.493 27.2059 L621.671 65.2844 L635.85 27.2059 L643.749 27.2059 L626.735 72.576 L616.608 72.576 L599.594 27.2059 Z" fill="#000000" fill-rule="nonzero" fill-opacity="1" /><path clip-path="url(#clip270)" d="M692.846 48.0275 L692.846 51.6733 L658.575 51.6733 Q659.061 59.3701 663.193 63.421 Q667.366 67.4314 674.779 67.4314 Q679.073 67.4314 683.083 66.3781 Q687.134 65.3249 691.104 63.2184 L691.104 70.267 Q687.093 71.9684 682.881 72.8596 Q678.668 73.7508 674.333 73.7508 Q663.477 73.7508 657.117 67.4314 Q650.797 61.1119 650.797 50.3365 Q650.797 39.1965 656.793 32.6746 Q662.829 26.1121 673.037 26.1121 Q682.192 26.1121 687.499 32.0264 Q692.846 37.9003 692.846 48.0275 M685.392 45.84 Q685.311 39.7232 681.949 36.0774 Q678.627 32.4315 673.118 32.4315 Q666.879 32.4315 663.112 35.9558 Q659.385 39.4801 658.818 45.8805 L685.392 45.84 Z" fill="#000000" fill-rule="nonzero" fill-opacity="1" /><path clip-path="url(#clip270)" d="M718.326 12.096 L725.212 12.096 L704.148 80.2727 L697.261 80.2727 L718.326 12.096 Z" fill="#000000" fill-rule="nonzero" fill-opacity="1" /><path clip-path="url(#clip270)" d="M733.355 12.096 L741.538 12.096 L741.538 36.8875 L771.271 36.8875 L771.271 12.096 L779.454 12.096 L779.454 72.576 L771.271 72.576 L771.271 43.7741 L741.538 43.7741 L741.538 72.576 L733.355 72.576 L733.355 12.096 Z" fill="#000000" fill-rule="nonzero" fill-opacity="1" /><path clip-path="url(#clip270)" d="M834.222 48.0275 L834.222 51.6733 L799.952 51.6733 Q800.438 59.3701 804.57 63.421 Q808.742 67.4314 816.155 67.4314 Q820.449 67.4314 824.46 66.3781 Q828.511 65.3249 832.48 63.2184 L832.48 70.267 Q828.47 71.9684 824.257 72.8596 Q820.044 73.7508 815.71 73.7508 Q804.853 73.7508 798.493 67.4314 Q792.174 61.1119 792.174 50.3365 Q792.174 39.1965 798.169 32.6746 Q804.205 26.1121 814.413 26.1121 Q823.568 26.1121 828.875 32.0264 Q834.222 37.9003 834.222 48.0275 M826.769 45.84 Q826.688 39.7232 823.325 36.0774 Q820.004 32.4315 814.494 32.4315 Q808.256 32.4315 804.489 35.9558 Q800.762 39.4801 800.195 45.8805 L826.769 45.84 Z" fill="#000000" fill-rule="nonzero" fill-opacity="1" /><path clip-path="url(#clip270)" d="M867.075 49.7694 Q858.042 49.7694 854.558 51.8354 Q851.074 53.9013 851.074 58.8839 Q851.074 62.8538 853.667 65.2034 Q856.3 67.5124 860.796 67.5124 Q866.994 67.5124 870.721 63.1374 Q874.488 58.7219 874.488 51.4303 L874.488 49.7694 L867.075 49.7694 M881.942 46.6907 L881.942 72.576 L874.488 72.576 L874.488 65.6895 Q871.936 69.8214 868.128 71.8063 Q864.321 73.7508 858.811 73.7508 Q851.844 73.7508 847.712 69.8619 Q843.62 65.9325 843.62 59.3701 Q843.62 51.7138 848.725 47.825 Q853.869 43.9361 864.037 43.9361 L874.488 43.9361 L874.488 43.2069 Q874.488 38.0623 871.086 35.2672 Q867.723 32.4315 861.606 32.4315 Q857.718 32.4315 854.031 33.3632 Q850.345 34.295 846.942 36.1584 L846.942 29.2718 Q851.034 27.692 854.882 26.9223 Q858.73 26.1121 862.376 26.1121 Q872.22 26.1121 877.081 31.2163 Q881.942 36.3204 881.942 46.6907 Z" fill="#000000" fill-rule="nonzero" fill-opacity="1" /><path clip-path="url(#clip270)" d="M891.948 27.2059 L899.847 27.2059 L914.025 65.2844 L928.203 27.2059 L936.103 27.2059 L919.089 72.576 L908.961 72.576 L891.948 27.2059 Z" fill="#000000" fill-rule="nonzero" fill-opacity="1" /><path clip-path="url(#clip270)" d="M985.199 48.0275 L985.199 51.6733 L950.929 51.6733 Q951.415 59.3701 955.547 63.421 Q959.719 67.4314 967.132 67.4314 Q971.426 67.4314 975.437 66.3781 Q979.488 65.3249 983.458 63.2184 L983.458 70.267 Q979.447 71.9684 975.234 72.8596 Q971.021 73.7508 966.687 73.7508 Q955.83 73.7508 949.471 67.4314 Q943.151 61.1119 943.151 50.3365 Q943.151 39.1965 949.146 32.6746 Q955.182 26.1121 965.391 26.1121 Q974.546 26.1121 979.852 32.0264 Q985.199 37.9003 985.199 48.0275 M977.746 45.84 Q977.665 39.7232 974.303 36.0774 Q970.981 32.4315 965.472 32.4315 Q959.233 32.4315 955.466 35.9558 Q951.739 39.4801 951.172 45.8805 L977.746 45.84 Z" fill="#000000" fill-rule="nonzero" fill-opacity="1" /><path clip-path="url(#clip270)" d="M1044.42 49.7694 Q1035.39 49.7694 1031.91 51.8354 Q1028.42 53.9013 1028.42 58.8839 Q1028.42 62.8538 1031.02 65.2034 Q1033.65 67.5124 1038.14 67.5124 Q1044.34 67.5124 1048.07 63.1374 Q1051.84 58.7219 1051.84 51.4303 L1051.84 49.7694 L1044.42 49.7694 M1059.29 46.6907 L1059.29 72.576 L1051.84 72.576 L1051.84 65.6895 Q1049.28 69.8214 1045.48 71.8063 Q1041.67 73.7508 1036.16 73.7508 Q1029.19 73.7508 1025.06 69.8619 Q1020.97 65.9325 1020.97 59.3701 Q1020.97 51.7138 1026.07 47.825 Q1031.22 43.9361 1041.39 43.9361 L1051.84 43.9361 L1051.84 43.2069 Q1051.84 38.0623 1048.43 35.2672 Q1045.07 32.4315 1038.95 32.4315 Q1035.07 32.4315 1031.38 33.3632 Q1027.69 34.295 1024.29 36.1584 L1024.29 29.2718 Q1028.38 27.692 1032.23 26.9223 Q1036.08 26.1121 1039.72 26.1121 Q1049.57 26.1121 1054.43 31.2163 Q1059.29 36.3204 1059.29 46.6907 Z" fill="#000000" fill-rule="nonzero" fill-opacity="1" /><path clip-path="url(#clip270)" d="M1109.97 35.9153 Q1112.76 30.8922 1116.65 28.5022 Q1120.54 26.1121 1125.81 26.1121 Q1132.9 26.1121 1136.74 31.0947 Q1140.59 36.0368 1140.59 45.1919 L1140.59 72.576 L1133.1 72.576 L1133.1 45.4349 Q1133.1 38.913 1130.79 35.7533 Q1128.48 32.5936 1123.74 32.5936 Q1117.95 32.5936 1114.59 36.4419 Q1111.22 40.2903 1111.22 46.9338 L1111.22 72.576 L1103.73 72.576 L1103.73 45.4349 Q1103.73 38.8725 1101.42 35.7533 Q1099.11 32.5936 1094.29 32.5936 Q1088.58 32.5936 1085.22 36.4824 Q1081.85 40.3308 1081.85 46.9338 L1081.85 72.576 L1074.36 72.576 L1074.36 27.2059 L1081.85 27.2059 L1081.85 34.2544 Q1084.41 30.082 1087.97 28.0971 Q1091.54 26.1121 1096.44 26.1121 Q1101.38 26.1121 1104.82 28.6237 Q1108.31 31.1352 1109.97 35.9153 Z" fill="#000000" fill-rule="nonzero" fill-opacity="1" /><path clip-path="url(#clip270)" d="M1162.67 65.7705 L1162.67 89.8329 L1155.18 89.8329 L1155.18 27.2059 L1162.67 27.2059 L1162.67 34.0924 Q1165.02 30.0415 1168.58 28.0971 Q1172.19 26.1121 1177.17 26.1121 Q1185.44 26.1121 1190.58 32.6746 Q1195.77 39.2371 1195.77 49.9314 Q1195.77 60.6258 1190.58 67.1883 Q1185.44 73.7508 1177.17 73.7508 Q1172.19 73.7508 1168.58 71.8063 Q1165.02 69.8214 1162.67 65.7705 M1188.03 49.9314 Q1188.03 41.7081 1184.63 37.0496 Q1181.26 32.3505 1175.35 32.3505 Q1169.43 32.3505 1166.03 37.0496 Q1162.67 41.7081 1162.67 49.9314 Q1162.67 58.1548 1166.03 62.8538 Q1169.43 67.5124 1175.35 67.5124 Q1181.26 67.5124 1184.63 62.8538 Q1188.03 58.1548 1188.03 49.9314 Z" fill="#000000" fill-rule="nonzero" fill-opacity="1" /><path clip-path="url(#clip270)" d="M1208.12 9.54393 L1215.57 9.54393 L1215.57 72.576 L1208.12 72.576 L1208.12 9.54393 Z" fill="#000000" fill-rule="nonzero" fill-opacity="1" /><path clip-path="url(#clip270)" d="M1231.17 27.2059 L1238.62 27.2059 L1238.62 72.576 L1231.17 72.576 L1231.17 27.2059 M1231.17 9.54393 L1238.62 9.54393 L1238.62 18.9825 L1231.17 18.9825 L1231.17 9.54393 Z" fill="#000000" fill-rule="nonzero" fill-opacity="1" /><path clip-path="url(#clip270)" d="M1261.59 14.324 L1261.59 27.2059 L1276.95 27.2059 L1276.95 32.9987 L1261.59 32.9987 L1261.59 57.6282 Q1261.59 63.1779 1263.09 64.7578 Q1264.63 66.3376 1269.29 66.3376 L1276.95 66.3376 L1276.95 72.576 L1269.29 72.576 Q1260.66 72.576 1257.38 69.3758 Q1254.1 66.1351 1254.1 57.6282 L1254.1 32.9987 L1248.63 32.9987 L1248.63 27.2059 L1254.1 27.2059 L1254.1 14.324 L1261.59 14.324 Z" fill="#000000" fill-rule="nonzero" fill-opacity="1" /><path clip-path="url(#clip270)" d="M1285.98 54.671 L1285.98 27.2059 L1293.43 27.2059 L1293.43 54.3874 Q1293.43 60.8284 1295.94 64.0691 Q1298.46 67.2693 1303.48 67.2693 Q1309.51 67.2693 1313 63.421 Q1316.52 59.5726 1316.52 52.9291 L1316.52 27.2059 L1323.98 27.2059 L1323.98 72.576 L1316.52 72.576 L1316.52 65.6084 Q1313.81 69.7404 1310.2 71.7658 Q1306.64 73.7508 1301.9 73.7508 Q1294.08 73.7508 1290.03 68.8897 Q1285.98 64.0286 1285.98 54.671 M1304.73 26.1121 L1304.73 26.1121 Z" fill="#000000" fill-rule="nonzero" fill-opacity="1" /><path clip-path="url(#clip270)" d="M1369.18 34.0924 L1369.18 9.54393 L1376.64 9.54393 L1376.64 72.576 L1369.18 72.576 L1369.18 65.7705 Q1366.84 69.8214 1363.23 71.8063 Q1359.67 73.7508 1354.64 73.7508 Q1346.42 73.7508 1341.23 67.1883 Q1336.09 60.6258 1336.09 49.9314 Q1336.09 39.2371 1341.23 32.6746 Q1346.42 26.1121 1354.64 26.1121 Q1359.67 26.1121 1363.23 28.0971 Q1366.84 30.0415 1369.18 34.0924 M1343.79 49.9314 Q1343.79 58.1548 1347.15 62.8538 Q1350.55 67.5124 1356.46 67.5124 Q1362.38 67.5124 1365.78 62.8538 Q1369.18 58.1548 1369.18 49.9314 Q1369.18 41.7081 1365.78 37.0496 Q1362.38 32.3505 1356.46 32.3505 Q1350.55 32.3505 1347.15 37.0496 Q1343.79 41.7081 1343.79 49.9314 Z" fill="#000000" fill-rule="nonzero" fill-opacity="1" /><path clip-path="url(#clip270)" d="M1430.8 48.0275 L1430.8 51.6733 L1396.53 51.6733 Q1397.01 59.3701 1401.15 63.421 Q1405.32 67.4314 1412.73 67.4314 Q1417.03 67.4314 1421.04 66.3781 Q1425.09 65.3249 1429.06 63.2184 L1429.06 70.267 Q1425.05 71.9684 1420.83 72.8596 Q1416.62 73.7508 1412.29 73.7508 Q1401.43 73.7508 1395.07 67.4314 Q1388.75 61.1119 1388.75 50.3365 Q1388.75 39.1965 1394.75 32.6746 Q1400.78 26.1121 1410.99 26.1121 Q1420.15 26.1121 1425.45 32.0264 Q1430.8 37.9003 1430.8 48.0275 M1423.35 45.84 Q1423.26 39.7232 1419.9 36.0774 Q1416.58 32.4315 1411.07 32.4315 Q1404.83 32.4315 1401.07 35.9558 Q1397.34 39.4801 1396.77 45.8805 L1423.35 45.84 Z" fill="#000000" fill-rule="nonzero" fill-opacity="1" /><path clip-path="url(#clip270)" d="M1471.96 28.5427 L1471.96 35.5912 Q1468.8 33.9709 1465.39 33.1607 Q1461.99 32.3505 1458.35 32.3505 Q1452.8 32.3505 1450 34.0519 Q1447.25 35.7533 1447.25 39.156 Q1447.25 41.7486 1449.23 43.2475 Q1451.22 44.7058 1457.21 46.0426 L1459.76 46.6097 Q1467.7 48.3111 1471.02 51.4303 Q1474.39 54.509 1474.39 60.0587 Q1474.39 66.3781 1469.36 70.0644 Q1464.38 73.7508 1455.63 73.7508 Q1451.99 73.7508 1448.02 73.0216 Q1444.09 72.3329 1439.71 70.9151 L1439.71 63.2184 Q1443.84 65.3654 1447.85 66.4591 Q1451.86 67.5124 1455.79 67.5124 Q1461.06 67.5124 1463.89 65.73 Q1466.73 63.9071 1466.73 60.6258 Q1466.73 57.5877 1464.66 55.9673 Q1462.64 54.3469 1455.71 52.8481 L1453.12 52.2405 Q1446.19 50.7821 1443.11 47.7845 Q1440.04 44.7463 1440.04 39.4801 Q1440.04 33.0797 1444.57 29.5959 Q1449.11 26.1121 1457.45 26.1121 Q1461.59 26.1121 1465.23 26.7198 Q1468.88 27.3274 1471.96 28.5427 Z" fill="#000000" fill-rule="nonzero" fill-opacity="1" /><path clip-path="url(#clip270)" d="M1538.92 34.1734 Q1537.66 33.4443 1536.16 33.1202 Q1534.7 32.7556 1532.92 32.7556 Q1526.6 32.7556 1523.2 36.8875 Q1519.84 40.9789 1519.84 48.6757 L1519.84 72.576 L1512.34 72.576 L1512.34 27.2059 L1519.84 27.2059 L1519.84 34.2544 Q1522.19 30.1225 1525.95 28.1376 Q1529.72 26.1121 1535.11 26.1121 Q1535.88 26.1121 1536.81 26.2337 Q1537.74 26.3147 1538.88 26.5172 L1538.92 34.1734 Z" fill="#000000" fill-rule="nonzero" fill-opacity="1" /><path clip-path="url(#clip270)" d="M1567.35 49.7694 Q1558.32 49.7694 1554.84 51.8354 Q1551.35 53.9013 1551.35 58.8839 Q1551.35 62.8538 1553.95 65.2034 Q1556.58 67.5124 1561.08 67.5124 Q1567.27 67.5124 1571 63.1374 Q1574.77 58.7219 1574.77 51.4303 L1574.77 49.7694 L1567.35 49.7694 M1582.22 46.6907 L1582.22 72.576 L1574.77 72.576 L1574.77 65.6895 Q1572.22 69.8214 1568.41 71.8063 Q1564.6 73.7508 1559.09 73.7508 Q1552.12 73.7508 1547.99 69.8619 Q1543.9 65.9325 1543.9 59.3701 Q1543.9 51.7138 1549 47.825 Q1554.15 43.9361 1564.32 43.9361 L1574.77 43.9361 L1574.77 43.2069 Q1574.77 38.0623 1571.37 35.2672 Q1568 32.4315 1561.89 32.4315 Q1558 32.4315 1554.31 33.3632 Q1550.62 34.295 1547.22 36.1584 L1547.22 29.2718 Q1551.31 27.692 1555.16 26.9223 Q1559.01 26.1121 1562.66 26.1121 Q1572.5 26.1121 1577.36 31.2163 Q1582.22 36.3204 1582.22 46.6907 Z" fill="#000000" fill-rule="nonzero" fill-opacity="1" /><path clip-path="url(#clip270)" d="M1604.95 14.324 L1604.95 27.2059 L1620.3 27.2059 L1620.3 32.9987 L1604.95 32.9987 L1604.95 57.6282 Q1604.95 63.1779 1606.45 64.7578 Q1607.99 66.3376 1612.64 66.3376 L1620.3 66.3376 L1620.3 72.576 L1612.64 72.576 Q1604.02 72.576 1600.73 69.3758 Q1597.45 66.1351 1597.45 57.6282 L1597.45 32.9987 L1591.98 32.9987 L1591.98 27.2059 L1597.45 27.2059 L1597.45 14.324 L1604.95 14.324 Z" fill="#000000" fill-rule="nonzero" fill-opacity="1" /><path clip-path="url(#clip270)" d="M1630.1 27.2059 L1637.56 27.2059 L1637.56 72.576 L1630.1 72.576 L1630.1 27.2059 M1630.1 9.54393 L1637.56 9.54393 L1637.56 18.9825 L1630.1 18.9825 L1630.1 9.54393 Z" fill="#000000" fill-rule="nonzero" fill-opacity="1" /><path clip-path="url(#clip270)" d="M1670.73 32.4315 Q1664.74 32.4315 1661.25 37.1306 Q1657.77 41.7891 1657.77 49.9314 Q1657.77 58.0738 1661.21 62.7728 Q1664.7 67.4314 1670.73 67.4314 Q1676.69 67.4314 1680.17 62.7323 Q1683.66 58.0333 1683.66 49.9314 Q1683.66 41.8701 1680.17 37.1711 Q1676.69 32.4315 1670.73 32.4315 M1670.73 26.1121 Q1680.46 26.1121 1686.01 32.4315 Q1691.56 38.7509 1691.56 49.9314 Q1691.56 61.0714 1686.01 67.4314 Q1680.46 73.7508 1670.73 73.7508 Q1660.97 73.7508 1655.42 67.4314 Q1649.91 61.0714 1649.91 49.9314 Q1649.91 38.7509 1655.42 32.4315 Q1660.97 26.1121 1670.73 26.1121 Z" fill="#000000" fill-rule="nonzero" fill-opacity="1" /><polyline clip-path="url(#clip272)" style="stroke:#009af9; stroke-linecap:round; stroke-linejoin:round; stroke-width:4; stroke-opacity:1; fill:none" points="291.274,1009.41 314.921,991.394 335.754,973.946 354.589,957.005 371.91,940.527 388.031,924.474 403.173,908.816 417.495,893.529 431.116,878.592 444.131,863.985 456.615,849.692 468.626,835.699 480.216,821.994 491.426,808.564 502.29,795.399 512.839,782.49 523.099,769.828 533.093,757.406 542.839,745.216 552.356,733.251 561.66,721.505 570.763,709.972 579.678,698.646 588.417,687.524 596.989,676.599 605.404,665.867 613.67,655.324 621.794,644.965 629.785,634.787 637.647,624.787 645.387,614.959 653.012,605.302 660.524,595.811 667.93,586.484 675.234,577.318 682.44,568.309 689.552,559.455 696.573,550.754 703.507,542.201 710.357,533.796 717.126,525.535 723.816,517.416 730.431,509.437 736.973,501.595 743.444,493.889 749.847,486.315 756.183,478.872 762.455,471.559 768.664,464.372 774.813,457.309 780.903,450.37 786.936,443.552 792.913,436.853 798.837,430.271 804.707,423.805 810.526,417.453 816.296,411.213 822.016,405.083 827.689,399.062 833.316,393.149 838.898,387.34 844.435,381.636 849.93,376.034 855.382,370.534 860.793,365.132 866.164,359.829 871.496,354.622 876.789,349.51 882.044,344.492 887.262,339.567 892.445,334.732 897.592,329.987 902.704,325.33 907.783,320.76 912.828,316.276 917.84,311.877 922.821,307.56 927.769,303.326 932.688,299.172 937.576,295.098 942.434,291.103 947.263,287.185 952.063,283.343 956.835,279.576 961.58,275.883 966.297,272.262 970.988,268.714 975.652,265.236 980.29,261.828 984.903,258.488 989.491,255.216 994.055,252.011 998.594,248.871 1003.11,245.796 1007.6,242.785 1012.07,239.836 1016.52,236.949 1020.94,234.123 1025.34,231.357 1029.72,228.651 1034.08,226.002 1038.42,223.41 1042.73,220.876 1047.03,218.396 1051.31,215.972 1055.56,213.601 1059.8,211.284 1064.02,209.019 1068.21,206.806 1072.39,204.643 1076.55,202.531 1080.69,200.468 1084.82,198.453 1088.92,196.486 1093.01,194.567 1097.08,192.693 1101.14,190.866 1105.17,189.083 1109.19,187.345 1113.2,185.65 1117.18,183.999 1121.15,182.389 1125.11,180.822 1129.05,179.295 1132.97,177.809 1136.88,176.363 1140.77,174.956 1144.65,173.587 1148.51,172.257 1152.36,170.964 1156.19,169.708 1160.01,168.488 1163.82,167.304 1167.61,166.155 1171.38,165.041 1175.15,163.961 1178.9,162.915 1182.63,161.901 1186.36,160.921 1190.06,159.972 1193.76,159.055 1197.44,158.169 1201.12,157.314 1204.77,156.489 1208.42,155.694 1212.05,154.927 1215.67,154.19 1219.28,153.481 1222.88,152.8 1226.46,152.146 1230.04,151.52 1233.6,150.92 1237.15,150.346 1240.69,149.798 1244.22,149.275 1247.73,148.778 1251.24,148.305 1254.73,147.856 1258.21,147.431 1261.69,147.03 1265.15,146.651 1268.6,146.296 1272.04,145.963 1275.47,145.651 1278.89,145.362 1282.3,145.094 1285.7,144.847 1289.09,144.621 1292.47,144.415 1295.84,144.229 1299.2,144.062 1302.55,143.916 1305.89,143.788 1309.22,143.679 1312.54,143.589 1315.85,143.517 1319.15,143.462 1322.45,143.426 1325.73,143.406 1329.01,143.404 1332.27,143.419 1335.53,143.45 1338.78,143.497 1342.02,143.561 1345.25,143.64 1348.47,143.735 1351.69,143.845 1354.89,143.97 1358.09,144.109 1361.28,144.264 1364.46,144.432 1367.63,144.615 1370.79,144.811 1373.95,145.021 1377.1,145.245 1380.24,145.481 1383.37,145.731 1386.49,145.993 1389.61,146.268 1392.72,146.555 1395.82,146.854 1398.91,147.165 1402,147.488 1405.08,147.822 1408.15,148.168 1411.21,148.525 1414.27,148.893 1417.31,149.271 1420.36,149.66 1423.39,150.06 1426.42,150.47 1429.44,150.89 1432.45,151.32 1435.46,151.759 1438.46,152.208 1441.45,152.667 1444.43,153.135 1447.41,153.612 1450.38,154.097 1453.35,154.592 1456.31,155.095 1459.26,155.607 1462.2,156.127 1465.14,156.655 1468.07,157.191 1471,157.736 1473.92,158.288 1476.83,158.847 1479.74,159.414 1482.64,159.989 1485.53,160.571 1488.42,161.159 1491.3,161.755 1494.18,162.358 1497.04,162.967 1499.91,163.583 1502.77,164.206 1505.62,164.835 1508.46,165.47 1511.3,166.111 1514.13,166.758 1516.96,167.411 1519.78,168.07 1522.6,168.735 1525.41,169.406 1528.22,170.081 1531.02,170.763 1533.81,171.449 1536.6,172.141 1539.38,172.838 1542.16,173.539 1544.93,174.246 1547.69,174.958 1550.45,175.674 1553.21,176.395 1555.96,177.12 1558.7,177.85 1561.44,178.584 1564.18,179.322 1566.91,180.065 1569.63,180.811 1572.35,181.562 1575.06,182.317 1577.77,183.075 1580.47,183.837 1583.17,184.603 1585.86,185.373 1588.55,186.146 1591.23,186.922 1593.91,187.702 1596.59,188.485 1599.25,189.272 1601.92,190.061 1604.58,190.854 1607.23,191.65 1609.88,192.449 1612.52,193.25 1615.16,194.055 1617.8,194.862 1620.43,195.672 1623.05,196.484 1625.67,197.3 1628.29,198.117 1630.9,198.937 1633.51,199.76 1636.11,200.585 1638.71,201.412 1641.3,202.241 1643.89,203.073 1646.47,203.907 1649.05,204.742 1651.63,205.58 1654.2,206.42 1656.77,207.262 1659.33,208.105 1661.89,208.95 1664.44,209.797 1666.99,210.646 1669.54,211.497 1672.08,212.349 1674.62,213.202 1677.15,214.057 1679.68,214.914 1682.2,215.772 1684.72,216.631 1687.24,217.492 1689.75,218.354 1692.26,219.217 1694.76,220.081 1697.26,220.947 1699.76,221.814 1702.25,222.681 1704.74,223.55 1707.23,224.42 1709.71,225.291 1712.18,226.163 1714.65,227.035 1717.12,227.909 1719.59,228.783 1722.05,229.658 1724.51,230.534 1726.96,231.411 1729.41,232.288 1731.85,233.166 1734.3,234.045 1736.74,234.924 1739.17,235.804 1741.6,236.684 1744.03,237.565 1746.45,238.446 1748.87,239.327 1751.29,240.209 1753.7,241.092 1756.11,241.974 1758.51,242.857 1760.92,243.741 1763.32,244.624 1765.71,245.508 1768.1,246.392 1770.49,247.276 1772.87,248.16 1775.25,249.045 1777.63,249.929 1780.01,250.814 1782.38,251.699 1784.74,252.583 1787.11,253.468 1789.47,254.353 1791.82,255.237 1794.18,256.122 1796.53,257.006 1798.88,257.891 1801.22,258.775 1803.56,259.659 1805.9,260.543 1808.23,261.427 1810.56,262.31 1812.89,263.193 1815.21,264.076 1817.53,264.959 1819.85,265.841 1822.16,266.724 1824.48,267.605 1826.78,268.487 1829.09,269.368 1831.39,270.248 1833.69,271.129 1835.98,272.009 1838.28,272.888 1840.57,273.767 1842.85,274.645 1845.14,275.523 1847.42,276.401 1849.69,277.278 1851.97,278.154 1854.24,279.03 1856.51,279.905 1858.77,280.78 1861.03,281.654 1863.29,282.528 1865.55,283.401 1867.8,284.273 1870.05,285.145 1872.3,286.016 1874.55,286.886 1876.79,287.756 1879.03,288.624 1881.26,289.493 1883.49,290.36 1885.72,291.227 1887.95,292.093 1890.18,292.958 1892.4,293.822 1894.62,294.686 1896.83,295.549 1899.05,296.411 1901.26,297.272 1903.46,298.133 "/>
<circle clip-path="url(#clip272)" cx="260.406" cy="1005.04" r="14.4" fill="#e26f46" fill-rule="evenodd" fill-opacity="1" stroke="#000000" stroke-opacity="1" stroke-width="2.4"/>
<circle clip-path="url(#clip272)" cx="306.923" cy="1001.55" r="14.4" fill="#e26f46" fill-rule="evenodd" fill-opacity="1" stroke="#000000" stroke-opacity="1" stroke-width="2.4"/>
<circle clip-path="url(#clip272)" cx="327.232" cy="980.589" r="14.4" fill="#e26f46" fill-rule="evenodd" fill-opacity="1" stroke="#000000" stroke-opacity="1" stroke-width="2.4"/>
<circle clip-path="url(#clip272)" cx="362.026" cy="935.179" r="14.4" fill="#e26f46" fill-rule="evenodd" fill-opacity="1" stroke="#000000" stroke-opacity="1" stroke-width="2.4"/>
<circle clip-path="url(#clip272)" cx="417.236" cy="917.714" r="14.4" fill="#e26f46" fill-rule="evenodd" fill-opacity="1" stroke="#000000" stroke-opacity="1" stroke-width="2.4"/>
<circle clip-path="url(#clip272)" cx="463.654" cy="868.812" r="14.4" fill="#e26f46" fill-rule="evenodd" fill-opacity="1" stroke="#000000" stroke-opacity="1" stroke-width="2.4"/>
<circle clip-path="url(#clip272)" cx="486.885" cy="854.84" r="14.4" fill="#e26f46" fill-rule="evenodd" fill-opacity="1" stroke="#000000" stroke-opacity="1" stroke-width="2.4"/>
<circle clip-path="url(#clip272)" cx="518.756" cy="802.444" r="14.4" fill="#e26f46" fill-rule="evenodd" fill-opacity="1" stroke="#000000" stroke-opacity="1" stroke-width="2.4"/>
<circle clip-path="url(#clip272)" cx="579.682" cy="739.57" r="14.4" fill="#e26f46" fill-rule="evenodd" fill-opacity="1" stroke="#000000" stroke-opacity="1" stroke-width="2.4"/>
<circle clip-path="url(#clip272)" cx="634.677" cy="624.3" r="14.4" fill="#e26f46" fill-rule="evenodd" fill-opacity="1" stroke="#000000" stroke-opacity="1" stroke-width="2.4"/>
<circle clip-path="url(#clip272)" cx="689.818" cy="575.397" r="14.4" fill="#e26f46" fill-rule="evenodd" fill-opacity="1" stroke="#000000" stroke-opacity="1" stroke-width="2.4"/>
<circle clip-path="url(#clip272)" cx="683.971" cy="561.425" r="14.4" fill="#e26f46" fill-rule="evenodd" fill-opacity="1" stroke="#000000" stroke-opacity="1" stroke-width="2.4"/>
<circle clip-path="url(#clip272)" cx="742.02" cy="512.523" r="14.4" fill="#e26f46" fill-rule="evenodd" fill-opacity="1" stroke="#000000" stroke-opacity="1" stroke-width="2.4"/>
<circle clip-path="url(#clip272)" cx="794.276" cy="474.1" r="14.4" fill="#e26f46" fill-rule="evenodd" fill-opacity="1" stroke="#000000" stroke-opacity="1" stroke-width="2.4"/>
<circle clip-path="url(#clip272)" cx="846.555" cy="446.155" r="14.4" fill="#e26f46" fill-rule="evenodd" fill-opacity="1" stroke="#000000" stroke-opacity="1" stroke-width="2.4"/>
<circle clip-path="url(#clip272)" cx="904.543" cy="369.309" r="14.4" fill="#e26f46" fill-rule="evenodd" fill-opacity="1" stroke="#000000" stroke-opacity="1" stroke-width="2.4"/>
<circle clip-path="url(#clip272)" cx="959.699" cy="327.392" r="14.4" fill="#e26f46" fill-rule="evenodd" fill-opacity="1" stroke="#000000" stroke-opacity="1" stroke-width="2.4"/>
<circle clip-path="url(#clip272)" cx="1014.82" cy="271.504" r="14.4" fill="#e26f46" fill-rule="evenodd" fill-opacity="1" stroke="#000000" stroke-opacity="1" stroke-width="2.4"/>
<circle clip-path="url(#clip272)" cx="1026.39" cy="243.56" r="14.4" fill="#e26f46" fill-rule="evenodd" fill-opacity="1" stroke="#000000" stroke-opacity="1" stroke-width="2.4"/>
<circle clip-path="url(#clip272)" cx="1119.32" cy="187.671" r="14.4" fill="#e26f46" fill-rule="evenodd" fill-opacity="1" stroke="#000000" stroke-opacity="1" stroke-width="2.4"/>
<circle clip-path="url(#clip272)" cx="1177.65" cy="264.518" r="14.4" fill="#e26f46" fill-rule="evenodd" fill-opacity="1" stroke="#000000" stroke-opacity="1" stroke-width="2.4"/>
<circle clip-path="url(#clip272)" cx="1235.82" cy="271.504" r="14.4" fill="#e26f46" fill-rule="evenodd" fill-opacity="1" stroke="#000000" stroke-opacity="1" stroke-width="2.4"/>
<circle clip-path="url(#clip272)" cx="1290.96" cy="222.602" r="14.4" fill="#e26f46" fill-rule="evenodd" fill-opacity="1" stroke="#000000" stroke-opacity="1" stroke-width="2.4"/>
<circle clip-path="url(#clip272)" cx="1340.52" cy="278.49" r="14.4" fill="#e26f46" fill-rule="evenodd" fill-opacity="1" stroke="#000000" stroke-opacity="1" stroke-width="2.4"/>
<circle clip-path="url(#clip272)" cx="1395.93" cy="355.337" r="14.4" fill="#e26f46" fill-rule="evenodd" fill-opacity="1" stroke="#000000" stroke-opacity="1" stroke-width="2.4"/>
<circle clip-path="url(#clip272)" cx="1433.63" cy="306.434" r="14.4" fill="#e26f46" fill-rule="evenodd" fill-opacity="1" stroke="#000000" stroke-opacity="1" stroke-width="2.4"/>
<path clip-path="url(#clip270)" d="M269.169 303.543 L744.234 303.543 L744.234 148.023 L269.169 148.023  Z" fill="#ffffff" fill-rule="evenodd" fill-opacity="1"/>
<polyline clip-path="url(#clip270)" style="stroke:#000000; stroke-linecap:round; stroke-linejoin:round; stroke-width:4; stroke-opacity:1; fill:none" points="269.169,303.543 744.234,303.543 744.234,148.023 269.169,148.023 269.169,303.543 "/>
<polyline clip-path="url(#clip270)" style="stroke:#009af9; stroke-linecap:round; stroke-linejoin:round; stroke-width:4; stroke-opacity:1; fill:none" points="288.521,199.863 404.63,199.863 "/>
<path clip-path="url(#clip270)" d="M423.982 182.583 L428.681 182.583 L428.681 203.578 Q428.681 209.134 430.695 211.587 Q432.708 214.018 437.222 214.018 Q441.713 214.018 443.727 211.587 Q445.741 209.134 445.741 203.578 L445.741 182.583 L450.44 182.583 L450.44 204.157 Q450.44 210.916 447.083 214.365 Q443.75 217.814 437.222 217.814 Q430.671 217.814 427.315 214.365 Q423.982 210.916 423.982 204.157 L423.982 182.583 Z" fill="#000000" fill-rule="nonzero" fill-opacity="1" /><path clip-path="url(#clip270)" d="M474.051 195.199 Q473.333 194.782 472.477 194.597 Q471.643 194.388 470.625 194.388 Q467.014 194.388 465.069 196.75 Q463.148 199.087 463.148 203.486 L463.148 217.143 L458.866 217.143 L458.866 191.217 L463.148 191.217 L463.148 195.245 Q464.491 192.884 466.643 191.75 Q468.796 190.592 471.875 190.592 Q472.315 190.592 472.847 190.662 Q473.379 190.708 474.028 190.824 L474.051 195.199 Z" fill="#000000" fill-rule="nonzero" fill-opacity="1" /><path clip-path="url(#clip270)" d="M495.046 191.981 L495.046 196.009 Q493.24 195.083 491.296 194.62 Q489.352 194.157 487.268 194.157 Q484.097 194.157 482.5 195.129 Q480.926 196.101 480.926 198.046 Q480.926 199.527 482.06 200.384 Q483.194 201.217 486.62 201.981 L488.078 202.305 Q492.615 203.277 494.514 205.06 Q496.435 206.819 496.435 209.99 Q496.435 213.601 493.565 215.708 Q490.717 217.814 485.717 217.814 Q483.634 217.814 481.366 217.398 Q479.12 217.004 476.62 216.194 L476.62 211.796 Q478.981 213.023 481.273 213.648 Q483.565 214.249 485.81 214.249 Q488.819 214.249 490.44 213.231 Q492.06 212.189 492.06 210.314 Q492.06 208.578 490.879 207.652 Q489.722 206.726 485.764 205.87 L484.282 205.523 Q480.324 204.689 478.565 202.976 Q476.805 201.24 476.805 198.231 Q476.805 194.574 479.398 192.583 Q481.991 190.592 486.759 190.592 Q489.12 190.592 491.203 190.939 Q493.287 191.287 495.046 191.981 Z" fill="#000000" fill-rule="nonzero" fill-opacity="1" /><path clip-path="url(#clip270)" d="M525.393 203.115 L525.393 205.199 L505.81 205.199 Q506.088 209.597 508.449 211.911 Q510.833 214.203 515.069 214.203 Q517.523 214.203 519.814 213.601 Q522.129 212.999 524.398 211.796 L524.398 215.823 Q522.106 216.796 519.699 217.305 Q517.291 217.814 514.814 217.814 Q508.611 217.814 504.977 214.203 Q501.365 210.592 501.365 204.435 Q501.365 198.069 504.791 194.342 Q508.24 190.592 514.074 190.592 Q519.305 190.592 522.338 193.972 Q525.393 197.328 525.393 203.115 M521.134 201.865 Q521.088 198.37 519.166 196.287 Q517.268 194.203 514.12 194.203 Q510.555 194.203 508.402 196.217 Q506.273 198.231 505.949 201.888 L521.134 201.865 Z" fill="#000000" fill-rule="nonzero" fill-opacity="1" /><path clip-path="url(#clip270)" d="M532.384 181.125 L536.643 181.125 L536.643 217.143 L532.384 217.143 L532.384 181.125 Z" fill="#000000" fill-rule="nonzero" fill-opacity="1" /><path clip-path="url(#clip270)" d="M545.555 181.125 L549.814 181.125 L549.814 217.143 L545.555 217.143 L545.555 181.125 Z" fill="#000000" fill-rule="nonzero" fill-opacity="1" /><path clip-path="url(#clip270)" d="M584.027 181.171 Q580.925 186.495 579.421 191.703 Q577.916 196.912 577.916 202.259 Q577.916 207.606 579.421 212.861 Q580.948 218.092 584.027 223.393 L580.323 223.393 Q576.851 217.953 575.115 212.698 Q573.402 207.444 573.402 202.259 Q573.402 197.097 575.115 191.865 Q576.828 186.634 580.323 181.171 L584.027 181.171 Z" fill="#000000" fill-rule="nonzero" fill-opacity="1" /><path clip-path="url(#clip270)" d="M593.703 213.208 L601.342 213.208 L601.342 186.842 L593.032 188.509 L593.032 184.25 L601.295 182.583 L605.971 182.583 L605.971 213.208 L613.61 213.208 L613.61 217.143 L593.703 217.143 L593.703 213.208 Z" fill="#000000" fill-rule="nonzero" fill-opacity="1" /><path clip-path="url(#clip270)" d="M623.193 216.425 L623.193 212.166 Q624.953 212.999 626.758 213.439 Q628.564 213.879 630.3 213.879 Q634.93 213.879 637.36 210.777 Q639.814 207.652 640.161 201.31 Q638.818 203.3 636.758 204.365 Q634.698 205.43 632.198 205.43 Q627.013 205.43 623.981 202.305 Q620.971 199.157 620.971 193.717 Q620.971 188.393 624.119 185.175 Q627.268 181.958 632.499 181.958 Q638.494 181.958 641.642 186.564 Q644.814 191.148 644.814 199.898 Q644.814 208.069 640.925 212.953 Q637.059 217.814 630.508 217.814 Q628.749 217.814 626.943 217.467 Q625.138 217.12 623.193 216.425 M632.499 201.773 Q635.647 201.773 637.476 199.62 Q639.328 197.467 639.328 193.717 Q639.328 189.99 637.476 187.838 Q635.647 185.662 632.499 185.662 Q629.351 185.662 627.499 187.838 Q625.67 189.99 625.67 193.717 Q625.67 197.467 627.499 199.62 Q629.351 201.773 632.499 201.773 Z" fill="#000000" fill-rule="nonzero" fill-opacity="1" /><path clip-path="url(#clip270)" d="M666.064 186.657 L654.258 205.106 L666.064 205.106 L666.064 186.657 M664.837 182.583 L670.716 182.583 L670.716 205.106 L675.647 205.106 L675.647 208.995 L670.716 208.995 L670.716 217.143 L666.064 217.143 L666.064 208.995 L650.462 208.995 L650.462 204.481 L664.837 182.583 Z" fill="#000000" fill-rule="nonzero" fill-opacity="1" /><path clip-path="url(#clip270)" d="M683.517 216.425 L683.517 212.166 Q685.276 212.999 687.082 213.439 Q688.888 213.879 690.624 213.879 Q695.253 213.879 697.684 210.777 Q700.138 207.652 700.485 201.31 Q699.142 203.3 697.082 204.365 Q695.022 205.43 692.522 205.43 Q687.337 205.43 684.304 202.305 Q681.295 199.157 681.295 193.717 Q681.295 188.393 684.443 185.175 Q687.591 181.958 692.823 181.958 Q698.818 181.958 701.966 186.564 Q705.137 191.148 705.137 199.898 Q705.137 208.069 701.249 212.953 Q697.383 217.814 690.832 217.814 Q689.073 217.814 687.267 217.467 Q685.462 217.12 683.517 216.425 M692.823 201.773 Q695.971 201.773 697.8 199.62 Q699.651 197.467 699.651 193.717 Q699.651 189.99 697.8 187.838 Q695.971 185.662 692.823 185.662 Q689.675 185.662 687.823 187.838 Q685.994 189.99 685.994 193.717 Q685.994 197.467 687.823 199.62 Q689.675 201.773 692.823 201.773 Z" fill="#000000" fill-rule="nonzero" fill-opacity="1" /><path clip-path="url(#clip270)" d="M712.267 181.171 L715.971 181.171 Q719.443 186.634 721.156 191.865 Q722.892 197.097 722.892 202.259 Q722.892 207.444 721.156 212.698 Q719.443 217.953 715.971 223.393 L712.267 223.393 Q715.346 218.092 716.85 212.861 Q718.378 207.606 718.378 202.259 Q718.378 196.912 716.85 191.703 Q715.346 186.495 712.267 181.171 Z" fill="#000000" fill-rule="nonzero" fill-opacity="1" /><circle clip-path="url(#clip270)" cx="346.575" cy="251.703" r="20.48" fill="#e26f46" fill-rule="evenodd" fill-opacity="1" stroke="#000000" stroke-opacity="1" stroke-width="3.41333"/>
<path clip-path="url(#clip270)" d="M437.176 268.983 L423.982 234.423 L428.866 234.423 L439.815 263.52 L450.787 234.423 L455.648 234.423 L442.477 268.983 L437.176 268.983 Z" fill="#000000" fill-rule="nonzero" fill-opacity="1" /><path clip-path="url(#clip270)" d="M456.852 258.751 L456.852 243.057 L461.111 243.057 L461.111 258.589 Q461.111 262.27 462.546 264.122 Q463.981 265.951 466.852 265.951 Q470.301 265.951 472.292 263.751 Q474.305 261.552 474.305 257.756 L474.305 243.057 L478.565 243.057 L478.565 268.983 L474.305 268.983 L474.305 265.001 Q472.754 267.363 470.694 268.52 Q468.657 269.654 465.949 269.654 Q461.481 269.654 459.167 266.876 Q456.852 264.099 456.852 258.751 M467.569 242.432 L467.569 242.432 Z" fill="#000000" fill-rule="nonzero" fill-opacity="1" /><path clip-path="url(#clip270)" d="M504.398 255.719 Q504.398 251.089 502.477 248.543 Q500.578 245.997 497.129 245.997 Q493.703 245.997 491.782 248.543 Q489.884 251.089 489.884 255.719 Q489.884 260.326 491.782 262.872 Q493.703 265.418 497.129 265.418 Q500.578 265.418 502.477 262.872 Q504.398 260.326 504.398 255.719 M508.657 265.765 Q508.657 272.386 505.717 275.603 Q502.777 278.844 496.713 278.844 Q494.467 278.844 492.477 278.497 Q490.486 278.173 488.611 277.478 L488.611 273.335 Q490.486 274.353 492.315 274.839 Q494.143 275.325 496.041 275.325 Q500.231 275.325 502.314 273.126 Q504.398 270.95 504.398 266.529 L504.398 264.423 Q503.078 266.714 501.018 267.849 Q498.958 268.983 496.088 268.983 Q491.319 268.983 488.403 265.349 Q485.486 261.714 485.486 255.719 Q485.486 249.701 488.403 246.066 Q491.319 242.432 496.088 242.432 Q498.958 242.432 501.018 243.566 Q503.078 244.701 504.398 246.992 L504.398 243.057 L508.657 243.057 L508.657 265.765 Z" fill="#000000" fill-rule="nonzero" fill-opacity="1" /><path clip-path="url(#clip270)" d="M521.643 235.696 L521.643 243.057 L530.416 243.057 L530.416 246.367 L521.643 246.367 L521.643 260.441 Q521.643 263.613 522.5 264.515 Q523.379 265.418 526.041 265.418 L530.416 265.418 L530.416 268.983 L526.041 268.983 Q521.111 268.983 519.236 267.154 Q517.361 265.302 517.361 260.441 L517.361 246.367 L514.236 246.367 L514.236 243.057 L517.361 243.057 L517.361 235.696 L521.643 235.696 Z" fill="#000000" fill-rule="nonzero" fill-opacity="1" /><path clip-path="url(#clip270)" d="M552.546 243.821 L552.546 247.849 Q550.74 246.923 548.796 246.46 Q546.851 245.997 544.768 245.997 Q541.597 245.997 539.999 246.969 Q538.425 247.941 538.425 249.886 Q538.425 251.367 539.56 252.224 Q540.694 253.057 544.12 253.821 L545.578 254.145 Q550.115 255.117 552.013 256.9 Q553.935 258.659 553.935 261.83 Q553.935 265.441 551.064 267.548 Q548.217 269.654 543.217 269.654 Q541.134 269.654 538.865 269.238 Q536.62 268.844 534.12 268.034 L534.12 263.636 Q536.481 264.863 538.773 265.488 Q541.064 266.089 543.31 266.089 Q546.319 266.089 547.939 265.071 Q549.56 264.029 549.56 262.154 Q549.56 260.418 548.379 259.492 Q547.222 258.566 543.263 257.71 L541.782 257.363 Q537.824 256.529 536.064 254.816 Q534.305 253.08 534.305 250.071 Q534.305 246.414 536.898 244.423 Q539.49 242.432 544.259 242.432 Q546.62 242.432 548.703 242.779 Q550.786 243.127 552.546 243.821 Z" fill="#000000" fill-rule="nonzero" fill-opacity="1" /><path clip-path="url(#clip270)" d="M586.018 233.011 Q582.916 238.335 581.411 243.543 Q579.907 248.752 579.907 254.099 Q579.907 259.446 581.411 264.701 Q582.939 269.932 586.018 275.233 L582.314 275.233 Q578.842 269.793 577.106 264.538 Q575.393 259.284 575.393 254.099 Q575.393 248.937 577.106 243.705 Q578.819 238.474 582.314 233.011 L586.018 233.011 Z" fill="#000000" fill-rule="nonzero" fill-opacity="1" /><path clip-path="url(#clip270)" d="M595.694 265.048 L603.332 265.048 L603.332 238.682 L595.022 240.349 L595.022 236.09 L603.286 234.423 L607.962 234.423 L607.962 265.048 L615.601 265.048 L615.601 268.983 L595.694 268.983 L595.694 265.048 Z" fill="#000000" fill-rule="nonzero" fill-opacity="1" /><path clip-path="url(#clip270)" d="M625.184 268.265 L625.184 264.006 Q626.943 264.839 628.749 265.279 Q630.555 265.719 632.291 265.719 Q636.92 265.719 639.351 262.617 Q641.804 259.492 642.152 253.15 Q640.809 255.14 638.749 256.205 Q636.689 257.27 634.189 257.27 Q629.004 257.27 625.971 254.145 Q622.962 250.997 622.962 245.557 Q622.962 240.233 626.11 237.015 Q629.258 233.798 634.49 233.798 Q640.485 233.798 643.633 238.404 Q646.804 242.988 646.804 251.738 Q646.804 259.909 642.916 264.793 Q639.05 269.654 632.499 269.654 Q630.74 269.654 628.934 269.307 Q627.129 268.96 625.184 268.265 M634.49 253.613 Q637.638 253.613 639.467 251.46 Q641.318 249.307 641.318 245.557 Q641.318 241.83 639.467 239.678 Q637.638 237.502 634.49 237.502 Q631.342 237.502 629.49 239.678 Q627.661 241.83 627.661 245.557 Q627.661 249.307 629.49 251.46 Q631.342 253.613 634.49 253.613 Z" fill="#000000" fill-rule="nonzero" fill-opacity="1" /><path clip-path="url(#clip270)" d="M665.786 249.84 Q662.638 249.84 660.786 251.992 Q658.957 254.145 658.957 257.895 Q658.957 261.622 660.786 263.798 Q662.638 265.951 665.786 265.951 Q668.934 265.951 670.763 263.798 Q672.615 261.622 672.615 257.895 Q672.615 254.145 670.763 251.992 Q668.934 249.84 665.786 249.84 M675.068 235.187 L675.068 239.446 Q673.309 238.613 671.503 238.173 Q669.721 237.733 667.962 237.733 Q663.332 237.733 660.878 240.858 Q658.448 243.983 658.101 250.302 Q659.466 248.289 661.527 247.224 Q663.587 246.136 666.064 246.136 Q671.272 246.136 674.281 249.307 Q677.314 252.455 677.314 257.895 Q677.314 263.219 674.165 266.437 Q671.017 269.654 665.786 269.654 Q659.79 269.654 656.619 265.071 Q653.448 260.464 653.448 251.738 Q653.448 243.543 657.337 238.682 Q661.226 233.798 667.777 233.798 Q669.536 233.798 671.318 234.145 Q673.124 234.492 675.068 235.187 Z" fill="#000000" fill-rule="nonzero" fill-opacity="1" /><path clip-path="url(#clip270)" d="M695.369 252.571 Q692.036 252.571 690.114 254.353 Q688.216 256.136 688.216 259.261 Q688.216 262.386 690.114 264.168 Q692.036 265.951 695.369 265.951 Q698.702 265.951 700.624 264.168 Q702.545 262.363 702.545 259.261 Q702.545 256.136 700.624 254.353 Q698.725 252.571 695.369 252.571 M690.693 250.58 Q687.684 249.84 685.994 247.779 Q684.327 245.719 684.327 242.756 Q684.327 238.613 687.267 236.205 Q690.23 233.798 695.369 233.798 Q700.531 233.798 703.471 236.205 Q706.411 238.613 706.411 242.756 Q706.411 245.719 704.721 247.779 Q703.054 249.84 700.068 250.58 Q703.448 251.367 705.323 253.659 Q707.221 255.951 707.221 259.261 Q707.221 264.284 704.142 266.969 Q701.087 269.654 695.369 269.654 Q689.651 269.654 686.573 266.969 Q683.517 264.284 683.517 259.261 Q683.517 255.951 685.415 253.659 Q687.313 251.367 690.693 250.58 M688.98 243.196 Q688.98 245.881 690.647 247.386 Q692.337 248.89 695.369 248.89 Q698.378 248.89 700.068 247.386 Q701.781 245.881 701.781 243.196 Q701.781 240.511 700.068 239.006 Q698.378 237.502 695.369 237.502 Q692.337 237.502 690.647 239.006 Q688.98 240.511 688.98 243.196 Z" fill="#000000" fill-rule="nonzero" fill-opacity="1" /><path clip-path="url(#clip270)" d="M714.258 233.011 L717.961 233.011 Q721.434 238.474 723.147 243.705 Q724.883 248.937 724.883 254.099 Q724.883 259.284 723.147 264.538 Q721.434 269.793 717.961 275.233 L714.258 275.233 Q717.336 269.932 718.841 264.701 Q720.369 259.446 720.369 254.099 Q720.369 248.752 718.841 243.543 Q717.336 238.335 714.258 233.011 Z" fill="#000000" fill-rule="nonzero" fill-opacity="1" /></svg>
