<?xml version="1.0" encoding="UTF-8" standalone="no"?>
<!-- Created with Inkscape (http://www.inkscape.org/) -->

<svg
   width="83mm"
   height="55mm"
   viewBox="0 0 83.000001 55.000001"
   version="1.1"
   id="svg1"
   inkscape:version="1.4 (86a8ad7, 2024-10-11)"
   sodipodi:docname="intGQ_text_to_path.svg"
   xmlns:inkscape="http://www.inkscape.org/namespaces/inkscape"
   xmlns:sodipodi="http://sodipodi.sourceforge.net/DTD/sodipodi-0.dtd"
   xmlns="http://www.w3.org/2000/svg"
   xmlns:svg="http://www.w3.org/2000/svg">
  <sodipodi:namedview
     id="namedview1"
     pagecolor="#ffffff"
     bordercolor="#000000"
     borderopacity="0.25"
     inkscape:showpageshadow="2"
     inkscape:pageopacity="0.0"
     inkscape:pagecheckerboard="0"
     inkscape:deskcolor="#d1d1d1"
     inkscape:document-units="mm"
     showgrid="true"
     inkscape:zoom="2"
     inkscape:cx="186.75"
     inkscape:cy="113.75"
     inkscape:window-width="1920"
     inkscape:window-height="974"
     inkscape:window-x="-11"
     inkscape:window-y="-11"
     inkscape:window-maximized="1"
     inkscape:current-layer="layer1"
     showguides="false">
    <inkscape:grid
       id="grid1"
       units="mm"
       originx="-83.481166"
       originy="-48.669994"
       spacingx="0.99999998"
       spacingy="1"
       empcolor="#0099e5"
       empopacity="0.30196078"
       color="#0099e5"
       opacity="0.14901961"
       empspacing="5"
       enabled="true"
       visible="true" />
  </sodipodi:namedview>
  <defs
     id="defs1">
    <inkscape:path-effect
       effect="bspline"
       id="path-effect24"
       is_visible="true"
       lpeversion="1.3"
       weight="33.333333"
       steps="2"
       helper_size="0"
       apply_no_weight="true"
       apply_with_weight="true"
       only_selected="false"
       uniform="false" />
    <inkscape:path-effect
       effect="bspline"
       id="path-effect22"
       is_visible="true"
       lpeversion="1.3"
       weight="33.333333"
       steps="2"
       helper_size="0"
       apply_no_weight="true"
       apply_with_weight="true"
       only_selected="false"
       uniform="false" />
    <inkscape:path-effect
       effect="bspline"
       id="path-effect20"
       is_visible="true"
       lpeversion="1.3"
       weight="33.333333"
       steps="2"
       helper_size="0"
       apply_no_weight="true"
       apply_with_weight="true"
       only_selected="false"
       uniform="false" />
    <inkscape:path-effect
       effect="bspline"
       id="path-effect16"
       is_visible="true"
       lpeversion="1.3"
       weight="33.333333"
       steps="2"
       helper_size="0"
       apply_no_weight="true"
       apply_with_weight="true"
       only_selected="false"
       uniform="false" />
    <marker
       style="overflow:visible"
       id="marker21"
       refX="0"
       refY="0"
       orient="auto-start-reverse"
       inkscape:stockid="Concave triangle arrow"
       markerWidth="1"
       markerHeight="1"
       viewBox="0 0 1 1"
       inkscape:isstock="true"
       inkscape:collect="always"
       preserveAspectRatio="xMidYMid">
      <path
         transform="scale(0.7)"
         d="M -2,-4 9,0 -2,4 c 2,-2.33 2,-5.66 0,-8 z"
         style="fill:context-stroke;fill-rule:evenodd;stroke:none"
         id="path21" />
    </marker>
    <inkscape:path-effect
       effect="bspline"
       id="path-effect19"
       is_visible="true"
       lpeversion="1.3"
       weight="33.333333"
       steps="2"
       helper_size="0"
       apply_no_weight="true"
       apply_with_weight="true"
       only_selected="false"
       uniform="false" />
    <inkscape:path-effect
       effect="bspline"
       id="path-effect17"
       is_visible="true"
       lpeversion="1.3"
       weight="33.333333"
       steps="2"
       helper_size="0"
       apply_no_weight="true"
       apply_with_weight="true"
       only_selected="false"
       uniform="false" />
    <inkscape:path-effect
       effect="bspline"
       id="path-effect15"
       is_visible="true"
       lpeversion="1.3"
       weight="33.333333"
       steps="2"
       helper_size="0"
       apply_no_weight="true"
       apply_with_weight="true"
       only_selected="false"
       uniform="false" />
    <inkscape:path-effect
       effect="bspline"
       id="path-effect13"
       is_visible="true"
       lpeversion="1.3"
       weight="33.333333"
       steps="2"
       helper_size="0"
       apply_no_weight="true"
       apply_with_weight="true"
       only_selected="false"
       uniform="false" />
    <inkscape:path-effect
       effect="bspline"
       id="path-effect6"
       is_visible="true"
       lpeversion="1.3"
       weight="33.333333"
       steps="2"
       helper_size="0"
       apply_no_weight="true"
       apply_with_weight="true"
       only_selected="false"
       uniform="false" />
    <inkscape:path-effect
       effect="bspline"
       id="path-effect5"
       is_visible="true"
       lpeversion="1.3"
       weight="33.333333"
       steps="2"
       helper_size="0"
       apply_no_weight="true"
       apply_with_weight="true"
       only_selected="false"
       uniform="false" />
    <inkscape:path-effect
       effect="bspline"
       id="path-effect3"
       is_visible="true"
       lpeversion="1.3"
       weight="33.333333"
       steps="2"
       helper_size="0"
       apply_no_weight="true"
       apply_with_weight="true"
       only_selected="false"
       uniform="false" />
    <inkscape:path-effect
       effect="bspline"
       id="path-effect2"
       is_visible="true"
       lpeversion="1.3"
       weight="33.333333"
       steps="2"
       helper_size="0"
       apply_no_weight="true"
       apply_with_weight="true"
       only_selected="false"
       uniform="false" />
    <inkscape:path-effect
       effect="bspline"
       id="path-effect1"
       is_visible="true"
       lpeversion="1.3"
       weight="33.333333"
       steps="2"
       helper_size="0"
       apply_no_weight="true"
       apply_with_weight="true"
       only_selected="false"
       uniform="false" />
  </defs>
  <rect
     style="display:inline;fill:#ffffff;fill-opacity:1;stroke:none;stroke-width:0.451675;stroke-linecap:butt;stroke-linejoin:round;stroke-dasharray:none;stroke-dashoffset:0;stroke-opacity:1"
     id="rect39"
     width="83"
     height="55"
     x="0"
     y="0"
     inkscape:label="background" />
  <path
     style="display:inline;fill:#005073;stroke:#000000;stroke-width:0.0974481;stroke-linecap:round;stroke-linejoin:round;stroke-dasharray:none;stroke-opacity:1;marker-end:url(#marker21)"
     d="m 90.000001,59.999998 c 3.333332,0 6.666667,0 9.999999,0"
     id="path2"
     inkscape:path-effect="#path-effect2"
     inkscape:original-d="m 90.000001,59.999998 c 3.333332,0 6.666667,0 9.999999,0"
     inkscape:label="x axis"
     transform="matrix(4.1047483,0,0,4.1047483,-343.60061,-200.70951)" />
  <path
     style="display:inline;fill:#005073;stroke:#000000;stroke-width:0.0974481;stroke-linecap:round;stroke-linejoin:round;stroke-dasharray:none;stroke-opacity:1;marker-end:url(#marker21)"
     d="m 90.000001,59.999998 c 0,-3.333334 0,-6.666666 0,-10.000001"
     id="path3"
     inkscape:path-effect="#path-effect3"
     inkscape:original-d="m 90.000001,59.999998 c 0,-3.333334 0,-6.666666 0,-10.000001"
     inkscape:label="y axis"
     transform="matrix(4.1047483,0,0,4.1047483,-343.60061,-200.70951)" />
  <path
     style="display:inline;fill:#005073;stroke:#ff0000;stroke-width:0.344531;stroke-linecap:butt;stroke-linejoin:round;stroke-dasharray:none;stroke-opacity:1"
     d="m 85.000001,59.999998 c 1.666666,0 3.333334,0 5,0"
     id="path1"
     inkscape:path-effect="#path-effect1"
     inkscape:original-d="m 85.000001,59.999998 c 1.666666,0 3.333334,0 5,0"
     transform="matrix(8.2094973,0,0,-4.1047483,-692.50433,291.86029)"
     inkscape:label="element" />
  <path
     style="display:inline;fill:#0000ff;fill-opacity:1;stroke:#000000;stroke-width:0.0974481;stroke-linecap:round;stroke-linejoin:round;stroke-dasharray:0.0974481, 0.389792;stroke-dashoffset:0;stroke-opacity:1"
     d="m 95.000002,59.999998 c 1.333334,-3.000002 2.666667,-6.000001 4,-9"
     id="path6"
     inkscape:path-effect="#path-effect6"
     inkscape:original-d="m 95.000002,59.999998 c 1.333333,-3.000002 2.666667,-6.000001 4,-9"
     transform="matrix(4.1047483,0,0,4.1047483,-343.60061,-200.70951)"
     inkscape:label="tr1 ref" />
  <path
     style="display:inline;fill:#0000ff;fill-opacity:1;stroke:#000000;stroke-width:0.0974481;stroke-linecap:round;stroke-linejoin:round;stroke-dasharray:0.0974481, 0.389792;stroke-dashoffset:0;stroke-opacity:1"
     d="m 85.000001,59.999998 c 4.666669,-3.000001 9.333334,-6 14.000001,-9"
     id="path5"
     inkscape:path-effect="#path-effect5"
     inkscape:original-d="m 85.000001,59.999998 c 4.666668,-3.000002 9.333333,-6.000001 14.000001,-9"
     transform="matrix(4.1047483,0,0,4.1047483,-343.60061,-200.70951)"
     inkscape:label="tr2 ref" />
  <path
     id="path31"
     style="display:inline;fill:none;fill-opacity:1;stroke:#000000;stroke-width:0.3;stroke-linecap:butt;stroke-linejoin:round;stroke-dasharray:none;stroke-dashoffset:0;stroke-opacity:1;marker-start:url(#marker21);marker-end:url(#marker21)"
     inkscape:label="t1 ref"
     d="m 52.922529,35.406593 a 9.4868636,9.4868636 0 0 1 5.340574,8.216741" />
  <path
     id="path29"
     style="display:inline;fill:none;fill-opacity:1;stroke:#000000;stroke-width:0.3;stroke-linecap:butt;stroke-linejoin:round;stroke-dasharray:none;stroke-dashoffset:0;stroke-opacity:1;marker-start:url(#marker21);marker-end:url(#marker21)"
     inkscape:label="t2 ref"
     d="m 17.415316,40.038401 a 8.946152,8.946152 0 0 1 1.139634,3.79834" />
  <circle
     style="display:inline;fill:#0000ff;fill-opacity:1;stroke:none;stroke-width:0.124071;stroke-linecap:round;stroke-linejoin:round;stroke-dasharray:none;stroke-opacity:1"
     id="path4"
     cx="62.76947"
     cy="8.6911516"
     r="1.0261871"
     inkscape:label="field" />
  <g
     inkscape:groupmode="layer"
     id="layer1"
     inkscape:label="text"
     transform="translate(-83.481169,-48.669997)"
     style="display:inline">
    <path
       style="font-style:italic;font-size:5.79225px;font-family:Cambria;-inkscape-font-specification:'Cambria Italic';stroke-width:0.410475;stroke-linejoin:round"
       d="m 153.14688,97.256015 q -0.54868,0.585448 -1.14827,1.156754 l 0.26303,0.619386 q 0.10464,0.248885 0.16687,0.367672 0.0622,0.115958 0.11313,0.169695 0.0509,0.05091 0.10181,0.07636 0.0509,0.02263 0.16121,0.03677 l -0.0311,0.138584 h -0.70423 l -0.39313,-1.136956 q -0.0679,0.05939 -0.18101,0.166867 -0.1103,0.104645 -0.21494,0.22626 -0.10465,0.118786 -0.14707,0.19232 -0.0424,0.07353 -0.0566,0.127272 -0.0113,0.05374 -0.0113,0.110301 0,0.07353 0.0396,0.115958 0.0424,0.04242 0.14141,0.05939 l -0.0311,0.138584 h -0.80605 l -0.0537,-0.138584 q 0.61939,-0.664639 1.21898,-1.224631 l -0.26869,-0.6307 q -0.082,-0.19232 -0.13293,-0.291309 -0.0509,-0.101817 -0.099,-0.155554 -0.0453,-0.05657 -0.10748,-0.08485 -0.0594,-0.03111 -0.17252,-0.0396 l 0.0311,-0.138584 h 0.70423 l 0.37616,1.06625 q 0.13858,-0.127272 0.26303,-0.263027 0.12444,-0.135756 0.17535,-0.214947 0.0509,-0.07919 0.0707,-0.141413 0.0198,-0.06222 0.0198,-0.130099 0,-0.155554 -0.18101,-0.17818 l 0.0311,-0.138584 h 0.80605 z"
       id="text21-1"
       inkscape:label="x"
       aria-label="x" />
    <path
       style="font-style:italic;font-size:5.79225px;font-family:Cambria;-inkscape-font-specification:'Cambria Italic';stroke-width:0.410475;stroke-linejoin:round"
       d="m 104.59413,51.834087 q -0.0283,-0.214947 -0.0537,-0.296966 -0.0255,-0.08485 -0.082,-0.127271 -0.0566,-0.04525 -0.18384,-0.05374 l 0.0311,-0.138584 h 0.72686 l 0.21495,2.248457 q 0.95595,-1.306651 0.95595,-1.8723 0,-0.132928 -0.0566,-0.181008 -0.0566,-0.04808 -0.19232,-0.05656 l 0.0283,-0.138584 h 0.72968 l 0.0764,0.141412 q -0.1499,0.393127 -0.38465,0.814536 -0.23191,0.421408 -0.5713,0.922008 -0.33656,0.5006 -0.74949,1.040795 -0.31676,0.415752 -0.53171,0.627871 -0.16686,0.16121 -0.30828,0.243229 -0.13858,0.08485 -0.26868,0.118787 -0.13293,0.03677 -0.28,0.03677 -0.0764,0 -0.17252,-0.01697 -0.0962,-0.01414 -0.16404,-0.03959 l 0.12162,-0.528882 h 0.2206 q 0.003,0.09616 0.0452,0.152725 0.0424,0.05656 0.12444,0.05656 0.0905,0 0.15556,-0.0198 0.065,-0.01697 0.13575,-0.05939 0.0735,-0.04242 0.17536,-0.135756 0.10464,-0.09333 0.23474,-0.248886 0.1301,-0.152725 0.29131,-0.3705 z"
       id="text25"
       inkscape:label="y"
       aria-label="y" />
    <g
       id="text21"
       style="font-size:5.79225px;font-family:'Yu Gothic';-inkscape-font-specification:'Yu Gothic';fill:none;stroke:#000000;stroke-width:0.410475;stroke-linejoin:round"
       inkscape:label="t1"
       aria-label="θ1">
      <path
         style="font-style:italic;font-family:Cambria;-inkscape-font-specification:'Cambria Italic';fill:#000000;stroke:none"
         d="m 142.61853,87.19282 q -0.90787,0 -0.90787,-1.139784 0,-0.98423 0.52889,-1.937349 0.53171,-0.953119 1.34624,-0.953119 0.85413,0 0.85413,1.117157 0,0.989887 -0.51757,1.951491 -0.51757,0.961604 -1.30382,0.961604 z m -0.21777,-2.228659 h 1.45371 q 0.11031,-0.599588 0.11031,-0.922009 0,-0.642012 -0.43555,-0.642012 -0.33091,0 -0.62505,0.407268 -0.29413,0.407267 -0.50342,1.156753 z m -0.0707,0.265855 q -0.1499,0.636356 -0.1499,1.071906 0,0.653325 0.49212,0.653325 0.3507,0 0.63918,-0.455348 0.29131,-0.455348 0.48363,-1.269883 z m 1.15675,-2.101387 z"
         id="path7" />
      <path
         style="font-style:italic;font-size:3.76497px;font-family:Cambria;-inkscape-font-specification:'Cambria Italic';baseline-shift:sub;fill:#000000;stroke:none"
         d="m 145.62171,87.77473 q -0.0331,0.150746 -0.0331,0.215089 0,0.07354 0.0386,0.110302 0.0386,0.03493 0.12685,0.05147 0.0901,0.01471 0.27759,0.02022 l -0.0276,0.134201 h -1.29789 l 0.0276,-0.134201 q 0.15442,-0.0074 0.23715,-0.02022 0.0827,-0.01287 0.13236,-0.03493 0.0515,-0.02206 0.0827,-0.05331 0.0313,-0.03125 0.0552,-0.08273 0.0239,-0.05147 0.0459,-0.154422 l 0.29414,-1.332814 q 0.0166,-0.07721 0.0239,-0.123171 0.009,-0.04596 0.009,-0.07537 0,-0.05515 -0.0276,-0.07721 -0.0276,-0.0239 -0.0662,-0.0239 -0.0478,0 -0.14523,0.0478 -0.0974,0.04596 -0.29047,0.159937 l -0.0717,-0.147069 0.93205,-0.487166 h 0.12685 l -0.0533,0.215088 q -0.0294,0.117656 -0.0625,0.273917 z"
         id="path8" />
    </g>
    <g
       id="text21-8"
       style="font-size:5.79225px;font-family:'Yu Gothic';-inkscape-font-specification:'Yu Gothic';fill:none;stroke:#000000;stroke-width:0.410475;stroke-linejoin:round"
       inkscape:label="t2"
       aria-label="θ2">
      <path
         style="font-style:italic;font-family:Cambria;-inkscape-font-specification:'Cambria Italic';fill:#000000;stroke:none"
         d="m 104.23656,90.70096 q -0.90786,0 -0.90786,-1.139783 0,-0.98423 0.52888,-1.93735 0.53171,-0.953119 1.34625,-0.953119 0.85413,0 0.85413,1.117158 0,0.989886 -0.51757,1.95149 -0.51757,0.961604 -1.30383,0.961604 z m -0.21777,-2.228658 h 1.45372 q 0.1103,-0.599589 0.1103,-0.922009 0,-0.642012 -0.43555,-0.642012 -0.3309,0 -0.62504,0.407267 -0.29414,0.407268 -0.50343,1.156754 z m -0.0707,0.265855 q -0.14989,0.636355 -0.14989,1.071905 0,0.653326 0.49211,0.653326 0.3507,0 0.63919,-0.455348 0.2913,-0.455348 0.48363,-1.269883 z m 1.15676,-2.101388 z"
         id="path9" />
      <path
         style="font-style:italic;font-size:3.76497px;font-family:Cambria;-inkscape-font-specification:'Cambria Italic';baseline-shift:sub;fill:#000000;stroke:none"
         d="m 107.18827,91.52002 q 0.068,0 0.10478,-0.0074 0.0386,-0.0074 0.0625,-0.02022 0.0239,-0.01471 0.0496,-0.04228 0.0257,-0.02758 0.046,-0.06434 0.0221,-0.03677 0.0551,-0.108463 h 0.17097 l -0.13604,0.536802 h -1.44127 l 0.0184,-0.08824 q 0.10662,-0.19119 0.27759,-0.400764 0.17281,-0.209573 0.46695,-0.489004 0.24634,-0.233473 0.34009,-0.330906 0.16729,-0.16913 0.25554,-0.2923 0.0882,-0.12317 0.12501,-0.229796 0.0368,-0.106625 0.0368,-0.216926 0,-0.154423 -0.0882,-0.237149 -0.0864,-0.08456 -0.24818,-0.08456 -0.15074,0 -0.27208,0.09008 -0.11949,0.09008 -0.19302,0.255532 h -0.23715 l 0.079,-0.352966 q 0.20773,-0.08273 0.38421,-0.121332 0.17833,-0.04044 0.35481,-0.04044 0.18016,0 0.31068,0.06067 0.13236,0.05883 0.19855,0.165453 0.068,0.104787 0.068,0.231634 0,0.119494 -0.0294,0.218765 -0.0294,0.09743 -0.0919,0.194867 -0.0772,0.117655 -0.23715,0.28127 -0.14339,0.14523 -0.47246,0.439369 -0.45959,0.411793 -0.63791,0.652619 z"
         id="path10" />
    </g>
    <g
       id="text27"
       style="font-size:5.79225px;font-family:'Yu Gothic';-inkscape-font-specification:'Yu Gothic';fill:none;stroke:#000000;stroke-width:0.410475;stroke-linejoin:round"
       inkscape:label="r2"
       aria-label="r2">
      <path
         style="font-style:italic;font-family:Cambria;-inkscape-font-specification:'Cambria Italic';fill:#000000;stroke:none"
         d="m 116.27712,68.189687 h 0.1697 l -0.19798,0.695749 0.0339,0.01131 q 0.26868,-0.370501 0.52323,-0.54868 0.25737,-0.17818 0.52888,-0.17818 0.20646,0 0.34504,0.03111 l -0.13575,0.633527 h -0.29131 q -0.0226,-0.147069 -0.0707,-0.223431 -0.0481,-0.07636 -0.14989,-0.07636 -0.11031,0 -0.25455,0.11313 -0.14424,0.11313 -0.29413,0.311107 -0.1499,0.197977 -0.22626,0.364844 -0.0735,0.166867 -0.11313,0.3705 l -0.25737,1.224631 h -0.48929 l 0.42989,-1.931692 q 0.0594,-0.265856 0.0594,-0.40444 0,-0.07919 -0.0255,-0.121614 -0.0254,-0.04525 -0.082,-0.06505 -0.0566,-0.02263 -0.19232,-0.03111 l 0.0311,-0.149897 z"
         id="path11" />
      <path
         style="font-style:italic;font-size:3.76497px;font-family:Cambria;-inkscape-font-specification:'Cambria Italic';baseline-shift:sub;fill:#000000;stroke:none"
         d="m 118.57833,71.783257 q 0.068,0 0.10479,-0.0074 0.0386,-0.0074 0.0625,-0.02022 0.0239,-0.01471 0.0496,-0.04228 0.0257,-0.02757 0.046,-0.06434 0.0221,-0.03677 0.0551,-0.108463 h 0.17096 l -0.13603,0.536802 h -1.44128 l 0.0184,-0.08824 q 0.10663,-0.19119 0.27759,-0.400764 0.17281,-0.209573 0.46695,-0.489004 0.24634,-0.233473 0.3401,-0.330906 0.16729,-0.16913 0.25553,-0.2923 0.0882,-0.12317 0.12501,-0.229796 0.0368,-0.106625 0.0368,-0.216926 0,-0.154423 -0.0883,-0.237149 -0.0864,-0.08456 -0.24818,-0.08456 -0.15074,0 -0.27207,0.09008 -0.1195,0.09008 -0.19303,0.255532 h -0.23715 l 0.079,-0.352966 q 0.20773,-0.08273 0.38422,-0.121332 0.17832,-0.04044 0.3548,-0.04044 0.18016,0 0.31068,0.06067 0.13237,0.05883 0.19855,0.165453 0.068,0.104787 0.068,0.231634 0,0.119494 -0.0294,0.218765 -0.0294,0.09743 -0.0919,0.194867 -0.0772,0.117655 -0.23715,0.28127 -0.1434,0.14523 -0.47246,0.439369 -0.45959,0.411793 -0.63792,0.652619 z"
         id="path12" />
    </g>
    <g
       id="text29"
       style="font-size:5.79225px;font-family:'Yu Gothic';-inkscape-font-specification:'Yu Gothic';fill:none;stroke:#000000;stroke-width:0.410475;stroke-linejoin:round"
       inkscape:label="r1"
       aria-label="r1">
      <path
         style="font-style:italic;font-family:Cambria;-inkscape-font-specification:'Cambria Italic';fill:#000000;stroke:none"
         d="m 143.56949,70.283666 h 0.16969 l -0.19797,0.695748 0.0339,0.01131 q 0.26868,-0.3705 0.52322,-0.548679 0.25737,-0.17818 0.52888,-0.17818 0.20647,0 0.34505,0.03111 l -0.13576,0.633527 h -0.2913 q -0.0226,-0.147069 -0.0707,-0.223431 -0.0481,-0.07636 -0.1499,-0.07636 -0.1103,0 -0.25454,0.11313 -0.14424,0.11313 -0.29414,0.311107 -0.1499,0.197977 -0.22626,0.364844 -0.0735,0.166866 -0.11313,0.3705 l -0.25737,1.224631 h -0.48928 l 0.42989,-1.931693 q 0.0594,-0.265855 0.0594,-0.404439 0,-0.07919 -0.0255,-0.121615 -0.0255,-0.04525 -0.082,-0.06505 -0.0566,-0.02263 -0.19232,-0.03111 l 0.0311,-0.149897 z"
         id="path13" />
      <path
         style="font-style:italic;font-size:3.76497px;font-family:Cambria;-inkscape-font-specification:'Cambria Italic';baseline-shift:sub;fill:#000000;stroke:none"
         d="m 145.92217,73.640087 q -0.0331,0.150746 -0.0331,0.215089 0,0.07353 0.0386,0.110301 0.0386,0.03493 0.12685,0.05147 0.0901,0.01471 0.27759,0.02022 l -0.0276,0.1342 h -1.29789 l 0.0276,-0.1342 q 0.15442,-0.0074 0.23715,-0.02022 0.0827,-0.01287 0.13236,-0.03493 0.0515,-0.02206 0.0827,-0.05331 0.0312,-0.03125 0.0551,-0.08273 0.0239,-0.05147 0.046,-0.154423 l 0.29414,-1.332814 q 0.0165,-0.07721 0.0239,-0.12317 0.009,-0.04596 0.009,-0.07537 0,-0.05515 -0.0276,-0.07721 -0.0276,-0.0239 -0.0662,-0.0239 -0.0478,0 -0.14523,0.0478 -0.0974,0.04596 -0.29046,0.159938 l -0.0717,-0.147069 0.93205,-0.487167 h 0.12685 l -0.0533,0.215089 q -0.0294,0.117655 -0.0625,0.273916 z"
         id="path14" />
    </g>
    <g
       id="text31"
       style="font-size:5.79225px;font-family:'Yu Gothic';-inkscape-font-specification:'Yu Gothic';fill:none;stroke:#000000;stroke-width:0.410475;stroke-linejoin:round"
       inkscape:label="xi"
       aria-label="(ξx, ξy)">
      <path
         style="font-family:Cambria;-inkscape-font-specification:Cambria;fill:#000000;stroke:none"
         d="m 150.49648,58.201559 q -0.4808,0 -0.78626,-0.144241 -0.30262,-0.14424 -0.47231,-0.441206 -0.1697,-0.294138 -0.24606,-0.766455 -0.0764,-0.472317 -0.0764,-1.281196 0,-0.803222 0.0735,-1.278368 0.0764,-0.477974 0.24606,-0.777768 0.16969,-0.299794 0.47514,-0.449691 0.30546,-0.149897 0.78626,-0.149897 v 0.231916 q -0.19798,0 -0.35071,0.03394 -0.17252,0.0396 -0.29413,0.152725 -0.13576,0.124443 -0.22061,0.347875 -0.099,0.260199 -0.14707,0.690092 -0.0509,0.455348 -0.0509,1.176551 0,0.636356 0.0424,1.083219 0.0424,0.444034 0.14141,0.726859 0.0792,0.237573 0.19798,0.370501 0.10464,0.115958 0.24889,0.175351 0.16686,0.06788 0.43272,0.06788 z"
         id="path15" />
      <path
         style="font-style:italic;font-family:Cambria;-inkscape-font-specification:'Cambria Italic';fill:#000000;stroke:none"
         d="m 153.40392,53.339802 -0.12728,0.01131 q -0.48363,0.04242 -0.90503,0.302623 -0.42141,0.25737 -0.42141,0.619386 0,0.192321 0.16121,0.296966 0.16121,0.101817 0.39878,0.101817 0.0933,0 0.18666,-0.01697 l 0.22061,-0.04242 -0.0509,0.27434 -0.17535,0.03394 q -0.54868,0.104645 -0.93332,0.356359 -0.38182,0.251714 -0.38182,0.599589 0,0.197977 0.11879,0.336561 0.11878,0.138584 0.45535,0.288481 0.34221,0.147069 0.47797,0.305451 0.13576,0.155554 0.13576,0.390298 0,0.282825 -0.24323,0.540195 -0.2404,0.260199 -0.65898,0.393127 l -0.10465,-0.169695 q 0.30545,-0.104645 0.49211,-0.27434 0.1895,-0.169695 0.1895,-0.345046 0,-0.158382 -0.11596,-0.248886 -0.11313,-0.0905 -0.5204,-0.248886 -0.74666,-0.291309 -0.74666,-0.868271 0,-0.401612 0.34788,-0.704234 0.34787,-0.305451 0.8909,-0.427065 v -0.02263 q -0.2998,-0.02546 -0.48081,-0.175352 -0.17817,-0.149897 -0.17817,-0.384641 0,-0.593932 1.11715,-0.899383 v -0.01131 h -0.11878 q -0.64484,0 -0.79191,-0.3705 l 0.42989,-0.07071 q 0.0962,0.231916 0.64201,0.231916 0.20081,0 0.37616,-0.03111 0.17252,-0.02828 0.37333,-0.05374 z"
         id="path16" />
      <path
         style="font-style:italic;font-size:3.76497px;font-family:Cambria;-inkscape-font-specification:'Cambria Italic';baseline-shift:sub;fill:#000000;stroke:none"
         d="m 154.83756,56.462325 q -0.35665,0.380542 -0.74638,0.751891 l 0.17097,0.402602 q 0.068,0.161776 0.10846,0.238987 0.0404,0.07537 0.0735,0.110302 0.0331,0.03309 0.0662,0.04964 0.0331,0.01471 0.10479,0.0239 l -0.0202,0.09008 h -0.45775 l -0.25553,-0.739023 q -0.0441,0.03861 -0.11766,0.108464 -0.0717,0.06802 -0.13971,0.147069 -0.068,0.07721 -0.0956,0.125008 -0.0276,0.0478 -0.0368,0.08273 -0.007,0.03493 -0.007,0.0717 0,0.0478 0.0257,0.07537 0.0276,0.02757 0.0919,0.03861 l -0.0202,0.09008 h -0.52393 l -0.0349,-0.09008 q 0.4026,-0.432016 0.79234,-0.796012 l -0.17465,-0.409955 q -0.0533,-0.125009 -0.0864,-0.189352 -0.0331,-0.06618 -0.0643,-0.10111 -0.0294,-0.03677 -0.0699,-0.05515 -0.0386,-0.02022 -0.11214,-0.02574 l 0.0202,-0.09008 h 0.45775 l 0.24451,0.693064 q 0.0901,-0.08273 0.17096,-0.170968 0.0809,-0.08824 0.11398,-0.139716 0.0331,-0.05147 0.046,-0.09192 0.0129,-0.04044 0.0129,-0.08456 0,-0.10111 -0.11766,-0.115817 l 0.0202,-0.09008 h 0.52393 z"
         id="path17" />
      <path
         style="font-style:italic;font-family:Cambria;-inkscape-font-specification:'Cambria Italic';fill:#000000;stroke:none"
         d="m 155.52228,56.315118 q 0,0.101817 -0.0198,0.243229 -0.0198,0.141413 -0.0622,0.271512 -0.0396,0.1301 -0.0933,0.229088 -0.0537,0.09899 -0.14141,0.203634 -0.0849,0.104645 -0.22909,0.22626 -0.14424,0.124443 -0.37332,0.271511 l -0.1301,-0.175351 q 0.13575,-0.11313 0.21211,-0.192321 0.0735,-0.07919 0.12162,-0.16121 0.0481,-0.08202 0.0849,-0.192321 0.0396,-0.107473 0.0848,-0.311107 0.0453,-0.203634 0.0679,-0.412924 z m 4.48277,-2.975316 -0.12727,0.01131 q -0.48363,0.04242 -0.90504,0.302623 -0.42141,0.25737 -0.42141,0.619386 0,0.192321 0.16121,0.296966 0.16121,0.101817 0.39878,0.101817 0.0933,0 0.18667,-0.01697 l 0.2206,-0.04242 -0.0509,0.27434 -0.17535,0.03394 q -0.54868,0.104645 -0.93332,0.356359 -0.38182,0.251714 -0.38182,0.599589 0,0.197977 0.11879,0.336561 0.11879,0.138584 0.45535,0.288481 0.34222,0.147069 0.47797,0.305451 0.13576,0.155554 0.13576,0.390298 0,0.282825 -0.24323,0.540195 -0.2404,0.260199 -0.65898,0.393127 l -0.10465,-0.169695 q 0.30545,-0.104645 0.49212,-0.27434 0.18949,-0.169695 0.18949,-0.345046 0,-0.158382 -0.11596,-0.248886 -0.11313,-0.0905 -0.5204,-0.248886 -0.74665,-0.291309 -0.74665,-0.868271 0,-0.401612 0.34787,-0.704234 0.34788,-0.305451 0.8909,-0.427065 v -0.02263 q -0.2998,-0.02546 -0.4808,-0.175352 -0.17818,-0.149897 -0.17818,-0.384641 0,-0.593932 1.11716,-0.899383 v -0.01131 h -0.11879 q -0.64484,0 -0.79191,-0.3705 l 0.42989,-0.07071 q 0.0962,0.231916 0.64202,0.231916 0.2008,0 0.37615,-0.03111 0.17253,-0.02828 0.37333,-0.05374 z"
         id="path18" />
      <path
         style="font-style:italic;font-size:3.76497px;font-family:Cambria;-inkscape-font-specification:'Cambria Italic';baseline-shift:sub;fill:#000000;stroke:none"
         d="m 160.03969,56.773009 q -0.0184,-0.139716 -0.0349,-0.193029 -0.0165,-0.05515 -0.0533,-0.08273 -0.0368,-0.02941 -0.11949,-0.03493 l 0.0202,-0.09008 h 0.47246 l 0.13972,1.4615 q 0.62136,-0.849324 0.62136,-1.216997 0,-0.0864 -0.0368,-0.117656 -0.0368,-0.03125 -0.12501,-0.03677 l 0.0184,-0.09008 h 0.4743 l 0.0496,0.09192 q -0.0974,0.255533 -0.25001,0.529449 -0.15075,0.273917 -0.37135,0.599307 -0.21877,0.325391 -0.48717,0.676518 -0.2059,0.27024 -0.34561,0.408117 -0.10847,0.104787 -0.20038,0.158099 -0.0901,0.05515 -0.17465,0.07721 -0.0864,0.0239 -0.182,0.0239 -0.0496,0 -0.11214,-0.01103 -0.0625,-0.0092 -0.10662,-0.02574 l 0.079,-0.343774 h 0.14339 q 0.002,0.0625 0.0294,0.09927 0.0276,0.03677 0.0809,0.03677 0.0588,0 0.10111,-0.01287 0.0423,-0.01103 0.0882,-0.0386 0.0478,-0.02758 0.11398,-0.08824 0.068,-0.06067 0.15259,-0.161776 0.0846,-0.09927 0.18935,-0.240825 z"
         id="path19" />
      <path
         style="font-family:Cambria;-inkscape-font-specification:Cambria;fill:#000000;stroke:none"
         d="m 161.55295,52.912737 q 0.4808,0 0.78342,0.14424 0.30546,0.144241 0.47515,0.441207 0.16969,0.294138 0.24606,0.766455 0.0764,0.472317 0.0764,1.281196 0,0.803222 -0.0764,1.281196 -0.0735,0.475145 -0.24323,0.77494 -0.1697,0.299794 -0.47515,0.449691 -0.30545,0.149897 -0.78625,0.149897 v -0.231916 q 0.19798,0 0.3507,-0.03394 0.17253,-0.0396 0.29414,-0.152726 0.13576,-0.124442 0.2206,-0.347874 0.099,-0.260199 0.14707,-0.690092 0.0509,-0.455348 0.0509,-1.176551 0,-0.636356 -0.0424,-1.08039 -0.0424,-0.446864 -0.14142,-0.729688 -0.0792,-0.237573 -0.19797,-0.370501 -0.10465,-0.115958 -0.24889,-0.175351 -0.16686,-0.06788 -0.43272,-0.06788 z"
         id="path20" />
    </g>
    <g
       id="text37"
       style="font-size:5.79225px;font-family:'Yu Gothic';-inkscape-font-specification:'Yu Gothic';fill:none;stroke:#000000;stroke-width:0.410475;stroke-linejoin:round"
       inkscape:label="-a"
       aria-label="-aj">
      <path
         style="font-style:italic;font-family:Cambria;-inkscape-font-specification:'Cambria Italic';fill:#000000;stroke:none"
         d="m 87.890438,98.59661 h -1.235944 l 0.09333,-0.438378 h 1.235944 z m 2.681178,-1.295337 0.260199,-0.186664 0.181008,0.04525 -0.432722,1.92038 q -0.0396,0.169694 -0.05374,0.263027 -0.01414,0.0905 -0.01414,0.149897 0,0.115958 0.06505,0.169694 0.06505,0.05091 0.248885,0.06505 l -0.02545,0.138584 h -0.808879 l 0.17818,-0.70989 -0.03677,-0.01131 q -0.271512,0.395955 -0.514741,0.579791 -0.243229,0.183836 -0.514741,0.183836 -0.311107,0 -0.48363,-0.234745 -0.169695,-0.234744 -0.169695,-0.658981 0,-0.271512 0.06222,-0.543024 0.06222,-0.27434 0.186664,-0.517569 0.127272,-0.246057 0.302623,-0.432722 0.175351,-0.186664 0.404439,-0.296966 0.231917,-0.110301 0.503428,-0.110301 0.175352,0 0.333733,0.04242 0.158382,0.0396 0.328077,0.144241 z m -0.248886,0.842818 q 0.02545,-0.115958 0.03394,-0.200806 0.0085,-0.08485 0.0085,-0.183836 0,-0.220603 -0.09333,-0.319592 -0.09333,-0.101817 -0.311107,-0.101817 -0.118787,0 -0.22626,0.0396 -0.107473,0.03677 -0.217775,0.127271 -0.110302,0.08768 -0.212119,0.231916 -0.09899,0.144241 -0.181007,0.350703 -0.08202,0.206462 -0.127272,0.444035 -0.04525,0.234744 -0.04525,0.458176 0,0.294137 0.07919,0.441206 0.08202,0.144241 0.271512,0.144241 0.08768,0 0.181008,-0.0396 0.09616,-0.0396 0.212118,-0.14424 0.115959,-0.107474 0.263027,-0.313936 0.132928,-0.189492 0.209291,-0.373328 0.07919,-0.186665 0.130099,-0.438379 z"
         id="path22" />
      <path
         style="font-style:italic;font-size:3.76496px;font-family:Cambria;-inkscape-font-specification:'Cambria Italic';baseline-shift:sub;fill:#000000;stroke:none"
         d="m 92.293877,98.546833 -0.08456,0.356642 h -0.32539 l 0.08456,-0.356642 z m -0.553346,2.509367 q -0.05883,0.27943 -0.159938,0.44856 -0.10111,0.17096 -0.262885,0.25553 -0.161776,0.0864 -0.386056,0.0864 -0.09192,0 -0.156261,-0.0184 l 0.04228,-0.16178 q 0.02941,0.009 0.06618,0.011 0.03493,0.004 0.07353,0.004 0.08824,0 0.150746,-0.0276 0.06067,-0.0257 0.113978,-0.0882 0.05331,-0.0607 0.09743,-0.17097 0.04596,-0.1103 0.08456,-0.28494 l 0.297814,-1.323622 q 0.0239,-0.102948 0.03309,-0.167291 0.0092,-0.06434 0.0092,-0.108463 0,-0.05331 -0.01655,-0.08273 -0.01471,-0.02941 -0.05147,-0.04412 -0.03677,-0.01471 -0.126847,-0.01838 l 0.02022,-0.09743 0.44856,-0.01655 h 0.104787 z"
         id="path23" />
    </g>
    <g
       id="text39"
       style="font-size:5.79225px;font-family:'Yu Gothic';-inkscape-font-specification:'Yu Gothic';fill:none;stroke:#000000;stroke-width:0.410475;stroke-linejoin:round"
       inkscape:label="a"
       aria-label="aj">
      <path
         style="font-style:italic;font-family:Cambria;-inkscape-font-specification:'Cambria Italic';fill:#000000;stroke:none"
         d="m 130.14702,97.301273 0.2602,-0.186664 0.18101,0.04525 -0.43273,1.92038 q -0.0396,0.169694 -0.0537,0.263027 -0.0141,0.0905 -0.0141,0.149897 0,0.115958 0.0651,0.169694 0.065,0.05091 0.24888,0.06505 l -0.0254,0.138584 h -0.80888 l 0.17818,-0.70989 -0.0368,-0.01131 q -0.27151,0.395955 -0.51474,0.579791 -0.24323,0.183836 -0.51474,0.183836 -0.31111,0 -0.48363,-0.234745 -0.1697,-0.234744 -0.1697,-0.658981 0,-0.271512 0.0622,-0.543024 0.0622,-0.27434 0.18666,-0.517569 0.12727,-0.246057 0.30262,-0.432722 0.17535,-0.186664 0.40444,-0.296966 0.23192,-0.110301 0.50343,-0.110301 0.17535,0 0.33373,0.04242 0.15838,0.0396 0.32808,0.144241 z m -0.24889,0.842818 q 0.0255,-0.115958 0.0339,-0.200806 0.008,-0.08485 0.008,-0.183836 0,-0.220603 -0.0933,-0.319592 -0.0933,-0.101817 -0.31111,-0.101817 -0.11879,0 -0.22626,0.0396 -0.10748,0.03677 -0.21778,0.127271 -0.1103,0.08768 -0.21212,0.231916 -0.099,0.144241 -0.181,0.350703 -0.082,0.206462 -0.12727,0.444035 -0.0453,0.234744 -0.0453,0.458176 0,0.294137 0.0792,0.441206 0.082,0.144241 0.27152,0.144241 0.0877,0 0.181,-0.0396 0.0962,-0.0396 0.21212,-0.14424 0.11596,-0.107474 0.26303,-0.313936 0.13293,-0.189492 0.20929,-0.373328 0.0792,-0.186665 0.1301,-0.438379 z"
         id="path24" />
      <path
         style="font-style:italic;font-size:3.76496px;font-family:Cambria;-inkscape-font-specification:'Cambria Italic';baseline-shift:sub;fill:#000000;stroke:none"
         d="m 131.86928,98.546833 -0.0846,0.356642 h -0.32539 l 0.0846,-0.356642 z m -0.55335,2.509367 q -0.0588,0.27943 -0.15993,0.44856 -0.10111,0.17096 -0.26289,0.25553 -0.16177,0.0864 -0.38605,0.0864 -0.0919,0 -0.15627,-0.0184 l 0.0423,-0.16178 q 0.0294,0.009 0.0662,0.011 0.0349,0.004 0.0735,0.004 0.0882,0 0.15075,-0.0276 0.0607,-0.0257 0.11398,-0.0882 0.0533,-0.0607 0.0974,-0.17097 0.046,-0.1103 0.0846,-0.28494 l 0.29782,-1.323622 q 0.0239,-0.102948 0.0331,-0.167291 0.009,-0.06434 0.009,-0.108463 0,-0.05331 -0.0165,-0.08273 -0.0147,-0.02941 -0.0515,-0.04412 -0.0368,-0.01471 -0.12685,-0.01838 l 0.0202,-0.09743 0.44856,-0.01655 h 0.10478 z"
         id="path25" />
    </g>
  </g>
</svg>
