<?xml version="1.0" encoding="UTF-8" standalone="no"?>
<!-- Created with Inkscape (http://www.inkscape.org/) -->

<svg
   width="105.83334mm"
   height="59.384045mm"
   viewBox="0 0 105.83334 59.384045"
   version="1.1"
   id="svg1"
   inkscape:version="1.4 (86a8ad7, 2024-10-11)"
   sodipodi:docname="fluid_domain.svg"
   xmlns:inkscape="http://www.inkscape.org/namespaces/inkscape"
   xmlns:sodipodi="http://sodipodi.sourceforge.net/DTD/sodipodi-0.dtd"
   xmlns="http://www.w3.org/2000/svg"
   xmlns:svg="http://www.w3.org/2000/svg">
  <sodipodi:namedview
     id="namedview1"
     pagecolor="#ffffff"
     bordercolor="#000000"
     borderopacity="0.25"
     inkscape:showpageshadow="2"
     inkscape:pageopacity="0.0"
     inkscape:pagecheckerboard="0"
     inkscape:deskcolor="#d1d1d1"
     inkscape:document-units="mm"
     inkscape:zoom="2"
     inkscape:cx="197.5"
     inkscape:cy="140.25"
     inkscape:window-width="1920"
     inkscape:window-height="974"
     inkscape:window-x="-11"
     inkscape:window-y="-11"
     inkscape:window-maximized="1"
     inkscape:current-layer="layer1" />
  <defs
     id="defs1">
    <inkscape:path-effect
       effect="bspline"
       id="path-effect39"
       is_visible="true"
       lpeversion="1.3"
       weight="33.333333"
       steps="2"
       helper_size="0"
       apply_no_weight="true"
       apply_with_weight="true"
       only_selected="false"
       uniform="false" />
    <inkscape:path-effect
       effect="bspline"
       id="path-effect37"
       is_visible="true"
       lpeversion="1.3"
       weight="33.333333"
       steps="2"
       helper_size="0"
       apply_no_weight="true"
       apply_with_weight="true"
       only_selected="false"
       uniform="false" />
    <inkscape:path-effect
       effect="bspline"
       id="path-effect35"
       is_visible="true"
       lpeversion="1.3"
       weight="33.333333"
       steps="2"
       helper_size="0"
       apply_no_weight="true"
       apply_with_weight="true"
       only_selected="false"
       uniform="false" />
    <inkscape:path-effect
       effect="bspline"
       id="path-effect32"
       is_visible="true"
       lpeversion="1.3"
       weight="33.333333"
       steps="2"
       helper_size="0"
       apply_no_weight="true"
       apply_with_weight="true"
       only_selected="false"
       uniform="false" />
    <inkscape:path-effect
       effect="bspline"
       id="path-effect31"
       is_visible="true"
       lpeversion="1.3"
       weight="33.333333"
       steps="2"
       helper_size="0"
       apply_no_weight="true"
       apply_with_weight="true"
       only_selected="false"
       uniform="false" />
    <inkscape:path-effect
       effect="bspline"
       id="path-effect30"
       is_visible="true"
       lpeversion="1.3"
       weight="33.333333"
       steps="2"
       helper_size="0"
       apply_no_weight="true"
       apply_with_weight="true"
       only_selected="false"
       uniform="false" />
    <inkscape:path-effect
       effect="bspline"
       id="path-effect28"
       is_visible="true"
       lpeversion="1.3"
       weight="33.333333"
       steps="2"
       helper_size="0"
       apply_no_weight="true"
       apply_with_weight="true"
       only_selected="false"
       uniform="false" />
    <inkscape:path-effect
       effect="bspline"
       id="path-effect19"
       is_visible="true"
       lpeversion="1.3"
       weight="33.333333"
       steps="2"
       helper_size="0"
       apply_no_weight="true"
       apply_with_weight="true"
       only_selected="false"
       uniform="false" />
    <marker
       style="overflow:visible"
       id="marker8"
       refX="0"
       refY="0"
       orient="auto-start-reverse"
       inkscape:stockid="Concave triangle arrow"
       markerWidth="1"
       markerHeight="1"
       viewBox="0 0 1 1"
       inkscape:isstock="true"
       inkscape:collect="always"
       preserveAspectRatio="xMidYMid">
      <path
         transform="scale(0.7)"
         d="M -2,-4 9,0 -2,4 c 2,-2.33 2,-5.66 0,-8 z"
         style="fill:context-stroke;fill-rule:evenodd;stroke:none"
         id="path8" />
    </marker>
    <inkscape:path-effect
       effect="bspline"
       id="path-effect8"
       is_visible="true"
       lpeversion="1.3"
       weight="33.333333"
       steps="2"
       helper_size="0"
       apply_no_weight="true"
       apply_with_weight="true"
       only_selected="false"
       uniform="false" />
    <inkscape:path-effect
       effect="bspline"
       id="path-effect4"
       is_visible="true"
       lpeversion="1.3"
       weight="33.333333"
       steps="2"
       helper_size="0"
       apply_no_weight="true"
       apply_with_weight="true"
       only_selected="false"
       uniform="false" />
    <inkscape:path-effect
       effect="bspline"
       id="path-effect3"
       is_visible="true"
       lpeversion="1.3"
       weight="33.333333"
       steps="2"
       helper_size="0"
       apply_no_weight="true"
       apply_with_weight="true"
       only_selected="false"
       uniform="false" />
    <inkscape:path-effect
       effect="bspline"
       id="path-effect1"
       is_visible="true"
       lpeversion="1.3"
       weight="33.333333"
       steps="2"
       helper_size="0"
       apply_no_weight="true"
       apply_with_weight="true"
       only_selected="false"
       uniform="false" />
    <inkscape:path-effect
       effect="bspline"
       id="path-effect27"
       is_visible="true"
       lpeversion="1.3"
       weight="33.333333"
       steps="2"
       helper_size="0"
       apply_no_weight="true"
       apply_with_weight="true"
       only_selected="false"
       uniform="false" />
    <inkscape:path-effect
       effect="bspline"
       id="path-effect26"
       is_visible="true"
       lpeversion="1.3"
       weight="33.333333"
       steps="2"
       helper_size="0"
       apply_no_weight="true"
       apply_with_weight="true"
       only_selected="false"
       uniform="false" />
    <marker
       style="overflow:visible"
       id="ConcaveTriangle"
       refX="0"
       refY="0"
       orient="auto-start-reverse"
       inkscape:stockid="Concave triangle arrow"
       markerWidth="1"
       markerHeight="1"
       viewBox="0 0 1 1"
       inkscape:isstock="true"
       inkscape:collect="always"
       preserveAspectRatio="xMidYMid">
      <path
         transform="scale(0.7)"
         d="M -2,-4 9,0 -2,4 c 2,-2.33 2,-5.66 0,-8 z"
         style="fill:context-stroke;fill-rule:evenodd;stroke:none"
         id="path7" />
    </marker>
    <inkscape:path-effect
       effect="bspline"
       id="path-effect24"
       is_visible="true"
       lpeversion="1.3"
       weight="33.333333"
       steps="2"
       helper_size="0"
       apply_no_weight="true"
       apply_with_weight="true"
       only_selected="false"
       uniform="false" />
    <inkscape:path-effect
       effect="bspline"
       id="path-effect23"
       is_visible="true"
       lpeversion="1.3"
       weight="33.333333"
       steps="2"
       helper_size="0"
       apply_no_weight="true"
       apply_with_weight="true"
       only_selected="false"
       uniform="false" />
    <inkscape:path-effect
       effect="bspline"
       id="path-effect22"
       is_visible="true"
       lpeversion="1.3"
       weight="33.333333"
       steps="2"
       helper_size="0"
       apply_no_weight="true"
       apply_with_weight="true"
       only_selected="false"
       uniform="false" />
    <inkscape:path-effect
       effect="bspline"
       id="path-effect21"
       is_visible="true"
       lpeversion="1.3"
       weight="33.333333"
       steps="2"
       helper_size="0"
       apply_no_weight="true"
       apply_with_weight="true"
       only_selected="false"
       uniform="false" />
    <inkscape:path-effect
       effect="bspline"
       id="path-effect20"
       is_visible="true"
       lpeversion="1.3"
       weight="33.333333"
       steps="2"
       helper_size="0"
       apply_no_weight="true"
       apply_with_weight="true"
       only_selected="false"
       uniform="false" />
    <inkscape:path-effect
       effect="bspline"
       id="path-effect18"
       is_visible="true"
       lpeversion="1.3"
       weight="33.333333"
       steps="2"
       helper_size="0"
       apply_no_weight="true"
       apply_with_weight="true"
       only_selected="false"
       uniform="false" />
    <inkscape:path-effect
       effect="bspline"
       id="path-effect17"
       is_visible="true"
       lpeversion="1.3"
       weight="33.333333"
       steps="2"
       helper_size="0"
       apply_no_weight="true"
       apply_with_weight="true"
       only_selected="false"
       uniform="false" />
    <inkscape:path-effect
       effect="bspline"
       id="path-effect15"
       is_visible="true"
       lpeversion="1.3"
       weight="33.333333"
       steps="2"
       helper_size="0"
       apply_no_weight="true"
       apply_with_weight="true"
       only_selected="false"
       uniform="false" />
    <inkscape:path-effect
       effect="bspline"
       id="path-effect13"
       is_visible="true"
       lpeversion="1.3"
       weight="33.333333"
       steps="2"
       helper_size="0"
       apply_no_weight="true"
       apply_with_weight="true"
       only_selected="false"
       uniform="false" />
    <inkscape:path-effect
       effect="bspline"
       id="path-effect11"
       is_visible="true"
       lpeversion="1.3"
       weight="33.333333"
       steps="2"
       helper_size="0"
       apply_no_weight="true"
       apply_with_weight="true"
       only_selected="false"
       uniform="false" />
    <inkscape:path-effect
       effect="bspline"
       id="path-effect10"
       is_visible="true"
       lpeversion="1.3"
       weight="33.333333"
       steps="2"
       helper_size="0"
       apply_no_weight="true"
       apply_with_weight="true"
       only_selected="false"
       uniform="false" />
    <inkscape:path-effect
       effect="bspline"
       id="path-effect9"
       is_visible="true"
       lpeversion="1.3"
       weight="33.333333"
       steps="2"
       helper_size="0"
       apply_no_weight="true"
       apply_with_weight="true"
       only_selected="false"
       uniform="false" />
    <inkscape:path-effect
       effect="bspline"
       id="path-effect7"
       is_visible="true"
       lpeversion="1.3"
       weight="33.333333"
       steps="2"
       helper_size="0"
       apply_no_weight="true"
       apply_with_weight="true"
       only_selected="false"
       uniform="false" />
    <inkscape:path-effect
       effect="bspline"
       id="path-effect5"
       is_visible="true"
       lpeversion="1.3"
       weight="33.333333"
       steps="2"
       helper_size="0"
       apply_no_weight="true"
       apply_with_weight="true"
       only_selected="false"
       uniform="false" />
    <inkscape:path-effect
       effect="bspline"
       id="path-effect2"
       is_visible="true"
       lpeversion="1.3"
       weight="33.333333"
       steps="2"
       helper_size="0"
       apply_no_weight="true"
       apply_with_weight="true"
       only_selected="false"
       uniform="false" />
  </defs>
  <rect
     style="fill:#ffffff;fill-opacity:1;stroke:none;stroke-width:0.290491;stroke-dasharray:none;stroke-opacity:1"
     id="rect39"
     width="105.83334"
     height="59.384045"
     x="0"
     y="0"
     inkscape:label="background" />
  <path
     id="path21"
     style="display:inline;fill:none;stroke:#105ed4;stroke-width:0.58098;stroke-dasharray:none;stroke-opacity:1"
     d="m 67.268501,15.364987 c 0,5.127928 -2.733808,9.866312 -7.175976,12.430168 -4.439968,2.563848 -9.911984,2.563848 -14.352835,0 -4.440848,-2.563856 -7.176639,-7.30224 -7.176639,-12.430168 -11.866272,0 -23.732765,0 -35.5992592,0 0,13.685304 0,27.370823 0,41.055247 33.3017632,0 66.6037492,0 99.9057282,0 0,-13.684424 0,-27.369943 0,-41.055247 -11.866275,0 -23.732548,0 -35.601019,0 z"
     inkscape:label="fluid_domain" />
  <path
     style="fill:#000000;fill-opacity:1;stroke:#000000;stroke-width:0.383528;stroke-dasharray:none;stroke-opacity:1;marker-end:url(#ConcaveTriangle)"
     d="m 97.050835,96.563306 c 1.614108,-1.563736 3.228225,-3.127477 4.842325,-4.691208"
     id="path23"
     inkscape:path-effect="#path-effect24"
     inkscape:original-d="m 97.050835,96.563306 c 1.614109,-1.563735 3.228225,-3.127473 4.842325,-4.691208"
     transform="matrix(0.75741673,0,0,0.75741673,-29.767552,-48.263463)"
     inkscape:label="normal vector" />
  <g
     inkscape:groupmode="layer"
     id="layer1"
     inkscape:label="text"
     style="display:inline"
     transform="translate(-38.432701,-83.163765)">
    <path
       d="m 103.58284,94.472111 q -0.58703,0.626369 -1.22853,1.237609 l 0.28141,0.66268 q 0.11196,0.266283 0.17854,0.393372 0.0666,0.124063 0.12103,0.181556 0.0545,0.05447 0.10894,0.0817 0.0545,0.02421 0.17247,0.03934 l -0.0333,0.148271 h -0.75346 l -0.4206,-1.216427 q -0.0726,0.06354 -0.19366,0.17853 -0.11802,0.11196 -0.22998,0.242075 -0.11196,0.127089 -0.15734,0.205764 -0.0454,0.07867 -0.0605,0.136167 -0.0121,0.05749 -0.0121,0.118012 0,0.07867 0.0424,0.124063 0.0454,0.04539 0.15129,0.06354 l -0.0333,0.148271 h -0.86239 l -0.0575,-0.148271 q 0.66268,-0.711096 1.30418,-1.310231 l -0.28746,-0.674784 q -0.0877,-0.205764 -0.14222,-0.311672 -0.0545,-0.108934 -0.10591,-0.166426 -0.0484,-0.06052 -0.11498,-0.09078 -0.0635,-0.03329 -0.18459,-0.04236 l 0.0333,-0.148271 h 0.75346 l 0.40245,1.140779 q 0.14827,-0.136167 0.28141,-0.281412 0.13314,-0.145245 0.18761,-0.229972 0.0545,-0.08473 0.0757,-0.151297 0.0212,-0.06657 0.0212,-0.139193 0,-0.166426 -0.19366,-0.190634 l 0.0333,-0.148271 h 0.86239 z"
       id="text8"
       style="font-style:italic;font-size:6.19712px;font-family:Cambria;-inkscape-font-specification:'Cambria Italic';fill:#ff0800;stroke:#ff0800;stroke-width:0.079375"
       aria-label="x" />
    <path
       d="m 89.452245,88.364075 -0.184582,0.850288 h -2.190779 l -0.05749,-0.148271 1.655187,-1.906341 q 0.351009,-0.402449 0.51441,-0.571902 l -0.01816,-0.02118 h -0.708069 q -0.157349,0 -0.229971,0.02118 -0.07262,0.02118 -0.145245,0.07565 -0.07262,0.05144 -0.157349,0.157348 -0.0817,0.102882 -0.184582,0.296542 h -0.269309 l 0.17853,-0.795821 h 2.151442 l 0.05749,0.151297 -2.172623,2.475217 0.01816,0.02118 h 0.683862 q 0.181556,0 0.278386,-0.01816 0.09683,-0.02118 0.169453,-0.07565 0.07262,-0.05447 0.148271,-0.163401 0.07867,-0.111959 0.19366,-0.347982 z"
       id="text9"
       style="font-style:italic;font-size:6.19712px;font-family:Cambria;-inkscape-font-specification:'Cambria Italic';fill:#ff0800;stroke:#ff0800;stroke-width:0.079375"
       aria-label="z" />
    <g
       id="text11"
       style="font-style:italic;font-size:6.19712px;font-family:Cambria;-inkscape-font-specification:'Cambria Italic';stroke:#000000;stroke-width:0.079375"
       aria-label="SR">
      <path
         d="m 135.0834,118.67723 q 0,0.36614 0.16946,0.54769 0.16945,0.17853 0.52954,0.17853 0.27838,0 0.47809,-0.10288 0.19972,-0.10288 0.3026,-0.29049 0.10288,-0.19063 0.10288,-0.45086 0,-0.18459 -0.0666,-0.32378 -0.0635,-0.14222 -0.19669,-0.26931 -0.13011,-0.13011 -0.37824,-0.29654 -0.22392,-0.1513 -0.37219,-0.29654 -0.14827,-0.14827 -0.23602,-0.32983 -0.0878,-0.18156 -0.0878,-0.40547 0,-0.35707 0.17248,-0.6294 0.17248,-0.27233 0.48718,-0.42061 0.3147,-0.14827 0.72622,-0.14827 0.27839,0 0.51441,0.0393 0.23905,0.0363 0.52652,0.12709 l -0.16946,0.77767 h -0.29049 q -0.0121,-0.25721 -0.0787,-0.40245 -0.0666,-0.14827 -0.19063,-0.21182 -0.12407,-0.0635 -0.32983,-0.0635 -0.25115,0 -0.44179,0.10288 -0.19063,0.10288 -0.29049,0.28141 -0.0999,0.1755 -0.0999,0.39337 0,0.15735 0.0545,0.28141 0.0545,0.12407 0.17248,0.24511 0.12104,0.11801 0.35101,0.27536 0.29654,0.20576 0.45086,0.36916 0.15735,0.16037 0.22998,0.34193 0.0756,0.18156 0.0756,0.42061 0,0.36613 -0.17853,0.6536 -0.1755,0.28444 -0.49928,0.44179 -0.32075,0.15432 -0.73227,0.15432 -0.28141,0 -0.59914,-0.0424 -0.3147,-0.0424 -0.57795,-0.11499 l 0.18155,-0.83213 z"
         id="path1" />
      <path
         style="font-size:4.02813px;baseline-shift:sub"
         d="m 139.17704,119.64023 q 0.0944,0.0708 0.15145,0.16915 0.059,0.0983 0.0944,0.27339 l 0.0452,0.22816 q 0.0138,0.0708 0.0295,0.13178 0.0177,0.061 0.0393,0.11801 0.0236,0.0551 0.0492,0.0885 0.0275,0.0334 0.057,0.0551 0.0315,0.0216 0.0688,0.0354 0.0393,0.0118 0.0983,0.0216 l -0.0197,0.0964 h -0.54482 q -0.0629,-0.17505 -0.11211,-0.41698 l -0.0865,-0.41697 q -0.0216,-0.10818 -0.0531,-0.18095 -0.0295,-0.0747 -0.0728,-0.11408 -0.0413,-0.0413 -0.0983,-0.0531 -0.0551,-0.0138 -0.13571,-0.0138 h -0.22423 l -0.13768,0.62349 q -0.0177,0.0767 -0.0256,0.12195 -0.006,0.0452 -0.0118,0.0964 -0.004,0.0492 -0.004,0.0885 0,0.061 0.0197,0.0964 0.0197,0.0334 0.059,0.0492 0.0393,0.0157 0.13572,0.0236 l -0.0216,0.0964 h -0.80838 l 0.0216,-0.0964 q 0.0747,-0.0118 0.11211,-0.0374 0.0374,-0.0275 0.0629,-0.0747 0.0256,-0.0472 0.0472,-0.11408 0.0216,-0.0688 0.0649,-0.26356 l 0.33437,-1.51448 q 0.0433,-0.19669 0.0433,-0.31076 0,-0.0964 -0.0452,-0.13375 -0.0452,-0.0374 -0.14752,-0.0433 l 0.0216,-0.0964 h 0.87525 q 0.20849,0 0.34027,0.0256 0.13178,0.0236 0.22422,0.0728 0.0944,0.0492 0.15735,0.12784 0.0629,0.0767 0.0944,0.17505 0.0315,0.0964 0.0315,0.20652 0,0.17505 -0.059,0.31077 -0.057,0.13571 -0.15735,0.23799 -0.10031,0.10227 -0.23405,0.17308 -0.13178,0.0708 -0.2793,0.11605 z m -0.44451,-0.14751 q 0.21439,0 0.35601,-0.0413 0.14161,-0.0433 0.23602,-0.12981 0.0944,-0.0865 0.15538,-0.22816 0.061,-0.14161 0.061,-0.30683 0,-0.0846 -0.0157,-0.14948 -0.0157,-0.0669 -0.0413,-0.11014 -0.0256,-0.0433 -0.0649,-0.0767 -0.0393,-0.0334 -0.0984,-0.057 -0.059,-0.0256 -0.13768,-0.0354 -0.0767,-0.0118 -0.21045,-0.0118 -0.10424,0 -0.22029,0.008 l -0.25176,1.13882 z"
         id="path2" />
    </g>
    <g
       id="text13"
       style="font-style:italic;font-size:6.19712px;font-family:Cambria;-inkscape-font-specification:'Cambria Italic';stroke:#000000;stroke-width:0.079375"
       aria-label="SB">
      <path
         d="m 89.47647,135.96138 q 0,0.36614 0.169453,0.5477 0.169452,0.17853 0.529539,0.17853 0.278386,0 0.478098,-0.10288 0.199712,-0.10288 0.302594,-0.29049 0.102882,-0.19064 0.102882,-0.45087 0,-0.18458 -0.06657,-0.32377 -0.06354,-0.14222 -0.196686,-0.26931 -0.130115,-0.13012 -0.378242,-0.29654 -0.22392,-0.1513 -0.372191,-0.29655 -0.148271,-0.14827 -0.236023,-0.32982 -0.08775,-0.18156 -0.08775,-0.40548 0,-0.35706 0.172479,-0.62939 0.172478,-0.27234 0.487175,-0.42061 0.314698,-0.14827 0.726226,-0.14827 0.278386,0 0.514409,0.0393 0.239049,0.0363 0.526513,0.12709 l -0.169452,0.77766 h -0.29049 q -0.0121,-0.2572 -0.07867,-0.40245 -0.06657,-0.14827 -0.190634,-0.21181 -0.124063,-0.0635 -0.329827,-0.0635 -0.251153,0 -0.441787,0.10289 -0.190634,0.10288 -0.29049,0.28141 -0.09986,0.1755 -0.09986,0.39337 0,0.15735 0.05447,0.28141 0.05447,0.12406 0.172478,0.2451 0.121038,0.11801 0.351009,0.27536 0.296542,0.20577 0.450865,0.36917 0.157349,0.16037 0.229971,0.34193 0.07565,0.18155 0.07565,0.4206 0,0.36614 -0.178531,0.65361 -0.175504,0.28443 -0.499279,0.44178 -0.32075,0.15433 -0.732277,0.15433 -0.281413,0 -0.599136,-0.0424 -0.314698,-0.0424 -0.577954,-0.11498 l 0.181556,-0.83214 z"
         id="path5" />
      <path
         style="font-size:4.02813px;baseline-shift:sub"
         d="m 93.73926,136.76704 q 0.182919,0.0728 0.281262,0.20849 0.09834,0.13374 0.09834,0.30486 0,0.20259 -0.07474,0.36387 -0.07277,0.15931 -0.23209,0.27929 -0.159315,0.11998 -0.365836,0.16915 -0.20652,0.0492 -0.509417,0.0492 h -0.875252 l 0.02164,-0.0964 q 0.07474,-0.0118 0.112111,-0.0374 0.03737,-0.0275 0.06294,-0.0747 0.02557,-0.0472 0.0472,-0.11408 0.02164,-0.0688 0.06491,-0.26356 l 0.334366,-1.51448 q 0.04327,-0.19669 0.04327,-0.31077 0,-0.0964 -0.04524,-0.13374 -0.04524,-0.0374 -0.147514,-0.0433 l 0.02164,-0.0964 h 0.973596 q 0.295029,0 0.472046,0.0629 0.178985,0.061 0.261593,0.18095 0.08458,0.11998 0.08458,0.30093 0,0.25766 -0.157349,0.45041 -0.157349,0.19079 -0.468113,0.29306 z m -0.542853,-0.10621 q 0.204554,0 0.328466,-0.0275 0.125879,-0.0275 0.204553,-0.0826 0.07867,-0.0551 0.139647,-0.12784 0.06294,-0.0747 0.09834,-0.17505 0.03737,-0.10031 0.03737,-0.23603 0,-0.0846 -0.0295,-0.15734 -0.0295,-0.0747 -0.102277,-0.12588 -0.07081,-0.0531 -0.165216,-0.0747 -0.09244,-0.0236 -0.247825,-0.0236 -0.171117,0 -0.318631,0.006 l -0.222255,1.02474 z m -0.562522,1.30009 q 0.153415,0.008 0.287162,0.008 0.296995,0 0.458278,-0.0747 0.163249,-0.0747 0.263559,-0.24389 0.10031,-0.16915 0.10031,-0.40517 0,-0.12785 -0.05114,-0.21636 -0.04917,-0.0885 -0.159316,-0.14161 -0.108177,-0.0531 -0.298963,-0.0531 h -0.356001 z"
         id="path6" />
    </g>
    <g
       id="text15"
       style="font-style:italic;font-size:6.19712px;font-family:Cambria;-inkscape-font-specification:'Cambria Italic';stroke:#000000;stroke-width:0.079375"
       aria-label="SC">
      <path
         d="m 100.80559,114.46511 q 0,0.36614 0.16946,0.54769 0.16945,0.17853 0.52954,0.17853 0.27838,0 0.47809,-0.10288 0.19972,-0.10288 0.3026,-0.29049 0.10288,-0.19063 0.10288,-0.45086 0,-0.18459 -0.0666,-0.32378 -0.0636,-0.14222 -0.19669,-0.26931 -0.13011,-0.13011 -0.37824,-0.29654 -0.22392,-0.1513 -0.37219,-0.29654 -0.14827,-0.14827 -0.23602,-0.32983 -0.0877,-0.18156 -0.0877,-0.40547 0,-0.35707 0.17247,-0.6294 0.17248,-0.27233 0.48718,-0.42061 0.3147,-0.14827 0.72622,-0.14827 0.27839,0 0.51441,0.0393 0.23905,0.0363 0.52652,0.12709 l -0.16946,0.77767 h -0.29049 q -0.0121,-0.25721 -0.0787,-0.40245 -0.0666,-0.14827 -0.19063,-0.21182 -0.12407,-0.0635 -0.32983,-0.0635 -0.25115,0 -0.44179,0.10288 -0.19063,0.10288 -0.29049,0.28141 -0.0998,0.1755 -0.0998,0.39337 0,0.15735 0.0545,0.28141 0.0545,0.12407 0.17248,0.24511 0.12104,0.11801 0.35101,0.27536 0.29654,0.20576 0.45087,0.36916 0.15734,0.16037 0.22997,0.34193 0.0756,0.18156 0.0756,0.42061 0,0.36613 -0.17853,0.6536 -0.1755,0.28444 -0.49928,0.44179 -0.32074,0.15432 -0.73227,0.15432 -0.28141,0 -0.59914,-0.0424 -0.3147,-0.0424 -0.57795,-0.11499 l 0.18155,-0.83213 z"
         id="path9" />
      <path
         style="font-size:4.02813px;baseline-shift:sub"
         d="m 105.63681,114.02967 -0.11801,0.53302 h -0.18882 q -0.0157,-0.24192 -0.10621,-0.34813 -0.0885,-0.10818 -0.28716,-0.10818 -0.16522,0 -0.31077,0.0983 -0.14555,0.0964 -0.27536,0.28127 -0.12981,0.18291 -0.22619,0.43074 -0.0964,0.24585 -0.14751,0.50351 -0.0511,0.2557 -0.0511,0.46222 0,0.32059 0.10424,0.47204 0.10621,0.14948 0.33044,0.14948 0.14751,0 0.25765,-0.0433 0.11015,-0.0452 0.20652,-0.14948 0.0964,-0.10621 0.19079,-0.29503 h 0.18882 l -0.11998,0.55859 q -0.20062,0.0551 -0.38747,0.0787 -0.18685,0.0236 -0.38354,0.0236 -0.24389,0 -0.41501,-0.10031 -0.17111,-0.10228 -0.25766,-0.29306 -0.0865,-0.19276 -0.0865,-0.46222 0,-0.14161 0.0197,-0.27536 0.0236,-0.16521 0.0747,-0.35993 0.0649,-0.24193 0.16325,-0.44058 0.10621,-0.21045 0.24192,-0.37174 0.12785,-0.14948 0.27733,-0.24979 0.13768,-0.0924 0.297,-0.14358 0.15931,-0.0511 0.3383,-0.0511 0.17898,0 0.33043,0.0216 0.15342,0.0216 0.34027,0.0787 z"
         id="path10" />
    </g>
    <g
       id="text17"
       style="font-style:italic;font-size:6.19712px;font-family:Cambria;-inkscape-font-specification:'Cambria Italic';stroke:#000000;stroke-width:0.079375"
       aria-label="SF">
      <path
         d="m 57.377307,103.71698 q 0,0.36613 0.169453,0.54769 0.169452,0.17853 0.529539,0.17853 0.278386,0 0.478098,-0.10288 0.199712,-0.10288 0.302594,-0.29049 0.102881,-0.19063 0.102881,-0.45087 0,-0.18458 -0.06657,-0.32377 -0.06354,-0.14222 -0.196686,-0.26931 -0.130115,-0.13011 -0.378242,-0.29654 -0.22392,-0.1513 -0.372191,-0.29654 -0.148271,-0.14827 -0.236023,-0.32983 -0.08775,-0.18156 -0.08775,-0.40548 0,-0.35706 0.172478,-0.62939 0.172479,-0.27234 0.487176,-0.42061 0.314698,-0.14827 0.726225,-0.14827 0.278387,0 0.51441,0.0393 0.239049,0.0363 0.526513,0.12709 l -0.169453,0.77767 h -0.29049 q -0.0121,-0.25721 -0.07867,-0.40245 -0.06657,-0.14828 -0.190634,-0.21182 -0.124063,-0.0635 -0.329827,-0.0635 -0.251153,0 -0.441787,0.10288 -0.190634,0.10288 -0.29049,0.28141 -0.09986,0.1755 -0.09986,0.39337 0,0.15735 0.05447,0.28141 0.05447,0.12407 0.172478,0.2451 0.121038,0.11802 0.351009,0.27537 0.296542,0.20576 0.450865,0.36916 0.157349,0.16037 0.229971,0.34193 0.07565,0.18156 0.07565,0.42061 0,0.36613 -0.17853,0.6536 -0.175504,0.28444 -0.49928,0.44179 -0.320749,0.15432 -0.732276,0.15432 -0.281413,0 -0.599136,-0.0424 -0.314698,-0.0424 -0.577954,-0.11498 l 0.181556,-0.83213 z"
         id="path11" />
      <path
         style="font-size:4.02813px;baseline-shift:sub"
         d="m 60.619297,105.32511 q -0.01377,0.059 -0.02164,0.10031 -0.0079,0.0413 -0.01377,0.10228 -0.0059,0.059 -0.0059,0.10424 0,0.061 0.01967,0.0964 0.01967,0.0334 0.05901,0.0492 0.03934,0.0157 0.135714,0.0236 l -0.02164,0.0964 h -0.808379 l 0.02163,-0.0964 q 0.07474,-0.0118 0.112111,-0.0374 0.03737,-0.0275 0.06294,-0.0747 0.02557,-0.0472 0.0472,-0.11408 0.02164,-0.0688 0.06491,-0.26356 l 0.334366,-1.51448 q 0.04327,-0.19669 0.04327,-0.31076 0,-0.0964 -0.04524,-0.13375 -0.04524,-0.0374 -0.147515,-0.0433 l 0.02164,-0.0964 h 1.774108 l -0.135713,0.60383 h -0.188819 q -0.0079,-0.13965 -0.02163,-0.21832 -0.01377,-0.0806 -0.0354,-0.11998 -0.01967,-0.0393 -0.04524,-0.057 -0.02557,-0.0197 -0.06491,-0.0275 -0.03737,-0.008 -0.108177,-0.008 h -0.605793 l -0.234057,1.06997 h 0.367803 q 0.08654,0 0.143581,-0.0236 0.05704,-0.0236 0.10621,-0.0846 0.04917,-0.0629 0.121946,-0.21242 h 0.178984 l -0.190785,0.83002 h -0.173084 q 0,-0.12195 -0.0059,-0.19079 -0.0039,-0.0688 -0.0236,-0.0964 -0.0177,-0.0275 -0.05311,-0.0374 -0.03344,-0.0118 -0.123912,-0.0118 h -0.385505 z"
         id="path12" />
    </g>
    <g
       id="text19"
       style="font-style:italic;font-size:6.19712px;font-family:Cambria;-inkscape-font-specification:'Cambria Italic';stroke:#000000;stroke-width:0.079375"
       aria-label="SF">
      <path
         d="m 121.13991,103.57172 q 0,0.36614 0.16946,0.54769 0.16945,0.17854 0.52954,0.17854 0.27838,0 0.47809,-0.10289 0.19972,-0.10288 0.3026,-0.29049 0.10288,-0.19063 0.10288,-0.45086 0,-0.18458 -0.0666,-0.32378 -0.0636,-0.14222 -0.19669,-0.26931 -0.13011,-0.13011 -0.37824,-0.29654 -0.22392,-0.15129 -0.37219,-0.29654 -0.14827,-0.14827 -0.23602,-0.32983 -0.0877,-0.18155 -0.0877,-0.40547 0,-0.35706 0.17247,-0.6294 0.17248,-0.27233 0.48718,-0.4206 0.3147,-0.14827 0.72623,-0.14827 0.27838,0 0.5144,0.0393 0.23905,0.0363 0.52652,0.12709 l -0.16945,0.77767 h -0.29049 q -0.0121,-0.25721 -0.0787,-0.40245 -0.0666,-0.14827 -0.19063,-0.21182 -0.12407,-0.0635 -0.32983,-0.0635 -0.25115,0 -0.44179,0.10288 -0.19063,0.10288 -0.29049,0.28141 -0.0999,0.17551 -0.0999,0.39338 0,0.15734 0.0545,0.28141 0.0545,0.12406 0.17248,0.2451 0.12104,0.11801 0.35101,0.27536 0.29654,0.20576 0.45087,0.36916 0.15734,0.16038 0.22997,0.34193 0.0756,0.18156 0.0756,0.42061 0,0.36614 -0.17854,0.6536 -0.1755,0.28444 -0.49927,0.44179 -0.32075,0.15432 -0.73228,0.15432 -0.28141,0 -0.59914,-0.0424 -0.3147,-0.0424 -0.57795,-0.11499 l 0.18155,-0.83213 z"
         id="path13" />
      <path
         style="font-size:4.02813px;baseline-shift:sub"
         d="m 124.3819,105.17985 q -0.0138,0.059 -0.0216,0.10031 -0.008,0.0413 -0.0138,0.10228 -0.006,0.059 -0.006,0.10424 0,0.061 0.0197,0.0964 0.0197,0.0334 0.059,0.0492 0.0393,0.0157 0.13572,0.0236 l -0.0216,0.0964 h -0.80838 l 0.0216,-0.0964 q 0.0747,-0.0118 0.11211,-0.0374 0.0374,-0.0275 0.0629,-0.0747 0.0256,-0.0472 0.0472,-0.11407 0.0216,-0.0688 0.0649,-0.26356 l 0.33437,-1.51449 q 0.0433,-0.19668 0.0433,-0.31076 0,-0.0964 -0.0452,-0.13375 -0.0452,-0.0374 -0.14751,-0.0433 l 0.0216,-0.0964 h 1.77411 l -0.13571,0.60382 h -0.18882 q -0.008,-0.13964 -0.0216,-0.21832 -0.0138,-0.0806 -0.0354,-0.11998 -0.0197,-0.0393 -0.0452,-0.057 -0.0256,-0.0197 -0.0649,-0.0275 -0.0374,-0.008 -0.10817,-0.008 h -0.6058 l -0.23405,1.06997 h 0.3678 q 0.0865,0 0.14358,-0.0236 0.057,-0.0236 0.10621,-0.0846 0.0492,-0.0629 0.12195,-0.21242 h 0.17898 l -0.19078,0.83002 h -0.17309 q 0,-0.12195 -0.006,-0.19079 -0.004,-0.0688 -0.0236,-0.0964 -0.0177,-0.0275 -0.0531,-0.0374 -0.0334,-0.0118 -0.12391,-0.0118 h -0.3855 z"
         id="path14" />
    </g>
    <path
       d="m 88.413564,109.6139 h -0.953171 l 0.384294,-1.53718 q 0.03631,-0.14827 0.0696,-0.3268 0.03631,-0.17853 0.03631,-0.32075 0,-0.21484 -0.07565,-0.30864 -0.07262,-0.0938 -0.229972,-0.0938 -0.127089,0 -0.27536,0.0999 -0.145245,0.0968 -0.30562,0.29351 -0.160374,0.19366 -0.272334,0.3964 -0.108934,0.19971 -0.169453,0.48718 l -0.27536,1.31023 h -0.523487 l 0.459942,-2.06672 q 0.01513,-0.0696 0.03934,-0.20576 0.02723,-0.13617 0.02723,-0.22695 0,-0.0847 -0.02723,-0.13011 -0.02421,-0.0484 -0.08775,-0.0696 -0.06052,-0.0242 -0.208789,-0.0333 l 0.03631,-0.16038 0.686888,-0.0272 h 0.172478 l -0.202738,0.78674 0.03631,0.0121 q 0.296542,-0.41758 0.571902,-0.61729 0.27536,-0.20274 0.550721,-0.20274 0.293516,0 0.444812,0.1634 0.151297,0.16037 0.151297,0.4781 0,0.10893 -0.02118,0.23905 -0.01816,0.12709 -0.04236,0.22694 l -0.254179,1.07723 q -0.05144,0.21787 -0.05144,0.34496 0,0.0908 0.03026,0.14222 0.03026,0.0514 0.0938,0.0787 0.06354,0.0272 0.20879,0.0424 z"
       id="text24"
       style="font-style:italic;font-size:6.19712px;font-family:Cambria;-inkscape-font-specification:'Cambria Italic';stroke:#000000;stroke-width:0.079375"
       aria-label="n" />
    <g
       id="text25"
       style="font-style:italic;font-size:6.19712px;font-family:Cambria;-inkscape-font-specification:'Cambria Italic';stroke:#000000;stroke-width:0.079375"
       aria-label="SR">
      <path
         d="m 43.579009,119.69394 q 0,0.36614 0.169453,0.5477 0.169452,0.17853 0.529539,0.17853 0.278386,0 0.478098,-0.10288 0.199712,-0.10289 0.302594,-0.29049 0.102882,-0.19064 0.102882,-0.45087 0,-0.18458 -0.06657,-0.32377 -0.06355,-0.14222 -0.196686,-0.26931 -0.130115,-0.13012 -0.378242,-0.29654 -0.22392,-0.1513 -0.372191,-0.29655 -0.14827,-0.14827 -0.236023,-0.32982 -0.08775,-0.18156 -0.08775,-0.40548 0,-0.35706 0.172479,-0.62939 0.172478,-0.27234 0.487176,-0.42061 0.314697,-0.14827 0.726225,-0.14827 0.278386,0 0.514409,0.0393 0.239049,0.0363 0.526513,0.12709 l -0.169452,0.77766 h -0.29049 q -0.0121,-0.2572 -0.07868,-0.40245 -0.06657,-0.14827 -0.190634,-0.21181 -0.124063,-0.0635 -0.329827,-0.0635 -0.251153,0 -0.441787,0.10288 -0.190634,0.10289 -0.29049,0.28142 -0.09986,0.1755 -0.09986,0.39337 0,0.15735 0.05447,0.28141 0.05447,0.12406 0.172478,0.2451 0.121038,0.11801 0.351009,0.27536 0.296542,0.20577 0.450865,0.36917 0.157349,0.16037 0.229971,0.34193 0.07565,0.18155 0.07565,0.4206 0,0.36614 -0.178531,0.65361 -0.175504,0.28443 -0.499279,0.44178 -0.32075,0.15432 -0.732277,0.15432 -0.281413,0 -0.599136,-0.0424 -0.314697,-0.0424 -0.577954,-0.11498 l 0.181556,-0.83214 z"
         id="path15" />
      <path
         style="font-size:4.02813px;baseline-shift:sub"
         d="m 47.67265,120.65695 q 0.09441,0.0708 0.151448,0.16915 0.05901,0.0983 0.09441,0.27339 l 0.04524,0.22816 q 0.01377,0.0708 0.0295,0.13178 0.0177,0.061 0.03934,0.11801 0.0236,0.0551 0.04917,0.0885 0.02754,0.0334 0.05704,0.0551 0.03147,0.0216 0.06884,0.0354 0.03934,0.0118 0.09834,0.0216 l -0.01967,0.0964 h -0.54482 q -0.06294,-0.17505 -0.112111,-0.41697 l -0.08654,-0.41698 q -0.02164,-0.10817 -0.05311,-0.18095 -0.0295,-0.0747 -0.07277,-0.11407 -0.0413,-0.0413 -0.09834,-0.0531 -0.05507,-0.0138 -0.135714,-0.0138 h -0.224222 l -0.13768,0.6235 q -0.0177,0.0767 -0.02557,0.12194 -0.0059,0.0452 -0.0118,0.0964 -0.0039,0.0492 -0.0039,0.0885 0,0.061 0.01967,0.0964 0.01967,0.0334 0.05901,0.0492 0.03934,0.0157 0.135714,0.0236 l -0.02164,0.0964 h -0.808379 l 0.02163,-0.0964 q 0.07474,-0.0118 0.112111,-0.0374 0.03737,-0.0275 0.06294,-0.0747 0.02557,-0.0472 0.0472,-0.11408 0.02164,-0.0688 0.06491,-0.26356 l 0.334366,-1.51448 q 0.04327,-0.19669 0.04327,-0.31077 0,-0.0964 -0.04524,-0.13374 -0.04524,-0.0374 -0.147514,-0.0433 l 0.02164,-0.0964 h 0.875253 q 0.208487,0 0.340267,0.0256 0.131779,0.0236 0.224222,0.0728 0.09441,0.0492 0.157349,0.12785 0.06294,0.0767 0.09441,0.17505 0.03147,0.0964 0.03147,0.20652 0,0.17505 -0.05901,0.31076 -0.05704,0.13572 -0.157349,0.23799 -0.10031,0.10228 -0.234056,0.17309 -0.13178,0.0708 -0.279294,0.11604 z m -0.444511,-0.14752 q 0.214388,0 0.356002,-0.0413 0.141614,-0.0433 0.236023,-0.12981 0.09441,-0.0866 0.155382,-0.22816 0.06097,-0.14161 0.06097,-0.30683 0,-0.0846 -0.01573,-0.14948 -0.01573,-0.0669 -0.0413,-0.11015 -0.02557,-0.0433 -0.06491,-0.0767 -0.03934,-0.0334 -0.09834,-0.057 -0.059,-0.0256 -0.13768,-0.0354 -0.07671,-0.0118 -0.210454,-0.0118 -0.104244,0 -0.220288,0.008 l -0.251758,1.13881 z"
         id="path16" />
    </g>
  </g>
  <g
     inkscape:groupmode="layer"
     id="layer3"
     inkscape:label="coordinate system"
     transform="translate(-38.432701,-83.163765)">
    <path
       style="fill:#ff0800;fill-opacity:1;stroke:#ff0800;stroke-width:0.178988;stroke-dasharray:none;stroke-opacity:1;marker-end:url(#marker8)"
       d="m 101.60265,91.872098 c 2.17878,0 4.35757,0 6.53635,0"
       id="path3"
       inkscape:path-effect="#path-effect4"
       inkscape:original-d="m 101.60265,91.872098 c 2.17878,0 4.35757,0 6.53635,0"
       transform="matrix(1.6229606,0,0,1.6229606,-73.635223,-50.489438)" />
    <path
       style="fill:#ff0800;fill-opacity:1;stroke:#ff0800;stroke-width:0.178988;stroke-dasharray:none;stroke-opacity:1;marker-end:url(#marker8)"
       d="m 101.60265,91.872098 c 2.17878,0 4.35757,0 6.53635,0"
       id="path4"
       inkscape:path-effect="#path-effect8"
       inkscape:original-d="m 101.60265,91.872098 c 2.17878,0 4.35757,0 6.53635,0"
       transform="matrix(0,-1.6229606,1.6229606,0,-57.842922,263.51245)" />
  </g>
</svg>
