<?xml version="1.0" encoding="utf-8" standalone="no"?>
<!DOCTYPE svg PUBLIC "-//W3C//DTD SVG 1.1//EN"
  "http://www.w3.org/Graphics/SVG/1.1/DTD/svg11.dtd">
<svg xmlns:xlink="http://www.w3.org/1999/xlink" width="371.52pt" height="121.536pt" viewBox="0 0 371.52 121.536" xmlns="http://www.w3.org/2000/svg" version="1.1">
 <metadata>
  <rdf:RDF xmlns:dc="http://purl.org/dc/elements/1.1/" xmlns:cc="http://creativecommons.org/ns#" xmlns:rdf="http://www.w3.org/1999/02/22-rdf-syntax-ns#">
   <cc:Work>
    <dc:type rdf:resource="http://purl.org/dc/dcmitype/StillImage"/>
    <dc:date>2025-08-02T00:59:09.533942</dc:date>
    <dc:format>image/svg+xml</dc:format>
    <dc:creator>
     <cc:Agent>
      <dc:title>Matplotlib v3.10.0, https://matplotlib.org/</dc:title>
     </cc:Agent>
    </dc:creator>
   </cc:Work>
  </rdf:RDF>
 </metadata>
 <defs>
  <style type="text/css">*{stroke-linejoin: round; stroke-linecap: butt}</style>
 </defs>
 <g id="figure_1">
  <g id="patch_1">
   <path d="M 0 121.536 
L 371.52 121.536 
L 371.52 0 
L 0 0 
z
" style="fill: #ffffff"/>
  </g>
  <g id="axes_1">
   <g id="patch_2">
    <path d="M 7.2 114.336 
L 364.32 114.336 
L 364.32 7.2 
L 7.2 7.2 
z
" style="fill: #ffffff"/>
   </g>
   <g id="patch_3">
    <path d="M 153.294545 12.069818 
L 149.236364 12.069818 
L 145.097319 12.069818 
L 140.8758 12.069818 
L 136.570164 12.069818 
L 132.178734 12.069818 
L 127.699801 12.069818 
L 123.131622 12.069818 
L 118.472417 12.069818 
L 113.720374 12.069818 
L 108.873641 12.069818 
L 103.930334 12.069818 
L 98.888527 12.069818 
L 93.746257 12.069818 
L 88.501523 12.069818 
L 83.152284 12.069818 
L 77.696455 12.069818 
L 72.131915 12.069818 
L 66.456496 12.069818 
L 60.66799 12.069818 
L 54.764143 12.069818 
L 48.742656 12.069818 
L 42.601185 12.069818 
L 36.337341 12.069818 
L 29.948684 12.069818 
L 23.432727 12.069818 
L 23.432727 18.715611 
L 23.432727 25.598253 
L 23.432727 32.726186 
L 23.432727 40.10815 
L 23.432727 47.7532 
L 23.432727 55.670712 
L 23.432727 63.870396 
L 23.432727 72.362308 
L 23.432727 81.156864 
L 23.432727 90.264848 
L 23.432727 99.697431 
L 23.432727 109.466182 
L 33.270744 109.466182 
L 43.10876 109.466182 
L 52.946777 109.466182 
L 62.784793 109.466182 
L 72.62281 109.466182 
L 82.460826 109.466182 
L 92.298843 109.466182 
L 102.13686 109.466182 
L 111.974876 109.466182 
L 121.812893 109.466182 
L 131.650909 109.466182 
L 141.488926 109.466182 
L 151.326942 109.466182 
L 161.164959 109.466182 
L 171.002975 109.466182 
L 180.840992 109.466182 
L 190.679008 109.466182 
L 200.517025 109.466182 
L 210.355041 109.466182 
L 220.193058 109.466182 
L 230.031074 109.466182 
L 239.869091 109.466182 
L 249.707107 109.466182 
L 259.545124 109.466182 
L 269.38314 109.466182 
L 279.221157 109.466182 
L 289.059174 109.466182 
L 298.89719 109.466182 
L 308.735207 109.466182 
L 318.573223 109.466182 
L 328.41124 109.466182 
L 338.249256 109.466182 
L 348.087273 109.466182 
L 348.087273 99.697431 
L 348.087273 90.264848 
L 348.087273 81.156864 
L 348.087273 72.362308 
L 348.087273 63.870396 
L 348.087273 55.670712 
L 348.087273 47.7532 
L 348.087273 40.10815 
L 348.087273 32.726186 
L 348.087273 25.598253 
L 348.087273 18.715611 
L 348.087273 12.069818 
L 341.571316 12.069818 
L 335.182659 12.069818 
L 328.918815 12.069818 
L 322.777344 12.069818 
L 316.755857 12.069818 
L 310.85201 12.069818 
L 305.063504 12.069818 
L 299.388085 12.069818 
L 293.823545 12.069818 
L 288.367716 12.069818 
L 283.018477 12.069818 
L 277.773743 12.069818 
L 272.631473 12.069818 
L 267.589666 12.069818 
L 262.646359 12.069818 
L 257.799626 12.069818 
L 253.047583 12.069818 
L 248.388378 12.069818 
L 243.820199 12.069818 
L 239.341266 12.069818 
L 234.949836 12.069818 
L 230.6442 12.069818 
L 226.422681 12.069818 
L 222.283636 12.069818 
L 218.225455 12.069818 
L 217.969455 16.138819 
L 217.205493 20.143648 
L 215.945616 24.021149 
L 214.209695 27.71017 
L 212.025104 31.152534 
L 209.426298 34.293951 
L 206.45426 37.084881 
L 203.15586 39.481308 
L 199.583118 41.44544 
L 195.792377 42.9463 
L 191.84342 43.96022 
L 187.798523 44.47121 
L 183.721477 44.47121 
L 179.67658 43.96022 
L 175.727623 42.9463 
L 171.936882 41.44544 
L 168.36414 39.481308 
L 165.06574 37.084881 
L 162.093702 34.293951 
L 159.494896 31.152534 
L 157.310305 27.71017 
L 155.574384 24.021149 
L 154.314507 20.143648 
L 153.550545 16.138819 
z
" clip-path="url(#p32c483c49c)" style="fill: #c0c0c0; stroke: #c0c0c0; stroke-linejoin: miter"/>
   </g>
   <g id="line2d_1">
    <path d="M 153.294545 12.069818 
L 23.432727 12.069818 
L 23.432727 109.466182 
L 348.087273 109.466182 
L 348.087273 12.069818 
L 218.225455 12.069818 
L 217.969455 16.138819 
L 217.205493 20.143648 
L 215.945616 24.021149 
L 214.209695 27.71017 
L 212.025104 31.152534 
L 209.426298 34.293951 
L 206.45426 37.084881 
L 203.15586 39.481308 
L 199.583118 41.44544 
L 195.792377 42.9463 
L 191.84342 43.96022 
L 187.798523 44.47121 
L 183.721477 44.47121 
L 179.67658 43.96022 
L 175.727623 42.9463 
L 171.936882 41.44544 
L 168.36414 39.481308 
L 165.06574 37.084881 
L 162.093702 34.293951 
L 159.494896 31.152534 
L 157.310305 27.71017 
L 155.574384 24.021149 
L 154.314507 20.143648 
L 153.550545 16.138819 
L 153.294545 12.069818 
L 153.294545 12.069818 
" clip-path="url(#p32c483c49c)" style="fill: none; stroke: #ff0000; stroke-linecap: square"/>
    <defs>
     <path id="meb70cd5759" d="M 0 0.5 
C 0.132602 0.5 0.25979 0.447317 0.353553 0.353553 
C 0.447317 0.25979 0.5 0.132602 0.5 0 
C 0.5 -0.132602 0.447317 -0.25979 0.353553 -0.353553 
C 0.25979 -0.447317 0.132602 -0.5 0 -0.5 
C -0.132602 -0.5 -0.25979 -0.447317 -0.353553 -0.353553 
C -0.447317 -0.25979 -0.5 -0.132602 -0.5 0 
C -0.5 0.132602 -0.447317 0.25979 -0.353553 0.353553 
C -0.25979 0.447317 -0.132602 0.5 0 0.5 
z
" style="stroke: #000000"/>
    </defs>
    <g clip-path="url(#p32c483c49c)">
     <use xlink:href="#meb70cd5759" x="153.294545" y="12.069818" style="fill: #0000ff; stroke: #000000"/>
     <use xlink:href="#meb70cd5759" x="149.236364" y="12.069818" style="fill: #0000ff; stroke: #000000"/>
     <use xlink:href="#meb70cd5759" x="145.097319" y="12.069818" style="fill: #0000ff; stroke: #000000"/>
     <use xlink:href="#meb70cd5759" x="140.8758" y="12.069818" style="fill: #0000ff; stroke: #000000"/>
     <use xlink:href="#meb70cd5759" x="136.570164" y="12.069818" style="fill: #0000ff; stroke: #000000"/>
     <use xlink:href="#meb70cd5759" x="132.178734" y="12.069818" style="fill: #0000ff; stroke: #000000"/>
     <use xlink:href="#meb70cd5759" x="127.699801" y="12.069818" style="fill: #0000ff; stroke: #000000"/>
     <use xlink:href="#meb70cd5759" x="123.131622" y="12.069818" style="fill: #0000ff; stroke: #000000"/>
     <use xlink:href="#meb70cd5759" x="118.472417" y="12.069818" style="fill: #0000ff; stroke: #000000"/>
     <use xlink:href="#meb70cd5759" x="113.720374" y="12.069818" style="fill: #0000ff; stroke: #000000"/>
     <use xlink:href="#meb70cd5759" x="108.873641" y="12.069818" style="fill: #0000ff; stroke: #000000"/>
     <use xlink:href="#meb70cd5759" x="103.930334" y="12.069818" style="fill: #0000ff; stroke: #000000"/>
     <use xlink:href="#meb70cd5759" x="98.888527" y="12.069818" style="fill: #0000ff; stroke: #000000"/>
     <use xlink:href="#meb70cd5759" x="93.746257" y="12.069818" style="fill: #0000ff; stroke: #000000"/>
     <use xlink:href="#meb70cd5759" x="88.501523" y="12.069818" style="fill: #0000ff; stroke: #000000"/>
     <use xlink:href="#meb70cd5759" x="83.152284" y="12.069818" style="fill: #0000ff; stroke: #000000"/>
     <use xlink:href="#meb70cd5759" x="77.696455" y="12.069818" style="fill: #0000ff; stroke: #000000"/>
     <use xlink:href="#meb70cd5759" x="72.131915" y="12.069818" style="fill: #0000ff; stroke: #000000"/>
     <use xlink:href="#meb70cd5759" x="66.456496" y="12.069818" style="fill: #0000ff; stroke: #000000"/>
     <use xlink:href="#meb70cd5759" x="60.66799" y="12.069818" style="fill: #0000ff; stroke: #000000"/>
     <use xlink:href="#meb70cd5759" x="54.764143" y="12.069818" style="fill: #0000ff; stroke: #000000"/>
     <use xlink:href="#meb70cd5759" x="48.742656" y="12.069818" style="fill: #0000ff; stroke: #000000"/>
     <use xlink:href="#meb70cd5759" x="42.601185" y="12.069818" style="fill: #0000ff; stroke: #000000"/>
     <use xlink:href="#meb70cd5759" x="36.337341" y="12.069818" style="fill: #0000ff; stroke: #000000"/>
     <use xlink:href="#meb70cd5759" x="29.948684" y="12.069818" style="fill: #0000ff; stroke: #000000"/>
     <use xlink:href="#meb70cd5759" x="23.432727" y="12.069818" style="fill: #0000ff; stroke: #000000"/>
     <use xlink:href="#meb70cd5759" x="23.432727" y="18.715611" style="fill: #0000ff; stroke: #000000"/>
     <use xlink:href="#meb70cd5759" x="23.432727" y="25.598253" style="fill: #0000ff; stroke: #000000"/>
     <use xlink:href="#meb70cd5759" x="23.432727" y="32.726186" style="fill: #0000ff; stroke: #000000"/>
     <use xlink:href="#meb70cd5759" x="23.432727" y="40.10815" style="fill: #0000ff; stroke: #000000"/>
     <use xlink:href="#meb70cd5759" x="23.432727" y="47.7532" style="fill: #0000ff; stroke: #000000"/>
     <use xlink:href="#meb70cd5759" x="23.432727" y="55.670712" style="fill: #0000ff; stroke: #000000"/>
     <use xlink:href="#meb70cd5759" x="23.432727" y="63.870396" style="fill: #0000ff; stroke: #000000"/>
     <use xlink:href="#meb70cd5759" x="23.432727" y="72.362308" style="fill: #0000ff; stroke: #000000"/>
     <use xlink:href="#meb70cd5759" x="23.432727" y="81.156864" style="fill: #0000ff; stroke: #000000"/>
     <use xlink:href="#meb70cd5759" x="23.432727" y="90.264848" style="fill: #0000ff; stroke: #000000"/>
     <use xlink:href="#meb70cd5759" x="23.432727" y="99.697431" style="fill: #0000ff; stroke: #000000"/>
     <use xlink:href="#meb70cd5759" x="23.432727" y="109.466182" style="fill: #0000ff; stroke: #000000"/>
     <use xlink:href="#meb70cd5759" x="33.270744" y="109.466182" style="fill: #0000ff; stroke: #000000"/>
     <use xlink:href="#meb70cd5759" x="43.10876" y="109.466182" style="fill: #0000ff; stroke: #000000"/>
     <use xlink:href="#meb70cd5759" x="52.946777" y="109.466182" style="fill: #0000ff; stroke: #000000"/>
     <use xlink:href="#meb70cd5759" x="62.784793" y="109.466182" style="fill: #0000ff; stroke: #000000"/>
     <use xlink:href="#meb70cd5759" x="72.62281" y="109.466182" style="fill: #0000ff; stroke: #000000"/>
     <use xlink:href="#meb70cd5759" x="82.460826" y="109.466182" style="fill: #0000ff; stroke: #000000"/>
     <use xlink:href="#meb70cd5759" x="92.298843" y="109.466182" style="fill: #0000ff; stroke: #000000"/>
     <use xlink:href="#meb70cd5759" x="102.13686" y="109.466182" style="fill: #0000ff; stroke: #000000"/>
     <use xlink:href="#meb70cd5759" x="111.974876" y="109.466182" style="fill: #0000ff; stroke: #000000"/>
     <use xlink:href="#meb70cd5759" x="121.812893" y="109.466182" style="fill: #0000ff; stroke: #000000"/>
     <use xlink:href="#meb70cd5759" x="131.650909" y="109.466182" style="fill: #0000ff; stroke: #000000"/>
     <use xlink:href="#meb70cd5759" x="141.488926" y="109.466182" style="fill: #0000ff; stroke: #000000"/>
     <use xlink:href="#meb70cd5759" x="151.326942" y="109.466182" style="fill: #0000ff; stroke: #000000"/>
     <use xlink:href="#meb70cd5759" x="161.164959" y="109.466182" style="fill: #0000ff; stroke: #000000"/>
     <use xlink:href="#meb70cd5759" x="171.002975" y="109.466182" style="fill: #0000ff; stroke: #000000"/>
     <use xlink:href="#meb70cd5759" x="180.840992" y="109.466182" style="fill: #0000ff; stroke: #000000"/>
     <use xlink:href="#meb70cd5759" x="190.679008" y="109.466182" style="fill: #0000ff; stroke: #000000"/>
     <use xlink:href="#meb70cd5759" x="200.517025" y="109.466182" style="fill: #0000ff; stroke: #000000"/>
     <use xlink:href="#meb70cd5759" x="210.355041" y="109.466182" style="fill: #0000ff; stroke: #000000"/>
     <use xlink:href="#meb70cd5759" x="220.193058" y="109.466182" style="fill: #0000ff; stroke: #000000"/>
     <use xlink:href="#meb70cd5759" x="230.031074" y="109.466182" style="fill: #0000ff; stroke: #000000"/>
     <use xlink:href="#meb70cd5759" x="239.869091" y="109.466182" style="fill: #0000ff; stroke: #000000"/>
     <use xlink:href="#meb70cd5759" x="249.707107" y="109.466182" style="fill: #0000ff; stroke: #000000"/>
     <use xlink:href="#meb70cd5759" x="259.545124" y="109.466182" style="fill: #0000ff; stroke: #000000"/>
     <use xlink:href="#meb70cd5759" x="269.38314" y="109.466182" style="fill: #0000ff; stroke: #000000"/>
     <use xlink:href="#meb70cd5759" x="279.221157" y="109.466182" style="fill: #0000ff; stroke: #000000"/>
     <use xlink:href="#meb70cd5759" x="289.059174" y="109.466182" style="fill: #0000ff; stroke: #000000"/>
     <use xlink:href="#meb70cd5759" x="298.89719" y="109.466182" style="fill: #0000ff; stroke: #000000"/>
     <use xlink:href="#meb70cd5759" x="308.735207" y="109.466182" style="fill: #0000ff; stroke: #000000"/>
     <use xlink:href="#meb70cd5759" x="318.573223" y="109.466182" style="fill: #0000ff; stroke: #000000"/>
     <use xlink:href="#meb70cd5759" x="328.41124" y="109.466182" style="fill: #0000ff; stroke: #000000"/>
     <use xlink:href="#meb70cd5759" x="338.249256" y="109.466182" style="fill: #0000ff; stroke: #000000"/>
     <use xlink:href="#meb70cd5759" x="348.087273" y="109.466182" style="fill: #0000ff; stroke: #000000"/>
     <use xlink:href="#meb70cd5759" x="348.087273" y="99.697431" style="fill: #0000ff; stroke: #000000"/>
     <use xlink:href="#meb70cd5759" x="348.087273" y="90.264848" style="fill: #0000ff; stroke: #000000"/>
     <use xlink:href="#meb70cd5759" x="348.087273" y="81.156864" style="fill: #0000ff; stroke: #000000"/>
     <use xlink:href="#meb70cd5759" x="348.087273" y="72.362308" style="fill: #0000ff; stroke: #000000"/>
     <use xlink:href="#meb70cd5759" x="348.087273" y="63.870396" style="fill: #0000ff; stroke: #000000"/>
     <use xlink:href="#meb70cd5759" x="348.087273" y="55.670712" style="fill: #0000ff; stroke: #000000"/>
     <use xlink:href="#meb70cd5759" x="348.087273" y="47.7532" style="fill: #0000ff; stroke: #000000"/>
     <use xlink:href="#meb70cd5759" x="348.087273" y="40.10815" style="fill: #0000ff; stroke: #000000"/>
     <use xlink:href="#meb70cd5759" x="348.087273" y="32.726186" style="fill: #0000ff; stroke: #000000"/>
     <use xlink:href="#meb70cd5759" x="348.087273" y="25.598253" style="fill: #0000ff; stroke: #000000"/>
     <use xlink:href="#meb70cd5759" x="348.087273" y="18.715611" style="fill: #0000ff; stroke: #000000"/>
     <use xlink:href="#meb70cd5759" x="348.087273" y="12.069818" style="fill: #0000ff; stroke: #000000"/>
     <use xlink:href="#meb70cd5759" x="341.571316" y="12.069818" style="fill: #0000ff; stroke: #000000"/>
     <use xlink:href="#meb70cd5759" x="335.182659" y="12.069818" style="fill: #0000ff; stroke: #000000"/>
     <use xlink:href="#meb70cd5759" x="328.918815" y="12.069818" style="fill: #0000ff; stroke: #000000"/>
     <use xlink:href="#meb70cd5759" x="322.777344" y="12.069818" style="fill: #0000ff; stroke: #000000"/>
     <use xlink:href="#meb70cd5759" x="316.755857" y="12.069818" style="fill: #0000ff; stroke: #000000"/>
     <use xlink:href="#meb70cd5759" x="310.85201" y="12.069818" style="fill: #0000ff; stroke: #000000"/>
     <use xlink:href="#meb70cd5759" x="305.063504" y="12.069818" style="fill: #0000ff; stroke: #000000"/>
     <use xlink:href="#meb70cd5759" x="299.388085" y="12.069818" style="fill: #0000ff; stroke: #000000"/>
     <use xlink:href="#meb70cd5759" x="293.823545" y="12.069818" style="fill: #0000ff; stroke: #000000"/>
     <use xlink:href="#meb70cd5759" x="288.367716" y="12.069818" style="fill: #0000ff; stroke: #000000"/>
     <use xlink:href="#meb70cd5759" x="283.018477" y="12.069818" style="fill: #0000ff; stroke: #000000"/>
     <use xlink:href="#meb70cd5759" x="277.773743" y="12.069818" style="fill: #0000ff; stroke: #000000"/>
     <use xlink:href="#meb70cd5759" x="272.631473" y="12.069818" style="fill: #0000ff; stroke: #000000"/>
     <use xlink:href="#meb70cd5759" x="267.589666" y="12.069818" style="fill: #0000ff; stroke: #000000"/>
     <use xlink:href="#meb70cd5759" x="262.646359" y="12.069818" style="fill: #0000ff; stroke: #000000"/>
     <use xlink:href="#meb70cd5759" x="257.799626" y="12.069818" style="fill: #0000ff; stroke: #000000"/>
     <use xlink:href="#meb70cd5759" x="253.047583" y="12.069818" style="fill: #0000ff; stroke: #000000"/>
     <use xlink:href="#meb70cd5759" x="248.388378" y="12.069818" style="fill: #0000ff; stroke: #000000"/>
     <use xlink:href="#meb70cd5759" x="243.820199" y="12.069818" style="fill: #0000ff; stroke: #000000"/>
     <use xlink:href="#meb70cd5759" x="239.341266" y="12.069818" style="fill: #0000ff; stroke: #000000"/>
     <use xlink:href="#meb70cd5759" x="234.949836" y="12.069818" style="fill: #0000ff; stroke: #000000"/>
     <use xlink:href="#meb70cd5759" x="230.6442" y="12.069818" style="fill: #0000ff; stroke: #000000"/>
     <use xlink:href="#meb70cd5759" x="226.422681" y="12.069818" style="fill: #0000ff; stroke: #000000"/>
     <use xlink:href="#meb70cd5759" x="222.283636" y="12.069818" style="fill: #0000ff; stroke: #000000"/>
     <use xlink:href="#meb70cd5759" x="218.225455" y="12.069818" style="fill: #0000ff; stroke: #000000"/>
     <use xlink:href="#meb70cd5759" x="217.969455" y="16.138819" style="fill: #0000ff; stroke: #000000"/>
     <use xlink:href="#meb70cd5759" x="217.205493" y="20.143648" style="fill: #0000ff; stroke: #000000"/>
     <use xlink:href="#meb70cd5759" x="215.945616" y="24.021149" style="fill: #0000ff; stroke: #000000"/>
     <use xlink:href="#meb70cd5759" x="214.209695" y="27.71017" style="fill: #0000ff; stroke: #000000"/>
     <use xlink:href="#meb70cd5759" x="212.025104" y="31.152534" style="fill: #0000ff; stroke: #000000"/>
     <use xlink:href="#meb70cd5759" x="209.426298" y="34.293951" style="fill: #0000ff; stroke: #000000"/>
     <use xlink:href="#meb70cd5759" x="206.45426" y="37.084881" style="fill: #0000ff; stroke: #000000"/>
     <use xlink:href="#meb70cd5759" x="203.15586" y="39.481308" style="fill: #0000ff; stroke: #000000"/>
     <use xlink:href="#meb70cd5759" x="199.583118" y="41.44544" style="fill: #0000ff; stroke: #000000"/>
     <use xlink:href="#meb70cd5759" x="195.792377" y="42.9463" style="fill: #0000ff; stroke: #000000"/>
     <use xlink:href="#meb70cd5759" x="191.84342" y="43.96022" style="fill: #0000ff; stroke: #000000"/>
     <use xlink:href="#meb70cd5759" x="187.798523" y="44.47121" style="fill: #0000ff; stroke: #000000"/>
     <use xlink:href="#meb70cd5759" x="183.721477" y="44.47121" style="fill: #0000ff; stroke: #000000"/>
     <use xlink:href="#meb70cd5759" x="179.67658" y="43.96022" style="fill: #0000ff; stroke: #000000"/>
     <use xlink:href="#meb70cd5759" x="175.727623" y="42.9463" style="fill: #0000ff; stroke: #000000"/>
     <use xlink:href="#meb70cd5759" x="171.936882" y="41.44544" style="fill: #0000ff; stroke: #000000"/>
     <use xlink:href="#meb70cd5759" x="168.36414" y="39.481308" style="fill: #0000ff; stroke: #000000"/>
     <use xlink:href="#meb70cd5759" x="165.06574" y="37.084881" style="fill: #0000ff; stroke: #000000"/>
     <use xlink:href="#meb70cd5759" x="162.093702" y="34.293951" style="fill: #0000ff; stroke: #000000"/>
     <use xlink:href="#meb70cd5759" x="159.494896" y="31.152534" style="fill: #0000ff; stroke: #000000"/>
     <use xlink:href="#meb70cd5759" x="157.310305" y="27.71017" style="fill: #0000ff; stroke: #000000"/>
     <use xlink:href="#meb70cd5759" x="155.574384" y="24.021149" style="fill: #0000ff; stroke: #000000"/>
     <use xlink:href="#meb70cd5759" x="154.314507" y="20.143648" style="fill: #0000ff; stroke: #000000"/>
     <use xlink:href="#meb70cd5759" x="153.550545" y="16.138819" style="fill: #0000ff; stroke: #000000"/>
     <use xlink:href="#meb70cd5759" x="153.294545" y="12.069818" style="fill: #0000ff; stroke: #000000"/>
    </g>
   </g>
  </g>
 </g>
 <defs>
  <clipPath id="p32c483c49c">
   <rect x="7.2" y="7.2" width="357.12" height="107.136"/>
  </clipPath>
 </defs>
</svg>
