<?xml version="1.0" encoding="utf-8" standalone="no"?>
<!DOCTYPE svg PUBLIC "-//W3C//DTD SVG 1.1//EN"
  "http://www.w3.org/Graphics/SVG/1.1/DTD/svg11.dtd">
<svg xmlns:xlink="http://www.w3.org/1999/xlink" width="405pt" height="445.318125pt" viewBox="0 0 405 445.318125" xmlns="http://www.w3.org/2000/svg" version="1.1">
 <metadata>
  <rdf:RDF xmlns:dc="http://purl.org/dc/elements/1.1/" xmlns:cc="http://creativecommons.org/ns#" xmlns:rdf="http://www.w3.org/1999/02/22-rdf-syntax-ns#">
   <cc:Work>
    <dc:type rdf:resource="http://purl.org/dc/dcmitype/StillImage"/>
    <dc:date>2025-07-22T10:09:25.343051</dc:date>
    <dc:format>image/svg+xml</dc:format>
    <dc:creator>
     <cc:Agent>
      <dc:title>Matplotlib v3.10.0, https://matplotlib.org/</dc:title>
     </cc:Agent>
    </dc:creator>
   </cc:Work>
  </rdf:RDF>
 </metadata>
 <defs>
  <style type="text/css">*{stroke-linejoin: round; stroke-linecap: butt}</style>
 </defs>
 <g id="figure_1">
  <g id="patch_1">
   <path d="M 0 445.318125 
L 405 445.318125 
L 405 0 
L 0 0 
z
" style="fill: #ffffff"/>
  </g>
  <g id="axes_1">
   <g id="patch_2">
    <path d="M 7.2 144.612243 
L 184.745455 144.612243 
L 184.745455 22.318125 
L 7.2 22.318125 
z
" style="fill: #ffffff"/>
   </g>
   <g id="line2d_1">
    <path d="M 15.270248 139.053419 
L 16.900601 139.025433 
L 18.530954 138.941502 
L 20.161307 138.801711 
L 21.79166 138.606201 
L 23.422014 138.355169 
L 25.052367 138.048867 
L 26.68272 137.687604 
L 28.313073 137.271744 
L 29.943426 136.801705 
L 31.573779 136.277961 
L 33.204132 135.701038 
L 34.834485 135.071519 
L 36.464838 134.390036 
L 38.095192 133.657277 
L 39.725545 132.873978 
L 41.355898 132.040929 
L 42.986251 131.158968 
L 44.616604 130.228983 
L 46.246957 129.251911 
L 47.87731 128.228736 
L 49.507663 127.160488 
L 51.138017 126.048243 
L 52.76837 124.893119 
L 54.398723 123.696282 
L 56.029076 122.458935 
L 57.659429 121.182325 
L 59.289782 119.867736 
L 60.920135 118.516494 
L 62.550488 117.129958 
L 64.180841 115.709524 
L 65.811195 114.256623 
L 67.441548 112.772717 
L 69.071901 111.259301 
L 70.702254 109.717899 
L 72.332607 108.150063 
L 73.96296 106.557371 
L 75.593313 104.941428 
L 77.223666 103.303859 
L 78.85402 101.646315 
L 80.484373 99.970464 
L 82.114726 98.277993 
L 83.745079 96.570607 
L 85.375432 94.850025 
L 87.005785 93.11798 
L 88.636138 91.376215 
L 90.266491 89.626484 
L 91.896844 87.870549 
L 93.527198 86.110179 
L 95.157551 84.347145 
L 96.787904 82.583223 
L 98.418257 80.820189 
L 100.04861 79.059819 
L 101.678963 77.303884 
L 103.309316 75.554153 
L 104.939669 73.812388 
L 106.570023 72.080343 
L 108.200376 70.359761 
L 109.830729 68.652375 
L 111.461082 66.959904 
L 113.091435 65.284053 
L 114.721788 63.626509 
L 116.352141 61.98894 
L 117.982494 60.372996 
L 119.612847 58.780304 
L 121.243201 57.212468 
L 122.873554 55.671066 
L 124.503907 54.15765 
L 126.13426 52.673745 
L 127.764613 51.220844 
L 129.394966 49.80041 
L 131.025319 48.413874 
L 132.655672 47.062631 
L 134.286026 45.748043 
L 135.916379 44.471433 
L 137.546732 43.234086 
L 139.177085 42.037248 
L 140.807438 40.882125 
L 142.437791 39.769879 
L 144.068144 38.701631 
L 145.698497 37.678456 
L 147.32885 36.701384 
L 148.959204 35.7714 
L 150.589557 34.889439 
L 152.21991 34.05639 
L 153.850263 33.273091 
L 155.480616 32.540331 
L 157.110969 31.858849 
L 158.741322 31.229329 
L 160.371675 30.652407 
L 162.002029 30.128663 
L 163.632382 29.658624 
L 165.262735 29.242763 
L 166.893088 28.8815 
L 168.523441 28.575199 
L 170.153794 28.324166 
L 171.784147 28.128656 
L 173.4145 27.988866 
L 175.044853 27.904935 
L 176.675207 27.876949 
" clip-path="url(#peeade4165d)" style="fill: none; stroke: #0000ff; stroke-width: 1.5; stroke-linecap: square"/>
   </g>
   <g id="line2d_2">
    <defs>
     <path id="m0c00eb6cd0" d="M 0 2.5 
C 0.663008 2.5 1.29895 2.236584 1.767767 1.767767 
C 2.236584 1.29895 2.5 0.663008 2.5 0 
C 2.5 -0.663008 2.236584 -1.29895 1.767767 -1.767767 
C 1.29895 -2.236584 0.663008 -2.5 0 -2.5 
C -0.663008 -2.5 -1.29895 -2.236584 -1.767767 -1.767767 
C -2.236584 -1.29895 -2.5 -0.663008 -2.5 0 
C -2.5 0.663008 -2.236584 1.29895 -1.767767 1.767767 
C -1.29895 2.236584 -0.663008 2.5 0 2.5 
z
" style="stroke: #000000"/>
    </defs>
    <g clip-path="url(#peeade4165d)">
     <use xlink:href="#m0c00eb6cd0" x="168.604959" y="29.754632" style="fill: #ff0000; stroke: #000000"/>
     <use xlink:href="#m0c00eb6cd0" x="152.464463" y="33.976477" style="fill: #ff0000; stroke: #000000"/>
     <use xlink:href="#m0c00eb6cd0" x="136.323967" y="43.946875" style="fill: #ff0000; stroke: #000000"/>
     <use xlink:href="#m0c00eb6cd0" x="120.183471" y="58.019263" style="fill: #ff0000; stroke: #000000"/>
     <use xlink:href="#m0c00eb6cd0" x="104.042975" y="74.686214" style="fill: #ff0000; stroke: #000000"/>
     <use xlink:href="#m0c00eb6cd0" x="87.902479" y="92.244154" style="fill: #ff0000; stroke: #000000"/>
     <use xlink:href="#m0c00eb6cd0" x="71.761983" y="108.911105" style="fill: #ff0000; stroke: #000000"/>
     <use xlink:href="#m0c00eb6cd0" x="55.621488" y="122.983493" style="fill: #ff0000; stroke: #000000"/>
     <use xlink:href="#m0c00eb6cd0" x="39.480992" y="132.953891" style="fill: #ff0000; stroke: #000000"/>
     <use xlink:href="#m0c00eb6cd0" x="23.340496" y="137.175735" style="fill: #ff0000; stroke: #000000"/>
    </g>
   </g>
   <g id="patch_3">
    <path d="M 7.2 144.612243 
L 7.2 22.318125 
" style="fill: none; stroke: #000000; stroke-width: 0.8; stroke-linejoin: miter; stroke-linecap: square"/>
   </g>
   <g id="patch_4">
    <path d="M 184.745455 144.612243 
L 184.745455 22.318125 
" style="fill: none; stroke: #000000; stroke-width: 0.8; stroke-linejoin: miter; stroke-linecap: square"/>
   </g>
   <g id="patch_5">
    <path d="M 7.2 144.612243 
L 184.745455 144.612243 
" style="fill: none; stroke: #000000; stroke-width: 0.8; stroke-linejoin: miter; stroke-linecap: square"/>
   </g>
   <g id="patch_6">
    <path d="M 7.2 22.318125 
L 184.745455 22.318125 
" style="fill: none; stroke: #000000; stroke-width: 0.8; stroke-linejoin: miter; stroke-linecap: square"/>
   </g>
   <g id="text_1">
    <!-- Asymmetric mode 1 -->
    <g transform="translate(35.378352 16.318125) scale(0.12 -0.12)">
     <defs>
      <path id="DejaVuSans-41" d="M 2188 4044 
L 1331 1722 
L 3047 1722 
L 2188 4044 
z
M 1831 4666 
L 2547 4666 
L 4325 0 
L 3669 0 
L 3244 1197 
L 1141 1197 
L 716 0 
L 50 0 
L 1831 4666 
z
" transform="scale(0.015625)"/>
      <path id="DejaVuSans-73" d="M 2834 3397 
L 2834 2853 
Q 2591 2978 2328 3040 
Q 2066 3103 1784 3103 
Q 1356 3103 1142 2972 
Q 928 2841 928 2578 
Q 928 2378 1081 2264 
Q 1234 2150 1697 2047 
L 1894 2003 
Q 2506 1872 2764 1633 
Q 3022 1394 3022 966 
Q 3022 478 2636 193 
Q 2250 -91 1575 -91 
Q 1294 -91 989 -36 
Q 684 19 347 128 
L 347 722 
Q 666 556 975 473 
Q 1284 391 1588 391 
Q 1994 391 2212 530 
Q 2431 669 2431 922 
Q 2431 1156 2273 1281 
Q 2116 1406 1581 1522 
L 1381 1569 
Q 847 1681 609 1914 
Q 372 2147 372 2553 
Q 372 3047 722 3315 
Q 1072 3584 1716 3584 
Q 2034 3584 2315 3537 
Q 2597 3491 2834 3397 
z
" transform="scale(0.015625)"/>
      <path id="DejaVuSans-79" d="M 2059 -325 
Q 1816 -950 1584 -1140 
Q 1353 -1331 966 -1331 
L 506 -1331 
L 506 -850 
L 844 -850 
Q 1081 -850 1212 -737 
Q 1344 -625 1503 -206 
L 1606 56 
L 191 3500 
L 800 3500 
L 1894 763 
L 2988 3500 
L 3597 3500 
L 2059 -325 
z
" transform="scale(0.015625)"/>
      <path id="DejaVuSans-6d" d="M 3328 2828 
Q 3544 3216 3844 3400 
Q 4144 3584 4550 3584 
Q 5097 3584 5394 3201 
Q 5691 2819 5691 2113 
L 5691 0 
L 5113 0 
L 5113 2094 
Q 5113 2597 4934 2840 
Q 4756 3084 4391 3084 
Q 3944 3084 3684 2787 
Q 3425 2491 3425 1978 
L 3425 0 
L 2847 0 
L 2847 2094 
Q 2847 2600 2669 2842 
Q 2491 3084 2119 3084 
Q 1678 3084 1418 2786 
Q 1159 2488 1159 1978 
L 1159 0 
L 581 0 
L 581 3500 
L 1159 3500 
L 1159 2956 
Q 1356 3278 1631 3431 
Q 1906 3584 2284 3584 
Q 2666 3584 2933 3390 
Q 3200 3197 3328 2828 
z
" transform="scale(0.015625)"/>
      <path id="DejaVuSans-65" d="M 3597 1894 
L 3597 1613 
L 953 1613 
Q 991 1019 1311 708 
Q 1631 397 2203 397 
Q 2534 397 2845 478 
Q 3156 559 3463 722 
L 3463 178 
Q 3153 47 2828 -22 
Q 2503 -91 2169 -91 
Q 1331 -91 842 396 
Q 353 884 353 1716 
Q 353 2575 817 3079 
Q 1281 3584 2069 3584 
Q 2775 3584 3186 3129 
Q 3597 2675 3597 1894 
z
M 3022 2063 
Q 3016 2534 2758 2815 
Q 2500 3097 2075 3097 
Q 1594 3097 1305 2825 
Q 1016 2553 972 2059 
L 3022 2063 
z
" transform="scale(0.015625)"/>
      <path id="DejaVuSans-74" d="M 1172 4494 
L 1172 3500 
L 2356 3500 
L 2356 3053 
L 1172 3053 
L 1172 1153 
Q 1172 725 1289 603 
Q 1406 481 1766 481 
L 2356 481 
L 2356 0 
L 1766 0 
Q 1100 0 847 248 
Q 594 497 594 1153 
L 594 3053 
L 172 3053 
L 172 3500 
L 594 3500 
L 594 4494 
L 1172 4494 
z
" transform="scale(0.015625)"/>
      <path id="DejaVuSans-72" d="M 2631 2963 
Q 2534 3019 2420 3045 
Q 2306 3072 2169 3072 
Q 1681 3072 1420 2755 
Q 1159 2438 1159 1844 
L 1159 0 
L 581 0 
L 581 3500 
L 1159 3500 
L 1159 2956 
Q 1341 3275 1631 3429 
Q 1922 3584 2338 3584 
Q 2397 3584 2469 3576 
Q 2541 3569 2628 3553 
L 2631 2963 
z
" transform="scale(0.015625)"/>
      <path id="DejaVuSans-69" d="M 603 3500 
L 1178 3500 
L 1178 0 
L 603 0 
L 603 3500 
z
M 603 4863 
L 1178 4863 
L 1178 4134 
L 603 4134 
L 603 4863 
z
" transform="scale(0.015625)"/>
      <path id="DejaVuSans-63" d="M 3122 3366 
L 3122 2828 
Q 2878 2963 2633 3030 
Q 2388 3097 2138 3097 
Q 1578 3097 1268 2742 
Q 959 2388 959 1747 
Q 959 1106 1268 751 
Q 1578 397 2138 397 
Q 2388 397 2633 464 
Q 2878 531 3122 666 
L 3122 134 
Q 2881 22 2623 -34 
Q 2366 -91 2075 -91 
Q 1284 -91 818 406 
Q 353 903 353 1747 
Q 353 2603 823 3093 
Q 1294 3584 2113 3584 
Q 2378 3584 2631 3529 
Q 2884 3475 3122 3366 
z
" transform="scale(0.015625)"/>
      <path id="DejaVuSans-20" transform="scale(0.015625)"/>
      <path id="DejaVuSans-6f" d="M 1959 3097 
Q 1497 3097 1228 2736 
Q 959 2375 959 1747 
Q 959 1119 1226 758 
Q 1494 397 1959 397 
Q 2419 397 2687 759 
Q 2956 1122 2956 1747 
Q 2956 2369 2687 2733 
Q 2419 3097 1959 3097 
z
M 1959 3584 
Q 2709 3584 3137 3096 
Q 3566 2609 3566 1747 
Q 3566 888 3137 398 
Q 2709 -91 1959 -91 
Q 1206 -91 779 398 
Q 353 888 353 1747 
Q 353 2609 779 3096 
Q 1206 3584 1959 3584 
z
" transform="scale(0.015625)"/>
      <path id="DejaVuSans-64" d="M 2906 2969 
L 2906 4863 
L 3481 4863 
L 3481 0 
L 2906 0 
L 2906 525 
Q 2725 213 2448 61 
Q 2172 -91 1784 -91 
Q 1150 -91 751 415 
Q 353 922 353 1747 
Q 353 2572 751 3078 
Q 1150 3584 1784 3584 
Q 2172 3584 2448 3432 
Q 2725 3281 2906 2969 
z
M 947 1747 
Q 947 1113 1208 752 
Q 1469 391 1925 391 
Q 2381 391 2643 752 
Q 2906 1113 2906 1747 
Q 2906 2381 2643 2742 
Q 2381 3103 1925 3103 
Q 1469 3103 1208 2742 
Q 947 2381 947 1747 
z
" transform="scale(0.015625)"/>
      <path id="DejaVuSans-31" d="M 794 531 
L 1825 531 
L 1825 4091 
L 703 3866 
L 703 4441 
L 1819 4666 
L 2450 4666 
L 2450 531 
L 3481 531 
L 3481 0 
L 794 0 
L 794 531 
z
" transform="scale(0.015625)"/>
     </defs>
     <use xlink:href="#DejaVuSans-41"/>
     <use xlink:href="#DejaVuSans-73" transform="translate(68.408203 0)"/>
     <use xlink:href="#DejaVuSans-79" transform="translate(120.507812 0)"/>
     <use xlink:href="#DejaVuSans-6d" transform="translate(179.6875 0)"/>
     <use xlink:href="#DejaVuSans-6d" transform="translate(277.099609 0)"/>
     <use xlink:href="#DejaVuSans-65" transform="translate(374.511719 0)"/>
     <use xlink:href="#DejaVuSans-74" transform="translate(436.035156 0)"/>
     <use xlink:href="#DejaVuSans-72" transform="translate(475.244141 0)"/>
     <use xlink:href="#DejaVuSans-69" transform="translate(516.357422 0)"/>
     <use xlink:href="#DejaVuSans-63" transform="translate(544.140625 0)"/>
     <use xlink:href="#DejaVuSans-20" transform="translate(599.121094 0)"/>
     <use xlink:href="#DejaVuSans-6d" transform="translate(630.908203 0)"/>
     <use xlink:href="#DejaVuSans-6f" transform="translate(728.320312 0)"/>
     <use xlink:href="#DejaVuSans-64" transform="translate(789.501953 0)"/>
     <use xlink:href="#DejaVuSans-65" transform="translate(852.978516 0)"/>
     <use xlink:href="#DejaVuSans-20" transform="translate(914.501953 0)"/>
     <use xlink:href="#DejaVuSans-31" transform="translate(946.289062 0)"/>
    </g>
   </g>
   <g id="legend_1">
    <g id="patch_7">
     <path d="M 14.2 59.674375 
L 96.0625 59.674375 
Q 98.0625 59.674375 98.0625 57.674375 
L 98.0625 29.318125 
Q 98.0625 27.318125 96.0625 27.318125 
L 14.2 27.318125 
Q 12.2 27.318125 12.2 29.318125 
L 12.2 57.674375 
Q 12.2 59.674375 14.2 59.674375 
z
" style="fill: #ffffff; opacity: 0.8; stroke: #cccccc; stroke-linejoin: miter"/>
    </g>
    <g id="line2d_3">
     <path d="M 16.2 35.416562 
L 26.2 35.416562 
L 36.2 35.416562 
" style="fill: none; stroke: #0000ff; stroke-width: 1.5; stroke-linecap: square"/>
    </g>
    <g id="text_2">
     <!-- analytical -->
     <g transform="translate(44.2 38.916562) scale(0.1 -0.1)">
      <defs>
       <path id="DejaVuSans-61" d="M 2194 1759 
Q 1497 1759 1228 1600 
Q 959 1441 959 1056 
Q 959 750 1161 570 
Q 1363 391 1709 391 
Q 2188 391 2477 730 
Q 2766 1069 2766 1631 
L 2766 1759 
L 2194 1759 
z
M 3341 1997 
L 3341 0 
L 2766 0 
L 2766 531 
Q 2569 213 2275 61 
Q 1981 -91 1556 -91 
Q 1019 -91 701 211 
Q 384 513 384 1019 
Q 384 1609 779 1909 
Q 1175 2209 1959 2209 
L 2766 2209 
L 2766 2266 
Q 2766 2663 2505 2880 
Q 2244 3097 1772 3097 
Q 1472 3097 1187 3025 
Q 903 2953 641 2809 
L 641 3341 
Q 956 3463 1253 3523 
Q 1550 3584 1831 3584 
Q 2591 3584 2966 3190 
Q 3341 2797 3341 1997 
z
" transform="scale(0.015625)"/>
       <path id="DejaVuSans-6e" d="M 3513 2113 
L 3513 0 
L 2938 0 
L 2938 2094 
Q 2938 2591 2744 2837 
Q 2550 3084 2163 3084 
Q 1697 3084 1428 2787 
Q 1159 2491 1159 1978 
L 1159 0 
L 581 0 
L 581 3500 
L 1159 3500 
L 1159 2956 
Q 1366 3272 1645 3428 
Q 1925 3584 2291 3584 
Q 2894 3584 3203 3211 
Q 3513 2838 3513 2113 
z
" transform="scale(0.015625)"/>
       <path id="DejaVuSans-6c" d="M 603 4863 
L 1178 4863 
L 1178 0 
L 603 0 
L 603 4863 
z
" transform="scale(0.015625)"/>
      </defs>
      <use xlink:href="#DejaVuSans-61"/>
      <use xlink:href="#DejaVuSans-6e" transform="translate(61.279297 0)"/>
      <use xlink:href="#DejaVuSans-61" transform="translate(124.658203 0)"/>
      <use xlink:href="#DejaVuSans-6c" transform="translate(185.9375 0)"/>
      <use xlink:href="#DejaVuSans-79" transform="translate(213.720703 0)"/>
      <use xlink:href="#DejaVuSans-74" transform="translate(272.900391 0)"/>
      <use xlink:href="#DejaVuSans-69" transform="translate(312.109375 0)"/>
      <use xlink:href="#DejaVuSans-63" transform="translate(339.892578 0)"/>
      <use xlink:href="#DejaVuSans-61" transform="translate(394.873047 0)"/>
      <use xlink:href="#DejaVuSans-6c" transform="translate(456.152344 0)"/>
     </g>
    </g>
    <g id="line2d_4">
     <g>
      <use xlink:href="#m0c00eb6cd0" x="26.2" y="50.094687" style="fill: #ff0000; stroke: #000000"/>
     </g>
    </g>
    <g id="text_3">
     <!-- numerical -->
     <g transform="translate(44.2 53.594687) scale(0.1 -0.1)">
      <defs>
       <path id="DejaVuSans-75" d="M 544 1381 
L 544 3500 
L 1119 3500 
L 1119 1403 
Q 1119 906 1312 657 
Q 1506 409 1894 409 
Q 2359 409 2629 706 
Q 2900 1003 2900 1516 
L 2900 3500 
L 3475 3500 
L 3475 0 
L 2900 0 
L 2900 538 
Q 2691 219 2414 64 
Q 2138 -91 1772 -91 
Q 1169 -91 856 284 
Q 544 659 544 1381 
z
M 1991 3584 
L 1991 3584 
z
" transform="scale(0.015625)"/>
      </defs>
      <use xlink:href="#DejaVuSans-6e"/>
      <use xlink:href="#DejaVuSans-75" transform="translate(63.378906 0)"/>
      <use xlink:href="#DejaVuSans-6d" transform="translate(126.757812 0)"/>
      <use xlink:href="#DejaVuSans-65" transform="translate(224.169922 0)"/>
      <use xlink:href="#DejaVuSans-72" transform="translate(285.693359 0)"/>
      <use xlink:href="#DejaVuSans-69" transform="translate(326.806641 0)"/>
      <use xlink:href="#DejaVuSans-63" transform="translate(354.589844 0)"/>
      <use xlink:href="#DejaVuSans-61" transform="translate(409.570312 0)"/>
      <use xlink:href="#DejaVuSans-6c" transform="translate(470.849609 0)"/>
     </g>
    </g>
   </g>
  </g>
  <g id="axes_2">
   <g id="patch_8">
    <path d="M 220.254545 144.612243 
L 397.8 144.612243 
L 397.8 22.318125 
L 220.254545 22.318125 
z
" style="fill: #ffffff"/>
   </g>
   <g id="line2d_5">
    <path d="M 228.324793 139.053419 
L 229.955147 138.941474 
L 231.5855 138.606089 
L 233.215853 138.048614 
L 234.846206 137.271295 
L 236.476559 136.277262 
L 238.106912 135.070516 
L 239.737265 133.655918 
L 241.367618 132.039163 
L 242.997971 130.226761 
L 244.628325 128.226011 
L 246.258678 126.044968 
L 247.889031 123.692415 
L 249.519384 121.177825 
L 251.149737 118.511323 
L 252.78009 115.703646 
L 254.410443 112.7661 
L 256.040796 109.710513 
L 257.67115 106.549189 
L 259.301503 103.294858 
L 260.931856 99.960623 
L 262.562209 96.55991 
L 264.192562 93.106413 
L 265.822915 89.614038 
L 267.453268 86.096848 
L 269.083621 82.569004 
L 270.713974 79.044713 
L 272.344328 75.538164 
L 273.974681 72.063479 
L 275.605034 68.634648 
L 277.235387 65.265478 
L 278.86574 61.969536 
L 280.496093 58.760092 
L 282.126446 55.650071 
L 283.756799 52.651995 
L 285.387153 49.777937 
L 287.017506 47.039469 
L 288.647859 44.447618 
L 290.278212 42.01282 
L 291.908565 39.744881 
L 293.538918 37.652931 
L 295.169271 35.745394 
L 296.799624 34.029952 
L 298.429977 32.513512 
L 300.060331 31.20218 
L 301.690684 30.101236 
L 303.321037 29.215114 
L 304.95139 28.547381 
L 306.581743 28.100726 
L 308.212096 27.876949 
L 309.842449 27.876949 
L 311.472802 28.100726 
L 313.103156 28.547381 
L 314.733509 29.215114 
L 316.363862 30.101236 
L 317.994215 31.20218 
L 319.624568 32.513512 
L 321.254921 34.029952 
L 322.885274 35.745394 
L 324.515627 37.652931 
L 326.14598 39.744881 
L 327.776334 42.01282 
L 329.406687 44.447618 
L 331.03704 47.039469 
L 332.667393 49.777937 
L 334.297746 52.651995 
L 335.928099 55.650071 
L 337.558452 58.760092 
L 339.188805 61.969536 
L 340.819159 65.265478 
L 342.449512 68.634648 
L 344.079865 72.063479 
L 345.710218 75.538164 
L 347.340571 79.044713 
L 348.970924 82.569004 
L 350.601277 86.096848 
L 352.23163 89.614038 
L 353.861983 93.106413 
L 355.492337 96.55991 
L 357.12269 99.960623 
L 358.753043 103.294858 
L 360.383396 106.549189 
L 362.013749 109.710513 
L 363.644102 112.7661 
L 365.274455 115.703646 
L 366.904808 118.511323 
L 368.535162 121.177825 
L 370.165515 123.692415 
L 371.795868 126.044968 
L 373.426221 128.226011 
L 375.056574 130.226761 
L 376.686927 132.039163 
L 378.31728 133.655918 
L 379.947633 135.070516 
L 381.577986 136.277262 
L 383.20834 137.271295 
L 384.838693 138.048614 
L 386.469046 138.606089 
L 388.099399 138.941474 
L 389.729752 139.053419 
" clip-path="url(#p49c2f70cde)" style="fill: none; stroke: #0000ff; stroke-width: 1.5; stroke-linecap: square"/>
   </g>
   <g id="line2d_6">
    <g clip-path="url(#p49c2f70cde)">
     <use xlink:href="#m0c00eb6cd0" x="381.659504" y="134.914998" style="fill: #ff0000; stroke: #000000"/>
     <use xlink:href="#m0c00eb6cd0" x="365.519008" y="117.358054" style="fill: #ff0000; stroke: #000000"/>
     <use xlink:href="#m0c00eb6cd0" x="349.378512" y="84.73744" style="fill: #ff0000; stroke: #000000"/>
     <use xlink:href="#m0c00eb6cd0" x="333.238017" y="51.218573" style="fill: #ff0000; stroke: #000000"/>
     <use xlink:href="#m0c00eb6cd0" x="317.097521" y="30.285198" style="fill: #ff0000; stroke: #000000"/>
     <use xlink:href="#m0c00eb6cd0" x="300.957025" y="30.285198" style="fill: #ff0000; stroke: #000000"/>
     <use xlink:href="#m0c00eb6cd0" x="284.816529" y="51.218573" style="fill: #ff0000; stroke: #000000"/>
     <use xlink:href="#m0c00eb6cd0" x="268.676033" y="84.73744" style="fill: #ff0000; stroke: #000000"/>
     <use xlink:href="#m0c00eb6cd0" x="252.535537" y="117.358054" style="fill: #ff0000; stroke: #000000"/>
     <use xlink:href="#m0c00eb6cd0" x="236.395041" y="134.914998" style="fill: #ff0000; stroke: #000000"/>
    </g>
   </g>
   <g id="patch_9">
    <path d="M 220.254545 144.612243 
L 220.254545 22.318125 
" style="fill: none; stroke: #000000; stroke-width: 0.8; stroke-linejoin: miter; stroke-linecap: square"/>
   </g>
   <g id="patch_10">
    <path d="M 397.8 144.612243 
L 397.8 22.318125 
" style="fill: none; stroke: #000000; stroke-width: 0.8; stroke-linejoin: miter; stroke-linecap: square"/>
   </g>
   <g id="patch_11">
    <path d="M 220.254545 144.612243 
L 397.8 144.612243 
" style="fill: none; stroke: #000000; stroke-width: 0.8; stroke-linejoin: miter; stroke-linecap: square"/>
   </g>
   <g id="patch_12">
    <path d="M 220.254545 22.318125 
L 397.8 22.318125 
" style="fill: none; stroke: #000000; stroke-width: 0.8; stroke-linejoin: miter; stroke-linecap: square"/>
   </g>
   <g id="text_4">
    <!-- Symmetric mode 1 -->
    <g transform="translate(251.853835 16.318125) scale(0.12 -0.12)">
     <defs>
      <path id="DejaVuSans-53" d="M 3425 4513 
L 3425 3897 
Q 3066 4069 2747 4153 
Q 2428 4238 2131 4238 
Q 1616 4238 1336 4038 
Q 1056 3838 1056 3469 
Q 1056 3159 1242 3001 
Q 1428 2844 1947 2747 
L 2328 2669 
Q 3034 2534 3370 2195 
Q 3706 1856 3706 1288 
Q 3706 609 3251 259 
Q 2797 -91 1919 -91 
Q 1588 -91 1214 -16 
Q 841 59 441 206 
L 441 856 
Q 825 641 1194 531 
Q 1563 422 1919 422 
Q 2459 422 2753 634 
Q 3047 847 3047 1241 
Q 3047 1584 2836 1778 
Q 2625 1972 2144 2069 
L 1759 2144 
Q 1053 2284 737 2584 
Q 422 2884 422 3419 
Q 422 4038 858 4394 
Q 1294 4750 2059 4750 
Q 2388 4750 2728 4690 
Q 3069 4631 3425 4513 
z
" transform="scale(0.015625)"/>
     </defs>
     <use xlink:href="#DejaVuSans-53"/>
     <use xlink:href="#DejaVuSans-79" transform="translate(63.476562 0)"/>
     <use xlink:href="#DejaVuSans-6d" transform="translate(122.65625 0)"/>
     <use xlink:href="#DejaVuSans-6d" transform="translate(220.068359 0)"/>
     <use xlink:href="#DejaVuSans-65" transform="translate(317.480469 0)"/>
     <use xlink:href="#DejaVuSans-74" transform="translate(379.003906 0)"/>
     <use xlink:href="#DejaVuSans-72" transform="translate(418.212891 0)"/>
     <use xlink:href="#DejaVuSans-69" transform="translate(459.326172 0)"/>
     <use xlink:href="#DejaVuSans-63" transform="translate(487.109375 0)"/>
     <use xlink:href="#DejaVuSans-20" transform="translate(542.089844 0)"/>
     <use xlink:href="#DejaVuSans-6d" transform="translate(573.876953 0)"/>
     <use xlink:href="#DejaVuSans-6f" transform="translate(671.289062 0)"/>
     <use xlink:href="#DejaVuSans-64" transform="translate(732.470703 0)"/>
     <use xlink:href="#DejaVuSans-65" transform="translate(795.947266 0)"/>
     <use xlink:href="#DejaVuSans-20" transform="translate(857.470703 0)"/>
     <use xlink:href="#DejaVuSans-31" transform="translate(889.257812 0)"/>
    </g>
   </g>
  </g>
  <g id="axes_3">
   <g id="patch_13">
    <path d="M 7.2 291.365184 
L 184.745455 291.365184 
L 184.745455 169.071066 
L 7.2 169.071066 
z
" style="fill: #ffffff"/>
   </g>
   <g id="line2d_7">
    <path d="M 15.270248 174.62989 
L 16.900601 174.881598 
L 18.530954 175.634442 
L 20.161307 176.881604 
L 21.79166 178.61179 
L 23.422014 180.809331 
L 25.052367 183.454326 
L 26.68272 186.522821 
L 28.313073 189.987027 
L 29.943426 193.815572 
L 31.573779 197.973785 
L 33.204132 202.424007 
L 34.834485 207.125938 
L 36.464838 212.036994 
L 38.095192 217.112702 
L 39.725545 222.307094 
L 41.355898 227.57313 
L 42.986251 232.86312 
L 44.616604 238.129156 
L 46.246957 243.323548 
L 47.87731 248.399256 
L 49.507663 253.310312 
L 51.138017 258.012243 
L 52.76837 262.462465 
L 54.398723 266.620678 
L 56.029076 270.449223 
L 57.659429 273.913429 
L 59.289782 276.981924 
L 60.920135 279.626919 
L 62.550488 281.82446 
L 64.180841 283.554646 
L 65.811195 284.801808 
L 67.441548 285.554652 
L 69.071901 285.80636 
L 70.702254 285.554652 
L 72.332607 284.801808 
L 73.96296 283.554646 
L 75.593313 281.82446 
L 77.223666 279.626919 
L 78.85402 276.981924 
L 80.484373 273.913429 
L 82.114726 270.449223 
L 83.745079 266.620678 
L 85.375432 262.462465 
L 87.005785 258.012243 
L 88.636138 253.310312 
L 90.266491 248.399256 
L 91.896844 243.323548 
L 93.527198 238.129156 
L 95.157551 232.86312 
L 96.787904 227.57313 
L 98.418257 222.307094 
L 100.04861 217.112702 
L 101.678963 212.036994 
L 103.309316 207.125938 
L 104.939669 202.424007 
L 106.570023 197.973785 
L 108.200376 193.815572 
L 109.830729 189.987027 
L 111.461082 186.522821 
L 113.091435 183.454326 
L 114.721788 180.809331 
L 116.352141 178.61179 
L 117.982494 176.881604 
L 119.612847 175.634442 
L 121.243201 174.881598 
L 122.873554 174.62989 
L 124.503907 174.881598 
L 126.13426 175.634442 
L 127.764613 176.881604 
L 129.394966 178.61179 
L 131.025319 180.809331 
L 132.655672 183.454326 
L 134.286026 186.522821 
L 135.916379 189.987027 
L 137.546732 193.815572 
L 139.177085 197.973785 
L 140.807438 202.424007 
L 142.437791 207.125938 
L 144.068144 212.036994 
L 145.698497 217.112702 
L 147.32885 222.307094 
L 148.959204 227.57313 
L 150.589557 232.86312 
L 152.21991 238.129156 
L 153.850263 243.323548 
L 155.480616 248.399256 
L 157.110969 253.310312 
L 158.741322 258.012243 
L 160.371675 262.462465 
L 162.002029 266.620678 
L 163.632382 270.449223 
L 165.262735 273.913429 
L 166.893088 276.981924 
L 168.523441 279.626919 
L 170.153794 281.82446 
L 171.784147 283.554646 
L 173.4145 284.801808 
L 175.044853 285.554652 
L 176.675207 285.80636 
" clip-path="url(#pebd2846c7b)" style="fill: none; stroke: #0000ff; stroke-width: 1.5; stroke-linecap: square"/>
   </g>
   <g id="line2d_8">
    <g clip-path="url(#pebd2846c7b)">
     <use xlink:href="#m0c00eb6cd0" x="168.604959" y="276.90154" style="fill: #ff0000; stroke: #000000"/>
     <use xlink:href="#m0c00eb6cd0" x="152.464463" y="241.03337" style="fill: #ff0000; stroke: #000000"/>
     <use xlink:href="#m0c00eb6cd0" x="136.323967" y="193.814963" style="fill: #ff0000; stroke: #000000"/>
     <use xlink:href="#m0c00eb6cd0" x="120.183471" y="177.113224" style="fill: #ff0000; stroke: #000000"/>
     <use xlink:href="#m0c00eb6cd0" x="104.042975" y="205.509205" style="fill: #ff0000; stroke: #000000"/>
     <use xlink:href="#m0c00eb6cd0" x="87.902479" y="254.927045" style="fill: #ff0000; stroke: #000000"/>
     <use xlink:href="#m0c00eb6cd0" x="71.761983" y="283.323026" style="fill: #ff0000; stroke: #000000"/>
     <use xlink:href="#m0c00eb6cd0" x="55.621488" y="266.621287" style="fill: #ff0000; stroke: #000000"/>
     <use xlink:href="#m0c00eb6cd0" x="39.480992" y="219.40288" style="fill: #ff0000; stroke: #000000"/>
     <use xlink:href="#m0c00eb6cd0" x="23.340496" y="183.53471" style="fill: #ff0000; stroke: #000000"/>
    </g>
   </g>
   <g id="patch_14">
    <path d="M 7.2 291.365184 
L 7.2 169.071066 
" style="fill: none; stroke: #000000; stroke-width: 0.8; stroke-linejoin: miter; stroke-linecap: square"/>
   </g>
   <g id="patch_15">
    <path d="M 184.745455 291.365184 
L 184.745455 169.071066 
" style="fill: none; stroke: #000000; stroke-width: 0.8; stroke-linejoin: miter; stroke-linecap: square"/>
   </g>
   <g id="patch_16">
    <path d="M 7.2 291.365184 
L 184.745455 291.365184 
" style="fill: none; stroke: #000000; stroke-width: 0.8; stroke-linejoin: miter; stroke-linecap: square"/>
   </g>
   <g id="patch_17">
    <path d="M 7.2 169.071066 
L 184.745455 169.071066 
" style="fill: none; stroke: #000000; stroke-width: 0.8; stroke-linejoin: miter; stroke-linecap: square"/>
   </g>
   <g id="text_5">
    <!-- Asymmetric mode 2 -->
    <g transform="translate(35.378352 163.071066) scale(0.12 -0.12)">
     <defs>
      <path id="DejaVuSans-32" d="M 1228 531 
L 3431 531 
L 3431 0 
L 469 0 
L 469 531 
Q 828 903 1448 1529 
Q 2069 2156 2228 2338 
Q 2531 2678 2651 2914 
Q 2772 3150 2772 3378 
Q 2772 3750 2511 3984 
Q 2250 4219 1831 4219 
Q 1534 4219 1204 4116 
Q 875 4013 500 3803 
L 500 4441 
Q 881 4594 1212 4672 
Q 1544 4750 1819 4750 
Q 2544 4750 2975 4387 
Q 3406 4025 3406 3419 
Q 3406 3131 3298 2873 
Q 3191 2616 2906 2266 
Q 2828 2175 2409 1742 
Q 1991 1309 1228 531 
z
" transform="scale(0.015625)"/>
     </defs>
     <use xlink:href="#DejaVuSans-41"/>
     <use xlink:href="#DejaVuSans-73" transform="translate(68.408203 0)"/>
     <use xlink:href="#DejaVuSans-79" transform="translate(120.507812 0)"/>
     <use xlink:href="#DejaVuSans-6d" transform="translate(179.6875 0)"/>
     <use xlink:href="#DejaVuSans-6d" transform="translate(277.099609 0)"/>
     <use xlink:href="#DejaVuSans-65" transform="translate(374.511719 0)"/>
     <use xlink:href="#DejaVuSans-74" transform="translate(436.035156 0)"/>
     <use xlink:href="#DejaVuSans-72" transform="translate(475.244141 0)"/>
     <use xlink:href="#DejaVuSans-69" transform="translate(516.357422 0)"/>
     <use xlink:href="#DejaVuSans-63" transform="translate(544.140625 0)"/>
     <use xlink:href="#DejaVuSans-20" transform="translate(599.121094 0)"/>
     <use xlink:href="#DejaVuSans-6d" transform="translate(630.908203 0)"/>
     <use xlink:href="#DejaVuSans-6f" transform="translate(728.320312 0)"/>
     <use xlink:href="#DejaVuSans-64" transform="translate(789.501953 0)"/>
     <use xlink:href="#DejaVuSans-65" transform="translate(852.978516 0)"/>
     <use xlink:href="#DejaVuSans-20" transform="translate(914.501953 0)"/>
     <use xlink:href="#DejaVuSans-32" transform="translate(946.289062 0)"/>
    </g>
   </g>
  </g>
  <g id="axes_4">
   <g id="patch_18">
    <path d="M 220.254545 291.365184 
L 397.8 291.365184 
L 397.8 169.071066 
L 220.254545 169.071066 
z
" style="fill: #ffffff"/>
   </g>
   <g id="line2d_9">
    <path d="M 228.324793 174.62989 
L 229.955147 175.069829 
L 231.5855 176.382568 
L 233.215853 178.546984 
L 234.846206 181.528252 
L 236.476559 185.278401 
L 238.106912 189.73709 
L 239.737265 194.832577 
L 241.367618 200.482873 
L 242.997971 206.597064 
L 244.628325 213.07677 
L 246.258678 219.81773 
L 247.889031 226.711479 
L 249.519384 233.647094 
L 251.149737 240.512979 
L 252.78009 247.198659 
L 254.410443 253.596559 
L 256.040796 259.603735 
L 257.67115 265.123528 
L 259.301503 270.067122 
L 260.931856 274.354975 
L 262.562209 277.918092 
L 264.192562 280.699142 
L 265.822915 282.653377 
L 267.453268 283.749352 
L 269.083621 283.969432 
L 270.713974 283.310077 
L 272.344328 281.781896 
L 273.974681 279.409477 
L 275.605034 276.230994 
L 277.235387 272.29759 
L 278.86574 267.672554 
L 280.496093 262.430306 
L 282.126446 256.655195 
L 283.756799 250.440144 
L 285.387153 243.885157 
L 287.017506 237.095705 
L 288.647859 230.181034 
L 290.278212 223.252402 
L 291.908565 216.421294 
L 293.538918 209.797626 
L 295.169271 203.487974 
L 296.799624 197.593863 
L 298.429977 192.210132 
L 300.060331 187.423407 
L 301.690684 183.310708 
L 303.321037 179.93821 
L 304.95139 177.360178 
L 306.581743 175.618092 
L 308.212096 174.739985 
L 309.842449 174.739985 
L 311.472802 175.618092 
L 313.103156 177.360178 
L 314.733509 179.93821 
L 316.363862 183.310708 
L 317.994215 187.423407 
L 319.624568 192.210132 
L 321.254921 197.593863 
L 322.885274 203.487974 
L 324.515627 209.797626 
L 326.14598 216.421294 
L 327.776334 223.252402 
L 329.406687 230.181034 
L 331.03704 237.095705 
L 332.667393 243.885157 
L 334.297746 250.440144 
L 335.928099 256.655195 
L 337.558452 262.430306 
L 339.188805 267.672554 
L 340.819159 272.29759 
L 342.449512 276.230994 
L 344.079865 279.409477 
L 345.710218 281.781896 
L 347.340571 283.310077 
L 348.970924 283.969432 
L 350.601277 283.749352 
L 352.23163 282.653377 
L 353.861983 280.699142 
L 355.492337 277.918092 
L 357.12269 274.354975 
L 358.753043 270.067122 
L 360.383396 265.123528 
L 362.013749 259.603735 
L 363.644102 253.596559 
L 365.274455 247.198659 
L 366.904808 240.512979 
L 368.535162 233.647094 
L 370.165515 226.711479 
L 371.795868 219.81773 
L 373.426221 213.07677 
L 375.056574 206.597064 
L 376.686927 200.482873 
L 378.31728 194.832577 
L 379.947633 189.73709 
L 381.577986 185.278401 
L 383.20834 181.528252 
L 384.838693 178.546984 
L 386.469046 176.382568 
L 388.099399 175.069829 
L 389.729752 174.62989 
" clip-path="url(#p351cabb658)" style="fill: none; stroke: #0000ff; stroke-width: 1.5; stroke-linecap: square"/>
   </g>
   <g id="line2d_10">
    <g clip-path="url(#p351cabb658)">
     <use xlink:href="#m0c00eb6cd0" x="381.659504" y="183.461982" style="fill: #ff0000; stroke: #000000"/>
     <use xlink:href="#m0c00eb6cd0" x="365.519008" y="243.287153" style="fill: #ff0000; stroke: #000000"/>
     <use xlink:href="#m0c00eb6cd0" x="349.378512" y="285.80636" style="fill: #ff0000; stroke: #000000"/>
     <use xlink:href="#m0c00eb6cd0" x="333.238017" y="248.656928" style="fill: #ff0000; stroke: #000000"/>
     <use xlink:href="#m0c00eb6cd0" x="317.097521" y="184.368492" style="fill: #ff0000; stroke: #000000"/>
     <use xlink:href="#m0c00eb6cd0" x="300.957025" y="184.368492" style="fill: #ff0000; stroke: #000000"/>
     <use xlink:href="#m0c00eb6cd0" x="284.816529" y="248.656928" style="fill: #ff0000; stroke: #000000"/>
     <use xlink:href="#m0c00eb6cd0" x="268.676033" y="285.80636" style="fill: #ff0000; stroke: #000000"/>
     <use xlink:href="#m0c00eb6cd0" x="252.535537" y="243.287153" style="fill: #ff0000; stroke: #000000"/>
     <use xlink:href="#m0c00eb6cd0" x="236.395041" y="183.461982" style="fill: #ff0000; stroke: #000000"/>
    </g>
   </g>
   <g id="patch_19">
    <path d="M 220.254545 291.365184 
L 220.254545 169.071066 
" style="fill: none; stroke: #000000; stroke-width: 0.8; stroke-linejoin: miter; stroke-linecap: square"/>
   </g>
   <g id="patch_20">
    <path d="M 397.8 291.365184 
L 397.8 169.071066 
" style="fill: none; stroke: #000000; stroke-width: 0.8; stroke-linejoin: miter; stroke-linecap: square"/>
   </g>
   <g id="patch_21">
    <path d="M 220.254545 291.365184 
L 397.8 291.365184 
" style="fill: none; stroke: #000000; stroke-width: 0.8; stroke-linejoin: miter; stroke-linecap: square"/>
   </g>
   <g id="patch_22">
    <path d="M 220.254545 169.071066 
L 397.8 169.071066 
" style="fill: none; stroke: #000000; stroke-width: 0.8; stroke-linejoin: miter; stroke-linecap: square"/>
   </g>
   <g id="text_6">
    <!-- Symmetric mode 2 -->
    <g transform="translate(251.853835 163.071066) scale(0.12 -0.12)">
     <use xlink:href="#DejaVuSans-53"/>
     <use xlink:href="#DejaVuSans-79" transform="translate(63.476562 0)"/>
     <use xlink:href="#DejaVuSans-6d" transform="translate(122.65625 0)"/>
     <use xlink:href="#DejaVuSans-6d" transform="translate(220.068359 0)"/>
     <use xlink:href="#DejaVuSans-65" transform="translate(317.480469 0)"/>
     <use xlink:href="#DejaVuSans-74" transform="translate(379.003906 0)"/>
     <use xlink:href="#DejaVuSans-72" transform="translate(418.212891 0)"/>
     <use xlink:href="#DejaVuSans-69" transform="translate(459.326172 0)"/>
     <use xlink:href="#DejaVuSans-63" transform="translate(487.109375 0)"/>
     <use xlink:href="#DejaVuSans-20" transform="translate(542.089844 0)"/>
     <use xlink:href="#DejaVuSans-6d" transform="translate(573.876953 0)"/>
     <use xlink:href="#DejaVuSans-6f" transform="translate(671.289062 0)"/>
     <use xlink:href="#DejaVuSans-64" transform="translate(732.470703 0)"/>
     <use xlink:href="#DejaVuSans-65" transform="translate(795.947266 0)"/>
     <use xlink:href="#DejaVuSans-20" transform="translate(857.470703 0)"/>
     <use xlink:href="#DejaVuSans-32" transform="translate(889.257812 0)"/>
    </g>
   </g>
  </g>
  <g id="axes_5">
   <g id="patch_23">
    <path d="M 7.2 438.118125 
L 184.745455 438.118125 
L 184.745455 315.824007 
L 7.2 315.824007 
z
" style="fill: #ffffff"/>
   </g>
   <g id="line2d_11">
    <path d="M 15.270248 432.559301 
L 16.900601 431.861051 
L 18.530954 429.783843 
L 20.161307 426.37986 
L 21.79166 421.734619 
L 23.422014 415.964817 
L 25.052367 409.215406 
L 26.68272 401.655946 
L 28.313073 393.476346 
L 29.943426 384.882097 
L 31.573779 376.089105 
L 33.204132 367.31827 
L 34.834485 358.789935 
L 36.464838 350.718351 
L 38.095192 343.306292 
L 39.725545 336.739968 
L 41.355898 331.184339 
L 42.986251 326.778973 
L 44.616604 323.634545 
L 46.246957 321.830049 
L 47.87731 321.410817 
L 49.507663 322.387383 
L 51.138017 324.735212 
L 52.76837 328.395321 
L 54.398723 333.275762 
L 56.029076 339.253925 
L 57.659429 346.179627 
L 59.289782 353.878879 
L 60.920135 362.158257 
L 62.550488 370.809766 
L 64.180841 379.616061 
L 65.811195 388.355907 
L 67.441548 396.809741 
L 69.071901 404.765184 
L 70.702254 412.022376 
L 72.332607 418.399002 
L 73.96296 423.734866 
L 75.593313 427.895919 
L 77.223666 430.777626 
L 78.85402 432.307594 
L 80.484373 432.447384 
L 82.114726 431.193487 
L 83.745079 428.577401 
L 85.375432 424.66485 
L 87.005785 419.554125 
L 88.636138 413.373619 
L 90.266491 406.2786 
L 91.896844 398.44731 
L 93.527198 390.076489 
L 95.157551 381.376431 
L 96.787904 372.565701 
L 98.418257 363.865643 
L 100.04861 355.494822 
L 101.678963 347.663533 
L 103.309316 340.568514 
L 104.939669 334.388007 
L 106.570023 329.277282 
L 108.200376 325.364731 
L 109.830729 322.748646 
L 111.461082 321.494748 
L 113.091435 321.634539 
L 114.721788 323.164506 
L 116.352141 326.046214 
L 117.982494 330.207267 
L 119.612847 335.543131 
L 121.243201 341.919756 
L 122.873554 349.176949 
L 124.503907 357.132391 
L 126.13426 365.586225 
L 127.764613 374.326071 
L 129.394966 383.132366 
L 131.025319 391.783875 
L 132.655672 400.063254 
L 134.286026 407.762505 
L 135.916379 414.688207 
L 137.546732 420.666371 
L 139.177085 425.546811 
L 140.807438 429.206921 
L 142.437791 431.55475 
L 144.068144 432.531315 
L 145.698497 432.112084 
L 147.32885 430.307587 
L 148.959204 427.163159 
L 150.589557 422.757794 
L 152.21991 417.202164 
L 153.850263 410.63584 
L 155.480616 403.223782 
L 157.110969 395.152197 
L 158.741322 386.623862 
L 160.371675 377.853027 
L 162.002029 369.060035 
L 163.632382 360.465786 
L 165.262735 352.286187 
L 166.893088 344.726726 
L 168.523441 337.977315 
L 170.153794 332.207514 
L 171.784147 327.562272 
L 173.4145 324.158289 
L 175.044853 322.081081 
L 176.675207 321.382831 
" clip-path="url(#pee1eb77aab)" style="fill: none; stroke: #0000ff; stroke-width: 1.5; stroke-linecap: square"/>
   </g>
   <g id="line2d_12">
    <g clip-path="url(#pee1eb77aab)">
     <use xlink:href="#m0c00eb6cd0" x="168.604959" y="336.209148" style="fill: #ff0000; stroke: #000000"/>
     <use xlink:href="#m0c00eb6cd0" x="152.464463" y="413.750913" style="fill: #ff0000; stroke: #000000"/>
     <use xlink:href="#m0c00eb6cd0" x="136.323967" y="418.760691" style="fill: #ff0000; stroke: #000000"/>
     <use xlink:href="#m0c00eb6cd0" x="120.183471" y="339.096126" style="fill: #ff0000; stroke: #000000"/>
     <use xlink:href="#m0c00eb6cd0" x="104.042975" y="337.210937" style="fill: #ff0000; stroke: #000000"/>
     <use xlink:href="#m0c00eb6cd0" x="87.902479" y="416.731196" style="fill: #ff0000; stroke: #000000"/>
     <use xlink:href="#m0c00eb6cd0" x="71.761983" y="414.846007" style="fill: #ff0000; stroke: #000000"/>
     <use xlink:href="#m0c00eb6cd0" x="55.621488" y="335.181442" style="fill: #ff0000; stroke: #000000"/>
     <use xlink:href="#m0c00eb6cd0" x="39.480992" y="340.191219" style="fill: #ff0000; stroke: #000000"/>
     <use xlink:href="#m0c00eb6cd0" x="23.340496" y="417.732985" style="fill: #ff0000; stroke: #000000"/>
    </g>
   </g>
   <g id="patch_24">
    <path d="M 7.2 438.118125 
L 7.2 315.824007 
" style="fill: none; stroke: #000000; stroke-width: 0.8; stroke-linejoin: miter; stroke-linecap: square"/>
   </g>
   <g id="patch_25">
    <path d="M 184.745455 438.118125 
L 184.745455 315.824007 
" style="fill: none; stroke: #000000; stroke-width: 0.8; stroke-linejoin: miter; stroke-linecap: square"/>
   </g>
   <g id="patch_26">
    <path d="M 7.2 438.118125 
L 184.745455 438.118125 
" style="fill: none; stroke: #000000; stroke-width: 0.8; stroke-linejoin: miter; stroke-linecap: square"/>
   </g>
   <g id="patch_27">
    <path d="M 7.2 315.824007 
L 184.745455 315.824007 
" style="fill: none; stroke: #000000; stroke-width: 0.8; stroke-linejoin: miter; stroke-linecap: square"/>
   </g>
   <g id="text_7">
    <!-- Asymmetric mode 3 -->
    <g transform="translate(35.378352 309.824007) scale(0.12 -0.12)">
     <defs>
      <path id="DejaVuSans-33" d="M 2597 2516 
Q 3050 2419 3304 2112 
Q 3559 1806 3559 1356 
Q 3559 666 3084 287 
Q 2609 -91 1734 -91 
Q 1441 -91 1130 -33 
Q 819 25 488 141 
L 488 750 
Q 750 597 1062 519 
Q 1375 441 1716 441 
Q 2309 441 2620 675 
Q 2931 909 2931 1356 
Q 2931 1769 2642 2001 
Q 2353 2234 1838 2234 
L 1294 2234 
L 1294 2753 
L 1863 2753 
Q 2328 2753 2575 2939 
Q 2822 3125 2822 3475 
Q 2822 3834 2567 4026 
Q 2313 4219 1838 4219 
Q 1578 4219 1281 4162 
Q 984 4106 628 3988 
L 628 4550 
Q 988 4650 1302 4700 
Q 1616 4750 1894 4750 
Q 2613 4750 3031 4423 
Q 3450 4097 3450 3541 
Q 3450 3153 3228 2886 
Q 3006 2619 2597 2516 
z
" transform="scale(0.015625)"/>
     </defs>
     <use xlink:href="#DejaVuSans-41"/>
     <use xlink:href="#DejaVuSans-73" transform="translate(68.408203 0)"/>
     <use xlink:href="#DejaVuSans-79" transform="translate(120.507812 0)"/>
     <use xlink:href="#DejaVuSans-6d" transform="translate(179.6875 0)"/>
     <use xlink:href="#DejaVuSans-6d" transform="translate(277.099609 0)"/>
     <use xlink:href="#DejaVuSans-65" transform="translate(374.511719 0)"/>
     <use xlink:href="#DejaVuSans-74" transform="translate(436.035156 0)"/>
     <use xlink:href="#DejaVuSans-72" transform="translate(475.244141 0)"/>
     <use xlink:href="#DejaVuSans-69" transform="translate(516.357422 0)"/>
     <use xlink:href="#DejaVuSans-63" transform="translate(544.140625 0)"/>
     <use xlink:href="#DejaVuSans-20" transform="translate(599.121094 0)"/>
     <use xlink:href="#DejaVuSans-6d" transform="translate(630.908203 0)"/>
     <use xlink:href="#DejaVuSans-6f" transform="translate(728.320312 0)"/>
     <use xlink:href="#DejaVuSans-64" transform="translate(789.501953 0)"/>
     <use xlink:href="#DejaVuSans-65" transform="translate(852.978516 0)"/>
     <use xlink:href="#DejaVuSans-20" transform="translate(914.501953 0)"/>
     <use xlink:href="#DejaVuSans-33" transform="translate(946.289062 0)"/>
    </g>
   </g>
  </g>
  <g id="axes_6">
   <g id="patch_28">
    <path d="M 220.254545 438.118125 
L 397.8 438.118125 
L 397.8 315.824007 
L 220.254545 315.824007 
z
" style="fill: #ffffff"/>
   </g>
   <g id="line2d_13">
    <path d="M 228.324793 432.559301 
L 229.955147 431.55247 
L 231.5855 428.568366 
L 233.215853 423.714841 
L 234.846206 417.167316 
L 236.476559 409.162435 
L 238.106912 399.989514 
L 239.737265 389.980088 
L 241.367618 379.495923 
L 242.997971 368.915944 
L 244.628325 358.62254 
L 246.258678 348.987739 
L 247.889031 340.35977 
L 249.519384 333.05047 
L 251.149737 327.324015 
L 252.78009 323.387376 
L 254.410443 321.382831 
L 256.040796 321.382831 
L 257.67115 323.387376 
L 259.301503 327.324015 
L 260.931856 333.05047 
L 262.562209 340.35977 
L 264.192562 348.987739 
L 265.822915 358.62254 
L 267.453268 368.915944 
L 269.083621 379.495923 
L 270.713974 389.980088 
L 272.344328 399.989514 
L 273.974681 409.162435 
L 275.605034 417.167316 
L 277.235387 423.714841 
L 278.86574 428.568366 
L 280.496093 431.55247 
L 282.126446 432.559301 
L 283.756799 431.55247 
L 285.387153 428.568366 
L 287.017506 423.714841 
L 288.647859 417.167316 
L 290.278212 409.162435 
L 291.908565 399.989514 
L 293.538918 389.980088 
L 295.169271 379.495923 
L 296.799624 368.915944 
L 298.429977 358.62254 
L 300.060331 348.987739 
L 301.690684 340.35977 
L 303.321037 333.05047 
L 304.95139 327.324015 
L 306.581743 323.387376 
L 308.212096 321.382831 
L 309.842449 321.382831 
L 311.472802 323.387376 
L 313.103156 327.324015 
L 314.733509 333.05047 
L 316.363862 340.35977 
L 317.994215 348.987739 
L 319.624568 358.62254 
L 321.254921 368.915944 
L 322.885274 379.495923 
L 324.515627 389.980088 
L 326.14598 399.989514 
L 327.776334 409.162435 
L 329.406687 417.167316 
L 331.03704 423.714841 
L 332.667393 428.568366 
L 334.297746 431.55247 
L 335.928099 432.559301 
L 337.558452 431.55247 
L 339.188805 428.568366 
L 340.819159 423.714841 
L 342.449512 417.167316 
L 344.079865 409.162435 
L 345.710218 399.989514 
L 347.340571 389.980088 
L 348.970924 379.495923 
L 350.601277 368.915944 
L 352.23163 358.62254 
L 353.861983 348.987739 
L 355.492337 340.35977 
L 357.12269 333.05047 
L 358.753043 327.324015 
L 360.383396 323.387376 
L 362.013749 321.382831 
L 363.644102 321.382831 
L 365.274455 323.387376 
L 366.904808 327.324015 
L 368.535162 333.05047 
L 370.165515 340.35977 
L 371.795868 348.987739 
L 373.426221 358.62254 
L 375.056574 368.915944 
L 376.686927 379.495923 
L 378.31728 389.980088 
L 379.947633 399.989514 
L 381.577986 409.162435 
L 383.20834 417.167316 
L 384.838693 423.714841 
L 386.469046 428.568366 
L 388.099399 431.55247 
L 389.729752 432.559301 
" clip-path="url(#p3db6ed7fb5)" style="fill: none; stroke: #0000ff; stroke-width: 1.5; stroke-linecap: square"/>
   </g>
   <g id="line2d_14">
    <g clip-path="url(#p3db6ed7fb5)">
     <use xlink:href="#m0c00eb6cd0" x="381.659504" y="411.491153" style="fill: #ff0000; stroke: #000000"/>
     <use xlink:href="#m0c00eb6cd0" x="365.519008" y="325.339465" style="fill: #ff0000; stroke: #000000"/>
     <use xlink:href="#m0c00eb6cd0" x="349.378512" y="373.635086" style="fill: #ff0000; stroke: #000000"/>
     <use xlink:href="#m0c00eb6cd0" x="333.238017" y="429.640409" style="fill: #ff0000; stroke: #000000"/>
     <use xlink:href="#m0c00eb6cd0" x="317.097521" y="344.813514" style="fill: #ff0000; stroke: #000000"/>
     <use xlink:href="#m0c00eb6cd0" x="300.957025" y="344.813514" style="fill: #ff0000; stroke: #000000"/>
     <use xlink:href="#m0c00eb6cd0" x="284.816529" y="429.640409" style="fill: #ff0000; stroke: #000000"/>
     <use xlink:href="#m0c00eb6cd0" x="268.676033" y="373.635086" style="fill: #ff0000; stroke: #000000"/>
     <use xlink:href="#m0c00eb6cd0" x="252.535537" y="325.339465" style="fill: #ff0000; stroke: #000000"/>
     <use xlink:href="#m0c00eb6cd0" x="236.395041" y="411.491153" style="fill: #ff0000; stroke: #000000"/>
    </g>
   </g>
   <g id="patch_29">
    <path d="M 220.254545 438.118125 
L 220.254545 315.824007 
" style="fill: none; stroke: #000000; stroke-width: 0.8; stroke-linejoin: miter; stroke-linecap: square"/>
   </g>
   <g id="patch_30">
    <path d="M 397.8 438.118125 
L 397.8 315.824007 
" style="fill: none; stroke: #000000; stroke-width: 0.8; stroke-linejoin: miter; stroke-linecap: square"/>
   </g>
   <g id="patch_31">
    <path d="M 220.254545 438.118125 
L 397.8 438.118125 
" style="fill: none; stroke: #000000; stroke-width: 0.8; stroke-linejoin: miter; stroke-linecap: square"/>
   </g>
   <g id="patch_32">
    <path d="M 220.254545 315.824007 
L 397.8 315.824007 
" style="fill: none; stroke: #000000; stroke-width: 0.8; stroke-linejoin: miter; stroke-linecap: square"/>
   </g>
   <g id="text_8">
    <!-- Symmetric mode 3 -->
    <g transform="translate(251.853835 309.824007) scale(0.12 -0.12)">
     <use xlink:href="#DejaVuSans-53"/>
     <use xlink:href="#DejaVuSans-79" transform="translate(63.476562 0)"/>
     <use xlink:href="#DejaVuSans-6d" transform="translate(122.65625 0)"/>
     <use xlink:href="#DejaVuSans-6d" transform="translate(220.068359 0)"/>
     <use xlink:href="#DejaVuSans-65" transform="translate(317.480469 0)"/>
     <use xlink:href="#DejaVuSans-74" transform="translate(379.003906 0)"/>
     <use xlink:href="#DejaVuSans-72" transform="translate(418.212891 0)"/>
     <use xlink:href="#DejaVuSans-69" transform="translate(459.326172 0)"/>
     <use xlink:href="#DejaVuSans-63" transform="translate(487.109375 0)"/>
     <use xlink:href="#DejaVuSans-20" transform="translate(542.089844 0)"/>
     <use xlink:href="#DejaVuSans-6d" transform="translate(573.876953 0)"/>
     <use xlink:href="#DejaVuSans-6f" transform="translate(671.289062 0)"/>
     <use xlink:href="#DejaVuSans-64" transform="translate(732.470703 0)"/>
     <use xlink:href="#DejaVuSans-65" transform="translate(795.947266 0)"/>
     <use xlink:href="#DejaVuSans-20" transform="translate(857.470703 0)"/>
     <use xlink:href="#DejaVuSans-33" transform="translate(889.257812 0)"/>
    </g>
   </g>
  </g>
 </g>
 <defs>
  <clipPath id="peeade4165d">
   <rect x="7.2" y="22.318125" width="177.545455" height="122.294118"/>
  </clipPath>
  <clipPath id="p49c2f70cde">
   <rect x="220.254545" y="22.318125" width="177.545455" height="122.294118"/>
  </clipPath>
  <clipPath id="pebd2846c7b">
   <rect x="7.2" y="169.071066" width="177.545455" height="122.294118"/>
  </clipPath>
  <clipPath id="p351cabb658">
   <rect x="220.254545" y="169.071066" width="177.545455" height="122.294118"/>
  </clipPath>
  <clipPath id="pee1eb77aab">
   <rect x="7.2" y="315.824007" width="177.545455" height="122.294118"/>
  </clipPath>
  <clipPath id="p3db6ed7fb5">
   <rect x="220.254545" y="315.824007" width="177.545455" height="122.294118"/>
  </clipPath>
 </defs>
</svg>
