<?xml version="1.0" encoding="UTF-8" standalone="no"?>
<!-- Created with Inkscape (http://www.inkscape.org/) -->

<svg
   width="52.916668mm"
   height="62.979568mm"
   viewBox="0 0 52.916668 62.979571"
   version="1.1"
   id="svg1"
   inkscape:version="1.4 (86a8ad7, 2024-10-11)"
   sodipodi:docname="tank.svg"
   xmlns:inkscape="http://www.inkscape.org/namespaces/inkscape"
   xmlns:sodipodi="http://sodipodi.sourceforge.net/DTD/sodipodi-0.dtd"
   xmlns="http://www.w3.org/2000/svg"
   xmlns:svg="http://www.w3.org/2000/svg">
  <sodipodi:namedview
     id="namedview1"
     pagecolor="#ffffff"
     bordercolor="#000000"
     borderopacity="0.25"
     inkscape:showpageshadow="2"
     inkscape:pageopacity="0.0"
     inkscape:pagecheckerboard="0"
     inkscape:deskcolor="#d1d1d1"
     inkscape:document-units="mm"
     inkscape:zoom="2.6191077"
     inkscape:cx="189.75928"
     inkscape:cy="123.51535"
     inkscape:window-width="1920"
     inkscape:window-height="974"
     inkscape:window-x="-11"
     inkscape:window-y="-11"
     inkscape:window-maximized="1"
     inkscape:current-layer="layer4" />
  <defs
     id="defs1">
    <inkscape:path-effect
       effect="bspline"
       id="path-effect17"
       is_visible="true"
       lpeversion="1.3"
       weight="33.333333"
       steps="2"
       helper_size="0"
       apply_no_weight="true"
       apply_with_weight="true"
       only_selected="false"
       uniform="false" />
    <inkscape:path-effect
       effect="bspline"
       id="path-effect15"
       is_visible="true"
       lpeversion="1.3"
       weight="33.333333"
       steps="2"
       helper_size="0"
       apply_no_weight="true"
       apply_with_weight="true"
       only_selected="false"
       uniform="false" />
    <inkscape:path-effect
       effect="bspline"
       id="path-effect13"
       is_visible="true"
       lpeversion="1.3"
       weight="33.333333"
       steps="2"
       helper_size="0"
       apply_no_weight="true"
       apply_with_weight="true"
       only_selected="false"
       uniform="false" />
    <marker
       style="overflow:visible"
       id="marker10"
       refX="0"
       refY="0"
       orient="auto-start-reverse"
       inkscape:stockid="Dart arrow"
       markerWidth="1"
       markerHeight="1"
       viewBox="0 0 1 1"
       inkscape:isstock="true"
       inkscape:collect="always"
       preserveAspectRatio="xMidYMid">
      <path
         style="fill:context-stroke;fill-rule:evenodd;stroke:none"
         d="M 0,0 5,-5 -12.5,0 5,5 Z"
         transform="scale(-0.5)"
         id="path10" />
    </marker>
    <marker
       style="overflow:visible"
       id="marker9"
       refX="0"
       refY="0"
       orient="auto-start-reverse"
       inkscape:stockid="Dart arrow"
       markerWidth="1"
       markerHeight="1"
       viewBox="0 0 1 1"
       inkscape:isstock="true"
       inkscape:collect="always"
       preserveAspectRatio="xMidYMid">
      <path
         style="fill:context-stroke;fill-rule:evenodd;stroke:none"
         d="M 0,0 5,-5 -12.5,0 5,5 Z"
         transform="scale(-0.5)"
         id="path9" />
    </marker>
    <inkscape:path-effect
       effect="bspline"
       id="path-effect8"
       is_visible="true"
       lpeversion="1.3"
       weight="33.333333"
       steps="2"
       helper_size="0"
       apply_no_weight="true"
       apply_with_weight="true"
       only_selected="false"
       uniform="false" />
    <inkscape:path-effect
       effect="bspline"
       id="path-effect7"
       is_visible="true"
       lpeversion="1.3"
       weight="33.333333"
       steps="2"
       helper_size="0"
       apply_no_weight="true"
       apply_with_weight="true"
       only_selected="false"
       uniform="false" />
    <marker
       style="overflow:visible"
       id="DartArrow"
       refX="0"
       refY="0"
       orient="auto-start-reverse"
       inkscape:stockid="Dart arrow"
       markerWidth="1"
       markerHeight="1"
       viewBox="0 0 1 1"
       inkscape:isstock="true"
       inkscape:collect="always"
       preserveAspectRatio="xMidYMid">
      <path
         style="fill:context-stroke;fill-rule:evenodd;stroke:none"
         d="M 0,0 5,-5 -12.5,0 5,5 Z"
         transform="scale(-0.5)"
         id="path6" />
    </marker>
    <inkscape:path-effect
       effect="bspline"
       id="path-effect6"
       is_visible="true"
       lpeversion="1.3"
       weight="33.333333"
       steps="2"
       helper_size="0"
       apply_no_weight="true"
       apply_with_weight="true"
       only_selected="false"
       uniform="false" />
    <inkscape:path-effect
       effect="bspline"
       id="path-effect4"
       is_visible="true"
       lpeversion="1.3"
       weight="33.333333"
       steps="2"
       helper_size="0"
       apply_no_weight="true"
       apply_with_weight="true"
       only_selected="false"
       uniform="false" />
    <inkscape:path-effect
       effect="bspline"
       id="path-effect3"
       is_visible="true"
       lpeversion="1.3"
       weight="33.333333"
       steps="2"
       helper_size="0"
       apply_no_weight="true"
       apply_with_weight="true"
       only_selected="false"
       uniform="false" />
    <inkscape:path-effect
       effect="bspline"
       id="path-effect1"
       is_visible="true"
       lpeversion="1.3"
       weight="33.333333"
       steps="2"
       helper_size="0"
       apply_no_weight="true"
       apply_with_weight="true"
       only_selected="false"
       uniform="false" />
  </defs>
  <rect
     style="fill:#ffffff;fill-opacity:1;stroke:none;stroke-width:0.192432;stroke-dasharray:none;stroke-opacity:1"
     id="rect12"
     width="52.916668"
     height="62.979568"
     x="0"
     y="0"
     inkscape:label="background"
     sodipodi:insensitive="true" />
  <g
     inkscape:label="tank"
     inkscape:groupmode="layer"
     id="layer1"
     transform="translate(-66.165291,-68.757836)">
    <rect
       style="fill:#b0daff;fill-opacity:0.498876;stroke:#2499ed;stroke-width:0.351603;stroke-dasharray:none;stroke-opacity:1"
       id="rect1"
       width="35.977707"
       height="35.977707"
       x="74.137039"
       y="86.199387" />
    <path
       style="fill:#b0daff;fill-opacity:0.498876;stroke:#2499ed;stroke-width:0.52920978;stroke-dasharray:none;stroke-opacity:1"
       d="m 80.008163,95.767341 c 0,-4.016261 0,-8.032525 0,-12.048786"
       id="path1"
       inkscape:path-effect="#path-effect1"
       inkscape:original-d="m 80.008163,95.767341 c 0,-4.016261 0,-8.032525 0,-12.048786"
       transform="matrix(0.66444586,0,0,0.66444586,20.975941,22.567178)" />
    <path
       style="fill:#b0daff;fill-opacity:0.498876;stroke:#2499ed;stroke-width:0.529167;stroke-dasharray:none;stroke-opacity:1"
       d="m 80.008163,95.767341 c 0,-4.016261 0,-8.032525 0,-12.048786"
       id="path2"
       inkscape:path-effect="#path-effect3"
       inkscape:original-d="m 80.008163,95.767341 c 0,-4.016261 0,-8.032525 0,-12.048786"
       transform="matrix(0.66444586,0,0,0.66444586,56.953654,22.567178)" />
    <path
       sodipodi:type="star"
       style="fill:#ffffff;fill-opacity:1;stroke:#2499ed;stroke-width:0.21035555;stroke-dasharray:none;stroke-opacity:1"
       id="path12"
       inkscape:flatsided="false"
       sodipodi:sides="3"
       sodipodi:cx="13.036379"
       sodipodi:cy="11.607735"
       sodipodi:r1="3.5118215"
       sodipodi:r2="1.7559109"
       sodipodi:arg1="1.5707963"
       sodipodi:arg2="2.6179939"
       inkscape:rounded="0"
       inkscape:randomized="0"
       d="M 13.036379,15.119556 11.515715,12.48569 9.9950522,9.851824 l 3.0413268,-2e-7 3.041326,0 -1.520663,2.6338662 z"
       inkscape:transform-center-y="0.61778097"
       transform="matrix(0.70365869,0,0,0.70365869,72.962068,75.56038)" />
    <path
       style="fill:#ffffff;fill-opacity:1;stroke:#2499ed;stroke-width:0.14801822;stroke-dasharray:none;stroke-opacity:1"
       d="m 13.829882,13.734865 c 1.426704,0 2.853407,0 4.280111,0"
       id="path13"
       inkscape:path-effect="#path-effect13"
       inkscape:original-d="m 13.829882,13.734865 c 1.426704,0 2.853407,0 4.280111,0"
       transform="matrix(1.4005441,0,0,-1,59.768627,100.55602)" />
    <path
       style="fill:#ffffff;fill-opacity:1;stroke:#2499ed;stroke-width:0.14801822;stroke-dasharray:none;stroke-opacity:1"
       d="m 13.829882,13.734865 c 1.426704,0 2.853407,0 4.280111,0"
       id="path14"
       inkscape:path-effect="#path-effect15"
       inkscape:original-d="m 13.829882,13.734865 c 1.426704,0 2.853407,0 4.280111,0"
       transform="matrix(0.81036821,0,0,-1,69.193699,101.08519)" />
    <path
       style="fill:#ffffff;fill-opacity:1;stroke:#2499ed;stroke-width:0.14801822;stroke-dasharray:none;stroke-opacity:1"
       d="m 13.829882,13.734865 c 1.426704,0 2.853407,0 4.280111,0"
       id="path15"
       inkscape:path-effect="#path-effect17"
       inkscape:original-d="m 13.829882,13.734865 c 1.426704,0 2.853407,0 4.280111,0"
       transform="matrix(0.34078807,0,0,-1,76.692864,101.61436)" />
  </g>
  <g
     inkscape:groupmode="layer"
     id="layer2"
     inkscape:label="dimensions"
     transform="translate(-66.165291,-68.757836)">
    <path
       style="fill:#b0daff;fill-opacity:0.498876;stroke:#000000;stroke-width:0.272042;stroke-dasharray:none;stroke-opacity:1;marker-start:url(#marker9);marker-end:url(#marker10)"
       d="m 134.1551,95.767339 c 0,18.048981 0,36.097961 0,54.146931"
       id="path7"
       inkscape:path-effect="#path-effect7"
       inkscape:original-d="m 134.1551,95.767339 c 0,18.048981 0,36.097961 0,54.146931"
       transform="matrix(0.66444586,0,0,0.62851057,23.536953,27.11202)" />
    <path
       style="fill:#b0daff;fill-opacity:0.498876;stroke:#000000;stroke-width:0.271863;stroke-dasharray:none;stroke-opacity:1;marker-start:url(#marker9);marker-end:url(#marker10)"
       d="m 80.008163,149.91427 c 18.04898,0 36.097957,0 54.146937,0"
       id="path8"
       inkscape:path-effect="#path-effect8"
       inkscape:original-d="m 80.008163,149.91427 c 18.04898,0 36.097957,0 54.146937,0"
       transform="matrix(0.62933664,0,0,0.66444586,24.65243,24.662966)" />
  </g>
  <g
     inkscape:groupmode="layer"
     id="layer3"
     inkscape:label="coordinate system"
     transform="translate(-66.165291,-68.757836)">
    <path
       style="fill:#ffb0b0;fill-opacity:0.498876;stroke:#000000;stroke-width:0.293851;stroke-dasharray:none;stroke-opacity:1;marker-end:url(#DartArrow)"
       d="m 107.08163,95.767341 c 0,-8.254574 0,-16.509148 0,-24.763719"
       id="path3"
       inkscape:path-effect="#path-effect4"
       inkscape:original-d="m 107.08163,95.767341 c 0,-8.254574 0,-16.509148 0,-24.763719"
       transform="matrix(0.66444586,0,0,0.5386801,20.975941,34.611429)" />
    <path
       style="fill:#ffb0b0;fill-opacity:0.498876;stroke:#000000;stroke-width:0.287221;stroke-dasharray:none;stroke-opacity:1;marker-end:url(#DartArrow)"
       d="m 107.08163,95.767341 c 0,-8.254574 0,-16.509148 0,-24.763719"
       id="path4"
       inkscape:path-effect="#path-effect6"
       inkscape:original-d="m 107.08163,95.767341 c 0,-8.254574 0,-16.509148 0,-24.763719"
       transform="matrix(0,0.66444586,-0.56383333,0,146.12271,15.049448)" />
  </g>
  <g
     inkscape:groupmode="layer"
     id="layer4"
     inkscape:label="text"
     transform="translate(-0.32685897,-1.3741915)">
    <path
       d="m 41.824972,21.06223 q -0.555106,0.592303 -1.161715,1.170299 l 0.266107,0.626639 q 0.10587,0.251801 0.16882,0.371978 0.06295,0.117316 0.114455,0.171682 0.0515,0.0515 0.103009,0.07726 0.0515,0.02289 0.163098,0.0372 l -0.03148,0.140207 h -0.71248 l -0.39773,-1.15027 q -0.06867,0.06009 -0.183128,0.168821 -0.111593,0.10587 -0.217464,0.228909 -0.10587,0.120178 -0.148791,0.194573 -0.04292,0.0744 -0.05723,0.128762 -0.01145,0.05437 -0.01145,0.111593 0,0.0744 0.04006,0.117316 0.04292,0.04292 0.143068,0.06009 l -0.03148,0.140207 h -0.81549 l -0.05437,-0.140207 q 0.62664,-0.672421 1.233249,-1.238972 l -0.271829,-0.638085 q -0.08298,-0.194573 -0.134485,-0.294721 -0.0515,-0.103009 -0.100148,-0.157375 -0.04578,-0.05723 -0.108731,-0.08584 -0.06009,-0.03148 -0.174544,-0.04006 l 0.03148,-0.140207 h 0.712481 l 0.380561,1.078735 q 0.140207,-0.128761 0.266108,-0.266107 0.1259,-0.137346 0.177404,-0.217464 0.0515,-0.08012 0.07153,-0.143068 0.02003,-0.06295 0.02003,-0.131623 0,-0.157375 -0.183127,-0.180266 l 0.03148,-0.140207 h 0.815489 z"
       id="text10"
       style="font-style:italic;font-size:5.86008px;font-family:Cambria;-inkscape-font-specification:'Cambria Italic';stroke:#000000;stroke-width:0.175801"
       aria-label="x" />
    <path
       d="m 21.86669,5.1647059 q -0.02861,-0.2174639 -0.05437,-0.3004435 -0.02575,-0.085841 -0.08298,-0.1287615 -0.05723,-0.045782 -0.185989,-0.054366 l 0.03148,-0.140207 h 0.735371 l 0.217464,2.2747868 q 0.967142,-1.3219515 0.967142,-1.894225 0,-0.1344842 -0.05723,-0.1831274 -0.05723,-0.048643 -0.194573,-0.057227 l 0.02861,-0.140207 h 0.738232 l 0.07726,0.1430684 q -0.151652,0.39773 -0.389146,0.8240737 -0.234632,0.4263437 -0.577996,0.9328057 -0.340503,0.5064619 -0.758262,1.052983 -0.320473,0.420621 -0.537937,0.6352235 -0.168821,0.163098 -0.311889,0.2460776 -0.140207,0.085841 -0.27183,0.1201774 -0.134484,0.037198 -0.283275,0.037198 -0.07726,0 -0.174544,-0.017168 -0.09729,-0.014307 -0.165959,-0.040059 L 20.739312,7.940232 h 0.223186 q 0.0029,0.097286 0.04578,0.1545138 0.04292,0.057227 0.1259,0.057227 0.09156,0 0.157376,-0.02003 0.06581,-0.017168 0.137345,-0.060089 0.0744,-0.04292 0.177405,-0.1373456 0.105871,-0.094425 0.237493,-0.2518003 0.131623,-0.1545139 0.294721,-0.3748391 z"
       id="text10-8"
       style="font-style:italic;font-size:5.86008px;font-family:Cambria;-inkscape-font-specification:'Cambria Italic';stroke:#000000;stroke-width:0.175801"
       aria-label="y" />
    <path
       d="M 50.615853,39.130375 H 49.717384 L 50.077916,37.6768 q 0.04006,-0.157375 0.06867,-0.317611 0.03148,-0.163098 0.03148,-0.294721 0,-0.206019 -0.06867,-0.29186 -0.06867,-0.0887 -0.231771,-0.0887 -0.117316,0 -0.260384,0.09729 -0.140207,0.09729 -0.297582,0.297582 -0.157375,0.197434 -0.251801,0.380562 -0.09156,0.180266 -0.145929,0.432066 l -0.260385,1.238972 h -0.495016 l 0.735371,-3.270543 q 0.03148,-0.143068 0.04292,-0.206018 0.01431,-0.06581 0.02003,-0.120178 0.0057,-0.05437 0.0057,-0.09729 0,-0.120177 -0.0744,-0.168821 -0.07153,-0.04864 -0.260384,-0.05437 l 0.03434,-0.148791 0.723926,-0.02575 h 0.16596 l -0.492156,1.982927 0.03434,0.01145 q 0.268968,-0.357671 0.512185,-0.520769 0.243216,-0.163098 0.495016,-0.163098 0.277553,0 0.420621,0.154514 0.143068,0.151652 0.143068,0.452096 0,0.183127 -0.05723,0.44065 l -0.240355,1.018647 q -0.02861,0.123039 -0.04006,0.197434 -0.01145,0.0744 -0.01145,0.128762 0,0.0887 0.02861,0.137346 0.03148,0.04864 0.09156,0.0744 0.06295,0.02289 0.197434,0.0372 z"
       id="text11"
       style="font-style:italic;font-size:5.86008px;font-family:Cambria;-inkscape-font-specification:'Cambria Italic';stroke:#000000;stroke-width:0.175801"
       aria-label="h" />
    <path
       d="m 25.125836,62.152037 q 0.108732,-0.01717 0.163098,-0.05437 0.05437,-0.04006 0.09156,-0.108732 0.0372,-0.06867 0.06867,-0.165959 0.03148,-0.100148 0.09443,-0.383423 l 0.486432,-2.203253 q 0.02861,-0.131623 0.04578,-0.2518 0.01717,-0.123039 0.01717,-0.20888 0,-0.134484 -0.06867,-0.185989 -0.06867,-0.05437 -0.211741,-0.06295 l 0.03148,-0.140207 h 1.144546 l -0.03148,0.140207 q -0.108732,0.02289 -0.157375,0.0515 -0.04578,0.02861 -0.08584,0.08584 -0.0372,0.05723 -0.07726,0.180266 -0.0372,0.120177 -0.09729,0.394868 l -0.612333,2.789833 h 0.703897 q 0.191711,0 0.300443,-0.0372 0.111593,-0.0372 0.20888,-0.134484 0.100148,-0.100148 0.194573,-0.268968 0.09443,-0.168821 0.191711,-0.420621 h 0.277553 l -0.288998,1.124517 h -2.420717 z"
       id="text12"
       style="font-style:italic;font-size:5.86008px;font-family:Cambria;-inkscape-font-specification:'Cambria Italic';stroke:#000000;stroke-width:0.175801"
       aria-label="L" />
  </g>
</svg>
