<?xml version="1.0" encoding="UTF-8" standalone="no"?>
<!-- Created with Inkscape (http://www.inkscape.org/) -->

<svg
   width="66.145836mm"
   height="49.062275mm"
   viewBox="0 0 66.145836 49.062274"
   version="1.1"
   id="svg1"
   inkscape:version="1.4 (86a8ad7, 2024-10-11)"
   sodipodi:docname="bar_element .svg"
   xmlns:inkscape="http://www.inkscape.org/namespaces/inkscape"
   xmlns:sodipodi="http://sodipodi.sourceforge.net/DTD/sodipodi-0.dtd"
   xmlns="http://www.w3.org/2000/svg"
   xmlns:svg="http://www.w3.org/2000/svg">
  <sodipodi:namedview
     id="namedview1"
     pagecolor="#ffffff"
     bordercolor="#000000"
     borderopacity="0.25"
     inkscape:showpageshadow="2"
     inkscape:pageopacity="0.0"
     inkscape:pagecheckerboard="0"
     inkscape:deskcolor="#d1d1d1"
     inkscape:document-units="mm"
     inkscape:zoom="2.6191077"
     inkscape:cx="132.10606"
     inkscape:cy="89.53431"
     inkscape:window-width="1920"
     inkscape:window-height="974"
     inkscape:window-x="-11"
     inkscape:window-y="-11"
     inkscape:window-maximized="1"
     inkscape:current-layer="layer1" />
  <defs
     id="defs1">
    <inkscape:path-effect
       effect="bspline"
       id="path-effect32"
       is_visible="true"
       lpeversion="1.3"
       weight="33.333333"
       steps="2"
       helper_size="0"
       apply_no_weight="true"
       apply_with_weight="true"
       only_selected="false"
       uniform="false" />
    <inkscape:path-effect
       effect="bspline"
       id="path-effect30"
       is_visible="true"
       lpeversion="1.3"
       weight="33.333333"
       steps="2"
       helper_size="0"
       apply_no_weight="true"
       apply_with_weight="true"
       only_selected="false"
       uniform="false" />
    <marker
       style="overflow:visible"
       id="marker18"
       refX="0"
       refY="0"
       orient="auto-start-reverse"
       inkscape:stockid="Concave triangle arrow"
       markerWidth="2"
       markerHeight="2"
       viewBox="0 0 1 1"
       inkscape:isstock="true"
       inkscape:collect="always"
       preserveAspectRatio="xMidYMid">
      <path
         transform="scale(0.7)"
         d="M -2,-4 9,0 -2,4 c 2,-2.33 2,-5.66 0,-8 z"
         style="fill:context-stroke;fill-rule:evenodd;stroke:none"
         id="path18" />
    </marker>
    <inkscape:path-effect
       effect="bspline"
       id="path-effect17"
       is_visible="true"
       lpeversion="1.3"
       weight="33.333333"
       steps="2"
       helper_size="0"
       apply_no_weight="true"
       apply_with_weight="true"
       only_selected="false"
       uniform="false" />
    <inkscape:path-effect
       effect="bspline"
       id="path-effect15"
       is_visible="true"
       lpeversion="1.3"
       weight="33.333333"
       steps="2"
       helper_size="0"
       apply_no_weight="true"
       apply_with_weight="true"
       only_selected="false"
       uniform="false" />
    <inkscape:path-effect
       effect="bspline"
       id="path-effect7"
       is_visible="true"
       lpeversion="1.3"
       weight="33.333333"
       steps="2"
       helper_size="0"
       apply_no_weight="true"
       apply_with_weight="true"
       only_selected="false"
       uniform="false" />
    <inkscape:path-effect
       effect="bspline"
       id="path-effect6"
       is_visible="true"
       lpeversion="1.3"
       weight="33.333333"
       steps="2"
       helper_size="0"
       apply_no_weight="true"
       apply_with_weight="true"
       only_selected="false"
       uniform="false" />
    <marker
       style="overflow:visible"
       id="ConcaveTriangle"
       refX="0"
       refY="0"
       orient="auto-start-reverse"
       inkscape:stockid="Concave triangle arrow"
       markerWidth="1"
       markerHeight="1"
       viewBox="0 0 1 1"
       inkscape:isstock="true"
       inkscape:collect="always"
       preserveAspectRatio="xMidYMid">
      <path
         transform="scale(0.7)"
         d="M -2,-4 9,0 -2,4 c 2,-2.33 2,-5.66 0,-8 z"
         style="fill:context-stroke;fill-rule:evenodd;stroke:none"
         id="path7" />
    </marker>
    <inkscape:path-effect
       effect="bspline"
       id="path-effect4"
       is_visible="true"
       lpeversion="1.3"
       weight="33.333333"
       steps="2"
       helper_size="0"
       apply_no_weight="true"
       apply_with_weight="true"
       only_selected="false"
       uniform="false" />
    <marker
       style="overflow:visible"
       id="marker3"
       refX="0"
       refY="0"
       orient="auto"
       inkscape:stockid="Colored dot"
       markerWidth="0.5"
       markerHeight="0.5"
       viewBox="0 0 1 1"
       inkscape:isstock="true"
       inkscape:collect="always"
       preserveAspectRatio="xMidYMid">
      <path
         transform="scale(0.45)"
         style="fill:context-fill;fill-rule:evenodd;stroke:context-stroke;stroke-width:2"
         d="M 5,0 C 5,2.76 2.76,5 0,5 -2.76,5 -5,2.76 -5,0 c 0,-2.76 2.3,-5 5,-5 2.76,0 5,2.24 5,5 z"
         sodipodi:nodetypes="sssss"
         id="path3" />
    </marker>
    <marker
       style="overflow:visible"
       id="ColoredDot"
       refX="0"
       refY="0"
       orient="auto"
       inkscape:stockid="Colored dot"
       markerWidth="0.5"
       markerHeight="0.5"
       viewBox="0 0 1 1"
       inkscape:isstock="true"
       inkscape:collect="always"
       preserveAspectRatio="xMidYMid">
      <path
         transform="scale(0.45)"
         style="fill:context-fill;fill-rule:evenodd;stroke:context-stroke;stroke-width:2"
         d="M 5,0 C 5,2.76 2.76,5 0,5 -2.76,5 -5,2.76 -5,0 c 0,-2.76 2.3,-5 5,-5 2.76,0 5,2.24 5,5 z"
         sodipodi:nodetypes="sssss"
         id="path20" />
    </marker>
    <inkscape:path-effect
       effect="bspline"
       id="path-effect1"
       is_visible="true"
       lpeversion="1.3"
       weight="33.333333"
       steps="2"
       helper_size="0"
       apply_no_weight="true"
       apply_with_weight="true"
       only_selected="false"
       uniform="false" />
    <inkscape:path-effect
       effect="bspline"
       id="path-effect9"
       is_visible="true"
       lpeversion="1.3"
       weight="33.333333"
       steps="2"
       helper_size="0"
       apply_no_weight="true"
       apply_with_weight="true"
       only_selected="false"
       uniform="false" />
    <inkscape:path-effect
       effect="bspline"
       id="path-effect11"
       is_visible="true"
       lpeversion="1.3"
       weight="33.333333"
       steps="2"
       helper_size="0"
       apply_no_weight="true"
       apply_with_weight="true"
       only_selected="false"
       uniform="false" />
    <inkscape:path-effect
       effect="bspline"
       id="path-effect13"
       is_visible="true"
       lpeversion="1.3"
       weight="33.333333"
       steps="2"
       helper_size="0"
       apply_no_weight="true"
       apply_with_weight="true"
       only_selected="false"
       uniform="false" />
    <inkscape:path-effect
       effect="bspline"
       id="path-effect16"
       is_visible="true"
       lpeversion="1.3"
       weight="33.333333"
       steps="2"
       helper_size="0"
       apply_no_weight="true"
       apply_with_weight="true"
       only_selected="false"
       uniform="false" />
  </defs>
  <rect
     style="fill:#ffffff;fill-opacity:1;stroke:none;stroke-width:0.103567;stroke-linecap:round;stroke-dasharray:none;stroke-dashoffset:0;stroke-opacity:1"
     id="rect49"
     width="66.145836"
     height="49.062275"
     x="0"
     y="0" />
  <path
     style="display:inline;fill:#ffffff;stroke:#ff0000;stroke-width:0.422389;stroke-linecap:round;stroke-dasharray:none;stroke-opacity:1;marker-end:url(#ConcaveTriangle)"
     d="m 90.918368,134.1551 c 4.671851,0 9.343702,0 14.015552,0"
     id="path4"
     inkscape:path-effect="#path-effect4"
     inkscape:original-d="m 90.918368,134.1551 c 4.671851,0 9.343702,0 14.015552,0"
     transform="matrix(0.67114029,0,0,0.67114029,-51.458928,-49.277151)" />
  <path
     style="display:inline;fill:#ffffff;stroke:#ff0000;stroke-width:0.422389;stroke-linecap:round;stroke-dasharray:none;stroke-opacity:1;marker-end:url(#ConcaveTriangle)"
     d="m 90.918368,134.1551 c 4.671851,0 9.343702,0 14.015552,0"
     id="path5"
     inkscape:path-effect="#path-effect6"
     inkscape:original-d="m 90.918368,134.1551 c 4.671851,0 9.343702,0 14.015552,0"
     transform="matrix(0,-0.67114029,0.67114029,0,-80.476841,101.77873)" />
  <path
     style="display:inline;fill:#ffffff;stroke:#ff0000;stroke-width:0.1;stroke-linecap:round;stroke-dasharray:0.2, 0.4;stroke-dashoffset:0;stroke-opacity:1"
     d="m 100.87286,134.1551 c 9.81449,0 19.62898,0 29.44347,0"
     id="path6"
     inkscape:path-effect="#path-effect7"
     inkscape:original-d="m 100.87286,134.1551 c 9.81449,0 19.62898,0 29.44347,0"
     transform="matrix(0.94494048,0,0,0.94494048,-76.352394,-86.008843)" />
  <path
     id="path17"
     style="fill:none;stroke:#ff0000;stroke-width:0.0810899;stroke-linecap:round;stroke-dasharray:none;stroke-dashoffset:0;stroke-opacity:1;marker-start:url(#marker18);marker-end:url(#marker18)"
     d="M 34.714218,27.436713 A 25.961495,23.611489 0 0 1 38.49518,39.706671" />
  <path
     style="display:inline;fill:#ffffff;stroke:#ff0000;stroke-width:0.422389;stroke-linecap:round;stroke-dasharray:none;stroke-opacity:1;marker-end:url(#ConcaveTriangle)"
     d="m 90.918368,134.1551 c 4.671851,0 9.343702,0 14.015552,0"
     id="path28"
     inkscape:path-effect="#path-effect30"
     inkscape:original-d="m 90.918368,134.1551 c 4.671851,0 9.343702,0 14.015552,0"
     transform="matrix(0.67114029,0,0,0.67114029,-14.421124,-71.805308)" />
  <path
     style="display:inline;fill:#ffffff;stroke:#ff0000;stroke-width:0.422389;stroke-linecap:round;stroke-dasharray:none;stroke-opacity:1;marker-end:url(#ConcaveTriangle)"
     d="m 90.918368,134.1551 c 4.671851,0 9.343702,0 14.015552,0"
     id="path29"
     inkscape:path-effect="#path-effect32"
     inkscape:original-d="m 90.918368,134.1551 c 4.671851,0 9.343702,0 14.015552,0"
     transform="matrix(0,-0.67114029,0.67114029,0,-43.439037,79.250568)" />
  <path
     style="display:inline;fill:#ffffff;stroke:#000000;stroke-width:1.5;stroke-linecap:round;stroke-dasharray:none;stroke-opacity:1;marker-start:url(#ColoredDot);marker-end:url(#marker3)"
     d="m 90.918368,134.1551 c 13.065302,-7.94694 26.130612,-15.89388 39.195912,-23.84082"
     id="path1"
     inkscape:path-effect="#path-effect1"
     inkscape:original-d="m 90.918368,134.1551 c 13.065302,-7.94694 26.130612,-15.89388 39.195912,-23.84082"
     transform="matrix(0.94494048,0,0,0.94494048,-76.352394,-86.008843)" />
  <g
     inkscape:groupmode="layer"
     id="layer1"
     inkscape:label="text">
    <g
       id="text18"
       style="font-size:4.66697px;line-height:0;font-family:Cambria;-inkscape-font-specification:Cambria;letter-spacing:0px;word-spacing:0px;fill:#ffffff;stroke:#ff0000;stroke-width:0.0944941;stroke-linecap:round"
       aria-label="Fe1x, ue1x">
      <path
         style="fill:#000000;stroke:none"
         d="m 14.628036,42.869248 v 0.688195 h -0.223322 q -0.05013,-0.154958 -0.09799,-0.250667 -0.04558,-0.09571 -0.09799,-0.145843 -0.05013,-0.05013 -0.118497,-0.07064 -0.06836,-0.02051 -0.180025,-0.02051 H 13.24253 v 1.239664 h 0.469431 q 0.100267,0 0.157237,-0.0319 0.05697,-0.03418 0.09343,-0.111661 0.03874,-0.07748 0.07292,-0.239273 h 0.214206 v 0.961651 H 14.03555 q -0.03418,-0.154958 -0.07292,-0.232437 -0.03874,-0.07976 -0.09343,-0.111661 -0.05241,-0.03418 -0.157237,-0.03418 H 13.24253 v 0.893287 q 0,0.136728 0.01595,0.218765 0.01595,0.08204 0.05241,0.129891 0.03646,0.04785 0.09799,0.07292 0.06153,0.02279 0.15268,0.0433 v 0.111661 H 12.549776 V 45.86814 q 0.141285,-0.03646 0.18914,-0.07976 0.04786,-0.04557 0.06153,-0.127612 0.01595,-0.08204 0.01595,-0.250667 v -1.971157 q 0,-0.157237 -0.01139,-0.227879 -0.01139,-0.07292 -0.03874,-0.111661 -0.02507,-0.04102 -0.06836,-0.06381 -0.0433,-0.02507 -0.148122,-0.05469 v -0.11166 z"
         id="path2" />
      <path
         style="font-size:3.03353px;baseline-shift:super;fill:#000000;stroke:none"
         d="m 16.105606,43.861207 q -0.0948,0.09924 -0.174783,0.155527 -0.0785,0.05629 -0.173303,0.08887 -0.0948,0.03111 -0.208851,0.03111 -0.305131,0 -0.460658,-0.18219 -0.155528,-0.183671 -0.155528,-0.540644 0,-0.220701 0.0785,-0.389559 0.07999,-0.168859 0.226626,-0.260694 0.14664,-0.09184 0.337717,-0.09184 0.149603,0 0.254769,0.0474 0.105166,0.0474 0.167377,0.130347 0.06369,0.08147 0.09776,0.20737 0.03555,0.124423 0.03999,0.325868 h -0.933166 v 0.02666 q 0,0.174783 0.03851,0.294762 0.03999,0.118497 0.128866,0.186633 0.09035,0.06666 0.234032,0.06666 0.12146,0 0.217739,-0.04444 0.09776,-0.04592 0.194039,-0.148121 z m -0.248844,-0.601374 q -0.0089,-0.159971 -0.03999,-0.260694 -0.03111,-0.102204 -0.09332,-0.155528 -0.06221,-0.05481 -0.162933,-0.05481 -0.152566,0 -0.244401,0.122941 -0.09035,0.12146 -0.106648,0.348086 z"
         id="path9" />
      <path
         style="font-size:3.03353px;baseline-shift:sub;fill:#000000;stroke:none"
         d="m 15.586724,46.526598 q 0,0.08591 0.0089,0.130347 0.01037,0.04295 0.03407,0.0711 0.02518,0.02666 0.0711,0.04295 0.04592,0.01481 0.115535,0.0237 0.06962,0.0074 0.183671,0.01037 v 0.108129 h -1.094619 v -0.108129 q 0.164415,-0.0074 0.234032,-0.01925 0.0711,-0.01333 0.108129,-0.03851 0.03703,-0.02518 0.05332,-0.0711 0.01778,-0.04592 0.01778,-0.149603 v -1.201266 q 0,-0.05925 -0.02074,-0.08591 -0.02074,-0.02814 -0.06073,-0.02814 -0.0474,0 -0.134791,0.04888 -0.08739,0.04888 -0.216257,0.134791 l -0.06517,-0.114054 0.693209,-0.413259 h 0.08147 q -0.0089,0.142197 -0.0089,0.394003 z m 1.420485,-0.468064 0.192558,-0.244401 q 0.03111,-0.03999 0.05036,-0.07702 0.01926,-0.03851 0.01926,-0.0785 0,-0.03407 -0.02518,-0.05629 -0.02518,-0.02222 -0.0785,-0.03259 v -0.07258 h 0.484358 v 0.07258 q -0.05629,0.01629 -0.115535,0.06369 -0.05777,0.0474 -0.142197,0.152565 l -0.306611,0.376229 0.337717,0.454733 q 0.07258,0.09776 0.130347,0.149603 0.05777,0.05184 0.115535,0.07406 v 0.07258 h -0.595449 v -0.07258 q 0.122941,-0.01481 0.122941,-0.09184 0,-0.0311 -0.01037,-0.05925 -0.01037,-0.02814 -0.03851,-0.06517 l -0.214776,-0.299206 -0.228108,0.296244 q -0.02518,0.03259 -0.03999,0.06073 -0.01333,0.02666 -0.01333,0.06073 0,0.03999 0.02666,0.06666 0.02814,0.02518 0.08739,0.03111 v 0.07258 h -0.494726 v -0.07258 q 0.04888,-0.01778 0.08739,-0.04444 0.03999,-0.02666 0.07999,-0.06814 0.04147,-0.04295 0.108129,-0.124422 l 0.308093,-0.382154 -0.315499,-0.432515 q -0.06517,-0.08887 -0.103685,-0.128865 -0.03851,-0.03999 -0.0711,-0.06073 -0.03259,-0.02074 -0.06517,-0.02962 v -0.07258 h 0.580637 v 0.07258 q -0.117016,0.01778 -0.117016,0.09184 0,0.03407 0.01481,0.06814 0.01629,0.03407 0.04888,0.07554 z"
         id="path10" />
      <path
         style="fill:#000000;stroke:none"
         d="m 19.352468,45.451121 q 0.0319,0.159516 0.0319,0.314474 0,0.159515 -0.05469,0.291685 -0.05469,0.13217 -0.175468,0.262061 -0.118497,0.132171 -0.328146,0.289407 l -0.123055,-0.139006 q 0.116219,-0.109382 0.168631,-0.198255 0.05241,-0.08659 0.0752,-0.198255 0.02279,-0.111661 0.02279,-0.280292 0,-0.173188 -0.01595,-0.341819 z m 1.447035,-1.649847 h 0.649456 v 1.159906 q 0,0.266619 0.02051,0.405626 0.02051,0.139006 0.06153,0.209649 0.04102,0.07064 0.116218,0.118497 0.0752,0.04785 0.207371,0.04785 0.08659,0 0.166352,-0.03418 0.07976,-0.03418 0.177745,-0.118498 0.09799,-0.08659 0.139007,-0.170909 0.0433,-0.08432 0.0433,-0.195976 v -0.854548 q 0,-0.129891 -0.0068,-0.195976 -0.0068,-0.06609 -0.02279,-0.104825 -0.01595,-0.04102 -0.03874,-0.06609 -0.02051,-0.02507 -0.06153,-0.04558 -0.03874,-0.02051 -0.127613,-0.0433 v -0.111661 h 0.649456 v 1.556416 q 0,0.175468 0.0068,0.252947 0.0068,0.07748 0.02962,0.123054 0.02279,0.04558 0.07064,0.0752 0.04785,0.02734 0.170909,0.05241 v 0.118497 l -0.521843,0.02279 h -0.139007 l 0.01367,-0.373722 -0.03418,-0.0091 q -0.18914,0.205091 -0.362328,0.300801 -0.17091,0.09571 -0.344098,0.09571 -0.20737,0 -0.341819,-0.08204 -0.134449,-0.08204 -0.200534,-0.243831 -0.06608,-0.164073 -0.06608,-0.460316 v -0.861384 q 0,-0.191419 -0.01595,-0.262061 -0.01367,-0.07292 -0.05697,-0.11394 -0.04102,-0.0433 -0.182304,-0.07976 z"
         id="path13" />
      <path
         style="font-size:3.03353px;baseline-shift:super;fill:#000000;stroke:none"
         d="m 24.537636,43.861207 q -0.0948,0.09924 -0.174784,0.155527 -0.0785,0.05629 -0.173302,0.08887 -0.0948,0.03111 -0.208851,0.03111 -0.305131,0 -0.460659,-0.18219 -0.155527,-0.183671 -0.155527,-0.540644 0,-0.220701 0.0785,-0.389559 0.07999,-0.168859 0.226626,-0.260694 0.146641,-0.09184 0.337717,-0.09184 0.149603,0 0.25477,0.0474 0.105166,0.0474 0.167377,0.130347 0.06369,0.08147 0.09776,0.20737 0.03555,0.124423 0.03999,0.325868 h -0.933166 v 0.02666 q 0,0.174783 0.03851,0.294762 0.03999,0.118497 0.128865,0.186633 0.09035,0.06666 0.234033,0.06666 0.121459,0 0.217738,-0.04444 0.09776,-0.04592 0.19404,-0.148121 z m -0.248844,-0.601374 q -0.0089,-0.159971 -0.03999,-0.260694 -0.03111,-0.102204 -0.09332,-0.155528 -0.06221,-0.05481 -0.162934,-0.05481 -0.152565,0 -0.2444,0.122941 -0.09035,0.12146 -0.106648,0.348086 z"
         id="path14" />
      <path
         style="font-size:3.03353px;baseline-shift:sub;fill:#000000;stroke:none"
         d="m 24.018753,46.526598 q 0,0.08591 0.0089,0.130347 0.01037,0.04295 0.03407,0.0711 0.02518,0.02666 0.0711,0.04295 0.04592,0.01481 0.115535,0.0237 0.06962,0.0074 0.183671,0.01037 v 0.108129 h -1.094619 v -0.108129 q 0.164415,-0.0074 0.234032,-0.01925 0.0711,-0.01333 0.108129,-0.03851 0.03703,-0.02518 0.05332,-0.0711 0.01777,-0.04592 0.01777,-0.149603 v -1.201266 q 0,-0.05925 -0.02074,-0.08591 -0.02074,-0.02814 -0.06073,-0.02814 -0.0474,0 -0.13479,0.04888 -0.08739,0.04888 -0.216258,0.134791 l -0.06517,-0.114054 0.693209,-0.413259 h 0.08147 q -0.0089,0.142197 -0.0089,0.394003 z m 1.420487,-0.468064 0.192558,-0.244401 q 0.03111,-0.03999 0.05036,-0.07702 0.01926,-0.03851 0.01926,-0.0785 0,-0.03407 -0.02518,-0.05629 -0.02518,-0.02222 -0.0785,-0.03259 v -0.07258 h 0.484357 v 0.07258 q -0.05629,0.01629 -0.115535,0.06369 -0.05777,0.0474 -0.142196,0.152565 l -0.306612,0.376229 0.337717,0.454733 q 0.07258,0.09776 0.130347,0.149603 0.05777,0.05184 0.115535,0.07406 v 0.07258 h -0.595449 v -0.07258 q 0.122941,-0.01481 0.122941,-0.09184 0,-0.0311 -0.01037,-0.05925 -0.01037,-0.02814 -0.03851,-0.06517 l -0.214776,-0.299206 -0.228107,0.296244 q -0.02518,0.03259 -0.03999,0.06073 -0.01333,0.02666 -0.01333,0.06073 0,0.03999 0.02666,0.06666 0.02814,0.02518 0.08739,0.03111 v 0.07258 h -0.494726 v -0.07258 q 0.04888,-0.01778 0.08739,-0.04444 0.03999,-0.02666 0.07999,-0.06814 0.04147,-0.04295 0.108128,-0.124422 l 0.308093,-0.382154 -0.315499,-0.432515 q -0.06517,-0.08887 -0.103685,-0.128865 -0.03851,-0.03999 -0.0711,-0.06073 -0.03259,-0.02074 -0.06517,-0.02962 v -0.07258 h 0.580637 v 0.07258 q -0.117016,0.01778 -0.117016,0.09184 0,0.03407 0.01481,0.06814 0.01629,0.03407 0.04888,0.07554 z"
         id="path15" />
    </g>
    <g
       id="text18-8"
       style="font-size:4.66697px;line-height:0;font-family:Cambria;-inkscape-font-specification:Cambria;letter-spacing:0px;word-spacing:0px;fill:#ffffff;stroke:#ff0000;stroke-width:0.0944941;stroke-linecap:round"
       aria-label="Fe2x, ue2x">
      <path
         style="fill:#000000;stroke:none"
         d="m 51.77514,20.222845 v 0.688196 h -0.223321 q -0.05013,-0.154958 -0.09799,-0.250667 -0.04558,-0.09571 -0.09799,-0.145843 -0.05013,-0.05013 -0.118497,-0.07064 -0.06836,-0.02051 -0.180025,-0.02051 h -0.667686 v 1.239664 h 0.469431 q 0.100267,0 0.157237,-0.0319 0.05697,-0.03418 0.09343,-0.111661 0.03874,-0.07748 0.07292,-0.239273 h 0.214207 v 0.961651 h -0.214207 q -0.03418,-0.154958 -0.07292,-0.232437 -0.03874,-0.07976 -0.09343,-0.111661 -0.05241,-0.03418 -0.157237,-0.03418 h -0.469431 v 0.893287 q 0,0.136728 0.01595,0.218764 0.01595,0.08204 0.05241,0.129891 0.03646,0.04785 0.09799,0.07292 0.06153,0.02279 0.152679,0.0433 v 0.111661 H 49.69688 v -0.111661 q 0.141286,-0.03646 0.18914,-0.07976 0.04785,-0.04558 0.06153,-0.127612 0.01595,-0.08204 0.01595,-0.250668 v -1.971156 q 0,-0.157237 -0.01139,-0.22788 -0.01139,-0.07292 -0.03874,-0.111661 -0.02507,-0.04102 -0.06836,-0.06381 -0.0433,-0.02507 -0.148122,-0.05469 v -0.111661 z"
         id="path16" />
      <path
         style="font-size:3.03353px;baseline-shift:super;fill:#000000;stroke:none"
         d="m 53.25271,21.214804 q -0.0948,0.09924 -0.174783,0.155528 -0.0785,0.05629 -0.173302,0.08887 -0.0948,0.03111 -0.208852,0.03111 -0.30513,0 -0.460658,-0.182189 -0.155528,-0.183671 -0.155528,-0.540644 0,-0.220701 0.07851,-0.38956 0.07998,-0.168858 0.226626,-0.260694 0.14664,-0.09183 0.337717,-0.09183 0.149603,0 0.254769,0.0474 0.105166,0.0474 0.167378,0.130347 0.06369,0.08147 0.09776,0.20737 0.03555,0.124422 0.03999,0.325868 h -0.933166 v 0.02666 q 0,0.174784 0.03851,0.294762 0.03999,0.118498 0.128866,0.186634 0.09035,0.06665 0.234032,0.06665 0.12146,0 0.217739,-0.04444 0.09776,-0.04592 0.194039,-0.148122 z m -0.248844,-0.601373 q -0.0089,-0.159972 -0.03999,-0.260694 -0.0311,-0.102204 -0.09332,-0.155528 -0.06221,-0.05481 -0.162934,-0.05481 -0.152565,0 -0.244401,0.122941 -0.09035,0.12146 -0.106647,0.348086 z"
         id="path19" />
      <path
         style="font-size:3.03353px;baseline-shift:sub;fill:#000000;stroke:none"
         d="m 52.744196,24.029798 q 0.07258,0 0.117016,-0.0089 0.04444,-0.0089 0.0711,-0.02962 0.02666,-0.02074 0.04147,-0.05332 0.01629,-0.03407 0.03999,-0.103685 h 0.125903 l -0.02518,0.432515 h -1.21904 v -0.0711 q 0.06369,-0.155527 0.171821,-0.318461 0.108129,-0.162934 0.306611,-0.383635 0.171821,-0.189596 0.247363,-0.287356 0.08295,-0.106647 0.122941,-0.183671 0.04147,-0.0785 0.05925,-0.14664 0.01777,-0.06962 0.01777,-0.139234 0,-0.111091 -0.03555,-0.195521 -0.03555,-0.08591 -0.10961,-0.13479 -0.07258,-0.04888 -0.18367,-0.04888 -0.276988,0 -0.373267,0.308092 h -0.179227 v -0.284393 q 0.179227,-0.08443 0.334755,-0.12146 0.157009,-0.03851 0.281431,-0.03851 0.275506,0 0.416222,0.121459 0.140715,0.119979 0.140715,0.349567 0,0.0785 -0.01629,0.14516 -0.01481,0.06517 -0.04888,0.130347 -0.03259,0.06369 -0.08887,0.137753 -0.05629,0.07406 -0.124422,0.151084 -0.06814,0.07554 -0.235514,0.253287 -0.281431,0.297725 -0.413259,0.519907 z m 1.410118,-0.617667 0.192558,-0.2444 q 0.03111,-0.03999 0.05036,-0.07702 0.01926,-0.03851 0.01926,-0.0785 0,-0.03407 -0.02518,-0.05629 -0.02518,-0.02222 -0.0785,-0.03259 v -0.07258 h 0.484357 v 0.07258 q -0.05629,0.01629 -0.115535,0.06369 -0.05777,0.0474 -0.142196,0.152566 l -0.306612,0.376228 0.337717,0.454734 q 0.07258,0.09776 0.130347,0.149602 0.05777,0.05184 0.115535,0.07406 v 0.07258 h -0.595449 v -0.07258 q 0.122941,-0.01481 0.122941,-0.09183 0,-0.03111 -0.01037,-0.05925 -0.01037,-0.02814 -0.03851,-0.06517 l -0.214776,-0.299206 -0.228107,0.296243 q -0.02518,0.03259 -0.03999,0.06073 -0.01333,0.02666 -0.01333,0.06073 0,0.03999 0.02666,0.06666 0.02814,0.02518 0.08739,0.03111 v 0.07258 h -0.494726 v -0.07258 q 0.04888,-0.01777 0.08739,-0.04444 0.03999,-0.02666 0.07999,-0.06814 0.04147,-0.04296 0.108128,-0.124422 l 0.308093,-0.382154 -0.315499,-0.432515 q -0.06517,-0.08887 -0.103685,-0.128866 -0.03851,-0.03999 -0.0711,-0.06073 -0.03259,-0.02074 -0.06517,-0.02962 v -0.07258 h 0.580637 v 0.07258 q -0.117016,0.01778 -0.117016,0.09183 0,0.03407 0.01481,0.06814 0.01629,0.03407 0.04888,0.07554 z"
         id="path21" />
      <path
         style="fill:#000000;stroke:none"
         d="m 56.499573,22.804719 q 0.0319,0.159515 0.0319,0.314473 0,0.159516 -0.05469,0.291686 -0.05469,0.13217 -0.175467,0.262061 -0.118498,0.13217 -0.328147,0.289407 l -0.123055,-0.139007 q 0.116219,-0.109382 0.168631,-0.198255 0.05241,-0.08659 0.0752,-0.198255 0.02279,-0.111661 0.02279,-0.280291 0,-0.173189 -0.01595,-0.341819 z m 1.447034,-1.649847 h 0.649457 v 1.159906 q 0,0.266619 0.02051,0.405625 0.02051,0.139007 0.06153,0.209649 0.04102,0.07064 0.116219,0.118498 0.0752,0.04785 0.20737,0.04785 0.08659,0 0.166352,-0.03418 0.07976,-0.03418 0.177746,-0.118497 0.09799,-0.08659 0.139006,-0.170909 0.0433,-0.08432 0.0433,-0.195977 v -0.854547 q 0,-0.129892 -0.0068,-0.195977 -0.0068,-0.06609 -0.02279,-0.104824 -0.01595,-0.04102 -0.03874,-0.06609 -0.02051,-0.02507 -0.06153,-0.04558 -0.03874,-0.02051 -0.127613,-0.0433 v -0.111661 h 0.649457 v 1.556416 q 0,0.175467 0.0068,0.252946 0.0068,0.07748 0.02962,0.123055 0.02279,0.04558 0.07064,0.0752 0.04785,0.02735 0.17091,0.05241 v 0.118497 l -0.521844,0.02279 h -0.139007 l 0.01367,-0.373722 -0.03418,-0.0091 q -0.18914,0.205092 -0.362328,0.300801 -0.17091,0.09571 -0.344098,0.09571 -0.20737,0 -0.341819,-0.08204 -0.134449,-0.08204 -0.200534,-0.243831 -0.06608,-0.164073 -0.06608,-0.460316 v -0.861384 q 0,-0.191419 -0.01595,-0.262062 -0.01367,-0.07292 -0.05697,-0.113939 -0.04102,-0.0433 -0.182304,-0.07976 z"
         id="path22" />
      <path
         style="font-size:3.03353px;baseline-shift:super;fill:#000000;stroke:none"
         d="m 61.68474,21.214804 q -0.0948,0.09924 -0.174783,0.155528 -0.0785,0.05629 -0.173303,0.08887 -0.0948,0.03111 -0.208851,0.03111 -0.305131,0 -0.460658,-0.182189 -0.155528,-0.183671 -0.155528,-0.540644 0,-0.220701 0.0785,-0.38956 0.07999,-0.168858 0.226626,-0.260694 0.14664,-0.09183 0.337717,-0.09183 0.149603,0 0.254769,0.0474 0.105166,0.0474 0.167377,0.130347 0.06369,0.08147 0.09776,0.20737 0.03555,0.124422 0.03999,0.325868 h -0.933166 v 0.02666 q 0,0.174784 0.03851,0.294762 0.03999,0.118498 0.128866,0.186634 0.09035,0.06665 0.234032,0.06665 0.12146,0 0.217739,-0.04444 0.09776,-0.04592 0.194039,-0.148122 z m -0.248844,-0.601373 q -0.0089,-0.159972 -0.03999,-0.260694 -0.03111,-0.102204 -0.09332,-0.155528 -0.06221,-0.05481 -0.162933,-0.05481 -0.152566,0 -0.244401,0.122941 -0.09035,0.12146 -0.106648,0.348086 z"
         id="path23" />
      <path
         style="font-size:3.03353px;baseline-shift:sub;fill:#000000;stroke:none"
         d="m 61.176226,24.029798 q 0.07258,0 0.117016,-0.0089 0.04444,-0.0089 0.0711,-0.02962 0.02666,-0.02074 0.04147,-0.05332 0.01629,-0.03407 0.03999,-0.103685 h 0.125904 l -0.02518,0.432515 h -1.219041 v -0.0711 q 0.06369,-0.155527 0.171821,-0.318461 0.108129,-0.162934 0.306612,-0.383635 0.171821,-0.189596 0.247363,-0.287356 0.08295,-0.106647 0.122941,-0.183671 0.04147,-0.0785 0.05925,-0.14664 0.01777,-0.06962 0.01777,-0.139234 0,-0.111091 -0.03555,-0.195521 -0.03555,-0.08591 -0.10961,-0.13479 -0.07258,-0.04888 -0.183671,-0.04888 -0.276987,0 -0.373266,0.308092 h -0.179227 v -0.284393 q 0.179227,-0.08443 0.334755,-0.12146 0.157009,-0.03851 0.281431,-0.03851 0.275506,0 0.416221,0.121459 0.140716,0.119979 0.140716,0.349567 0,0.0785 -0.01629,0.14516 -0.01481,0.06517 -0.04888,0.130347 -0.03259,0.06369 -0.08887,0.137753 -0.05629,0.07406 -0.124422,0.151084 -0.06814,0.07554 -0.235513,0.253287 -0.281431,0.297725 -0.413259,0.519907 z m 1.410118,-0.617667 0.192558,-0.2444 q 0.0311,-0.03999 0.05036,-0.07702 0.01926,-0.03851 0.01926,-0.0785 0,-0.03407 -0.02518,-0.05629 -0.02518,-0.02222 -0.0785,-0.03259 v -0.07258 h 0.484357 v 0.07258 q -0.05629,0.01629 -0.115534,0.06369 -0.05777,0.0474 -0.142197,0.152566 l -0.306612,0.376228 0.337717,0.454734 q 0.07258,0.09776 0.130347,0.149602 0.05777,0.05184 0.115535,0.07406 v 0.07258 h -0.595448 v -0.07258 q 0.12294,-0.01481 0.12294,-0.09183 0,-0.03111 -0.01037,-0.05925 -0.01037,-0.02814 -0.03851,-0.06517 l -0.214776,-0.299206 -0.228107,0.296243 q -0.02518,0.03259 -0.03999,0.06073 -0.01333,0.02666 -0.01333,0.06073 0,0.03999 0.02666,0.06666 0.02814,0.02518 0.08739,0.03111 v 0.07258 H 61.85018 v -0.07258 q 0.04888,-0.01777 0.08739,-0.04444 0.03999,-0.02666 0.07999,-0.06814 0.04147,-0.04296 0.108129,-0.124422 L 62.433779,23.575065 62.11828,23.14255 q -0.06517,-0.08887 -0.103686,-0.128866 -0.03851,-0.03999 -0.0711,-0.06073 -0.03259,-0.02074 -0.06517,-0.02962 v -0.07258 h 0.580636 v 0.07258 q -0.117016,0.01778 -0.117016,0.09183 0,0.03407 0.01481,0.06814 0.01629,0.03407 0.04888,0.07554 z"
         id="path24" />
    </g>
    <g
       id="text28"
       style="font-size:4.66697px;line-height:0;font-family:Cambria;-inkscape-font-specification:Cambria;letter-spacing:0px;word-spacing:0px;fill:#ffffff;stroke:#ff0000;stroke-width:0.0944941;stroke-linecap:round"
       aria-label="Fe1y, ue1y">
      <path
         style="fill:#000000;stroke:none"
         d="m 4.9756531,25.021731 v 0.688195 H 4.7523313 Q 4.7021978,25.554968 4.6543431,25.459259 4.6087673,25.36355 4.556355,25.313416 4.5062215,25.263283 4.4378577,25.242774 4.3694939,25.222264 4.257833,25.222264 H 3.5901464 v 1.239664 H 4.059578 q 0.1002669,0 0.1572367,-0.0319 0.05697,-0.03418 0.093431,-0.111661 0.03874,-0.07748 0.072921,-0.239273 h 0.2142066 v 0.961651 H 4.3831667 q -0.034182,-0.154958 -0.072921,-0.232437 -0.03874,-0.07976 -0.093431,-0.111661 -0.052412,-0.03418 -0.1572367,-0.03418 H 3.5901464 v 0.893287 q 0,0.136728 0.015952,0.218765 0.015952,0.08204 0.052412,0.129891 0.036461,0.04785 0.097988,0.07292 0.061527,0.02279 0.1526792,0.0433 v 0.111661 H 2.8973931 v -0.111661 q 0.1412852,-0.03646 0.1891399,-0.07976 0.047855,-0.04557 0.061527,-0.127612 0.015952,-0.08204 0.015952,-0.250667 v -1.971157 q 0,-0.157237 -0.011394,-0.227879 -0.011394,-0.07292 -0.038739,-0.111661 -0.025067,-0.04102 -0.068364,-0.06381 -0.043297,-0.02507 -0.1481216,-0.05469 v -0.11166 z"
         id="path25" />
      <path
         style="font-size:3.03353px;baseline-shift:super;fill:#000000;stroke:none"
         d="m 6.4532229,26.01369 q -0.094798,0.09924 -0.1747834,0.155527 -0.078505,0.05629 -0.1733023,0.08887 -0.094798,0.03111 -0.2088514,0.03111 -0.3051305,0 -0.4606581,-0.18219 Q 5.2801,25.923335 5.2801,25.566362 q 0,-0.220701 0.078505,-0.389559 0.079986,-0.168859 0.226626,-0.260694 0.1466403,-0.09184 0.3377172,-0.09184 0.1496028,0 0.2547691,0.0474 0.1051663,0.0474 0.1673774,0.130347 0.063692,0.08147 0.09776,0.20737 0.035549,0.124423 0.039993,0.325868 h -0.933166 v 0.02666 q 0,0.174783 0.038512,0.294762 0.039993,0.118497 0.1288658,0.186633 0.090354,0.06666 0.2340321,0.06666 0.1214597,0 0.2177387,-0.04444 0.09776,-0.04592 0.1940393,-0.148121 z M 6.2043787,25.412316 q -0.00889,-0.159971 -0.039993,-0.260694 -0.031106,-0.102204 -0.093317,-0.155528 -0.062211,-0.0548 -0.1629338,-0.0548 -0.1525652,0 -0.2444006,0.122941 -0.090354,0.12146 -0.1066475,0.348086 z"
         id="path26" />
      <path
         style="font-size:3.03353px;baseline-shift:sub;fill:#000000;stroke:none"
         d="m 5.9343405,28.679081 q 0,0.08591 0.00889,0.130347 0.010369,0.04295 0.034068,0.0711 0.025181,0.02666 0.071098,0.04295 0.045918,0.01481 0.1155348,0.0237 0.069617,0.0074 0.1836708,0.01037 v 0.108129 H 5.2529813 v -0.108129 q 0.1644149,-0.0074 0.2340321,-0.01926 0.071098,-0.01333 0.1081287,-0.03851 0.03703,-0.02518 0.053324,-0.0711 0.017775,-0.04592 0.017775,-0.149603 v -1.201266 q 0,-0.05925 -0.020737,-0.08591 -0.020737,-0.02814 -0.06073,-0.02814 -0.047399,0 -0.1347906,0.04888 -0.087392,0.04888 -0.2162575,0.134791 L 5.168552,27.433378 5.861761,27.020119 h 0.081467 q -0.00889,0.142197 -0.00889,0.394003 z m 1.4204857,0.508057 q -0.081467,0.183671 -0.1584901,0.297724 -0.077023,0.114054 -0.1703398,0.171821 -0.091835,0.05777 -0.2192199,0.05777 -0.081467,0 -0.1836708,-0.01926 v -0.293281 h 0.1318282 q 0.017775,0.06073 0.044436,0.08443 0.026662,0.0237 0.077023,0.0237 0.044436,0 0.078505,-0.01778 0.035549,-0.01629 0.072579,-0.05777 0.038512,-0.04147 0.088873,-0.127385 0.051842,-0.08591 0.1155348,-0.217738 L 6.8171449,27.974022 q -0.039993,-0.108129 -0.065173,-0.151084 -0.0237,-0.04295 -0.051843,-0.06517 -0.028143,-0.02222 -0.08591,-0.03555 v -0.07258 h 0.6028549 v 0.07258 q -0.069617,0.01629 -0.09776,0.03259 -0.028143,0.01481 -0.041474,0.03999 -0.013331,0.0237 -0.013331,0.06221 0,0.03999 0.00889,0.08295 0.010369,0.04295 0.031106,0.100723 l 0.2636564,0.742089 0.2962431,-0.710984 q 0.025181,-0.05925 0.038512,-0.108128 0.014812,-0.05036 0.014812,-0.09332 0,-0.06369 -0.035549,-0.09628 -0.034068,-0.03259 -0.1199784,-0.05184 v -0.07258 h 0.5539747 v 0.07258 q -0.057767,0.01185 -0.088873,0.03703 -0.031106,0.0237 -0.062211,0.07702 -0.031106,0.05184 -0.074061,0.14664 z"
         id="path27" />
      <path
         style="fill:#000000;stroke:none"
         d="m 9.7622964,27.603604 q 0.031903,0.159516 0.031903,0.314474 0,0.159515 -0.054691,0.291685 -0.054691,0.13217 -0.1754672,0.262061 -0.1184972,0.13217 -0.3281463,0.289407 L 9.1128402,28.622225 q 0.1162184,-0.109382 0.1686307,-0.198255 0.052412,-0.08659 0.0752,-0.198255 0.022788,-0.111661 0.022788,-0.280292 0,-0.173188 -0.015951,-0.341819 z m 1.4470346,-1.649847 h 0.649456 v 1.159906 q 0,0.266619 0.02051,0.405626 0.02051,0.139006 0.06153,0.209649 0.04102,0.07064 0.116218,0.118497 0.0752,0.04785 0.20737,0.04785 0.08659,0 0.166352,-0.03418 0.07976,-0.03418 0.177746,-0.118498 0.09799,-0.08659 0.139007,-0.170909 0.0433,-0.08432 0.0433,-0.195976 v -0.854548 q 0,-0.129891 -0.0068,-0.195976 -0.0068,-0.06609 -0.02279,-0.104825 -0.01595,-0.04102 -0.03874,-0.06609 -0.02051,-0.02507 -0.06153,-0.04558 -0.03874,-0.02051 -0.127613,-0.0433 v -0.111661 h 0.649456 v 1.556416 q 0,0.175468 0.0068,0.252947 0.0068,0.07748 0.02962,0.123054 0.02279,0.04558 0.07064,0.0752 0.04785,0.02735 0.170909,0.05241 v 0.118497 l -0.521844,0.02279 h -0.139006 l 0.01367,-0.373722 -0.03418,-0.0091 q -0.18914,0.205091 -0.362328,0.300801 -0.17091,0.09571 -0.344098,0.09571 -0.20737,0 -0.341819,-0.08204 -0.134449,-0.08204 -0.200534,-0.243831 -0.06608,-0.164073 -0.06608,-0.460316 v -0.861384 q 0,-0.191419 -0.01595,-0.262061 -0.01367,-0.07292 -0.05697,-0.11394 -0.04102,-0.0433 -0.182303,-0.07976 z"
         id="path30" />
      <path
         style="font-size:3.03353px;baseline-shift:super;fill:#000000;stroke:none"
         d="m 14.947464,26.01369 q -0.0948,0.09924 -0.174784,0.155527 -0.0785,0.05629 -0.173302,0.08887 -0.0948,0.03111 -0.208851,0.03111 -0.305131,0 -0.460659,-0.18219 -0.155527,-0.183671 -0.155527,-0.540644 0,-0.220701 0.0785,-0.389559 0.07999,-0.168859 0.226626,-0.260694 0.146641,-0.09184 0.337717,-0.09184 0.149603,0 0.25477,0.0474 0.105166,0.0474 0.167377,0.130347 0.06369,0.08147 0.09776,0.20737 0.03555,0.124423 0.03999,0.325868 h -0.933166 v 0.02666 q 0,0.174783 0.03851,0.294762 0.03999,0.118497 0.128865,0.186633 0.09035,0.06666 0.234033,0.06666 0.121459,0 0.217738,-0.04444 0.09776,-0.04592 0.19404,-0.148121 z m -0.248845,-0.601374 q -0.0089,-0.159971 -0.03999,-0.260694 -0.03111,-0.102204 -0.09332,-0.155528 -0.06221,-0.0548 -0.162934,-0.0548 -0.152565,0 -0.2444,0.122941 -0.09035,0.12146 -0.106648,0.348086 z"
         id="path31" />
      <path
         style="font-size:3.03353px;baseline-shift:sub;fill:#000000;stroke:none"
         d="m 14.428581,28.679081 q 0,0.08591 0.0089,0.130347 0.01037,0.04295 0.03407,0.0711 0.02518,0.02666 0.0711,0.04295 0.04592,0.01481 0.115535,0.0237 0.06962,0.0074 0.183671,0.01037 v 0.108129 h -1.094619 v -0.108129 q 0.164415,-0.0074 0.234032,-0.01926 0.0711,-0.01333 0.108129,-0.03851 0.03703,-0.02518 0.05332,-0.0711 0.01777,-0.04592 0.01777,-0.149603 v -1.201266 q 0,-0.05925 -0.02074,-0.08591 -0.02074,-0.02814 -0.06073,-0.02814 -0.0474,0 -0.13479,0.04888 -0.08739,0.04888 -0.216258,0.134791 l -0.06517,-0.114054 0.693209,-0.413259 h 0.08147 q -0.0089,0.142197 -0.0089,0.394003 z m 1.420486,0.508057 q -0.08147,0.183671 -0.15849,0.297724 -0.07702,0.114054 -0.170339,0.171821 -0.09184,0.05777 -0.21922,0.05777 -0.08147,0 -0.183671,-0.01926 v -0.293281 h 0.131828 q 0.01778,0.06073 0.04444,0.08443 0.02666,0.0237 0.07702,0.0237 0.04444,0 0.0785,-0.01778 0.03555,-0.01629 0.07258,-0.05777 0.03851,-0.04147 0.08887,-0.127385 0.05184,-0.08591 0.115535,-0.217738 l -0.414741,-1.115356 q -0.03999,-0.108129 -0.06517,-0.151084 -0.0237,-0.04295 -0.05184,-0.06517 -0.02814,-0.02222 -0.08591,-0.03555 v -0.07258 h 0.602854 v 0.07258 q -0.06962,0.01629 -0.09776,0.03259 -0.02814,0.01481 -0.04147,0.03999 -0.01333,0.0237 -0.01333,0.06221 0,0.03999 0.0089,0.08295 0.01037,0.04295 0.03111,0.100723 l 0.263656,0.742089 0.296244,-0.710984 q 0.02518,-0.05925 0.03851,-0.108128 0.01481,-0.05036 0.01481,-0.09332 0,-0.06369 -0.03555,-0.09628 -0.03407,-0.03259 -0.119978,-0.05184 v -0.07258 h 0.553974 v 0.07258 q -0.05777,0.01185 -0.08887,0.03703 -0.03111,0.0237 -0.06221,0.07702 -0.03111,0.05184 -0.07406,0.14664 z"
         id="path32" />
    </g>
    <g
       id="text36"
       style="font-size:4.66697px;line-height:0;font-family:Cambria;-inkscape-font-specification:Cambria;letter-spacing:0px;word-spacing:0px;fill:#ffffff;stroke:#ff0000;stroke-width:0.0944941;stroke-linecap:round"
       aria-label="Fe2y, ue2y">
      <path
         style="fill:#000000;stroke:none"
         d="m 41.819605,2.346533 v 0.6881957 h -0.223322 q -0.05013,-0.154958 -0.09799,-0.2506673 -0.04558,-0.095709 -0.09799,-0.1458428 -0.05013,-0.050134 -0.118497,-0.070643 -0.06836,-0.020509 -0.180025,-0.020509 h -0.667686 v 1.2396639 h 0.469431 q 0.100267,0 0.157237,-0.031903 0.05697,-0.034182 0.09343,-0.1116609 0.03874,-0.077479 0.07292,-0.2392734 h 0.214207 v 0.961651 h -0.214207 q -0.03418,-0.154958 -0.07292,-0.232437 -0.03874,-0.079758 -0.09343,-0.1116609 -0.05241,-0.034182 -0.157237,-0.034182 h -0.469431 v 0.8932872 q 0,0.1367277 0.01595,0.2187642 0.01595,0.082037 0.05241,0.1298913 0.03646,0.047855 0.09799,0.072921 0.06153,0.022788 0.152679,0.043297 V 5.4570866 H 39.741345 V 5.3454257 q 0.141285,-0.036461 0.189139,-0.079758 0.04785,-0.045576 0.06153,-0.1276125 0.01595,-0.082037 0.01595,-0.2506673 V 2.9162314 q 0,-0.1572367 -0.01139,-0.2278793 -0.01139,-0.072922 -0.03874,-0.1116609 -0.02507,-0.041018 -0.06836,-0.063806 -0.0433,-0.025067 -0.148121,-0.054691 V 2.346533 Z"
         id="path33" />
      <path
         style="font-size:3.03353px;baseline-shift:super;fill:#000000;stroke:none"
         d="m 43.297174,3.338492 q -0.0948,0.099241 -0.174783,0.1555276 -0.0785,0.056286 -0.173302,0.088873 -0.0948,0.031105 -0.208852,0.031105 -0.30513,0 -0.460658,-0.1821895 -0.155528,-0.1836708 -0.155528,-0.5406438 0,-0.2207012 0.0785,-0.3895598 0.07999,-0.1688586 0.226626,-0.260694 0.14664,-0.091835 0.337717,-0.091835 0.149603,0 0.254769,0.047399 0.105167,0.047399 0.167378,0.130347 0.06369,0.081467 0.09776,0.2073702 0.03555,0.1244221 0.03999,0.3258675 h -0.933166 v 0.026662 q 0,0.1747835 0.03851,0.294762 0.03999,0.1184973 0.128866,0.1866332 0.09035,0.066655 0.234032,0.066655 0.12146,0 0.217739,-0.044437 0.09776,-0.045918 0.194039,-0.1481216 z M 43.04833,2.7371183 q -0.0089,-0.1599713 -0.03999,-0.2606939 -0.0311,-0.1022039 -0.09332,-0.1555277 -0.06221,-0.054805 -0.162934,-0.054805 -0.152565,0 -0.244401,0.1229409 -0.09035,0.1214597 -0.106647,0.3480857 z"
         id="path34" />
      <path
         style="font-size:3.03353px;baseline-shift:sub;fill:#000000;stroke:none"
         d="m 42.788661,6.153486 q 0.07258,0 0.117016,-0.00889 0.04444,-0.00889 0.0711,-0.029624 0.02666,-0.020737 0.04147,-0.053324 0.01629,-0.034068 0.03999,-0.1036851 h 0.125903 l -0.02518,0.432515 h -1.21904 V 6.3193822 Q 42.003616,6.1638545 42.111745,6.0009208 42.219874,5.837987 42.418357,5.6172859 42.590178,5.4276902 42.66572,5.32993 q 0.08295,-0.1066475 0.122941,-0.1836708 0.04147,-0.078504 0.05925,-0.1466403 0.01778,-0.069617 0.01778,-0.1392343 0,-0.1110912 -0.03555,-0.1955205 -0.03555,-0.08591 -0.10961,-0.1347907 -0.07258,-0.04888 -0.183671,-0.04888 -0.276988,0 -0.373267,0.3080929 H 41.98436 V 4.5048928 q 0.179227,-0.084429 0.334755,-0.1214597 0.157009,-0.038512 0.281431,-0.038512 0.275506,0 0.416222,0.1214597 0.140715,0.1199785 0.140715,0.3495669 0,0.078504 -0.01629,0.1451592 -0.01481,0.065173 -0.04888,0.1303469 -0.03259,0.063692 -0.08887,0.1377531 -0.05629,0.074061 -0.124422,0.151084 -0.06814,0.075542 -0.235514,0.2532879 -0.281431,0.2977244 -0.413259,0.5199068 z m 1.410117,0.3584542 q -0.08147,0.1836708 -0.15849,0.2977244 -0.07702,0.1140536 -0.17034,0.171821 -0.09184,0.057767 -0.21922,0.057767 -0.08147,0 -0.183671,-0.019256 V 6.7267165 h 0.131828 q 0.01778,0.06073 0.04444,0.084429 0.02666,0.023699 0.07702,0.023699 0.04444,0 0.0785,-0.017775 0.03555,-0.016293 0.07258,-0.057767 0.03851,-0.041474 0.08887,-0.1273846 0.05184,-0.08591 0.115535,-0.2177387 L 43.661096,5.2988245 q -0.03999,-0.1081288 -0.06517,-0.1510841 -0.0237,-0.042955 -0.05184,-0.065173 -0.02814,-0.022218 -0.08591,-0.035549 v -0.07258 h 0.602855 v 0.07258 q -0.06962,0.016293 -0.09776,0.032587 -0.02814,0.014812 -0.04147,0.039993 -0.01333,0.0237 -0.01333,0.062211 0,0.039993 0.0089,0.082948 0.01037,0.042955 0.03111,0.1007227 l 0.263657,0.7420891 0.296243,-0.7109836 q 0.02518,-0.059249 0.03851,-0.1081288 0.01481,-0.050361 0.01481,-0.093316 0,-0.063692 -0.03555,-0.096279 -0.03407,-0.032587 -0.119978,-0.051843 v -0.07258 h 0.553975 v 0.07258 q -0.05777,0.01185 -0.08887,0.03703 -0.03111,0.023699 -0.06221,0.077023 -0.03111,0.051843 -0.07406,0.1466404 z"
         id="path35" />
      <path
         style="fill:#000000;stroke:none"
         d="m 46.606248,4.9284064 q 0.0319,0.1595156 0.0319,0.3144735 0,0.1595156 -0.05469,0.2916857 -0.05469,0.13217 -0.175467,0.2620612 -0.118497,0.1321701 -0.328147,0.2894069 L 45.956792,5.9470272 q 0.116218,-0.1093821 0.16863,-0.198255 0.05241,-0.086594 0.0752,-0.1982551 0.02279,-0.1116609 0.02279,-0.2802916 0,-0.1731884 -0.01595,-0.3418191 z m 1.447034,-1.6498467 h 0.649457 v 1.159906 q 0,0.2666189 0.02051,0.4056253 0.02051,0.1390064 0.06153,0.2096491 0.04102,0.070643 0.116219,0.1184972 0.0752,0.047855 0.20737,0.047855 0.08659,0 0.166352,-0.034182 0.07976,-0.034182 0.177746,-0.1184973 0.09799,-0.086594 0.139006,-0.1709095 0.0433,-0.084315 0.0433,-0.1959763 V 3.8459793 q 0,-0.1298912 -0.0068,-0.1959762 -0.0068,-0.066085 -0.02279,-0.1048246 -0.01595,-0.041018 -0.03874,-0.066085 -0.02051,-0.025067 -0.06153,-0.045576 -0.03874,-0.020509 -0.127612,-0.043297 V 3.2785597 h 0.649456 v 1.5564161 q 0,0.1754672 0.0068,0.2529462 0.0068,0.077479 0.02962,0.1230548 0.02279,0.045576 0.07064,0.0752 0.04786,0.027346 0.17091,0.052412 v 0.1184973 l -0.521844,0.022788 h -0.139006 l 0.01367,-0.3737222 -0.03418,-0.00912 q -0.18914,0.2050915 -0.362328,0.3008008 -0.170909,0.095709 -0.344098,0.095709 -0.20737,0 -0.341819,-0.082037 -0.134449,-0.082037 -0.200534,-0.243831 -0.06609,-0.1640731 -0.06609,-0.4603163 V 3.8459793 q 0,-0.1914187 -0.01595,-0.2620613 -0.01367,-0.072921 -0.05697,-0.1139397 -0.04102,-0.043297 -0.182304,-0.079758 z"
         id="path36" />
      <path
         style="font-size:3.03353px;baseline-shift:super;fill:#000000;stroke:none"
         d="m 51.791415,3.338492 q -0.0948,0.099241 -0.174783,0.1555276 -0.0785,0.056286 -0.173303,0.088873 -0.0948,0.031105 -0.208851,0.031105 -0.30513,0 -0.460658,-0.1821895 -0.155528,-0.1836708 -0.155528,-0.5406438 0,-0.2207012 0.0785,-0.3895598 0.07999,-0.1688586 0.226626,-0.260694 0.14664,-0.091835 0.337717,-0.091835 0.149603,0 0.254769,0.047399 0.105166,0.047399 0.167377,0.130347 0.06369,0.081467 0.09776,0.2073702 0.03555,0.1244221 0.03999,0.3258675 h -0.933165 v 0.026662 q 0,0.1747835 0.03851,0.294762 0.03999,0.1184973 0.128866,0.1866332 0.09035,0.066655 0.234032,0.066655 0.12146,0 0.217739,-0.044437 0.09776,-0.045918 0.194039,-0.1481216 z M 51.542571,2.7371183 q -0.0089,-0.1599713 -0.03999,-0.2606939 -0.0311,-0.1022039 -0.09332,-0.1555277 -0.06221,-0.054805 -0.162933,-0.054805 -0.152565,0 -0.244401,0.1229409 -0.09035,0.1214597 -0.106647,0.3480857 z"
         id="path37" />
      <path
         style="font-size:3.03353px;baseline-shift:sub;fill:#000000;stroke:none"
         d="m 51.282901,6.153486 q 0.07258,0 0.117016,-0.00889 0.04444,-0.00889 0.0711,-0.029624 0.02666,-0.020737 0.04147,-0.053324 0.01629,-0.034068 0.03999,-0.1036851 h 0.125903 l -0.02518,0.432515 h -1.21904 V 6.3193822 Q 50.497857,6.1638545 50.605986,6.0009208 50.714114,5.837987 50.912597,5.6172859 51.084418,5.4276902 51.15996,5.32993 q 0.08295,-0.1066475 0.122941,-0.1836708 0.04147,-0.078504 0.05925,-0.1466403 0.01777,-0.069617 0.01777,-0.1392343 0,-0.1110912 -0.03555,-0.1955205 -0.03555,-0.08591 -0.10961,-0.1347907 -0.07258,-0.04888 -0.18367,-0.04888 -0.276988,0 -0.373267,0.3080929 H 50.478601 V 4.5048928 q 0.179227,-0.084429 0.334755,-0.1214597 0.157009,-0.038512 0.281431,-0.038512 0.275506,0 0.416222,0.1214597 0.140715,0.1199785 0.140715,0.3495669 0,0.078504 -0.01629,0.1451592 -0.01481,0.065173 -0.04888,0.1303469 -0.03259,0.063692 -0.08887,0.1377531 -0.05629,0.074061 -0.124423,0.151084 -0.06813,0.075542 -0.235513,0.2532879 -0.281431,0.2977244 -0.413259,0.5199068 z m 1.410118,0.3584542 q -0.08147,0.1836708 -0.15849,0.2977244 -0.07702,0.1140536 -0.17034,0.171821 -0.09184,0.057767 -0.21922,0.057767 -0.08147,0 -0.183671,-0.019256 V 6.7267165 h 0.131829 q 0.01777,0.06073 0.04444,0.084429 0.02666,0.023699 0.07702,0.023699 0.04444,0 0.0785,-0.017775 0.03555,-0.016293 0.07258,-0.057767 0.03851,-0.041474 0.08887,-0.1273846 0.05184,-0.08591 0.115535,-0.2177387 l -0.41474,-1.1153555 q -0.03999,-0.1081288 -0.06517,-0.1510841 -0.0237,-0.042955 -0.05184,-0.065173 -0.02814,-0.022218 -0.08591,-0.035549 v -0.07258 h 0.602855 v 0.07258 q -0.06962,0.016293 -0.09776,0.032587 -0.02814,0.014812 -0.04147,0.039993 -0.01333,0.0237 -0.01333,0.062211 0,0.039993 0.0089,0.082948 0.01037,0.042955 0.0311,0.1007227 l 0.263657,0.7420891 0.296243,-0.7109836 q 0.02518,-0.059249 0.03851,-0.1081288 0.01481,-0.050361 0.01481,-0.093316 0,-0.063692 -0.03555,-0.096279 -0.03407,-0.032587 -0.119979,-0.051843 v -0.07258 h 0.553975 v 0.07258 q -0.05777,0.01185 -0.08887,0.03703 -0.03111,0.023699 -0.06221,0.077023 -0.03111,0.051843 -0.07406,0.1466404 z"
         id="path38" />
    </g>
    <g
       id="text41"
       style="font-size:4.66697px;line-height:0;font-family:Cambria;-inkscape-font-specification:Cambria;letter-spacing:0px;word-spacing:0px;fill:#ffffff;stroke:#ff0000;stroke-width:0.0944941;stroke-linecap:round"
       aria-label="ϕe">
      <path
         style="font-style:italic;-inkscape-font-specification:'Cambria Italic';fill:#000000;stroke:none"
         d="m 41.405433,33.117395 -0.209649,0.957094 h -0.36005 l 0.209649,-0.957094 q -0.448922,-0.0319 -0.685917,-0.266619 -0.236994,-0.236994 -0.236994,-0.642619 0,-0.571978 0.412462,-0.954815 0.41474,-0.385116 1.011784,-0.385116 l 0.209649,-0.936585 h 0.353213 l -0.205091,0.936585 q 0.426134,0.02735 0.67908,0.287128 0.255225,0.257503 0.255225,0.651735 0,0.54691 -0.369165,0.929748 -0.369164,0.380558 -1.064196,0.380558 z m 0.458037,-2.062308 -0.41474,1.880005 q 0.455759,-0.01595 0.726935,-0.339541 0.271177,-0.325867 0.271177,-0.831759 0,-0.300801 -0.164074,-0.496777 -0.164073,-0.198255 -0.419298,-0.211928 z m -0.360049,0 q -0.405625,0.01595 -0.69959,0.348655 -0.293964,0.332704 -0.293964,0.808972 0,0.293965 0.157237,0.496777 0.157236,0.200534 0.421576,0.225601 z"
         id="path39" />
      <path
         style="font-size:3.03353px;baseline-shift:super;fill:#000000;stroke:none"
         d="m 44.357382,30.971455 q -0.0948,0.09924 -0.174783,0.155528 -0.0785,0.05629 -0.173302,0.08887 -0.0948,0.03111 -0.208852,0.03111 -0.30513,0 -0.460658,-0.182189 -0.155528,-0.183671 -0.155528,-0.540644 0,-0.220701 0.0785,-0.38956 0.07999,-0.168858 0.226626,-0.260694 0.14664,-0.09183 0.337717,-0.09183 0.149603,0 0.254769,0.0474 0.105166,0.0474 0.167377,0.130347 0.06369,0.08147 0.09776,0.20737 0.03555,0.124422 0.03999,0.325867 h -0.933166 v 0.02666 q 0,0.174784 0.03851,0.294762 0.03999,0.118498 0.128866,0.186633 0.09035,0.06666 0.234032,0.06666 0.12146,0 0.217739,-0.04444 0.09776,-0.04592 0.194039,-0.148122 z m -0.248844,-0.601373 q -0.0089,-0.159972 -0.03999,-0.260694 -0.03111,-0.102204 -0.09332,-0.155528 -0.06221,-0.0548 -0.162934,-0.0548 -0.152565,0 -0.244401,0.122941 -0.09035,0.12146 -0.106647,0.348086 z"
         id="path40" />
    </g>
    <path
       style="font-size:4.66697px;line-height:0;font-family:Cambria;-inkscape-font-specification:Cambria;letter-spacing:0px;word-spacing:0px;stroke-width:0.0944941;stroke-linecap:round"
       d="m 6.3779288,40.43024 q 0,0.13217 0.013673,0.200534 0.015952,0.06609 0.052412,0.109382 0.03874,0.04102 0.1093821,0.06609 0.070643,0.02279 0.1777459,0.03646 0.1071033,0.01139 0.2825704,0.01595 v 0.166352 H 5.3296836 v -0.166352 q 0.2529461,-0.01139 0.3600494,-0.02962 0.1093821,-0.02051 0.166352,-0.05925 0.05697,-0.03874 0.082037,-0.109382 0.027346,-0.07064 0.027346,-0.230158 v -1.848102 q 0,-0.09115 -0.031903,-0.13217 -0.031903,-0.0433 -0.093431,-0.0433 -0.072921,0 -0.2073702,0.0752 -0.1344489,0.0752 -0.3327039,0.207371 l -0.100267,-0.175467 1.0664756,-0.635784 h 0.1253336 q -0.013673,0.218764 -0.013673,0.606159 z"
       id="text47"
       aria-label="1" />
    <path
       style="font-size:4.66697px;line-height:0;font-family:Cambria;-inkscape-font-specification:Cambria;letter-spacing:0px;word-spacing:0px;stroke-width:0.0944941;stroke-linecap:round"
       d="m 43.164578,17.703382 q 0.111661,0 0.180025,-0.01367 0.06836,-0.01367 0.109382,-0.04558 0.04102,-0.0319 0.06381,-0.08204 0.02507,-0.05241 0.06153,-0.159515 h 0.193697 l -0.03874,0.665407 H 41.85883 v -0.109382 q 0.09799,-0.239273 0.26434,-0.48994 0.166352,-0.250668 0.47171,-0.590208 0.26434,-0.291686 0.380558,-0.442086 0.127613,-0.164073 0.18914,-0.28257 0.06381,-0.120777 0.09115,-0.225601 0.02735,-0.107103 0.02735,-0.214207 0,-0.170909 -0.05469,-0.3008 -0.05469,-0.132171 -0.168631,-0.207371 -0.111661,-0.0752 -0.282571,-0.0752 -0.426134,0 -0.574256,0.473989 h -0.275734 v -0.437528 q 0.275734,-0.129891 0.515008,-0.186861 0.241552,-0.05925 0.432971,-0.05925 0.423855,0 0.640341,0.186861 0.216485,0.184582 0.216485,0.537796 0,0.120776 -0.02507,0.223321 -0.02279,0.100267 -0.0752,0.200534 -0.05013,0.09799 -0.136728,0.211928 -0.08659,0.11394 -0.191418,0.232437 -0.104825,0.116218 -0.362328,0.389674 -0.432971,0.458037 -0.635784,0.799856 z"
       id="text48"
       aria-label="2" />
    <path
       style="font-size:4.66697px;line-height:0;font-family:Cambria;-inkscape-font-specification:Cambria;letter-spacing:0px;word-spacing:0px;stroke-width:0.0944941;stroke-linecap:round"
       d="m 27.693594,26.867745 q -0.145843,0.15268 -0.268898,0.239274 -0.120776,0.08659 -0.266619,0.136727 -0.145843,0.04785 -0.32131,0.04785 -0.469431,0 -0.708705,-0.280292 -0.239273,-0.28257 -0.239273,-0.831759 0,-0.339541 0.120776,-0.599323 0.123055,-0.259783 0.348656,-0.401068 0.2256,-0.141285 0.519565,-0.141285 0.230158,0 0.391952,0.07292 0.161794,0.07292 0.257504,0.200534 0.09799,0.125334 0.1504,0.319031 0.05469,0.191419 0.06153,0.501335 h -1.435641 v 0.04102 q 0,0.268898 0.05925,0.45348 0.06153,0.182304 0.198255,0.287128 0.139007,0.102546 0.36005,0.102546 0.186861,0 0.334982,-0.06836 0.150401,-0.07064 0.298522,-0.227879 z m -0.382838,-0.92519 q -0.01367,-0.24611 -0.06153,-0.401068 -0.04785,-0.157236 -0.143564,-0.239273 -0.09571,-0.08432 -0.250667,-0.08432 -0.234716,0 -0.376001,0.18914 -0.139007,0.186861 -0.164074,0.535516 z"
       id="text49"
       aria-label="e" />
  </g>
</svg>
