<?xml version="1.0" encoding="UTF-8" standalone="no"?>
<svg
   width="525pt"
   height="200.73529pt"
   viewBox="0 0 4444.5205 1699.1856"
   version="1.1"
   id="svg139"
   sodipodi:docname="ftool_dy.svg"
   inkscape:version="1.4 (86a8ad7, 2024-10-11)"
   xmlns:inkscape="http://www.inkscape.org/namespaces/inkscape"
   xmlns:sodipodi="http://sodipodi.sourceforge.net/DTD/sodipodi-0.dtd"
   xmlns="http://www.w3.org/2000/svg"
   xmlns:svg="http://www.w3.org/2000/svg">
  <defs
     id="defs139" />
  <sodipodi:namedview
     id="namedview139"
     pagecolor="#ffffff"
     bordercolor="#000000"
     borderopacity="0.25"
     inkscape:showpageshadow="2"
     inkscape:pageopacity="0.0"
     inkscape:pagecheckerboard="0"
     inkscape:deskcolor="#d1d1d1"
     inkscape:document-units="pt"
     inkscape:zoom="0.73207171"
     inkscape:cx="317.59184"
     inkscape:cy="271.1483"
     inkscape:window-width="1920"
     inkscape:window-height="974"
     inkscape:window-x="-11"
     inkscape:window-y="-11"
     inkscape:window-maximized="1"
     inkscape:current-layer="svg139" />
  <rect
     style="display:inline;fill:#ffffff;fill-opacity:1;stroke:none;stroke-width:53.9889"
     id="rect100"
     width="4444.5205"
     height="1699.3755"
     x="3.6091675e-13"
     y="-0.12288272" />
  <g
     id="g139"
     transform="matrix(0.77205879,0,0,0.77205879,-282.30185,-447.79657)"
     style="stroke-width:8.46575;stroke-dasharray:none">
    <pattern
       id="pattern0"
       patternUnits="userSpaceOnUse"
       x="0"
       y="0"
       width="7"
       height="7">
      <line
         x1="0"
         y1="3"
         x2="7"
         y2="3"
         style="fill:none; stroke:rgb(0,0,0); opacity:1"
         id="line1" />
    </pattern>
    <clipPath
       id="cliprect0">
      <rect
         x="-0.5"
         y="-1.5"
         width="6490"
         height="3189"
         id="rect1" />
    </clipPath>
    <g
       clip-path="url(#cliprect0)"
       id="g138"
       style="stroke-width:8.46575;stroke-dasharray:none">
      <polyline
         style="opacity:1;fill:none;stroke:#666600;stroke-width:8.46575;stroke-linecap:butt;stroke-linejoin:miter;stroke-dasharray:none"
         points="4178.06,2460.7 5914.38,724.303 "
         id="polyline1" />
      <polyline
         style="opacity:1;fill:none;stroke:#0000ff;stroke-width:8.46575;stroke-linecap:butt;stroke-linejoin:miter;stroke-dasharray:none"
         points="4159.1,2612.47 4176.83,2593.49 4194.56,2574.51 4212.28,2555.54 4230.01,2536.56 4247.74,2517.58 4265.46,2498.6 4283.19,2479.62 4300.92,2460.65 4318.64,2441.67 4336.37,2422.69 4354.1,2403.71 4371.82,2384.73 4389.55,2365.76 4407.28,2346.78 4425.01,2327.8 4442.73,2308.82 4460.46,2289.84 4478.19,2270.87 4495.91,2251.89 4513.64,2232.91 4531.37,2213.93 4549.09,2194.95 4566.82,2175.98 4584.55,2157 4602.27,2138.02 4620,2119.04 4637.73,2100.06 4655.45,2081.09 4673.18,2062.11 4690.91,2043.13 4708.63,2024.15 4726.36,2005.17 4744.09,1986.2 4761.82,1967.22 4779.54,1948.24 4797.27,1929.26 4815,1910.28 4832.72,1891.31 4850.45,1872.33 4868.18,1853.35 4885.9,1834.37 4903.63,1815.39 4921.36,1796.42 4939.08,1777.44 4956.81,1758.46 4974.54,1739.48 4992.26,1720.5 5009.99,1701.53 5027.72,1682.55 5045.44,1663.57 5063.17,1644.59 5080.9,1625.61 5098.63,1606.64 5116.35,1587.66 5134.08,1568.68 5151.81,1549.7 5169.53,1530.73 5187.26,1511.75 5204.99,1492.77 5222.71,1473.79 5240.44,1454.81 5258.17,1435.84 5275.89,1416.86 5293.62,1397.88 5311.35,1378.9 5329.07,1359.92 5346.8,1340.95 5364.53,1321.97 5382.25,1302.99 5399.98,1284.01 5417.71,1265.03 5435.44,1246.06 5453.16,1227.08 5470.89,1208.1 5488.62,1189.12 5506.34,1170.14 5524.07,1151.17 5541.8,1132.19 5559.52,1113.21 5577.25,1094.23 5594.98,1075.25 5612.7,1056.28 5630.43,1037.3 5648.16,1018.32 5665.88,999.341 5683.61,980.363 5701.34,961.385 5719.06,942.407 5736.79,923.429 5754.52,904.451 5772.25,885.473 5789.97,866.495 5807.7,847.517 5825.43,828.539 5843.15,809.561 5860.88,790.583 5878.61,771.605 5896.33,752.627 5914.06,733.649 5931.79,714.671 "
         id="polyline2" />
      <polyline
         style="opacity:1;fill:none;stroke:#666600;stroke-width:8.46575;stroke-linecap:butt;stroke-linejoin:miter;stroke-dasharray:none"
         points="587.267,2493.65 2296.29,2493.65 "
         id="polyline3" />
      <polyline
         style="opacity:1;fill:none;stroke:#0000ff;stroke-width:8.46575;stroke-linecap:butt;stroke-linejoin:miter;stroke-dasharray:none"
         points="540.667,2493.65 566.05,2495.03 591.434,2496.41 617.014,2497.78 642.463,2499.16 667.912,2500.54 693.361,2501.92 718.81,2503.3 744.26,2504.68 769.709,2506.05 795.158,2507.43 820.607,2508.81 846.056,2510.19 871.505,2511.57 896.954,2512.94 922.403,2514.32 947.852,2515.7 973.301,2517.08 998.751,2518.46 1024.2,2519.84 1049.65,2521.21 1075.1,2522.59 1100.55,2523.97 1126,2525.35 1151.45,2526.73 1176.89,2528.11 1202.34,2529.48 1227.79,2530.86 1253.24,2532.24 1278.69,2533.62 1304.14,2535 1329.59,2536.37 1355.04,2537.75 1380.49,2539.13 1405.94,2540.51 1431.39,2541.89 1456.83,2543.27 1482.28,2544.64 1507.73,2546.02 1533.18,2547.4 1558.63,2548.78 1584.08,2550.16 1609.53,2551.54 1634.98,2552.91 1660.43,2554.29 1685.88,2555.67 1711.33,2557.05 1736.77,2558.43 1762.22,2559.81 1787.67,2561.18 1813.12,2562.56 1838.57,2563.94 1864.02,2565.32 1889.47,2566.7 1914.92,2568.07 1940.37,2569.45 1965.82,2570.83 1991.27,2572.21 2016.71,2573.59 2042.16,2574.97 2067.61,2576.34 2093.06,2577.72 2118.51,2579.1 2143.96,2580.48 2169.41,2581.86 2194.86,2583.24 2220.31,2584.61 2245.76,2585.99 2271.21,2587.37 2296.65,2588.75 2322.1,2590.13 2347.55,2591.5 "
         id="polyline4" />
      <polyline
         style="opacity:1;fill:none;stroke:#666600;stroke-width:8.46575;stroke-linecap:butt;stroke-linejoin:miter;stroke-dasharray:none"
         points="573.618,2460.7 2309.94,724.303 "
         id="polyline5" />
      <polyline
         style="opacity:1;fill:none;stroke:#0000ff;stroke-width:8.46575;stroke-linecap:butt;stroke-linejoin:miter;stroke-dasharray:none"
         points="540.667,2493.65 558.953,2476.42 577.24,2459.19 595.526,2441.96 613.813,2424.73 632.099,2407.49 650.386,2390.26 668.672,2373.03 686.959,2355.8 705.245,2338.57 723.532,2321.34 741.818,2304.11 760.105,2286.88 778.391,2269.65 796.678,2252.42 814.964,2235.18 833.251,2217.95 851.537,2200.72 869.824,2183.49 888.11,2166.26 906.397,2149.03 924.684,2131.8 942.97,2114.57 961.257,2097.34 979.543,2080.11 997.83,2062.87 1016.12,2045.64 1034.4,2028.41 1052.69,2011.18 1070.98,1993.95 1089.26,1976.72 1107.55,1959.49 1125.84,1942.26 1144.12,1925.03 1162.41,1907.8 1180.69,1890.56 1198.98,1873.33 1217.27,1856.1 1235.55,1838.87 1253.84,1821.64 1272.13,1804.41 1290.41,1787.18 1308.7,1769.95 1326.99,1752.72 1345.27,1735.49 1363.56,1718.25 1381.85,1701.02 1400.13,1683.79 1418.42,1666.56 1436.71,1649.33 1454.99,1632.1 1473.28,1614.87 1491.57,1597.64 1509.85,1580.41 1528.14,1563.18 1546.42,1545.94 1564.71,1528.71 1583,1511.48 1601.28,1494.25 1619.57,1477.02 1637.86,1459.79 1656.14,1442.56 1674.43,1425.33 1692.72,1408.1 1711,1390.87 1729.29,1373.63 1747.58,1356.4 1765.86,1339.17 1784.15,1321.94 1802.44,1304.71 1820.72,1287.48 1839.01,1270.25 1857.3,1253.02 1875.58,1235.79 1893.87,1218.56 1912.16,1201.32 1930.44,1184.09 1948.73,1166.86 1967.01,1149.63 1985.3,1132.4 2003.59,1115.17 2021.87,1097.94 2040.16,1080.71 2058.45,1063.48 2076.73,1046.25 2095.02,1029.01 2113.31,1011.78 2131.59,994.553 2149.88,977.322 2168.17,960.091 2186.45,942.86 2204.74,925.629 2223.03,908.398 2241.31,891.167 2259.6,873.936 2277.89,856.705 2296.17,839.474 2314.46,822.243 2332.74,805.012 2351.03,787.781 2369.32,770.55 "
         id="polyline6" />
      <polyline
         style="opacity:1;fill:none;stroke:#0000ff;stroke-width:8.46575;stroke-linecap:butt;stroke-linejoin:miter;stroke-dasharray:none"
         points="540.667,2493.65 540.667,2493.65 "
         id="polyline7" />
      <polyline
         style="opacity:1;fill:none;stroke:#666600;stroke-width:8.46575;stroke-linecap:butt;stroke-linejoin:miter;stroke-dasharray:none"
         points="2342.89,2447.05 2342.89,737.953 "
         id="polyline8" />
      <polyline
         style="opacity:1;fill:none;stroke:#0000ff;stroke-width:8.46575;stroke-linecap:butt;stroke-linejoin:miter;stroke-dasharray:none"
         points="2347.55,2591.5 2347.86,2565.86 2348.17,2540.21 2348.47,2514.56 2348.78,2488.92 2349.09,2463.27 2349.39,2437.62 2349.7,2411.97 2350.01,2386.33 2350.31,2360.68 2350.62,2335.03 2350.92,2309.38 2351.23,2283.74 2351.54,2258.09 2351.84,2232.44 2352.15,2206.8 2352.46,2181.15 2352.76,2155.5 2353.07,2129.85 2353.38,2104.21 2353.68,2078.56 2353.99,2052.91 2354.3,2027.27 2354.6,2001.62 2354.91,1975.97 2355.22,1950.32 2355.52,1924.68 2355.83,1899.03 2356.14,1873.38 2356.44,1847.73 2356.75,1822.09 2357.06,1796.44 2357.36,1770.79 2357.67,1745.15 2357.98,1719.5 2358.28,1693.85 2358.59,1668.2 2358.9,1642.56 2359.2,1616.91 2359.51,1591.26 2359.81,1565.61 2360.12,1539.97 2360.43,1514.32 2360.73,1488.67 2361.04,1463.03 2361.35,1437.38 2361.65,1411.73 2361.96,1386.08 2362.27,1360.44 2362.57,1334.79 2362.88,1309.14 2363.19,1283.49 2363.49,1257.85 2363.8,1232.2 2364.11,1206.55 2364.41,1180.91 2364.72,1155.26 2365.03,1129.61 2365.33,1103.96 2365.64,1078.32 2365.95,1052.67 2366.25,1027.02 2366.56,1001.37 2366.87,975.728 2367.17,950.08 2367.48,924.433 2367.79,898.786 2368.09,873.139 2368.4,847.491 2368.7,821.844 2369.01,796.197 2369.32,770.55 "
         id="polyline9" />
      <polyline
         style="opacity:1;fill:none;stroke:#0000ff;stroke-width:8.46575;stroke-linecap:butt;stroke-linejoin:miter;stroke-dasharray:none"
         points="2342.89,691.351 2369.32,770.55 "
         id="polyline10" />
      <polyline
         style="opacity:1;fill:none;stroke:#ff0000;stroke-width:8.46575;stroke-linecap:butt;stroke-linejoin:miter;stroke-dasharray:none"
         points="2401.94,1611.38 2471.84,1611.38 "
         id="polyline11" />
      <polyline
         style="opacity:1;fill:none;stroke:#ff0000;stroke-width:8.46575;stroke-linecap:butt;stroke-linejoin:miter;stroke-dasharray:none"
         points="2401.94,1611.38 2401.94,1588.08 2405.27,1578.1 2411.92,1571.44 2418.58,1568.11 2428.57,1564.78 2445.21,1564.78 2455.2,1568.11 2461.85,1571.44 2468.51,1578.1 2471.84,1588.08 2471.84,1611.38 "
         id="polyline12" />
      <polyline
         style="opacity:1;fill:none;stroke:#ff0000;stroke-width:8.46575;stroke-linecap:butt;stroke-linejoin:miter;stroke-dasharray:none"
         points="2401.94,1554.8 2435.22,1528.17 2471.84,1528.17 "
         id="polyline13" />
      <polyline
         style="opacity:1;fill:none;stroke:#ff0000;stroke-width:8.46575;stroke-linecap:butt;stroke-linejoin:miter;stroke-dasharray:none"
         points="2401.94,1501.54 2435.22,1528.17 "
         id="polyline14" />
      <polyline
         style="opacity:1;fill:none;stroke:#ff0000;stroke-width:8.46575;stroke-linecap:butt;stroke-linejoin:miter;stroke-dasharray:none"
         points="2431.9,1458.26 2431.9,1398.35 "
         id="polyline15" />
      <polyline
         style="opacity:1;fill:none;stroke:#ff0000;stroke-width:8.46575;stroke-linecap:butt;stroke-linejoin:miter;stroke-dasharray:none"
         points="2451.87,1458.26 2451.87,1398.35 "
         id="polyline16" />
      <polyline
         style="opacity:1;fill:none;stroke:#ff0000;stroke-width:8.46575;stroke-linecap:butt;stroke-linejoin:miter;stroke-dasharray:none"
         points="2441.88,1345.09 2441.88,1285.17 "
         id="polyline17" />
      <polyline
         style="opacity:1;fill:none;stroke:#ff0000;stroke-width:8.46575;stroke-linecap:butt;stroke-linejoin:miter;stroke-dasharray:none"
         points="2401.94,1238.57 2448.54,1271.85 2448.54,1221.92 "
         id="polyline18" />
      <polyline
         style="opacity:1;fill:none;stroke:#ff0000;stroke-width:8.46575;stroke-linecap:butt;stroke-linejoin:miter;stroke-dasharray:none"
         points="2401.94,1238.57 2471.84,1238.57 "
         id="polyline19" />
      <polyline
         style="opacity:1;fill:none;stroke:#ff0000;stroke-width:8.46575;stroke-linecap:butt;stroke-linejoin:miter;stroke-dasharray:none"
         points="2465.18,1211.94 2468.51,1215.27 2471.84,1211.94 2468.51,1208.61 2465.18,1211.94 "
         id="polyline20" />
      <polyline
         style="opacity:1;fill:none;stroke:#ff0000;stroke-width:8.46575;stroke-linecap:butt;stroke-linejoin:miter;stroke-dasharray:none"
         points="2401.94,1188.64 2401.94,1152.02 2428.57,1171.99 2428.57,1162.01 2431.9,1155.35 2435.22,1152.02 2445.21,1148.69 2451.87,1148.69 2461.85,1152.02 2468.51,1158.68 2471.84,1168.66 2471.84,1178.65 2468.51,1188.64 2465.18,1191.97 2458.52,1195.29 "
         id="polyline21" />
      <polyline
         style="opacity:1;fill:none;stroke:#ff0000;stroke-width:8.46575;stroke-linecap:butt;stroke-linejoin:miter;stroke-dasharray:none"
         points="2425.24,1095.43 2435.22,1098.76 2441.88,1105.42 2445.21,1115.4 2445.21,1118.73 2441.88,1128.72 2435.22,1135.38 2425.24,1138.71 2421.91,1138.71 2411.92,1135.38 2405.27,1128.72 2401.94,1118.73 2401.94,1115.4 2405.27,1105.42 2411.92,1098.76 2425.24,1095.43 2441.88,1095.43 2458.52,1098.76 2468.51,1105.42 2471.84,1115.4 2471.84,1122.06 2468.51,1132.05 2461.85,1135.38 "
         id="polyline22" />
      <polyline
         style="opacity:1;fill:none;stroke:#ff0000;stroke-width:8.46575;stroke-linecap:butt;stroke-linejoin:miter;stroke-dasharray:none"
         points="2401.94,1048.83 2448.54,1082.12 2448.54,1032.19 "
         id="polyline23" />
      <polyline
         style="opacity:1;fill:none;stroke:#ff0000;stroke-width:8.46575;stroke-linecap:butt;stroke-linejoin:miter;stroke-dasharray:none"
         points="2401.94,1048.83 2471.84,1048.83 "
         id="polyline24" />
      <polyline
         style="opacity:1;fill:none;stroke:#ff0000;stroke-width:8.46575;stroke-linecap:butt;stroke-linejoin:miter;stroke-dasharray:none"
         points="2445.21,1025.53 2445.21,985.585 2438.55,985.585 2431.9,988.913 2428.57,992.242 2425.24,998.9 2425.24,1008.89 2428.57,1015.54 2435.22,1022.2 2445.21,1025.53 2451.87,1025.53 2461.85,1022.2 2468.51,1015.54 2471.84,1008.89 2471.84,998.9 2468.51,992.242 2461.85,985.585 "
         id="polyline25" />
      <polyline
         style="opacity:1;fill:none;stroke:#ff0000;stroke-width:8.46575;stroke-linecap:butt;stroke-linejoin:miter;stroke-dasharray:none"
         points="2441.88,975.599 2441.88,915.682 "
         id="polyline26" />
      <polyline
         style="opacity:1;fill:none;stroke:#ff0000;stroke-width:8.46575;stroke-linecap:butt;stroke-linejoin:miter;stroke-dasharray:none"
         points="2401.94,882.395 2405.27,892.381 2415.25,899.038 2431.9,902.367 2441.88,902.367 2458.52,899.038 2468.51,892.381 2471.84,882.395 2471.84,875.737 2468.51,865.751 2458.52,859.093 2441.88,855.765 2431.9,855.765 2415.25,859.093 2405.27,865.751 2401.94,875.737 2401.94,882.395 "
         id="polyline27" />
      <polyline
         style="opacity:1;fill:none;stroke:#ff0000;stroke-width:8.46575;stroke-linecap:butt;stroke-linejoin:miter;stroke-dasharray:none"
         points="2418.58,842.45 2415.25,842.45 2408.6,839.121 2405.27,835.792 2401.94,829.135 2401.94,815.82 2405.27,809.163 2408.6,805.834 2415.25,802.505 2421.91,802.505 2428.57,805.834 2438.55,812.491 2471.84,845.779 2471.84,799.177 "
         id="polyline28" />
      <polyline
         style="opacity:1;fill:none;stroke:#666600;stroke-width:8.46575;stroke-linecap:butt;stroke-linejoin:miter;stroke-dasharray:none"
         points="2389.49,691.351 4098.51,691.351 "
         id="polyline29" />
      <polyline
         style="opacity:1;fill:none;stroke:#0000ff;stroke-width:8.46575;stroke-linecap:butt;stroke-linejoin:miter;stroke-dasharray:none"
         points="2369.32,770.55 2394.44,771.042 2419.56,771.534 2444.68,772.027 2469.8,772.519 2494.92,773.011 2520.04,773.504 2545.16,773.996 2570.28,774.489 2595.4,774.981 2620.52,775.473 2645.65,775.966 2670.77,776.458 2695.89,776.95 2721.01,777.443 2746.13,777.935 2771.25,778.428 2796.37,778.92 2821.49,779.412 2846.61,779.905 2871.73,780.397 2896.85,780.889 2921.97,781.382 2947.09,781.874 2972.21,782.366 2997.33,782.859 3022.45,783.351 3047.58,783.844 3072.7,784.336 3097.82,784.828 3122.94,785.321 3148.06,785.813 3173.18,786.305 3198.3,786.798 3223.42,787.29 3248.54,787.783 3273.66,788.275 3298.78,788.767 3323.9,789.26 3349.02,789.752 3374.14,790.244 3399.26,790.737 3424.39,791.229 3449.51,791.721 3474.63,792.214 3499.75,792.706 3524.87,793.199 3549.99,793.691 3575.11,794.183 3600.23,794.676 3625.35,795.168 3650.47,795.66 3675.59,796.153 3700.71,796.645 3725.83,797.138 3750.95,797.63 3776.07,798.122 3801.2,798.615 3826.32,799.107 3851.44,799.599 3876.56,800.092 3901.68,800.584 3926.8,801.076 3951.92,801.569 3977.04,802.061 4002.16,802.554 4027.28,803.046 4052.4,803.538 4077.52,804.031 4102.64,804.523 4127.76,805.015 4152.88,805.508 "
         id="polyline30" />
      <polyline
         style="opacity:1;fill:none;stroke:#666600;stroke-width:8.46575;stroke-linecap:butt;stroke-linejoin:miter;stroke-dasharray:none"
         points="2389.49,2493.65 4098.51,2493.65 "
         id="polyline31" />
      <polyline
         style="opacity:1;fill:none;stroke:#0000ff;stroke-width:8.46575;stroke-linecap:butt;stroke-linejoin:miter;stroke-dasharray:none"
         points="2347.55,2591.5 2373.07,2591.8 2398.58,2592.1 2424.1,2592.39 2449.61,2592.69 2475.13,2592.98 2500.64,2593.28 2526.16,2593.57 2551.67,2593.87 2577.19,2594.16 2602.7,2594.46 2628.22,2594.75 2653.73,2595.05 2679.25,2595.34 2704.76,2595.64 2730.27,2595.93 2755.79,2596.23 2781.3,2596.52 2806.82,2596.82 2832.33,2597.12 2857.85,2597.41 2883.36,2597.71 2908.88,2598 2934.39,2598.3 2959.91,2598.59 2985.42,2598.89 3010.94,2599.18 3036.45,2599.48 3061.97,2599.77 3087.48,2600.07 3113,2600.36 3138.51,2600.66 3164.03,2600.95 3189.54,2601.25 3215.06,2601.54 3240.57,2601.84 3266.09,2602.14 3291.6,2602.43 3317.11,2602.73 3342.63,2603.02 3368.14,2603.32 3393.66,2603.61 3419.17,2603.91 3444.69,2604.2 3470.2,2604.5 3495.72,2604.79 3521.23,2605.09 3546.75,2605.38 3572.26,2605.68 3597.78,2605.97 3623.29,2606.27 3648.81,2606.56 3674.32,2606.86 3699.84,2607.16 3725.35,2607.45 3750.87,2607.75 3776.38,2608.04 3801.9,2608.34 3827.41,2608.63 3852.93,2608.93 3878.44,2609.22 3903.96,2609.52 3929.47,2609.81 3954.98,2610.11 3980.5,2610.4 4006.01,2610.7 4031.53,2610.99 4057.04,2611.29 4082.56,2611.58 4108.07,2611.88 4133.59,2612.18 4159.1,2612.47 "
         id="polyline32" />
      <polyline
         style="opacity:1;fill:none;stroke:#666600;stroke-width:8.46575;stroke-linecap:butt;stroke-linejoin:miter;stroke-dasharray:none"
         points="2375.84,2460.7 4112.16,724.303 "
         id="polyline33" />
      <polyline
         style="opacity:1;fill:none;stroke:#0000ff;stroke-width:8.46575;stroke-linecap:butt;stroke-linejoin:miter;stroke-dasharray:none"
         points="2347.55,2591.5 2365.61,2573.64 2383.66,2555.78 2401.71,2537.92 2419.77,2520.06 2437.82,2502.2 2455.87,2484.34 2473.93,2466.48 2491.98,2448.62 2510.03,2430.76 2528.09,2412.91 2546.14,2395.05 2564.19,2377.19 2582.25,2359.33 2600.3,2341.47 2618.35,2323.61 2636.41,2305.75 2654.46,2287.89 2672.51,2270.03 2690.57,2252.17 2708.62,2234.31 2726.67,2216.45 2744.73,2198.59 2762.78,2180.73 2780.83,2162.87 2798.89,2145.01 2816.94,2127.15 2834.99,2109.29 2853.05,2091.43 2871.1,2073.57 2889.15,2055.71 2907.21,2037.85 2925.26,2019.99 2943.31,2002.13 2961.37,1984.27 2979.42,1966.41 2997.47,1948.55 3015.53,1930.69 3033.58,1912.83 3051.63,1894.97 3069.69,1877.11 3087.74,1859.25 3105.79,1841.39 3123.85,1823.53 3141.9,1805.67 3159.95,1787.81 3178.01,1769.95 3196.06,1752.09 3214.11,1734.23 3232.17,1716.37 3250.22,1698.51 3268.27,1680.65 3286.33,1662.79 3304.38,1644.93 3322.43,1627.07 3340.49,1609.21 3358.54,1591.35 3376.59,1573.49 3394.65,1555.63 3412.7,1537.77 3430.75,1519.91 3448.81,1502.05 3466.86,1484.19 3484.91,1466.33 3502.96,1448.47 3521.02,1430.61 3539.07,1412.75 3557.12,1394.89 3575.18,1377.03 3593.23,1359.17 3611.28,1341.31 3629.34,1323.45 3647.39,1305.59 3665.44,1287.73 3683.5,1269.87 3701.55,1252.01 3719.6,1234.15 3737.66,1216.29 3755.71,1198.43 3773.76,1180.57 3791.82,1162.71 3809.87,1144.85 3827.92,1126.99 3845.98,1109.13 3864.03,1091.27 3882.08,1073.41 3900.14,1055.55 3918.19,1037.69 3936.24,1019.83 3954.3,1001.97 3972.35,984.107 3990.4,966.248 4008.46,948.388 4026.51,930.528 4044.56,912.668 4062.62,894.808 4080.67,876.948 4098.72,859.088 4116.78,841.228 4134.83,823.368 4152.88,805.508 "
         id="polyline34" />
      <polyline
         style="opacity:1;fill:none;stroke:#0000ff;stroke-width:8.46575;stroke-linecap:butt;stroke-linejoin:miter;stroke-dasharray:none"
         points="2342.89,2493.65 2347.55,2591.5 "
         id="polyline35" />
      <polyline
         style="opacity:1;fill:none;stroke:#ff0000;stroke-width:8.46575;stroke-linecap:butt;stroke-linejoin:miter;stroke-dasharray:none"
         points="2383.8,2601.39 2433.23,2650.82 "
         id="polyline36" />
      <polyline
         style="opacity:1;fill:none;stroke:#ff0000;stroke-width:8.46575;stroke-linecap:butt;stroke-linejoin:miter;stroke-dasharray:none"
         points="2383.8,2601.39 2400.27,2584.91 2409.69,2580.21 2419.1,2580.21 2426.17,2582.56 2435.58,2587.27 2447.35,2599.04 2452.06,2608.45 2454.41,2615.51 2454.41,2624.93 2449.7,2634.34 2433.23,2650.82 "
         id="polyline37" />
      <polyline
         style="opacity:1;fill:none;stroke:#ff0000;stroke-width:8.46575;stroke-linecap:butt;stroke-linejoin:miter;stroke-dasharray:none"
         points="2423.81,2561.38 2466.18,2566.08 2492.07,2591.98 "
         id="polyline38" />
      <polyline
         style="opacity:1;fill:none;stroke:#ff0000;stroke-width:8.46575;stroke-linecap:butt;stroke-linejoin:miter;stroke-dasharray:none"
         points="2461.47,2523.72 2466.18,2566.08 "
         id="polyline39" />
      <polyline
         style="opacity:1;fill:none;stroke:#ff0000;stroke-width:8.46575;stroke-linecap:butt;stroke-linejoin:miter;stroke-dasharray:none"
         points="2513.25,2514.3 2555.62,2471.93 "
         id="polyline40" />
      <polyline
         style="opacity:1;fill:none;stroke:#ff0000;stroke-width:8.46575;stroke-linecap:butt;stroke-linejoin:miter;stroke-dasharray:none"
         points="2527.37,2528.42 2569.74,2486.06 "
         id="polyline41" />
      <polyline
         style="opacity:1;fill:none;stroke:#ff0000;stroke-width:8.46575;stroke-linecap:butt;stroke-linejoin:miter;stroke-dasharray:none"
         points="2600.34,2441.33 2642.7,2398.97 "
         id="polyline42" />
      <polyline
         style="opacity:1;fill:none;stroke:#ff0000;stroke-width:8.46575;stroke-linecap:butt;stroke-linejoin:miter;stroke-dasharray:none"
         points="2652.12,2333.06 2628.58,2356.6 2647.41,2380.14 2647.41,2375.43 2652.12,2366.01 2659.18,2358.95 2668.59,2354.25 2678.01,2354.25 2687.42,2358.95 2692.13,2363.66 2696.84,2373.08 2696.84,2382.49 2692.13,2391.91 2685.07,2398.97 2675.65,2403.67 2670.95,2403.67 2663.88,2401.32 "
         id="polyline43" />
      <polyline
         style="opacity:1;fill:none;stroke:#ff0000;stroke-width:8.46575;stroke-linecap:butt;stroke-linejoin:miter;stroke-dasharray:none"
         points="2710.96,2363.66 2710.96,2368.37 2715.67,2368.37 2715.67,2363.66 2710.96,2363.66 "
         id="polyline44" />
      <polyline
         style="opacity:1;fill:none;stroke:#ff0000;stroke-width:8.46575;stroke-linecap:butt;stroke-linejoin:miter;stroke-dasharray:none"
         points="2701.54,2283.63 2710.96,2340.12 2746.26,2304.82 "
         id="polyline45" />
      <polyline
         style="opacity:1;fill:none;stroke:#ff0000;stroke-width:8.46575;stroke-linecap:butt;stroke-linejoin:miter;stroke-dasharray:none"
         points="2701.54,2283.63 2750.97,2333.06 "
         id="polyline46" />
      <polyline
         style="opacity:1;fill:none;stroke:#ff0000;stroke-width:8.46575;stroke-linecap:butt;stroke-linejoin:miter;stroke-dasharray:none"
         points="2732.14,2276.57 2729.79,2274.22 2727.43,2267.16 2727.43,2262.45 2729.79,2255.39 2739.2,2245.97 2746.26,2243.62 2750.97,2243.62 2758.03,2245.97 2762.74,2250.68 2765.09,2257.74 2767.45,2269.51 2767.45,2316.59 2800.4,2283.63 "
         id="polyline47" />
      <polyline
         style="opacity:1;fill:none;stroke:#ff0000;stroke-width:8.46575;stroke-linecap:butt;stroke-linejoin:miter;stroke-dasharray:none"
         points="2805.1,2213.02 2809.81,2222.44 2809.81,2231.85 2805.1,2241.27 2802.75,2243.62 2793.34,2248.33 2783.92,2248.33 2774.51,2243.62 2772.15,2241.27 2767.45,2231.85 2767.45,2222.44 2772.15,2213.02 2774.51,2210.67 2783.92,2205.96 2793.34,2205.96 2805.1,2213.02 2816.87,2224.79 2826.29,2238.91 2828.64,2250.68 2823.93,2260.1 2819.23,2264.8 2809.81,2269.51 2802.75,2267.16 "
         id="polyline48" />
      <polyline
         style="opacity:1;fill:none;stroke:#ff0000;stroke-width:8.46575;stroke-linecap:butt;stroke-linejoin:miter;stroke-dasharray:none"
         points="2828.64,2217.73 2856.88,2189.48 2852.18,2184.78 2845.12,2182.42 2840.41,2182.42 2833.35,2184.78 2826.29,2191.84 2823.93,2198.9 2823.93,2208.31 2828.64,2217.73 2833.35,2222.44 2842.76,2227.14 2852.18,2227.14 2859.24,2224.79 2866.3,2217.73 2868.65,2210.67 2868.65,2201.25 "
         id="polyline49" />
      <polyline
         style="opacity:1;fill:none;stroke:#ff0000;stroke-width:8.46575;stroke-linecap:butt;stroke-linejoin:miter;stroke-dasharray:none"
         points="2861.59,2180.07 2903.96,2137.7 "
         id="polyline50" />
      <polyline
         style="opacity:1;fill:none;stroke:#ff0000;stroke-width:8.46575;stroke-linecap:butt;stroke-linejoin:miter;stroke-dasharray:none"
         points="2899.25,2085.92 2894.54,2095.33 2896.9,2107.1 2906.31,2121.22 2913.37,2128.29 2927.49,2137.7 2939.26,2140.05 2948.68,2135.35 2953.38,2130.64 2958.09,2121.22 2955.74,2109.45 2946.32,2095.33 2939.26,2088.27 2925.14,2078.86 2913.37,2076.5 2903.96,2081.21 2899.25,2085.92 "
         id="polyline51" />
      <polyline
         style="opacity:1;fill:none;stroke:#ff0000;stroke-width:8.46575;stroke-linecap:butt;stroke-linejoin:miter;stroke-dasharray:none"
         points="2939.26,2069.44 2936.91,2067.09 2934.56,2060.03 2934.56,2055.32 2936.91,2048.26 2946.32,2038.84 2953.38,2036.49 2958.09,2036.49 2965.15,2038.84 2969.86,2043.55 2972.21,2050.61 2974.57,2062.38 2974.57,2109.45 3007.52,2076.5 "
         id="polyline52" />
      <polyline
         style="opacity:1;fill:none;stroke:#0000ff;stroke-width:8.46575;stroke-linecap:butt;stroke-linejoin:miter;stroke-dasharray:none"
         points="4145.11,691.351 4152.88,805.508 "
         id="polyline53" />
      <polyline
         style="opacity:1;fill:none;stroke:#ff0000;stroke-width:8.46575;stroke-linecap:butt;stroke-linejoin:miter;stroke-dasharray:none"
         points="3583.77,1420.78 3633.2,1470.21 "
         id="polyline54" />
      <polyline
         style="opacity:1;fill:none;stroke:#ff0000;stroke-width:8.46575;stroke-linecap:butt;stroke-linejoin:miter;stroke-dasharray:none"
         points="3583.77,1420.78 3600.25,1404.3 3609.66,1399.6 3619.07,1399.6 3626.14,1401.95 3635.55,1406.66 3647.32,1418.43 3652.03,1427.84 3654.38,1434.9 3654.38,1444.32 3649.67,1453.73 3633.2,1470.21 "
         id="polyline55" />
      <polyline
         style="opacity:1;fill:none;stroke:#ff0000;stroke-width:8.46575;stroke-linecap:butt;stroke-linejoin:miter;stroke-dasharray:none"
         points="3623.78,1380.77 3666.15,1385.47 3692.04,1411.37 "
         id="polyline56" />
      <polyline
         style="opacity:1;fill:none;stroke:#ff0000;stroke-width:8.46575;stroke-linecap:butt;stroke-linejoin:miter;stroke-dasharray:none"
         points="3661.44,1343.11 3666.15,1385.47 "
         id="polyline57" />
      <polyline
         style="opacity:1;fill:none;stroke:#ff0000;stroke-width:8.46575;stroke-linecap:butt;stroke-linejoin:miter;stroke-dasharray:none"
         points="3713.22,1333.69 3755.59,1291.32 "
         id="polyline58" />
      <polyline
         style="opacity:1;fill:none;stroke:#ff0000;stroke-width:8.46575;stroke-linecap:butt;stroke-linejoin:miter;stroke-dasharray:none"
         points="3727.34,1347.81 3769.71,1305.45 "
         id="polyline59" />
      <polyline
         style="opacity:1;fill:none;stroke:#ff0000;stroke-width:8.46575;stroke-linecap:butt;stroke-linejoin:miter;stroke-dasharray:none"
         points="3800.31,1260.72 3842.67,1218.36 "
         id="polyline60" />
      <polyline
         style="opacity:1;fill:none;stroke:#ff0000;stroke-width:8.46575;stroke-linecap:butt;stroke-linejoin:miter;stroke-dasharray:none"
         points="3859.15,1159.51 3852.09,1157.16 3842.67,1161.87 3837.96,1166.57 3833.26,1175.99 3835.61,1187.76 3845.03,1201.88 3856.79,1213.65 3868.56,1220.71 3877.98,1220.71 3887.39,1216 3889.75,1213.65 3894.45,1204.23 3894.45,1194.82 3889.75,1185.4 3887.39,1183.05 3877.98,1178.34 3868.56,1178.34 3859.15,1183.05 3856.79,1185.4 3852.09,1194.82 3852.09,1204.23 3856.79,1213.65 "
         id="polyline61" />
      <polyline
         style="opacity:1;fill:none;stroke:#ff0000;stroke-width:8.46575;stroke-linecap:butt;stroke-linejoin:miter;stroke-dasharray:none"
         points="3908.57,1185.4 3908.57,1190.11 3913.28,1190.11 3913.28,1185.4 3908.57,1185.4 "
         id="polyline62" />
      <polyline
         style="opacity:1;fill:none;stroke:#ff0000;stroke-width:8.46575;stroke-linecap:butt;stroke-linejoin:miter;stroke-dasharray:none"
         points="3880.33,1124.21 3906.22,1098.32 3910.93,1131.27 3917.99,1124.21 3925.05,1121.85 3929.76,1121.85 3939.17,1126.56 3943.88,1131.27 3948.59,1140.68 3948.59,1150.1 3943.88,1159.51 3936.82,1166.57 3927.4,1171.28 3922.7,1171.28 3915.64,1168.93 "
         id="polyline63" />
      <polyline
         style="opacity:1;fill:none;stroke:#ff0000;stroke-width:8.46575;stroke-linecap:butt;stroke-linejoin:miter;stroke-dasharray:none"
         points="3920.34,1084.19 3946.23,1058.3 3950.94,1091.25 3958,1084.19 3965.06,1081.84 3969.77,1081.84 3979.18,1086.55 3983.89,1091.25 3988.6,1100.67 3988.6,1110.08 3983.89,1119.5 3976.83,1126.56 3967.42,1131.27 3962.71,1131.27 3955.65,1128.91 "
         id="polyline64" />
      <polyline
         style="opacity:1;fill:none;stroke:#ff0000;stroke-width:8.46575;stroke-linecap:butt;stroke-linejoin:miter;stroke-dasharray:none"
         points="3979.18,1025.35 3988.6,1081.84 4023.9,1046.53 "
         id="polyline65" />
      <polyline
         style="opacity:1;fill:none;stroke:#ff0000;stroke-width:8.46575;stroke-linecap:butt;stroke-linejoin:miter;stroke-dasharray:none"
         points="3979.18,1025.35 4028.61,1074.78 "
         id="polyline66" />
      <polyline
         style="opacity:1;fill:none;stroke:#ff0000;stroke-width:8.46575;stroke-linecap:butt;stroke-linejoin:miter;stroke-dasharray:none"
         points="4026.26,1039.47 4054.5,1011.23 4049.79,1006.52 4042.73,1004.17 4038.03,1004.17 4030.96,1006.52 4023.9,1013.58 4021.55,1020.64 4021.55,1030.06 4026.26,1039.47 4030.96,1044.18 4040.38,1048.89 4049.79,1048.89 4056.86,1046.53 4063.92,1039.47 4066.27,1032.41 4066.27,1023 "
         id="polyline67" />
      <polyline
         style="opacity:1;fill:none;stroke:#ff0000;stroke-width:8.46575;stroke-linecap:butt;stroke-linejoin:miter;stroke-dasharray:none"
         points="4059.21,1001.81 4101.57,959.444 "
         id="polyline68" />
      <polyline
         style="opacity:1;fill:none;stroke:#ff0000;stroke-width:8.46575;stroke-linecap:butt;stroke-linejoin:miter;stroke-dasharray:none"
         points="4096.87,907.661 4092.16,917.076 4094.51,928.845 4103.93,942.967 4110.99,950.029 4125.11,959.444 4136.88,961.797 4146.29,957.09 4151,952.382 4155.71,942.967 4153.36,931.199 4143.94,917.076 4136.88,910.015 4122.76,900.6 4110.99,898.246 4101.57,902.953 4096.87,907.661 "
         id="polyline69" />
      <polyline
         style="opacity:1;fill:none;stroke:#ff0000;stroke-width:8.46575;stroke-linecap:butt;stroke-linejoin:miter;stroke-dasharray:none"
         points="4136.88,891.185 4134.53,888.831 4132.17,881.77 4132.17,877.062 4134.53,870.001 4143.94,860.586 4151,858.232 4155.71,858.232 4162.77,860.586 4167.48,865.293 4169.83,872.355 4172.18,884.123 4172.18,931.199 4205.14,898.246 "
         id="polyline70" />
      <polyline
         style="opacity:1;fill:none;stroke:#666600;stroke-width:8.46575;stroke-linecap:butt;stroke-linejoin:miter;stroke-dasharray:none"
         points="4145.11,2447.05 4145.11,737.953 "
         id="polyline71" />
      <polyline
         style="opacity:1;fill:none;stroke:#0000ff;stroke-width:8.46575;stroke-linecap:butt;stroke-linejoin:miter;stroke-dasharray:none"
         points="4159.1,2612.47 4159.02,2587.02 4158.93,2561.57 4158.84,2536.12 4158.75,2510.67 4158.66,2485.22 4158.58,2459.77 4158.49,2434.32 4158.4,2408.87 4158.31,2383.42 4158.23,2357.97 4158.14,2332.52 4158.05,2307.07 4157.96,2281.62 4157.88,2256.17 4157.79,2230.72 4157.7,2205.27 4157.61,2179.82 4157.53,2154.37 4157.44,2128.92 4157.35,2103.47 4157.26,2078.02 4157.18,2052.57 4157.09,2027.12 4157,2001.67 4156.91,1976.22 4156.83,1950.77 4156.74,1925.32 4156.65,1899.87 4156.56,1874.42 4156.48,1848.97 4156.39,1823.51 4156.3,1798.06 4156.21,1772.61 4156.12,1747.16 4156.04,1721.71 4155.95,1696.26 4155.86,1670.81 4155.77,1645.36 4155.69,1619.91 4155.6,1594.46 4155.51,1569.01 4155.42,1543.56 4155.34,1518.11 4155.25,1492.66 4155.16,1467.21 4155.07,1441.76 4154.99,1416.31 4154.9,1390.86 4154.81,1365.41 4154.72,1339.96 4154.64,1314.51 4154.55,1289.06 4154.46,1263.61 4154.37,1238.16 4154.29,1212.71 4154.2,1187.26 4154.11,1161.81 4154.02,1136.36 4153.94,1110.91 4153.85,1085.46 4153.76,1060.01 4153.67,1034.56 4153.59,1009.11 4153.5,983.659 4153.41,958.209 4153.32,932.759 4153.23,907.309 4153.15,881.858 4153.06,856.408 4152.97,830.958 4152.88,805.508 "
         id="polyline72" />
      <polyline
         style="opacity:1;fill:none;stroke:#666600;stroke-width:8.46575;stroke-linecap:butt;stroke-linejoin:miter;stroke-dasharray:none"
         points="4191.71,2493.65 5900.73,2493.65 "
         id="polyline73" />
      <polyline
         style="opacity:1;fill:none;stroke:#0000ff;stroke-width:8.46575;stroke-linecap:butt;stroke-linejoin:miter;stroke-dasharray:none"
         points="4159.1,2612.47 4184.29,2610.8 4209.48,2609.12 4234.66,2607.45 4259.85,2605.78 4285.03,2604.1 4310.22,2602.43 4335.41,2600.76 4360.59,2599.08 4385.78,2597.41 4410.97,2595.74 4436.15,2594.06 4461.34,2592.39 4486.53,2590.71 4511.71,2589.04 4536.9,2587.37 4562.08,2585.69 4587.27,2584.02 4612.46,2582.35 4637.64,2580.67 4662.83,2579 4688.02,2577.33 4713.2,2575.65 4738.39,2573.98 4763.58,2572.31 4788.76,2570.63 4813.95,2568.96 4839.13,2567.28 4864.32,2565.61 4889.51,2563.94 4914.69,2562.26 4939.88,2560.59 4965.07,2558.92 4990.25,2557.24 5015.44,2555.57 5040.62,2553.9 5065.81,2552.22 5091,2550.55 5116.18,2548.88 5141.37,2547.2 5166.56,2545.53 5191.74,2543.86 5216.93,2542.18 5242.12,2540.51 5267.3,2538.83 5292.49,2537.16 5317.67,2535.49 5342.86,2533.81 5368.05,2532.14 5393.23,2530.47 5418.42,2528.79 5443.61,2527.12 5468.79,2525.45 5493.98,2523.77 5519.17,2522.1 5544.35,2520.43 5569.54,2518.75 5594.72,2517.08 5619.91,2515.41 5645.1,2513.73 5670.28,2512.06 5695.47,2510.38 5720.66,2508.71 5745.84,2507.04 5771.03,2505.36 5796.22,2503.69 5821.4,2502.02 5846.59,2500.34 5871.77,2498.67 5896.96,2497 5922.15,2495.32 5947.33,2493.65 "
         id="polyline74" />
      <polyline
         style="opacity:1;fill:none;stroke:#0000ff;stroke-width:8.46575;stroke-linecap:butt;stroke-linejoin:miter;stroke-dasharray:none"
         points="4145.11,2493.65 4159.1,2612.47 "
         id="polyline75" />
      <polyline
         style="opacity:1;fill:none;stroke:#ff0000;stroke-width:8.46575;stroke-linecap:butt;stroke-linejoin:miter;stroke-dasharray:none"
         points="4177.74,2645.09 4177.74,2714.99 "
         id="polyline76" />
      <polyline
         style="opacity:1;fill:none;stroke:#ff0000;stroke-width:8.46575;stroke-linecap:butt;stroke-linejoin:miter;stroke-dasharray:none"
         points="4177.74,2645.09 4201.04,2645.09 4211.03,2648.42 4217.69,2655.08 4221.01,2661.74 4224.34,2671.72 4224.34,2688.37 4221.01,2698.35 4217.69,2705.01 4211.03,2711.67 4201.04,2714.99 4177.74,2714.99 "
         id="polyline77" />
      <polyline
         style="opacity:1;fill:none;stroke:#ff0000;stroke-width:8.46575;stroke-linecap:butt;stroke-linejoin:miter;stroke-dasharray:none"
         points="4234.33,2645.09 4260.96,2678.38 4260.96,2714.99 "
         id="polyline78" />
      <polyline
         style="opacity:1;fill:none;stroke:#ff0000;stroke-width:8.46575;stroke-linecap:butt;stroke-linejoin:miter;stroke-dasharray:none"
         points="4287.59,2645.09 4260.96,2678.38 "
         id="polyline79" />
      <polyline
         style="opacity:1;fill:none;stroke:#ff0000;stroke-width:8.46575;stroke-linecap:butt;stroke-linejoin:miter;stroke-dasharray:none"
         points="4330.86,2675.05 4390.77,2675.05 "
         id="polyline80" />
      <polyline
         style="opacity:1;fill:none;stroke:#ff0000;stroke-width:8.46575;stroke-linecap:butt;stroke-linejoin:miter;stroke-dasharray:none"
         points="4330.86,2695.02 4390.77,2695.02 "
         id="polyline81" />
      <polyline
         style="opacity:1;fill:none;stroke:#ff0000;stroke-width:8.46575;stroke-linecap:butt;stroke-linejoin:miter;stroke-dasharray:none"
         points="4444.03,2685.04 4503.94,2685.04 "
         id="polyline82" />
      <polyline
         style="opacity:1;fill:none;stroke:#ff0000;stroke-width:8.46575;stroke-linecap:butt;stroke-linejoin:miter;stroke-dasharray:none"
         points="4557.2,2655.08 4553.87,2648.42 4543.89,2645.09 4537.23,2645.09 4527.24,2648.42 4520.59,2658.41 4517.26,2675.05 4517.26,2691.69 4520.59,2705.01 4527.24,2711.67 4537.23,2714.99 4540.56,2714.99 4550.54,2711.67 4557.2,2705.01 4560.53,2695.02 4560.53,2691.69 4557.2,2681.71 4550.54,2675.05 4540.56,2671.72 4537.23,2671.72 4527.24,2675.05 4520.59,2681.71 4517.26,2691.69 "
         id="polyline83" />
      <polyline
         style="opacity:1;fill:none;stroke:#ff0000;stroke-width:8.46575;stroke-linecap:butt;stroke-linejoin:miter;stroke-dasharray:none"
         points="4573.84,2708.34 4570.51,2711.67 4573.84,2714.99 4577.17,2711.67 4573.84,2708.34 "
         id="polyline84" />
      <polyline
         style="opacity:1;fill:none;stroke:#ff0000;stroke-width:8.46575;stroke-linecap:butt;stroke-linejoin:miter;stroke-dasharray:none"
         points="4630.43,2645.09 4597.14,2645.09 4593.81,2675.05 4597.14,2671.72 4607.13,2668.39 4617.11,2668.39 4627.1,2671.72 4633.76,2678.38 4637.09,2688.37 4637.09,2695.02 4633.76,2705.01 4627.1,2711.67 4617.11,2714.99 4607.13,2714.99 4597.14,2711.67 4593.81,2708.34 4590.49,2701.68 "
         id="polyline85" />
      <polyline
         style="opacity:1;fill:none;stroke:#ff0000;stroke-width:8.46575;stroke-linecap:butt;stroke-linejoin:miter;stroke-dasharray:none"
         points="4690.34,2668.39 4687.02,2678.38 4680.36,2685.04 4670.37,2688.37 4667.04,2688.37 4657.06,2685.04 4650.4,2678.38 4647.07,2668.39 4647.07,2665.06 4650.4,2655.08 4657.06,2648.42 4667.04,2645.09 4670.37,2645.09 4680.36,2648.42 4687.02,2655.08 4690.34,2668.39 4690.34,2685.04 4687.02,2701.68 4680.36,2711.67 4670.37,2714.99 4663.72,2714.99 4653.73,2711.67 4650.4,2705.01 "
         id="polyline86" />
      <polyline
         style="opacity:1;fill:none;stroke:#ff0000;stroke-width:8.46575;stroke-linecap:butt;stroke-linejoin:miter;stroke-dasharray:none"
         points="4710.32,2645.09 4746.93,2645.09 4726.96,2671.72 4736.94,2671.72 4743.6,2675.05 4746.93,2678.38 4750.26,2688.37 4750.26,2695.02 4746.93,2705.01 4740.27,2711.67 4730.29,2714.99 4720.3,2714.99 4710.32,2711.67 4706.99,2708.34 4703.66,2701.68 "
         id="polyline87" />
      <polyline
         style="opacity:1;fill:none;stroke:#ff0000;stroke-width:8.46575;stroke-linecap:butt;stroke-linejoin:miter;stroke-dasharray:none"
         points="4760.24,2688.37 4800.19,2688.37 4800.19,2681.71 4796.86,2675.05 4793.53,2671.72 4786.87,2668.39 4776.89,2668.39 4770.23,2671.72 4763.57,2678.38 4760.24,2688.37 4760.24,2695.02 4763.57,2705.01 4770.23,2711.67 4776.89,2714.99 4786.87,2714.99 4793.53,2711.67 4800.19,2705.01 "
         id="polyline88" />
      <polyline
         style="opacity:1;fill:none;stroke:#ff0000;stroke-width:8.46575;stroke-linecap:butt;stroke-linejoin:miter;stroke-dasharray:none"
         points="4810.17,2685.04 4870.09,2685.04 "
         id="polyline89" />
      <polyline
         style="opacity:1;fill:none;stroke:#ff0000;stroke-width:8.46575;stroke-linecap:butt;stroke-linejoin:miter;stroke-dasharray:none"
         points="4903.37,2645.09 4893.39,2648.42 4886.73,2658.41 4883.4,2675.05 4883.4,2685.04 4886.73,2701.68 4893.39,2711.67 4903.37,2714.99 4910.03,2714.99 4920.02,2711.67 4926.67,2701.68 4930,2685.04 4930,2675.05 4926.67,2658.41 4920.02,2648.42 4910.03,2645.09 4903.37,2645.09 "
         id="polyline90" />
      <polyline
         style="opacity:1;fill:none;stroke:#ff0000;stroke-width:8.46575;stroke-linecap:butt;stroke-linejoin:miter;stroke-dasharray:none"
         points="4943.32,2661.74 4943.32,2658.41 4946.64,2651.75 4949.97,2648.42 4956.63,2645.09 4969.94,2645.09 4976.6,2648.42 4979.93,2651.75 4983.26,2658.41 4983.26,2665.06 4979.93,2671.72 4973.27,2681.71 4939.99,2714.99 4986.59,2714.99 "
         id="polyline91" />
      <polyline
         style="opacity:1;fill:none;stroke:#666600;stroke-width:8.46575;stroke-linecap:butt;stroke-linejoin:miter;stroke-dasharray:none"
         points="4191.71,691.351 5900.73,691.351 "
         id="polyline92" />
      <polyline
         style="opacity:1;fill:none;stroke:#0000ff;stroke-width:8.46575;stroke-linecap:butt;stroke-linejoin:miter;stroke-dasharray:none"
         points="4152.88,805.508 4177.94,804.228 4202.99,802.949 4228.05,801.67 4253.1,800.39 4278.16,799.111 4303.21,797.831 4328.27,796.552 4353.32,795.273 4378.38,793.993 4403.43,792.714 4428.49,791.435 4453.54,790.155 4478.6,788.876 4503.65,787.596 4528.71,786.317 4553.76,785.038 4578.82,783.758 4603.87,782.479 4628.93,781.199 4653.98,779.92 4679.04,778.641 4704.09,777.361 4729.15,776.082 4754.31,774.803 4779.26,773.523 4804.31,772.244 4829.37,770.964 4854.42,769.685 4879.48,768.406 4904.53,767.126 4929.59,765.847 4954.64,764.567 4979.7,763.288 5004.75,762.009 5029.81,760.729 5054.86,759.45 5079.92,758.171 5104.97,756.891 5130.03,755.612 5155.08,754.332 5180.14,753.053 5205.19,751.774 5230.25,750.494 5255.3,749.215 5280.36,747.935 5305.41,746.656 5330.47,745.377 5355.52,744.097 5380.58,742.818 5405.63,741.539 5430.69,740.259 5455.74,738.98 5480.8,737.7 5505.85,736.421 5530.91,735.142 5555.96,733.862 5581.02,732.583 5606.07,731.303 5631.13,730.024 5656.18,728.745 5681.24,727.465 5706.29,726.186 5731.35,724.907 5756.4,723.627 5781.46,722.348 5806.51,721.068 5831.57,719.789 5856.62,718.51 5881.68,717.23 5906.73,715.951 5931.79,714.671 "
         id="polyline93" />
      <polyline
         style="opacity:1;fill:none;stroke:#666600;stroke-width:8.46575;stroke-linecap:butt;stroke-linejoin:miter;stroke-dasharray:none"
         points="5947.33,2447.05 5947.33,737.953 "
         id="polyline94" />
      <polyline
         style="opacity:1;fill:none;stroke:#0000ff;stroke-width:8.46575;stroke-linecap:butt;stroke-linejoin:miter;stroke-dasharray:none"
         points="5947.33,2493.65 5947.11,2468.59 5946.9,2443.54 5946.68,2418.48 5946.46,2393.43 5946.24,2368.37 5946.02,2343.31 5945.8,2318.26 5945.58,2293.2 5945.36,2268.15 5945.14,2243.09 5944.92,2218.03 5944.71,2192.98 5944.49,2167.92 5944.27,2142.86 5944.05,2117.81 5943.83,2092.75 5943.61,2067.7 5943.39,2042.64 5943.17,2017.58 5942.95,1992.53 5942.73,1967.47 5942.52,1942.42 5942.3,1917.36 5942.08,1892.3 5941.86,1867.25 5941.64,1842.19 5941.42,1817.14 5941.2,1792.08 5940.98,1767.02 5940.76,1741.97 5940.55,1716.91 5940.33,1691.86 5940.11,1666.8 5939.89,1641.74 5939.67,1616.69 5939.45,1591.63 5939.23,1566.58 5939.01,1541.52 5938.79,1516.46 5938.57,1491.41 5938.36,1466.35 5938.14,1441.3 5937.92,1416.24 5937.7,1391.18 5937.48,1366.13 5937.26,1341.07 5937.04,1316.02 5936.82,1290.96 5936.6,1265.9 5936.39,1240.85 5936.17,1215.79 5935.95,1190.74 5935.73,1165.68 5935.51,1140.62 5935.29,1115.57 5935.07,1090.51 5934.85,1065.46 5934.63,1040.4 5934.41,1015.34 5934.2,990.288 5933.98,965.232 5933.76,940.176 5933.54,915.12 5933.32,890.064 5933.1,865.008 5932.88,839.952 5932.66,814.896 5932.44,789.84 5932.22,764.784 5932.01,739.727 5931.79,714.671 "
         id="polyline95" />
      <polyline
         style="opacity:1;fill:none;stroke:#0000ff;stroke-width:8.46575;stroke-linecap:butt;stroke-linejoin:miter;stroke-dasharray:none"
         points="5947.33,2493.65 5947.33,2493.65 "
         id="polyline96" />
      <polyline
         style="opacity:1;fill:none;stroke:#0000ff;stroke-width:8.46575;stroke-linecap:butt;stroke-linejoin:miter;stroke-dasharray:none"
         points="5947.33,691.351 5931.79,714.671 "
         id="polyline97" />
      <polyline
         style="opacity:1;fill:none;stroke:#ff0000;stroke-width:8.46575;stroke-linecap:butt;stroke-linejoin:miter;stroke-dasharray:none"
         points="5829.27,1545.52 5899.17,1545.52 "
         id="polyline98" />
      <polyline
         style="opacity:1;fill:none;stroke:#ff0000;stroke-width:8.46575;stroke-linecap:butt;stroke-linejoin:miter;stroke-dasharray:none"
         points="5829.27,1545.52 5829.27,1522.22 5832.6,1512.23 5839.25,1505.57 5845.91,1502.25 5855.9,1498.92 5872.54,1498.92 5882.52,1502.25 5889.18,1505.57 5895.84,1512.23 5899.17,1522.22 5899.17,1545.52 "
         id="polyline99" />
      <polyline
         style="opacity:1;fill:none;stroke:#ff0000;stroke-width:8.46575;stroke-linecap:butt;stroke-linejoin:miter;stroke-dasharray:none"
         points="5829.27,1488.93 5862.55,1462.3 5899.17,1462.3 "
         id="polyline100" />
      <polyline
         style="opacity:1;fill:none;stroke:#ff0000;stroke-width:8.46575;stroke-linecap:butt;stroke-linejoin:miter;stroke-dasharray:none"
         points="5829.27,1435.67 5862.55,1462.3 "
         id="polyline101" />
      <polyline
         style="opacity:1;fill:none;stroke:#ff0000;stroke-width:8.46575;stroke-linecap:butt;stroke-linejoin:miter;stroke-dasharray:none"
         points="5859.22,1392.4 5859.22,1332.48 "
         id="polyline102" />
      <polyline
         style="opacity:1;fill:none;stroke:#ff0000;stroke-width:8.46575;stroke-linecap:butt;stroke-linejoin:miter;stroke-dasharray:none"
         points="5879.2,1392.4 5879.2,1332.48 "
         id="polyline103" />
      <polyline
         style="opacity:1;fill:none;stroke:#ff0000;stroke-width:8.46575;stroke-linecap:butt;stroke-linejoin:miter;stroke-dasharray:none"
         points="5869.21,1279.22 5869.21,1219.3 "
         id="polyline104" />
      <polyline
         style="opacity:1;fill:none;stroke:#ff0000;stroke-width:8.46575;stroke-linecap:butt;stroke-linejoin:miter;stroke-dasharray:none"
         points="5842.58,1205.99 5839.25,1199.33 5829.27,1189.35 5899.17,1189.35 "
         id="polyline105" />
      <polyline
         style="opacity:1;fill:none;stroke:#ff0000;stroke-width:8.46575;stroke-linecap:butt;stroke-linejoin:miter;stroke-dasharray:none"
         points="5892.51,1156.06 5895.84,1159.39 5899.17,1156.06 5895.84,1152.73 5892.51,1156.06 "
         id="polyline106" />
      <polyline
         style="opacity:1;fill:none;stroke:#ff0000;stroke-width:8.46575;stroke-linecap:butt;stroke-linejoin:miter;stroke-dasharray:none"
         points="5845.91,1136.09 5842.58,1136.09 5835.92,1132.76 5832.6,1129.43 5829.27,1122.77 5829.27,1109.46 5832.6,1102.8 5835.92,1099.47 5842.58,1096.14 5849.24,1096.14 5855.9,1099.47 5865.88,1106.13 5899.17,1139.42 5899.17,1092.81 "
         id="polyline107" />
      <polyline
         style="opacity:1;fill:none;stroke:#ff0000;stroke-width:8.46575;stroke-linecap:butt;stroke-linejoin:miter;stroke-dasharray:none"
         points="5852.57,1039.55 5862.55,1042.88 5869.21,1049.54 5872.54,1059.53 5872.54,1062.86 5869.21,1072.84 5862.55,1079.5 5852.57,1082.83 5849.24,1082.83 5839.25,1079.5 5832.6,1072.84 5829.27,1062.86 5829.27,1059.53 5832.6,1049.54 5839.25,1042.88 5852.57,1039.55 5869.21,1039.55 5885.85,1042.88 5895.84,1049.54 5899.17,1059.53 5899.17,1066.18 5895.84,1076.17 5889.18,1079.5 "
         id="polyline108" />
      <polyline
         style="opacity:1;fill:none;stroke:#ff0000;stroke-width:8.46575;stroke-linecap:butt;stroke-linejoin:miter;stroke-dasharray:none"
         points="5829.27,992.952 5875.87,1026.24 5875.87,976.309 "
         id="polyline109" />
      <polyline
         style="opacity:1;fill:none;stroke:#ff0000;stroke-width:8.46575;stroke-linecap:butt;stroke-linejoin:miter;stroke-dasharray:none"
         points="5829.27,992.952 5899.17,992.952 "
         id="polyline110" />
      <polyline
         style="opacity:1;fill:none;stroke:#ff0000;stroke-width:8.46575;stroke-linecap:butt;stroke-linejoin:miter;stroke-dasharray:none"
         points="5872.54,969.651 5872.54,929.707 5865.88,929.707 5859.22,933.035 5855.9,936.364 5852.57,943.021 5852.57,953.008 5855.9,959.665 5862.55,966.322 5872.54,969.651 5879.2,969.651 5889.18,966.322 5895.84,959.665 5899.17,953.008 5899.17,943.021 5895.84,936.364 5889.18,929.707 "
         id="polyline111" />
      <polyline
         style="opacity:1;fill:none;stroke:#ff0000;stroke-width:8.46575;stroke-linecap:butt;stroke-linejoin:miter;stroke-dasharray:none"
         points="5869.21,919.72 5869.21,859.804 "
         id="polyline112" />
      <polyline
         style="opacity:1;fill:none;stroke:#ff0000;stroke-width:8.46575;stroke-linecap:butt;stroke-linejoin:miter;stroke-dasharray:none"
         points="5829.27,826.516 5832.6,836.502 5842.58,843.16 5859.22,846.489 5869.21,846.489 5885.85,843.16 5895.84,836.502 5899.17,826.516 5899.17,819.859 5895.84,809.873 5885.85,803.215 5869.21,799.887 5859.22,799.887 5842.58,803.215 5832.6,809.873 5829.27,819.859 5829.27,826.516 "
         id="polyline113" />
      <polyline
         style="opacity:1;fill:none;stroke:#ff0000;stroke-width:8.46575;stroke-linecap:butt;stroke-linejoin:miter;stroke-dasharray:none"
         points="5845.91,786.572 5842.58,786.572 5835.92,783.243 5832.6,779.914 5829.27,773.257 5829.27,759.942 5832.6,753.285 5835.92,749.956 5842.58,746.627 5849.24,746.627 5855.9,749.956 5865.88,756.613 5899.17,789.9 5899.17,743.298 "
         id="polyline114" />
      <path
         d="m 587.267,2493.65 a 46.6001,46.602 0 0 0 -93.2,0"
         style="opacity:1;fill:none;stroke:#666600;stroke-width:8.46575;stroke-linecap:butt;stroke-linejoin:miter;stroke-dasharray:none"
         id="path114" />
      <path
         d="m 494.067,2493.65 a 46.6001,46.602 0 0 0 93.2,0"
         style="opacity:1;fill:none;stroke:#666600;stroke-width:8.46575;stroke-linecap:butt;stroke-linejoin:miter;stroke-dasharray:none"
         id="path115" />
      <polyline
         style="opacity:1;fill:none;stroke:#006600;stroke-width:8.46575;stroke-linecap:butt;stroke-linejoin:miter;stroke-dasharray:none"
         points="478.534,2601.27 540.667,2493.65 602.8,2601.27 "
         id="polyline115" />
      <polyline
         style="opacity:1;fill:none;stroke:#006600;stroke-width:8.46575;stroke-linecap:butt;stroke-linejoin:miter;stroke-dasharray:none"
         points="447.469,2601.27 633.865,2601.27 "
         id="polyline116" />
      <polyline
         style="opacity:1;fill:none;stroke:#006600;stroke-width:8.46575;stroke-linecap:butt;stroke-linejoin:miter;stroke-dasharray:none"
         points="484.749,2601.27 447.469,2638.55 "
         id="polyline117" />
      <polyline
         style="opacity:1;fill:none;stroke:#006600;stroke-width:8.46575;stroke-linecap:butt;stroke-linejoin:miter;stroke-dasharray:none"
         points="522.029,2601.27 484.749,2638.55 "
         id="polyline118" />
      <polyline
         style="opacity:1;fill:none;stroke:#006600;stroke-width:8.46575;stroke-linecap:butt;stroke-linejoin:miter;stroke-dasharray:none"
         points="559.309,2601.27 522.029,2638.55 "
         id="polyline119" />
      <polyline
         style="opacity:1;fill:none;stroke:#006600;stroke-width:8.46575;stroke-linecap:butt;stroke-linejoin:miter;stroke-dasharray:none"
         points="596.589,2601.27 559.309,2638.55 "
         id="polyline120" />
      <polyline
         style="opacity:1;fill:none;stroke:#006600;stroke-width:8.46575;stroke-linecap:butt;stroke-linejoin:miter;stroke-dasharray:none"
         points="633.869,2601.27 596.589,2638.55 "
         id="polyline121" />
      <path
         d="m 2389.49,691.351 a 46.6001,46.602 0 0 0 -93.2,0"
         style="opacity:1;fill:none;stroke:#666600;stroke-width:8.46575;stroke-linecap:butt;stroke-linejoin:miter;stroke-dasharray:none"
         id="path121" />
      <path
         d="m 2296.29,691.351 a 46.6001,46.602 0 0 0 93.2,0"
         style="opacity:1;fill:none;stroke:#666600;stroke-width:8.46575;stroke-linecap:butt;stroke-linejoin:miter;stroke-dasharray:none"
         id="path122" />
      <path
         d="m 2389.49,2493.65 a 46.6001,46.602 0 0 0 -93.2,0"
         style="opacity:1;fill:none;stroke:#666600;stroke-width:8.46575;stroke-linecap:butt;stroke-linejoin:miter;stroke-dasharray:none"
         id="path123" />
      <path
         d="m 2296.29,2493.65 a 46.6001,46.602 0 0 0 93.2,0"
         style="opacity:1;fill:none;stroke:#666600;stroke-width:8.46575;stroke-linecap:butt;stroke-linejoin:miter;stroke-dasharray:none"
         id="path124" />
      <path
         d="m 4191.71,2493.65 a 46.6001,46.602 0 0 0 -93.2,0"
         style="opacity:1;fill:none;stroke:#666600;stroke-width:8.46575;stroke-linecap:butt;stroke-linejoin:miter;stroke-dasharray:none"
         id="path125" />
      <path
         d="m 4098.51,2493.65 a 46.6001,46.602 0 0 0 93.2,0"
         style="opacity:1;fill:none;stroke:#666600;stroke-width:8.46575;stroke-linecap:butt;stroke-linejoin:miter;stroke-dasharray:none"
         id="path126" />
      <path
         d="m 4191.71,691.351 a 46.6001,46.602 0 0 0 -93.2,0"
         style="opacity:1;fill:none;stroke:#666600;stroke-width:8.46575;stroke-linecap:butt;stroke-linejoin:miter;stroke-dasharray:none"
         id="path127" />
      <path
         d="m 4098.51,691.351 a 46.6001,46.602 0 0 0 93.2,0"
         style="opacity:1;fill:none;stroke:#666600;stroke-width:8.46575;stroke-linecap:butt;stroke-linejoin:miter;stroke-dasharray:none"
         id="path128" />
      <path
         d="m 5993.93,691.351 a 46.6001,46.602 0 0 0 -93.2,0"
         style="opacity:1;fill:none;stroke:#666600;stroke-width:8.46575;stroke-linecap:butt;stroke-linejoin:miter;stroke-dasharray:none"
         id="path129" />
      <path
         d="m 5900.73,691.351 a 46.6001,46.602 0 0 0 93.2,0"
         style="opacity:1;fill:none;stroke:#666600;stroke-width:8.46575;stroke-linecap:butt;stroke-linejoin:miter;stroke-dasharray:none"
         id="path130" />
      <path
         d="m 5993.93,2493.65 a 46.6001,46.602 0 0 0 -93.2,0"
         style="opacity:1;fill:none;stroke:#666600;stroke-width:8.46575;stroke-linecap:butt;stroke-linejoin:miter;stroke-dasharray:none"
         id="path131" />
      <path
         d="m 5900.73,2493.65 a 46.6001,46.602 0 0 0 93.2,0"
         style="opacity:1;fill:none;stroke:#666600;stroke-width:8.46575;stroke-linecap:butt;stroke-linejoin:miter;stroke-dasharray:none"
         id="path132" />
      <polyline
         style="opacity:1;fill:none;stroke:#006600;stroke-width:8.46575;stroke-linecap:butt;stroke-linejoin:miter;stroke-dasharray:none"
         points="5885.2,2601.27 5947.33,2493.65 6009.47,2601.27 "
         id="polyline132" />
      <polyline
         style="opacity:1;fill:none;stroke:#006600;stroke-width:8.46575;stroke-linecap:butt;stroke-linejoin:miter;stroke-dasharray:none"
         points="5854.13,2601.27 6040.53,2601.27 "
         id="polyline133" />
      <polyline
         style="opacity:1;fill:none;stroke:#006600;stroke-width:8.46575;stroke-linecap:butt;stroke-linejoin:miter;stroke-dasharray:none"
         points="5891.42,2601.27 5854.13,2638.55 "
         id="polyline134" />
      <polyline
         style="opacity:1;fill:none;stroke:#006600;stroke-width:8.46575;stroke-linecap:butt;stroke-linejoin:miter;stroke-dasharray:none"
         points="5928.7,2601.27 5891.42,2638.55 "
         id="polyline135" />
      <polyline
         style="opacity:1;fill:none;stroke:#006600;stroke-width:8.46575;stroke-linecap:butt;stroke-linejoin:miter;stroke-dasharray:none"
         points="5965.98,2601.27 5928.7,2638.55 "
         id="polyline136" />
      <polyline
         style="opacity:1;fill:none;stroke:#006600;stroke-width:8.46575;stroke-linecap:butt;stroke-linejoin:miter;stroke-dasharray:none"
         points="6003.26,2601.27 5965.98,2638.55 "
         id="polyline137" />
      <polyline
         style="opacity:1;fill:none;stroke:#006600;stroke-width:8.46575;stroke-linecap:butt;stroke-linejoin:miter;stroke-dasharray:none"
         points="6040.54,2601.27 6003.26,2638.55 "
         id="polyline138" />
    </g>
  </g>
</svg>
