<?xml version="1.0" encoding="utf-8" standalone="no"?>
<!DOCTYPE svg PUBLIC "-//W3C//DTD SVG 1.1//EN"
  "http://www.w3.org/Graphics/SVG/1.1/DTD/svg11.dtd">
<svg xmlns:xlink="http://www.w3.org/1999/xlink" width="436.282812pt" height="398.99625pt" viewBox="0 0 436.282812 398.99625" xmlns="http://www.w3.org/2000/svg" version="1.1">
 <metadata>
  <rdf:RDF xmlns:dc="http://purl.org/dc/elements/1.1/" xmlns:cc="http://creativecommons.org/ns#" xmlns:rdf="http://www.w3.org/1999/02/22-rdf-syntax-ns#">
   <cc:Work>
    <dc:type rdf:resource="http://purl.org/dc/dcmitype/StillImage"/>
    <dc:date>2025-10-28T21:25:39.939812</dc:date>
    <dc:format>image/svg+xml</dc:format>
    <dc:creator>
     <cc:Agent>
      <dc:title>Matplotlib v3.10.0, https://matplotlib.org/</dc:title>
     </cc:Agent>
    </dc:creator>
   </cc:Work>
  </rdf:RDF>
 </metadata>
 <defs>
  <style type="text/css">*{stroke-linejoin: round; stroke-linecap: butt}</style>
 </defs>
 <g id="figure_1">
  <g id="patch_1">
   <path d="M 0 398.99625 
L 436.282812 398.99625 
L 436.282812 0 
L 0 0 
z
" style="fill: #ffffff"/>
  </g>
  <g id="axes_1">
   <g id="patch_2">
    <path d="M 38.482813 187.2 
L 216.028267 187.2 
L 216.028267 28.8 
L 38.482813 28.8 
z
" style="fill: #ffffff"/>
   </g>
   <g id="matplotlib.axis_1">
    <g id="ytick_1">
     <g id="line2d_1">
      <defs>
       <path id="ma200f5ee0f" d="M 0 0 
L -3.5 0 
" style="stroke: #000000; stroke-width: 0.8"/>
      </defs>
      <g>
       <use xlink:href="#ma200f5ee0f" x="38.482813" y="180" style="stroke: #000000; stroke-width: 0.8"/>
      </g>
     </g>
     <g id="text_1">
      <!-- 0.0 -->
      <g transform="translate(15.579688 183.799219) scale(0.1 -0.1)">
       <defs>
        <path id="DejaVuSans-30" d="M 2034 4250 
Q 1547 4250 1301 3770 
Q 1056 3291 1056 2328 
Q 1056 1369 1301 889 
Q 1547 409 2034 409 
Q 2525 409 2770 889 
Q 3016 1369 3016 2328 
Q 3016 3291 2770 3770 
Q 2525 4250 2034 4250 
z
M 2034 4750 
Q 2819 4750 3233 4129 
Q 3647 3509 3647 2328 
Q 3647 1150 3233 529 
Q 2819 -91 2034 -91 
Q 1250 -91 836 529 
Q 422 1150 422 2328 
Q 422 3509 836 4129 
Q 1250 4750 2034 4750 
z
" transform="scale(0.015625)"/>
        <path id="DejaVuSans-2e" d="M 684 794 
L 1344 794 
L 1344 0 
L 684 0 
L 684 794 
z
" transform="scale(0.015625)"/>
       </defs>
       <use xlink:href="#DejaVuSans-30"/>
       <use xlink:href="#DejaVuSans-2e" transform="translate(63.623047 0)"/>
       <use xlink:href="#DejaVuSans-30" transform="translate(95.410156 0)"/>
      </g>
     </g>
    </g>
    <g id="ytick_2">
     <g id="line2d_2">
      <g>
       <use xlink:href="#ma200f5ee0f" x="38.482813" y="108" style="stroke: #000000; stroke-width: 0.8"/>
      </g>
     </g>
     <g id="text_2">
      <!-- 0.5 -->
      <g transform="translate(15.579688 111.799219) scale(0.1 -0.1)">
       <defs>
        <path id="DejaVuSans-35" d="M 691 4666 
L 3169 4666 
L 3169 4134 
L 1269 4134 
L 1269 2991 
Q 1406 3038 1543 3061 
Q 1681 3084 1819 3084 
Q 2600 3084 3056 2656 
Q 3513 2228 3513 1497 
Q 3513 744 3044 326 
Q 2575 -91 1722 -91 
Q 1428 -91 1123 -41 
Q 819 9 494 109 
L 494 744 
Q 775 591 1075 516 
Q 1375 441 1709 441 
Q 2250 441 2565 725 
Q 2881 1009 2881 1497 
Q 2881 1984 2565 2268 
Q 2250 2553 1709 2553 
Q 1456 2553 1204 2497 
Q 953 2441 691 2322 
L 691 4666 
z
" transform="scale(0.015625)"/>
       </defs>
       <use xlink:href="#DejaVuSans-30"/>
       <use xlink:href="#DejaVuSans-2e" transform="translate(63.623047 0)"/>
       <use xlink:href="#DejaVuSans-35" transform="translate(95.410156 0)"/>
      </g>
     </g>
    </g>
    <g id="ytick_3">
     <g id="line2d_3">
      <g>
       <use xlink:href="#ma200f5ee0f" x="38.482813" y="36" style="stroke: #000000; stroke-width: 0.8"/>
      </g>
     </g>
     <g id="text_3">
      <!-- 1.0 -->
      <g transform="translate(15.579688 39.799219) scale(0.1 -0.1)">
       <defs>
        <path id="DejaVuSans-31" d="M 794 531 
L 1825 531 
L 1825 4091 
L 703 3866 
L 703 4441 
L 1819 4666 
L 2450 4666 
L 2450 531 
L 3481 531 
L 3481 0 
L 794 0 
L 794 531 
z
" transform="scale(0.015625)"/>
       </defs>
       <use xlink:href="#DejaVuSans-31"/>
       <use xlink:href="#DejaVuSans-2e" transform="translate(63.623047 0)"/>
       <use xlink:href="#DejaVuSans-30" transform="translate(95.410156 0)"/>
      </g>
     </g>
    </g>
   </g>
   <g id="line2d_4">
    <path d="M 46.55306 180 
L 48.183414 179.851864 
L 49.813767 179.415401 
L 51.44412 178.702529 
L 53.074473 177.725163 
L 54.704826 176.495215 
L 56.335179 175.024592 
L 57.965532 173.325192 
L 59.595885 171.4089 
L 61.226238 169.287585 
L 62.856592 166.973095 
L 64.486945 164.477249 
L 66.117298 161.811838 
L 67.747651 158.988611 
L 69.378004 156.019272 
L 71.008357 152.915476 
L 72.63871 149.688814 
L 74.269063 146.350815 
L 75.899417 142.912929 
L 77.52977 139.386524 
L 79.160123 135.782876 
L 80.790476 132.113162 
L 82.420829 128.388448 
L 84.051182 124.619681 
L 85.681535 120.817681 
L 87.311888 116.993131 
L 88.942242 113.156569 
L 90.572595 109.318373 
L 92.202948 105.48876 
L 93.833301 101.677769 
L 95.463654 97.895257 
L 97.094007 94.150886 
L 98.72436 90.454113 
L 100.354713 86.814186 
L 101.985066 83.24013 
L 103.61542 79.740738 
L 105.245773 76.324566 
L 106.876126 72.99992 
L 108.506479 69.774851 
L 110.136832 66.657144 
L 111.767185 63.654311 
L 113.397538 60.773585 
L 115.027891 58.02191 
L 116.658245 55.405937 
L 118.288598 52.932011 
L 119.918951 50.606173 
L 121.549304 48.434148 
L 123.179657 46.42134 
L 124.81001 44.572828 
L 126.440363 42.893362 
L 128.070716 41.387355 
L 129.701069 40.058881 
L 131.331423 38.911672 
L 132.961776 37.949114 
L 134.592129 37.174241 
L 136.222482 36.58974 
L 137.852835 36.197941 
L 139.483188 36.000821 
L 141.113541 36 
L 142.743894 36.196743 
L 144.374248 36.591959 
L 146.004601 37.186199 
L 147.634954 37.979661 
L 149.265307 38.97219 
L 150.89566 40.163277 
L 152.526013 41.552068 
L 154.156366 43.13736 
L 155.786719 44.917608 
L 157.417072 46.890929 
L 159.047426 49.055106 
L 160.677779 51.407592 
L 162.308132 53.945516 
L 163.938485 56.66569 
L 165.568838 59.564612 
L 167.199191 62.638477 
L 168.829544 65.88318 
L 170.459897 69.294328 
L 172.090251 72.867244 
L 173.720604 76.596978 
L 175.350957 80.478313 
L 176.98131 84.505779 
L 178.611663 88.673658 
L 180.242016 92.975996 
L 181.872369 97.406613 
L 183.502722 101.959114 
L 185.133075 106.6269 
L 186.763429 111.403177 
L 188.393782 116.280973 
L 190.024135 121.253143 
L 191.654488 126.312385 
L 193.284841 131.451254 
L 194.915194 136.662169 
L 196.545547 141.93743 
L 198.1759 147.26923 
L 199.806254 152.649669 
L 201.436607 158.070765 
L 203.06696 163.524467 
L 204.697313 169.002671 
L 206.327666 174.497233 
L 207.958019 179.99998 
" clip-path="url(#pefa312fee4)" style="fill: none; stroke: #0000ff; stroke-width: 1.5; stroke-linecap: square"/>
   </g>
   <g id="line2d_5">
    <path d="M 46.55306 180 
L 48.183414 179.851865 
L 49.813767 179.415403 
L 51.44412 178.702532 
L 53.074473 177.725167 
L 54.704826 176.495219 
L 56.335179 175.024596 
L 57.965532 173.325196 
L 59.595885 171.408904 
L 61.226238 169.287589 
L 62.856592 166.973098 
L 64.486945 164.477254 
L 66.117298 161.811843 
L 67.747651 158.988617 
L 69.378004 156.019281 
L 71.008357 152.915486 
L 72.63871 149.688828 
L 74.269063 146.350831 
L 75.899417 142.912948 
L 77.52977 139.386546 
L 79.160123 135.782902 
L 80.790476 132.113191 
L 82.420829 128.388479 
L 84.051182 124.619714 
L 85.681535 120.817716 
L 87.311888 116.993168 
L 88.942242 113.156606 
L 90.572595 109.318411 
L 92.202948 105.488797 
L 93.833301 101.677806 
L 95.463654 97.895293 
L 97.094007 94.15092 
L 98.72436 90.454146 
L 100.354713 86.814218 
L 101.985066 83.24016 
L 103.61542 79.740766 
L 105.245773 76.324592 
L 106.876126 72.999945 
L 108.506479 69.774874 
L 110.136832 66.657165 
L 111.767185 63.654331 
L 113.397538 60.773604 
L 115.027891 58.021928 
L 116.658245 55.405953 
L 118.288598 52.932027 
L 119.918951 50.606189 
L 121.549304 48.434163 
L 123.179657 46.421355 
L 124.81001 44.572843 
L 126.440363 42.893376 
L 128.070716 41.387369 
L 129.701069 40.058894 
L 131.331423 38.911684 
L 132.961776 37.949124 
L 134.592129 37.174251 
L 136.222482 36.589747 
L 137.852835 36.197946 
L 139.483188 36.000823 
L 141.113541 36 
L 142.743894 36.19674 
L 144.374248 36.591952 
L 146.004601 37.186189 
L 147.634954 37.979647 
L 149.265307 38.972172 
L 150.89566 40.163256 
L 152.526013 41.552043 
L 154.156366 43.137331 
L 155.786719 44.917576 
L 157.417072 46.890894 
L 159.047426 49.055068 
L 160.677779 51.407552 
L 162.308132 53.945474 
L 163.938485 56.665646 
L 165.568838 59.564568 
L 167.199191 62.638432 
L 168.829544 65.883136 
L 170.459897 69.294284 
L 172.090251 72.867202 
L 173.720604 76.596936 
L 175.350957 80.478274 
L 176.98131 84.505742 
L 178.611663 88.673623 
L 180.242016 92.975963 
L 181.872369 97.406582 
L 183.502722 101.959086 
L 185.133075 106.626874 
L 186.763429 111.403154 
L 188.393782 116.280952 
L 190.024135 121.253124 
L 191.654488 126.312369 
L 193.284841 131.451239 
L 194.915194 136.662156 
L 196.545547 141.93742 
L 198.1759 147.269224 
L 199.806254 152.649666 
L 201.436607 158.070766 
L 203.06696 163.524472 
L 204.697313 169.002681 
L 206.327666 174.497248 
L 207.958019 180 
" clip-path="url(#pefa312fee4)" style="fill: none; stroke-dasharray: 1.5,2.475; stroke-dashoffset: 0; stroke: #ff0000; stroke-width: 1.5"/>
   </g>
   <g id="patch_3">
    <path d="M 38.482813 187.2 
L 38.482813 28.8 
" style="fill: none; stroke: #000000; stroke-width: 0.8; stroke-linejoin: miter; stroke-linecap: square"/>
   </g>
   <g id="patch_4">
    <path d="M 216.028267 187.2 
L 216.028267 28.8 
" style="fill: none; stroke: #000000; stroke-width: 0.8; stroke-linejoin: miter; stroke-linecap: square"/>
   </g>
   <g id="patch_5">
    <path d="M 38.482813 187.2 
L 216.028267 187.2 
" style="fill: none; stroke: #000000; stroke-width: 0.8; stroke-linejoin: miter; stroke-linecap: square"/>
   </g>
   <g id="patch_6">
    <path d="M 38.482813 28.8 
L 216.028267 28.8 
" style="fill: none; stroke: #000000; stroke-width: 0.8; stroke-linejoin: miter; stroke-linecap: square"/>
   </g>
  </g>
  <g id="axes_2">
   <g id="patch_7">
    <path d="M 251.537358 187.2 
L 429.082812 187.2 
L 429.082812 28.8 
L 251.537358 28.8 
z
" style="fill: #ffffff"/>
   </g>
   <g id="matplotlib.axis_2">
    <g id="ytick_4">
     <g id="line2d_6">
      <g>
       <use xlink:href="#ma200f5ee0f" x="251.537358" y="185.025878" style="stroke: #000000; stroke-width: 0.8"/>
      </g>
     </g>
     <g id="text_4">
      <!-- −1.0 -->
      <g transform="translate(220.254545 188.825096) scale(0.1 -0.1)">
       <defs>
        <path id="DejaVuSans-2212" d="M 678 2272 
L 4684 2272 
L 4684 1741 
L 678 1741 
L 678 2272 
z
" transform="scale(0.015625)"/>
       </defs>
       <use xlink:href="#DejaVuSans-2212"/>
       <use xlink:href="#DejaVuSans-31" transform="translate(83.789062 0)"/>
       <use xlink:href="#DejaVuSans-2e" transform="translate(147.412109 0)"/>
       <use xlink:href="#DejaVuSans-30" transform="translate(179.199219 0)"/>
      </g>
     </g>
    </g>
    <g id="ytick_5">
     <g id="line2d_7">
      <g>
       <use xlink:href="#ma200f5ee0f" x="251.537358" y="110.512939" style="stroke: #000000; stroke-width: 0.8"/>
      </g>
     </g>
     <g id="text_5">
      <!-- 0.0 -->
      <g transform="translate(228.634233 114.312158) scale(0.1 -0.1)">
       <use xlink:href="#DejaVuSans-30"/>
       <use xlink:href="#DejaVuSans-2e" transform="translate(63.623047 0)"/>
       <use xlink:href="#DejaVuSans-30" transform="translate(95.410156 0)"/>
      </g>
     </g>
    </g>
    <g id="ytick_6">
     <g id="line2d_8">
      <g>
       <use xlink:href="#ma200f5ee0f" x="251.537358" y="36" style="stroke: #000000; stroke-width: 0.8"/>
      </g>
     </g>
     <g id="text_6">
      <!-- 1.0 -->
      <g transform="translate(228.634233 39.799219) scale(0.1 -0.1)">
       <use xlink:href="#DejaVuSans-31"/>
       <use xlink:href="#DejaVuSans-2e" transform="translate(63.623047 0)"/>
       <use xlink:href="#DejaVuSans-30" transform="translate(95.410156 0)"/>
      </g>
     </g>
    </g>
   </g>
   <g id="line2d_9">
    <path d="M 259.607606 110.512939 
L 261.237959 110.267751 
L 262.868312 109.556099 
L 264.498665 108.413838 
L 266.129018 106.876798 
L 267.759371 104.980755 
L 269.389725 102.761385 
L 271.020078 100.254222 
L 272.650431 97.494595 
L 274.280784 94.517566 
L 275.911137 91.357859 
L 277.54149 88.04978 
L 279.171843 84.627137 
L 280.802196 81.123154 
L 282.43255 77.570381 
L 284.062903 74.000605 
L 285.693256 70.444757 
L 287.323609 66.932818 
L 288.953962 63.493729 
L 290.584315 60.155297 
L 292.214668 56.944109 
L 293.845021 53.885444 
L 295.475374 51.003188 
L 297.105728 48.319758 
L 298.736081 45.856023 
L 300.366434 43.631239 
L 301.996787 41.662981 
L 303.62714 39.967086 
L 305.257493 38.557607 
L 306.887846 37.44676 
L 308.518199 36.644895 
L 310.148553 36.160464 
L 311.778906 36 
L 313.409259 36.168106 
L 315.039612 36.667448 
L 316.669965 37.498764 
L 318.300318 38.660873 
L 319.930671 40.150697 
L 321.561024 41.963293 
L 323.191377 44.091891 
L 324.821731 46.52794 
L 326.452084 49.261164 
L 328.082437 52.279628 
L 329.71279 55.569802 
L 331.343143 59.116648 
L 332.973496 62.903698 
L 334.603849 66.913151 
L 336.234202 71.125969 
L 337.864556 75.521982 
L 339.494909 80.079998 
L 341.125262 84.777914 
L 342.755615 89.59284 
L 344.385968 94.501214 
L 346.016321 99.478933 
L 347.646674 104.501479 
L 349.277027 109.544045 
L 350.90738 114.581669 
L 352.537734 119.589365 
L 354.168087 124.54225 
L 355.79844 129.415678 
L 357.428793 134.185369 
L 359.059146 138.827531 
L 360.689499 143.318988 
L 362.319852 147.637298 
L 363.950205 151.760874 
L 365.580559 155.66909 
L 367.210912 159.342391 
L 368.841265 162.762396 
L 370.471618 165.911992 
L 372.101971 168.775422 
L 373.732324 171.338367 
L 375.362677 173.588022 
L 376.99303 175.513161 
L 378.623383 177.104195 
L 380.253737 178.353225 
L 381.88409 179.254079 
L 383.514443 179.802347 
L 385.144796 179.995405 
L 386.775149 179.832428 
L 388.405502 179.314394 
L 390.035855 178.444082 
L 391.666208 177.226058 
L 393.296562 175.666651 
L 394.926915 173.773922 
L 396.557268 171.557625 
L 398.187621 169.029157 
L 399.817974 166.201498 
L 401.448327 163.08915 
L 403.07868 159.708058 
L 404.709033 156.075536 
L 406.339387 152.210173 
L 407.96974 148.131741 
L 409.600093 143.861096 
L 411.230446 139.42007 
L 412.860799 134.831361 
L 414.491152 130.118418 
L 416.121505 125.305322 
L 417.751858 120.416661 
L 419.382211 115.477409 
L 421.012565 110.512797 
" clip-path="url(#p8e2abafc59)" style="fill: none; stroke: #0000ff; stroke-width: 1.5; stroke-linecap: square"/>
   </g>
   <g id="line2d_10">
    <path d="M 259.607606 110.512939 
L 261.237959 110.267563 
L 262.868312 109.55556 
L 264.498665 108.413005 
L 266.129018 106.875841 
L 267.759371 104.979879 
L 269.389725 102.760785 
L 271.020078 100.254046 
L 272.650431 97.494932 
L 274.280784 94.51844 
L 275.911137 91.359232 
L 277.54149 88.051562 
L 279.171843 84.6292 
L 280.802196 81.125344 
L 282.43255 77.572533 
L 284.062903 74.002558 
L 285.693256 70.446363 
L 287.323609 66.933954 
L 288.953962 63.494303 
L 290.584315 60.155255 
L 292.214668 56.943436 
L 293.845021 53.884162 
L 295.475374 51.001357 
L 297.105728 48.317471 
L 298.736081 45.8534 
L 300.366434 43.62842 
L 301.996787 41.66012 
L 303.62714 39.964346 
L 305.257493 38.555147 
L 306.887846 37.444732 
L 308.518199 36.643435 
L 310.148553 36.159689 
L 311.778906 36 
L 313.409259 36.168943 
L 315.039612 36.669155 
L 316.669965 37.50134 
L 318.300318 38.664285 
L 319.930671 40.154883 
L 321.561024 41.968163 
L 323.191377 44.097332 
L 324.821731 46.53382 
L 326.452084 49.267337 
L 328.082437 52.285938 
L 329.71279 55.576092 
L 331.343143 59.122763 
L 332.973496 62.909492 
L 334.603849 66.918494 
L 336.234202 71.130749 
L 337.864556 75.52611 
L 339.494909 80.083411 
L 341.125262 84.780579 
L 342.755615 89.594752 
L 344.385968 94.5024 
L 346.016321 99.479448 
L 347.646674 104.501402 
L 349.277027 109.543482 
L 350.90738 114.580745 
L 352.537734 119.588218 
L 354.168087 124.541029 
L 355.79844 129.414536 
L 357.428793 134.184454 
L 359.059146 138.826984 
L 360.689499 143.318935 
L 362.319852 147.637847 
L 363.950205 151.762106 
L 365.580559 155.671058 
L 367.210912 159.345117 
L 368.841265 162.765869 
L 370.471618 165.916167 
L 372.101971 168.780222 
L 373.732324 171.343685 
L 375.362677 173.593727 
L 376.99303 175.519099 
L 378.623383 177.1102 
L 380.253737 178.359123 
L 381.88409 179.259698 
L 383.514443 179.807526 
L 385.144796 180 
L 386.775149 179.836321 
L 388.405502 179.317501 
L 390.035855 178.44636 
L 391.666208 177.227504 
L 393.296562 175.667309 
L 394.926915 173.77388 
L 396.557268 171.557012 
L 398.187621 169.028133 
L 399.817974 166.200248 
L 401.448327 163.087868 
L 403.07868 159.706934 
L 404.709033 156.074736 
L 406.339387 152.209823 
L 407.96974 148.13191 
L 409.600093 143.861781 
L 411.230446 139.421191 
L 412.860799 134.832762 
L 414.491152 130.119881 
L 416.121505 125.306604 
L 417.751858 120.417555 
L 419.382211 115.477836 
L 421.012565 110.512939 
" clip-path="url(#p8e2abafc59)" style="fill: none; stroke-dasharray: 1.5,2.475; stroke-dashoffset: 0; stroke: #ff0000; stroke-width: 1.5"/>
   </g>
   <g id="patch_8">
    <path d="M 251.537358 187.2 
L 251.537358 28.8 
" style="fill: none; stroke: #000000; stroke-width: 0.8; stroke-linejoin: miter; stroke-linecap: square"/>
   </g>
   <g id="patch_9">
    <path d="M 429.082812 187.2 
L 429.082812 28.8 
" style="fill: none; stroke: #000000; stroke-width: 0.8; stroke-linejoin: miter; stroke-linecap: square"/>
   </g>
   <g id="patch_10">
    <path d="M 251.537358 187.2 
L 429.082812 187.2 
" style="fill: none; stroke: #000000; stroke-width: 0.8; stroke-linejoin: miter; stroke-linecap: square"/>
   </g>
   <g id="patch_11">
    <path d="M 251.537358 28.8 
L 429.082812 28.8 
" style="fill: none; stroke: #000000; stroke-width: 0.8; stroke-linejoin: miter; stroke-linecap: square"/>
   </g>
   <g id="legend_1">
    <g id="patch_12">
     <path d="M 258.537358 182.2 
L 350.756108 182.2 
Q 352.756108 182.2 352.756108 180.2 
L 352.756108 151.84375 
Q 352.756108 149.84375 350.756108 149.84375 
L 258.537358 149.84375 
Q 256.537358 149.84375 256.537358 151.84375 
L 256.537358 180.2 
Q 256.537358 182.2 258.537358 182.2 
z
" style="fill: #ffffff; opacity: 0.8; stroke: #cccccc; stroke-linejoin: miter"/>
    </g>
    <g id="line2d_11">
     <path d="M 260.537358 157.942187 
L 270.537358 157.942187 
L 280.537358 157.942187 
" style="fill: none; stroke: #0000ff; stroke-width: 1.5; stroke-linecap: square"/>
    </g>
    <g id="text_7">
     <!-- analytical -->
     <g transform="translate(288.537358 161.442187) scale(0.1 -0.1)">
      <defs>
       <path id="DejaVuSans-61" d="M 2194 1759 
Q 1497 1759 1228 1600 
Q 959 1441 959 1056 
Q 959 750 1161 570 
Q 1363 391 1709 391 
Q 2188 391 2477 730 
Q 2766 1069 2766 1631 
L 2766 1759 
L 2194 1759 
z
M 3341 1997 
L 3341 0 
L 2766 0 
L 2766 531 
Q 2569 213 2275 61 
Q 1981 -91 1556 -91 
Q 1019 -91 701 211 
Q 384 513 384 1019 
Q 384 1609 779 1909 
Q 1175 2209 1959 2209 
L 2766 2209 
L 2766 2266 
Q 2766 2663 2505 2880 
Q 2244 3097 1772 3097 
Q 1472 3097 1187 3025 
Q 903 2953 641 2809 
L 641 3341 
Q 956 3463 1253 3523 
Q 1550 3584 1831 3584 
Q 2591 3584 2966 3190 
Q 3341 2797 3341 1997 
z
" transform="scale(0.015625)"/>
       <path id="DejaVuSans-6e" d="M 3513 2113 
L 3513 0 
L 2938 0 
L 2938 2094 
Q 2938 2591 2744 2837 
Q 2550 3084 2163 3084 
Q 1697 3084 1428 2787 
Q 1159 2491 1159 1978 
L 1159 0 
L 581 0 
L 581 3500 
L 1159 3500 
L 1159 2956 
Q 1366 3272 1645 3428 
Q 1925 3584 2291 3584 
Q 2894 3584 3203 3211 
Q 3513 2838 3513 2113 
z
" transform="scale(0.015625)"/>
       <path id="DejaVuSans-6c" d="M 603 4863 
L 1178 4863 
L 1178 0 
L 603 0 
L 603 4863 
z
" transform="scale(0.015625)"/>
       <path id="DejaVuSans-79" d="M 2059 -325 
Q 1816 -950 1584 -1140 
Q 1353 -1331 966 -1331 
L 506 -1331 
L 506 -850 
L 844 -850 
Q 1081 -850 1212 -737 
Q 1344 -625 1503 -206 
L 1606 56 
L 191 3500 
L 800 3500 
L 1894 763 
L 2988 3500 
L 3597 3500 
L 2059 -325 
z
" transform="scale(0.015625)"/>
       <path id="DejaVuSans-74" d="M 1172 4494 
L 1172 3500 
L 2356 3500 
L 2356 3053 
L 1172 3053 
L 1172 1153 
Q 1172 725 1289 603 
Q 1406 481 1766 481 
L 2356 481 
L 2356 0 
L 1766 0 
Q 1100 0 847 248 
Q 594 497 594 1153 
L 594 3053 
L 172 3053 
L 172 3500 
L 594 3500 
L 594 4494 
L 1172 4494 
z
" transform="scale(0.015625)"/>
       <path id="DejaVuSans-69" d="M 603 3500 
L 1178 3500 
L 1178 0 
L 603 0 
L 603 3500 
z
M 603 4863 
L 1178 4863 
L 1178 4134 
L 603 4134 
L 603 4863 
z
" transform="scale(0.015625)"/>
       <path id="DejaVuSans-63" d="M 3122 3366 
L 3122 2828 
Q 2878 2963 2633 3030 
Q 2388 3097 2138 3097 
Q 1578 3097 1268 2742 
Q 959 2388 959 1747 
Q 959 1106 1268 751 
Q 1578 397 2138 397 
Q 2388 397 2633 464 
Q 2878 531 3122 666 
L 3122 134 
Q 2881 22 2623 -34 
Q 2366 -91 2075 -91 
Q 1284 -91 818 406 
Q 353 903 353 1747 
Q 353 2603 823 3093 
Q 1294 3584 2113 3584 
Q 2378 3584 2631 3529 
Q 2884 3475 3122 3366 
z
" transform="scale(0.015625)"/>
      </defs>
      <use xlink:href="#DejaVuSans-61"/>
      <use xlink:href="#DejaVuSans-6e" transform="translate(61.279297 0)"/>
      <use xlink:href="#DejaVuSans-61" transform="translate(124.658203 0)"/>
      <use xlink:href="#DejaVuSans-6c" transform="translate(185.9375 0)"/>
      <use xlink:href="#DejaVuSans-79" transform="translate(213.720703 0)"/>
      <use xlink:href="#DejaVuSans-74" transform="translate(272.900391 0)"/>
      <use xlink:href="#DejaVuSans-69" transform="translate(312.109375 0)"/>
      <use xlink:href="#DejaVuSans-63" transform="translate(339.892578 0)"/>
      <use xlink:href="#DejaVuSans-61" transform="translate(394.873047 0)"/>
      <use xlink:href="#DejaVuSans-6c" transform="translate(456.152344 0)"/>
     </g>
    </g>
    <g id="line2d_12">
     <path d="M 260.537358 172.620312 
L 270.537358 172.620312 
L 280.537358 172.620312 
" style="fill: none; stroke-dasharray: 1.5,2.475; stroke-dashoffset: 0; stroke: #ff0000; stroke-width: 1.5"/>
    </g>
    <g id="text_8">
     <!-- rayleigh-ritz -->
     <g transform="translate(288.537358 176.120312) scale(0.1 -0.1)">
      <defs>
       <path id="DejaVuSans-72" d="M 2631 2963 
Q 2534 3019 2420 3045 
Q 2306 3072 2169 3072 
Q 1681 3072 1420 2755 
Q 1159 2438 1159 1844 
L 1159 0 
L 581 0 
L 581 3500 
L 1159 3500 
L 1159 2956 
Q 1341 3275 1631 3429 
Q 1922 3584 2338 3584 
Q 2397 3584 2469 3576 
Q 2541 3569 2628 3553 
L 2631 2963 
z
" transform="scale(0.015625)"/>
       <path id="DejaVuSans-65" d="M 3597 1894 
L 3597 1613 
L 953 1613 
Q 991 1019 1311 708 
Q 1631 397 2203 397 
Q 2534 397 2845 478 
Q 3156 559 3463 722 
L 3463 178 
Q 3153 47 2828 -22 
Q 2503 -91 2169 -91 
Q 1331 -91 842 396 
Q 353 884 353 1716 
Q 353 2575 817 3079 
Q 1281 3584 2069 3584 
Q 2775 3584 3186 3129 
Q 3597 2675 3597 1894 
z
M 3022 2063 
Q 3016 2534 2758 2815 
Q 2500 3097 2075 3097 
Q 1594 3097 1305 2825 
Q 1016 2553 972 2059 
L 3022 2063 
z
" transform="scale(0.015625)"/>
       <path id="DejaVuSans-67" d="M 2906 1791 
Q 2906 2416 2648 2759 
Q 2391 3103 1925 3103 
Q 1463 3103 1205 2759 
Q 947 2416 947 1791 
Q 947 1169 1205 825 
Q 1463 481 1925 481 
Q 2391 481 2648 825 
Q 2906 1169 2906 1791 
z
M 3481 434 
Q 3481 -459 3084 -895 
Q 2688 -1331 1869 -1331 
Q 1566 -1331 1297 -1286 
Q 1028 -1241 775 -1147 
L 775 -588 
Q 1028 -725 1275 -790 
Q 1522 -856 1778 -856 
Q 2344 -856 2625 -561 
Q 2906 -266 2906 331 
L 2906 616 
Q 2728 306 2450 153 
Q 2172 0 1784 0 
Q 1141 0 747 490 
Q 353 981 353 1791 
Q 353 2603 747 3093 
Q 1141 3584 1784 3584 
Q 2172 3584 2450 3431 
Q 2728 3278 2906 2969 
L 2906 3500 
L 3481 3500 
L 3481 434 
z
" transform="scale(0.015625)"/>
       <path id="DejaVuSans-68" d="M 3513 2113 
L 3513 0 
L 2938 0 
L 2938 2094 
Q 2938 2591 2744 2837 
Q 2550 3084 2163 3084 
Q 1697 3084 1428 2787 
Q 1159 2491 1159 1978 
L 1159 0 
L 581 0 
L 581 4863 
L 1159 4863 
L 1159 2956 
Q 1366 3272 1645 3428 
Q 1925 3584 2291 3584 
Q 2894 3584 3203 3211 
Q 3513 2838 3513 2113 
z
" transform="scale(0.015625)"/>
       <path id="DejaVuSans-2d" d="M 313 2009 
L 1997 2009 
L 1997 1497 
L 313 1497 
L 313 2009 
z
" transform="scale(0.015625)"/>
       <path id="DejaVuSans-7a" d="M 353 3500 
L 3084 3500 
L 3084 2975 
L 922 459 
L 3084 459 
L 3084 0 
L 275 0 
L 275 525 
L 2438 3041 
L 353 3041 
L 353 3500 
z
" transform="scale(0.015625)"/>
      </defs>
      <use xlink:href="#DejaVuSans-72"/>
      <use xlink:href="#DejaVuSans-61" transform="translate(41.113281 0)"/>
      <use xlink:href="#DejaVuSans-79" transform="translate(102.392578 0)"/>
      <use xlink:href="#DejaVuSans-6c" transform="translate(161.572266 0)"/>
      <use xlink:href="#DejaVuSans-65" transform="translate(189.355469 0)"/>
      <use xlink:href="#DejaVuSans-69" transform="translate(250.878906 0)"/>
      <use xlink:href="#DejaVuSans-67" transform="translate(278.662109 0)"/>
      <use xlink:href="#DejaVuSans-68" transform="translate(342.138672 0)"/>
      <use xlink:href="#DejaVuSans-2d" transform="translate(405.517578 0)"/>
      <use xlink:href="#DejaVuSans-72" transform="translate(441.601562 0)"/>
      <use xlink:href="#DejaVuSans-69" transform="translate(482.714844 0)"/>
      <use xlink:href="#DejaVuSans-74" transform="translate(510.498047 0)"/>
      <use xlink:href="#DejaVuSans-7a" transform="translate(549.707031 0)"/>
     </g>
    </g>
   </g>
  </g>
  <g id="axes_3">
   <g id="patch_13">
    <path d="M 38.482813 361.44 
L 216.028267 361.44 
L 216.028267 203.04 
L 38.482813 203.04 
z
" style="fill: #ffffff"/>
   </g>
   <g id="matplotlib.axis_3">
    <g id="xtick_1">
     <g id="line2d_13">
      <defs>
       <path id="mc433c46566" d="M 0 0 
L 0 3.5 
" style="stroke: #000000; stroke-width: 0.8"/>
      </defs>
      <g>
       <use xlink:href="#mc433c46566" x="46.55306" y="361.44" style="stroke: #000000; stroke-width: 0.8"/>
      </g>
     </g>
     <g id="text_9">
      <!-- 0.0 -->
      <g transform="translate(38.601498 376.038437) scale(0.1 -0.1)">
       <use xlink:href="#DejaVuSans-30"/>
       <use xlink:href="#DejaVuSans-2e" transform="translate(63.623047 0)"/>
       <use xlink:href="#DejaVuSans-30" transform="translate(95.410156 0)"/>
      </g>
     </g>
    </g>
    <g id="xtick_2">
     <g id="line2d_14">
      <g>
       <use xlink:href="#mc433c46566" x="127.25554" y="361.44" style="stroke: #000000; stroke-width: 0.8"/>
      </g>
     </g>
     <g id="text_10">
      <!-- 0.5 -->
      <g transform="translate(119.303977 376.038437) scale(0.1 -0.1)">
       <use xlink:href="#DejaVuSans-30"/>
       <use xlink:href="#DejaVuSans-2e" transform="translate(63.623047 0)"/>
       <use xlink:href="#DejaVuSans-35" transform="translate(95.410156 0)"/>
      </g>
     </g>
    </g>
    <g id="xtick_3">
     <g id="line2d_15">
      <g>
       <use xlink:href="#mc433c46566" x="207.958019" y="361.44" style="stroke: #000000; stroke-width: 0.8"/>
      </g>
     </g>
     <g id="text_11">
      <!-- 1.0 -->
      <g transform="translate(200.006457 376.038437) scale(0.1 -0.1)">
       <use xlink:href="#DejaVuSans-31"/>
       <use xlink:href="#DejaVuSans-2e" transform="translate(63.623047 0)"/>
       <use xlink:href="#DejaVuSans-30" transform="translate(95.410156 0)"/>
      </g>
     </g>
    </g>
    <g id="text_12">
     <!-- $\bar{x}$ -->
     <g transform="translate(124.25554 389.716562) scale(0.1 -0.1)">
      <defs>
       <path id="DejaVuSans-304" d="M -2522 4769 
L -653 4769 
L -653 4306 
L -2522 4306 
L -2522 4769 
z
" transform="scale(0.015625)"/>
       <path id="DejaVuSans-Oblique-78" d="M 3841 3500 
L 2234 1784 
L 3219 0 
L 2559 0 
L 1819 1388 
L 531 0 
L -166 0 
L 1556 1844 
L 641 3500 
L 1300 3500 
L 1972 2234 
L 3144 3500 
L 3841 3500 
z
" transform="scale(0.015625)"/>
      </defs>
      <use xlink:href="#DejaVuSans-304" transform="translate(62.201172 0.484375)"/>
      <use xlink:href="#DejaVuSans-Oblique-78" transform="translate(0 0.578125)"/>
     </g>
    </g>
   </g>
   <g id="matplotlib.axis_4">
    <g id="ytick_7">
     <g id="line2d_16">
      <g>
       <use xlink:href="#ma200f5ee0f" x="38.482813" y="359.315875" style="stroke: #000000; stroke-width: 0.8"/>
      </g>
     </g>
     <g id="text_13">
      <!-- −1.0 -->
      <g transform="translate(7.2 363.115094) scale(0.1 -0.1)">
       <use xlink:href="#DejaVuSans-2212"/>
       <use xlink:href="#DejaVuSans-31" transform="translate(83.789062 0)"/>
       <use xlink:href="#DejaVuSans-2e" transform="translate(147.412109 0)"/>
       <use xlink:href="#DejaVuSans-30" transform="translate(179.199219 0)"/>
      </g>
     </g>
    </g>
    <g id="ytick_8">
     <g id="line2d_17">
      <g>
       <use xlink:href="#ma200f5ee0f" x="38.482813" y="284.777938" style="stroke: #000000; stroke-width: 0.8"/>
      </g>
     </g>
     <g id="text_14">
      <!-- 0.0 -->
      <g transform="translate(15.579688 288.577156) scale(0.1 -0.1)">
       <use xlink:href="#DejaVuSans-30"/>
       <use xlink:href="#DejaVuSans-2e" transform="translate(63.623047 0)"/>
       <use xlink:href="#DejaVuSans-30" transform="translate(95.410156 0)"/>
      </g>
     </g>
    </g>
    <g id="ytick_9">
     <g id="line2d_18">
      <g>
       <use xlink:href="#ma200f5ee0f" x="38.482813" y="210.24" style="stroke: #000000; stroke-width: 0.8"/>
      </g>
     </g>
     <g id="text_15">
      <!-- 1.0 -->
      <g transform="translate(15.579688 214.039219) scale(0.1 -0.1)">
       <use xlink:href="#DejaVuSans-31"/>
       <use xlink:href="#DejaVuSans-2e" transform="translate(63.623047 0)"/>
       <use xlink:href="#DejaVuSans-30" transform="translate(95.410156 0)"/>
      </g>
     </g>
    </g>
   </g>
   <g id="line2d_19">
    <path d="M 46.55306 284.777938 
L 48.183414 284.271698 
L 49.813767 282.825063 
L 51.44412 280.546083 
L 53.074473 277.542577 
L 54.704826 273.921867 
L 56.335179 269.790448 
L 57.965532 265.253575 
L 59.595885 260.414801 
L 61.226238 255.375463 
L 62.856592 250.234141 
L 64.486945 245.086084 
L 66.117298 240.022632 
L 67.747651 235.130639 
L 69.378004 230.491898 
L 71.008357 226.182588 
L 72.63871 222.272755 
L 74.269063 218.825822 
L 75.899417 215.89815 
L 77.52977 213.538648 
L 79.160123 211.788444 
L 80.790476 210.680617 
L 82.420829 210.24 
L 84.051182 210.483057 
L 85.681535 211.417832 
L 87.311888 213.043975 
L 88.942242 215.352852 
L 90.572595 218.327725 
L 92.202948 221.944014 
L 93.833301 226.169634 
L 95.463654 230.965403 
L 97.094007 236.285519 
L 98.72436 242.078101 
L 100.354713 248.285791 
L 101.985066 254.84641 
L 103.61542 261.693655 
L 105.245773 268.757842 
L 106.876126 275.966681 
L 108.506479 283.246072 
L 110.136832 290.520919 
L 111.767185 297.715952 
L 113.397538 304.75655 
L 115.027891 311.569553 
L 116.658245 318.084057 
L 118.288598 324.232182 
L 119.918951 329.949812 
L 121.549304 335.177283 
L 123.179657 339.860035 
L 124.81001 343.949198 
L 126.440363 347.402124 
L 128.070716 350.182844 
L 129.701069 352.262466 
L 131.331423 353.61948 
L 132.961776 354.24 
L 134.592129 354.117913 
L 136.222482 353.25495 
L 137.852835 351.660675 
L 139.483188 349.352383 
L 141.113541 346.354923 
L 142.743894 342.700437 
L 144.374248 338.42802 
L 146.004601 333.58331 
L 147.634954 328.218002 
L 149.265307 322.389303 
L 150.89566 316.159328 
L 152.526013 309.594437 
L 154.156366 302.764535 
L 155.786719 295.742328 
L 157.417072 288.602558 
L 159.047426 281.421199 
L 160.677779 274.27466 
L 162.308132 267.238973 
L 163.938485 260.388979 
L 165.568838 253.797543 
L 167.199191 247.534772 
L 168.829544 241.667276 
L 170.459897 236.25746 
L 172.090251 231.362857 
L 173.720604 227.035524 
L 175.350957 223.321483 
L 176.98131 220.260238 
L 178.611663 217.884349 
L 180.242016 216.219092 
L 181.872369 215.282188 
L 183.502722 215.083614 
L 185.133075 215.625502 
L 186.763429 216.90211 
L 188.393782 218.899888 
L 190.024135 221.59762 
L 191.654488 224.966649 
L 193.284841 228.971186 
L 194.915194 233.568683 
L 196.545547 238.710294 
L 198.1759 244.341387 
L 199.806254 250.402128 
L 201.436607 256.828116 
L 203.06696 263.551069 
L 204.697313 270.499548 
L 206.327666 277.599716 
L 207.958019 284.776124 
" clip-path="url(#pb8643b0195)" style="fill: none; stroke: #0000ff; stroke-width: 1.5; stroke-linecap: square"/>
   </g>
   <g id="line2d_20">
    <path d="M 46.55306 284.777938 
L 48.183414 284.266733 
L 49.813767 282.811958 
L 51.44412 280.528186 
L 53.074473 277.526105 
L 54.704826 273.913466 
L 56.335179 269.79568 
L 57.965532 265.27612 
L 59.595885 260.456168 
L 61.226238 255.435065 
L 62.856592 250.309599 
L 64.486945 245.173671 
L 66.117298 240.117769 
L 67.747651 235.22839 
L 69.378004 230.58742 
L 71.008357 226.271517 
L 72.63871 222.351497 
L 74.269063 218.89176 
L 75.899417 215.949752 
L 77.52977 213.575492 
L 79.160123 211.811166 
L 80.790476 210.690797 
L 82.420829 210.24 
L 84.051182 210.475819 
L 85.681535 211.406663 
L 87.311888 213.032324 
L 88.942242 215.34409 
L 90.572595 218.324947 
L 92.202948 221.949865 
L 93.833301 226.186167 
L 95.463654 230.993973 
L 97.094007 236.32672 
L 98.72436 242.131742 
L 100.354713 248.350909 
L 101.985066 254.92132 
L 103.61542 261.776036 
L 105.245773 268.844847 
L 106.876126 276.055069 
L 108.506479 283.332354 
L 110.136832 290.601513 
L 111.767185 297.787343 
L 113.397538 304.815438 
L 115.027891 311.612996 
L 116.658245 318.109595 
L 118.288598 324.237944 
L 119.918951 329.934592 
L 121.549304 335.140598 
L 123.179657 339.802145 
L 124.81001 343.871107 
L 126.440363 347.305545 
L 128.070716 350.070144 
L 129.701069 352.136582 
L 131.331423 353.483818 
L 132.961776 354.098315 
L 134.592129 353.974179 
L 136.222482 353.113224 
L 137.852835 351.524955 
L 139.483188 349.226475 
L 141.113541 346.242315 
L 142.743894 342.604182 
L 144.374248 338.350641 
L 146.004601 333.526726 
L 147.634954 328.183474 
L 149.265307 322.377408 
L 150.89566 316.169958 
L 152.526013 309.626826 
L 154.156366 302.817309 
L 155.786719 295.813582 
L 157.417072 288.689942 
L 159.047426 281.522038 
L 160.677779 274.386069 
L 162.308132 267.357984 
L 163.938485 260.51267 
L 165.568838 253.92316 
L 167.199191 247.659842 
L 168.829544 241.7897 
L 170.459897 236.375585 
L 172.090251 231.475528 
L 173.720604 227.142101 
L 175.350957 223.421831 
L 176.98131 220.354682 
L 178.611663 217.973609 
L 180.242016 216.30418 
L 181.872369 215.364294 
L 183.502722 215.163969 
L 185.133075 215.705237 
L 186.763429 216.982119 
L 188.393782 218.980701 
L 190.024135 221.679305 
L 191.654488 225.048746 
L 193.284841 229.052686 
L 194.915194 233.648066 
L 196.545547 238.785622 
L 198.1759 244.410465 
L 199.806254 250.462716 
L 201.436607 256.878196 
L 203.06696 263.589129 
L 204.697313 270.524862 
L 206.327666 277.612574 
L 207.958019 284.777938 
" clip-path="url(#pb8643b0195)" style="fill: none; stroke-dasharray: 1.5,2.475; stroke-dashoffset: 0; stroke: #ff0000; stroke-width: 1.5"/>
   </g>
   <g id="patch_14">
    <path d="M 38.482813 361.44 
L 38.482813 203.04 
" style="fill: none; stroke: #000000; stroke-width: 0.8; stroke-linejoin: miter; stroke-linecap: square"/>
   </g>
   <g id="patch_15">
    <path d="M 216.028267 361.44 
L 216.028267 203.04 
" style="fill: none; stroke: #000000; stroke-width: 0.8; stroke-linejoin: miter; stroke-linecap: square"/>
   </g>
   <g id="patch_16">
    <path d="M 38.482813 361.44 
L 216.028267 361.44 
" style="fill: none; stroke: #000000; stroke-width: 0.8; stroke-linejoin: miter; stroke-linecap: square"/>
   </g>
   <g id="patch_17">
    <path d="M 38.482813 203.04 
L 216.028267 203.04 
" style="fill: none; stroke: #000000; stroke-width: 0.8; stroke-linejoin: miter; stroke-linecap: square"/>
   </g>
  </g>
  <g id="axes_4">
   <g id="patch_18">
    <path d="M 251.537358 361.44 
L 429.082812 361.44 
L 429.082812 203.04 
L 251.537358 203.04 
z
" style="fill: #ffffff"/>
   </g>
   <g id="matplotlib.axis_5">
    <g id="xtick_4">
     <g id="line2d_21">
      <g>
       <use xlink:href="#mc433c46566" x="259.607606" y="361.44" style="stroke: #000000; stroke-width: 0.8"/>
      </g>
     </g>
     <g id="text_16">
      <!-- 0.0 -->
      <g transform="translate(251.656043 376.038437) scale(0.1 -0.1)">
       <use xlink:href="#DejaVuSans-30"/>
       <use xlink:href="#DejaVuSans-2e" transform="translate(63.623047 0)"/>
       <use xlink:href="#DejaVuSans-30" transform="translate(95.410156 0)"/>
      </g>
     </g>
    </g>
    <g id="xtick_5">
     <g id="line2d_22">
      <g>
       <use xlink:href="#mc433c46566" x="340.310085" y="361.44" style="stroke: #000000; stroke-width: 0.8"/>
      </g>
     </g>
     <g id="text_17">
      <!-- 0.5 -->
      <g transform="translate(332.358523 376.038437) scale(0.1 -0.1)">
       <use xlink:href="#DejaVuSans-30"/>
       <use xlink:href="#DejaVuSans-2e" transform="translate(63.623047 0)"/>
       <use xlink:href="#DejaVuSans-35" transform="translate(95.410156 0)"/>
      </g>
     </g>
    </g>
    <g id="xtick_6">
     <g id="line2d_23">
      <g>
       <use xlink:href="#mc433c46566" x="421.012565" y="361.44" style="stroke: #000000; stroke-width: 0.8"/>
      </g>
     </g>
     <g id="text_18">
      <!-- 1.0 -->
      <g transform="translate(413.061002 376.038437) scale(0.1 -0.1)">
       <use xlink:href="#DejaVuSans-31"/>
       <use xlink:href="#DejaVuSans-2e" transform="translate(63.623047 0)"/>
       <use xlink:href="#DejaVuSans-30" transform="translate(95.410156 0)"/>
      </g>
     </g>
    </g>
    <g id="text_19">
     <!-- $\bar{x}$ -->
     <g transform="translate(337.310085 389.716562) scale(0.1 -0.1)">
      <use xlink:href="#DejaVuSans-304" transform="translate(62.201172 0.484375)"/>
      <use xlink:href="#DejaVuSans-Oblique-78" transform="translate(0 0.578125)"/>
     </g>
    </g>
   </g>
   <g id="matplotlib.axis_6">
    <g id="ytick_10">
     <g id="line2d_24">
      <g>
       <use xlink:href="#ma200f5ee0f" x="251.537358" y="358.052582" style="stroke: #000000; stroke-width: 0.8"/>
      </g>
     </g>
     <g id="text_20">
      <!-- −1.0 -->
      <g transform="translate(220.254545 361.851801) scale(0.1 -0.1)">
       <use xlink:href="#DejaVuSans-2212"/>
       <use xlink:href="#DejaVuSans-31" transform="translate(83.789062 0)"/>
       <use xlink:href="#DejaVuSans-2e" transform="translate(147.412109 0)"/>
       <use xlink:href="#DejaVuSans-30" transform="translate(179.199219 0)"/>
      </g>
     </g>
    </g>
    <g id="ytick_11">
     <g id="line2d_25">
      <g>
       <use xlink:href="#ma200f5ee0f" x="251.537358" y="284.146291" style="stroke: #000000; stroke-width: 0.8"/>
      </g>
     </g>
     <g id="text_21">
      <!-- 0.0 -->
      <g transform="translate(228.634233 287.94551) scale(0.1 -0.1)">
       <use xlink:href="#DejaVuSans-30"/>
       <use xlink:href="#DejaVuSans-2e" transform="translate(63.623047 0)"/>
       <use xlink:href="#DejaVuSans-30" transform="translate(95.410156 0)"/>
      </g>
     </g>
    </g>
    <g id="ytick_12">
     <g id="line2d_26">
      <g>
       <use xlink:href="#ma200f5ee0f" x="251.537358" y="210.24" style="stroke: #000000; stroke-width: 0.8"/>
      </g>
     </g>
     <g id="text_22">
      <!-- 1.0 -->
      <g transform="translate(228.634233 214.039219) scale(0.1 -0.1)">
       <use xlink:href="#DejaVuSans-31"/>
       <use xlink:href="#DejaVuSans-2e" transform="translate(63.623047 0)"/>
       <use xlink:href="#DejaVuSans-30" transform="translate(95.410156 0)"/>
      </g>
     </g>
    </g>
   </g>
   <g id="line2d_27">
    <path d="M 259.607606 284.146291 
L 261.237959 283.297387 
L 262.868312 280.910466 
L 264.498665 277.22487 
L 266.129018 272.478799 
L 267.759371 266.908106 
L 269.389725 260.744736 
L 271.020078 254.214901 
L 272.650431 247.537048 
L 274.280784 240.919717 
L 275.911137 234.559336 
L 277.54149 228.638048 
L 279.171843 223.321615 
L 280.802196 218.757467 
L 282.43255 215.072955 
L 284.062903 212.373843 
L 285.693256 210.743097 
L 287.323609 210.24 
L 288.953962 210.899609 
L 290.584315 212.732597 
L 292.214668 215.725467 
L 293.845021 219.841161 
L 295.475374 225.020046 
L 297.105728 231.181273 
L 298.736081 238.224488 
L 300.366434 246.031859 
L 301.996787 254.470407 
L 303.62714 263.394576 
L 305.257493 272.64902 
L 306.887846 282.071547 
L 308.518199 291.496167 
L 310.148553 300.756206 
L 311.778906 309.687413 
L 313.409259 318.131013 
L 315.039612 325.936655 
L 316.669965 332.965195 
L 318.300318 339.091273 
L 319.930671 344.205629 
L 321.561024 348.217127 
L 323.191377 351.054439 
L 324.821731 352.667368 
L 326.452084 353.027788 
L 328.082437 352.130171 
L 329.71279 349.991709 
L 331.343143 346.652018 
L 332.973496 342.172429 
L 334.603849 336.634893 
L 336.234202 330.140498 
L 337.864556 322.807644 
L 339.494909 314.769902 
L 341.125262 306.173595 
L 342.755615 297.175146 
L 344.385968 287.938245 
L 346.016321 278.630876 
L 347.646674 269.422277 
L 349.277027 260.479864 
L 350.90738 251.966198 
L 352.537734 244.036035 
L 354.168087 236.833514 
L 355.79844 230.489546 
L 357.428793 225.119435 
L 359.059146 220.82079 
L 360.689499 217.671749 
L 362.319852 215.729561 
L 363.950205 215.029552 
L 365.580559 215.584482 
L 367.210912 217.384311 
L 368.841265 220.396388 
L 370.471618 224.56604 
L 372.101971 229.817566 
L 373.732324 236.055616 
L 375.362677 243.166917 
L 376.99303 251.022336 
L 378.623383 259.479225 
L 380.253737 268.384007 
L 381.88409 277.574972 
L 383.514443 286.885209 
L 385.144796 296.14564 
L 386.775149 305.188092 
L 388.405502 313.848348 
L 390.035855 321.969132 
L 391.666208 329.402964 
L 393.296562 336.01484 
L 394.926915 341.684684 
L 396.557268 346.309527 
L 398.187621 349.805378 
L 399.817974 352.108751 
L 401.448327 353.177816 
L 403.07868 352.993158 
L 404.709033 351.558135 
L 406.339387 348.898808 
L 407.96974 345.063476 
L 409.600093 340.121797 
L 411.230446 334.163517 
L 412.860799 327.296849 
L 414.491152 319.646502 
L 416.121505 311.351418 
L 417.751858 302.562246 
L 419.382211 293.438612 
L 421.012565 284.146213 
" clip-path="url(#p915f14a013)" style="fill: none; stroke: #0000ff; stroke-width: 1.5; stroke-linecap: square"/>
   </g>
   <g id="line2d_28">
    <path d="M 259.607606 284.146291 
L 261.237959 283.374074 
L 262.868312 281.136461 
L 264.498665 277.58727 
L 266.129018 272.917663 
L 267.759371 267.345066 
L 269.389725 261.103235 
L 271.020078 254.433478 
L 272.650431 247.576942 
L 274.280784 240.767969 
L 275.911137 234.228437 
L 277.54149 228.163055 
L 279.171843 222.755563 
L 280.802196 218.165763 
L 282.43255 214.527346 
L 284.062903 211.946451 
L 285.693256 210.500892 
L 287.323609 210.24 
L 288.953962 211.185026 
L 290.584315 213.330036 
L 292.214668 216.643253 
L 293.845021 221.068773 
L 295.475374 226.528617 
L 297.105728 232.925049 
L 298.736081 240.143116 
L 300.366434 248.053355 
L 301.996787 256.514618 
L 303.62714 265.376969 
L 305.257493 274.484605 
L 306.887846 283.678761 
L 308.518199 292.800559 
L 310.148553 301.693769 
L 311.778906 310.20743 
L 313.409259 318.198327 
L 315.039612 325.533274 
L 316.669965 332.091187 
L 318.300318 337.764927 
L 319.930671 342.462892 
L 321.561024 346.11034 
L 323.191377 348.650443 
L 324.821731 350.045052 
L 326.452084 350.275166 
L 328.082437 349.341124 
L 329.71279 347.262493 
L 331.343143 344.077682 
L 332.973496 339.843271 
L 334.603849 334.63308 
L 336.234202 328.53698 
L 337.864556 321.659475 
L 339.494909 314.11806 
L 341.125262 306.041391 
L 342.755615 297.567274 
L 344.385968 288.840519 
L 346.016321 280.010669 
L 347.646674 271.229646 
L 349.277027 262.649332 
L 350.90738 254.419134 
L 352.537734 246.68355 
L 354.168087 239.579778 
L 355.79844 233.235403 
L 357.428793 227.766187 
L 359.059146 223.274012 
L 360.689499 219.844987 
L 362.319852 217.547772 
L 363.950205 216.432141 
L 365.580559 216.527805 
L 367.210912 217.843539 
L 368.841265 220.366619 
L 370.471618 224.062612 
L 372.101971 228.875508 
L 373.732324 234.728235 
L 375.362677 241.523555 
L 376.99303 249.145337 
L 378.623383 257.460227 
L 380.253737 266.319687 
L 381.88409 275.562405 
L 383.514443 285.017043 
L 385.144796 294.505313 
L 386.775149 303.845321 
L 388.405502 312.855155 
L 390.035855 321.356656 
L 391.666208 329.179297 
L 393.296562 336.164119 
L 394.926915 342.167605 
L 396.557268 347.065432 
L 398.187621 350.75595 
L 399.817974 353.1633 
L 401.448327 354.24 
L 403.07868 353.968874 
L 404.709033 352.364132 
L 406.339387 349.471431 
L 407.96974 345.366699 
L 409.600093 340.153523 
L 411.230446 333.958831 
L 412.860799 326.926643 
L 414.491152 319.209578 
L 416.121505 310.957838 
L 417.751858 302.30534 
L 419.382211 293.352639 
L 421.012565 284.146291 
" clip-path="url(#p915f14a013)" style="fill: none; stroke-dasharray: 1.5,2.475; stroke-dashoffset: 0; stroke: #ff0000; stroke-width: 1.5"/>
   </g>
   <g id="patch_19">
    <path d="M 251.537358 361.44 
L 251.537358 203.04 
" style="fill: none; stroke: #000000; stroke-width: 0.8; stroke-linejoin: miter; stroke-linecap: square"/>
   </g>
   <g id="patch_20">
    <path d="M 429.082812 361.44 
L 429.082812 203.04 
" style="fill: none; stroke: #000000; stroke-width: 0.8; stroke-linejoin: miter; stroke-linecap: square"/>
   </g>
   <g id="patch_21">
    <path d="M 251.537358 361.44 
L 429.082812 361.44 
" style="fill: none; stroke: #000000; stroke-width: 0.8; stroke-linejoin: miter; stroke-linecap: square"/>
   </g>
   <g id="patch_22">
    <path d="M 251.537358 203.04 
L 429.082812 203.04 
" style="fill: none; stroke: #000000; stroke-width: 0.8; stroke-linejoin: miter; stroke-linecap: square"/>
   </g>
  </g>
  <g id="text_23">
   <!-- First four modes (n=8) -->
   <g transform="translate(159.610625 16.318125) scale(0.12 -0.12)">
    <defs>
     <path id="DejaVuSans-46" d="M 628 4666 
L 3309 4666 
L 3309 4134 
L 1259 4134 
L 1259 2759 
L 3109 2759 
L 3109 2228 
L 1259 2228 
L 1259 0 
L 628 0 
L 628 4666 
z
" transform="scale(0.015625)"/>
     <path id="DejaVuSans-73" d="M 2834 3397 
L 2834 2853 
Q 2591 2978 2328 3040 
Q 2066 3103 1784 3103 
Q 1356 3103 1142 2972 
Q 928 2841 928 2578 
Q 928 2378 1081 2264 
Q 1234 2150 1697 2047 
L 1894 2003 
Q 2506 1872 2764 1633 
Q 3022 1394 3022 966 
Q 3022 478 2636 193 
Q 2250 -91 1575 -91 
Q 1294 -91 989 -36 
Q 684 19 347 128 
L 347 722 
Q 666 556 975 473 
Q 1284 391 1588 391 
Q 1994 391 2212 530 
Q 2431 669 2431 922 
Q 2431 1156 2273 1281 
Q 2116 1406 1581 1522 
L 1381 1569 
Q 847 1681 609 1914 
Q 372 2147 372 2553 
Q 372 3047 722 3315 
Q 1072 3584 1716 3584 
Q 2034 3584 2315 3537 
Q 2597 3491 2834 3397 
z
" transform="scale(0.015625)"/>
     <path id="DejaVuSans-20" transform="scale(0.015625)"/>
     <path id="DejaVuSans-66" d="M 2375 4863 
L 2375 4384 
L 1825 4384 
Q 1516 4384 1395 4259 
Q 1275 4134 1275 3809 
L 1275 3500 
L 2222 3500 
L 2222 3053 
L 1275 3053 
L 1275 0 
L 697 0 
L 697 3053 
L 147 3053 
L 147 3500 
L 697 3500 
L 697 3744 
Q 697 4328 969 4595 
Q 1241 4863 1831 4863 
L 2375 4863 
z
" transform="scale(0.015625)"/>
     <path id="DejaVuSans-6f" d="M 1959 3097 
Q 1497 3097 1228 2736 
Q 959 2375 959 1747 
Q 959 1119 1226 758 
Q 1494 397 1959 397 
Q 2419 397 2687 759 
Q 2956 1122 2956 1747 
Q 2956 2369 2687 2733 
Q 2419 3097 1959 3097 
z
M 1959 3584 
Q 2709 3584 3137 3096 
Q 3566 2609 3566 1747 
Q 3566 888 3137 398 
Q 2709 -91 1959 -91 
Q 1206 -91 779 398 
Q 353 888 353 1747 
Q 353 2609 779 3096 
Q 1206 3584 1959 3584 
z
" transform="scale(0.015625)"/>
     <path id="DejaVuSans-75" d="M 544 1381 
L 544 3500 
L 1119 3500 
L 1119 1403 
Q 1119 906 1312 657 
Q 1506 409 1894 409 
Q 2359 409 2629 706 
Q 2900 1003 2900 1516 
L 2900 3500 
L 3475 3500 
L 3475 0 
L 2900 0 
L 2900 538 
Q 2691 219 2414 64 
Q 2138 -91 1772 -91 
Q 1169 -91 856 284 
Q 544 659 544 1381 
z
M 1991 3584 
L 1991 3584 
z
" transform="scale(0.015625)"/>
     <path id="DejaVuSans-6d" d="M 3328 2828 
Q 3544 3216 3844 3400 
Q 4144 3584 4550 3584 
Q 5097 3584 5394 3201 
Q 5691 2819 5691 2113 
L 5691 0 
L 5113 0 
L 5113 2094 
Q 5113 2597 4934 2840 
Q 4756 3084 4391 3084 
Q 3944 3084 3684 2787 
Q 3425 2491 3425 1978 
L 3425 0 
L 2847 0 
L 2847 2094 
Q 2847 2600 2669 2842 
Q 2491 3084 2119 3084 
Q 1678 3084 1418 2786 
Q 1159 2488 1159 1978 
L 1159 0 
L 581 0 
L 581 3500 
L 1159 3500 
L 1159 2956 
Q 1356 3278 1631 3431 
Q 1906 3584 2284 3584 
Q 2666 3584 2933 3390 
Q 3200 3197 3328 2828 
z
" transform="scale(0.015625)"/>
     <path id="DejaVuSans-64" d="M 2906 2969 
L 2906 4863 
L 3481 4863 
L 3481 0 
L 2906 0 
L 2906 525 
Q 2725 213 2448 61 
Q 2172 -91 1784 -91 
Q 1150 -91 751 415 
Q 353 922 353 1747 
Q 353 2572 751 3078 
Q 1150 3584 1784 3584 
Q 2172 3584 2448 3432 
Q 2725 3281 2906 2969 
z
M 947 1747 
Q 947 1113 1208 752 
Q 1469 391 1925 391 
Q 2381 391 2643 752 
Q 2906 1113 2906 1747 
Q 2906 2381 2643 2742 
Q 2381 3103 1925 3103 
Q 1469 3103 1208 2742 
Q 947 2381 947 1747 
z
" transform="scale(0.015625)"/>
     <path id="DejaVuSans-28" d="M 1984 4856 
Q 1566 4138 1362 3434 
Q 1159 2731 1159 2009 
Q 1159 1288 1364 580 
Q 1569 -128 1984 -844 
L 1484 -844 
Q 1016 -109 783 600 
Q 550 1309 550 2009 
Q 550 2706 781 3412 
Q 1013 4119 1484 4856 
L 1984 4856 
z
" transform="scale(0.015625)"/>
     <path id="DejaVuSans-3d" d="M 678 2906 
L 4684 2906 
L 4684 2381 
L 678 2381 
L 678 2906 
z
M 678 1631 
L 4684 1631 
L 4684 1100 
L 678 1100 
L 678 1631 
z
" transform="scale(0.015625)"/>
     <path id="DejaVuSans-38" d="M 2034 2216 
Q 1584 2216 1326 1975 
Q 1069 1734 1069 1313 
Q 1069 891 1326 650 
Q 1584 409 2034 409 
Q 2484 409 2743 651 
Q 3003 894 3003 1313 
Q 3003 1734 2745 1975 
Q 2488 2216 2034 2216 
z
M 1403 2484 
Q 997 2584 770 2862 
Q 544 3141 544 3541 
Q 544 4100 942 4425 
Q 1341 4750 2034 4750 
Q 2731 4750 3128 4425 
Q 3525 4100 3525 3541 
Q 3525 3141 3298 2862 
Q 3072 2584 2669 2484 
Q 3125 2378 3379 2068 
Q 3634 1759 3634 1313 
Q 3634 634 3220 271 
Q 2806 -91 2034 -91 
Q 1263 -91 848 271 
Q 434 634 434 1313 
Q 434 1759 690 2068 
Q 947 2378 1403 2484 
z
M 1172 3481 
Q 1172 3119 1398 2916 
Q 1625 2713 2034 2713 
Q 2441 2713 2670 2916 
Q 2900 3119 2900 3481 
Q 2900 3844 2670 4047 
Q 2441 4250 2034 4250 
Q 1625 4250 1398 4047 
Q 1172 3844 1172 3481 
z
" transform="scale(0.015625)"/>
     <path id="DejaVuSans-29" d="M 513 4856 
L 1013 4856 
Q 1481 4119 1714 3412 
Q 1947 2706 1947 2009 
Q 1947 1309 1714 600 
Q 1481 -109 1013 -844 
L 513 -844 
Q 928 -128 1133 580 
Q 1338 1288 1338 2009 
Q 1338 2731 1133 3434 
Q 928 4138 513 4856 
z
" transform="scale(0.015625)"/>
    </defs>
    <use xlink:href="#DejaVuSans-46"/>
    <use xlink:href="#DejaVuSans-69" transform="translate(50.269531 0)"/>
    <use xlink:href="#DejaVuSans-72" transform="translate(78.052734 0)"/>
    <use xlink:href="#DejaVuSans-73" transform="translate(119.166016 0)"/>
    <use xlink:href="#DejaVuSans-74" transform="translate(171.265625 0)"/>
    <use xlink:href="#DejaVuSans-20" transform="translate(210.474609 0)"/>
    <use xlink:href="#DejaVuSans-66" transform="translate(242.261719 0)"/>
    <use xlink:href="#DejaVuSans-6f" transform="translate(277.466797 0)"/>
    <use xlink:href="#DejaVuSans-75" transform="translate(338.648438 0)"/>
    <use xlink:href="#DejaVuSans-72" transform="translate(402.027344 0)"/>
    <use xlink:href="#DejaVuSans-20" transform="translate(443.140625 0)"/>
    <use xlink:href="#DejaVuSans-6d" transform="translate(474.927734 0)"/>
    <use xlink:href="#DejaVuSans-6f" transform="translate(572.339844 0)"/>
    <use xlink:href="#DejaVuSans-64" transform="translate(633.521484 0)"/>
    <use xlink:href="#DejaVuSans-65" transform="translate(696.998047 0)"/>
    <use xlink:href="#DejaVuSans-73" transform="translate(758.521484 0)"/>
    <use xlink:href="#DejaVuSans-20" transform="translate(810.621094 0)"/>
    <use xlink:href="#DejaVuSans-28" transform="translate(842.408203 0)"/>
    <use xlink:href="#DejaVuSans-6e" transform="translate(881.421875 0)"/>
    <use xlink:href="#DejaVuSans-3d" transform="translate(944.800781 0)"/>
    <use xlink:href="#DejaVuSans-38" transform="translate(1028.589844 0)"/>
    <use xlink:href="#DejaVuSans-29" transform="translate(1092.212891 0)"/>
   </g>
  </g>
 </g>
 <defs>
  <clipPath id="pefa312fee4">
   <rect x="38.482813" y="28.8" width="177.545455" height="158.4"/>
  </clipPath>
  <clipPath id="p8e2abafc59">
   <rect x="251.537358" y="28.8" width="177.545455" height="158.4"/>
  </clipPath>
  <clipPath id="pb8643b0195">
   <rect x="38.482813" y="203.04" width="177.545455" height="158.4"/>
  </clipPath>
  <clipPath id="p915f14a013">
   <rect x="251.537358" y="203.04" width="177.545455" height="158.4"/>
  </clipPath>
 </defs>
</svg>
