<?xml version="1.0" encoding="UTF-8" standalone="no"?>
<!-- Created with Inkscape (http://www.inkscape.org/) -->

<svg
   width="39.621601mm"
   height="39.621605mm"
   viewBox="0 0 39.621601 39.621605"
   version="1.1"
   id="svg1"
   inkscape:version="1.4 (86a8ad7, 2024-10-11)"
   sodipodi:docname="rodpcastro_circle.svg"
   xml:space="preserve"
   inkscape:export-filename="rodpcastro2.png"
   inkscape:export-xdpi="384.63867"
   inkscape:export-ydpi="384.63867"
   xmlns:inkscape="http://www.inkscape.org/namespaces/inkscape"
   xmlns:sodipodi="http://sodipodi.sourceforge.net/DTD/sodipodi-0.dtd"
   xmlns:xlink="http://www.w3.org/1999/xlink"
   xmlns="http://www.w3.org/2000/svg"
   xmlns:svg="http://www.w3.org/2000/svg"
   xmlns:rdf="http://www.w3.org/1999/02/22-rdf-syntax-ns#"
   xmlns:cc="http://creativecommons.org/ns#"
   xmlns:dc="http://purl.org/dc/elements/1.1/"><sodipodi:namedview
     id="namedview1"
     pagecolor="#ffffff"
     bordercolor="#000000"
     borderopacity="0.25"
     inkscape:showpageshadow="2"
     inkscape:pageopacity="0.0"
     inkscape:pagecheckerboard="0"
     inkscape:deskcolor="#d1d1d1"
     inkscape:document-units="mm"
     inkscape:zoom="2.8284271"
     inkscape:cx="91.039999"
     inkscape:cy="71.594562"
     inkscape:window-width="1920"
     inkscape:window-height="974"
     inkscape:window-x="-11"
     inkscape:window-y="-11"
     inkscape:window-maximized="1"
     inkscape:current-layer="svg1"
     showgrid="true"><inkscape:grid
       id="grid1"
       units="mm"
       originx="-113.88604"
       originy="-91.909567"
       spacingx="0.99999998"
       spacingy="1"
       empcolor="#0099e5"
       empopacity="0.30196078"
       color="#0099e5"
       opacity="0.14901961"
       empspacing="5"
       enabled="true"
       visible="true" /></sodipodi:namedview><title
     id="title7">rodpcastro</title><defs
     id="defs1"><inkscape:path-effect
       effect="fillet_chamfer"
       id="path-effect8"
       is_visible="true"
       lpeversion="1"
       nodesatellites_param="F,0,0,1,0,1.0583333,0,1 @ F,0,0,1,0,1.0583333,0,1 @ F,0,0,1,0,1.0583333,0,1 @ F,0,0,1,0,1.0583333,0,1"
       radius="4"
       unit="px"
       method="auto"
       mode="F"
       chamfer_steps="1"
       flexible="false"
       use_knot_distance="true"
       apply_no_radius="true"
       apply_with_radius="true"
       only_selected="false"
       hide_knots="false" /><inkscape:path-effect
       effect="fillet_chamfer"
       id="path-effect7"
       is_visible="true"
       lpeversion="1"
       nodesatellites_param="F,0,0,1,0,0.52916665,0,1 @ F,0,0,1,0,0.52916665,0,1 @ F,0,0,1,0,0.52916665,0,1 @ F,0,0,1,0,0.52916665,0,1"
       radius="2"
       unit="px"
       method="auto"
       mode="F"
       chamfer_steps="1"
       flexible="false"
       use_knot_distance="true"
       apply_no_radius="true"
       apply_with_radius="true"
       only_selected="false"
       hide_knots="false" /><linearGradient
       id="swatch7"
       inkscape:swatch="solid"><stop
         style="stop-color:#000000;stop-opacity:1;"
         offset="0"
         id="stop7" /></linearGradient><linearGradient
       id="linearGradient1"
       inkscape:collect="always"><stop
         style="stop-color:#ffffff;stop-opacity:1;"
         offset="0"
         id="stop1" /><stop
         style="stop-color:#ffffff;stop-opacity:0;"
         offset="1"
         id="stop2" /></linearGradient><linearGradient
       inkscape:collect="always"
       xlink:href="#linearGradient1"
       id="linearGradient2"
       x1="114.63317"
       y1="109.02666"
       x2="116.32772"
       y2="109.02666"
       gradientUnits="userSpaceOnUse" /><inkscape:path-effect
       effect="fillet_chamfer"
       id="path-effect8-7"
       is_visible="true"
       lpeversion="1"
       nodesatellites_param="F,0,0,1,0,1.0583333,0,1 @ F,0,0,1,0,1.0583333,0,1 @ F,0,0,1,0,1.0583333,0,1 @ F,0,0,1,0,1.0583333,0,1"
       radius="4"
       unit="px"
       method="auto"
       mode="F"
       chamfer_steps="1"
       flexible="false"
       use_knot_distance="true"
       apply_no_radius="true"
       apply_with_radius="true"
       only_selected="false"
       hide_knots="false" /></defs><g
     inkscape:groupmode="layer"
     id="layer1"
     inkscape:label="waves"
     style="display:inline;stroke:#107dac;stroke-opacity:1"
     transform="translate(-113.88604,-91.909565)"><path
       id="path2"
       style="display:inline;fill:#189ad3;fill-opacity:1;stroke:#107dac;stroke-width:0.3;stroke-dasharray:none;stroke-opacity:1"
       inkscape:label="wave1"
       d="m 133.69739,92.510834 a 19.210802,19.2108 0 0 0 -12.77208,4.885936 c 1.68469,-0.209734 3.25105,-0.478448 4.0695,-0.692826 1.31143,-0.344993 3.31277,-0.924028 4.84488,-1.27731 1.55102,-0.355815 2.5015,-0.545511 3.6427,-0.558202 1.1412,-0.01269 2.09837,0.157902 3.65571,0.479451 1.54472,0.319611 3.5567,0.852511 4.88075,1.168943 0.83428,0.198914 2.44048,0.434432 4.15745,0.607429 a 19.210802,19.2108 0 0 0 -12.47891,-4.613401 z" /><path
       id="path2-1"
       style="display:inline;fill:#1ebbd7;fill-opacity:1;stroke:#107dac;stroke-width:0.3;stroke-dasharray:none;stroke-opacity:1"
       inkscape:label="wave2"
       d="m 133.48239,94.868432 c -1.1412,0.01269 -2.09168,0.202387 -3.6427,0.558202 -1.53211,0.353276 -3.53345,0.932283 -4.84488,1.277303 -0.81845,0.214411 -2.38481,0.483059 -4.0695,0.692833 a 19.210802,19.2108 0 0 0 -3.38856,3.94027 c 2.02328,-0.0187 4.80107,-0.42522 5.88433,-0.72238 1.0025,-0.27513 2.52206,-0.740228 3.69479,-1.017907 1.17903,-0.280203 1.90241,-0.429823 2.76619,-0.420338 0.86378,0.0087 1.59025,0.173799 2.76297,0.479386 1.16643,0.303113 2.67887,0.800609 3.66875,1.096709 1.1349,0.33611 4.13425,0.84525 6.16445,0.86686 2.03652,0.0214 5.04615,-0.42348 6.18735,-0.73552 0.20239,-0.0554 0.5088,-0.13586 0.74613,-0.20359 a 19.210802,19.2108 0 0 0 -3.23541,-3.556085 c -1.71697,-0.172998 -3.32317,-0.408582 -4.15745,-0.607429 -1.32405,-0.316406 -3.33603,-0.849332 -4.88075,-1.168943 -1.55734,-0.321549 -2.51451,-0.492142 -3.65571,-0.479451 z" /><path
       id="path2-8"
       style="display:inline;fill:#189ad3;fill-opacity:1;stroke:#107dac;stroke-width:0.3;stroke-dasharray:none;stroke-opacity:1"
       inkscape:label="wave3"
       d="m 129.88206,99.176455 c -0.86378,-0.0094 -1.58716,0.140135 -2.76619,0.420338 -1.17273,0.277666 -2.69229,0.742777 -3.69479,1.017907 -1.08339,0.29716 -3.86099,0.70395 -5.88433,0.72238 a 19.210802,19.2108 0 0 0 -2.39475,5.54266 c 1.57214,-0.26551 3.02551,-0.60904 3.7925,-0.88985 1.2484,-0.46068 3.15113,-1.23259 4.62018,-1.7009 1.47537,-0.47149 2.38221,-0.72503 3.46667,-0.72567 1.09077,-6.3e-4 1.99484,0.25416 3.47652,0.72567 1.46276,0.46831 3.37172,1.24022 4.62011,1.7009 1.42492,0.52166 5.20099,1.28779 7.75451,1.28715 2.54721,-6.3e-4 6.32629,-0.76612 7.75122,-1.28715 0.35057,-0.12864 0.82017,-0.31192 1.24789,-0.47611 a 19.210802,19.2108 0 0 0 -2.45989,-4.83341 c -0.23707,0.0677 -0.54412,0.14801 -0.74613,0.20359 -1.1412,0.312 -4.15083,0.75712 -6.18735,0.73552 -2.0302,-0.0214 -5.02955,-0.53074 -6.16445,-0.86687 -0.98988,-0.29609 -2.50232,-0.79361 -3.66875,-1.096696 -1.17272,-0.305653 -1.89919,-0.470502 -2.76297,-0.479459 z" /><path
       id="path5"
       style="display:inline;fill:#1ebbd7;fill-opacity:1;stroke:#107dac;stroke-width:0.3;stroke-dasharray:none;stroke-opacity:1"
       inkscape:label="wave4"
       d="m 127.02464,103.56329 c -1.08446,6.3e-4 -1.99137,0.25416 -3.46674,0.72566 -1.46906,0.46831 -3.37172,1.24023 -4.62011,1.7009 -0.7675,0.281 -2.22245,0.62427 -3.79579,0.88985 a 19.210802,19.2108 0 0 0 -0.60276,4.0946 c 1.00098,-0.23672 2.0244,-0.48673 2.96492,-0.66984 1.40601,-0.2732 2.26633,-0.41988 3.29404,-0.40719 1.02772,0.012 1.87788,0.1764 3.27128,0.48266 1.3808,0.30438 3.1704,0.80263 4.34313,1.09999 1.34297,0.33678 4.90617,0.85141 7.31469,0.88 2.4148,0.0287 5.98835,-0.40097 7.34392,-0.70597 1.19164,-0.26877 3.00193,-0.7236 4.39534,-0.99491 1.39971,-0.27326 2.26305,-0.4166 3.29076,-0.40385 0.69022,0.008 1.35873,0.11049 2.10807,0.25283 A 19.210802,19.2108 0 0 0 151.8716,105.517 c -0.42684,0.16386 -0.89486,0.34447 -1.2446,0.47285 -1.42493,0.52105 -5.20401,1.28652 -7.75123,1.28715 -2.55353,6.4e-4 -6.32959,-0.76549 -7.75452,-1.28715 -1.24838,-0.46069 -3.15735,-1.23259 -4.62011,-1.7009 -1.48166,-0.47149 -2.38574,-0.7263 -3.4765,-0.72566 z" /><path
       id="path2-19"
       style="display:inline;fill:#189ad3;fill-opacity:1;stroke:#107dac;stroke-width:0.3;stroke-dasharray:none;stroke-opacity:1"
       inkscape:label="wave5"
       d="m 120.7982,109.89729 c -1.02771,-0.0127 -1.88803,0.13392 -3.29404,0.40718 -0.94052,0.18315 -1.96394,0.43316 -2.96492,0.66984 a 19.210802,19.2108 0 0 0 -0.0504,0.74536 19.210802,19.2108 0 0 0 1.2055,6.56055 c 1.93886,-0.14274 4.39346,-0.83514 5.39563,-1.34296 0.97728,-0.49883 2.46254,-1.33768 3.61005,-1.84537 1.15381,-0.51085 1.86924,-0.78414 2.71412,-0.78477 0.85117,0 1.55695,0.27392 2.71077,0.78477 1.1475,0.50703 2.63283,1.34593 3.6101,1.84537 1.11599,0.56487 4.06805,1.3955 6.06673,1.3955 1.99237,-6.4e-4 4.94426,-0.82999 6.06024,-1.3955 0.97727,-0.49883 2.4626,-1.33768 3.61011,-1.84537 1.15381,-0.51085 1.86917,-0.78741 2.71404,-0.78805 0.18348,0 0.35813,0.02 0.53404,0.0461 a 19.210802,19.2108 0 0 0 0.18915,-2.63013 19.210802,19.2108 0 0 0 -0.0441,-1.21163 c -0.74934,-0.14233 -1.41786,-0.24473 -2.10807,-0.25282 -1.02772,-0.0127 -1.89106,0.13066 -3.29076,0.40384 -1.39341,0.27132 -3.20369,0.72615 -4.39534,0.99493 -1.35558,0.30498 -4.92912,0.73455 -7.34393,0.70596 -2.40851,-0.0287 -5.97171,-0.54325 -7.31468,-0.87999 -1.17273,-0.29737 -2.96234,-0.79564 -4.34313,-1.09999 -1.3934,-0.30626 -2.24357,-0.47057 -3.27128,-0.48266 z" /><path
       id="path2-0"
       style="display:inline;fill:#1ebbd7;fill-opacity:1;stroke:#107dac;stroke-width:0.3;stroke-dasharray:none;stroke-opacity:1"
       inkscape:label="wave6"
       d="m 152.18439,114.30383 c -0.84486,6.4e-4 -1.56024,0.27713 -2.71405,0.78805 -1.1475,0.5077 -2.63283,1.34656 -3.61011,1.84536 -1.11598,0.56555 -4.06785,1.39487 -6.06023,1.39551 -1.99868,0 -4.95075,-0.83064 -6.06673,-1.39551 -0.97726,-0.49942 -2.4626,-1.33831 -3.61011,-1.84536 -1.15381,-0.51085 -1.85959,-0.78478 -2.71077,-0.78478 -0.84487,6.4e-4 -1.5603,0.27392 -2.71411,0.78478 -1.14751,0.5077 -2.63277,1.34656 -3.61004,1.84536 -1.00219,0.50784 -3.45678,1.20026 -5.39563,1.34297 a 19.210802,19.2108 0 0 0 2.98126,5.34893 c 2.75465,-0.13546 6.43349,-0.81791 7.88483,-1.28059 1.35556,-0.43524 3.4255,-1.16225 5.01436,-1.60894 1.60147,-0.44986 2.59071,-0.6957 3.76975,-0.72238 1.18534,-0.0274 2.18216,0.1736 3.80884,0.55166 1.60779,0.37491 3.69852,1.00875 5.07301,1.38237 1.00431,0.27138 3.07621,0.59147 5.16422,0.78149 a 19.210802,19.2108 0 0 0 3.32986,-8.38294 c -0.1759,-0.0254 -0.35055,-0.0454 -0.53404,-0.0454 z" /><path
       id="path2-02"
       style="display:inline;fill:#189ad3;fill-opacity:1;stroke:#107dac;stroke-width:0.3;stroke-dasharray:none;stroke-opacity:1"
       inkscape:label="wave7"
       d="m 135.34281,120.01723 c -1.17904,0.0267 -2.16828,0.27252 -3.76975,0.72238 -1.58886,0.44672 -3.6588,1.17368 -5.01436,1.60894 -1.45134,0.46268 -5.13018,1.14512 -7.88483,1.28059 a 19.210802,19.2108 0 0 0 3.1279,3.12266 c 0.34677,-0.0922 0.68339,-0.20025 1.00023,-0.27586 1.50058,-0.35834 2.42181,-0.54584 3.51886,-0.54838 1.10339,6.3e-4 2.01806,0.19398 3.51233,0.55493 1.47537,0.35708 3.39846,0.94827 4.66576,1.30029 1.43754,0.39904 5.25092,0.98644 7.83597,0.98835 0.0378,3e-5 0.0902,-0.006 0.13051,-0.006 a 19.210802,19.2108 0 0 0 6.92364,-6.03189 c -2.08802,-0.19002 -4.15991,-0.51011 -5.16423,-0.78149 -1.37449,-0.37364 -3.46522,-1.00748 -5.07299,-1.38237 -1.62669,-0.37806 -2.62351,-0.57898 -3.80886,-0.55166 z" /><path
       id="path2-5"
       style="display:inline;fill:#1ebbd7;fill-opacity:1;stroke:#107dac;stroke-width:0.3;stroke-dasharray:none;stroke-opacity:1"
       inkscape:label="wave8"
       d="m 126.32086,125.92762 c -1.09705,0.003 -2.01828,0.18998 -3.51886,0.54839 -0.31715,0.0756 -0.65359,0.18362 -1.00023,0.27586 a 19.210802,19.2108 0 0 0 11.89562,4.17998 19.210802,19.2108 0 0 0 8.76785,-2.16715 c -0.0378,2.4e-4 -0.0908,0.006 -0.1305,0.006 -2.58506,-0.002 -6.39843,-0.58932 -7.83598,-0.98835 -1.2673,-0.352 -3.19039,-0.94319 -4.66576,-1.30029 -1.49428,-0.36089 -2.40894,-0.55426 -3.51232,-0.55493 z" /></g><text
     xml:space="preserve"
     style="font-size:31.75px;font-family:'JetBrainsMono Nerd Font';-inkscape-font-specification:'JetBrainsMono Nerd Font';text-align:start;writing-mode:lr-tb;direction:ltr;text-anchor:start;display:inline;fill:#005073;fill-opacity:1;stroke:#005073;stroke-width:0.70936;stroke-opacity:1"
     x="9.0899763"
     y="30.314882"
     id="text1"
     inkscape:label="R"
     transform="scale(0.99612993,1.0038851)"><tspan
       sodipodi:role="line"
       id="tspan1"
       style="font-style:normal;font-variant:normal;font-weight:normal;font-stretch:normal;font-size:31.75px;font-family:Cambria;-inkscape-font-specification:Cambria;fill:#005073;fill-opacity:1;stroke:#005073;stroke-width:0.70936;stroke-opacity:1"
       x="9.0899763"
       y="30.314882">R</tspan></text><metadata
     id="metadata7"><rdf:RDF><cc:Work
         rdf:about=""><dc:title>rodpcastro</dc:title><dc:date>10/05/2025</dc:date><dc:creator><cc:Agent><dc:title>Rodrigo Castro</dc:title></cc:Agent></dc:creator><dc:description>color palette: https://www.color-hex.com/color-palette/30415</dc:description></cc:Work></rdf:RDF></metadata><ellipse
     style="display:inline;fill:none;stroke:#005073;stroke-width:1.2;stroke-linecap:round;stroke-linejoin:round;stroke-dasharray:none"
     id="path4"
     cx="19.810801"
     cy="19.810802"
     rx="19.2108"
     ry="19.210802"
     inkscape:label="circ" /></svg>
