<?xml version="1.0" encoding="UTF-8" standalone="no"?>
<!-- Created with Inkscape (http://www.inkscape.org/) -->

<svg
   width="39.628078mm"
   height="39.628063mm"
   viewBox="0 0 39.628079 39.628063"
   version="1.1"
   id="svg1"
   inkscape:version="1.4 (86a8ad7, 2024-10-11)"
   sodipodi:docname="rodpcastro_square.svg"
   xml:space="preserve"
   inkscape:export-filename="rodpcastro.png"
   inkscape:export-xdpi="383.99985"
   inkscape:export-ydpi="383.99985"
   xmlns:inkscape="http://www.inkscape.org/namespaces/inkscape"
   xmlns:sodipodi="http://sodipodi.sourceforge.net/DTD/sodipodi-0.dtd"
   xmlns:xlink="http://www.w3.org/1999/xlink"
   xmlns="http://www.w3.org/2000/svg"
   xmlns:svg="http://www.w3.org/2000/svg"
   xmlns:rdf="http://www.w3.org/1999/02/22-rdf-syntax-ns#"
   xmlns:cc="http://creativecommons.org/ns#"
   xmlns:dc="http://purl.org/dc/elements/1.1/"><sodipodi:namedview
     id="namedview1"
     pagecolor="#ffffff"
     bordercolor="#000000"
     borderopacity="0.25"
     inkscape:showpageshadow="2"
     inkscape:pageopacity="0.0"
     inkscape:pagecheckerboard="0"
     inkscape:deskcolor="#d1d1d1"
     inkscape:document-units="mm"
     inkscape:zoom="2.8284273"
     inkscape:cx="73.008771"
     inkscape:cy="79.019178"
     inkscape:window-width="1920"
     inkscape:window-height="974"
     inkscape:window-x="-11"
     inkscape:window-y="-11"
     inkscape:window-maximized="1"
     inkscape:current-layer="svg1"
     showgrid="true"><inkscape:grid
       id="grid1"
       units="mm"
       originx="-114.47877"
       originy="-91.673581"
       spacingx="0.99999998"
       spacingy="1"
       empcolor="#0099e5"
       empopacity="0.30196078"
       color="#0099e5"
       opacity="0.14901961"
       empspacing="5"
       enabled="true"
       visible="true" /></sodipodi:namedview><title
     id="title7">rodpcastro</title><defs
     id="defs1"><inkscape:path-effect
       effect="fillet_chamfer"
       id="path-effect115"
       is_visible="true"
       lpeversion="1"
       nodesatellites_param="F,0,0,1,0,1.0583333,0,1 @ F,0,0,1,0,1.0583333,0,1 @ F,0,0,1,0,1.0583333,0,1 @ F,0,0,1,0,1.0583333,0,1"
       radius="4"
       unit="px"
       method="auto"
       mode="F"
       chamfer_steps="1"
       flexible="false"
       use_knot_distance="true"
       apply_no_radius="true"
       apply_with_radius="true"
       only_selected="false"
       hide_knots="false" /><inkscape:path-effect
       effect="fillet_chamfer"
       id="path-effect113"
       is_visible="true"
       lpeversion="1"
       nodesatellites_param="F,0,0,1,0,1.0583333,0,1 @ F,0,0,1,0,1.0583333,0,1 @ F,0,0,1,0,1.0583333,0,1 @ F,0,0,1,0,1.0583333,0,1"
       radius="4"
       unit="px"
       method="auto"
       mode="F"
       chamfer_steps="1"
       flexible="false"
       use_knot_distance="true"
       apply_no_radius="true"
       apply_with_radius="true"
       only_selected="false"
       hide_knots="false" /><inkscape:path-effect
       effect="fillet_chamfer"
       id="path-effect111"
       is_visible="true"
       lpeversion="1"
       nodesatellites_param="F,0,0,1,0,1.0583333,0,1 @ F,0,0,1,0,1.0583333,0,1 @ F,0,0,1,0,1.0583333,0,1 @ F,0,0,1,0,1.0583333,0,1"
       radius="4"
       unit="px"
       method="auto"
       mode="F"
       chamfer_steps="1"
       flexible="false"
       use_knot_distance="true"
       apply_no_radius="true"
       apply_with_radius="true"
       only_selected="false"
       hide_knots="false" /><inkscape:path-effect
       effect="fillet_chamfer"
       id="path-effect109"
       is_visible="true"
       lpeversion="1"
       nodesatellites_param="F,0,0,1,0,1.0583333,0,1 @ F,0,0,1,0,1.0583333,0,1 @ F,0,0,1,0,1.0583333,0,1 @ F,0,0,1,0,1.0583333,0,1"
       radius="4"
       unit="px"
       method="auto"
       mode="F"
       chamfer_steps="1"
       flexible="false"
       use_knot_distance="true"
       apply_no_radius="true"
       apply_with_radius="true"
       only_selected="false"
       hide_knots="false" /><inkscape:path-effect
       effect="fillet_chamfer"
       id="path-effect107"
       is_visible="true"
       lpeversion="1"
       nodesatellites_param="F,0,0,1,0,1.0583333,0,1 @ F,0,0,1,0,1.0583333,0,1 @ F,0,0,1,0,1.0583333,0,1 @ F,0,0,1,0,1.0583333,0,1"
       radius="4"
       unit="px"
       method="auto"
       mode="F"
       chamfer_steps="1"
       flexible="false"
       use_knot_distance="true"
       apply_no_radius="true"
       apply_with_radius="true"
       only_selected="false"
       hide_knots="false" /><inkscape:path-effect
       effect="fillet_chamfer"
       id="path-effect105"
       is_visible="true"
       lpeversion="1"
       nodesatellites_param="F,0,0,1,0,1.0583333,0,1 @ F,0,0,1,0,1.0583333,0,1 @ F,0,0,1,0,1.0583333,0,1 @ F,0,0,1,0,1.0583333,0,1"
       radius="4"
       unit="px"
       method="auto"
       mode="F"
       chamfer_steps="1"
       flexible="false"
       use_knot_distance="true"
       apply_no_radius="true"
       apply_with_radius="true"
       only_selected="false"
       hide_knots="false" /><inkscape:path-effect
       effect="fillet_chamfer"
       id="path-effect103"
       is_visible="true"
       lpeversion="1"
       nodesatellites_param="F,0,0,1,0,1.0583333,0,1 @ F,0,0,1,0,1.0583333,0,1 @ F,0,0,1,0,1.0583333,0,1 @ F,0,0,1,0,1.0583333,0,1"
       radius="4"
       unit="px"
       method="auto"
       mode="F"
       chamfer_steps="1"
       flexible="false"
       use_knot_distance="true"
       apply_no_radius="true"
       apply_with_radius="true"
       only_selected="false"
       hide_knots="false" /><inkscape:path-effect
       effect="fillet_chamfer"
       id="path-effect101"
       is_visible="true"
       lpeversion="1"
       nodesatellites_param="F,0,0,1,0,1.0583333,0,1 @ F,0,0,1,0,1.0583333,0,1 @ F,0,0,1,0,1.0583333,0,1 @ F,0,0,1,0,1.0583333,0,1"
       radius="4"
       unit="px"
       method="auto"
       mode="F"
       chamfer_steps="1"
       flexible="false"
       use_knot_distance="true"
       apply_no_radius="true"
       apply_with_radius="true"
       only_selected="false"
       hide_knots="false" /><inkscape:path-effect
       effect="fillet_chamfer"
       id="path-effect99"
       is_visible="true"
       lpeversion="1"
       nodesatellites_param="F,0,0,1,0,1.0583333,0,1 @ F,0,0,1,0,1.0583333,0,1 @ F,0,0,1,0,1.0583333,0,1 @ F,0,0,1,0,1.0583333,0,1"
       radius="4"
       unit="px"
       method="auto"
       mode="F"
       chamfer_steps="1"
       flexible="false"
       use_knot_distance="true"
       apply_no_radius="true"
       apply_with_radius="true"
       only_selected="false"
       hide_knots="false" /><inkscape:path-effect
       effect="fillet_chamfer"
       id="path-effect97"
       is_visible="true"
       lpeversion="1"
       nodesatellites_param="F,0,0,1,0,1.0583333,0,1 @ F,0,0,1,0,1.0583333,0,1 @ F,0,0,1,0,1.0583333,0,1 @ F,0,0,1,0,1.0583333,0,1"
       radius="4"
       unit="px"
       method="auto"
       mode="F"
       chamfer_steps="1"
       flexible="false"
       use_knot_distance="true"
       apply_no_radius="true"
       apply_with_radius="true"
       only_selected="false"
       hide_knots="false" /><inkscape:path-effect
       effect="fillet_chamfer"
       id="path-effect95"
       is_visible="true"
       lpeversion="1"
       nodesatellites_param="F,0,0,1,0,1.0583333,0,1 @ F,0,0,1,0,1.0583333,0,1 @ F,0,0,1,0,1.0583333,0,1 @ F,0,0,1,0,1.0583333,0,1"
       radius="4"
       unit="px"
       method="auto"
       mode="F"
       chamfer_steps="1"
       flexible="false"
       use_knot_distance="true"
       apply_no_radius="true"
       apply_with_radius="true"
       only_selected="false"
       hide_knots="false" /><inkscape:path-effect
       effect="fillet_chamfer"
       id="path-effect93"
       is_visible="true"
       lpeversion="1"
       nodesatellites_param="F,0,0,1,0,1.0583333,0,1 @ F,0,0,1,0,1.0583333,0,1 @ F,0,0,1,0,1.0583333,0,1 @ F,0,0,1,0,1.0583333,0,1"
       radius="4"
       unit="px"
       method="auto"
       mode="F"
       chamfer_steps="1"
       flexible="false"
       use_knot_distance="true"
       apply_no_radius="true"
       apply_with_radius="true"
       only_selected="false"
       hide_knots="false" /><inkscape:path-effect
       effect="fillet_chamfer"
       id="path-effect91"
       is_visible="true"
       lpeversion="1"
       nodesatellites_param="F,0,0,1,0,1.0583333,0,1 @ F,0,0,1,0,1.0583333,0,1 @ F,0,0,1,0,1.0583333,0,1 @ F,0,0,1,0,1.0583333,0,1"
       radius="4"
       unit="px"
       method="auto"
       mode="F"
       chamfer_steps="1"
       flexible="false"
       use_knot_distance="true"
       apply_no_radius="true"
       apply_with_radius="true"
       only_selected="false"
       hide_knots="false" /><inkscape:path-effect
       effect="fillet_chamfer"
       id="path-effect89"
       is_visible="true"
       lpeversion="1"
       nodesatellites_param="F,0,0,1,0,1.0583333,0,1 @ F,0,0,1,0,1.0583333,0,1 @ F,0,0,1,0,1.0583333,0,1 @ F,0,0,1,0,1.0583333,0,1"
       radius="4"
       unit="px"
       method="auto"
       mode="F"
       chamfer_steps="1"
       flexible="false"
       use_knot_distance="true"
       apply_no_radius="true"
       apply_with_radius="true"
       only_selected="false"
       hide_knots="false" /><inkscape:path-effect
       effect="fillet_chamfer"
       id="path-effect87"
       is_visible="true"
       lpeversion="1"
       nodesatellites_param="F,0,0,1,0,1.0583333,0,1 @ F,0,0,1,0,1.0583333,0,1 @ F,0,0,1,0,1.0583333,0,1 @ F,0,0,1,0,1.0583333,0,1"
       radius="4"
       unit="px"
       method="auto"
       mode="F"
       chamfer_steps="1"
       flexible="false"
       use_knot_distance="true"
       apply_no_radius="true"
       apply_with_radius="true"
       only_selected="false"
       hide_knots="false" /><inkscape:path-effect
       effect="fillet_chamfer"
       id="path-effect85"
       is_visible="true"
       lpeversion="1"
       nodesatellites_param="F,0,0,1,0,1.0583333,0,1 @ F,0,0,1,0,1.0583333,0,1 @ F,0,0,1,0,1.0583333,0,1 @ F,0,0,1,0,1.0583333,0,1"
       radius="4"
       unit="px"
       method="auto"
       mode="F"
       chamfer_steps="1"
       flexible="false"
       use_knot_distance="true"
       apply_no_radius="true"
       apply_with_radius="true"
       only_selected="false"
       hide_knots="false" /><inkscape:path-effect
       effect="fillet_chamfer"
       id="path-effect30"
       is_visible="true"
       lpeversion="1"
       nodesatellites_param="F,0,0,1,0,1.0583333,0,1 @ F,0,0,1,0,1.0583333,0,1 @ F,0,0,1,0,1.0583333,0,1 @ F,0,0,1,0,1.0583333,0,1"
       radius="4"
       unit="px"
       method="auto"
       mode="F"
       chamfer_steps="1"
       flexible="false"
       use_knot_distance="true"
       apply_no_radius="true"
       apply_with_radius="true"
       only_selected="false"
       hide_knots="false" /><inkscape:path-effect
       effect="fillet_chamfer"
       id="path-effect21"
       is_visible="true"
       lpeversion="1"
       nodesatellites_param="F,0,0,1,0,1.0583333,0,1 @ F,0,0,1,0,1.0583333,0,1 @ F,0,0,1,0,1.0583333,0,1 @ F,0,0,1,0,1.0583333,0,1"
       radius="4"
       unit="px"
       method="auto"
       mode="F"
       chamfer_steps="1"
       flexible="false"
       use_knot_distance="true"
       apply_no_radius="true"
       apply_with_radius="true"
       only_selected="false"
       hide_knots="false" /><inkscape:path-effect
       effect="fillet_chamfer"
       id="path-effect8"
       is_visible="true"
       lpeversion="1"
       nodesatellites_param="F,0,0,1,0,1.0583333,0,1 @ F,0,0,1,0,1.0583333,0,1 @ F,0,0,1,0,1.0583333,0,1 @ F,0,0,1,0,1.0583333,0,1"
       radius="4"
       unit="px"
       method="auto"
       mode="F"
       chamfer_steps="1"
       flexible="false"
       use_knot_distance="true"
       apply_no_radius="true"
       apply_with_radius="true"
       only_selected="false"
       hide_knots="false" /><inkscape:path-effect
       effect="fillet_chamfer"
       id="path-effect7"
       is_visible="true"
       lpeversion="1"
       nodesatellites_param="F,0,0,1,0,0.52916665,0,1 @ F,0,0,1,0,0.52916665,0,1 @ F,0,0,1,0,0.52916665,0,1 @ F,0,0,1,0,0.52916665,0,1"
       radius="2"
       unit="px"
       method="auto"
       mode="F"
       chamfer_steps="1"
       flexible="false"
       use_knot_distance="true"
       apply_no_radius="true"
       apply_with_radius="true"
       only_selected="false"
       hide_knots="false" /><linearGradient
       id="swatch7"
       inkscape:swatch="solid"><stop
         style="stop-color:#000000;stop-opacity:1;"
         offset="0"
         id="stop7" /></linearGradient><linearGradient
       id="linearGradient1"
       inkscape:collect="always"><stop
         style="stop-color:#ffffff;stop-opacity:1;"
         offset="0"
         id="stop1" /><stop
         style="stop-color:#ffffff;stop-opacity:0;"
         offset="1"
         id="stop2" /></linearGradient><linearGradient
       inkscape:collect="always"
       xlink:href="#linearGradient1"
       id="linearGradient2"
       x1="114.63317"
       y1="109.02666"
       x2="116.32772"
       y2="109.02666"
       gradientUnits="userSpaceOnUse" /><inkscape:path-effect
       effect="fillet_chamfer"
       id="path-effect8-7"
       is_visible="true"
       lpeversion="1"
       nodesatellites_param="F,0,0,1,0,1.0583333,0,1 @ F,0,0,1,0,1.0583333,0,1 @ F,0,0,1,0,1.0583333,0,1 @ F,0,0,1,0,1.0583333,0,1"
       radius="4"
       unit="px"
       method="auto"
       mode="F"
       chamfer_steps="1"
       flexible="false"
       use_knot_distance="true"
       apply_no_radius="true"
       apply_with_radius="true"
       only_selected="false"
       hide_knots="false" /><inkscape:path-effect
       effect="fillet_chamfer"
       id="path-effect8-7-4"
       is_visible="true"
       lpeversion="1"
       nodesatellites_param="F,0,0,1,0,1.0583333,0,1 @ F,0,0,1,0,1.0583333,0,1 @ F,0,0,1,0,1.0583333,0,1 @ F,0,0,1,0,1.0583333,0,1"
       radius="4"
       unit="px"
       method="auto"
       mode="F"
       chamfer_steps="1"
       flexible="false"
       use_knot_distance="true"
       apply_no_radius="true"
       apply_with_radius="true"
       only_selected="false"
       hide_knots="false" /></defs><g
     inkscape:groupmode="layer"
     id="g83"
     inkscape:label="waves"
     style="display:inline;stroke:#107dac;stroke-opacity:1"
     transform="translate(-114.47877,-91.673582)"><path
       id="path76"
       style="display:inline;fill:#189ad3;fill-opacity:1;stroke:#107dac;stroke-width:0.3;stroke-dasharray:none;stroke-opacity:1"
       inkscape:label="wave1"
       d="m 121.74315,92.274833 a 6.6645114,6.6645087 0 0 0 -6.19263,4.31176 c 0.68109,0.04035 1.35408,0.0686 1.9492,0.06153 2.67633,-0.03043 6.63649,-0.644801 8.12892,-1.047837 1.30981,-0.356408 3.30565,-0.953329 4.84216,-1.317932 1.54909,-0.367125 2.50162,-0.566004 3.64139,-0.579235 1.13979,-0.01323 2.08929,0.165996 3.64468,0.497857 1.54911,0.329347 3.55229,0.877216 4.87472,1.204044 1.49872,0.369638 5.47212,0.893205 8.14841,0.862348 0.64275,-0.0073 1.36421,-0.05094 2.10218,-0.113928 a 6.6645114,6.6645087 0 0 0 -6.03974,-3.878951 z" /><path
       id="path77"
       style="display:inline;fill:#1ebbd7;fill-opacity:1;stroke:#107dac;stroke-width:0.3;stroke-dasharray:none;stroke-opacity:1"
       inkscape:label="wave2"
       d="m 134.11219,93.703403 c -1.13977,0.01322 -2.0923,0.21211 -3.64139,0.579236 -1.53651,0.364609 -3.53235,0.961517 -4.84216,1.317938 -1.49243,0.403048 -5.45259,1.017608 -8.12892,1.047837 -0.59505,0.0066 -1.26811,-0.02183 -1.9492,-0.06153 a 6.6645114,6.6645087 0 0 0 -0.47166,2.352749 v 1.854857 c 0.96679,0.12724 1.96244,0.22873 2.7985,0.23753 2.034,0.0212 5.04621,-0.41715 6.17969,-0.72568 1.00127,-0.27265 2.51893,-0.733597 3.69021,-1.008785 1.17758,-0.277676 1.90003,-0.426008 2.76276,-0.416547 0.8627,0.0086 1.58827,0.172215 2.75954,0.475098 1.16499,0.300369 2.67554,0.793444 3.66422,1.086884 1.13348,0.33311 4.12911,0.83768 6.15681,0.8591 2.03398,0.0212 5.03987,-0.41972 6.17965,-0.72894 1.00126,-0.27264 2.51893,-0.73034 3.69022,-1.005522 0.21474,-0.05027 0.35891,-0.07211 0.54658,-0.113928 v -0.514132 a 6.6645114,6.6645087 0 0 0 -0.62466,-2.785558 c -0.73797,0.06285 -1.45944,0.10665 -2.10219,0.113928 -2.6763,0.03109 -6.64969,-0.492697 -8.14842,-0.86235 -1.32241,-0.326832 -3.3256,-0.874701 -4.87471,-1.204042 -1.55539,-0.331861 -2.50489,-0.511222 -3.64468,-0.497859 z" /><path
       id="path78"
       style="display:inline;fill:#189ad3;fill-opacity:1;stroke:#107dac;stroke-width:0.3;stroke-dasharray:none;stroke-opacity:1"
       inkscape:label="wave3"
       d="m 130.50984,98.880762 c -0.86273,-0.0093 -1.5852,0.13887 -2.76277,0.416547 -1.17127,0.275162 -2.68894,0.736121 -3.6902,1.008791 -1.13349,0.30857 -4.1457,0.74708 -6.1797,0.72568 -0.83606,-0.009 -1.8317,-0.11035 -2.7985,-0.23752 v 5.82494 c 1.83366,-0.26889 3.6196,-0.66603 4.50045,-0.98602 1.24683,-0.45656 3.14714,-1.22155 4.61438,-1.68565 1.47355,-0.4673 2.37933,-0.71853 3.46243,-0.71916 1.08944,-6.3e-4 1.99236,0.25185 3.47222,0.71916 1.46095,0.46412 3.36753,1.22911 4.61438,1.68565 1.42317,0.51698 5.19454,1.27627 7.74489,1.27564 2.54406,-6.2e-4 6.31847,-0.75927 7.74162,-1.27564 0.63928,-0.23294 1.44604,-0.54562 2.27794,-0.85909 v -5.320543 c -0.18766,0.04168 -0.33247,0.06352 -0.54657,0.113927 -1.1713,0.275162 -2.68897,0.732866 -3.69023,1.005526 -1.13978,0.30918 -4.14567,0.75035 -6.17965,0.72894 -2.02769,-0.0212 -5.02334,-0.52598 -6.15683,-0.8591 -0.98865,-0.29341 -2.49922,-0.786512 -3.66421,-1.086887 -1.17126,-0.302883 -1.89682,-0.466299 -2.75954,-0.475098 z" /><path
       id="path79"
       style="display:inline;fill:#1ebbd7;fill-opacity:1;stroke:#107dac;stroke-width:0.3;stroke-dasharray:none;stroke-opacity:1"
       inkscape:label="wave4"
       d="m 127.65593,103.22832 c -1.0831,6.2e-4 -1.98888,0.25185 -3.46243,0.71916 -1.46724,0.46411 -3.36755,1.22912 -4.61438,1.68565 -0.88085,0.32001 -2.66679,0.71714 -4.50045,0.98602 v 3.97984 c 1.026,-0.24078 2.09506,-0.50178 3.0686,-0.6899 1.40428,-0.27078 2.26353,-0.41608 3.28997,-0.4035 1.02644,0.0119 1.87555,0.1748 3.26723,0.47834 1.37907,0.30162 3.16646,0.79543 4.33774,1.09014 1.3413,0.33379 4.90007,0.84378 7.3056,0.87212 2.41184,0.0284 5.98093,-0.39735 7.33482,-0.69964 1.19018,-0.26637 2.99822,-0.71713 4.3899,-0.98602 1.39797,-0.2708 2.26025,-0.41285 3.28667,-0.40027 0.70151,0.008 1.38117,0.11121 2.14778,0.25703 v -5.34332 c -0.8319,0.31347 -1.63866,0.62622 -2.27794,0.85908 -1.42315,0.5164 -5.19756,1.27502 -7.74162,1.27565 -2.55035,6.3e-4 -6.32172,-0.75864 -7.74489,-1.27565 -1.24685,-0.45656 -3.15343,-1.22154 -4.61438,-1.68564 -1.47986,-0.46724 -2.38278,-0.71979 -3.47222,-0.71916 z" /><path
       id="path80"
       style="display:inline;fill:#189ad3;fill-opacity:1;stroke:#107dac;stroke-width:0.3;stroke-dasharray:none;stroke-opacity:1"
       inkscape:label="wave5"
       d="m 121.43724,109.50558 c -1.02644,-0.0126 -1.88569,0.13272 -3.28997,0.40351 -0.97354,0.18809 -2.0426,0.44916 -3.0686,0.68989 v 7.22097 c 0.19584,0.0126 0.41372,0.0489 0.5957,0.0489 1.9899,-6.3e-4 4.93819,-0.82583 6.05278,-1.38629 0.97607,-0.49434 2.45949,-1.32568 3.60558,-1.82883 1.15239,-0.50625 1.86693,-0.77713 2.71074,-0.77774 0.85012,0 1.55503,0.27146 2.70741,0.77774 1.1461,0.50249 2.62957,1.33388 3.60563,1.82883 1.11461,0.5598 4.06301,1.38302 6.05922,1.38302 1.98991,-6.3e-4 4.93811,-0.82256 6.05271,-1.38302 0.97606,-0.49434 2.45956,-1.32568 3.60564,-1.82883 1.15238,-0.50625 1.86687,-0.78037 2.71068,-0.781 0.24812,0 0.48425,0.0324 0.72247,0.0781 v -3.83332 c -0.76661,-0.1459 -1.44626,-0.24897 -2.14777,-0.25704 -1.02642,-0.0125 -1.88871,0.12948 -3.28669,0.40026 -1.39166,0.26889 -3.19971,0.71965 -4.38989,0.98603 -1.35389,0.30229 -4.92299,0.72798 -7.33482,0.69964 -2.40552,-0.0284 -5.96429,-0.53836 -7.30559,-0.87212 -1.17129,-0.29467 -2.95868,-0.78851 -4.33775,-1.09014 -1.39168,-0.30354 -2.24079,-0.46636 -3.26722,-0.47835 z" /><path
       id="path81"
       style="display:inline;fill:#1ebbd7;fill-opacity:1;stroke:#107dac;stroke-width:0.3;stroke-dasharray:none;stroke-opacity:1"
       inkscape:label="wave6"
       d="m 152.78452,113.87265 c -0.84383,6.4e-4 -1.55831,0.27471 -2.71069,0.781 -1.14608,0.50316 -2.62957,1.33452 -3.60563,1.82884 -1.11462,0.56045 -4.06282,1.38239 -6.05272,1.38302 -1.99622,0 -4.94462,-0.8232 -6.05921,-1.38302 -0.97607,-0.49495 -2.45954,-1.32632 -3.60565,-1.82884 -1.15237,-0.50632 -1.85729,-0.77774 -2.70741,-0.77774 -0.84379,6.2e-4 -1.55835,0.27146 -2.71073,0.77774 -1.14608,0.50316 -2.62951,1.33452 -3.60558,1.82884 -1.11459,0.56045 -4.06288,1.38565 -6.05278,1.38628 -0.18199,0 -0.39987,-0.0358 -0.5957,-0.049 v 5.14156 c 1.28033,0.1261 2.58485,0.21667 3.68365,0.19198 2.78335,-0.0622 6.88225,-0.82013 8.42506,-1.30816 1.35388,-0.43137 3.42125,-1.15184 5.00812,-1.59454 1.5995,-0.44585 2.58746,-0.68883 3.76503,-0.7159 1.18388,-0.0265 2.17945,0.17202 3.80412,0.5467 1.60579,0.37153 3.69392,0.99971 5.06672,1.36999 1.56169,0.41873 5.69372,0.99627 8.47706,0.93392 0.063,-9.8e-4 0.13664,-0.0106 0.19838,-0.0132 v -8.42176 c -0.23867,-0.0457 -0.47418,-0.0781 -0.72249,-0.0781 z" /><path
       id="path82"
       style="display:inline;fill:#189ad3;fill-opacity:1;stroke:#107dac;stroke-width:0.3;stroke-dasharray:none;stroke-opacity:1"
       inkscape:label="wave7"
       d="m 135.96053,119.53489 c -1.17756,0.0272 -2.16554,0.27007 -3.76502,0.71592 -1.58688,0.44268 -3.65425,1.16318 -5.00813,1.59452 -1.54282,0.48801 -5.64172,1.24583 -8.42505,1.30817 -1.0988,0.0245 -2.40333,-0.0662 -3.68366,-0.19199 v 1.07713 a 6.6645114,6.6645087 0 0 0 1.14545,3.65766 c 1.03639,-0.16017 1.97455,-0.32895 2.52196,-0.47835 1.27203,-0.34634 3.20626,-0.9301 4.69245,-1.28211 1.49874,-0.35516 2.41881,-0.54094 3.51453,-0.54345 1.10206,6.3e-4 2.01554,0.19225 3.50796,0.54992 1.47354,0.35389 3.39425,0.93979 4.65998,1.28864 1.43576,0.39546 5.24442,0.97762 7.82625,0.97951 2.5819,0.002 6.40391,-0.57354 7.85226,-0.96649 0.60329,-0.16421 1.36518,-0.38433 2.14773,-0.6053 a 6.6645114,6.6645087 0 0 0 0.5598,-2.60007 v -1.66613 c -0.0629,0.002 -0.1379,0.0119 -0.19837,0.0132 -2.78334,0.0622 -6.91534,-0.51518 -8.47704,-0.93394 -1.37281,-0.3703 -3.46094,-0.99847 -5.06671,-1.36998 -1.6247,-0.37468 -2.62025,-0.57316 -3.80413,-0.54677 z" /><path
       id="path83"
       style="display:inline;fill:#1ebbd7;fill-opacity:1;stroke:#107dac;stroke-width:0.3;stroke-dasharray:none;stroke-opacity:1"
       inkscape:label="wave8"
       d="m 126.95306,125.39237 c -1.09572,0.003 -2.01579,0.18829 -3.51453,0.54344 -1.48619,0.35205 -3.42042,0.93578 -4.69245,1.28213 -0.5466,0.14927 -1.48682,0.32155 -2.52196,0.48158 a 6.6645114,6.6645087 0 0 0 5.51903,3.00359 h 25.09929 a 6.6645114,6.6645087 0 0 0 6.1048,-4.06443 c -0.78255,0.22097 -1.54457,0.44102 -2.14773,0.6053 -1.44835,0.39294 -5.27036,0.96837 -7.85226,0.96649 -2.58183,-0.002 -6.39049,-0.58406 -7.82625,-0.97952 -1.26573,-0.34884 -3.18644,-0.93473 -4.65998,-1.28863 -1.49242,-0.35767 -2.4059,-0.54932 -3.50796,-0.54992 z" /></g><text
     xml:space="preserve"
     style="font-size:31.75px;font-family:'JetBrainsMono Nerd Font';-inkscape-font-specification:'JetBrainsMono Nerd Font';text-align:start;writing-mode:lr-tb;direction:ltr;text-anchor:start;display:inline;fill:#005073;fill-opacity:1;stroke:#005073;stroke-width:0.705737;stroke-opacity:1"
     x="9.0162458"
     y="30.394787"
     id="text1"
     inkscape:label="R"><tspan
       sodipodi:role="line"
       id="tspan1"
       style="font-style:normal;font-variant:normal;font-weight:normal;font-stretch:normal;font-size:31.75px;font-family:Cambria;-inkscape-font-specification:Cambria;fill:#005073;fill-opacity:1;stroke:#005073;stroke-width:0.705737;stroke-opacity:1"
       x="9.0162458"
       y="30.394787">R</tspan></text><path
     style="display:inline;fill:none;fill-opacity:1;stroke:#005073;stroke-width:0.190562;stroke-linecap:round;stroke-linejoin:round;stroke-dasharray:none;stroke-opacity:1"
     id="rect7"
     width="6.1024303"
     height="6.1024299"
     x="115.53199"
     y="92.038628"
     inkscape:path-effect="#path-effect8"
     sodipodi:type="rect"
     d="m 116.59032,92.038628 h 3.98577 a 1.0583333,1.0583333 45 0 1 1.05833,1.058333 v 3.985763 a 1.0583333,1.0583333 135 0 1 -1.05833,1.058333 h -3.98577 a 1.0583333,1.0583333 45 0 1 -1.05833,-1.058333 v -3.985763 a 1.0583333,1.0583333 135 0 1 1.05833,-1.058333 z"
     transform="matrix(6.2971763,0,0,6.2971739,-726.92531,-578.98324)"
     inkscape:label="rec" /><metadata
     id="metadata7"><rdf:RDF><cc:Work
         rdf:about=""><dc:title>rodpcastro</dc:title><dc:date>10/05/2025</dc:date><dc:creator><cc:Agent><dc:title>Rodrigo Castro</dc:title></cc:Agent></dc:creator><dc:description>color palette: https://www.color-hex.com/color-palette/30415</dc:description></cc:Work></rdf:RDF></metadata></svg>
