<?xml version="1.0" encoding="UTF-8" standalone="no"?>
<!-- Created with Inkscape (http://www.inkscape.org/) -->

<svg
   width="39.687504mm"
   height="39.687508mm"
   viewBox="0 0 39.687504 39.687508"
   version="1.1"
   id="svg1"
   inkscape:version="1.4 (86a8ad7, 2024-10-11)"
   sodipodi:docname="rodpcastro_circle.svg"
   xml:space="preserve"
   inkscape:export-filename="rodpcastro_circle.png"
   inkscape:export-xdpi="384.63867"
   inkscape:export-ydpi="384.63867"
   xmlns:inkscape="http://www.inkscape.org/namespaces/inkscape"
   xmlns:sodipodi="http://sodipodi.sourceforge.net/DTD/sodipodi-0.dtd"
   xmlns:xlink="http://www.w3.org/1999/xlink"
   xmlns="http://www.w3.org/2000/svg"
   xmlns:svg="http://www.w3.org/2000/svg"
   xmlns:rdf="http://www.w3.org/1999/02/22-rdf-syntax-ns#"
   xmlns:cc="http://creativecommons.org/ns#"
   xmlns:dc="http://purl.org/dc/elements/1.1/"><sodipodi:namedview
     id="namedview1"
     pagecolor="#ffffff"
     bordercolor="#000000"
     borderopacity="0.25"
     inkscape:showpageshadow="2"
     inkscape:pageopacity="0.0"
     inkscape:pagecheckerboard="0"
     inkscape:deskcolor="#d1d1d1"
     inkscape:document-units="mm"
     inkscape:zoom="2.8284271"
     inkscape:cx="98.46462"
     inkscape:cy="70.180349"
     inkscape:window-width="1920"
     inkscape:window-height="974"
     inkscape:window-x="-11"
     inkscape:window-y="-11"
     inkscape:window-maximized="1"
     inkscape:current-layer="svg1"
     showgrid="true"><inkscape:grid
       id="grid1"
       units="mm"
       originx="-113.88604"
       originy="-91.909567"
       spacingx="0.99999998"
       spacingy="1"
       empcolor="#0099e5"
       empopacity="0.30196078"
       color="#0099e5"
       opacity="0.14901961"
       empspacing="5"
       enabled="true"
       visible="true" /></sodipodi:namedview><title
     id="title7">rodpcastro</title><defs
     id="defs1"><inkscape:path-effect
       effect="fillet_chamfer"
       id="path-effect8"
       is_visible="true"
       lpeversion="1"
       nodesatellites_param="F,0,0,1,0,1.0583333,0,1 @ F,0,0,1,0,1.0583333,0,1 @ F,0,0,1,0,1.0583333,0,1 @ F,0,0,1,0,1.0583333,0,1"
       radius="4"
       unit="px"
       method="auto"
       mode="F"
       chamfer_steps="1"
       flexible="false"
       use_knot_distance="true"
       apply_no_radius="true"
       apply_with_radius="true"
       only_selected="false"
       hide_knots="false" /><inkscape:path-effect
       effect="fillet_chamfer"
       id="path-effect7"
       is_visible="true"
       lpeversion="1"
       nodesatellites_param="F,0,0,1,0,0.52916665,0,1 @ F,0,0,1,0,0.52916665,0,1 @ F,0,0,1,0,0.52916665,0,1 @ F,0,0,1,0,0.52916665,0,1"
       radius="2"
       unit="px"
       method="auto"
       mode="F"
       chamfer_steps="1"
       flexible="false"
       use_knot_distance="true"
       apply_no_radius="true"
       apply_with_radius="true"
       only_selected="false"
       hide_knots="false" /><linearGradient
       id="swatch7"
       inkscape:swatch="solid"><stop
         style="stop-color:#000000;stop-opacity:1;"
         offset="0"
         id="stop7" /></linearGradient><linearGradient
       id="linearGradient1"
       inkscape:collect="always"><stop
         style="stop-color:#ffffff;stop-opacity:1;"
         offset="0"
         id="stop1" /><stop
         style="stop-color:#ffffff;stop-opacity:0;"
         offset="1"
         id="stop2" /></linearGradient><linearGradient
       inkscape:collect="always"
       xlink:href="#linearGradient1"
       id="linearGradient2"
       x1="114.63317"
       y1="109.02666"
       x2="116.32772"
       y2="109.02666"
       gradientUnits="userSpaceOnUse" /><inkscape:path-effect
       effect="fillet_chamfer"
       id="path-effect8-7"
       is_visible="true"
       lpeversion="1"
       nodesatellites_param="F,0,0,1,0,1.0583333,0,1 @ F,0,0,1,0,1.0583333,0,1 @ F,0,0,1,0,1.0583333,0,1 @ F,0,0,1,0,1.0583333,0,1"
       radius="4"
       unit="px"
       method="auto"
       mode="F"
       chamfer_steps="1"
       flexible="false"
       use_knot_distance="true"
       apply_no_radius="true"
       apply_with_radius="true"
       only_selected="false"
       hide_knots="false" /><filter
       inkscape:collect="always"
       style="color-interpolation-filters:sRGB"
       id="filter11"
       x="-0.087629092"
       y="-0.41365526"
       width="1.1752582"
       height="1.8273105"><feGaussianBlur
         inkscape:collect="always"
         stdDeviation="1.1638224"
         id="feGaussianBlur11" /></filter><filter
       inkscape:collect="always"
       style="color-interpolation-filters:sRGB"
       id="filter12"
       x="-0.076046943"
       y="-0.3447937"
       width="1.1520939"
       height="1.6895874"><feGaussianBlur
         inkscape:collect="always"
         stdDeviation="1.1638224"
         id="feGaussianBlur12" /></filter><filter
       inkscape:collect="always"
       style="color-interpolation-filters:sRGB"
       id="filter13"
       x="-0.07287906"
       y="-0.31747836"
       width="1.1457581"
       height="1.6349567"><feGaussianBlur
         inkscape:collect="always"
         stdDeviation="1.1638224"
         id="feGaussianBlur13" /></filter><filter
       inkscape:collect="always"
       style="color-interpolation-filters:sRGB"
       id="filter14"
       x="-0.072700127"
       y="-0.3310926"
       width="1.1454003"
       height="1.6621852"><feGaussianBlur
         inkscape:collect="always"
         stdDeviation="1.1638224"
         id="feGaussianBlur14" /></filter><filter
       inkscape:collect="always"
       style="color-interpolation-filters:sRGB"
       id="filter15"
       x="-0.075437908"
       y="-0.29952611"
       width="1.1508758"
       height="1.5990522"><feGaussianBlur
         inkscape:collect="always"
         stdDeviation="1.1638224"
         id="feGaussianBlur15" /></filter><filter
       inkscape:collect="always"
       style="color-interpolation-filters:sRGB"
       id="filter16"
       x="-0.090937835"
       y="-0.31900572"
       width="1.1818757"
       height="1.6380114"><feGaussianBlur
         inkscape:collect="always"
         stdDeviation="1.1638224"
         id="feGaussianBlur16" /></filter><filter
       inkscape:collect="always"
       style="color-interpolation-filters:sRGB"
       id="filter17"
       x="-0.13517448"
       y="-0.5581079"
       width="1.270349"
       height="2.1162158"><feGaussianBlur
         inkscape:collect="always"
         stdDeviation="1.1638224"
         id="feGaussianBlur17" /></filter><clipPath
       clipPathUnits="userSpaceOnUse"
       id="clipPath17"><ellipse
         style="display:inline;fill:none;stroke:#005073;stroke-width:1.2;stroke-linecap:round;stroke-linejoin:round;stroke-dasharray:none"
         id="ellipse18"
         cx="133.69684"
         cy="111.72037"
         rx="19.2108"
         ry="19.210802"
         inkscape:label="circ" /></clipPath><clipPath
       clipPathUnits="userSpaceOnUse"
       id="clipPath18"><ellipse
         style="display:inline;fill:none;stroke:#005073;stroke-width:1.2;stroke-linecap:round;stroke-linejoin:round;stroke-dasharray:none"
         id="ellipse19"
         cx="133.69684"
         cy="111.72037"
         rx="19.2108"
         ry="19.210802"
         inkscape:label="circ" /></clipPath><clipPath
       clipPathUnits="userSpaceOnUse"
       id="clipPath19"><ellipse
         style="display:inline;fill:none;stroke:#005073;stroke-width:1.2;stroke-linecap:round;stroke-linejoin:round;stroke-dasharray:none"
         id="ellipse20"
         cx="133.69684"
         cy="111.72037"
         rx="19.2108"
         ry="19.210802"
         inkscape:label="circ" /></clipPath><clipPath
       clipPathUnits="userSpaceOnUse"
       id="clipPath20"><ellipse
         style="display:inline;fill:none;stroke:#005073;stroke-width:1.2;stroke-linecap:round;stroke-linejoin:round;stroke-dasharray:none"
         id="ellipse21"
         cx="133.69684"
         cy="111.72037"
         rx="19.2108"
         ry="19.210802"
         inkscape:label="circ" /></clipPath><clipPath
       clipPathUnits="userSpaceOnUse"
       id="clipPath21"><ellipse
         style="display:inline;fill:none;stroke:#005073;stroke-width:1.2;stroke-linecap:round;stroke-linejoin:round;stroke-dasharray:none"
         id="ellipse22"
         cx="133.69684"
         cy="111.72037"
         rx="19.2108"
         ry="19.210802"
         inkscape:label="circ" /></clipPath><clipPath
       clipPathUnits="userSpaceOnUse"
       id="clipPath22"><ellipse
         style="display:inline;fill:none;stroke:#005073;stroke-width:1.2;stroke-linecap:round;stroke-linejoin:round;stroke-dasharray:none"
         id="ellipse23"
         cx="133.69684"
         cy="111.72037"
         rx="19.2108"
         ry="19.210802"
         inkscape:label="circ" /></clipPath><clipPath
       clipPathUnits="userSpaceOnUse"
       id="clipPath23"><ellipse
         style="display:inline;fill:none;stroke:#005073;stroke-width:1.2;stroke-linecap:round;stroke-linejoin:round;stroke-dasharray:none"
         id="ellipse24"
         cx="133.69684"
         cy="111.72037"
         rx="19.2108"
         ry="19.210802"
         inkscape:label="circ" /></clipPath></defs><g
     inkscape:groupmode="layer"
     id="layer1"
     inkscape:label="waves"
     style="display:inline;stroke:#107dac;stroke-opacity:1"
     transform="translate(-113.88604,-91.909563)"><path
       id="path2"
       style="display:inline;fill:#189ad3;fill-opacity:1;stroke:none;stroke-width:0.300499;stroke-dasharray:none;stroke-opacity:1"
       inkscape:label="wave1"
       d="m 133.73034,92.511834 a 19.242754,19.242752 0 0 0 -12.79332,4.894062 c 1.68749,-0.210082 3.25646,-0.479243 4.07627,-0.693978 1.31361,-0.345567 3.31828,-0.925565 4.85293,-1.279434 1.5536,-0.356407 2.50567,-0.546419 3.64876,-0.559131 1.1431,-0.01271 2.10186,0.158165 3.66179,0.480249 1.54729,0.320142 3.56262,0.853929 4.88887,1.170887 0.83567,0.199245 2.44454,0.435154 4.16437,0.608439 a 19.242754,19.242752 0 0 0 -12.49967,-4.621074 z" /><path
       id="path3"
       style="display:inline;fill:#005073;fill-opacity:1;stroke:none;stroke-width:0.3;stroke-dasharray:none;stroke-opacity:1;filter:url(#filter11)"
       inkscape:label="wave2 shadow"
       d="m 133.48239,94.268305 c -1.1412,0.01269 -2.09168,0.202387 -3.6427,0.558202 -1.53211,0.353276 -3.53345,0.932283 -4.84488,1.277303 -0.81845,0.214411 -2.38481,0.483059 -4.0695,0.692833 a 19.210802,19.2108 0 0 0 -3.38856,3.940267 c 2.02328,-0.0187 4.80107,-0.42522 5.88433,-0.72238 1.0025,-0.27513 2.52206,-0.740225 3.69479,-1.017904 1.17903,-0.280203 1.90241,-0.429823 2.76619,-0.420338 0.86378,0.0087 1.59025,0.173799 2.76297,0.479386 1.16643,0.303113 2.67887,0.800606 3.66875,1.096706 1.1349,0.33611 4.13425,0.84525 6.16445,0.86686 2.03652,0.0214 5.04615,-0.42348 6.18735,-0.73552 0.20239,-0.0554 0.5088,-0.13586 0.74613,-0.20359 a 19.210802,19.2108 0 0 0 -3.23541,-3.556082 c -1.71697,-0.172998 -3.32317,-0.408582 -4.15745,-0.607429 -1.32405,-0.316406 -3.33603,-0.849332 -4.88075,-1.168943 -1.55734,-0.321549 -2.51451,-0.492142 -3.65571,-0.479451 z"
       clip-path="url(#clipPath23)"
       transform="matrix(1.0016632,0,0,1.0016632,-0.18941804,-0.15286623)" /><path
       id="path2-1"
       style="display:inline;fill:#1ebbd7;fill-opacity:1;stroke:none;stroke-width:0.300499;stroke-dasharray:none;stroke-opacity:1"
       inkscape:label="wave2"
       d="m 133.51498,94.873353 c -1.14309,0.01271 -2.09516,0.202724 -3.64876,0.559131 -1.53465,0.353863 -3.53932,0.933833 -4.85293,1.279427 -0.81981,0.214768 -2.38878,0.483863 -4.07627,0.693985 a 19.242754,19.242752 0 0 0 -3.3942,3.946824 c 2.02665,-0.0187 4.80906,-0.42593 5.89412,-0.72358 1.00417,-0.27559 2.52625,-0.741461 3.70093,-1.019601 1.181,-0.28067 1.90558,-0.430538 2.77079,-0.421038 0.86522,0.0087 1.5929,0.174088 2.76757,0.480184 1.16837,0.303617 2.68333,0.801945 3.67485,1.098535 1.13679,0.33667 4.14113,0.84665 6.17471,0.8683 2.0399,0.0214 5.05454,-0.42418 6.19764,-0.73674 0.20272,-0.0555 0.50964,-0.13609 0.74737,-0.20393 a 19.242754,19.242752 0 0 0 -3.24079,-3.562002 c -1.71983,-0.173286 -3.3287,-0.409261 -4.16437,-0.608439 -1.32625,-0.316932 -3.34158,-0.850745 -4.88887,-1.170887 -1.55993,-0.322084 -2.51869,-0.492961 -3.66179,-0.480249 z" /><path
       id="path6"
       style="display:inline;fill:#005073;fill-opacity:1;stroke:none;stroke-width:0.3;stroke-dasharray:none;stroke-opacity:1;filter:url(#filter12)"
       inkscape:label="wave3 shadow"
       d="m 129.88206,98.576328 c -0.86378,-0.0094 -1.58716,0.140135 -2.76619,0.420338 -1.17273,0.277666 -2.69229,0.742774 -3.69479,1.017904 -1.08339,0.29716 -3.86099,0.70395 -5.88433,0.72238 a 19.210802,19.2108 0 0 0 -2.39475,5.54266 c 1.57214,-0.26551 3.02551,-0.60904 3.7925,-0.88985 1.2484,-0.46068 3.15113,-1.23259 4.62018,-1.7009 1.47537,-0.47149 2.38221,-0.72503 3.46667,-0.72567 1.09077,-6.3e-4 1.99484,0.25416 3.47652,0.72567 1.46276,0.46831 3.37172,1.24022 4.62011,1.7009 1.42492,0.52166 5.20099,1.28779 7.75451,1.28715 2.54721,-6.3e-4 6.32629,-0.76612 7.75122,-1.28715 0.35057,-0.12864 0.82017,-0.31192 1.24789,-0.47611 a 19.210802,19.2108 0 0 0 -2.45989,-4.83341 c -0.23707,0.0677 -0.54412,0.14801 -0.74613,0.20359 -1.1412,0.312 -4.15083,0.75712 -6.18735,0.73552 -2.0302,-0.0214 -5.02955,-0.53074 -6.16445,-0.86687 -0.98988,-0.29609 -2.50232,-0.793607 -3.66875,-1.096693 -1.17272,-0.305653 -1.89919,-0.470502 -2.76297,-0.479459 z"
       clip-path="url(#clipPath22)"
       transform="matrix(1.0016632,0,0,1.0016632,-0.18941804,-0.15286623)" /><path
       id="path2-8"
       style="display:inline;fill:#189ad3;fill-opacity:1;stroke:none;stroke-width:0.300499;stroke-dasharray:none;stroke-opacity:1"
       inkscape:label="wave3"
       d="m 129.90866,99.188541 c -0.86521,-0.0094 -1.58979,0.140369 -2.77079,0.421038 -1.17468,0.278127 -2.69676,0.744011 -3.70093,1.019601 -1.08519,0.29765 -3.86741,0.70512 -5.89412,0.72358 a 19.242754,19.242752 0 0 0 -2.39873,5.55188 c 1.57475,-0.26595 3.03054,-0.61005 3.79881,-0.89133 1.25047,-0.46145 3.15637,-1.23464 4.62786,-1.70373 1.47782,-0.47227 2.38617,-0.72624 3.47244,-0.72688 1.09258,-6.3e-4 1.99815,0.25459 3.4823,0.72688 1.46519,0.46909 3.37733,1.24228 4.62779,1.70373 1.42729,0.52253 5.20964,1.28993 7.76741,1.28929 2.55145,-6.3e-4 6.33681,-0.76739 7.76411,-1.28929 0.35116,-0.12886 0.82154,-0.31244 1.24997,-0.4769 a 19.242754,19.242752 0 0 0 -2.46398,-4.84145 c -0.23747,0.0678 -0.54503,0.14825 -0.74737,0.20393 -1.1431,0.31252 -4.15774,0.75838 -6.19764,0.73674 -2.03358,-0.0214 -5.03792,-0.53162 -6.17471,-0.86831 -0.99152,-0.29658 -2.50648,-0.794932 -3.67485,-1.098522 -1.17467,-0.306161 -1.90235,-0.471285 -2.76757,-0.480257 z" /><path
       id="path7"
       style="display:inline;fill:#005073;fill-opacity:1;stroke:none;stroke-width:0.3;stroke-dasharray:none;stroke-opacity:1;filter:url(#filter13)"
       inkscape:label="wave4 shadow"
       d="m 127.02464,102.96316 c -1.08446,6.3e-4 -1.99137,0.25416 -3.46674,0.72566 -1.46906,0.46831 -3.37172,1.24023 -4.62011,1.7009 -0.7675,0.281 -2.22245,0.62427 -3.79579,0.88985 a 19.210802,19.2108 0 0 0 -0.60276,4.0946 c 1.00098,-0.23672 2.0244,-0.48673 2.96492,-0.66984 1.40601,-0.2732 2.26633,-0.41988 3.29404,-0.40719 1.02772,0.012 1.87788,0.1764 3.27128,0.48266 1.3808,0.30438 3.1704,0.80263 4.34313,1.09999 1.34297,0.33678 4.90617,0.85141 7.31469,0.88 2.4148,0.0287 5.98835,-0.40097 7.34392,-0.70597 1.19164,-0.26877 3.00193,-0.7236 4.39534,-0.99491 1.39971,-0.27326 2.26305,-0.4166 3.29076,-0.40385 0.69022,0.008 1.35873,0.11049 2.10807,0.25283 a 19.210802,19.2108 0 0 0 -0.99379,-4.99102 c -0.42684,0.16386 -0.89486,0.34447 -1.2446,0.47285 -1.42493,0.52105 -5.20401,1.28652 -7.75123,1.28715 -2.55353,6.4e-4 -6.32959,-0.76549 -7.75452,-1.28715 -1.24838,-0.46069 -3.15735,-1.23259 -4.62011,-1.7009 -1.48166,-0.47149 -2.38574,-0.7263 -3.4765,-0.72566 z"
       clip-path="url(#clipPath21)"
       transform="matrix(1.0016632,0,0,1.0016632,-0.18941804,-0.15286623)" /><path
       id="path5"
       style="display:inline;fill:#1ebbd7;fill-opacity:1;stroke:none;stroke-width:0.300499;stroke-dasharray:none;stroke-opacity:1"
       inkscape:label="wave4"
       d="m 127.04649,103.58267 c -1.08626,6.3e-4 -1.99468,0.25459 -3.4725,0.72687 -1.47151,0.46909 -3.37733,1.24229 -4.6278,1.70373 -0.76877,0.28147 -2.22614,0.62531 -3.8021,0.89133 a 19.242754,19.242752 0 0 0 -0.60376,4.10141 c 1.00264,-0.23711 2.02776,-0.48754 2.96985,-0.67096 1.40835,-0.27365 2.2701,-0.42057 3.29952,-0.40786 1.02943,0.012 1.881,0.17669 3.27672,0.48346 1.38309,0.30489 3.17567,0.80397 4.35035,1.10182 1.3452,0.33734 4.91433,0.85283 7.32686,0.88146 2.41881,0.0288 5.99831,-0.40163 7.35613,-0.70714 1.19362,-0.26922 3.00692,-0.7248 4.40265,-0.99657 1.40204,-0.27371 2.26682,-0.41729 3.29624,-0.40452 0.69136,0.008 1.36099,0.11068 2.11157,0.25325 a 19.242754,19.242752 0 0 0 -0.99544,-4.99932 c -0.42755,0.16413 -0.89635,0.34505 -1.24667,0.47364 -1.4273,0.52192 -5.21267,1.28866 -7.76412,1.28929 -2.55778,6.4e-4 -6.34012,-0.76676 -7.76742,-1.28929 -1.25046,-0.46146 -3.1626,-1.23464 -4.6278,-1.70373 -1.48412,-0.47227 -2.3897,-0.72751 -3.48228,-0.72687 z" /><path
       id="path8"
       style="display:inline;fill:#005073;fill-opacity:1;stroke:none;stroke-width:0.3;stroke-dasharray:none;stroke-opacity:1;filter:url(#filter14)"
       inkscape:label="wave5 shadow"
       d="m 120.7982,109.29716 c -1.02771,-0.0127 -1.88803,0.13392 -3.29404,0.40718 -0.94052,0.18315 -1.96394,0.43316 -2.96492,0.66984 a 19.210802,19.2108 0 0 0 -0.0504,0.74536 19.210802,19.2108 0 0 0 1.2055,6.56055 c 1.93886,-0.14274 4.39346,-0.83514 5.39563,-1.34296 0.97728,-0.49883 2.46254,-1.33768 3.61005,-1.84537 1.15381,-0.51085 1.86924,-0.78414 2.71412,-0.78477 0.85117,0 1.55695,0.27392 2.71077,0.78477 1.1475,0.50703 2.63283,1.34593 3.6101,1.84537 1.11599,0.56487 4.06805,1.3955 6.06673,1.3955 1.99237,-6.4e-4 4.94426,-0.82999 6.06024,-1.3955 0.97727,-0.49883 2.4626,-1.33768 3.61011,-1.84537 1.15381,-0.51085 1.86917,-0.78741 2.71404,-0.78805 0.18348,0 0.35813,0.02 0.53404,0.0461 a 19.210802,19.2108 0 0 0 0.18915,-2.63013 19.210802,19.2108 0 0 0 -0.0441,-1.21163 c -0.74934,-0.14233 -1.41786,-0.24473 -2.10807,-0.25282 -1.02772,-0.0127 -1.89106,0.13066 -3.29076,0.40384 -1.39341,0.27132 -3.20369,0.72615 -4.39534,0.99493 -1.35558,0.30498 -4.92912,0.73455 -7.34393,0.70596 -2.40851,-0.0287 -5.97171,-0.54325 -7.31468,-0.87999 -1.17273,-0.29737 -2.96234,-0.79564 -4.34313,-1.09999 -1.3934,-0.30626 -2.24357,-0.47057 -3.27128,-0.48266 z"
       clip-path="url(#clipPath20)"
       transform="matrix(1.0016632,0,0,1.0016632,-0.18941804,-0.15286623)" /><path
       id="path2-19"
       style="display:inline;fill:#189ad3;fill-opacity:1;stroke:none;stroke-width:0.300499;stroke-dasharray:none;stroke-opacity:1"
       inkscape:label="wave5"
       d="m 120.8097,109.92721 c -1.02942,-0.0127 -1.89117,0.13414 -3.29952,0.40785 -0.94209,0.18346 -1.96721,0.43389 -2.96985,0.67096 a 19.242754,19.242752 0 0 0 -0.0505,0.7466 19.242754,19.242752 0 0 0 1.20751,6.57146 c 1.94208,-0.14298 4.40076,-0.83653 5.4046,-1.34519 0.97891,-0.49966 2.46664,-1.33991 3.61606,-1.84844 1.15573,-0.5117 1.87235,-0.78545 2.71863,-0.78608 0.85259,0 1.55954,0.27438 2.71528,0.78608 1.14941,0.50787 2.63721,1.34817 3.6161,1.84844 1.11785,0.56581 4.07482,1.39782 6.07682,1.39782 1.99569,-6.4e-4 4.95249,-0.83137 6.07032,-1.39782 0.9789,-0.49966 2.4667,-1.33991 3.61612,-1.84844 1.15573,-0.5117 1.87228,-0.78872 2.71855,-0.78936 0.18379,0 0.35873,0.02 0.53493,0.0462 a 19.242754,19.242752 0 0 0 0.18946,-2.6345 19.242754,19.242752 0 0 0 -0.0442,-1.21365 c -0.75059,-0.14256 -1.42022,-0.24513 -2.11158,-0.25324 -1.02942,-0.0127 -1.8942,0.13088 -3.29623,0.40451 -1.39573,0.27178 -3.20902,0.72736 -4.40265,0.99659 -1.35783,0.30549 -4.93732,0.73577 -7.35614,0.70713 -2.41252,-0.0287 -5.98165,-0.54415 -7.32685,-0.88145 -1.17468,-0.29786 -2.96727,-0.79696 -4.35035,-1.10182 -1.39572,-0.30677 -2.2473,-0.47135 -3.27672,-0.48346 z" /><path
       id="path9"
       style="display:inline;fill:#005073;fill-opacity:1;stroke:none;stroke-width:0.3;stroke-dasharray:none;stroke-opacity:1;filter:url(#filter15)"
       inkscape:label="wave6 shadow"
       d="m 152.18439,113.7037 c -0.84486,6.4e-4 -1.56024,0.27713 -2.71405,0.78805 -1.1475,0.5077 -2.63283,1.34656 -3.61011,1.84536 -1.11598,0.56555 -4.06785,1.39487 -6.06023,1.39551 -1.99868,0 -4.95075,-0.83064 -6.06673,-1.39551 -0.97726,-0.49942 -2.4626,-1.33831 -3.61011,-1.84536 -1.15381,-0.51085 -1.85959,-0.78478 -2.71077,-0.78478 -0.84487,6.4e-4 -1.5603,0.27392 -2.71411,0.78478 -1.14751,0.5077 -2.63277,1.34656 -3.61004,1.84536 -1.00219,0.50784 -3.45678,1.20026 -5.39563,1.34297 a 19.210802,19.2108 0 0 0 2.98126,5.34893 c 2.75465,-0.13546 6.43349,-0.81791 7.88483,-1.28059 1.35556,-0.43524 3.4255,-1.16225 5.01436,-1.60894 1.60147,-0.44986 2.59071,-0.6957 3.76975,-0.72238 1.18534,-0.0274 2.18216,0.1736 3.80884,0.55166 1.60779,0.37491 3.69852,1.00875 5.07301,1.38237 1.00431,0.27138 3.07621,0.59147 5.16422,0.78149 a 19.210802,19.2108 0 0 0 3.32986,-8.38294 c -0.1759,-0.0254 -0.35055,-0.0454 -0.53404,-0.0454 z"
       clip-path="url(#clipPath19)"
       transform="matrix(1.0016632,0,0,1.0016632,-0.18941804,-0.15286623)" /><path
       id="path2-0"
       style="display:inline;fill:#1ebbd7;fill-opacity:1;stroke:none;stroke-width:0.300499;stroke-dasharray:none;stroke-opacity:1"
       inkscape:label="wave6"
       d="m 152.24809,114.34108 c -0.84627,6.4e-4 -1.56284,0.27759 -2.71857,0.78936 -1.1494,0.50854 -2.6372,1.3488 -3.61611,1.84843 -1.11784,0.56649 -4.07462,1.39719 -6.07031,1.39783 -2.002,0 -4.95898,-0.83202 -6.07682,-1.39783 -0.97889,-0.50025 -2.4667,-1.34054 -3.61611,-1.84843 -1.15573,-0.5117 -1.86269,-0.78609 -2.71528,-0.78609 -0.84628,6.4e-4 -1.5629,0.27438 -2.71863,0.78609 -1.14942,0.50854 -2.63715,1.3488 -3.61604,1.84843 -1.00386,0.50868 -3.46253,1.20225 -5.40461,1.3452 a 19.242754,19.242752 0 0 0 2.98622,5.35783 c 2.75923,-0.13569 6.44419,-0.81927 7.89795,-1.28272 1.35781,-0.43597 3.43119,-1.16419 5.0227,-1.61162 1.60413,-0.45061 2.59502,-0.69686 3.77602,-0.72358 1.18731,-0.0275 2.18579,0.17389 3.81517,0.55258 1.61047,0.37553 3.70467,1.01042 5.08145,1.38467 1.00598,0.27183 3.08133,0.59245 5.17281,0.78279 a 19.242754,19.242752 0 0 0 3.3354,-8.39689 c -0.1762,-0.0254 -0.35114,-0.0455 -0.53493,-0.0455 z" /><path
       id="path10"
       style="display:inline;fill:#005073;fill-opacity:1;stroke:none;stroke-width:0.3;stroke-dasharray:none;stroke-opacity:1;filter:url(#filter16)"
       inkscape:label="wave7 shadow"
       d="m 135.34281,119.4171 c -1.17904,0.0267 -2.16828,0.27252 -3.76975,0.72238 -1.58886,0.44672 -3.6588,1.17368 -5.01436,1.60894 -1.45134,0.46268 -5.13018,1.14512 -7.88483,1.28059 a 19.210802,19.2108 0 0 0 3.1279,3.12266 c 0.34677,-0.0922 0.68339,-0.20025 1.00023,-0.27586 1.50058,-0.35834 2.42181,-0.54584 3.51886,-0.54838 1.10339,6.3e-4 2.01806,0.19398 3.51233,0.55493 1.47537,0.35708 3.39846,0.94827 4.66576,1.30029 1.43754,0.39904 5.25092,0.98644 7.83597,0.98835 0.0378,3e-5 0.0902,-0.006 0.13051,-0.006 a 19.210802,19.2108 0 0 0 6.92364,-6.03189 c -2.08802,-0.19002 -4.15991,-0.51011 -5.16423,-0.78149 -1.37449,-0.37364 -3.46522,-1.00748 -5.07299,-1.38237 -1.62669,-0.37806 -2.62351,-0.57898 -3.80886,-0.55166 z"
       clip-path="url(#clipPath18)"
       transform="matrix(1.0016632,0,0,1.0016632,-0.18941804,-0.15286623)" /><path
       id="path2-02"
       style="display:inline;fill:#189ad3;fill-opacity:1;stroke:none;stroke-width:0.300499;stroke-dasharray:none;stroke-opacity:1"
       inkscape:label="wave7"
       d="m 135.3785,120.06398 c -1.181,0.0267 -2.17189,0.27297 -3.77602,0.72358 -1.59151,0.44746 -3.66489,1.17563 -5.0227,1.61162 -1.45376,0.46345 -5.13872,1.14702 -7.89795,1.28272 a 19.242754,19.242752 0 0 0 3.13311,3.12785 c 0.34734,-0.0923 0.68452,-0.20058 1.00189,-0.27632 1.50308,-0.35893 2.42584,-0.54675 3.52471,-0.54929 1.10523,6.3e-4 2.02142,0.1943 3.51817,0.55585 1.47783,0.35768 3.40412,0.94985 4.67352,1.30246 1.43993,0.3997 5.25966,0.98808 7.84901,0.98999 0.0379,3e-5 0.0904,-0.006 0.13072,-0.006 a 19.242754,19.242752 0 0 0 6.93516,-6.04192 c -2.09149,-0.19034 -4.16683,-0.51096 -5.17282,-0.78279 -1.37678,-0.37426 -3.47098,-1.00916 -5.08143,-1.38467 -1.62939,-0.37869 -2.62787,-0.57995 -3.81519,-0.55258 z" /><path
       id="path11"
       style="display:inline;fill:#005073;fill-opacity:1;stroke:none;stroke-width:0.3;stroke-dasharray:none;stroke-opacity:1;filter:url(#filter17)"
       inkscape:label="wave8 shadow"
       d="m 126.32086,125.32749 c -1.09705,0.003 -2.01828,0.18998 -3.51886,0.54839 -0.31715,0.0756 -0.65359,0.18362 -1.00023,0.27586 a 19.210802,19.2108 0 0 0 11.89562,4.17998 19.210802,19.2108 0 0 0 8.76785,-2.16715 c -0.0378,2.4e-4 -0.0908,0.006 -0.1305,0.006 -2.58506,-0.002 -6.39843,-0.58932 -7.83598,-0.98835 -1.2673,-0.352 -3.19039,-0.94319 -4.66576,-1.30029 -1.49428,-0.36089 -2.40894,-0.55426 -3.51232,-0.55493 z"
       clip-path="url(#clipPath17)"
       transform="matrix(1.0016632,0,0,1.0016632,-0.18941804,-0.15286623)" /><path
       id="path2-5"
       style="display:inline;fill:#1ebbd7;fill-opacity:1;stroke:none;stroke-width:0.300499;stroke-dasharray:none;stroke-opacity:1"
       inkscape:label="wave8"
       d="m 126.34154,125.9842 c -1.09887,0.003 -2.02163,0.1903 -3.52471,0.5493 -0.31768,0.0757 -0.65468,0.18393 -1.00189,0.27632 a 19.242754,19.242752 0 0 0 11.9154,4.18693 19.242754,19.242752 0 0 0 8.78243,-2.17075 c -0.0379,2.4e-4 -0.0909,0.006 -0.13071,0.006 -2.58936,-0.002 -6.40908,-0.5903 -7.84902,-0.99 -1.2694,-0.35258 -3.19569,-0.94475 -4.67352,-1.30245 -1.49676,-0.36149 -2.41294,-0.55518 -3.51816,-0.55585 z" /></g><text
     xml:space="preserve"
     style="font-size:31.8028px;font-family:'JetBrainsMono Nerd Font';-inkscape-font-specification:'JetBrainsMono Nerd Font';text-align:start;writing-mode:lr-tb;direction:ltr;text-anchor:start;display:inline;fill:#005073;fill-opacity:1;stroke:#005073;stroke-width:0.71054;stroke-opacity:1"
     x="9.1050968"
     y="30.365305"
     id="text1"
     inkscape:label="R"
     transform="scale(0.99612993,1.0038851)"><tspan
       sodipodi:role="line"
       id="tspan1"
       style="font-style:normal;font-variant:normal;font-weight:normal;font-stretch:normal;font-size:31.8028px;font-family:Cambria;-inkscape-font-specification:Cambria;fill:#005073;fill-opacity:1;stroke:#005073;stroke-width:0.71054;stroke-opacity:1"
       x="9.1050968"
       y="30.365305">R</tspan></text><metadata
     id="metadata7"><rdf:RDF><cc:Work
         rdf:about=""><dc:title>rodpcastro</dc:title><dc:date>10/05/2025</dc:date><dc:creator><cc:Agent><dc:title>Rodrigo Castro</dc:title></cc:Agent></dc:creator><dc:description>color palette: https://www.color-hex.com/color-palette/30415</dc:description></cc:Work></rdf:RDF></metadata><ellipse
     style="display:inline;fill:none;stroke:#005073;stroke-width:1.202;stroke-linecap:round;stroke-linejoin:round;stroke-dasharray:none"
     id="path4"
     cx="19.843752"
     cy="19.843754"
     rx="19.242752"
     ry="19.242754"
     inkscape:label="circ" /></svg>
