<?xml version="1.0" encoding="UTF-8" standalone="no"?>
<!-- Created with Inkscape (http://www.inkscape.org/) -->

<svg
   width="9.260416mm"
   height="9.2604122mm"
   viewBox="0 0 9.2604163 9.2604122"
   version="1.1"
   id="svg1"
   inkscape:version="1.4 (86a8ad7, 2024-10-11)"
   sodipodi:docname="rodpcastro_label.svg"
   xml:space="preserve"
   inkscape:export-filename="apple-touch-icon.png"
   inkscape:export-xdpi="115.37273"
   inkscape:export-ydpi="115.37273"
   xmlns:inkscape="http://www.inkscape.org/namespaces/inkscape"
   xmlns:sodipodi="http://sodipodi.sourceforge.net/DTD/sodipodi-0.dtd"
   xmlns:xlink="http://www.w3.org/1999/xlink"
   xmlns="http://www.w3.org/2000/svg"
   xmlns:svg="http://www.w3.org/2000/svg"
   xmlns:rdf="http://www.w3.org/1999/02/22-rdf-syntax-ns#"
   xmlns:cc="http://creativecommons.org/ns#"
   xmlns:dc="http://purl.org/dc/elements/1.1/"><sodipodi:namedview
     id="namedview1"
     pagecolor="#ffffff"
     bordercolor="#000000"
     borderopacity="0.25"
     inkscape:showpageshadow="2"
     inkscape:pageopacity="0.0"
     inkscape:pagecheckerboard="0"
     inkscape:deskcolor="#d1d1d1"
     inkscape:document-units="mm"
     inkscape:zoom="8.0000004"
     inkscape:cx="21.624999"
     inkscape:cy="13.937499"
     inkscape:window-width="1920"
     inkscape:window-height="974"
     inkscape:window-x="-11"
     inkscape:window-y="-11"
     inkscape:window-maximized="1"
     inkscape:current-layer="svg1"
     showgrid="true"><inkscape:grid
       id="grid1"
       units="mm"
       originx="-114.47877"
       originy="-91.673586"
       spacingx="0.99999998"
       spacingy="1"
       empcolor="#0099e5"
       empopacity="0.30196078"
       color="#0099e5"
       opacity="0.14901961"
       empspacing="5"
       enabled="true"
       visible="true" /></sodipodi:namedview><title
     id="title7">rodpcastro</title><defs
     id="defs1"><inkscape:path-effect
       effect="fillet_chamfer"
       id="path-effect2"
       is_visible="true"
       lpeversion="1"
       nodesatellites_param="F,0,0,1,0,1.0583333,0,1 @ F,0,0,1,0,1.0583333,0,1 @ F,0,0,1,0,1.0583333,0,1 @ F,0,0,1,0,1.0583333,0,1"
       radius="4"
       unit="px"
       method="auto"
       mode="F"
       chamfer_steps="1"
       flexible="false"
       use_knot_distance="true"
       apply_no_radius="true"
       apply_with_radius="true"
       only_selected="false"
       hide_knots="false" /><inkscape:path-effect
       effect="fillet_chamfer"
       id="path-effect71"
       is_visible="true"
       lpeversion="1"
       nodesatellites_param="F,0,0,1,0,1.0583333,0,1 @ F,0,0,1,0,1.0583333,0,1 @ F,0,0,1,0,1.0583333,0,1 @ F,0,0,1,0,1.0583333,0,1"
       radius="4"
       unit="px"
       method="auto"
       mode="F"
       chamfer_steps="1"
       flexible="false"
       use_knot_distance="true"
       apply_no_radius="true"
       apply_with_radius="true"
       only_selected="false"
       hide_knots="false" /><inkscape:path-effect
       effect="fillet_chamfer"
       id="path-effect115"
       is_visible="true"
       lpeversion="1"
       nodesatellites_param="F,0,0,1,0,1.0583333,0,1 @ F,0,0,1,0,1.0583333,0,1 @ F,0,0,1,0,1.0583333,0,1 @ F,0,0,1,0,1.0583333,0,1"
       radius="4"
       unit="px"
       method="auto"
       mode="F"
       chamfer_steps="1"
       flexible="false"
       use_knot_distance="true"
       apply_no_radius="true"
       apply_with_radius="true"
       only_selected="false"
       hide_knots="false" /><inkscape:path-effect
       effect="fillet_chamfer"
       id="path-effect113"
       is_visible="true"
       lpeversion="1"
       nodesatellites_param="F,0,0,1,0,1.0583333,0,1 @ F,0,0,1,0,1.0583333,0,1 @ F,0,0,1,0,1.0583333,0,1 @ F,0,0,1,0,1.0583333,0,1"
       radius="4"
       unit="px"
       method="auto"
       mode="F"
       chamfer_steps="1"
       flexible="false"
       use_knot_distance="true"
       apply_no_radius="true"
       apply_with_radius="true"
       only_selected="false"
       hide_knots="false" /><inkscape:path-effect
       effect="fillet_chamfer"
       id="path-effect111"
       is_visible="true"
       lpeversion="1"
       nodesatellites_param="F,0,0,1,0,1.0583333,0,1 @ F,0,0,1,0,1.0583333,0,1 @ F,0,0,1,0,1.0583333,0,1 @ F,0,0,1,0,1.0583333,0,1"
       radius="4"
       unit="px"
       method="auto"
       mode="F"
       chamfer_steps="1"
       flexible="false"
       use_knot_distance="true"
       apply_no_radius="true"
       apply_with_radius="true"
       only_selected="false"
       hide_knots="false" /><inkscape:path-effect
       effect="fillet_chamfer"
       id="path-effect109"
       is_visible="true"
       lpeversion="1"
       nodesatellites_param="F,0,0,1,0,1.0583333,0,1 @ F,0,0,1,0,1.0583333,0,1 @ F,0,0,1,0,1.0583333,0,1 @ F,0,0,1,0,1.0583333,0,1"
       radius="4"
       unit="px"
       method="auto"
       mode="F"
       chamfer_steps="1"
       flexible="false"
       use_knot_distance="true"
       apply_no_radius="true"
       apply_with_radius="true"
       only_selected="false"
       hide_knots="false" /><inkscape:path-effect
       effect="fillet_chamfer"
       id="path-effect107"
       is_visible="true"
       lpeversion="1"
       nodesatellites_param="F,0,0,1,0,1.0583333,0,1 @ F,0,0,1,0,1.0583333,0,1 @ F,0,0,1,0,1.0583333,0,1 @ F,0,0,1,0,1.0583333,0,1"
       radius="4"
       unit="px"
       method="auto"
       mode="F"
       chamfer_steps="1"
       flexible="false"
       use_knot_distance="true"
       apply_no_radius="true"
       apply_with_radius="true"
       only_selected="false"
       hide_knots="false" /><inkscape:path-effect
       effect="fillet_chamfer"
       id="path-effect105"
       is_visible="true"
       lpeversion="1"
       nodesatellites_param="F,0,0,1,0,1.0583333,0,1 @ F,0,0,1,0,1.0583333,0,1 @ F,0,0,1,0,1.0583333,0,1 @ F,0,0,1,0,1.0583333,0,1"
       radius="4"
       unit="px"
       method="auto"
       mode="F"
       chamfer_steps="1"
       flexible="false"
       use_knot_distance="true"
       apply_no_radius="true"
       apply_with_radius="true"
       only_selected="false"
       hide_knots="false" /><inkscape:path-effect
       effect="fillet_chamfer"
       id="path-effect103"
       is_visible="true"
       lpeversion="1"
       nodesatellites_param="F,0,0,1,0,1.0583333,0,1 @ F,0,0,1,0,1.0583333,0,1 @ F,0,0,1,0,1.0583333,0,1 @ F,0,0,1,0,1.0583333,0,1"
       radius="4"
       unit="px"
       method="auto"
       mode="F"
       chamfer_steps="1"
       flexible="false"
       use_knot_distance="true"
       apply_no_radius="true"
       apply_with_radius="true"
       only_selected="false"
       hide_knots="false" /><inkscape:path-effect
       effect="fillet_chamfer"
       id="path-effect101"
       is_visible="true"
       lpeversion="1"
       nodesatellites_param="F,0,0,1,0,1.0583333,0,1 @ F,0,0,1,0,1.0583333,0,1 @ F,0,0,1,0,1.0583333,0,1 @ F,0,0,1,0,1.0583333,0,1"
       radius="4"
       unit="px"
       method="auto"
       mode="F"
       chamfer_steps="1"
       flexible="false"
       use_knot_distance="true"
       apply_no_radius="true"
       apply_with_radius="true"
       only_selected="false"
       hide_knots="false" /><inkscape:path-effect
       effect="fillet_chamfer"
       id="path-effect99"
       is_visible="true"
       lpeversion="1"
       nodesatellites_param="F,0,0,1,0,1.0583333,0,1 @ F,0,0,1,0,1.0583333,0,1 @ F,0,0,1,0,1.0583333,0,1 @ F,0,0,1,0,1.0583333,0,1"
       radius="4"
       unit="px"
       method="auto"
       mode="F"
       chamfer_steps="1"
       flexible="false"
       use_knot_distance="true"
       apply_no_radius="true"
       apply_with_radius="true"
       only_selected="false"
       hide_knots="false" /><inkscape:path-effect
       effect="fillet_chamfer"
       id="path-effect97"
       is_visible="true"
       lpeversion="1"
       nodesatellites_param="F,0,0,1,0,1.0583333,0,1 @ F,0,0,1,0,1.0583333,0,1 @ F,0,0,1,0,1.0583333,0,1 @ F,0,0,1,0,1.0583333,0,1"
       radius="4"
       unit="px"
       method="auto"
       mode="F"
       chamfer_steps="1"
       flexible="false"
       use_knot_distance="true"
       apply_no_radius="true"
       apply_with_radius="true"
       only_selected="false"
       hide_knots="false" /><inkscape:path-effect
       effect="fillet_chamfer"
       id="path-effect95"
       is_visible="true"
       lpeversion="1"
       nodesatellites_param="F,0,0,1,0,1.0583333,0,1 @ F,0,0,1,0,1.0583333,0,1 @ F,0,0,1,0,1.0583333,0,1 @ F,0,0,1,0,1.0583333,0,1"
       radius="4"
       unit="px"
       method="auto"
       mode="F"
       chamfer_steps="1"
       flexible="false"
       use_knot_distance="true"
       apply_no_radius="true"
       apply_with_radius="true"
       only_selected="false"
       hide_knots="false" /><inkscape:path-effect
       effect="fillet_chamfer"
       id="path-effect93"
       is_visible="true"
       lpeversion="1"
       nodesatellites_param="F,0,0,1,0,1.0583333,0,1 @ F,0,0,1,0,1.0583333,0,1 @ F,0,0,1,0,1.0583333,0,1 @ F,0,0,1,0,1.0583333,0,1"
       radius="4"
       unit="px"
       method="auto"
       mode="F"
       chamfer_steps="1"
       flexible="false"
       use_knot_distance="true"
       apply_no_radius="true"
       apply_with_radius="true"
       only_selected="false"
       hide_knots="false" /><inkscape:path-effect
       effect="fillet_chamfer"
       id="path-effect91"
       is_visible="true"
       lpeversion="1"
       nodesatellites_param="F,0,0,1,0,1.0583333,0,1 @ F,0,0,1,0,1.0583333,0,1 @ F,0,0,1,0,1.0583333,0,1 @ F,0,0,1,0,1.0583333,0,1"
       radius="4"
       unit="px"
       method="auto"
       mode="F"
       chamfer_steps="1"
       flexible="false"
       use_knot_distance="true"
       apply_no_radius="true"
       apply_with_radius="true"
       only_selected="false"
       hide_knots="false" /><inkscape:path-effect
       effect="fillet_chamfer"
       id="path-effect89"
       is_visible="true"
       lpeversion="1"
       nodesatellites_param="F,0,0,1,0,1.0583333,0,1 @ F,0,0,1,0,1.0583333,0,1 @ F,0,0,1,0,1.0583333,0,1 @ F,0,0,1,0,1.0583333,0,1"
       radius="4"
       unit="px"
       method="auto"
       mode="F"
       chamfer_steps="1"
       flexible="false"
       use_knot_distance="true"
       apply_no_radius="true"
       apply_with_radius="true"
       only_selected="false"
       hide_knots="false" /><inkscape:path-effect
       effect="fillet_chamfer"
       id="path-effect87"
       is_visible="true"
       lpeversion="1"
       nodesatellites_param="F,0,0,1,0,1.0583333,0,1 @ F,0,0,1,0,1.0583333,0,1 @ F,0,0,1,0,1.0583333,0,1 @ F,0,0,1,0,1.0583333,0,1"
       radius="4"
       unit="px"
       method="auto"
       mode="F"
       chamfer_steps="1"
       flexible="false"
       use_knot_distance="true"
       apply_no_radius="true"
       apply_with_radius="true"
       only_selected="false"
       hide_knots="false" /><inkscape:path-effect
       effect="fillet_chamfer"
       id="path-effect85"
       is_visible="true"
       lpeversion="1"
       nodesatellites_param="F,0,0,1,0,1.0583333,0,1 @ F,0,0,1,0,1.0583333,0,1 @ F,0,0,1,0,1.0583333,0,1 @ F,0,0,1,0,1.0583333,0,1"
       radius="4"
       unit="px"
       method="auto"
       mode="F"
       chamfer_steps="1"
       flexible="false"
       use_knot_distance="true"
       apply_no_radius="true"
       apply_with_radius="true"
       only_selected="false"
       hide_knots="false" /><inkscape:path-effect
       effect="fillet_chamfer"
       id="path-effect30"
       is_visible="true"
       lpeversion="1"
       nodesatellites_param="F,0,0,1,0,1.0583333,0,1 @ F,0,0,1,0,1.0583333,0,1 @ F,0,0,1,0,1.0583333,0,1 @ F,0,0,1,0,1.0583333,0,1"
       radius="4"
       unit="px"
       method="auto"
       mode="F"
       chamfer_steps="1"
       flexible="false"
       use_knot_distance="true"
       apply_no_radius="true"
       apply_with_radius="true"
       only_selected="false"
       hide_knots="false" /><inkscape:path-effect
       effect="fillet_chamfer"
       id="path-effect21"
       is_visible="true"
       lpeversion="1"
       nodesatellites_param="F,0,0,1,0,1.0583333,0,1 @ F,0,0,1,0,1.0583333,0,1 @ F,0,0,1,0,1.0583333,0,1 @ F,0,0,1,0,1.0583333,0,1"
       radius="4"
       unit="px"
       method="auto"
       mode="F"
       chamfer_steps="1"
       flexible="false"
       use_knot_distance="true"
       apply_no_radius="true"
       apply_with_radius="true"
       only_selected="false"
       hide_knots="false" /><inkscape:path-effect
       effect="fillet_chamfer"
       id="path-effect8"
       is_visible="true"
       lpeversion="1"
       nodesatellites_param="F,0,0,1,0,1.0583333,0,1 @ F,0,0,1,0,1.0583333,0,1 @ F,0,0,1,0,1.0583333,0,1 @ F,0,0,1,0,1.0583333,0,1"
       radius="4"
       unit="px"
       method="auto"
       mode="F"
       chamfer_steps="1"
       flexible="false"
       use_knot_distance="true"
       apply_no_radius="true"
       apply_with_radius="true"
       only_selected="false"
       hide_knots="false" /><inkscape:path-effect
       effect="fillet_chamfer"
       id="path-effect7"
       is_visible="true"
       lpeversion="1"
       nodesatellites_param="F,0,0,1,0,0.52916665,0,1 @ F,0,0,1,0,0.52916665,0,1 @ F,0,0,1,0,0.52916665,0,1 @ F,0,0,1,0,0.52916665,0,1"
       radius="2"
       unit="px"
       method="auto"
       mode="F"
       chamfer_steps="1"
       flexible="false"
       use_knot_distance="true"
       apply_no_radius="true"
       apply_with_radius="true"
       only_selected="false"
       hide_knots="false" /><linearGradient
       id="swatch7"
       inkscape:swatch="solid"><stop
         style="stop-color:#000000;stop-opacity:1;"
         offset="0"
         id="stop7" /></linearGradient><linearGradient
       id="linearGradient1"
       inkscape:collect="always"><stop
         style="stop-color:#ffffff;stop-opacity:1;"
         offset="0"
         id="stop1" /><stop
         style="stop-color:#ffffff;stop-opacity:0;"
         offset="1"
         id="stop2" /></linearGradient><linearGradient
       inkscape:collect="always"
       xlink:href="#linearGradient1"
       id="linearGradient2"
       x1="114.63317"
       y1="109.02666"
       x2="116.32772"
       y2="109.02666"
       gradientUnits="userSpaceOnUse" /><inkscape:path-effect
       effect="fillet_chamfer"
       id="path-effect8-7"
       is_visible="true"
       lpeversion="1"
       nodesatellites_param="F,0,0,1,0,1.0583333,0,1 @ F,0,0,1,0,1.0583333,0,1 @ F,0,0,1,0,1.0583333,0,1 @ F,0,0,1,0,1.0583333,0,1"
       radius="4"
       unit="px"
       method="auto"
       mode="F"
       chamfer_steps="1"
       flexible="false"
       use_knot_distance="true"
       apply_no_radius="true"
       apply_with_radius="true"
       only_selected="false"
       hide_knots="false" /><inkscape:path-effect
       effect="fillet_chamfer"
       id="path-effect8-7-4"
       is_visible="true"
       lpeversion="1"
       nodesatellites_param="F,0,0,1,0,1.0583333,0,1 @ F,0,0,1,0,1.0583333,0,1 @ F,0,0,1,0,1.0583333,0,1 @ F,0,0,1,0,1.0583333,0,1"
       radius="4"
       unit="px"
       method="auto"
       mode="F"
       chamfer_steps="1"
       flexible="false"
       use_knot_distance="true"
       apply_no_radius="true"
       apply_with_radius="true"
       only_selected="false"
       hide_knots="false" /><filter
       inkscape:collect="always"
       style="color-interpolation-filters:sRGB"
       id="filter64"
       x="-0.077024628"
       y="-0.53261592"
       width="1.1540493"
       height="2.0652318"><feGaussianBlur
         inkscape:collect="always"
         stdDeviation="1.178577"
         id="feGaussianBlur64" /></filter><filter
       inkscape:collect="always"
       style="color-interpolation-filters:sRGB"
       id="filter65"
       x="-0.073606678"
       y="-0.32595575"
       width="1.1472134"
       height="1.6519115"><feGaussianBlur
         inkscape:collect="always"
         stdDeviation="1.178577"
         id="feGaussianBlur65" /></filter><filter
       inkscape:collect="always"
       style="color-interpolation-filters:sRGB"
       id="filter66"
       x="-0.073607119"
       y="-0.30463629"
       width="1.1472142"
       height="1.6092726"><feGaussianBlur
         inkscape:collect="always"
         stdDeviation="1.178577"
         id="feGaussianBlur66" /></filter><filter
       inkscape:collect="always"
       style="color-interpolation-filters:sRGB"
       id="filter67"
       x="-0.073606314"
       y="-0.33818458"
       width="1.1472126"
       height="1.6763692"><feGaussianBlur
         inkscape:collect="always"
         stdDeviation="1.178577"
         id="feGaussianBlur67" /></filter><filter
       inkscape:collect="always"
       style="color-interpolation-filters:sRGB"
       id="filter68"
       x="-0.073606793"
       y="-0.32440534"
       width="1.1472136"
       height="1.6488107"><feGaussianBlur
         inkscape:collect="always"
         stdDeviation="1.178577"
         id="feGaussianBlur68" /></filter><filter
       inkscape:collect="always"
       style="color-interpolation-filters:sRGB"
       id="filter69"
       x="-0.073606793"
       y="-0.35231931"
       width="1.1472136"
       height="1.7046386"><feGaussianBlur
         inkscape:collect="always"
         stdDeviation="1.178577"
         id="feGaussianBlur69" /></filter><filter
       inkscape:collect="always"
       style="color-interpolation-filters:sRGB"
       id="filter70"
       x="-0.073607042"
       y="-0.37219031"
       width="1.1472141"
       height="1.7443806"><feGaussianBlur
         inkscape:collect="always"
         stdDeviation="1.178577"
         id="feGaussianBlur70" /></filter><clipPath
       clipPathUnits="userSpaceOnUse"
       id="clipPath17"><path
         style="display:inline;fill:none;fill-opacity:1;stroke:#005073;stroke-width:0.190562;stroke-linecap:round;stroke-linejoin:round;stroke-dasharray:none;stroke-opacity:1"
         id="path17"
         width="6.1024303"
         height="6.1024299"
         x="115.53199"
         y="92.038628"
         sodipodi:type="rect"
         transform="matrix(6.2971762,0,0,6.2971738,-612.44653,-487.30965)"
         inkscape:label="rec"
         d="m 116.59032,92.038628 h 3.98577 a 1.0583333,1.0583333 45 0 1 1.05833,1.058333 v 3.985763 a 1.0583333,1.0583333 135 0 1 -1.05833,1.058333 h -3.98577 a 1.0583333,1.0583333 45 0 1 -1.05833,-1.058333 v -3.985763 a 1.0583333,1.0583333 135 0 1 1.05833,-1.058333 z"
         inkscape:path-effect="#path-effect2" /></clipPath><clipPath
       clipPathUnits="userSpaceOnUse"
       id="clipPath18"><path
         style="display:inline;fill:none;fill-opacity:1;stroke:#005073;stroke-width:0.190562;stroke-linecap:round;stroke-linejoin:round;stroke-dasharray:none;stroke-opacity:1"
         id="path18"
         width="6.1024303"
         height="6.1024299"
         x="115.53199"
         y="92.038628"
         sodipodi:type="rect"
         transform="matrix(6.2971762,0,0,6.2971738,-612.44653,-487.30965)"
         inkscape:label="rec"
         d="m 116.59032,92.038628 h 3.98577 a 1.0583333,1.0583333 45 0 1 1.05833,1.058333 v 3.985763 a 1.0583333,1.0583333 135 0 1 -1.05833,1.058333 h -3.98577 a 1.0583333,1.0583333 45 0 1 -1.05833,-1.058333 v -3.985763 a 1.0583333,1.0583333 135 0 1 1.05833,-1.058333 z"
         inkscape:path-effect="#path-effect2" /></clipPath><clipPath
       clipPathUnits="userSpaceOnUse"
       id="clipPath19"><path
         style="display:inline;fill:none;fill-opacity:1;stroke:#005073;stroke-width:0.190562;stroke-linecap:round;stroke-linejoin:round;stroke-dasharray:none;stroke-opacity:1"
         id="path19"
         width="6.1024303"
         height="6.1024299"
         x="115.53199"
         y="92.038628"
         sodipodi:type="rect"
         transform="matrix(6.2971762,0,0,6.2971738,-612.44653,-487.30965)"
         inkscape:label="rec"
         d="m 116.59032,92.038628 h 3.98577 a 1.0583333,1.0583333 45 0 1 1.05833,1.058333 v 3.985763 a 1.0583333,1.0583333 135 0 1 -1.05833,1.058333 h -3.98577 a 1.0583333,1.0583333 45 0 1 -1.05833,-1.058333 v -3.985763 a 1.0583333,1.0583333 135 0 1 1.05833,-1.058333 z"
         inkscape:path-effect="#path-effect2" /></clipPath><clipPath
       clipPathUnits="userSpaceOnUse"
       id="clipPath20"><path
         style="display:inline;fill:none;fill-opacity:1;stroke:#005073;stroke-width:0.190562;stroke-linecap:round;stroke-linejoin:round;stroke-dasharray:none;stroke-opacity:1"
         id="path20"
         width="6.1024303"
         height="6.1024299"
         x="115.53199"
         y="92.038628"
         sodipodi:type="rect"
         transform="matrix(6.2971762,0,0,6.2971738,-612.44653,-487.30965)"
         inkscape:label="rec"
         d="m 116.59032,92.038628 h 3.98577 a 1.0583333,1.0583333 45 0 1 1.05833,1.058333 v 3.985763 a 1.0583333,1.0583333 135 0 1 -1.05833,1.058333 h -3.98577 a 1.0583333,1.0583333 45 0 1 -1.05833,-1.058333 v -3.985763 a 1.0583333,1.0583333 135 0 1 1.05833,-1.058333 z"
         inkscape:path-effect="#path-effect2" /></clipPath><clipPath
       clipPathUnits="userSpaceOnUse"
       id="clipPath21"><path
         style="display:inline;fill:none;fill-opacity:1;stroke:#005073;stroke-width:0.190562;stroke-linecap:round;stroke-linejoin:round;stroke-dasharray:none;stroke-opacity:1"
         id="path21"
         width="6.1024303"
         height="6.1024299"
         x="115.53199"
         y="92.038628"
         sodipodi:type="rect"
         transform="matrix(6.2971762,0,0,6.2971738,-612.44653,-487.30965)"
         inkscape:label="rec"
         d="m 116.59032,92.038628 h 3.98577 a 1.0583333,1.0583333 45 0 1 1.05833,1.058333 v 3.985763 a 1.0583333,1.0583333 135 0 1 -1.05833,1.058333 h -3.98577 a 1.0583333,1.0583333 45 0 1 -1.05833,-1.058333 v -3.985763 a 1.0583333,1.0583333 135 0 1 1.05833,-1.058333 z"
         inkscape:path-effect="#path-effect2" /></clipPath><clipPath
       clipPathUnits="userSpaceOnUse"
       id="clipPath22"><path
         style="display:inline;fill:none;fill-opacity:1;stroke:#005073;stroke-width:0.190562;stroke-linecap:round;stroke-linejoin:round;stroke-dasharray:none;stroke-opacity:1"
         id="path22"
         width="6.1024303"
         height="6.1024299"
         x="115.53199"
         y="92.038628"
         sodipodi:type="rect"
         transform="matrix(6.2971762,0,0,6.2971738,-612.44653,-487.30965)"
         inkscape:label="rec"
         d="m 116.59032,92.038628 h 3.98577 a 1.0583333,1.0583333 45 0 1 1.05833,1.058333 v 3.985763 a 1.0583333,1.0583333 135 0 1 -1.05833,1.058333 h -3.98577 a 1.0583333,1.0583333 45 0 1 -1.05833,-1.058333 v -3.985763 a 1.0583333,1.0583333 135 0 1 1.05833,-1.058333 z"
         inkscape:path-effect="#path-effect2" /></clipPath><clipPath
       clipPathUnits="userSpaceOnUse"
       id="clipPath23"><path
         style="display:inline;fill:none;fill-opacity:1;stroke:#005073;stroke-width:0.190562;stroke-linecap:round;stroke-linejoin:round;stroke-dasharray:none;stroke-opacity:1"
         id="path23"
         width="6.1024303"
         height="6.1024299"
         x="115.53199"
         y="92.038628"
         sodipodi:type="rect"
         transform="matrix(6.2971762,0,0,6.2971738,-612.44653,-487.30965)"
         inkscape:label="rec"
         d="m 116.59032,92.038628 h 3.98577 a 1.0583333,1.0583333 45 0 1 1.05833,1.058333 v 3.985763 a 1.0583333,1.0583333 135 0 1 -1.05833,1.058333 h -3.98577 a 1.0583333,1.0583333 45 0 1 -1.05833,-1.058333 v -3.985763 a 1.0583333,1.0583333 135 0 1 1.05833,-1.058333 z"
         inkscape:path-effect="#path-effect2" /></clipPath></defs><g
     inkscape:groupmode="layer"
     id="g83"
     inkscape:label="waves"
     style="display:inline;stroke:#107dac;stroke-opacity:1"
     transform="translate(-114.47877,-91.673587)"><path
       id="path76"
       style="display:inline;fill:#189ad3;fill-opacity:1;stroke:none;stroke-width:0.070105;stroke-dasharray:none;stroke-opacity:1"
       inkscape:label="wave1"
       d="m 116.17633,91.814089 a 1.5573843,1.5573837 0 0 0 -1.44711,1.007585 c 0.15916,0.0094 0.31643,0.01603 0.4555,0.01438 0.62541,-0.0071 1.55083,-0.150679 1.89959,-0.244862 0.30608,-0.08329 0.77247,-0.222777 1.13153,-0.307978 0.36199,-0.08579 0.58459,-0.132266 0.85093,-0.135358 0.26635,-0.0031 0.48823,0.03879 0.8517,0.116341 0.362,0.07696 0.83011,0.204991 1.13914,0.281365 0.35023,0.08638 1.27874,0.208727 1.90415,0.201516 0.1502,-0.0017 0.31879,-0.01191 0.49124,-0.02662 a 1.5573843,1.5573837 0 0 0 -1.41138,-0.906446 z" /><path
       id="path52"
       style="display:inline;fill:#005073;fill-opacity:1;stroke:none;stroke-width:0.3;stroke-dasharray:none;stroke-opacity:1;filter:url(#filter70)"
       inkscape:label="wave2 shadow"
       d="m 134.11219,93.102995 c -1.13977,0.01322 -2.0923,0.21211 -3.64139,0.579236 -1.53651,0.364609 -3.53235,0.961517 -4.84216,1.317938 -1.49243,0.403048 -5.45259,1.017608 -8.12892,1.047837 -0.59505,0.0066 -1.26811,-0.02183 -1.9492,-0.06153 a 6.6645114,6.6645087 0 0 0 -0.47166,2.352749 v 1.854855 c 0.96679,0.12724 1.96244,0.22873 2.7985,0.23753 2.034,0.0212 5.04621,-0.41715 6.17969,-0.72568 1.00127,-0.27265 2.51893,-0.733595 3.69021,-1.008783 1.17758,-0.277676 1.90003,-0.426008 2.76276,-0.416547 0.8627,0.0086 1.58827,0.172215 2.75954,0.475098 1.16499,0.300369 2.67554,0.793442 3.66422,1.086882 1.13348,0.33311 4.12911,0.83768 6.15681,0.8591 2.03398,0.0212 5.03987,-0.41972 6.17965,-0.72894 1.00126,-0.27264 2.51893,-0.730338 3.69022,-1.00552 0.21474,-0.05027 0.35891,-0.07211 0.54658,-0.113928 V 98.33916 a 6.6645114,6.6645087 0 0 0 -0.62466,-2.785558 c -0.73797,0.06285 -1.45944,0.10665 -2.10219,0.113928 -2.6763,0.03109 -6.64969,-0.492697 -8.14842,-0.86235 -1.32241,-0.326832 -3.3256,-0.874701 -4.87471,-1.204042 -1.55539,-0.331861 -2.50489,-0.511222 -3.64468,-0.497859 z"
       clip-path="url(#clipPath23)"
       transform="matrix(0.23368319,0,0,0.23368319,87.727006,70.251011)" /><path
       id="path77"
       style="display:inline;fill:#1ebbd7;fill-opacity:1;stroke:none;stroke-width:0.070105;stroke-dasharray:none;stroke-opacity:1"
       inkscape:label="wave2"
       d="m 119.06677,92.147921 c -0.26634,0.0031 -0.48894,0.04957 -0.85093,0.135358 -0.35906,0.0852 -0.82545,0.22469 -1.13153,0.30798 -0.34876,0.09419 -1.27418,0.237798 -1.89959,0.244862 -0.13906,0.0015 -0.29634,-0.0051 -0.4555,-0.01438 a 1.5573843,1.5573837 0 0 0 -0.11022,0.549798 v 0.433449 c 0.22592,0.02973 0.45859,0.05345 0.65396,0.0555 0.47532,0.0049 1.17922,-0.09748 1.44409,-0.169579 0.23398,-0.06371 0.58864,-0.171428 0.86234,-0.235735 0.27518,-0.06489 0.44401,-0.09955 0.64561,-0.09734 0.2016,0.002 0.37116,0.04024 0.64486,0.111022 0.27224,0.07019 0.62523,0.185415 0.85627,0.253987 0.26487,0.07784 0.9649,0.19575 1.43874,0.200757 0.47531,0.0049 1.17774,-0.09808 1.44408,-0.170342 0.23398,-0.06371 0.58863,-0.170667 0.86234,-0.234972 0.0502,-0.01175 0.0839,-0.01685 0.12773,-0.02662 v -0.120143 a 1.5573843,1.5573837 0 0 0 -0.14597,-0.650939 c -0.17245,0.01469 -0.34105,0.02492 -0.49125,0.02662 -0.6254,0.0073 -1.55392,-0.115136 -1.90415,-0.201517 -0.30902,-0.07637 -0.77713,-0.204403 -1.13914,-0.281365 -0.36346,-0.07755 -0.58534,-0.119464 -0.85169,-0.116341 z" /><path
       id="path53"
       style="display:inline;fill:#005073;fill-opacity:1;stroke:none;stroke-width:0.3;stroke-dasharray:none;stroke-opacity:1;filter:url(#filter69)"
       inkscape:label="wave3 shadow"
       d="m 130.50984,98.280354 c -0.86273,-0.0093 -1.5852,0.13887 -2.76277,0.416547 -1.17127,0.275162 -2.68894,0.736119 -3.6902,1.008789 -1.13349,0.30857 -4.1457,0.74708 -6.1797,0.72568 -0.83606,-0.009 -1.8317,-0.11035 -2.7985,-0.23752 v 5.82494 c 1.83366,-0.26889 3.6196,-0.66603 4.50045,-0.98602 1.24683,-0.45656 3.14714,-1.22155 4.61438,-1.68565 1.47355,-0.4673 2.37933,-0.71853 3.46243,-0.71916 1.08944,-6.3e-4 1.99236,0.25185 3.47222,0.71916 1.46095,0.46412 3.36753,1.22911 4.61438,1.68565 1.42317,0.51698 5.19454,1.27627 7.74489,1.27564 2.54406,-6.2e-4 6.31847,-0.75927 7.74162,-1.27564 0.63928,-0.23294 1.44604,-0.54562 2.27794,-0.85909 v -5.320541 c -0.18766,0.04168 -0.33247,0.06352 -0.54657,0.113927 -1.1713,0.275162 -2.68897,0.732864 -3.69023,1.005524 -1.13978,0.30918 -4.14567,0.75035 -6.17965,0.72894 -2.02769,-0.0212 -5.02334,-0.52598 -6.15683,-0.8591 -0.98865,-0.29341 -2.49922,-0.78651 -3.66421,-1.086885 -1.17126,-0.302883 -1.89682,-0.466299 -2.75954,-0.475098 z"
       clip-path="url(#clipPath22)"
       transform="matrix(0.23368319,0,0,0.23368319,87.727006,70.251011)" /><path
       id="path78"
       style="display:inline;fill:#189ad3;fill-opacity:1;stroke:none;stroke-width:0.070105;stroke-dasharray:none;stroke-opacity:1"
       inkscape:label="wave3"
       d="m 118.22496,93.357783 c -0.2016,-0.0022 -0.37043,0.03245 -0.64561,0.09734 -0.27371,0.0643 -0.62836,0.172018 -0.86234,0.235737 -0.26488,0.07211 -0.96878,0.17458 -1.44409,0.169579 -0.19537,-0.0021 -0.42804,-0.02578 -0.65396,-0.0555 v 1.36119 c 0.42849,-0.06283 0.84584,-0.15564 1.05168,-0.230417 0.29136,-0.106689 0.73543,-0.285455 1.0783,-0.393908 0.34434,-0.1092 0.55601,-0.167907 0.80911,-0.168054 0.25458,-1.49e-4 0.46558,0.05885 0.8114,0.168054 0.3414,0.108458 0.78693,0.287224 1.0783,0.393908 0.33258,0.120811 1.21388,0.298242 1.80986,0.298095 0.5945,-1.44e-4 1.47651,-0.177426 1.80908,-0.298095 0.14939,-0.05443 0.33792,-0.127502 0.53232,-0.200755 v -1.243321 c -0.0439,0.0097 -0.0777,0.01485 -0.12773,0.02662 -0.27371,0.0643 -0.62836,0.171257 -0.86234,0.234974 -0.26635,0.07225 -0.96878,0.175345 -1.44408,0.170342 -0.47384,-0.0049 -1.17387,-0.122913 -1.43875,-0.200757 -0.23103,-0.06856 -0.58403,-0.183795 -0.85627,-0.253988 -0.2737,-0.07078 -0.44325,-0.108966 -0.64485,-0.111022 z" /><path
       id="path54"
       style="display:inline;fill:#005073;fill-opacity:1;stroke:none;stroke-width:0.3;stroke-dasharray:none;stroke-opacity:1;filter:url(#filter68)"
       inkscape:label="wave4 shadow"
       d="m 127.65593,102.62791 c -1.0831,6.2e-4 -1.98888,0.25185 -3.46243,0.71916 -1.46724,0.46411 -3.36755,1.22912 -4.61438,1.68565 -0.88085,0.32001 -2.66679,0.71714 -4.50045,0.98602 v 3.97984 c 1.026,-0.24078 2.09506,-0.50178 3.0686,-0.6899 1.40428,-0.27078 2.26353,-0.41608 3.28997,-0.4035 1.02644,0.0119 1.87555,0.1748 3.26723,0.47834 1.37907,0.30162 3.16646,0.79543 4.33774,1.09014 1.3413,0.33379 4.90007,0.84378 7.3056,0.87212 2.41184,0.0284 5.98093,-0.39735 7.33482,-0.69964 1.19018,-0.26637 2.99822,-0.71713 4.3899,-0.98602 1.39797,-0.2708 2.26025,-0.41285 3.28667,-0.40027 0.70151,0.008 1.38117,0.11121 2.14778,0.25703 v -5.34332 c -0.8319,0.31347 -1.63866,0.62622 -2.27794,0.85908 -1.42315,0.5164 -5.19756,1.27502 -7.74162,1.27565 -2.55035,6.3e-4 -6.32172,-0.75864 -7.74489,-1.27565 -1.24685,-0.45656 -3.15343,-1.22154 -4.61438,-1.68564 -1.47986,-0.46724 -2.38278,-0.71979 -3.47222,-0.71916 z"
       clip-path="url(#clipPath21)"
       transform="matrix(0.23368319,0,0,0.23368319,87.727006,70.251011)" /><path
       id="path79"
       style="display:inline;fill:#1ebbd7;fill-opacity:1;stroke:none;stroke-width:0.070105;stroke-dasharray:none;stroke-opacity:1"
       inkscape:label="wave4"
       d="m 117.55805,94.373735 c -0.2531,1.45e-4 -0.46477,0.05885 -0.80911,0.168054 -0.34287,0.108456 -0.78694,0.287226 -1.0783,0.393909 -0.20584,0.07478 -0.62319,0.167584 -1.05168,0.230416 v 0.930023 c 0.23976,-0.05627 0.48958,-0.11726 0.71708,-0.16122 0.32815,-0.06328 0.52894,-0.09723 0.76881,-0.09429 0.23986,0.0028 0.43828,0.04085 0.76349,0.111779 0.32227,0.07049 0.73995,0.18588 1.01366,0.254748 0.31344,0.078 1.14506,0.197176 1.7072,0.203801 0.5636,0.0066 1.39764,-0.09286 1.71402,-0.163495 0.27813,-0.06225 0.70063,-0.167582 1.02585,-0.230416 0.32668,-0.06328 0.52818,-0.09648 0.76804,-0.09354 0.16393,0.0019 0.32275,0.02599 0.5019,0.06006 V 94.73492 c -0.1944,0.07325 -0.38293,0.146337 -0.53232,0.200753 -0.33257,0.120673 -1.21458,0.29795 -1.80908,0.298097 -0.59598,1.47e-4 -1.47728,-0.177279 -1.80986,-0.298097 -0.29137,-0.106689 -0.7369,-0.285453 -1.0783,-0.393906 -0.34582,-0.109186 -0.55682,-0.168203 -0.8114,-0.168056 z" /><path
       id="path55"
       style="display:inline;fill:#005073;fill-opacity:1;stroke:none;stroke-width:0.3;stroke-dasharray:none;stroke-opacity:1;filter:url(#filter67)"
       inkscape:label="wave5 shadow"
       d="m 121.43724,108.90517 c -1.02644,-0.0126 -1.88569,0.13272 -3.28997,0.40351 -0.97354,0.18809 -2.0426,0.44916 -3.0686,0.68989 v 7.22097 c 0.19584,0.0126 0.41372,0.0489 0.5957,0.0489 1.9899,-6.3e-4 4.93819,-0.82583 6.05278,-1.38629 0.97607,-0.49434 2.45949,-1.32568 3.60558,-1.82883 1.15239,-0.50625 1.86693,-0.77713 2.71074,-0.77774 0.85012,0 1.55503,0.27146 2.70741,0.77774 1.1461,0.50249 2.62957,1.33388 3.60563,1.82883 1.11461,0.5598 4.06301,1.38302 6.05922,1.38302 1.98991,-6.3e-4 4.93811,-0.82256 6.05271,-1.38302 0.97606,-0.49434 2.45956,-1.32568 3.60564,-1.82883 1.15238,-0.50625 1.86687,-0.78037 2.71068,-0.781 0.24812,0 0.48425,0.0324 0.72247,0.0781 v -3.83332 c -0.76661,-0.1459 -1.44626,-0.24897 -2.14777,-0.25704 -1.02642,-0.0125 -1.88871,0.12948 -3.28669,0.40026 -1.39166,0.26889 -3.19971,0.71965 -4.38989,0.98603 -1.35389,0.30229 -4.92299,0.72798 -7.33482,0.69964 -2.40552,-0.0284 -5.96429,-0.53836 -7.30559,-0.87212 -1.17129,-0.29467 -2.95868,-0.78851 -4.33775,-1.09014 -1.39168,-0.30354 -2.24079,-0.46636 -3.26722,-0.47835 z"
       clip-path="url(#clipPath20)"
       transform="matrix(0.23368319,0,0,0.23368319,87.727006,70.251011)" /><path
       id="path80"
       style="display:inline;fill:#189ad3;fill-opacity:1;stroke:none;stroke-width:0.070105;stroke-dasharray:none;stroke-opacity:1"
       inkscape:label="wave5"
       d="m 116.10485,95.840625 c -0.23987,-0.0029 -0.44066,0.03101 -0.76881,0.09429 -0.2275,0.04395 -0.47732,0.104963 -0.71708,0.161217 v 1.687418 c 0.0458,0.0029 0.0967,0.01143 0.1392,0.01143 0.46501,-1.47e-4 1.15397,-0.192983 1.41444,-0.323953 0.22809,-0.115518 0.57474,-0.309789 0.84256,-0.427366 0.26929,-0.118302 0.43627,-0.181603 0.63345,-0.181746 0.19866,0 0.36339,0.06344 0.63268,0.181746 0.26782,0.117423 0.61448,0.311705 0.84257,0.427366 0.26047,0.130816 0.94946,0.323188 1.41594,0.323188 0.46501,-1.47e-4 1.15395,-0.192218 1.41442,-0.323188 0.22809,-0.115518 0.57476,-0.309789 0.84258,-0.427366 0.26929,-0.118302 0.43625,-0.182359 0.63344,-0.182506 0.058,0 0.11316,0.0076 0.16883,0.01825 v -0.895783 c -0.17915,-0.03409 -0.33797,-0.05818 -0.5019,-0.06006 -0.23986,-0.0029 -0.44136,0.03026 -0.76805,0.09353 -0.32521,0.06283 -0.74772,0.16817 -1.02584,0.230419 -0.31638,0.07064 -1.15042,0.170116 -1.71402,0.163494 -0.56213,-0.0066 -1.39376,-0.125806 -1.7072,-0.2038 -0.27371,-0.06886 -0.69139,-0.184261 -1.01366,-0.254749 -0.32521,-0.07093 -0.52363,-0.108978 -0.76349,-0.111781 z" /><path
       id="path56"
       style="display:inline;fill:#005073;fill-opacity:1;stroke:none;stroke-width:0.3;stroke-dasharray:none;stroke-opacity:1;filter:url(#filter66)"
       inkscape:label="wave6 shadow"
       d="m 152.78452,113.27224 c -0.84383,6.4e-4 -1.55831,0.27471 -2.71069,0.781 -1.14608,0.50316 -2.62957,1.33452 -3.60563,1.82884 -1.11462,0.56045 -4.06282,1.38239 -6.05272,1.38302 -1.99622,0 -4.94462,-0.8232 -6.05921,-1.38302 -0.97607,-0.49495 -2.45954,-1.32632 -3.60565,-1.82884 -1.15237,-0.50632 -1.85729,-0.77774 -2.70741,-0.77774 -0.84379,6.2e-4 -1.55835,0.27146 -2.71073,0.77774 -1.14608,0.50316 -2.62951,1.33452 -3.60558,1.82884 -1.11459,0.56045 -4.06288,1.38565 -6.05278,1.38628 -0.18199,0 -0.39987,-0.0358 -0.5957,-0.049 v 5.14156 c 1.28033,0.1261 2.58485,0.21667 3.68365,0.19198 2.78335,-0.0622 6.88225,-0.82013 8.42506,-1.30816 1.35388,-0.43137 3.42125,-1.15184 5.00812,-1.59454 1.5995,-0.44585 2.58746,-0.68883 3.76503,-0.7159 1.18388,-0.0265 2.17945,0.17202 3.80412,0.5467 1.60579,0.37153 3.69392,0.99971 5.06672,1.36999 1.56169,0.41873 5.69372,0.99627 8.47706,0.93392 0.063,-9.8e-4 0.13664,-0.0106 0.19838,-0.0132 v -8.42176 c -0.23867,-0.0457 -0.47418,-0.0781 -0.72249,-0.0781 z"
       clip-path="url(#clipPath19)"
       transform="matrix(0.23368319,0,0,0.23368319,87.727006,70.251011)" /><path
       id="path81"
       style="display:inline;fill:#1ebbd7;fill-opacity:1;stroke:none;stroke-width:0.070105;stroke-dasharray:none;stroke-opacity:1"
       inkscape:label="wave6"
       d="m 123.43018,96.861134 c -0.19719,1.52e-4 -0.36415,0.0642 -0.63344,0.182509 -0.26782,0.117579 -0.61449,0.311854 -0.84258,0.427368 -0.26047,0.130968 -0.94941,0.323041 -1.41442,0.323188 -0.46648,0 -1.15547,-0.192367 -1.41593,-0.323188 -0.22809,-0.115661 -0.57475,-0.309939 -0.84258,-0.427368 -0.26929,-0.118319 -0.43402,-0.181746 -0.63268,-0.181746 -0.19718,1.45e-4 -0.36416,0.06344 -0.63345,0.181746 -0.26782,0.117579 -0.61447,0.311854 -0.84256,0.427368 -0.26046,0.130968 -0.94943,0.323804 -1.41444,0.323951 -0.0425,0 -0.0934,-0.0084 -0.1392,-0.01146 v 1.201497 c 0.29919,0.02947 0.60403,0.05063 0.8608,0.04486 0.65043,-0.01454 1.60827,-0.191651 1.9688,-0.305695 0.31638,-0.100805 0.79949,-0.269166 1.17031,-0.372617 0.37378,-0.104188 0.60465,-0.160967 0.87983,-0.167295 0.27665,-0.0062 0.5093,0.0402 0.88896,0.127754 0.37524,0.08682 0.8632,0.233616 1.184,0.320145 0.36494,0.09785 1.33053,0.232811 1.98095,0.218242 0.0147,-2.29e-4 0.0319,-0.0025 0.0464,-0.0031 v -1.968025 c -0.0558,-0.01069 -0.11081,-0.01825 -0.16884,-0.01825 z" /><path
       id="path57"
       style="display:inline;fill:#005073;fill-opacity:1;stroke:none;stroke-width:0.3;stroke-dasharray:none;stroke-opacity:1;filter:url(#filter65)"
       inkscape:label="wave7 shadow"
       d="m 135.96053,118.93448 c -1.17756,0.0272 -2.16554,0.27007 -3.76502,0.71592 -1.58688,0.44268 -3.65425,1.16318 -5.00813,1.59452 -1.54282,0.48801 -5.64172,1.24583 -8.42505,1.30817 -1.0988,0.0245 -2.40333,-0.0662 -3.68366,-0.19199 v 1.07713 a 6.6645114,6.6645087 0 0 0 1.14545,3.65766 c 1.03639,-0.16017 1.97455,-0.32895 2.52196,-0.47835 1.27203,-0.34634 3.20626,-0.9301 4.69245,-1.28211 1.49874,-0.35516 2.41881,-0.54094 3.51453,-0.54345 1.10206,6.3e-4 2.01554,0.19225 3.50796,0.54992 1.47354,0.35389 3.39425,0.93979 4.65998,1.28864 1.43576,0.39546 5.24442,0.97762 7.82625,0.97951 2.5819,0.002 6.40391,-0.57354 7.85226,-0.96649 0.60329,-0.16421 1.36518,-0.38433 2.14773,-0.6053 a 6.6645114,6.6645087 0 0 0 0.5598,-2.60007 v -1.66613 c -0.0629,0.002 -0.1379,0.0119 -0.19837,0.0132 -2.78334,0.0622 -6.91534,-0.51518 -8.47704,-0.93394 -1.37281,-0.3703 -3.46094,-0.99847 -5.06671,-1.36998 -1.6247,-0.37468 -2.62025,-0.57316 -3.80413,-0.54677 z"
       clip-path="url(#clipPath18)"
       transform="matrix(0.23368319,0,0,0.23368319,87.727006,70.251011)" /><path
       id="path82"
       style="display:inline;fill:#189ad3;fill-opacity:1;stroke:none;stroke-width:0.070105;stroke-dasharray:none;stroke-opacity:1"
       inkscape:label="wave7"
       d="m 119.4987,98.184304 c -0.27518,0.0063 -0.50605,0.06311 -0.87983,0.1673 -0.37082,0.103446 -0.85393,0.271815 -1.17031,0.372613 -0.36053,0.114039 -1.31838,0.29113 -1.96879,0.305697 -0.25677,0.0057 -0.56162,-0.01547 -0.86081,-0.04487 v 0.251709 a 1.5573843,1.5573837 0 0 0 0.26767,0.854737 c 0.24219,-0.0374 0.46142,-0.0769 0.58934,-0.111788 0.29725,-0.08093 0.74925,-0.217347 1.09654,-0.299607 0.35024,-0.08299 0.56524,-0.126408 0.82129,-0.126994 0.25754,1.47e-4 0.471,0.04493 0.81975,0.128506 0.34434,0.0827 0.79318,0.219614 1.08896,0.301133 0.33551,0.09242 1.22553,0.22846 1.82887,0.2289 0.60334,4.7e-4 1.49648,-0.13403 1.83494,-0.225857 0.14097,-0.03837 0.31902,-0.08981 0.50189,-0.141447 a 1.5573843,1.5573837 0 0 0 0.13081,-0.607593 V 98.8474 c -0.0147,4.67e-4 -0.0322,0.0028 -0.0464,0.0031 -0.65041,0.01454 -1.61599,-0.120388 -1.98094,-0.218246 -0.3208,-0.08653 -0.80876,-0.233326 -1.184,-0.320142 -0.37967,-0.08756 -0.61231,-0.133936 -0.88896,-0.127771 z" /><path
       id="path58"
       style="display:inline;fill:#005073;fill-opacity:1;stroke:none;stroke-width:0.3;stroke-dasharray:none;stroke-opacity:1;filter:url(#filter64)"
       inkscape:label="wave8 shadow"
       d="m 126.95306,124.79196 c -1.09572,0.003 -2.01579,0.18829 -3.51453,0.54344 -1.48619,0.35205 -3.42042,0.93578 -4.69245,1.28213 -0.5466,0.14927 -1.48682,0.32155 -2.52196,0.48158 a 6.6645114,6.6645087 0 0 0 5.51903,3.00359 h 25.09929 a 6.6645114,6.6645087 0 0 0 6.1048,-4.06443 c -0.78255,0.22097 -1.54457,0.44102 -2.14773,0.6053 -1.44835,0.39294 -5.27036,0.96837 -7.85226,0.96649 -2.58183,-0.002 -6.39049,-0.58406 -7.82625,-0.97952 -1.26573,-0.34884 -3.18644,-0.93473 -4.65998,-1.28863 -1.49242,-0.35767 -2.4059,-0.54932 -3.50796,-0.54992 z"
       clip-path="url(#clipPath17)"
       transform="matrix(0.23368319,0,0,0.23368319,87.727006,70.251011)" /><path
       id="path83"
       style="display:inline;fill:#1ebbd7;fill-opacity:1;stroke:none;stroke-width:0.070105;stroke-dasharray:none;stroke-opacity:1"
       inkscape:label="wave8"
       d="m 117.3938,99.553101 c -0.25605,7e-4 -0.47105,0.044 -0.82129,0.126991 -0.34729,0.08227 -0.79929,0.218678 -1.09654,0.299612 -0.12773,0.03489 -0.34745,0.07515 -0.58934,0.112536 a 1.5573843,1.5573837 0 0 0 1.2897,0.70189 h 5.86529 a 1.5573843,1.5573837 0 0 0 1.42659,-0.949787 c -0.18287,0.05164 -0.36095,0.103058 -0.50189,0.141446 -0.33846,0.09182 -1.2316,0.226291 -1.83494,0.225851 -0.60334,-4.6e-4 -1.49336,-0.13648 -1.82887,-0.228896 -0.29578,-0.08152 -0.74462,-0.21843 -1.08896,-0.30113 -0.34875,-0.08358 -0.56221,-0.128366 -0.81975,-0.128506 z" /></g><path
     style="display:inline;fill:none;fill-opacity:1;stroke:#005073;stroke-width:0.190562;stroke-linecap:round;stroke-linejoin:round;stroke-dasharray:none;stroke-opacity:1"
     id="rect7"
     width="6.1024303"
     height="6.1024299"
     x="115.53199"
     y="92.038628"
     sodipodi:type="rect"
     d="m 116.59032,92.038628 h 3.98577 a 1.0583333,1.0583333 45 0 1 1.05833,1.058333 v 3.985763 a 1.0583333,1.0583333 135 0 1 -1.05833,1.058333 h -3.98577 a 1.0583333,1.0583333 45 0 1 -1.05833,-1.058333 v -3.985763 a 1.0583333,1.0583333 135 0 1 1.05833,-1.058333 z"
     transform="matrix(1.4715442,0,0,1.4715437,-169.87022,-135.29865)"
     inkscape:label="rec"
     inkscape:path-effect="#path-effect8" /><metadata
     id="metadata7"><rdf:RDF><cc:Work
         rdf:about=""><dc:title>rodpcastro</dc:title><dc:date>10/05/2025</dc:date><dc:creator><cc:Agent><dc:title>Rodrigo Castro</dc:title></cc:Agent></dc:creator><dc:description>color palette: https://www.color-hex.com/color-palette/30415</dc:description></cc:Work></rdf:RDF></metadata><path
     style="font-size:31.7976px;font-family:Cambria;-inkscape-font-specification:Cambria;fill:#005073;stroke:#005073;stroke-width:0.164919"
     d="m 3.6502471,4.9544452 v 1.2317431 q 0,0.2608396 0.018114,0.3803912 0.021737,0.1159286 0.061587,0.1775158 0.039851,0.057964 0.1086832,0.097815 0.068833,0.036227 0.2354802,0.083324 V 7.1027499 H 2.5453011 V 6.9252341 Q 2.7699131,6.8672696 2.8459912,6.798437 2.9220695,6.7259814 2.9438062,6.5955616 2.9691655,6.4651418 2.9691655,6.1970565 V 3.0633576 q 0,-0.2499714 -0.018114,-0.3622775 Q 2.9329382,2.5851515 2.8894647,2.5235643 2.8496142,2.4583544 2.7807815,2.4221266 2.7119489,2.3822761 2.5453013,2.3351801 V 2.1576642 h 1.7932728 q 0.847729,0 1.2679707,0.3079357 0.4202417,0.3079358 0.4202417,0.9564123 0,0.4963198 -0.2753307,0.8441062 -0.2717081,0.3477861 -0.8187469,0.5434158 v 0.028982 q 0.2209893,0.090569 0.3767685,0.2608396 0.1594021,0.1666476 0.3514091,0.5216794 L 5.986936,6.2151704 Q 6.1282242,6.47601 6.2296619,6.6136755 6.3310994,6.7513408 6.4361598,6.8237964 6.5412203,6.8962517 6.7151136,6.9252341 V 7.1027499 H 5.7116052 Q 5.57394,6.9107429 5.4507656,6.6897538 5.3275913,6.4687645 5.2080397,6.2405298 L 4.8892357,5.6355268 Q 4.7443247,5.3601958 4.6501327,5.229776 4.5595632,5.0993562 4.4798624,5.0486374 4.403784,4.9942957 4.3132148,4.9761818 4.2262682,4.9544445 4.0487522,4.9544445 Z m 0,-2.463486 v 2.1519274 h 0.4093735 q 0.3151813,0 0.510811,-0.043473 Q 4.7660613,4.5523174 4.9327089,4.4255203 5.0993565,4.2987232 5.1971715,4.0741114 5.298609,3.8458767 5.298609,3.5162042 5.298609,3.1720408 5.1790576,2.943806 5.0631287,2.7155713 4.8240258,2.5960197 4.5849228,2.4764683 4.179172,2.4764683 q -0.3260495,0 -0.5289249,0.014491 z"
     id="text2"
     inkscape:label="R_path"
     aria-label="R" /></svg>
