<?xml version="1.0" encoding="UTF-8" standalone="no"?>
<!-- Created with Inkscape (http://www.inkscape.org/) -->

<svg
   width="39.6875mm"
   height="39.687481mm"
   viewBox="0 0 39.687501 39.687481"
   version="1.1"
   id="svg1"
   inkscape:version="1.4 (86a8ad7, 2024-10-11)"
   sodipodi:docname="rodpcastro_square.svg"
   xml:space="preserve"
   inkscape:export-filename="apple-touch-icon.png"
   inkscape:export-xdpi="115.37273"
   inkscape:export-ydpi="115.37273"
   xmlns:inkscape="http://www.inkscape.org/namespaces/inkscape"
   xmlns:sodipodi="http://sodipodi.sourceforge.net/DTD/sodipodi-0.dtd"
   xmlns:xlink="http://www.w3.org/1999/xlink"
   xmlns="http://www.w3.org/2000/svg"
   xmlns:svg="http://www.w3.org/2000/svg"
   xmlns:rdf="http://www.w3.org/1999/02/22-rdf-syntax-ns#"
   xmlns:cc="http://creativecommons.org/ns#"
   xmlns:dc="http://purl.org/dc/elements/1.1/"><sodipodi:namedview
     id="namedview1"
     pagecolor="#ffffff"
     bordercolor="#000000"
     borderopacity="0.25"
     inkscape:showpageshadow="2"
     inkscape:pageopacity="0.0"
     inkscape:pagecheckerboard="0"
     inkscape:deskcolor="#d1d1d1"
     inkscape:document-units="mm"
     inkscape:zoom="4.0000002"
     inkscape:cx="74.499995"
     inkscape:cy="91.874994"
     inkscape:window-width="1920"
     inkscape:window-height="974"
     inkscape:window-x="-11"
     inkscape:window-y="-11"
     inkscape:window-maximized="1"
     inkscape:current-layer="g83"
     showgrid="true"><inkscape:grid
       id="grid1"
       units="mm"
       originx="-114.47877"
       originy="-91.673587"
       spacingx="0.99999998"
       spacingy="1"
       empcolor="#0099e5"
       empopacity="0.30196078"
       color="#0099e5"
       opacity="0.14901961"
       empspacing="5"
       enabled="true"
       visible="true" /></sodipodi:namedview><title
     id="title7">rodpcastro</title><defs
     id="defs1"><inkscape:path-effect
       effect="fillet_chamfer"
       id="path-effect2"
       is_visible="true"
       lpeversion="1"
       nodesatellites_param="F,0,0,1,0,1.0583333,0,1 @ F,0,0,1,0,1.0583333,0,1 @ F,0,0,1,0,1.0583333,0,1 @ F,0,0,1,0,1.0583333,0,1"
       radius="4"
       unit="px"
       method="auto"
       mode="F"
       chamfer_steps="1"
       flexible="false"
       use_knot_distance="true"
       apply_no_radius="true"
       apply_with_radius="true"
       only_selected="false"
       hide_knots="false" /><inkscape:path-effect
       effect="fillet_chamfer"
       id="path-effect71"
       is_visible="true"
       lpeversion="1"
       nodesatellites_param="F,0,0,1,0,1.0583333,0,1 @ F,0,0,1,0,1.0583333,0,1 @ F,0,0,1,0,1.0583333,0,1 @ F,0,0,1,0,1.0583333,0,1"
       radius="4"
       unit="px"
       method="auto"
       mode="F"
       chamfer_steps="1"
       flexible="false"
       use_knot_distance="true"
       apply_no_radius="true"
       apply_with_radius="true"
       only_selected="false"
       hide_knots="false" /><inkscape:path-effect
       effect="fillet_chamfer"
       id="path-effect115"
       is_visible="true"
       lpeversion="1"
       nodesatellites_param="F,0,0,1,0,1.0583333,0,1 @ F,0,0,1,0,1.0583333,0,1 @ F,0,0,1,0,1.0583333,0,1 @ F,0,0,1,0,1.0583333,0,1"
       radius="4"
       unit="px"
       method="auto"
       mode="F"
       chamfer_steps="1"
       flexible="false"
       use_knot_distance="true"
       apply_no_radius="true"
       apply_with_radius="true"
       only_selected="false"
       hide_knots="false" /><inkscape:path-effect
       effect="fillet_chamfer"
       id="path-effect113"
       is_visible="true"
       lpeversion="1"
       nodesatellites_param="F,0,0,1,0,1.0583333,0,1 @ F,0,0,1,0,1.0583333,0,1 @ F,0,0,1,0,1.0583333,0,1 @ F,0,0,1,0,1.0583333,0,1"
       radius="4"
       unit="px"
       method="auto"
       mode="F"
       chamfer_steps="1"
       flexible="false"
       use_knot_distance="true"
       apply_no_radius="true"
       apply_with_radius="true"
       only_selected="false"
       hide_knots="false" /><inkscape:path-effect
       effect="fillet_chamfer"
       id="path-effect111"
       is_visible="true"
       lpeversion="1"
       nodesatellites_param="F,0,0,1,0,1.0583333,0,1 @ F,0,0,1,0,1.0583333,0,1 @ F,0,0,1,0,1.0583333,0,1 @ F,0,0,1,0,1.0583333,0,1"
       radius="4"
       unit="px"
       method="auto"
       mode="F"
       chamfer_steps="1"
       flexible="false"
       use_knot_distance="true"
       apply_no_radius="true"
       apply_with_radius="true"
       only_selected="false"
       hide_knots="false" /><inkscape:path-effect
       effect="fillet_chamfer"
       id="path-effect109"
       is_visible="true"
       lpeversion="1"
       nodesatellites_param="F,0,0,1,0,1.0583333,0,1 @ F,0,0,1,0,1.0583333,0,1 @ F,0,0,1,0,1.0583333,0,1 @ F,0,0,1,0,1.0583333,0,1"
       radius="4"
       unit="px"
       method="auto"
       mode="F"
       chamfer_steps="1"
       flexible="false"
       use_knot_distance="true"
       apply_no_radius="true"
       apply_with_radius="true"
       only_selected="false"
       hide_knots="false" /><inkscape:path-effect
       effect="fillet_chamfer"
       id="path-effect107"
       is_visible="true"
       lpeversion="1"
       nodesatellites_param="F,0,0,1,0,1.0583333,0,1 @ F,0,0,1,0,1.0583333,0,1 @ F,0,0,1,0,1.0583333,0,1 @ F,0,0,1,0,1.0583333,0,1"
       radius="4"
       unit="px"
       method="auto"
       mode="F"
       chamfer_steps="1"
       flexible="false"
       use_knot_distance="true"
       apply_no_radius="true"
       apply_with_radius="true"
       only_selected="false"
       hide_knots="false" /><inkscape:path-effect
       effect="fillet_chamfer"
       id="path-effect105"
       is_visible="true"
       lpeversion="1"
       nodesatellites_param="F,0,0,1,0,1.0583333,0,1 @ F,0,0,1,0,1.0583333,0,1 @ F,0,0,1,0,1.0583333,0,1 @ F,0,0,1,0,1.0583333,0,1"
       radius="4"
       unit="px"
       method="auto"
       mode="F"
       chamfer_steps="1"
       flexible="false"
       use_knot_distance="true"
       apply_no_radius="true"
       apply_with_radius="true"
       only_selected="false"
       hide_knots="false" /><inkscape:path-effect
       effect="fillet_chamfer"
       id="path-effect103"
       is_visible="true"
       lpeversion="1"
       nodesatellites_param="F,0,0,1,0,1.0583333,0,1 @ F,0,0,1,0,1.0583333,0,1 @ F,0,0,1,0,1.0583333,0,1 @ F,0,0,1,0,1.0583333,0,1"
       radius="4"
       unit="px"
       method="auto"
       mode="F"
       chamfer_steps="1"
       flexible="false"
       use_knot_distance="true"
       apply_no_radius="true"
       apply_with_radius="true"
       only_selected="false"
       hide_knots="false" /><inkscape:path-effect
       effect="fillet_chamfer"
       id="path-effect101"
       is_visible="true"
       lpeversion="1"
       nodesatellites_param="F,0,0,1,0,1.0583333,0,1 @ F,0,0,1,0,1.0583333,0,1 @ F,0,0,1,0,1.0583333,0,1 @ F,0,0,1,0,1.0583333,0,1"
       radius="4"
       unit="px"
       method="auto"
       mode="F"
       chamfer_steps="1"
       flexible="false"
       use_knot_distance="true"
       apply_no_radius="true"
       apply_with_radius="true"
       only_selected="false"
       hide_knots="false" /><inkscape:path-effect
       effect="fillet_chamfer"
       id="path-effect99"
       is_visible="true"
       lpeversion="1"
       nodesatellites_param="F,0,0,1,0,1.0583333,0,1 @ F,0,0,1,0,1.0583333,0,1 @ F,0,0,1,0,1.0583333,0,1 @ F,0,0,1,0,1.0583333,0,1"
       radius="4"
       unit="px"
       method="auto"
       mode="F"
       chamfer_steps="1"
       flexible="false"
       use_knot_distance="true"
       apply_no_radius="true"
       apply_with_radius="true"
       only_selected="false"
       hide_knots="false" /><inkscape:path-effect
       effect="fillet_chamfer"
       id="path-effect97"
       is_visible="true"
       lpeversion="1"
       nodesatellites_param="F,0,0,1,0,1.0583333,0,1 @ F,0,0,1,0,1.0583333,0,1 @ F,0,0,1,0,1.0583333,0,1 @ F,0,0,1,0,1.0583333,0,1"
       radius="4"
       unit="px"
       method="auto"
       mode="F"
       chamfer_steps="1"
       flexible="false"
       use_knot_distance="true"
       apply_no_radius="true"
       apply_with_radius="true"
       only_selected="false"
       hide_knots="false" /><inkscape:path-effect
       effect="fillet_chamfer"
       id="path-effect95"
       is_visible="true"
       lpeversion="1"
       nodesatellites_param="F,0,0,1,0,1.0583333,0,1 @ F,0,0,1,0,1.0583333,0,1 @ F,0,0,1,0,1.0583333,0,1 @ F,0,0,1,0,1.0583333,0,1"
       radius="4"
       unit="px"
       method="auto"
       mode="F"
       chamfer_steps="1"
       flexible="false"
       use_knot_distance="true"
       apply_no_radius="true"
       apply_with_radius="true"
       only_selected="false"
       hide_knots="false" /><inkscape:path-effect
       effect="fillet_chamfer"
       id="path-effect93"
       is_visible="true"
       lpeversion="1"
       nodesatellites_param="F,0,0,1,0,1.0583333,0,1 @ F,0,0,1,0,1.0583333,0,1 @ F,0,0,1,0,1.0583333,0,1 @ F,0,0,1,0,1.0583333,0,1"
       radius="4"
       unit="px"
       method="auto"
       mode="F"
       chamfer_steps="1"
       flexible="false"
       use_knot_distance="true"
       apply_no_radius="true"
       apply_with_radius="true"
       only_selected="false"
       hide_knots="false" /><inkscape:path-effect
       effect="fillet_chamfer"
       id="path-effect91"
       is_visible="true"
       lpeversion="1"
       nodesatellites_param="F,0,0,1,0,1.0583333,0,1 @ F,0,0,1,0,1.0583333,0,1 @ F,0,0,1,0,1.0583333,0,1 @ F,0,0,1,0,1.0583333,0,1"
       radius="4"
       unit="px"
       method="auto"
       mode="F"
       chamfer_steps="1"
       flexible="false"
       use_knot_distance="true"
       apply_no_radius="true"
       apply_with_radius="true"
       only_selected="false"
       hide_knots="false" /><inkscape:path-effect
       effect="fillet_chamfer"
       id="path-effect89"
       is_visible="true"
       lpeversion="1"
       nodesatellites_param="F,0,0,1,0,1.0583333,0,1 @ F,0,0,1,0,1.0583333,0,1 @ F,0,0,1,0,1.0583333,0,1 @ F,0,0,1,0,1.0583333,0,1"
       radius="4"
       unit="px"
       method="auto"
       mode="F"
       chamfer_steps="1"
       flexible="false"
       use_knot_distance="true"
       apply_no_radius="true"
       apply_with_radius="true"
       only_selected="false"
       hide_knots="false" /><inkscape:path-effect
       effect="fillet_chamfer"
       id="path-effect87"
       is_visible="true"
       lpeversion="1"
       nodesatellites_param="F,0,0,1,0,1.0583333,0,1 @ F,0,0,1,0,1.0583333,0,1 @ F,0,0,1,0,1.0583333,0,1 @ F,0,0,1,0,1.0583333,0,1"
       radius="4"
       unit="px"
       method="auto"
       mode="F"
       chamfer_steps="1"
       flexible="false"
       use_knot_distance="true"
       apply_no_radius="true"
       apply_with_radius="true"
       only_selected="false"
       hide_knots="false" /><inkscape:path-effect
       effect="fillet_chamfer"
       id="path-effect85"
       is_visible="true"
       lpeversion="1"
       nodesatellites_param="F,0,0,1,0,1.0583333,0,1 @ F,0,0,1,0,1.0583333,0,1 @ F,0,0,1,0,1.0583333,0,1 @ F,0,0,1,0,1.0583333,0,1"
       radius="4"
       unit="px"
       method="auto"
       mode="F"
       chamfer_steps="1"
       flexible="false"
       use_knot_distance="true"
       apply_no_radius="true"
       apply_with_radius="true"
       only_selected="false"
       hide_knots="false" /><inkscape:path-effect
       effect="fillet_chamfer"
       id="path-effect30"
       is_visible="true"
       lpeversion="1"
       nodesatellites_param="F,0,0,1,0,1.0583333,0,1 @ F,0,0,1,0,1.0583333,0,1 @ F,0,0,1,0,1.0583333,0,1 @ F,0,0,1,0,1.0583333,0,1"
       radius="4"
       unit="px"
       method="auto"
       mode="F"
       chamfer_steps="1"
       flexible="false"
       use_knot_distance="true"
       apply_no_radius="true"
       apply_with_radius="true"
       only_selected="false"
       hide_knots="false" /><inkscape:path-effect
       effect="fillet_chamfer"
       id="path-effect21"
       is_visible="true"
       lpeversion="1"
       nodesatellites_param="F,0,0,1,0,1.0583333,0,1 @ F,0,0,1,0,1.0583333,0,1 @ F,0,0,1,0,1.0583333,0,1 @ F,0,0,1,0,1.0583333,0,1"
       radius="4"
       unit="px"
       method="auto"
       mode="F"
       chamfer_steps="1"
       flexible="false"
       use_knot_distance="true"
       apply_no_radius="true"
       apply_with_radius="true"
       only_selected="false"
       hide_knots="false" /><inkscape:path-effect
       effect="fillet_chamfer"
       id="path-effect8"
       is_visible="true"
       lpeversion="1"
       nodesatellites_param="F,0,0,1,0,1.0583333,0,1 @ F,0,0,1,0,1.0583333,0,1 @ F,0,0,1,0,1.0583333,0,1 @ F,0,0,1,0,1.0583333,0,1"
       radius="4"
       unit="px"
       method="auto"
       mode="F"
       chamfer_steps="1"
       flexible="false"
       use_knot_distance="true"
       apply_no_radius="true"
       apply_with_radius="true"
       only_selected="false"
       hide_knots="false" /><inkscape:path-effect
       effect="fillet_chamfer"
       id="path-effect7"
       is_visible="true"
       lpeversion="1"
       nodesatellites_param="F,0,0,1,0,0.52916665,0,1 @ F,0,0,1,0,0.52916665,0,1 @ F,0,0,1,0,0.52916665,0,1 @ F,0,0,1,0,0.52916665,0,1"
       radius="2"
       unit="px"
       method="auto"
       mode="F"
       chamfer_steps="1"
       flexible="false"
       use_knot_distance="true"
       apply_no_radius="true"
       apply_with_radius="true"
       only_selected="false"
       hide_knots="false" /><linearGradient
       id="swatch7"
       inkscape:swatch="solid"><stop
         style="stop-color:#000000;stop-opacity:1;"
         offset="0"
         id="stop7" /></linearGradient><linearGradient
       id="linearGradient1"
       inkscape:collect="always"><stop
         style="stop-color:#ffffff;stop-opacity:1;"
         offset="0"
         id="stop1" /><stop
         style="stop-color:#ffffff;stop-opacity:0;"
         offset="1"
         id="stop2" /></linearGradient><linearGradient
       inkscape:collect="always"
       xlink:href="#linearGradient1"
       id="linearGradient2"
       x1="114.63317"
       y1="109.02666"
       x2="116.32772"
       y2="109.02666"
       gradientUnits="userSpaceOnUse" /><inkscape:path-effect
       effect="fillet_chamfer"
       id="path-effect8-7"
       is_visible="true"
       lpeversion="1"
       nodesatellites_param="F,0,0,1,0,1.0583333,0,1 @ F,0,0,1,0,1.0583333,0,1 @ F,0,0,1,0,1.0583333,0,1 @ F,0,0,1,0,1.0583333,0,1"
       radius="4"
       unit="px"
       method="auto"
       mode="F"
       chamfer_steps="1"
       flexible="false"
       use_knot_distance="true"
       apply_no_radius="true"
       apply_with_radius="true"
       only_selected="false"
       hide_knots="false" /><inkscape:path-effect
       effect="fillet_chamfer"
       id="path-effect8-7-4"
       is_visible="true"
       lpeversion="1"
       nodesatellites_param="F,0,0,1,0,1.0583333,0,1 @ F,0,0,1,0,1.0583333,0,1 @ F,0,0,1,0,1.0583333,0,1 @ F,0,0,1,0,1.0583333,0,1"
       radius="4"
       unit="px"
       method="auto"
       mode="F"
       chamfer_steps="1"
       flexible="false"
       use_knot_distance="true"
       apply_no_radius="true"
       apply_with_radius="true"
       only_selected="false"
       hide_knots="false" /><filter
       inkscape:collect="always"
       style="color-interpolation-filters:sRGB"
       id="filter64"
       x="-0.077024628"
       y="-0.53261592"
       width="1.1540493"
       height="2.0652318"><feGaussianBlur
         inkscape:collect="always"
         stdDeviation="1.178577"
         id="feGaussianBlur64" /></filter><filter
       inkscape:collect="always"
       style="color-interpolation-filters:sRGB"
       id="filter65"
       x="-0.073606678"
       y="-0.32595575"
       width="1.1472134"
       height="1.6519115"><feGaussianBlur
         inkscape:collect="always"
         stdDeviation="1.178577"
         id="feGaussianBlur65" /></filter><filter
       inkscape:collect="always"
       style="color-interpolation-filters:sRGB"
       id="filter66"
       x="-0.073607119"
       y="-0.30463629"
       width="1.1472142"
       height="1.6092726"><feGaussianBlur
         inkscape:collect="always"
         stdDeviation="1.178577"
         id="feGaussianBlur66" /></filter><filter
       inkscape:collect="always"
       style="color-interpolation-filters:sRGB"
       id="filter67"
       x="-0.073606314"
       y="-0.33818458"
       width="1.1472126"
       height="1.6763692"><feGaussianBlur
         inkscape:collect="always"
         stdDeviation="1.178577"
         id="feGaussianBlur67" /></filter><filter
       inkscape:collect="always"
       style="color-interpolation-filters:sRGB"
       id="filter68"
       x="-0.073606793"
       y="-0.32440534"
       width="1.1472136"
       height="1.6488107"><feGaussianBlur
         inkscape:collect="always"
         stdDeviation="1.178577"
         id="feGaussianBlur68" /></filter><filter
       inkscape:collect="always"
       style="color-interpolation-filters:sRGB"
       id="filter69"
       x="-0.073606793"
       y="-0.35231931"
       width="1.1472136"
       height="1.7046386"><feGaussianBlur
         inkscape:collect="always"
         stdDeviation="1.178577"
         id="feGaussianBlur69" /></filter><filter
       inkscape:collect="always"
       style="color-interpolation-filters:sRGB"
       id="filter70"
       x="-0.073607042"
       y="-0.37219031"
       width="1.1472141"
       height="1.7443806"><feGaussianBlur
         inkscape:collect="always"
         stdDeviation="1.178577"
         id="feGaussianBlur70" /></filter><clipPath
       clipPathUnits="userSpaceOnUse"
       id="clipPath17"><path
         style="display:inline;fill:none;fill-opacity:1;stroke:#005073;stroke-width:0.190562;stroke-linecap:round;stroke-linejoin:round;stroke-dasharray:none;stroke-opacity:1"
         id="path17"
         width="6.1024303"
         height="6.1024299"
         x="115.53199"
         y="92.038628"
         sodipodi:type="rect"
         transform="matrix(6.2971762,0,0,6.2971738,-612.44653,-487.30965)"
         inkscape:label="rec"
         d="m 116.59032,92.038628 h 3.98577 a 1.0583333,1.0583333 45 0 1 1.05833,1.058333 v 3.985763 a 1.0583333,1.0583333 135 0 1 -1.05833,1.058333 h -3.98577 a 1.0583333,1.0583333 45 0 1 -1.05833,-1.058333 v -3.985763 a 1.0583333,1.0583333 135 0 1 1.05833,-1.058333 z"
         inkscape:path-effect="#path-effect2" /></clipPath><clipPath
       clipPathUnits="userSpaceOnUse"
       id="clipPath18"><path
         style="display:inline;fill:none;fill-opacity:1;stroke:#005073;stroke-width:0.190562;stroke-linecap:round;stroke-linejoin:round;stroke-dasharray:none;stroke-opacity:1"
         id="path18"
         width="6.1024303"
         height="6.1024299"
         x="115.53199"
         y="92.038628"
         sodipodi:type="rect"
         transform="matrix(6.2971762,0,0,6.2971738,-612.44653,-487.30965)"
         inkscape:label="rec"
         d="m 116.59032,92.038628 h 3.98577 a 1.0583333,1.0583333 45 0 1 1.05833,1.058333 v 3.985763 a 1.0583333,1.0583333 135 0 1 -1.05833,1.058333 h -3.98577 a 1.0583333,1.0583333 45 0 1 -1.05833,-1.058333 v -3.985763 a 1.0583333,1.0583333 135 0 1 1.05833,-1.058333 z"
         inkscape:path-effect="#path-effect2" /></clipPath><clipPath
       clipPathUnits="userSpaceOnUse"
       id="clipPath19"><path
         style="display:inline;fill:none;fill-opacity:1;stroke:#005073;stroke-width:0.190562;stroke-linecap:round;stroke-linejoin:round;stroke-dasharray:none;stroke-opacity:1"
         id="path19"
         width="6.1024303"
         height="6.1024299"
         x="115.53199"
         y="92.038628"
         sodipodi:type="rect"
         transform="matrix(6.2971762,0,0,6.2971738,-612.44653,-487.30965)"
         inkscape:label="rec"
         d="m 116.59032,92.038628 h 3.98577 a 1.0583333,1.0583333 45 0 1 1.05833,1.058333 v 3.985763 a 1.0583333,1.0583333 135 0 1 -1.05833,1.058333 h -3.98577 a 1.0583333,1.0583333 45 0 1 -1.05833,-1.058333 v -3.985763 a 1.0583333,1.0583333 135 0 1 1.05833,-1.058333 z"
         inkscape:path-effect="#path-effect2" /></clipPath><clipPath
       clipPathUnits="userSpaceOnUse"
       id="clipPath20"><path
         style="display:inline;fill:none;fill-opacity:1;stroke:#005073;stroke-width:0.190562;stroke-linecap:round;stroke-linejoin:round;stroke-dasharray:none;stroke-opacity:1"
         id="path20"
         width="6.1024303"
         height="6.1024299"
         x="115.53199"
         y="92.038628"
         sodipodi:type="rect"
         transform="matrix(6.2971762,0,0,6.2971738,-612.44653,-487.30965)"
         inkscape:label="rec"
         d="m 116.59032,92.038628 h 3.98577 a 1.0583333,1.0583333 45 0 1 1.05833,1.058333 v 3.985763 a 1.0583333,1.0583333 135 0 1 -1.05833,1.058333 h -3.98577 a 1.0583333,1.0583333 45 0 1 -1.05833,-1.058333 v -3.985763 a 1.0583333,1.0583333 135 0 1 1.05833,-1.058333 z"
         inkscape:path-effect="#path-effect2" /></clipPath><clipPath
       clipPathUnits="userSpaceOnUse"
       id="clipPath21"><path
         style="display:inline;fill:none;fill-opacity:1;stroke:#005073;stroke-width:0.190562;stroke-linecap:round;stroke-linejoin:round;stroke-dasharray:none;stroke-opacity:1"
         id="path21"
         width="6.1024303"
         height="6.1024299"
         x="115.53199"
         y="92.038628"
         sodipodi:type="rect"
         transform="matrix(6.2971762,0,0,6.2971738,-612.44653,-487.30965)"
         inkscape:label="rec"
         d="m 116.59032,92.038628 h 3.98577 a 1.0583333,1.0583333 45 0 1 1.05833,1.058333 v 3.985763 a 1.0583333,1.0583333 135 0 1 -1.05833,1.058333 h -3.98577 a 1.0583333,1.0583333 45 0 1 -1.05833,-1.058333 v -3.985763 a 1.0583333,1.0583333 135 0 1 1.05833,-1.058333 z"
         inkscape:path-effect="#path-effect2" /></clipPath><clipPath
       clipPathUnits="userSpaceOnUse"
       id="clipPath22"><path
         style="display:inline;fill:none;fill-opacity:1;stroke:#005073;stroke-width:0.190562;stroke-linecap:round;stroke-linejoin:round;stroke-dasharray:none;stroke-opacity:1"
         id="path22"
         width="6.1024303"
         height="6.1024299"
         x="115.53199"
         y="92.038628"
         sodipodi:type="rect"
         transform="matrix(6.2971762,0,0,6.2971738,-612.44653,-487.30965)"
         inkscape:label="rec"
         d="m 116.59032,92.038628 h 3.98577 a 1.0583333,1.0583333 45 0 1 1.05833,1.058333 v 3.985763 a 1.0583333,1.0583333 135 0 1 -1.05833,1.058333 h -3.98577 a 1.0583333,1.0583333 45 0 1 -1.05833,-1.058333 v -3.985763 a 1.0583333,1.0583333 135 0 1 1.05833,-1.058333 z"
         inkscape:path-effect="#path-effect2" /></clipPath><clipPath
       clipPathUnits="userSpaceOnUse"
       id="clipPath23"><path
         style="display:inline;fill:none;fill-opacity:1;stroke:#005073;stroke-width:0.190562;stroke-linecap:round;stroke-linejoin:round;stroke-dasharray:none;stroke-opacity:1"
         id="path23"
         width="6.1024303"
         height="6.1024299"
         x="115.53199"
         y="92.038628"
         sodipodi:type="rect"
         transform="matrix(6.2971762,0,0,6.2971738,-612.44653,-487.30965)"
         inkscape:label="rec"
         d="m 116.59032,92.038628 h 3.98577 a 1.0583333,1.0583333 45 0 1 1.05833,1.058333 v 3.985763 a 1.0583333,1.0583333 135 0 1 -1.05833,1.058333 h -3.98577 a 1.0583333,1.0583333 45 0 1 -1.05833,-1.058333 v -3.985763 a 1.0583333,1.0583333 135 0 1 1.05833,-1.058333 z"
         inkscape:path-effect="#path-effect2" /></clipPath></defs><g
     inkscape:groupmode="layer"
     id="g83"
     inkscape:label="waves"
     style="display:inline;stroke:#107dac;stroke-opacity:1"
     transform="translate(-114.47877,-91.673585)"><path
       id="path76"
       style="display:inline;fill:#189ad3;fill-opacity:1;stroke:none;stroke-width:0.30045;stroke-dasharray:none;stroke-opacity:1"
       inkscape:label="wave1"
       d="m 121.75404,92.275735 a 6.6745041,6.6745014 0 0 0 -6.20191,4.318224 c 0.68211,0.04041 1.35611,0.0687 1.95212,0.06162 2.68034,-0.03048 6.64644,-0.645768 8.14111,-1.049408 1.31177,-0.356943 3.3106,-0.954759 4.84942,-1.319908 1.55141,-0.367676 2.50537,-0.566853 3.64685,-0.580104 1.1415,-0.01325 2.09242,0.166245 3.65014,0.498604 1.55144,0.32984 3.55762,0.878531 4.88203,1.205849 1.50097,0.370192 5.48033,0.894544 8.16063,0.863641 0.64371,-0.0073 1.36626,-0.05102 2.10533,-0.114099 a 6.6745041,6.6745014 0 0 0 -6.04879,-3.884767 z" /><path
       id="path52"
       style="display:inline;fill:#005073;fill-opacity:1;stroke:none;stroke-width:0.3;stroke-dasharray:none;stroke-opacity:1;filter:url(#filter70)"
       inkscape:label="wave2 shadow"
       d="m 134.11219,93.102995 c -1.13977,0.01322 -2.0923,0.21211 -3.64139,0.579236 -1.53651,0.364609 -3.53235,0.961517 -4.84216,1.317938 -1.49243,0.403048 -5.45259,1.017608 -8.12892,1.047837 -0.59505,0.0066 -1.26811,-0.02183 -1.9492,-0.06153 a 6.6645114,6.6645087 0 0 0 -0.47166,2.352749 v 1.854855 c 0.96679,0.12724 1.96244,0.22873 2.7985,0.23753 2.034,0.0212 5.04621,-0.41715 6.17969,-0.72568 1.00127,-0.27265 2.51893,-0.733595 3.69021,-1.008783 1.17758,-0.277676 1.90003,-0.426008 2.76276,-0.416547 0.8627,0.0086 1.58827,0.172215 2.75954,0.475098 1.16499,0.300369 2.67554,0.793442 3.66422,1.086882 1.13348,0.33311 4.12911,0.83768 6.15681,0.8591 2.03398,0.0212 5.03987,-0.41972 6.17965,-0.72894 1.00126,-0.27264 2.51893,-0.730338 3.69022,-1.00552 0.21474,-0.05027 0.35891,-0.07211 0.54658,-0.113928 V 98.33916 a 6.6645114,6.6645087 0 0 0 -0.62466,-2.785558 c -0.73797,0.06285 -1.45944,0.10665 -2.10219,0.113928 -2.6763,0.03109 -6.64969,-0.492697 -8.14842,-0.86235 -1.32241,-0.326832 -3.3256,-0.874701 -4.87471,-1.204042 -1.55539,-0.331861 -2.50489,-0.511222 -3.64468,-0.497859 z"
       clip-path="url(#clipPath23)"
       transform="matrix(1.0014994,0,0,1.0014994,-0.17164786,-0.13745408)" /><path
       id="path77"
       style="display:inline;fill:#1ebbd7;fill-opacity:1;stroke:none;stroke-width:0.30045;stroke-dasharray:none;stroke-opacity:1"
       inkscape:label="wave2"
       d="m 134.14163,93.706446 c -1.14148,0.01324 -2.09544,0.212429 -3.64685,0.580105 -1.53882,0.365156 -3.53765,0.962959 -4.84942,1.319914 -1.49467,0.403652 -5.46077,1.019134 -8.14111,1.049408 -0.59594,0.0066 -1.27001,-0.02186 -1.95212,-0.06162 a 6.6745041,6.6745014 0 0 0 -0.47237,2.356277 v 1.85764 c 0.96824,0.12743 1.96538,0.22907 2.8027,0.23788 2.03705,0.0212 5.05377,-0.41777 6.18895,-0.72677 1.00277,-0.27305 2.52271,-0.734691 3.69574,-1.010292 1.17935,-0.278092 1.90288,-0.426646 2.76691,-0.417171 0.86399,0.0086 1.59065,0.172473 2.76367,0.47581 1.16674,0.300819 2.67956,0.794633 3.66972,1.088513 1.13518,0.33361 4.1353,0.83893 6.16604,0.86039 2.03703,0.0212 5.04743,-0.42035 6.18892,-0.73004 1.00276,-0.27304 2.5227,-0.731429 3.69575,-1.007024 0.21506,-0.05035 0.35945,-0.07222 0.5474,-0.114099 v -0.514902 a 6.6745041,6.6745014 0 0 0 -0.6256,-2.789735 c -0.73907,0.06294 -1.46163,0.10681 -2.10534,0.114099 -2.68031,0.03114 -6.65966,-0.493436 -8.16064,-0.863643 -1.32439,-0.327322 -3.33058,-0.876013 -4.88202,-1.205848 -1.55772,-0.332358 -2.50864,-0.511988 -3.65014,-0.498605 z" /><path
       id="path53"
       style="display:inline;fill:#005073;fill-opacity:1;stroke:none;stroke-width:0.3;stroke-dasharray:none;stroke-opacity:1;filter:url(#filter69)"
       inkscape:label="wave3 shadow"
       d="m 130.50984,98.280354 c -0.86273,-0.0093 -1.5852,0.13887 -2.76277,0.416547 -1.17127,0.275162 -2.68894,0.736119 -3.6902,1.008789 -1.13349,0.30857 -4.1457,0.74708 -6.1797,0.72568 -0.83606,-0.009 -1.8317,-0.11035 -2.7985,-0.23752 v 5.82494 c 1.83366,-0.26889 3.6196,-0.66603 4.50045,-0.98602 1.24683,-0.45656 3.14714,-1.22155 4.61438,-1.68565 1.47355,-0.4673 2.37933,-0.71853 3.46243,-0.71916 1.08944,-6.3e-4 1.99236,0.25185 3.47222,0.71916 1.46095,0.46412 3.36753,1.22911 4.61438,1.68565 1.42317,0.51698 5.19454,1.27627 7.74489,1.27564 2.54406,-6.2e-4 6.31847,-0.75927 7.74162,-1.27564 0.63928,-0.23294 1.44604,-0.54562 2.27794,-0.85909 v -5.320541 c -0.18766,0.04168 -0.33247,0.06352 -0.54657,0.113927 -1.1713,0.275162 -2.68897,0.732864 -3.69023,1.005524 -1.13978,0.30918 -4.14567,0.75035 -6.17965,0.72894 -2.02769,-0.0212 -5.02334,-0.52598 -6.15683,-0.8591 -0.98865,-0.29341 -2.49922,-0.78651 -3.66421,-1.086885 -1.17126,-0.302883 -1.89682,-0.466299 -2.75954,-0.475098 z"
       clip-path="url(#clipPath22)"
       transform="matrix(1.0014994,0,0,1.0014994,-0.17164786,-0.13745408)" /><path
       id="path78"
       style="display:inline;fill:#189ad3;fill-opacity:1;stroke:none;stroke-width:0.30045;stroke-dasharray:none;stroke-opacity:1"
       inkscape:label="wave3"
       d="m 130.53388,98.891568 c -0.86403,-0.0093 -1.58758,0.139079 -2.76692,0.417172 -1.17302,0.275574 -2.69297,0.73722 -3.69573,1.0103 -1.13519,0.30904 -4.15191,0.7482 -6.18896,0.72677 -0.83732,-0.009 -1.83445,-0.11051 -2.8027,-0.23787 v 5.83367 c 1.83641,-0.26929 3.62503,-0.66703 4.5072,-0.9875 1.2487,-0.45724 3.15186,-1.22338 4.6213,-1.68818 1.47576,-0.468 2.38289,-0.7196 3.46762,-0.72023 1.09107,-6.4e-4 1.99534,0.25222 3.47742,0.72023 1.46314,0.46482 3.37258,1.23096 4.6213,1.68818 1.42531,0.51776 5.20233,1.27818 7.75651,1.27755 2.54787,-6.2e-4 6.32794,-0.7604 7.75322,-1.27755 0.64024,-0.23329 1.44821,-0.54644 2.28136,-0.86038 v -5.328518 c -0.18794,0.04174 -0.33297,0.06362 -0.54739,0.114098 -1.17306,0.275575 -2.693,0.73396 -3.69576,1.00703 -1.14149,0.30965 -4.15189,0.75148 -6.18892,0.73004 -2.03073,-0.0212 -5.03087,-0.52677 -6.16606,-0.86039 -0.99013,-0.29385 -2.50297,-0.787693 -3.66971,-1.088518 -1.17301,-0.303337 -1.89966,-0.466998 -2.76367,-0.475811 z" /><path
       id="path54"
       style="display:inline;fill:#005073;fill-opacity:1;stroke:none;stroke-width:0.3;stroke-dasharray:none;stroke-opacity:1;filter:url(#filter68)"
       inkscape:label="wave4 shadow"
       d="m 127.65593,102.62791 c -1.0831,6.2e-4 -1.98888,0.25185 -3.46243,0.71916 -1.46724,0.46411 -3.36755,1.22912 -4.61438,1.68565 -0.88085,0.32001 -2.66679,0.71714 -4.50045,0.98602 v 3.97984 c 1.026,-0.24078 2.09506,-0.50178 3.0686,-0.6899 1.40428,-0.27078 2.26353,-0.41608 3.28997,-0.4035 1.02644,0.0119 1.87555,0.1748 3.26723,0.47834 1.37907,0.30162 3.16646,0.79543 4.33774,1.09014 1.3413,0.33379 4.90007,0.84378 7.3056,0.87212 2.41184,0.0284 5.98093,-0.39735 7.33482,-0.69964 1.19018,-0.26637 2.99822,-0.71713 4.3899,-0.98602 1.39797,-0.2708 2.26025,-0.41285 3.28667,-0.40027 0.70151,0.008 1.38117,0.11121 2.14778,0.25703 v -5.34332 c -0.8319,0.31347 -1.63866,0.62622 -2.27794,0.85908 -1.42315,0.5164 -5.19756,1.27502 -7.74162,1.27565 -2.55035,6.3e-4 -6.32172,-0.75864 -7.74489,-1.27565 -1.24685,-0.45656 -3.15343,-1.22154 -4.61438,-1.68564 -1.47986,-0.46724 -2.38278,-0.71979 -3.47222,-0.71916 z"
       clip-path="url(#clipPath21)"
       transform="matrix(1.0014994,0,0,1.0014994,-0.17164786,-0.13745408)" /><path
       id="path79"
       style="display:inline;fill:#1ebbd7;fill-opacity:1;stroke:none;stroke-width:0.30045;stroke-dasharray:none;stroke-opacity:1"
       inkscape:label="wave4"
       d="m 127.67569,103.24565 c -1.08473,6.2e-4 -1.99186,0.25222 -3.46762,0.72023 -1.46944,0.46481 -3.3726,1.23097 -4.6213,1.68818 -0.88217,0.32049 -2.67079,0.71822 -4.5072,0.9875 v 3.98581 c 1.02754,-0.24114 2.0982,-0.50254 3.0732,-0.69094 1.40639,-0.27118 2.26692,-0.4167 3.2949,-0.4041 1.02798,0.0119 1.87837,0.17506 3.27213,0.47905 1.38114,0.30208 3.17121,0.79663 4.34425,1.09178 1.34331,0.33429 4.90741,0.84504 7.31655,0.87343 2.41546,0.0284 5.9899,-0.39795 7.34582,-0.70069 1.19196,-0.26677 3.00271,-0.71821 4.39648,-0.9875 1.40007,-0.27121 2.26364,-0.41347 3.2916,-0.40087 0.70256,0.008 1.38324,0.11138 2.151,0.25741 v -5.35133 c -0.83315,0.31394 -1.64112,0.62716 -2.28136,0.86037 -1.42528,0.51717 -5.20535,1.27693 -7.75322,1.27756 -2.55418,6.3e-4 -6.3312,-0.75977 -7.75651,-1.27756 -1.24872,-0.45724 -3.15816,-1.22337 -4.6213,-1.68817 -1.48208,-0.46794 -2.38635,-0.72087 -3.47742,-0.72024 z" /><path
       id="path55"
       style="display:inline;fill:#005073;fill-opacity:1;stroke:none;stroke-width:0.3;stroke-dasharray:none;stroke-opacity:1;filter:url(#filter67)"
       inkscape:label="wave5 shadow"
       d="m 121.43724,108.90517 c -1.02644,-0.0126 -1.88569,0.13272 -3.28997,0.40351 -0.97354,0.18809 -2.0426,0.44916 -3.0686,0.68989 v 7.22097 c 0.19584,0.0126 0.41372,0.0489 0.5957,0.0489 1.9899,-6.3e-4 4.93819,-0.82583 6.05278,-1.38629 0.97607,-0.49434 2.45949,-1.32568 3.60558,-1.82883 1.15239,-0.50625 1.86693,-0.77713 2.71074,-0.77774 0.85012,0 1.55503,0.27146 2.70741,0.77774 1.1461,0.50249 2.62957,1.33388 3.60563,1.82883 1.11461,0.5598 4.06301,1.38302 6.05922,1.38302 1.98991,-6.3e-4 4.93811,-0.82256 6.05271,-1.38302 0.97606,-0.49434 2.45956,-1.32568 3.60564,-1.82883 1.15238,-0.50625 1.86687,-0.78037 2.71068,-0.781 0.24812,0 0.48425,0.0324 0.72247,0.0781 v -3.83332 c -0.76661,-0.1459 -1.44626,-0.24897 -2.14777,-0.25704 -1.02642,-0.0125 -1.88871,0.12948 -3.28669,0.40026 -1.39166,0.26889 -3.19971,0.71965 -4.38989,0.98603 -1.35389,0.30229 -4.92299,0.72798 -7.33482,0.69964 -2.40552,-0.0284 -5.96429,-0.53836 -7.30559,-0.87212 -1.17129,-0.29467 -2.95868,-0.78851 -4.33775,-1.09014 -1.39168,-0.30354 -2.24079,-0.46636 -3.26722,-0.47835 z"
       clip-path="url(#clipPath20)"
       transform="matrix(1.0014994,0,0,1.0014994,-0.17164786,-0.13745408)" /><path
       id="path80"
       style="display:inline;fill:#189ad3;fill-opacity:1;stroke:none;stroke-width:0.30045;stroke-dasharray:none;stroke-opacity:1"
       inkscape:label="wave5"
       d="m 121.44767,109.53232 c -1.02798,-0.0126 -1.88851,0.13292 -3.2949,0.40411 -0.975,0.18837 -2.04566,0.44984 -3.0732,0.69093 v 7.23179 c 0.19613,0.0126 0.41434,0.049 0.59659,0.049 1.99289,-6.3e-4 4.9456,-0.82707 6.06186,-1.38837 0.97753,-0.49508 2.46318,-1.32767 3.61098,-1.83157 1.15412,-0.50701 1.86973,-0.7783 2.71481,-0.77891 0.85139,0 1.55736,0.27187 2.71147,0.77891 1.14782,0.50324 2.63351,1.33588 3.61103,1.83157 1.11629,0.56064 4.06911,1.38509 6.06831,1.38509 1.99289,-6.3e-4 4.94551,-0.82379 6.06178,-1.38509 0.97753,-0.49508 2.46325,-1.32767 3.61105,-1.83157 1.15411,-0.50701 1.86967,-0.78154 2.71475,-0.78217 0.24849,0 0.48497,0.0324 0.72355,0.0782 v -3.83907 c -0.76776,-0.14611 -1.44843,-0.24934 -2.15099,-0.25742 -1.02796,-0.0125 -1.89154,0.12967 -3.29162,0.40086 -1.39375,0.26929 -3.20451,0.72073 -4.39647,0.98751 -1.35592,0.30274 -4.93037,0.72907 -7.34582,0.70069 -2.40913,-0.0284 -5.97323,-0.53917 -7.31654,-0.87343 -1.17305,-0.29511 -2.96312,-0.78969 -4.34426,-1.09178 -1.39376,-0.30399 -2.24415,-0.46705 -3.27212,-0.47906 z" /><path
       id="path56"
       style="display:inline;fill:#005073;fill-opacity:1;stroke:none;stroke-width:0.3;stroke-dasharray:none;stroke-opacity:1;filter:url(#filter66)"
       inkscape:label="wave6 shadow"
       d="m 152.78452,113.27224 c -0.84383,6.4e-4 -1.55831,0.27471 -2.71069,0.781 -1.14608,0.50316 -2.62957,1.33452 -3.60563,1.82884 -1.11462,0.56045 -4.06282,1.38239 -6.05272,1.38302 -1.99622,0 -4.94462,-0.8232 -6.05921,-1.38302 -0.97607,-0.49495 -2.45954,-1.32632 -3.60565,-1.82884 -1.15237,-0.50632 -1.85729,-0.77774 -2.70741,-0.77774 -0.84379,6.2e-4 -1.55835,0.27146 -2.71073,0.77774 -1.14608,0.50316 -2.62951,1.33452 -3.60558,1.82884 -1.11459,0.56045 -4.06288,1.38565 -6.05278,1.38628 -0.18199,0 -0.39987,-0.0358 -0.5957,-0.049 v 5.14156 c 1.28033,0.1261 2.58485,0.21667 3.68365,0.19198 2.78335,-0.0622 6.88225,-0.82013 8.42506,-1.30816 1.35388,-0.43137 3.42125,-1.15184 5.00812,-1.59454 1.5995,-0.44585 2.58746,-0.68883 3.76503,-0.7159 1.18388,-0.0265 2.17945,0.17202 3.80412,0.5467 1.60579,0.37153 3.69392,0.99971 5.06672,1.36999 1.56169,0.41873 5.69372,0.99627 8.47706,0.93392 0.063,-9.8e-4 0.13664,-0.0106 0.19838,-0.0132 v -8.42176 c -0.23867,-0.0457 -0.47418,-0.0781 -0.72249,-0.0781 z"
       clip-path="url(#clipPath19)"
       transform="matrix(1.0014994,0,0,1.0014994,-0.17164786,-0.13745408)" /><path
       id="path81"
       style="display:inline;fill:#1ebbd7;fill-opacity:1;stroke:none;stroke-width:0.30045;stroke-dasharray:none;stroke-opacity:1"
       inkscape:label="wave6"
       d="m 152.84196,113.90593 c -0.8451,6.5e-4 -1.56065,0.27513 -2.71476,0.78218 -1.1478,0.50391 -2.63351,1.33652 -3.61104,1.83158 -1.11629,0.56129 -4.06891,1.38446 -6.06179,1.38509 -1.99921,0 -4.95203,-0.82443 -6.0683,-1.38509 -0.97753,-0.49569 -2.46322,-1.32831 -3.61105,-1.83158 -1.1541,-0.50708 -1.86008,-0.77891 -2.71147,-0.77891 -0.84506,6.2e-4 -1.56069,0.27187 -2.7148,0.77891 -1.14779,0.50391 -2.63345,1.33652 -3.61098,1.83158 -1.11626,0.56129 -4.06897,1.38773 -6.06186,1.38836 -0.18226,0 -0.40047,-0.0359 -0.59659,-0.0491 v 5.14927 c 1.28225,0.12629 2.58872,0.217 3.68917,0.19227 2.78753,-0.0623 6.89257,-0.82136 8.43769,-1.31012 1.35591,-0.43202 3.42638,-1.15357 5.01563,-1.59693 1.6019,-0.44652 2.59134,-0.68986 3.77068,-0.71698 1.18565,-0.0265 2.18272,0.17228 3.80982,0.54752 1.6082,0.37209 3.69946,1.00121 5.07432,1.37205 1.56403,0.41936 5.70226,0.99776 8.48977,0.93532 0.0631,-9.8e-4 0.13685,-0.0106 0.19868,-0.0132 v -8.43439 c -0.23903,-0.0458 -0.47489,-0.0782 -0.72358,-0.0782 z" /><path
       id="path57"
       style="display:inline;fill:#005073;fill-opacity:1;stroke:none;stroke-width:0.3;stroke-dasharray:none;stroke-opacity:1;filter:url(#filter65)"
       inkscape:label="wave7 shadow"
       d="m 135.96053,118.93448 c -1.17756,0.0272 -2.16554,0.27007 -3.76502,0.71592 -1.58688,0.44268 -3.65425,1.16318 -5.00813,1.59452 -1.54282,0.48801 -5.64172,1.24583 -8.42505,1.30817 -1.0988,0.0245 -2.40333,-0.0662 -3.68366,-0.19199 v 1.07713 a 6.6645114,6.6645087 0 0 0 1.14545,3.65766 c 1.03639,-0.16017 1.97455,-0.32895 2.52196,-0.47835 1.27203,-0.34634 3.20626,-0.9301 4.69245,-1.28211 1.49874,-0.35516 2.41881,-0.54094 3.51453,-0.54345 1.10206,6.3e-4 2.01554,0.19225 3.50796,0.54992 1.47354,0.35389 3.39425,0.93979 4.65998,1.28864 1.43576,0.39546 5.24442,0.97762 7.82625,0.97951 2.5819,0.002 6.40391,-0.57354 7.85226,-0.96649 0.60329,-0.16421 1.36518,-0.38433 2.14773,-0.6053 a 6.6645114,6.6645087 0 0 0 0.5598,-2.60007 v -1.66613 c -0.0629,0.002 -0.1379,0.0119 -0.19837,0.0132 -2.78334,0.0622 -6.91534,-0.51518 -8.47704,-0.93394 -1.37281,-0.3703 -3.46094,-0.99847 -5.06671,-1.36998 -1.6247,-0.37468 -2.62025,-0.57316 -3.80413,-0.54677 z"
       clip-path="url(#clipPath18)"
       transform="matrix(1.0014994,0,0,1.0014994,-0.17164786,-0.13745408)" /><path
       id="path82"
       style="display:inline;fill:#189ad3;fill-opacity:1;stroke:none;stroke-width:0.30045;stroke-dasharray:none;stroke-opacity:1"
       inkscape:label="wave7"
       d="m 135.99274,119.57666 c -1.17933,0.0272 -2.16879,0.27048 -3.77067,0.717 -1.58926,0.44334 -3.65972,1.16492 -5.01563,1.59691 -1.54514,0.48874 -5.65018,1.2477 -8.43769,1.31013 -1.10044,0.0245 -2.40693,-0.0663 -3.68918,-0.19228 v 1.07875 a 6.6745041,6.6745014 0 0 0 1.14717,3.66314 c 1.03794,-0.16041 1.97751,-0.32944 2.52574,-0.47907 1.27394,-0.34685 3.21107,-0.93149 4.69948,-1.28403 1.50099,-0.35569 2.42244,-0.54175 3.5198,-0.54426 1.10372,6.3e-4 2.01857,0.19254 3.51322,0.55074 1.47575,0.35442 3.39934,0.9412 4.66697,1.29057 1.43791,0.39606 5.25228,0.97909 7.83799,0.98098 2.58577,0.002 6.41351,-0.5744 7.86403,-0.96794 0.60419,-0.16445 1.36723,-0.3849 2.15095,-0.6062 a 6.6745041,6.6745014 0 0 0 0.56064,-2.60397 v -1.66863 c -0.063,0.002 -0.13811,0.0119 -0.19867,0.0132 -2.78751,0.0623 -6.92571,-0.51595 -8.48975,-0.93534 -1.37487,-0.37086 -3.46613,-0.99997 -5.07431,-1.37204 -1.62713,-0.37524 -2.62418,-0.57401 -3.80983,-0.54759 z" /><path
       id="path58"
       style="display:inline;fill:#005073;fill-opacity:1;stroke:none;stroke-width:0.3;stroke-dasharray:none;stroke-opacity:1;filter:url(#filter64)"
       inkscape:label="wave8 shadow"
       d="m 126.95306,124.79196 c -1.09572,0.003 -2.01579,0.18829 -3.51453,0.54344 -1.48619,0.35205 -3.42042,0.93578 -4.69245,1.28213 -0.5466,0.14927 -1.48682,0.32155 -2.52196,0.48158 a 6.6645114,6.6645087 0 0 0 5.51903,3.00359 h 25.09929 a 6.6645114,6.6645087 0 0 0 6.1048,-4.06443 c -0.78255,0.22097 -1.54457,0.44102 -2.14773,0.6053 -1.44835,0.39294 -5.27036,0.96837 -7.85226,0.96649 -2.58183,-0.002 -6.39049,-0.58406 -7.82625,-0.97952 -1.26573,-0.34884 -3.18644,-0.93473 -4.65998,-1.28863 -1.49242,-0.35767 -2.4059,-0.54932 -3.50796,-0.54992 z"
       clip-path="url(#clipPath17)"
       transform="matrix(1.0014994,0,0,1.0014994,-0.17164786,-0.13745408)" /><path
       id="path83"
       style="display:inline;fill:#1ebbd7;fill-opacity:1;stroke:none;stroke-width:0.30045;stroke-dasharray:none;stroke-opacity:1"
       inkscape:label="wave8"
       d="m 126.97176,125.44293 c -1.09736,0.003 -2.01881,0.18857 -3.5198,0.54425 -1.48841,0.35258 -3.42554,0.93719 -4.69948,1.28405 -0.54742,0.1495 -1.48905,0.32204 -2.52574,0.48231 a 6.6745041,6.6745014 0 0 0 5.5273,3.00809 h 25.13693 a 6.6745041,6.6745014 0 0 0 6.11395,-4.07052 c -0.78372,0.2213 -1.54689,0.44168 -2.15095,0.6062 -1.45052,0.39353 -5.27826,0.96983 -7.86403,0.96794 -2.58571,-0.002 -6.40008,-0.58493 -7.83799,-0.98099 -1.26763,-0.34936 -3.19122,-0.93613 -4.66697,-1.29056 -1.49465,-0.3582 -2.4095,-0.55014 -3.51322,-0.55074 z" /></g><text
     xml:space="preserve"
     style="font-size:31.7976px;font-family:'JetBrainsMono Nerd Font';-inkscape-font-specification:'JetBrainsMono Nerd Font';text-align:start;writing-mode:lr-tb;direction:ltr;text-anchor:start;display:inline;fill:#005073;fill-opacity:1;stroke:#005073;stroke-width:0.706795;stroke-opacity:1"
     x="9.0297651"
     y="30.440359"
     id="text1"
     inkscape:label="R"><tspan
       sodipodi:role="line"
       id="tspan1"
       style="font-style:normal;font-variant:normal;font-weight:normal;font-stretch:normal;font-size:31.7976px;font-family:Cambria;-inkscape-font-specification:Cambria;fill:#005073;fill-opacity:1;stroke:#005073;stroke-width:0.706795;stroke-opacity:1"
       x="9.0297651"
       y="30.440359">R</tspan></text><path
     style="display:inline;fill:none;fill-opacity:1;stroke:#005073;stroke-width:0.190562;stroke-linecap:round;stroke-linejoin:round;stroke-dasharray:none;stroke-opacity:1"
     id="rect7"
     width="6.1024303"
     height="6.1024299"
     x="115.53199"
     y="92.038628"
     sodipodi:type="rect"
     d="m 116.59032,92.038628 h 3.98577 a 1.0583333,1.0583333 45 0 1 1.05833,1.058333 v 3.985763 a 1.0583333,1.0583333 135 0 1 -1.05833,1.058333 h -3.98577 a 1.0583333,1.0583333 45 0 1 -1.05833,-1.058333 v -3.985763 a 1.0583333,1.0583333 135 0 1 1.05833,-1.058333 z"
     transform="matrix(6.3066182,0,0,6.3066158,-728.01525,-579.85136)"
     inkscape:label="rec"
     inkscape:path-effect="#path-effect8" /><metadata
     id="metadata7"><rdf:RDF><cc:Work
         rdf:about=""><dc:title>rodpcastro</dc:title><dc:date>10/05/2025</dc:date><dc:creator><cc:Agent><dc:title>Rodrigo Castro</dc:title></cc:Agent></dc:creator><dc:description>color palette: https://www.color-hex.com/color-palette/30415</dc:description></cc:Work></rdf:RDF></metadata></svg>
