<?xml version="1.0" encoding="utf-8" standalone="no"?>
<!DOCTYPE svg PUBLIC "-//W3C//DTD SVG 1.1//EN"
  "http://www.w3.org/Graphics/SVG/1.1/DTD/svg11.dtd">
<svg xmlns:xlink="http://www.w3.org/1999/xlink" width="504pt" height="288pt" viewBox="0 0 504 288" xmlns="http://www.w3.org/2000/svg" version="1.1">
 <metadata>
  <rdf:RDF xmlns:dc="http://purl.org/dc/elements/1.1/" xmlns:cc="http://creativecommons.org/ns#" xmlns:rdf="http://www.w3.org/1999/02/22-rdf-syntax-ns#">
   <cc:Work>
    <dc:type rdf:resource="http://purl.org/dc/dcmitype/StillImage"/>
    <dc:date>2025-04-26T01:50:02.416370</dc:date>
    <dc:format>image/svg+xml</dc:format>
    <dc:creator>
     <cc:Agent>
      <dc:title>Matplotlib v3.10.0, https://matplotlib.org/</dc:title>
     </cc:Agent>
    </dc:creator>
   </cc:Work>
  </rdf:RDF>
 </metadata>
 <defs>
  <style type="text/css">*{stroke-linejoin: round; stroke-linecap: butt}</style>
 </defs>
 <g id="figure_1">
  <g id="patch_1">
   <path d="M 0 288 
L 504 288 
L 504 0 
L 0 0 
z
" style="fill: #ffffff"/>
  </g>
  <g id="axes_1">
   <g id="patch_2">
    <path d="M 63 256.32 
L 453.6 256.32 
L 453.6 34.56 
L 63 34.56 
z
" style="fill: #ffffff"/>
   </g>
   <g id="matplotlib.axis_1">
    <g id="xtick_1">
     <g id="line2d_1">
      <defs>
       <path id="m2ef940956c" d="M 0 0 
L 0 3.5 
" style="stroke: #000000; stroke-width: 0.8"/>
      </defs>
      <g>
       <use xlink:href="#m2ef940956c" x="80.754545" y="256.32" style="stroke: #000000; stroke-width: 0.8"/>
      </g>
     </g>
     <g id="text_1">
      <!-- $\mathdefault{10^{-10}}$ -->
      <g transform="translate(66.804545 270.918437) scale(0.1 -0.1)">
       <defs>
        <path id="DejaVuSans-31" d="M 794 531 
L 1825 531 
L 1825 4091 
L 703 3866 
L 703 4441 
L 1819 4666 
L 2450 4666 
L 2450 531 
L 3481 531 
L 3481 0 
L 794 0 
L 794 531 
z
" transform="scale(0.015625)"/>
        <path id="DejaVuSans-30" d="M 2034 4250 
Q 1547 4250 1301 3770 
Q 1056 3291 1056 2328 
Q 1056 1369 1301 889 
Q 1547 409 2034 409 
Q 2525 409 2770 889 
Q 3016 1369 3016 2328 
Q 3016 3291 2770 3770 
Q 2525 4250 2034 4250 
z
M 2034 4750 
Q 2819 4750 3233 4129 
Q 3647 3509 3647 2328 
Q 3647 1150 3233 529 
Q 2819 -91 2034 -91 
Q 1250 -91 836 529 
Q 422 1150 422 2328 
Q 422 3509 836 4129 
Q 1250 4750 2034 4750 
z
" transform="scale(0.015625)"/>
        <path id="DejaVuSans-2212" d="M 678 2272 
L 4684 2272 
L 4684 1741 
L 678 1741 
L 678 2272 
z
" transform="scale(0.015625)"/>
       </defs>
       <use xlink:href="#DejaVuSans-31" transform="translate(0 0.765625)"/>
       <use xlink:href="#DejaVuSans-30" transform="translate(63.623047 0.765625)"/>
       <use xlink:href="#DejaVuSans-2212" transform="translate(128.203125 39.046875) scale(0.7)"/>
       <use xlink:href="#DejaVuSans-31" transform="translate(186.855469 39.046875) scale(0.7)"/>
       <use xlink:href="#DejaVuSans-30" transform="translate(231.391602 39.046875) scale(0.7)"/>
      </g>
     </g>
    </g>
    <g id="xtick_2">
     <g id="line2d_2">
      <g>
       <use xlink:href="#m2ef940956c" x="169.527273" y="256.32" style="stroke: #000000; stroke-width: 0.8"/>
      </g>
     </g>
     <g id="text_2">
      <!-- $\mathdefault{10^{-7}}$ -->
      <g transform="translate(157.777273 270.918437) scale(0.1 -0.1)">
       <defs>
        <path id="DejaVuSans-37" d="M 525 4666 
L 3525 4666 
L 3525 4397 
L 1831 0 
L 1172 0 
L 2766 4134 
L 525 4134 
L 525 4666 
z
" transform="scale(0.015625)"/>
       </defs>
       <use xlink:href="#DejaVuSans-31" transform="translate(0 0.684375)"/>
       <use xlink:href="#DejaVuSans-30" transform="translate(63.623047 0.684375)"/>
       <use xlink:href="#DejaVuSans-2212" transform="translate(128.203125 38.965625) scale(0.7)"/>
       <use xlink:href="#DejaVuSans-37" transform="translate(186.855469 38.965625) scale(0.7)"/>
      </g>
     </g>
    </g>
    <g id="xtick_3">
     <g id="line2d_3">
      <g>
       <use xlink:href="#m2ef940956c" x="258.3" y="256.32" style="stroke: #000000; stroke-width: 0.8"/>
      </g>
     </g>
     <g id="text_3">
      <!-- $\mathdefault{10^{-4}}$ -->
      <g transform="translate(246.55 270.918437) scale(0.1 -0.1)">
       <defs>
        <path id="DejaVuSans-34" d="M 2419 4116 
L 825 1625 
L 2419 1625 
L 2419 4116 
z
M 2253 4666 
L 3047 4666 
L 3047 1625 
L 3713 1625 
L 3713 1100 
L 3047 1100 
L 3047 0 
L 2419 0 
L 2419 1100 
L 313 1100 
L 313 1709 
L 2253 4666 
z
" transform="scale(0.015625)"/>
       </defs>
       <use xlink:href="#DejaVuSans-31" transform="translate(0 0.684375)"/>
       <use xlink:href="#DejaVuSans-30" transform="translate(63.623047 0.684375)"/>
       <use xlink:href="#DejaVuSans-2212" transform="translate(128.203125 38.965625) scale(0.7)"/>
       <use xlink:href="#DejaVuSans-34" transform="translate(186.855469 38.965625) scale(0.7)"/>
      </g>
     </g>
    </g>
    <g id="xtick_4">
     <g id="line2d_4">
      <g>
       <use xlink:href="#m2ef940956c" x="347.072727" y="256.32" style="stroke: #000000; stroke-width: 0.8"/>
      </g>
     </g>
     <g id="text_4">
      <!-- $\mathdefault{10^{-1}}$ -->
      <g transform="translate(335.322727 270.918437) scale(0.1 -0.1)">
       <use xlink:href="#DejaVuSans-31" transform="translate(0 0.684375)"/>
       <use xlink:href="#DejaVuSans-30" transform="translate(63.623047 0.684375)"/>
       <use xlink:href="#DejaVuSans-2212" transform="translate(128.203125 38.965625) scale(0.7)"/>
       <use xlink:href="#DejaVuSans-31" transform="translate(186.855469 38.965625) scale(0.7)"/>
      </g>
     </g>
    </g>
    <g id="xtick_5">
     <g id="line2d_5">
      <g>
       <use xlink:href="#m2ef940956c" x="435.845455" y="256.32" style="stroke: #000000; stroke-width: 0.8"/>
      </g>
     </g>
     <g id="text_5">
      <!-- $\mathdefault{10^{2}}$ -->
      <g transform="translate(427.045455 270.918437) scale(0.1 -0.1)">
       <defs>
        <path id="DejaVuSans-32" d="M 1228 531 
L 3431 531 
L 3431 0 
L 469 0 
L 469 531 
Q 828 903 1448 1529 
Q 2069 2156 2228 2338 
Q 2531 2678 2651 2914 
Q 2772 3150 2772 3378 
Q 2772 3750 2511 3984 
Q 2250 4219 1831 4219 
Q 1534 4219 1204 4116 
Q 875 4013 500 3803 
L 500 4441 
Q 881 4594 1212 4672 
Q 1544 4750 1819 4750 
Q 2544 4750 2975 4387 
Q 3406 4025 3406 3419 
Q 3406 3131 3298 2873 
Q 3191 2616 2906 2266 
Q 2828 2175 2409 1742 
Q 1991 1309 1228 531 
z
" transform="scale(0.015625)"/>
       </defs>
       <use xlink:href="#DejaVuSans-31" transform="translate(0 0.765625)"/>
       <use xlink:href="#DejaVuSans-30" transform="translate(63.623047 0.765625)"/>
       <use xlink:href="#DejaVuSans-32" transform="translate(128.203125 39.046875) scale(0.7)"/>
      </g>
     </g>
    </g>
    <g id="text_6">
     <!-- x -->
     <g transform="translate(255.340625 284.596563) scale(0.1 -0.1)">
      <defs>
       <path id="DejaVuSans-78" d="M 3513 3500 
L 2247 1797 
L 3578 0 
L 2900 0 
L 1881 1375 
L 863 0 
L 184 0 
L 1544 1831 
L 300 3500 
L 978 3500 
L 1906 2253 
L 2834 3500 
L 3513 3500 
z
" transform="scale(0.015625)"/>
      </defs>
      <use xlink:href="#DejaVuSans-78"/>
     </g>
    </g>
   </g>
   <g id="matplotlib.axis_2">
    <g id="ytick_1">
     <g id="line2d_6">
      <defs>
       <path id="mdd0e1d9cb2" d="M 0 0 
L -3.5 0 
" style="stroke: #000000; stroke-width: 0.8"/>
      </defs>
      <g>
       <use xlink:href="#mdd0e1d9cb2" x="63" y="251.123663" style="stroke: #000000; stroke-width: 0.8"/>
      </g>
     </g>
     <g id="text_7">
      <!-- $\mathdefault{10^{-16}}$ -->
      <g transform="translate(28.1 254.922882) scale(0.1 -0.1)">
       <defs>
        <path id="DejaVuSans-36" d="M 2113 2584 
Q 1688 2584 1439 2293 
Q 1191 2003 1191 1497 
Q 1191 994 1439 701 
Q 1688 409 2113 409 
Q 2538 409 2786 701 
Q 3034 994 3034 1497 
Q 3034 2003 2786 2293 
Q 2538 2584 2113 2584 
z
M 3366 4563 
L 3366 3988 
Q 3128 4100 2886 4159 
Q 2644 4219 2406 4219 
Q 1781 4219 1451 3797 
Q 1122 3375 1075 2522 
Q 1259 2794 1537 2939 
Q 1816 3084 2150 3084 
Q 2853 3084 3261 2657 
Q 3669 2231 3669 1497 
Q 3669 778 3244 343 
Q 2819 -91 2113 -91 
Q 1303 -91 875 529 
Q 447 1150 447 2328 
Q 447 3434 972 4092 
Q 1497 4750 2381 4750 
Q 2619 4750 2861 4703 
Q 3103 4656 3366 4563 
z
" transform="scale(0.015625)"/>
       </defs>
       <use xlink:href="#DejaVuSans-31" transform="translate(0 0.765625)"/>
       <use xlink:href="#DejaVuSans-30" transform="translate(63.623047 0.765625)"/>
       <use xlink:href="#DejaVuSans-2212" transform="translate(128.203125 39.046875) scale(0.7)"/>
       <use xlink:href="#DejaVuSans-31" transform="translate(186.855469 39.046875) scale(0.7)"/>
       <use xlink:href="#DejaVuSans-36" transform="translate(231.391602 39.046875) scale(0.7)"/>
      </g>
     </g>
    </g>
    <g id="ytick_2">
     <g id="line2d_7">
      <g>
       <use xlink:href="#mdd0e1d9cb2" x="63" y="178.935775" style="stroke: #000000; stroke-width: 0.8"/>
      </g>
     </g>
     <g id="text_8">
      <!-- $\mathdefault{10^{-15}}$ -->
      <g transform="translate(28.1 182.734994) scale(0.1 -0.1)">
       <defs>
        <path id="DejaVuSans-35" d="M 691 4666 
L 3169 4666 
L 3169 4134 
L 1269 4134 
L 1269 2991 
Q 1406 3038 1543 3061 
Q 1681 3084 1819 3084 
Q 2600 3084 3056 2656 
Q 3513 2228 3513 1497 
Q 3513 744 3044 326 
Q 2575 -91 1722 -91 
Q 1428 -91 1123 -41 
Q 819 9 494 109 
L 494 744 
Q 775 591 1075 516 
Q 1375 441 1709 441 
Q 2250 441 2565 725 
Q 2881 1009 2881 1497 
Q 2881 1984 2565 2268 
Q 2250 2553 1709 2553 
Q 1456 2553 1204 2497 
Q 953 2441 691 2322 
L 691 4666 
z
" transform="scale(0.015625)"/>
       </defs>
       <use xlink:href="#DejaVuSans-31" transform="translate(0 0.684375)"/>
       <use xlink:href="#DejaVuSans-30" transform="translate(63.623047 0.684375)"/>
       <use xlink:href="#DejaVuSans-2212" transform="translate(128.203125 38.965625) scale(0.7)"/>
       <use xlink:href="#DejaVuSans-31" transform="translate(186.855469 38.965625) scale(0.7)"/>
       <use xlink:href="#DejaVuSans-35" transform="translate(231.391602 38.965625) scale(0.7)"/>
      </g>
     </g>
    </g>
    <g id="ytick_3">
     <g id="line2d_8">
      <g>
       <use xlink:href="#mdd0e1d9cb2" x="63" y="106.747888" style="stroke: #000000; stroke-width: 0.8"/>
      </g>
     </g>
     <g id="text_9">
      <!-- $\mathdefault{10^{-14}}$ -->
      <g transform="translate(28.1 110.547106) scale(0.1 -0.1)">
       <use xlink:href="#DejaVuSans-31" transform="translate(0 0.684375)"/>
       <use xlink:href="#DejaVuSans-30" transform="translate(63.623047 0.684375)"/>
       <use xlink:href="#DejaVuSans-2212" transform="translate(128.203125 38.965625) scale(0.7)"/>
       <use xlink:href="#DejaVuSans-31" transform="translate(186.855469 38.965625) scale(0.7)"/>
       <use xlink:href="#DejaVuSans-34" transform="translate(231.391602 38.965625) scale(0.7)"/>
      </g>
     </g>
    </g>
    <g id="ytick_4">
     <g id="line2d_9">
      <g>
       <use xlink:href="#mdd0e1d9cb2" x="63" y="34.56" style="stroke: #000000; stroke-width: 0.8"/>
      </g>
     </g>
     <g id="text_10">
      <!-- $\mathdefault{10^{-13}}$ -->
      <g transform="translate(28.1 38.359219) scale(0.1 -0.1)">
       <defs>
        <path id="DejaVuSans-33" d="M 2597 2516 
Q 3050 2419 3304 2112 
Q 3559 1806 3559 1356 
Q 3559 666 3084 287 
Q 2609 -91 1734 -91 
Q 1441 -91 1130 -33 
Q 819 25 488 141 
L 488 750 
Q 750 597 1062 519 
Q 1375 441 1716 441 
Q 2309 441 2620 675 
Q 2931 909 2931 1356 
Q 2931 1769 2642 2001 
Q 2353 2234 1838 2234 
L 1294 2234 
L 1294 2753 
L 1863 2753 
Q 2328 2753 2575 2939 
Q 2822 3125 2822 3475 
Q 2822 3834 2567 4026 
Q 2313 4219 1838 4219 
Q 1578 4219 1281 4162 
Q 984 4106 628 3988 
L 628 4550 
Q 988 4650 1302 4700 
Q 1616 4750 1894 4750 
Q 2613 4750 3031 4423 
Q 3450 4097 3450 3541 
Q 3450 3153 3228 2886 
Q 3006 2619 2597 2516 
z
" transform="scale(0.015625)"/>
       </defs>
       <use xlink:href="#DejaVuSans-31" transform="translate(0 0.765625)"/>
       <use xlink:href="#DejaVuSans-30" transform="translate(63.623047 0.765625)"/>
       <use xlink:href="#DejaVuSans-2212" transform="translate(128.203125 39.046875) scale(0.7)"/>
       <use xlink:href="#DejaVuSans-31" transform="translate(186.855469 39.046875) scale(0.7)"/>
       <use xlink:href="#DejaVuSans-33" transform="translate(231.391602 39.046875) scale(0.7)"/>
      </g>
     </g>
    </g>
    <g id="ytick_5">
     <g id="line2d_10">
      <defs>
       <path id="m9f896dc534" d="M 0 0 
L -2 0 
" style="stroke: #000000; stroke-width: 0.6"/>
      </defs>
      <g>
       <use xlink:href="#m9f896dc534" x="63" y="254.4268" style="stroke: #000000; stroke-width: 0.6"/>
      </g>
     </g>
    </g>
    <g id="ytick_6">
     <g id="line2d_11">
      <g>
       <use xlink:href="#m9f896dc534" x="63" y="229.392944" style="stroke: #000000; stroke-width: 0.6"/>
      </g>
     </g>
    </g>
    <g id="ytick_7">
     <g id="line2d_12">
      <g>
       <use xlink:href="#m9f896dc534" x="63" y="216.681288" style="stroke: #000000; stroke-width: 0.6"/>
      </g>
     </g>
    </g>
    <g id="ytick_8">
     <g id="line2d_13">
      <g>
       <use xlink:href="#m9f896dc534" x="63" y="207.662224" style="stroke: #000000; stroke-width: 0.6"/>
      </g>
     </g>
    </g>
    <g id="ytick_9">
     <g id="line2d_14">
      <g>
       <use xlink:href="#m9f896dc534" x="63" y="200.666495" style="stroke: #000000; stroke-width: 0.6"/>
      </g>
     </g>
    </g>
    <g id="ytick_10">
     <g id="line2d_15">
      <g>
       <use xlink:href="#m9f896dc534" x="63" y="194.950568" style="stroke: #000000; stroke-width: 0.6"/>
      </g>
     </g>
    </g>
    <g id="ytick_11">
     <g id="line2d_16">
      <g>
       <use xlink:href="#m9f896dc534" x="63" y="190.117821" style="stroke: #000000; stroke-width: 0.6"/>
      </g>
     </g>
    </g>
    <g id="ytick_12">
     <g id="line2d_17">
      <g>
       <use xlink:href="#m9f896dc534" x="63" y="185.931505" style="stroke: #000000; stroke-width: 0.6"/>
      </g>
     </g>
    </g>
    <g id="ytick_13">
     <g id="line2d_18">
      <g>
       <use xlink:href="#m9f896dc534" x="63" y="182.238912" style="stroke: #000000; stroke-width: 0.6"/>
      </g>
     </g>
    </g>
    <g id="ytick_14">
     <g id="line2d_19">
      <g>
       <use xlink:href="#m9f896dc534" x="63" y="157.205056" style="stroke: #000000; stroke-width: 0.6"/>
      </g>
     </g>
    </g>
    <g id="ytick_15">
     <g id="line2d_20">
      <g>
       <use xlink:href="#m9f896dc534" x="63" y="144.4934" style="stroke: #000000; stroke-width: 0.6"/>
      </g>
     </g>
    </g>
    <g id="ytick_16">
     <g id="line2d_21">
      <g>
       <use xlink:href="#m9f896dc534" x="63" y="135.474336" style="stroke: #000000; stroke-width: 0.6"/>
      </g>
     </g>
    </g>
    <g id="ytick_17">
     <g id="line2d_22">
      <g>
       <use xlink:href="#m9f896dc534" x="63" y="128.478607" style="stroke: #000000; stroke-width: 0.6"/>
      </g>
     </g>
    </g>
    <g id="ytick_18">
     <g id="line2d_23">
      <g>
       <use xlink:href="#m9f896dc534" x="63" y="122.76268" style="stroke: #000000; stroke-width: 0.6"/>
      </g>
     </g>
    </g>
    <g id="ytick_19">
     <g id="line2d_24">
      <g>
       <use xlink:href="#m9f896dc534" x="63" y="117.929933" style="stroke: #000000; stroke-width: 0.6"/>
      </g>
     </g>
    </g>
    <g id="ytick_20">
     <g id="line2d_25">
      <g>
       <use xlink:href="#m9f896dc534" x="63" y="113.743617" style="stroke: #000000; stroke-width: 0.6"/>
      </g>
     </g>
    </g>
    <g id="ytick_21">
     <g id="line2d_26">
      <g>
       <use xlink:href="#m9f896dc534" x="63" y="110.051024" style="stroke: #000000; stroke-width: 0.6"/>
      </g>
     </g>
    </g>
    <g id="ytick_22">
     <g id="line2d_27">
      <g>
       <use xlink:href="#m9f896dc534" x="63" y="85.017168" style="stroke: #000000; stroke-width: 0.6"/>
      </g>
     </g>
    </g>
    <g id="ytick_23">
     <g id="line2d_28">
      <g>
       <use xlink:href="#m9f896dc534" x="63" y="72.305512" style="stroke: #000000; stroke-width: 0.6"/>
      </g>
     </g>
    </g>
    <g id="ytick_24">
     <g id="line2d_29">
      <g>
       <use xlink:href="#m9f896dc534" x="63" y="63.286449" style="stroke: #000000; stroke-width: 0.6"/>
      </g>
     </g>
    </g>
    <g id="ytick_25">
     <g id="line2d_30">
      <g>
       <use xlink:href="#m9f896dc534" x="63" y="56.29072" style="stroke: #000000; stroke-width: 0.6"/>
      </g>
     </g>
    </g>
    <g id="ytick_26">
     <g id="line2d_31">
      <g>
       <use xlink:href="#m9f896dc534" x="63" y="50.574793" style="stroke: #000000; stroke-width: 0.6"/>
      </g>
     </g>
    </g>
    <g id="ytick_27">
     <g id="line2d_32">
      <g>
       <use xlink:href="#m9f896dc534" x="63" y="45.742045" style="stroke: #000000; stroke-width: 0.6"/>
      </g>
     </g>
    </g>
    <g id="ytick_28">
     <g id="line2d_33">
      <g>
       <use xlink:href="#m9f896dc534" x="63" y="41.555729" style="stroke: #000000; stroke-width: 0.6"/>
      </g>
     </g>
    </g>
    <g id="ytick_29">
     <g id="line2d_34">
      <g>
       <use xlink:href="#m9f896dc534" x="63" y="37.863137" style="stroke: #000000; stroke-width: 0.6"/>
      </g>
     </g>
    </g>
    <g id="text_11">
     <!-- $ \frac{|Ei_{expint} - Ei_{mpmath}|}{|Ei_{mpmath}|} $ -->
     <g transform="translate(17.8 177.34) rotate(-90) scale(0.1 -0.1)">
      <defs>
       <path id="DejaVuSans-7c" d="M 1344 4891 
L 1344 -1509 
L 813 -1509 
L 813 4891 
L 1344 4891 
z
" transform="scale(0.015625)"/>
       <path id="DejaVuSans-Oblique-45" d="M 1081 4666 
L 4031 4666 
L 3928 4134 
L 1606 4134 
L 1338 2753 
L 3566 2753 
L 3463 2222 
L 1234 2222 
L 909 531 
L 3284 531 
L 3181 0 
L 172 0 
L 1081 4666 
z
" transform="scale(0.015625)"/>
       <path id="DejaVuSans-Oblique-69" d="M 1172 4863 
L 1747 4863 
L 1606 4134 
L 1031 4134 
L 1172 4863 
z
M 909 3500 
L 1484 3500 
L 800 0 
L 225 0 
L 909 3500 
z
" transform="scale(0.015625)"/>
       <path id="DejaVuSans-Oblique-65" d="M 3078 2063 
Q 3088 2113 3092 2166 
Q 3097 2219 3097 2272 
Q 3097 2653 2873 2875 
Q 2650 3097 2266 3097 
Q 1838 3097 1509 2826 
Q 1181 2556 1013 2059 
L 3078 2063 
z
M 3578 1613 
L 903 1613 
Q 884 1494 878 1425 
Q 872 1356 872 1306 
Q 872 872 1139 634 
Q 1406 397 1894 397 
Q 2269 397 2603 481 
Q 2938 566 3225 728 
L 3116 159 
Q 2806 34 2476 -28 
Q 2147 -91 1806 -91 
Q 1078 -91 686 257 
Q 294 606 294 1247 
Q 294 1794 489 2264 
Q 684 2734 1063 3103 
Q 1306 3334 1642 3459 
Q 1978 3584 2356 3584 
Q 2950 3584 3301 3228 
Q 3653 2872 3653 2272 
Q 3653 2128 3634 1964 
Q 3616 1800 3578 1613 
z
" transform="scale(0.015625)"/>
       <path id="DejaVuSans-Oblique-78" d="M 3841 3500 
L 2234 1784 
L 3219 0 
L 2559 0 
L 1819 1388 
L 531 0 
L -166 0 
L 1556 1844 
L 641 3500 
L 1300 3500 
L 1972 2234 
L 3144 3500 
L 3841 3500 
z
" transform="scale(0.015625)"/>
       <path id="DejaVuSans-Oblique-70" d="M 3175 2156 
Q 3175 2616 2975 2859 
Q 2775 3103 2400 3103 
Q 2144 3103 1911 2972 
Q 1678 2841 1497 2591 
Q 1319 2344 1212 1994 
Q 1106 1644 1106 1300 
Q 1106 863 1306 627 
Q 1506 391 1875 391 
Q 2147 391 2380 519 
Q 2613 647 2778 891 
Q 2956 1147 3065 1494 
Q 3175 1841 3175 2156 
z
M 1394 2969 
Q 1625 3272 1939 3428 
Q 2253 3584 2638 3584 
Q 3175 3584 3472 3232 
Q 3769 2881 3769 2247 
Q 3769 1728 3584 1258 
Q 3400 788 3053 416 
Q 2822 169 2531 39 
Q 2241 -91 1919 -91 
Q 1547 -91 1294 64 
Q 1041 219 916 525 
L 556 -1331 
L -19 -1331 
L 922 3500 
L 1497 3500 
L 1394 2969 
z
" transform="scale(0.015625)"/>
       <path id="DejaVuSans-Oblique-6e" d="M 3566 2113 
L 3156 0 
L 2578 0 
L 2988 2091 
Q 3016 2238 3031 2350 
Q 3047 2463 3047 2528 
Q 3047 2791 2881 2937 
Q 2716 3084 2419 3084 
Q 1956 3084 1622 2776 
Q 1288 2469 1184 1941 
L 800 0 
L 225 0 
L 903 3500 
L 1478 3500 
L 1363 2950 
Q 1603 3253 1940 3418 
Q 2278 3584 2650 3584 
Q 3113 3584 3367 3334 
Q 3622 3084 3622 2631 
Q 3622 2519 3608 2391 
Q 3594 2263 3566 2113 
z
" transform="scale(0.015625)"/>
       <path id="DejaVuSans-Oblique-74" d="M 2706 3500 
L 2619 3053 
L 1472 3053 
L 1100 1153 
Q 1081 1047 1072 975 
Q 1063 903 1063 863 
Q 1063 663 1183 572 
Q 1303 481 1569 481 
L 2150 481 
L 2053 0 
L 1503 0 
Q 991 0 739 200 
Q 488 400 488 806 
Q 488 878 497 964 
Q 506 1050 525 1153 
L 897 3053 
L 409 3053 
L 500 3500 
L 978 3500 
L 1172 4494 
L 1747 4494 
L 1556 3500 
L 2706 3500 
z
" transform="scale(0.015625)"/>
       <path id="DejaVuSans-Oblique-6d" d="M 5747 2113 
L 5338 0 
L 4763 0 
L 5166 2094 
Q 5191 2228 5203 2325 
Q 5216 2422 5216 2491 
Q 5216 2772 5059 2928 
Q 4903 3084 4622 3084 
Q 4203 3084 3875 2770 
Q 3547 2456 3450 1953 
L 3066 0 
L 2491 0 
L 2900 2094 
Q 2925 2209 2937 2307 
Q 2950 2406 2950 2484 
Q 2950 2769 2794 2926 
Q 2638 3084 2363 3084 
Q 1938 3084 1609 2770 
Q 1281 2456 1184 1953 
L 800 0 
L 225 0 
L 909 3500 
L 1484 3500 
L 1375 2956 
Q 1609 3263 1923 3423 
Q 2238 3584 2597 3584 
Q 2978 3584 3223 3384 
Q 3469 3184 3519 2828 
Q 3781 3197 4126 3390 
Q 4472 3584 4856 3584 
Q 5306 3584 5551 3325 
Q 5797 3066 5797 2591 
Q 5797 2488 5784 2364 
Q 5772 2241 5747 2113 
z
" transform="scale(0.015625)"/>
       <path id="DejaVuSans-Oblique-61" d="M 3438 1997 
L 3047 0 
L 2472 0 
L 2578 531 
Q 2325 219 2001 64 
Q 1678 -91 1281 -91 
Q 834 -91 548 182 
Q 263 456 263 884 
Q 263 1497 752 1853 
Q 1241 2209 2100 2209 
L 2900 2209 
L 2931 2363 
Q 2938 2388 2941 2417 
Q 2944 2447 2944 2509 
Q 2944 2788 2717 2942 
Q 2491 3097 2081 3097 
Q 1800 3097 1504 3025 
Q 1209 2953 897 2809 
L 997 3341 
Q 1322 3463 1633 3523 
Q 1944 3584 2234 3584 
Q 2853 3584 3176 3315 
Q 3500 3047 3500 2534 
Q 3500 2431 3484 2292 
Q 3469 2153 3438 1997 
z
M 2816 1759 
L 2241 1759 
Q 1534 1759 1195 1570 
Q 856 1381 856 984 
Q 856 709 1029 553 
Q 1203 397 1509 397 
Q 1978 397 2328 733 
Q 2678 1069 2791 1631 
L 2816 1759 
z
" transform="scale(0.015625)"/>
       <path id="DejaVuSans-Oblique-68" d="M 3566 2113 
L 3156 0 
L 2578 0 
L 2988 2091 
Q 3016 2238 3031 2350 
Q 3047 2463 3047 2528 
Q 3047 2791 2881 2937 
Q 2716 3084 2419 3084 
Q 1956 3084 1617 2771 
Q 1278 2459 1178 1941 
L 800 0 
L 225 0 
L 1172 4863 
L 1747 4863 
L 1375 2950 
Q 1594 3244 1934 3414 
Q 2275 3584 2650 3584 
Q 3113 3584 3367 3334 
Q 3622 3084 3622 2631 
Q 3622 2519 3608 2391 
Q 3594 2263 3566 2113 
z
" transform="scale(0.015625)"/>
      </defs>
      <use xlink:href="#DejaVuSans-7c" transform="translate(0 65.504688) scale(0.7)"/>
      <use xlink:href="#DejaVuSans-Oblique-45" transform="translate(23.583984 65.504688) scale(0.7)"/>
      <use xlink:href="#DejaVuSans-Oblique-69" transform="translate(67.8125 65.504688) scale(0.7)"/>
      <use xlink:href="#DejaVuSans-Oblique-65" transform="translate(87.260742 54.020313) scale(0.49)"/>
      <use xlink:href="#DejaVuSans-Oblique-78" transform="translate(117.407227 54.020313) scale(0.49)"/>
      <use xlink:href="#DejaVuSans-Oblique-70" transform="translate(146.405273 54.020313) scale(0.49)"/>
      <use xlink:href="#DejaVuSans-Oblique-69" transform="translate(177.508789 54.020313) scale(0.49)"/>
      <use xlink:href="#DejaVuSans-Oblique-6e" transform="translate(191.122559 54.020313) scale(0.49)"/>
      <use xlink:href="#DejaVuSans-Oblique-74" transform="translate(222.178223 54.020313) scale(0.49)"/>
      <use xlink:href="#DejaVuSans-2212" transform="translate(256.942383 65.504688) scale(0.7)"/>
      <use xlink:href="#DejaVuSans-Oblique-45" transform="translate(329.232422 65.504688) scale(0.7)"/>
      <use xlink:href="#DejaVuSans-Oblique-69" transform="translate(373.460938 65.504688) scale(0.7)"/>
      <use xlink:href="#DejaVuSans-Oblique-6d" transform="translate(392.90918 54.020313) scale(0.49)"/>
      <use xlink:href="#DejaVuSans-Oblique-70" transform="translate(440.641113 54.020313) scale(0.49)"/>
      <use xlink:href="#DejaVuSans-Oblique-6d" transform="translate(471.744629 54.020313) scale(0.49)"/>
      <use xlink:href="#DejaVuSans-Oblique-61" transform="translate(519.476562 54.020313) scale(0.49)"/>
      <use xlink:href="#DejaVuSans-Oblique-74" transform="translate(549.503418 54.020313) scale(0.49)"/>
      <use xlink:href="#DejaVuSans-Oblique-68" transform="translate(568.71582 54.020313) scale(0.49)"/>
      <use xlink:href="#DejaVuSans-7c" transform="translate(601.685547 65.504688) scale(0.7)"/>
      <use xlink:href="#DejaVuSans-7c" transform="translate(153 -40.915469) scale(0.7)"/>
      <use xlink:href="#DejaVuSans-Oblique-45" transform="translate(176.583984 -40.915469) scale(0.7)"/>
      <use xlink:href="#DejaVuSans-Oblique-69" transform="translate(220.8125 -40.915469) scale(0.7)"/>
      <use xlink:href="#DejaVuSans-Oblique-6d" transform="translate(240.260742 -52.399844) scale(0.49)"/>
      <use xlink:href="#DejaVuSans-Oblique-70" transform="translate(287.992676 -52.399844) scale(0.49)"/>
      <use xlink:href="#DejaVuSans-Oblique-6d" transform="translate(319.096191 -52.399844) scale(0.49)"/>
      <use xlink:href="#DejaVuSans-Oblique-61" transform="translate(366.828125 -52.399844) scale(0.49)"/>
      <use xlink:href="#DejaVuSans-Oblique-74" transform="translate(396.85498 -52.399844) scale(0.49)"/>
      <use xlink:href="#DejaVuSans-Oblique-68" transform="translate(416.067383 -52.399844) scale(0.49)"/>
      <use xlink:href="#DejaVuSans-7c" transform="translate(449.037109 -40.915469) scale(0.7)"/>
      <path d="M 0 18.829844 
L 0 25.079844 
L 625.269531 25.079844 
L 625.269531 18.829844 
L 0 18.829844 
z
"/>
     </g>
    </g>
   </g>
   <g id="line2d_35">
    <path d="M 81.10973 289 
L 81.109992 236.692894 
L 81.110253 289 
M 82.176069 289 
L 82.176331 236.576655 
L 82.176593 289 
M 83.953299 289 
L 83.953563 236.381961 
L 83.953826 289 
M 85.375084 289 
L 85.375348 236.22533 
L 85.375612 289 
M 86.796869 289 
L 86.797133 236.067913 
L 86.797398 289 
M 87.507761 289 
L 87.508026 235.988906 
L 87.863473 235.949329 
L 87.863738 289 
M 90.35133 289 
L 90.351597 235.670876 
L 90.351864 289 
M 91.417669 289 
L 91.417936 235.550778 
L 91.418204 289 
M 93.905792 289 
L 93.906061 235.268747 
L 93.906329 289 
M 94.616684 289 
L 94.616953 235.187698 
L 94.617223 289 
M 95.327576 289 
L 95.327846 235.10644 
L 95.328116 289 
M 97.104807 289 
L 97.105078 234.902367 
L 97.105348 289 
M 98.171146 289 
L 98.171417 234.779283 
L 98.171688 289 
M 99.948376 289 
L 99.948649 234.573062 
L 100.659541 234.490193 
L 100.659814 289 
M 101.370161 289 
L 101.370434 234.407103 
L 101.370707 289 
M 103.147392 289 
L 103.147666 234.198412 
L 103.503112 234.156506 
L 103.503387 289 
M 104.924622 289 
L 104.924898 233.988322 
L 104.925173 289 
M 106.701853 289 
L 106.702129 233.776815 
L 106.702406 289 
M 108.123638 289 
L 108.123915 233.606575 
L 108.124192 289 
M 109.900868 289 
L 109.901147 233.392468 
L 109.901425 289 
M 110.611761 289 
L 110.612039 233.306414 
L 110.612318 289 
M 111.678099 289 
L 111.678378 233.176888 
L 111.678658 289 
M 116.654345 289 
L 116.654627 232.565257 
L 116.65491 289 
M 117.720683 289 
L 117.720966 232.432627 
L 117.721249 289 
M 118.431576 289 
L 118.431859 232.343893 
L 118.432143 289 
M 120.208806 289 
L 120.209091 232.120955 
L 120.209375 289 
M 123.407822 289 
L 123.408108 231.715627 
L 123.763554 231.670266 
L 123.763841 289 
M 128.739513 289 
L 128.739803 231.028214 
L 129.450696 230.935409 
L 129.450987 289 
M 130.87219 289 
L 130.872482 230.748972 
L 130.872773 289 
M 131.938529 289 
L 131.938821 230.608412 
L 131.939113 289 
M 134.426651 289 
L 134.426945 230.277969 
L 134.427239 289 
M 136.203882 289 
L 136.204177 230.039787 
L 136.204472 289 
M 139.047451 289 
L 139.047748 229.654892 
L 139.048045 289 
M 139.758343 289 
L 139.75864 229.557925 
L 139.758938 289 
M 141.180128 289 
L 141.180426 229.363087 
L 141.180724 289 
M 141.89102 289 
L 141.891319 229.265212 
L 142.246765 229.21616 
L 142.247064 289 
M 144.023696 289 
L 144.023997 228.969741 
L 144.024297 289 
M 147.222711 289 
L 147.223014 228.521246 
L 147.223316 289 
M 147.933604 289 
L 147.933907 228.420703 
L 148.289353 228.37031 
L 148.289656 289 
M 151.843511 289 
L 151.843817 227.861878 
L 151.844122 289 
M 152.909849 289 
L 152.910156 227.707727 
L 152.910462 289 
M 154.331633 289 
L 154.331941 227.501005 
L 154.332249 289 
M 155.397972 289 
L 155.39828 227.345064 
L 156.109173 227.240671 
L 156.109482 289 
M 160.374217 289 
L 160.374529 226.606906 
L 160.374841 289 
M 161.796001 289 
L 161.796314 226.392772 
L 161.796628 289 
M 163.217786 289 
L 163.2181 226.177165 
L 163.218414 289 
M 163.928786 289 
L 163.928993 247.799522 
L 164.995332 247.636274 
L 164.995539 289 
M 165.706017 289 
L 165.706224 247.526967 
L 166.417117 247.417278 
L 166.417325 289 
M 167.127801 289 
L 167.12801 247.307203 
L 168.549795 247.085889 
L 168.550005 289 
M 169.260478 289 
L 169.260688 246.974643 
L 169.260898 289 
M 169.97137 289 
L 169.971581 246.863001 
L 170.682473 246.750959 
L 170.682685 289 
M 171.7486 289 
L 171.748812 246.582143 
L 172.104259 246.525669 
L 172.104471 289 
M 173.525831 289 
L 173.526044 246.298747 
L 173.881491 246.241759 
L 173.881705 289 
M 175.658507 289 
L 175.658722 245.955255 
L 175.658938 289 
M 176.369399 289 
L 176.369615 245.839917 
L 176.369831 289 
M 177.791183 289 
L 177.7914 245.607958 
L 177.791618 289 
M 178.502076 289 
L 178.502293 245.491332 
L 178.85774 245.432856 
L 178.857958 289 
M 182.056536 289 
L 182.056757 244.901605 
L 182.056977 289 
M 184.189212 289 
L 184.189435 244.542369 
L 184.189657 289 
M 185.255551 289 
L 185.255774 244.361196 
L 185.255997 289 
M 187.388227 289 
L 187.388452 243.995677 
L 187.743898 243.934341 
L 187.744124 289 
M 189.876349 289 
L 189.876577 243.563782 
L 189.876804 289 
M 191.653579 289 
L 191.653808 243.251602 
L 191.654037 289 
M 193.786256 289 
L 193.786486 242.872835 
L 194.852826 242.681721 
L 194.853057 289 
M 195.563486 289 
L 195.563718 242.553662 
L 196.630057 242.360587 
L 196.630291 289 
M 199.117946 289 
L 199.118182 241.9054 
L 199.118417 289 
M 200.184284 289 
L 200.184521 241.708278 
L 200.184757 289 
M 202.31696 289 
L 202.317199 241.310277 
L 202.317438 289 
M 205.515975 289 
L 205.516216 240.703638 
L 205.516458 289 
M 206.937759 289 
L 206.938002 240.430207 
L 207.293448 240.361474 
L 207.293691 289 
M 209.425881 289 
L 209.426126 239.945886 
L 209.781572 239.876083 
L 209.781818 289 
M 210.492219 289 
L 210.492465 239.736008 
L 210.492712 289 
M 211.914003 289 
L 211.914251 239.453966 
L 211.914499 289 
M 212.624895 289 
L 212.625143 239.311988 
L 212.625392 289 
M 216.534801 289 
L 216.535053 238.519402 
L 216.535306 289 
M 217.245693 289 
L 217.245946 238.373118 
L 217.246199 289 
M 219.022923 289 
L 219.023178 238.004392 
L 219.378624 237.930124 
L 219.37888 289 
M 220.800153 289 
L 220.80041 237.631278 
L 220.800666 289 
M 221.511044 289 
L 221.511302 237.48078 
L 221.51156 289 
M 222.932828 289 
L 222.933088 237.177599 
L 222.933347 289 
M 223.64372 289 
L 223.64398 237.024902 
L 223.999427 236.948274 
L 223.999687 289 
M 224.710058 289 
L 224.710319 236.794452 
L 224.710581 289 
M 227.19818 289 
L 227.198444 236.250056 
L 227.198708 289 
M 228.264518 289 
L 228.264783 236.013817 
L 228.265048 289 
M 229.330856 289 
L 229.331122 235.775785 
L 229.331388 289 
M 230.041748 289 
L 230.042015 235.616087 
L 230.397461 235.535931 
L 230.397729 289 
M 231.108086 289 
L 231.108354 235.375003 
L 231.108622 289 
M 232.174423 289 
L 232.174693 235.132051 
L 232.174962 289 
M 234.307099 289 
L 234.307371 234.640424 
L 234.662817 234.557732 
L 234.66309 289 
M 236.084329 289 
L 236.084603 234.224762 
L 236.795495 234.056941 
L 236.79577 289 
M 238.57245 289 
L 238.572727 233.633415 
L 239.639066 233.376525 
L 239.639345 289 
M 241.060572 289 
L 241.060852 233.030697 
L 241.771744 232.856342 
L 241.772025 289 
M 244.970477 289 
L 244.970762 232.059511 
L 244.971047 289 
M 246.036815 289 
L 246.037101 231.789335 
L 246.037387 289 
M 248.16949 289 
L 248.169779 231.241892 
L 248.170068 289 
M 248.880382 289 
L 248.880672 231.057265 
L 248.880961 289 
M 251.368503 289 
L 251.368796 230.402367 
L 251.369089 289 
M 252.790286 289 
L 252.790581 230.0219 
L 252.790877 289 
M 254.21207 289 
L 254.212367 229.636757 
L 254.212664 289 
M 255.278408 289 
L 255.278706 229.344761 
L 255.989599 229.148574 
L 255.989898 289 
M 257.055637 289 
L 257.055938 228.85197 
L 257.411384 228.752475 
L 257.411685 289 
M 258.832866 289 
L 258.83317 228.351303 
L 258.833473 289 
M 264.164554 289 
L 264.164865 226.799411 
L 264.520311 226.693165 
L 264.520623 289 
M 268.074566 289 
L 268.074775 247.341108 
L 268.430221 247.230742 
L 268.43043 289 
M 270.207241 289 
L 270.207453 246.672995 
L 271.273792 246.333511 
L 271.274005 289 
M 272.695362 289 
L 272.695577 245.875059 
L 273.051024 245.759388 
L 273.05124 289 
M 274.47259 289 
L 274.472809 245.292379 
L 274.473028 289 
M 275.894374 289 
L 275.894595 244.81829 
L 275.894816 289 
M 278.027048 289 
L 278.027273 244.093395 
L 278.027497 289 
M 283.003288 289 
L 283.003522 242.333549 
L 283.003755 289 
M 284.069625 289 
L 284.069861 241.943176 
L 284.425307 241.811959 
L 284.425543 289 
M 289.045865 289 
L 289.04611 240.053894 
L 289.401556 239.914458 
L 289.401802 289 
M 292.600321 289 
L 292.600573 238.630599 
L 292.95602 238.48462 
L 292.956272 289 
M 293.666658 289 
L 293.666912 238.19059 
L 293.667167 289 
M 295.088441 289 
L 295.088698 237.594044 
L 295.088955 289 
M 296.510223 289 
L 296.510483 236.985808 
L 296.510743 289 
M 301.486461 289 
L 301.486732 234.75771 
L 301.487004 289 
M 302.908243 289 
L 302.908518 234.090459 
L 302.908792 289 
M 303.619134 289 
L 303.61941 233.751341 
L 303.619687 289 
M 305.040916 289 
L 305.041196 233.061699 
L 305.041476 289 
M 306.462698 289 
L 306.462981 232.356245 
L 306.463265 289 
M 307.173589 289 
L 307.173874 231.99735 
L 307.52932 231.816316 
L 307.529606 289 
M 309.661707 289 
L 309.661998 230.707068 
L 310.372891 230.3282 
L 310.373185 289 
M 311.083488 289 
L 311.083784 229.944576 
L 311.084079 289 
M 311.794379 289 
L 311.794676 229.556067 
L 311.794974 289 
M 313.216161 289 
L 313.216462 228.763865 
L 313.216763 289 
M 318.547949 289 
L 318.548157 247.324658 
L 318.903604 247.101008 
L 318.903813 289 
M 320.325175 289 
L 320.325389 246.189369 
L 321.391728 245.486959 
L 321.391946 289 
M 322.102401 289 
L 322.102621 245.009341 
L 322.102841 289 
M 322.813291 289 
L 322.813514 244.523946 
L 322.813736 289 
M 324.235071 289 
L 324.235299 243.528718 
L 324.235526 289 
M 325.656852 289 
L 325.657084 242.498898 
L 326.012531 242.235733 
L 326.012765 289 
M 326.723187 289 
L 326.723423 241.702246 
L 326.72366 289 
M 327.434077 289 
L 327.434316 241.1589 
L 327.789762 240.883409 
L 327.790003 289 
M 330.633081 289 
L 330.633333 238.580646 
L 330.98878 238.279553 
L 330.989033 289 
M 332.05486 289 
L 332.055119 237.357013 
L 332.410565 237.042834 
L 332.410825 289 
M 333.121195 289 
L 333.121458 236.404008 
L 333.121721 289 
M 336.675641 289 
L 336.675921 232.976834 
L 336.676202 289 
M 337.741975 289 
L 337.74226 231.862608 
L 337.742546 289 
M 338.452863 289 
L 338.453153 231.094591 
L 338.453443 289 
M 339.519197 289 
L 339.519492 229.901759 
L 339.519788 289 
M 340.940974 289 
L 340.941278 228.227942 
L 340.941582 289 
M 343.429191 289 
L 343.429402 246.762984 
L 343.784848 246.274793 
L 343.785062 289 
M 344.495522 289 
L 344.495741 245.271696 
L 345.206634 244.230659 
L 345.206858 289 
M 346.272741 289 
L 346.272973 242.591136 
L 346.983866 241.440944 
L 346.984104 289 
M 347.694514 289 
L 347.694758 240.240234 
L 347.695002 289 
M 349.116287 289 
L 349.116544 237.667677 
L 349.47199 236.984724 
L 349.47225 289 
M 350.538058 289 
L 350.538329 234.826658 
L 350.893776 234.067536 
L 350.89405 289 
M 351.604386 289 
L 351.604668 232.482676 
L 351.604951 289 
M 352.31527 289 
L 352.315561 230.799858 
L 352.315852 289 
M 354.448028 289 
L 354.448239 246.752399 
L 354.448451 289 
M 355.158909 289 
L 355.159132 244.519344 
L 355.870025 242.088862 
L 355.870259 289 
M 356.936108 289 
L 356.936364 237.988385 
L 357.29181 236.475026 
L 357.292073 289 
M 358.002423 289 
L 358.002703 233.177676 
L 358.002982 289 
M 359.068733 289 
L 359.069042 227.369996 
L 359.424488 246.866607 
L 359.779934 222.712118 
L 360.490827 217.149649 
L 360.846274 213.908805 
L 361.20172 231.993529 
L 361.557166 227.830219 
L 361.912613 244.714312 
L 362.268059 188.466241 
L 362.623505 188.281033 
L 362.978952 193.584382 
L 363.334398 174.152093 
L 363.689844 204.993343 
L 364.045291 177.015512 
L 364.400737 133.327071 
L 364.756183 165.172976 
L 365.11163 184.072847 
L 365.467076 185.769593 
L 365.822523 221.365239 
L 366.177969 227.058166 
L 366.533415 210.198655 
L 366.888862 236.194378 
L 366.889126 289 
M 367.599526 289 
L 367.599754 243.425503 
L 368.310647 205.983988 
L 368.311062 289 
M 369.021259 289 
L 369.02154 232.899176 
L 369.732432 237.475013 
L 369.73269 289 
M 370.798435 289 
L 370.798771 221.776944 
L 371.154218 245.345831 
L 371.509664 247.11286 
L 371.865111 227.085304 
L 371.86542 289 
M 373.642071 289 
L 373.642342 234.840601 
L 374.353235 237.668829 
L 374.353492 289 
M 375.063885 289 
L 375.064128 240.38049 
L 375.419574 241.699139 
L 375.419811 289 
M 376.485587 289 
L 376.485913 223.802341 
L 376.84136 246.776897 
L 377.196806 226.275914 
L 377.19712 289 
M 378.262849 289 
L 378.263145 229.896446 
L 378.263441 289 
M 378.973754 289 
L 378.974038 232.267591 
L 378.974321 289 
M 380.040111 289 
L 380.040377 235.787507 
L 380.395823 236.956066 
L 380.396083 289 
M 381.106359 289 
L 381.106716 217.562674 
L 381.107073 289 
M 381.817372 289 
L 381.817609 241.638977 
L 381.817845 289 
M 382.528276 289 
L 382.528501 244.002355 
L 382.883948 223.463001 
L 383.239394 246.393162 
L 383.59484 247.60192 
L 383.950287 227.090537 
L 383.950596 289 
M 384.660882 289 
L 384.661179 229.566134 
L 384.661477 289 
M 385.72724 289 
L 385.727518 233.392178 
L 386.082965 234.703268 
L 386.438411 214.304024 
L 386.438785 289 
M 387.149053 289 
L 387.149304 238.765254 
L 387.50475 205.725271 
L 387.505167 289 
M 388.570867 289 
L 388.571089 244.544934 
L 388.571312 289 
M 389.281666 289 
L 389.281982 225.893643 
L 389.282298 289 
M 389.992467 289 
L 389.992875 207.391088 
L 390.348321 230.797414 
L 391.059214 234.284041 
L 391.059487 289 
M 391.769851 289 
L 391.770106 237.968945 
L 392.480999 241.874957 
L 392.836446 209.476144 
L 393.191892 246.026762 
L 393.192107 289 
M 393.902374 289 
L 393.902785 206.989505 
L 394.258231 209.312565 
L 394.613677 199.002894 
L 394.969124 214.199311 
L 395.32457 238.501533 
L 395.680016 219.433127 
L 396.035463 222.190427 
L 396.035797 289 
M 396.74605 289 
L 396.746355 228.007164 
L 397.101802 196.633036 
L 397.457248 234.256253 
L 398.523587 244.520611 
L 398.879034 226.467663 
L 398.879346 289 
M 399.945119 289 
L 399.945373 238.33718 
L 400.300819 242.588663 
L 400.301051 289 
M 402.077828 289 
L 402.078051 244.550007 
L 402.433497 228.079688 
L 403.14439 239.163184 
L 403.499836 194.539505 
L 403.500309 289 
M 404.210461 289 
L 404.210729 235.542922 
L 404.921622 176.481676 
L 405.277068 233.834823 
L 405.632514 240.960304 
L 405.987961 226.590541 
L 406.343407 190.731662 
L 406.698853 220.312838 
L 407.0543 184.956226 
L 407.409746 202.341145 
L 407.765192 194.960095 
L 408.120639 210.864516 
L 408.476085 191.328989 
L 408.831532 229.536091 
L 409.186978 195.852771 
L 409.542424 205.936327 
L 409.54284 289 
M 410.252835 289 
L 410.253317 192.610496 
L 410.608763 216.372337 
L 410.96421 206.031644 
L 411.319656 205.05912 
L 411.675102 208.137835 
L 412.030549 242.334804 
L 412.385995 233.448921 
L 412.741441 196.225589 
L 413.096888 238.585593 
L 413.09714 289 
M 413.807562 289 
L 413.807781 245.365588 
L 414.163227 204.092684 
L 414.518673 232.150329 
L 414.87412 204.493039 
L 415.229566 242.498785 
L 415.585012 203.084673 
L 415.940459 211.322002 
L 416.295905 207.358921 
L 416.651351 247.382756 
L 417.006798 244.485261 
L 417.362244 173.258175 
L 417.71769 218.640507 
L 418.073137 239.186075 
L 418.428583 188.14667 
L 418.784029 204.198964 
L 419.139476 204.873508 
L 419.494922 190.188092 
L 419.850369 242.647761 
L 419.8506 289 
M 420.560843 289 
L 420.561261 205.286463 
L 420.916708 209.423324 
L 421.272154 201.600128 
L 421.6276 172.81883 
L 421.983047 175.971001 
L 422.338493 211.969205 
L 422.693939 198.349533 
L 423.049386 178.596912 
L 423.404832 217.184115 
L 423.405191 289 
M 424.114669 289 
L 424.115725 77.389968 
L 425.53751 148.485632 
L 425.892957 175.83917 
L 426.248403 244.207414 
L 426.603849 241.52497 
L 426.959296 240.011583 
L 427.314742 205.257631 
L 427.670188 240.623913 
L 428.025635 242.81792 
L 428.381081 224.586897 
L 429.091974 235.65074 
L 429.44742 221.560455 
L 429.447757 289 
M 430.158074 289 
L 430.158313 241.257163 
L 430.158552 289 
M 430.868879 289 
L 430.869206 223.658472 
L 431.224652 217.280158 
L 431.580098 234.307047 
L 431.935545 196.882262 
L 432.290991 208.381185 
L 432.291394 289 
M 433.001432 289 
L 433.001884 198.752926 
L 433.35733 237.594865 
L 433.357587 289 
M 434.778831 289 
L 434.779115 232.0599 
L 435.134562 246.91251 
L 435.490008 207.861718 
L 435.845455 240.029006 
L 435.845455 240.029006 
" clip-path="url(#paf943b8442)" style="fill: none; stroke: #000000; stroke-width: 1.5; stroke-linecap: square"/>
   </g>
   <g id="patch_3">
    <path d="M 63 256.32 
L 63 34.56 
" style="fill: none; stroke: #000000; stroke-width: 0.8; stroke-linejoin: miter; stroke-linecap: square"/>
   </g>
   <g id="patch_4">
    <path d="M 453.6 256.32 
L 453.6 34.56 
" style="fill: none; stroke: #000000; stroke-width: 0.8; stroke-linejoin: miter; stroke-linecap: square"/>
   </g>
   <g id="patch_5">
    <path d="M 63 256.32 
L 453.6 256.32 
" style="fill: none; stroke: #000000; stroke-width: 0.8; stroke-linejoin: miter; stroke-linecap: square"/>
   </g>
   <g id="patch_6">
    <path d="M 63 34.56 
L 453.6 34.56 
" style="fill: none; stroke: #000000; stroke-width: 0.8; stroke-linejoin: miter; stroke-linecap: square"/>
   </g>
   <g id="text_12">
    <!-- Relative error -->
    <g transform="translate(217.673438 28.56) scale(0.12 -0.12)">
     <defs>
      <path id="DejaVuSans-52" d="M 2841 2188 
Q 3044 2119 3236 1894 
Q 3428 1669 3622 1275 
L 4263 0 
L 3584 0 
L 2988 1197 
Q 2756 1666 2539 1819 
Q 2322 1972 1947 1972 
L 1259 1972 
L 1259 0 
L 628 0 
L 628 4666 
L 2053 4666 
Q 2853 4666 3247 4331 
Q 3641 3997 3641 3322 
Q 3641 2881 3436 2590 
Q 3231 2300 2841 2188 
z
M 1259 4147 
L 1259 2491 
L 2053 2491 
Q 2509 2491 2742 2702 
Q 2975 2913 2975 3322 
Q 2975 3731 2742 3939 
Q 2509 4147 2053 4147 
L 1259 4147 
z
" transform="scale(0.015625)"/>
      <path id="DejaVuSans-65" d="M 3597 1894 
L 3597 1613 
L 953 1613 
Q 991 1019 1311 708 
Q 1631 397 2203 397 
Q 2534 397 2845 478 
Q 3156 559 3463 722 
L 3463 178 
Q 3153 47 2828 -22 
Q 2503 -91 2169 -91 
Q 1331 -91 842 396 
Q 353 884 353 1716 
Q 353 2575 817 3079 
Q 1281 3584 2069 3584 
Q 2775 3584 3186 3129 
Q 3597 2675 3597 1894 
z
M 3022 2063 
Q 3016 2534 2758 2815 
Q 2500 3097 2075 3097 
Q 1594 3097 1305 2825 
Q 1016 2553 972 2059 
L 3022 2063 
z
" transform="scale(0.015625)"/>
      <path id="DejaVuSans-6c" d="M 603 4863 
L 1178 4863 
L 1178 0 
L 603 0 
L 603 4863 
z
" transform="scale(0.015625)"/>
      <path id="DejaVuSans-61" d="M 2194 1759 
Q 1497 1759 1228 1600 
Q 959 1441 959 1056 
Q 959 750 1161 570 
Q 1363 391 1709 391 
Q 2188 391 2477 730 
Q 2766 1069 2766 1631 
L 2766 1759 
L 2194 1759 
z
M 3341 1997 
L 3341 0 
L 2766 0 
L 2766 531 
Q 2569 213 2275 61 
Q 1981 -91 1556 -91 
Q 1019 -91 701 211 
Q 384 513 384 1019 
Q 384 1609 779 1909 
Q 1175 2209 1959 2209 
L 2766 2209 
L 2766 2266 
Q 2766 2663 2505 2880 
Q 2244 3097 1772 3097 
Q 1472 3097 1187 3025 
Q 903 2953 641 2809 
L 641 3341 
Q 956 3463 1253 3523 
Q 1550 3584 1831 3584 
Q 2591 3584 2966 3190 
Q 3341 2797 3341 1997 
z
" transform="scale(0.015625)"/>
      <path id="DejaVuSans-74" d="M 1172 4494 
L 1172 3500 
L 2356 3500 
L 2356 3053 
L 1172 3053 
L 1172 1153 
Q 1172 725 1289 603 
Q 1406 481 1766 481 
L 2356 481 
L 2356 0 
L 1766 0 
Q 1100 0 847 248 
Q 594 497 594 1153 
L 594 3053 
L 172 3053 
L 172 3500 
L 594 3500 
L 594 4494 
L 1172 4494 
z
" transform="scale(0.015625)"/>
      <path id="DejaVuSans-69" d="M 603 3500 
L 1178 3500 
L 1178 0 
L 603 0 
L 603 3500 
z
M 603 4863 
L 1178 4863 
L 1178 4134 
L 603 4134 
L 603 4863 
z
" transform="scale(0.015625)"/>
      <path id="DejaVuSans-76" d="M 191 3500 
L 800 3500 
L 1894 563 
L 2988 3500 
L 3597 3500 
L 2284 0 
L 1503 0 
L 191 3500 
z
" transform="scale(0.015625)"/>
      <path id="DejaVuSans-20" transform="scale(0.015625)"/>
      <path id="DejaVuSans-72" d="M 2631 2963 
Q 2534 3019 2420 3045 
Q 2306 3072 2169 3072 
Q 1681 3072 1420 2755 
Q 1159 2438 1159 1844 
L 1159 0 
L 581 0 
L 581 3500 
L 1159 3500 
L 1159 2956 
Q 1341 3275 1631 3429 
Q 1922 3584 2338 3584 
Q 2397 3584 2469 3576 
Q 2541 3569 2628 3553 
L 2631 2963 
z
" transform="scale(0.015625)"/>
      <path id="DejaVuSans-6f" d="M 1959 3097 
Q 1497 3097 1228 2736 
Q 959 2375 959 1747 
Q 959 1119 1226 758 
Q 1494 397 1959 397 
Q 2419 397 2687 759 
Q 2956 1122 2956 1747 
Q 2956 2369 2687 2733 
Q 2419 3097 1959 3097 
z
M 1959 3584 
Q 2709 3584 3137 3096 
Q 3566 2609 3566 1747 
Q 3566 888 3137 398 
Q 2709 -91 1959 -91 
Q 1206 -91 779 398 
Q 353 888 353 1747 
Q 353 2609 779 3096 
Q 1206 3584 1959 3584 
z
" transform="scale(0.015625)"/>
     </defs>
     <use xlink:href="#DejaVuSans-52"/>
     <use xlink:href="#DejaVuSans-65" transform="translate(64.982422 0)"/>
     <use xlink:href="#DejaVuSans-6c" transform="translate(126.505859 0)"/>
     <use xlink:href="#DejaVuSans-61" transform="translate(154.289062 0)"/>
     <use xlink:href="#DejaVuSans-74" transform="translate(215.568359 0)"/>
     <use xlink:href="#DejaVuSans-69" transform="translate(254.777344 0)"/>
     <use xlink:href="#DejaVuSans-76" transform="translate(282.560547 0)"/>
     <use xlink:href="#DejaVuSans-65" transform="translate(341.740234 0)"/>
     <use xlink:href="#DejaVuSans-20" transform="translate(403.263672 0)"/>
     <use xlink:href="#DejaVuSans-65" transform="translate(435.050781 0)"/>
     <use xlink:href="#DejaVuSans-72" transform="translate(496.574219 0)"/>
     <use xlink:href="#DejaVuSans-72" transform="translate(535.9375 0)"/>
     <use xlink:href="#DejaVuSans-6f" transform="translate(574.800781 0)"/>
     <use xlink:href="#DejaVuSans-72" transform="translate(635.982422 0)"/>
    </g>
   </g>
  </g>
 </g>
 <defs>
  <clipPath id="paf943b8442">
   <rect x="63" y="34.56" width="390.6" height="221.76"/>
  </clipPath>
 </defs>
</svg>
