<?xml version="1.0" encoding="utf-8" standalone="no"?>
<!DOCTYPE svg PUBLIC "-//W3C//DTD SVG 1.1//EN"
  "http://www.w3.org/Graphics/SVG/1.1/DTD/svg11.dtd">
<svg xmlns:xlink="http://www.w3.org/1999/xlink" width="328.842188pt" height="226.194375pt" viewBox="0 0 328.842188 226.194375" xmlns="http://www.w3.org/2000/svg" version="1.1">
 <metadata>
  <rdf:RDF xmlns:dc="http://purl.org/dc/elements/1.1/" xmlns:cc="http://creativecommons.org/ns#" xmlns:rdf="http://www.w3.org/1999/02/22-rdf-syntax-ns#">
   <cc:Work>
    <dc:type rdf:resource="http://purl.org/dc/dcmitype/StillImage"/>
    <dc:date>2026-01-23T14:40:35.949660</dc:date>
    <dc:format>image/svg+xml</dc:format>
    <dc:creator>
     <cc:Agent>
      <dc:title>Matplotlib v3.10.0, https://matplotlib.org/</dc:title>
     </cc:Agent>
    </dc:creator>
   </cc:Work>
  </rdf:RDF>
 </metadata>
 <defs>
  <style type="text/css">*{stroke-linejoin: round; stroke-linecap: butt}</style>
 </defs>
 <g id="figure_1">
  <g id="patch_1">
   <path d="M 0 226.194375 
L 328.842188 226.194375 
L 328.842188 0 
L 0 0 
z
" style="fill: #ffffff"/>
  </g>
  <g id="axes_1">
   <g id="patch_2">
    <path d="M 42.642188 188.638125 
L 321.642187 188.638125 
L 321.642187 22.318125 
L 42.642188 22.318125 
z
" style="fill: #ffffff"/>
   </g>
   <g id="matplotlib.axis_1">
    <g id="xtick_1">
     <g id="line2d_1">
      <defs>
       <path id="mb7a13a20c7" d="M 0 0 
L 0 3.5 
" style="stroke: #000000; stroke-width: 0.8"/>
      </defs>
      <g>
       <use xlink:href="#mb7a13a20c7" x="55.324006" y="188.638125" style="stroke: #000000; stroke-width: 0.8"/>
      </g>
     </g>
     <g id="text_1">
      <!-- 0 -->
      <g transform="translate(52.142756 203.236563) scale(0.1 -0.1)">
       <defs>
        <path id="DejaVuSans-30" d="M 2034 4250 
Q 1547 4250 1301 3770 
Q 1056 3291 1056 2328 
Q 1056 1369 1301 889 
Q 1547 409 2034 409 
Q 2525 409 2770 889 
Q 3016 1369 3016 2328 
Q 3016 3291 2770 3770 
Q 2525 4250 2034 4250 
z
M 2034 4750 
Q 2819 4750 3233 4129 
Q 3647 3509 3647 2328 
Q 3647 1150 3233 529 
Q 2819 -91 2034 -91 
Q 1250 -91 836 529 
Q 422 1150 422 2328 
Q 422 3509 836 4129 
Q 1250 4750 2034 4750 
z
" transform="scale(0.015625)"/>
       </defs>
       <use xlink:href="#DejaVuSans-30"/>
      </g>
     </g>
    </g>
    <g id="xtick_2">
     <g id="line2d_2">
      <g>
       <use xlink:href="#mb7a13a20c7" x="106.051278" y="188.638125" style="stroke: #000000; stroke-width: 0.8"/>
      </g>
     </g>
     <g id="text_2">
      <!-- 20 -->
      <g transform="translate(99.688778 203.236563) scale(0.1 -0.1)">
       <defs>
        <path id="DejaVuSans-32" d="M 1228 531 
L 3431 531 
L 3431 0 
L 469 0 
L 469 531 
Q 828 903 1448 1529 
Q 2069 2156 2228 2338 
Q 2531 2678 2651 2914 
Q 2772 3150 2772 3378 
Q 2772 3750 2511 3984 
Q 2250 4219 1831 4219 
Q 1534 4219 1204 4116 
Q 875 4013 500 3803 
L 500 4441 
Q 881 4594 1212 4672 
Q 1544 4750 1819 4750 
Q 2544 4750 2975 4387 
Q 3406 4025 3406 3419 
Q 3406 3131 3298 2873 
Q 3191 2616 2906 2266 
Q 2828 2175 2409 1742 
Q 1991 1309 1228 531 
z
" transform="scale(0.015625)"/>
       </defs>
       <use xlink:href="#DejaVuSans-32"/>
       <use xlink:href="#DejaVuSans-30" transform="translate(63.623047 0)"/>
      </g>
     </g>
    </g>
    <g id="xtick_3">
     <g id="line2d_3">
      <g>
       <use xlink:href="#mb7a13a20c7" x="156.778551" y="188.638125" style="stroke: #000000; stroke-width: 0.8"/>
      </g>
     </g>
     <g id="text_3">
      <!-- 40 -->
      <g transform="translate(150.416051 203.236563) scale(0.1 -0.1)">
       <defs>
        <path id="DejaVuSans-34" d="M 2419 4116 
L 825 1625 
L 2419 1625 
L 2419 4116 
z
M 2253 4666 
L 3047 4666 
L 3047 1625 
L 3713 1625 
L 3713 1100 
L 3047 1100 
L 3047 0 
L 2419 0 
L 2419 1100 
L 313 1100 
L 313 1709 
L 2253 4666 
z
" transform="scale(0.015625)"/>
       </defs>
       <use xlink:href="#DejaVuSans-34"/>
       <use xlink:href="#DejaVuSans-30" transform="translate(63.623047 0)"/>
      </g>
     </g>
    </g>
    <g id="xtick_4">
     <g id="line2d_4">
      <g>
       <use xlink:href="#mb7a13a20c7" x="207.505824" y="188.638125" style="stroke: #000000; stroke-width: 0.8"/>
      </g>
     </g>
     <g id="text_4">
      <!-- 60 -->
      <g transform="translate(201.143324 203.236563) scale(0.1 -0.1)">
       <defs>
        <path id="DejaVuSans-36" d="M 2113 2584 
Q 1688 2584 1439 2293 
Q 1191 2003 1191 1497 
Q 1191 994 1439 701 
Q 1688 409 2113 409 
Q 2538 409 2786 701 
Q 3034 994 3034 1497 
Q 3034 2003 2786 2293 
Q 2538 2584 2113 2584 
z
M 3366 4563 
L 3366 3988 
Q 3128 4100 2886 4159 
Q 2644 4219 2406 4219 
Q 1781 4219 1451 3797 
Q 1122 3375 1075 2522 
Q 1259 2794 1537 2939 
Q 1816 3084 2150 3084 
Q 2853 3084 3261 2657 
Q 3669 2231 3669 1497 
Q 3669 778 3244 343 
Q 2819 -91 2113 -91 
Q 1303 -91 875 529 
Q 447 1150 447 2328 
Q 447 3434 972 4092 
Q 1497 4750 2381 4750 
Q 2619 4750 2861 4703 
Q 3103 4656 3366 4563 
z
" transform="scale(0.015625)"/>
       </defs>
       <use xlink:href="#DejaVuSans-36"/>
       <use xlink:href="#DejaVuSans-30" transform="translate(63.623047 0)"/>
      </g>
     </g>
    </g>
    <g id="xtick_5">
     <g id="line2d_5">
      <g>
       <use xlink:href="#mb7a13a20c7" x="258.233097" y="188.638125" style="stroke: #000000; stroke-width: 0.8"/>
      </g>
     </g>
     <g id="text_5">
      <!-- 80 -->
      <g transform="translate(251.870597 203.236563) scale(0.1 -0.1)">
       <defs>
        <path id="DejaVuSans-38" d="M 2034 2216 
Q 1584 2216 1326 1975 
Q 1069 1734 1069 1313 
Q 1069 891 1326 650 
Q 1584 409 2034 409 
Q 2484 409 2743 651 
Q 3003 894 3003 1313 
Q 3003 1734 2745 1975 
Q 2488 2216 2034 2216 
z
M 1403 2484 
Q 997 2584 770 2862 
Q 544 3141 544 3541 
Q 544 4100 942 4425 
Q 1341 4750 2034 4750 
Q 2731 4750 3128 4425 
Q 3525 4100 3525 3541 
Q 3525 3141 3298 2862 
Q 3072 2584 2669 2484 
Q 3125 2378 3379 2068 
Q 3634 1759 3634 1313 
Q 3634 634 3220 271 
Q 2806 -91 2034 -91 
Q 1263 -91 848 271 
Q 434 634 434 1313 
Q 434 1759 690 2068 
Q 947 2378 1403 2484 
z
M 1172 3481 
Q 1172 3119 1398 2916 
Q 1625 2713 2034 2713 
Q 2441 2713 2670 2916 
Q 2900 3119 2900 3481 
Q 2900 3844 2670 4047 
Q 2441 4250 2034 4250 
Q 1625 4250 1398 4047 
Q 1172 3844 1172 3481 
z
" transform="scale(0.015625)"/>
       </defs>
       <use xlink:href="#DejaVuSans-38"/>
       <use xlink:href="#DejaVuSans-30" transform="translate(63.623047 0)"/>
      </g>
     </g>
    </g>
    <g id="xtick_6">
     <g id="line2d_6">
      <g>
       <use xlink:href="#mb7a13a20c7" x="308.960369" y="188.638125" style="stroke: #000000; stroke-width: 0.8"/>
      </g>
     </g>
     <g id="text_6">
      <!-- 100 -->
      <g transform="translate(299.416619 203.236563) scale(0.1 -0.1)">
       <defs>
        <path id="DejaVuSans-31" d="M 794 531 
L 1825 531 
L 1825 4091 
L 703 3866 
L 703 4441 
L 1819 4666 
L 2450 4666 
L 2450 531 
L 3481 531 
L 3481 0 
L 794 0 
L 794 531 
z
" transform="scale(0.015625)"/>
       </defs>
       <use xlink:href="#DejaVuSans-31"/>
       <use xlink:href="#DejaVuSans-30" transform="translate(63.623047 0)"/>
       <use xlink:href="#DejaVuSans-30" transform="translate(127.246094 0)"/>
      </g>
     </g>
    </g>
    <g id="text_7">
     <!-- t (s) -->
     <g transform="translate(172.086719 216.914688) scale(0.1 -0.1)">
      <defs>
       <path id="DejaVuSans-74" d="M 1172 4494 
L 1172 3500 
L 2356 3500 
L 2356 3053 
L 1172 3053 
L 1172 1153 
Q 1172 725 1289 603 
Q 1406 481 1766 481 
L 2356 481 
L 2356 0 
L 1766 0 
Q 1100 0 847 248 
Q 594 497 594 1153 
L 594 3053 
L 172 3053 
L 172 3500 
L 594 3500 
L 594 4494 
L 1172 4494 
z
" transform="scale(0.015625)"/>
       <path id="DejaVuSans-20" transform="scale(0.015625)"/>
       <path id="DejaVuSans-28" d="M 1984 4856 
Q 1566 4138 1362 3434 
Q 1159 2731 1159 2009 
Q 1159 1288 1364 580 
Q 1569 -128 1984 -844 
L 1484 -844 
Q 1016 -109 783 600 
Q 550 1309 550 2009 
Q 550 2706 781 3412 
Q 1013 4119 1484 4856 
L 1984 4856 
z
" transform="scale(0.015625)"/>
       <path id="DejaVuSans-73" d="M 2834 3397 
L 2834 2853 
Q 2591 2978 2328 3040 
Q 2066 3103 1784 3103 
Q 1356 3103 1142 2972 
Q 928 2841 928 2578 
Q 928 2378 1081 2264 
Q 1234 2150 1697 2047 
L 1894 2003 
Q 2506 1872 2764 1633 
Q 3022 1394 3022 966 
Q 3022 478 2636 193 
Q 2250 -91 1575 -91 
Q 1294 -91 989 -36 
Q 684 19 347 128 
L 347 722 
Q 666 556 975 473 
Q 1284 391 1588 391 
Q 1994 391 2212 530 
Q 2431 669 2431 922 
Q 2431 1156 2273 1281 
Q 2116 1406 1581 1522 
L 1381 1569 
Q 847 1681 609 1914 
Q 372 2147 372 2553 
Q 372 3047 722 3315 
Q 1072 3584 1716 3584 
Q 2034 3584 2315 3537 
Q 2597 3491 2834 3397 
z
" transform="scale(0.015625)"/>
       <path id="DejaVuSans-29" d="M 513 4856 
L 1013 4856 
Q 1481 4119 1714 3412 
Q 1947 2706 1947 2009 
Q 1947 1309 1714 600 
Q 1481 -109 1013 -844 
L 513 -844 
Q 928 -128 1133 580 
Q 1338 1288 1338 2009 
Q 1338 2731 1133 3434 
Q 928 4138 513 4856 
z
" transform="scale(0.015625)"/>
      </defs>
      <use xlink:href="#DejaVuSans-74"/>
      <use xlink:href="#DejaVuSans-20" transform="translate(39.208984 0)"/>
      <use xlink:href="#DejaVuSans-28" transform="translate(70.996094 0)"/>
      <use xlink:href="#DejaVuSans-73" transform="translate(110.009766 0)"/>
      <use xlink:href="#DejaVuSans-29" transform="translate(162.109375 0)"/>
     </g>
    </g>
   </g>
   <g id="matplotlib.axis_2">
    <g id="ytick_1">
     <g id="line2d_7">
      <defs>
       <path id="mb1d7b14426" d="M 0 0 
L -3.5 0 
" style="stroke: #000000; stroke-width: 0.8"/>
      </defs>
      <g>
       <use xlink:href="#mb1d7b14426" x="42.642188" y="173.978482" style="stroke: #000000; stroke-width: 0.8"/>
      </g>
     </g>
     <g id="text_8">
      <!-- −4 -->
      <g transform="translate(20.9 177.777701) scale(0.1 -0.1)">
       <defs>
        <path id="DejaVuSans-2212" d="M 678 2272 
L 4684 2272 
L 4684 1741 
L 678 1741 
L 678 2272 
z
" transform="scale(0.015625)"/>
       </defs>
       <use xlink:href="#DejaVuSans-2212"/>
       <use xlink:href="#DejaVuSans-34" transform="translate(83.789062 0)"/>
      </g>
     </g>
    </g>
    <g id="ytick_2">
     <g id="line2d_8">
      <g>
       <use xlink:href="#mb1d7b14426" x="42.642188" y="138.764077" style="stroke: #000000; stroke-width: 0.8"/>
      </g>
     </g>
     <g id="text_9">
      <!-- −2 -->
      <g transform="translate(20.9 142.563296) scale(0.1 -0.1)">
       <use xlink:href="#DejaVuSans-2212"/>
       <use xlink:href="#DejaVuSans-32" transform="translate(83.789062 0)"/>
      </g>
     </g>
    </g>
    <g id="ytick_3">
     <g id="line2d_9">
      <g>
       <use xlink:href="#mb1d7b14426" x="42.642188" y="103.549672" style="stroke: #000000; stroke-width: 0.8"/>
      </g>
     </g>
     <g id="text_10">
      <!-- 0 -->
      <g transform="translate(29.279688 107.348891) scale(0.1 -0.1)">
       <use xlink:href="#DejaVuSans-30"/>
      </g>
     </g>
    </g>
    <g id="ytick_4">
     <g id="line2d_10">
      <g>
       <use xlink:href="#mb1d7b14426" x="42.642188" y="68.335267" style="stroke: #000000; stroke-width: 0.8"/>
      </g>
     </g>
     <g id="text_11">
      <!-- 2 -->
      <g transform="translate(29.279688 72.134485) scale(0.1 -0.1)">
       <use xlink:href="#DejaVuSans-32"/>
      </g>
     </g>
    </g>
    <g id="ytick_5">
     <g id="line2d_11">
      <g>
       <use xlink:href="#mb1d7b14426" x="42.642188" y="33.120862" style="stroke: #000000; stroke-width: 0.8"/>
      </g>
     </g>
     <g id="text_12">
      <!-- 4 -->
      <g transform="translate(29.279688 36.92008) scale(0.1 -0.1)">
       <use xlink:href="#DejaVuSans-34"/>
      </g>
     </g>
    </g>
    <g id="text_13">
     <!-- $\zeta$ (m) -->
     <g transform="translate(14.8 118.578125) rotate(-90) scale(0.1 -0.1)">
      <defs>
       <path id="DejaVuSans-Oblique-3b6" d="M 1966 397 
Q 2378 394 2578 159 
Q 2794 -88 2722 -463 
Q 2650 -822 2372 -1072 
Q 2069 -1344 1559 -1344 
Q 1606 -1109 1650 -872 
Q 1863 -888 2022 -750 
Q 2144 -641 2166 -525 
Q 2197 -359 2125 -222 
Q 2050 -91 1872 -91 
Q -22 -91 316 1669 
Q 616 3206 2609 4284 
L 947 4284 
L 1059 4863 
L 3778 4863 
L 3666 4284 
Q 1181 3147 894 1669 
Q 647 397 1966 397 
z
" transform="scale(0.015625)"/>
       <path id="DejaVuSans-6d" d="M 3328 2828 
Q 3544 3216 3844 3400 
Q 4144 3584 4550 3584 
Q 5097 3584 5394 3201 
Q 5691 2819 5691 2113 
L 5691 0 
L 5113 0 
L 5113 2094 
Q 5113 2597 4934 2840 
Q 4756 3084 4391 3084 
Q 3944 3084 3684 2787 
Q 3425 2491 3425 1978 
L 3425 0 
L 2847 0 
L 2847 2094 
Q 2847 2600 2669 2842 
Q 2491 3084 2119 3084 
Q 1678 3084 1418 2786 
Q 1159 2488 1159 1978 
L 1159 0 
L 581 0 
L 581 3500 
L 1159 3500 
L 1159 2956 
Q 1356 3278 1631 3431 
Q 1906 3584 2284 3584 
Q 2666 3584 2933 3390 
Q 3200 3197 3328 2828 
z
" transform="scale(0.015625)"/>
      </defs>
      <use xlink:href="#DejaVuSans-Oblique-3b6" transform="translate(0 0.015625)"/>
      <use xlink:href="#DejaVuSans-20" transform="translate(54.394531 0.015625)"/>
      <use xlink:href="#DejaVuSans-28" transform="translate(86.181641 0.015625)"/>
      <use xlink:href="#DejaVuSans-6d" transform="translate(125.195312 0.015625)"/>
      <use xlink:href="#DejaVuSans-29" transform="translate(222.607422 0.015625)"/>
     </g>
    </g>
   </g>
   <g id="line2d_12">
    <path d="M 55.324006 76.548688 
L 56.845824 60.243679 
L 57.353097 56.985985 
L 57.606733 56.057143 
L 57.860369 55.598442 
L 58.114006 55.574199 
L 58.367642 55.921929 
L 58.874915 57.38939 
L 59.88946 60.838283 
L 60.396733 61.825364 
L 60.904006 62.265946 
L 61.664915 62.697114 
L 62.172188 63.39855 
L 62.67946 64.600031 
L 63.694006 67.407789 
L 64.201278 68.091788 
L 64.454915 68.097475 
L 64.708551 67.867835 
L 65.215824 66.808213 
L 66.484006 63.492598 
L 66.737642 63.233416 
L 66.991278 63.196372 
L 67.244915 63.376354 
L 67.752188 64.261206 
L 69.020369 67.04531 
L 69.527642 67.600409 
L 70.034915 68.02701 
L 70.288551 68.367853 
L 70.542187 68.912403 
L 71.04946 70.969339 
L 71.556733 74.788931 
L 72.064006 80.644559 
L 72.824915 92.90793 
L 74.093097 118.518486 
L 76.122188 158.955935 
L 76.883097 170.705633 
L 77.390369 176.266658 
L 77.897642 179.550602 
L 78.151278 180.313125 
L 78.404915 180.529855 
L 78.658551 180.266009 
L 79.165824 178.672386 
L 80.180369 174.37934 
L 80.687642 173.164799 
L 80.941278 172.920922 
L 81.194915 172.8813 
L 81.955824 173.213928 
L 82.20946 173.138398 
L 82.463097 172.796102 
L 82.716733 172.100719 
L 83.224006 169.428952 
L 83.731278 164.981473 
L 84.492188 155.789883 
L 86.267642 133.169534 
L 87.535824 117.666892 
L 88.296733 105.443276 
L 90.833097 59.767852 
L 91.340369 55.087499 
L 91.847642 52.569959 
L 92.101278 51.984724 
L 92.354915 51.742615 
L 92.608551 51.756344 
L 93.115824 52.224088 
L 94.637642 54.251304 
L 95.144915 55.582912 
L 95.652187 58.016873 
L 96.15946 61.955492 
L 96.920369 70.77317 
L 98.695824 94.825536 
L 99.203097 98.888829 
L 99.456733 100.09404 
L 99.710369 100.738029 
L 99.964006 100.8465 
L 100.217642 100.469128 
L 100.724915 98.550047 
L 102.754006 88.000675 
L 103.261278 86.920424 
L 103.768551 86.534156 
L 104.275824 86.598651 
L 104.783097 86.915573 
L 105.290369 87.442966 
L 105.797642 88.33358 
L 106.304915 89.884212 
L 106.812187 92.412728 
L 107.31946 96.107719 
L 108.080369 103.624751 
L 109.602188 119.69243 
L 110.10946 123.193651 
L 110.616733 125.241186 
L 110.870369 125.747467 
L 111.124006 125.956957 
L 111.377642 125.920373 
L 111.884915 125.337493 
L 113.406733 122.888483 
L 114.928551 121.161518 
L 115.435824 120.027423 
L 115.943097 118.281298 
L 116.450369 115.798931 
L 117.211278 110.624095 
L 118.225824 101.611099 
L 119.494006 90.258394 
L 120.254915 85.414083 
L 120.762188 83.307853 
L 121.26946 81.955345 
L 122.030369 80.759568 
L 123.044915 79.648619 
L 123.552188 79.354567 
L 123.805824 79.389908 
L 124.05946 79.613401 
L 124.313097 80.077009 
L 124.820369 81.909843 
L 125.327642 85.157988 
L 125.834915 89.864242 
L 126.595824 99.085295 
L 128.117642 118.144414 
L 128.624915 122.380823 
L 129.132188 124.938317 
L 129.385824 125.594529 
L 129.63946 125.879706 
L 129.893097 125.849382 
L 130.146733 125.573496 
L 131.414915 123.380159 
L 131.668551 123.30299 
L 131.922188 123.462521 
L 132.175824 123.870223 
L 132.683097 125.367849 
L 134.204915 131.397708 
L 134.458551 131.918924 
L 134.712187 132.162233 
L 134.965824 132.107717 
L 135.21946 131.752536 
L 135.726733 130.204716 
L 136.234006 127.757127 
L 137.248551 121.443729 
L 140.038551 103.66589 
L 140.79946 100.326656 
L 141.306733 99.152426 
L 141.560369 98.951402 
L 141.814006 99.021023 
L 142.067642 99.359011 
L 142.574915 100.781163 
L 143.335824 104.337037 
L 145.111278 113.568917 
L 145.618551 115.186499 
L 146.125824 116.058675 
L 146.37946 116.193245 
L 146.633097 116.118301 
L 146.886733 115.828195 
L 147.394006 114.580375 
L 147.901278 112.408565 
L 148.408551 109.289934 
L 149.16946 102.908341 
L 150.184006 91.963327 
L 151.95946 72.020996 
L 152.720369 65.315758 
L 153.481278 60.277214 
L 154.242188 56.96018 
L 154.74946 55.698429 
L 155.256733 55.18656 
L 155.510369 55.209518 
L 155.764006 55.418394 
L 156.271278 56.403211 
L 156.778551 58.185689 
L 157.285824 60.85887 
L 157.793097 64.549984 
L 158.554006 72.202937 
L 159.568551 85.835112 
L 160.836733 103.149971 
L 161.344006 108.099528 
L 161.851278 111.327862 
L 162.358551 112.937887 
L 162.612188 113.270266 
L 163.11946 113.392669 
L 163.626733 113.364625 
L 163.880369 113.477357 
L 164.134006 113.739317 
L 164.641278 114.777125 
L 165.402187 117.350731 
L 166.416733 120.883105 
L 166.924006 122.051437 
L 167.431278 122.772868 
L 169.206733 124.532583 
L 169.967642 125.905207 
L 170.982188 128.310314 
L 171.996733 131.363627 
L 173.264915 135.5091 
L 173.772188 136.553755 
L 174.025824 136.780852 
L 174.27946 136.7628 
L 174.533097 136.47339 
L 174.786733 135.896988 
L 175.294006 133.87915 
L 175.801278 130.81365 
L 176.815824 122.625394 
L 178.337642 110.044365 
L 179.098551 105.360828 
L 179.85946 102.180591 
L 180.366733 100.85411 
L 180.874006 100.069508 
L 181.381278 99.745823 
L 181.888551 99.842992 
L 182.395824 100.376157 
L 182.903097 101.38935 
L 183.410369 102.891061 
L 185.185824 109.109271 
L 185.43946 109.463851 
L 185.693097 109.521533 
L 185.946733 109.245356 
L 186.200369 108.612683 
L 186.707642 106.266248 
L 187.214915 102.609282 
L 188.22946 92.726544 
L 190.004915 74.95787 
L 190.765824 69.364582 
L 191.526733 65.581779 
L 192.034006 64.017455 
L 192.541278 63.026843 
L 193.302188 62.135689 
L 193.80946 61.766791 
L 194.063097 61.682848 
L 194.316733 61.71777 
L 194.570369 61.928074 
L 194.824006 62.379473 
L 195.077642 63.140885 
L 195.584915 65.843384 
L 196.092187 70.386783 
L 196.853097 80.546607 
L 199.135824 116.047634 
L 199.896733 123.983717 
L 200.657642 130.05101 
L 201.418551 134.694092 
L 201.925824 136.885505 
L 202.433097 138.148192 
L 202.686733 138.385477 
L 202.940369 138.348943 
L 203.194006 138.039977 
L 203.701278 136.641809 
L 204.208551 134.296996 
L 204.96946 129.229718 
L 205.730369 122.513206 
L 208.013097 100.406648 
L 208.520369 97.751523 
L 209.027642 96.274356 
L 209.534915 95.539828 
L 210.042188 94.901821 
L 210.54946 93.745159 
L 211.056733 91.7196 
L 211.817642 87.241535 
L 212.832188 81.1578 
L 213.33946 79.351841 
L 213.593097 78.93193 
L 213.846733 78.864984 
L 214.100369 79.160155 
L 214.354006 79.818726 
L 214.861278 82.208327 
L 215.368551 85.976539 
L 216.12946 93.994403 
L 217.144006 107.844516 
L 218.412187 125.173353 
L 219.426733 135.603855 
L 220.948551 147.92149 
L 221.70946 153.22036 
L 222.216733 155.476451 
L 222.470369 155.973066 
L 222.724006 155.958654 
L 222.977642 155.391406 
L 223.231278 154.255566 
L 223.738551 150.350419 
L 224.49946 141.256446 
L 228.557642 85.276795 
L 229.572188 75.963477 
L 231.601278 59.089376 
L 232.615824 50.433184 
L 233.123097 47.364597 
L 233.630369 45.623098 
L 233.884006 45.268328 
L 234.137642 45.230149 
L 234.391278 45.470561 
L 234.898551 46.604062 
L 235.65946 49.330473 
L 236.420369 52.88771 
L 237.181278 57.596291 
L 237.942187 63.906381 
L 238.956733 74.557756 
L 240.732188 96.292487 
L 242.507642 118.421704 
L 243.268551 125.677943 
L 245.297642 142.425705 
L 246.058551 151.970815 
L 247.580369 172.144159 
L 248.087642 176.642192 
L 248.594915 179.484532 
L 249.102188 180.851053 
L 249.355824 181.078125 
L 249.60946 181.046774 
L 249.863097 180.775682 
L 250.116733 180.266361 
L 250.624006 178.452795 
L 251.131278 175.324773 
L 251.638551 170.555968 
L 252.39946 160.114943 
L 253.667642 137.217276 
L 255.443097 106.382535 
L 256.711278 82.780446 
L 258.486733 47.635437 
L 259.247642 37.692968 
L 259.754915 33.614811 
L 260.262187 31.262583 
L 260.76946 30.164141 
L 261.023097 29.941812 
L 261.276733 29.878125 
L 261.784006 30.119589 
L 262.291278 30.779372 
L 262.798551 31.857411 
L 263.55946 34.286612 
L 264.320369 37.610338 
L 265.081278 41.837396 
L 265.842187 47.507286 
L 266.603097 55.605722 
L 267.364006 66.775828 
L 268.632187 90.48026 
L 270.407642 123.478749 
L 271.675824 143.291545 
L 272.436733 152.673801 
L 272.944006 156.996465 
L 273.451278 159.272844 
L 273.704915 159.582738 
L 273.958551 159.352688 
L 274.212188 158.621874 
L 274.71946 155.91853 
L 275.734006 147.973256 
L 276.748551 140.613288 
L 277.50946 136.510934 
L 278.524006 132.390326 
L 279.031278 130.906728 
L 279.538551 130.019698 
L 279.792187 129.852564 
L 280.045824 129.879859 
L 280.29946 130.09095 
L 280.806733 130.936973 
L 281.567642 132.410914 
L 281.821278 132.677376 
L 282.074915 132.721366 
L 282.328551 132.494778 
L 282.582187 131.967939 
L 283.08946 129.997742 
L 283.850369 125.169303 
L 285.87946 109.087364 
L 286.894006 99.718424 
L 289.176733 76.458787 
L 289.684006 73.905989 
L 289.937642 73.247808 
L 290.191278 72.988983 
L 290.444915 73.095847 
L 290.698551 73.518223 
L 291.205824 75.046887 
L 292.220369 78.708571 
L 292.727642 79.708767 
L 292.981278 79.822092 
L 293.234915 79.645346 
L 293.488551 79.174707 
L 293.995824 77.421909 
L 294.756733 73.451727 
L 295.517642 69.623628 
L 296.024915 68.260882 
L 296.278551 68.146829 
L 296.532188 68.470741 
L 296.785824 69.253437 
L 297.293097 72.177125 
L 297.800369 76.698949 
L 298.814915 88.689948 
L 300.336733 107.096387 
L 301.097642 114.382042 
L 301.858551 119.56842 
L 302.365824 121.594017 
L 302.61946 122.148821 
L 302.873097 122.407589 
L 303.126733 122.392156 
L 303.380369 122.136172 
L 303.887642 121.084957 
L 305.40946 117.088971 
L 306.424006 115.016911 
L 306.931278 113.390483 
L 307.438551 110.804679 
L 307.945824 107.007463 
L 308.706733 99.135218 
L 308.960369 96.085109 
L 308.960369 96.085109 
" clip-path="url(#pfe741ed61d)" style="fill: none; stroke: #0000ff; stroke-width: 1.5; stroke-linecap: square"/>
   </g>
   <g id="patch_3">
    <path d="M 42.642188 188.638125 
L 42.642188 22.318125 
" style="fill: none; stroke: #000000; stroke-width: 0.8; stroke-linejoin: miter; stroke-linecap: square"/>
   </g>
   <g id="patch_4">
    <path d="M 321.642187 188.638125 
L 321.642187 22.318125 
" style="fill: none; stroke: #000000; stroke-width: 0.8; stroke-linejoin: miter; stroke-linecap: square"/>
   </g>
   <g id="patch_5">
    <path d="M 42.642188 188.638125 
L 321.642187 188.638125 
" style="fill: none; stroke: #000000; stroke-width: 0.8; stroke-linejoin: miter; stroke-linecap: square"/>
   </g>
   <g id="patch_6">
    <path d="M 42.642188 22.318125 
L 321.642187 22.318125 
" style="fill: none; stroke: #000000; stroke-width: 0.8; stroke-linejoin: miter; stroke-linecap: square"/>
   </g>
   <g id="text_14">
    <!-- Time series at $x$=0.0, $H_s$ = 8.0, $T_2$ = 10.0 -->
    <g transform="translate(58.002188 16.318125) scale(0.12 -0.12)">
     <defs>
      <path id="DejaVuSans-54" d="M -19 4666 
L 3928 4666 
L 3928 4134 
L 2272 4134 
L 2272 0 
L 1638 0 
L 1638 4134 
L -19 4134 
L -19 4666 
z
" transform="scale(0.015625)"/>
      <path id="DejaVuSans-69" d="M 603 3500 
L 1178 3500 
L 1178 0 
L 603 0 
L 603 3500 
z
M 603 4863 
L 1178 4863 
L 1178 4134 
L 603 4134 
L 603 4863 
z
" transform="scale(0.015625)"/>
      <path id="DejaVuSans-65" d="M 3597 1894 
L 3597 1613 
L 953 1613 
Q 991 1019 1311 708 
Q 1631 397 2203 397 
Q 2534 397 2845 478 
Q 3156 559 3463 722 
L 3463 178 
Q 3153 47 2828 -22 
Q 2503 -91 2169 -91 
Q 1331 -91 842 396 
Q 353 884 353 1716 
Q 353 2575 817 3079 
Q 1281 3584 2069 3584 
Q 2775 3584 3186 3129 
Q 3597 2675 3597 1894 
z
M 3022 2063 
Q 3016 2534 2758 2815 
Q 2500 3097 2075 3097 
Q 1594 3097 1305 2825 
Q 1016 2553 972 2059 
L 3022 2063 
z
" transform="scale(0.015625)"/>
      <path id="DejaVuSans-72" d="M 2631 2963 
Q 2534 3019 2420 3045 
Q 2306 3072 2169 3072 
Q 1681 3072 1420 2755 
Q 1159 2438 1159 1844 
L 1159 0 
L 581 0 
L 581 3500 
L 1159 3500 
L 1159 2956 
Q 1341 3275 1631 3429 
Q 1922 3584 2338 3584 
Q 2397 3584 2469 3576 
Q 2541 3569 2628 3553 
L 2631 2963 
z
" transform="scale(0.015625)"/>
      <path id="DejaVuSans-61" d="M 2194 1759 
Q 1497 1759 1228 1600 
Q 959 1441 959 1056 
Q 959 750 1161 570 
Q 1363 391 1709 391 
Q 2188 391 2477 730 
Q 2766 1069 2766 1631 
L 2766 1759 
L 2194 1759 
z
M 3341 1997 
L 3341 0 
L 2766 0 
L 2766 531 
Q 2569 213 2275 61 
Q 1981 -91 1556 -91 
Q 1019 -91 701 211 
Q 384 513 384 1019 
Q 384 1609 779 1909 
Q 1175 2209 1959 2209 
L 2766 2209 
L 2766 2266 
Q 2766 2663 2505 2880 
Q 2244 3097 1772 3097 
Q 1472 3097 1187 3025 
Q 903 2953 641 2809 
L 641 3341 
Q 956 3463 1253 3523 
Q 1550 3584 1831 3584 
Q 2591 3584 2966 3190 
Q 3341 2797 3341 1997 
z
" transform="scale(0.015625)"/>
      <path id="DejaVuSans-Oblique-78" d="M 3841 3500 
L 2234 1784 
L 3219 0 
L 2559 0 
L 1819 1388 
L 531 0 
L -166 0 
L 1556 1844 
L 641 3500 
L 1300 3500 
L 1972 2234 
L 3144 3500 
L 3841 3500 
z
" transform="scale(0.015625)"/>
      <path id="DejaVuSans-3d" d="M 678 2906 
L 4684 2906 
L 4684 2381 
L 678 2381 
L 678 2906 
z
M 678 1631 
L 4684 1631 
L 4684 1100 
L 678 1100 
L 678 1631 
z
" transform="scale(0.015625)"/>
      <path id="DejaVuSans-2e" d="M 684 794 
L 1344 794 
L 1344 0 
L 684 0 
L 684 794 
z
" transform="scale(0.015625)"/>
      <path id="DejaVuSans-2c" d="M 750 794 
L 1409 794 
L 1409 256 
L 897 -744 
L 494 -744 
L 750 256 
L 750 794 
z
" transform="scale(0.015625)"/>
      <path id="DejaVuSans-Oblique-48" d="M 1081 4666 
L 1716 4666 
L 1344 2753 
L 3634 2753 
L 4006 4666 
L 4641 4666 
L 3731 0 
L 3097 0 
L 3531 2222 
L 1241 2222 
L 806 0 
L 172 0 
L 1081 4666 
z
" transform="scale(0.015625)"/>
      <path id="DejaVuSans-Oblique-73" d="M 3200 3397 
L 3091 2853 
Q 2863 2978 2609 3040 
Q 2356 3103 2088 3103 
Q 1634 3103 1373 2948 
Q 1113 2794 1113 2528 
Q 1113 2219 1719 2053 
Q 1766 2041 1788 2034 
L 1972 1978 
Q 2547 1819 2739 1644 
Q 2931 1469 2931 1166 
Q 2931 609 2489 259 
Q 2047 -91 1331 -91 
Q 1053 -91 747 -37 
Q 441 16 72 128 
L 184 722 
Q 500 559 806 475 
Q 1113 391 1394 391 
Q 1816 391 2080 572 
Q 2344 753 2344 1031 
Q 2344 1331 1650 1516 
L 1591 1531 
L 1394 1581 
Q 956 1697 753 1886 
Q 550 2075 550 2369 
Q 550 2928 970 3256 
Q 1391 3584 2113 3584 
Q 2397 3584 2667 3537 
Q 2938 3491 3200 3397 
z
" transform="scale(0.015625)"/>
      <path id="DejaVuSans-Oblique-54" d="M 378 4666 
L 4325 4666 
L 4225 4134 
L 2559 4134 
L 1759 0 
L 1125 0 
L 1925 4134 
L 275 4134 
L 378 4666 
z
" transform="scale(0.015625)"/>
     </defs>
     <use xlink:href="#DejaVuSans-54" transform="translate(0 0.015625)"/>
     <use xlink:href="#DejaVuSans-69" transform="translate(61.083984 0.015625)"/>
     <use xlink:href="#DejaVuSans-6d" transform="translate(88.867188 0.015625)"/>
     <use xlink:href="#DejaVuSans-65" transform="translate(186.279297 0.015625)"/>
     <use xlink:href="#DejaVuSans-20" transform="translate(247.802734 0.015625)"/>
     <use xlink:href="#DejaVuSans-73" transform="translate(279.589844 0.015625)"/>
     <use xlink:href="#DejaVuSans-65" transform="translate(331.689453 0.015625)"/>
     <use xlink:href="#DejaVuSans-72" transform="translate(393.212891 0.015625)"/>
     <use xlink:href="#DejaVuSans-69" transform="translate(434.326172 0.015625)"/>
     <use xlink:href="#DejaVuSans-65" transform="translate(462.109375 0.015625)"/>
     <use xlink:href="#DejaVuSans-73" transform="translate(523.632812 0.015625)"/>
     <use xlink:href="#DejaVuSans-20" transform="translate(575.732422 0.015625)"/>
     <use xlink:href="#DejaVuSans-61" transform="translate(607.519531 0.015625)"/>
     <use xlink:href="#DejaVuSans-74" transform="translate(668.798828 0.015625)"/>
     <use xlink:href="#DejaVuSans-20" transform="translate(708.007812 0.015625)"/>
     <use xlink:href="#DejaVuSans-Oblique-78" transform="translate(739.794922 0.015625)"/>
     <use xlink:href="#DejaVuSans-3d" transform="translate(798.974609 0.015625)"/>
     <use xlink:href="#DejaVuSans-30" transform="translate(882.763672 0.015625)"/>
     <use xlink:href="#DejaVuSans-2e" transform="translate(946.386719 0.015625)"/>
     <use xlink:href="#DejaVuSans-30" transform="translate(978.173828 0.015625)"/>
     <use xlink:href="#DejaVuSans-2c" transform="translate(1041.796875 0.015625)"/>
     <use xlink:href="#DejaVuSans-20" transform="translate(1073.583984 0.015625)"/>
     <use xlink:href="#DejaVuSans-Oblique-48" transform="translate(1105.371094 0.015625)"/>
     <use xlink:href="#DejaVuSans-Oblique-73" transform="translate(1180.566406 -16.390625) scale(0.7)"/>
     <use xlink:href="#DejaVuSans-20" transform="translate(1219.770508 0.015625)"/>
     <use xlink:href="#DejaVuSans-3d" transform="translate(1251.557617 0.015625)"/>
     <use xlink:href="#DejaVuSans-20" transform="translate(1335.34668 0.015625)"/>
     <use xlink:href="#DejaVuSans-38" transform="translate(1367.133789 0.015625)"/>
     <use xlink:href="#DejaVuSans-2e" transform="translate(1430.756836 0.015625)"/>
     <use xlink:href="#DejaVuSans-30" transform="translate(1462.543945 0.015625)"/>
     <use xlink:href="#DejaVuSans-2c" transform="translate(1526.166992 0.015625)"/>
     <use xlink:href="#DejaVuSans-20" transform="translate(1557.954102 0.015625)"/>
     <use xlink:href="#DejaVuSans-Oblique-54" transform="translate(1589.741211 0.015625)"/>
     <use xlink:href="#DejaVuSans-32" transform="translate(1650.825195 -16.390625) scale(0.7)"/>
     <use xlink:href="#DejaVuSans-20" transform="translate(1698.095703 0.015625)"/>
     <use xlink:href="#DejaVuSans-3d" transform="translate(1729.882812 0.015625)"/>
     <use xlink:href="#DejaVuSans-20" transform="translate(1813.671875 0.015625)"/>
     <use xlink:href="#DejaVuSans-31" transform="translate(1845.458984 0.015625)"/>
     <use xlink:href="#DejaVuSans-30" transform="translate(1909.082031 0.015625)"/>
     <use xlink:href="#DejaVuSans-2e" transform="translate(1972.705078 0.015625)"/>
     <use xlink:href="#DejaVuSans-30" transform="translate(2004.492188 0.015625)"/>
    </g>
   </g>
  </g>
 </g>
 <defs>
  <clipPath id="pfe741ed61d">
   <rect x="42.642188" y="22.318125" width="279" height="166.32"/>
  </clipPath>
 </defs>
</svg>
