<?xml version="1.0" encoding="utf-8" standalone="no"?>
<!DOCTYPE svg PUBLIC "-//W3C//DTD SVG 1.1//EN"
  "http://www.w3.org/Graphics/SVG/1.1/DTD/svg11.dtd">
<svg xmlns:xlink="http://www.w3.org/1999/xlink" width="328.842188pt" height="226.194375pt" viewBox="0 0 328.842188 226.194375" xmlns="http://www.w3.org/2000/svg" version="1.1">
 <metadata>
  <rdf:RDF xmlns:dc="http://purl.org/dc/elements/1.1/" xmlns:cc="http://creativecommons.org/ns#" xmlns:rdf="http://www.w3.org/1999/02/22-rdf-syntax-ns#">
   <cc:Work>
    <dc:type rdf:resource="http://purl.org/dc/dcmitype/StillImage"/>
    <dc:date>2026-01-23T20:59:20.504346</dc:date>
    <dc:format>image/svg+xml</dc:format>
    <dc:creator>
     <cc:Agent>
      <dc:title>Matplotlib v3.10.0, https://matplotlib.org/</dc:title>
     </cc:Agent>
    </dc:creator>
   </cc:Work>
  </rdf:RDF>
 </metadata>
 <defs>
  <style type="text/css">*{stroke-linejoin: round; stroke-linecap: butt}</style>
 </defs>
 <g id="figure_1">
  <g id="patch_1">
   <path d="M 0 226.194375 
L 328.842188 226.194375 
L 328.842188 0 
L 0 0 
z
" style="fill: #ffffff"/>
  </g>
  <g id="axes_1">
   <g id="patch_2">
    <path d="M 42.642188 188.638125 
L 321.642187 188.638125 
L 321.642187 22.318125 
L 42.642188 22.318125 
z
" style="fill: #ffffff"/>
   </g>
   <g id="matplotlib.axis_1">
    <g id="xtick_1">
     <g id="line2d_1">
      <defs>
       <path id="m75135bd3c4" d="M 0 0 
L 0 3.5 
" style="stroke: #000000; stroke-width: 0.8"/>
      </defs>
      <g>
       <use xlink:href="#m75135bd3c4" x="55.324006" y="188.638125" style="stroke: #000000; stroke-width: 0.8"/>
      </g>
     </g>
     <g id="text_1">
      <!-- 0 -->
      <g transform="translate(52.142756 203.236563) scale(0.1 -0.1)">
       <defs>
        <path id="DejaVuSans-30" d="M 2034 4250 
Q 1547 4250 1301 3770 
Q 1056 3291 1056 2328 
Q 1056 1369 1301 889 
Q 1547 409 2034 409 
Q 2525 409 2770 889 
Q 3016 1369 3016 2328 
Q 3016 3291 2770 3770 
Q 2525 4250 2034 4250 
z
M 2034 4750 
Q 2819 4750 3233 4129 
Q 3647 3509 3647 2328 
Q 3647 1150 3233 529 
Q 2819 -91 2034 -91 
Q 1250 -91 836 529 
Q 422 1150 422 2328 
Q 422 3509 836 4129 
Q 1250 4750 2034 4750 
z
" transform="scale(0.015625)"/>
       </defs>
       <use xlink:href="#DejaVuSans-30"/>
      </g>
     </g>
    </g>
    <g id="xtick_2">
     <g id="line2d_2">
      <g>
       <use xlink:href="#m75135bd3c4" x="106.051278" y="188.638125" style="stroke: #000000; stroke-width: 0.8"/>
      </g>
     </g>
     <g id="text_2">
      <!-- 20 -->
      <g transform="translate(99.688778 203.236563) scale(0.1 -0.1)">
       <defs>
        <path id="DejaVuSans-32" d="M 1228 531 
L 3431 531 
L 3431 0 
L 469 0 
L 469 531 
Q 828 903 1448 1529 
Q 2069 2156 2228 2338 
Q 2531 2678 2651 2914 
Q 2772 3150 2772 3378 
Q 2772 3750 2511 3984 
Q 2250 4219 1831 4219 
Q 1534 4219 1204 4116 
Q 875 4013 500 3803 
L 500 4441 
Q 881 4594 1212 4672 
Q 1544 4750 1819 4750 
Q 2544 4750 2975 4387 
Q 3406 4025 3406 3419 
Q 3406 3131 3298 2873 
Q 3191 2616 2906 2266 
Q 2828 2175 2409 1742 
Q 1991 1309 1228 531 
z
" transform="scale(0.015625)"/>
       </defs>
       <use xlink:href="#DejaVuSans-32"/>
       <use xlink:href="#DejaVuSans-30" transform="translate(63.623047 0)"/>
      </g>
     </g>
    </g>
    <g id="xtick_3">
     <g id="line2d_3">
      <g>
       <use xlink:href="#m75135bd3c4" x="156.778551" y="188.638125" style="stroke: #000000; stroke-width: 0.8"/>
      </g>
     </g>
     <g id="text_3">
      <!-- 40 -->
      <g transform="translate(150.416051 203.236563) scale(0.1 -0.1)">
       <defs>
        <path id="DejaVuSans-34" d="M 2419 4116 
L 825 1625 
L 2419 1625 
L 2419 4116 
z
M 2253 4666 
L 3047 4666 
L 3047 1625 
L 3713 1625 
L 3713 1100 
L 3047 1100 
L 3047 0 
L 2419 0 
L 2419 1100 
L 313 1100 
L 313 1709 
L 2253 4666 
z
" transform="scale(0.015625)"/>
       </defs>
       <use xlink:href="#DejaVuSans-34"/>
       <use xlink:href="#DejaVuSans-30" transform="translate(63.623047 0)"/>
      </g>
     </g>
    </g>
    <g id="xtick_4">
     <g id="line2d_4">
      <g>
       <use xlink:href="#m75135bd3c4" x="207.505824" y="188.638125" style="stroke: #000000; stroke-width: 0.8"/>
      </g>
     </g>
     <g id="text_4">
      <!-- 60 -->
      <g transform="translate(201.143324 203.236563) scale(0.1 -0.1)">
       <defs>
        <path id="DejaVuSans-36" d="M 2113 2584 
Q 1688 2584 1439 2293 
Q 1191 2003 1191 1497 
Q 1191 994 1439 701 
Q 1688 409 2113 409 
Q 2538 409 2786 701 
Q 3034 994 3034 1497 
Q 3034 2003 2786 2293 
Q 2538 2584 2113 2584 
z
M 3366 4563 
L 3366 3988 
Q 3128 4100 2886 4159 
Q 2644 4219 2406 4219 
Q 1781 4219 1451 3797 
Q 1122 3375 1075 2522 
Q 1259 2794 1537 2939 
Q 1816 3084 2150 3084 
Q 2853 3084 3261 2657 
Q 3669 2231 3669 1497 
Q 3669 778 3244 343 
Q 2819 -91 2113 -91 
Q 1303 -91 875 529 
Q 447 1150 447 2328 
Q 447 3434 972 4092 
Q 1497 4750 2381 4750 
Q 2619 4750 2861 4703 
Q 3103 4656 3366 4563 
z
" transform="scale(0.015625)"/>
       </defs>
       <use xlink:href="#DejaVuSans-36"/>
       <use xlink:href="#DejaVuSans-30" transform="translate(63.623047 0)"/>
      </g>
     </g>
    </g>
    <g id="xtick_5">
     <g id="line2d_5">
      <g>
       <use xlink:href="#m75135bd3c4" x="258.233097" y="188.638125" style="stroke: #000000; stroke-width: 0.8"/>
      </g>
     </g>
     <g id="text_5">
      <!-- 80 -->
      <g transform="translate(251.870597 203.236563) scale(0.1 -0.1)">
       <defs>
        <path id="DejaVuSans-38" d="M 2034 2216 
Q 1584 2216 1326 1975 
Q 1069 1734 1069 1313 
Q 1069 891 1326 650 
Q 1584 409 2034 409 
Q 2484 409 2743 651 
Q 3003 894 3003 1313 
Q 3003 1734 2745 1975 
Q 2488 2216 2034 2216 
z
M 1403 2484 
Q 997 2584 770 2862 
Q 544 3141 544 3541 
Q 544 4100 942 4425 
Q 1341 4750 2034 4750 
Q 2731 4750 3128 4425 
Q 3525 4100 3525 3541 
Q 3525 3141 3298 2862 
Q 3072 2584 2669 2484 
Q 3125 2378 3379 2068 
Q 3634 1759 3634 1313 
Q 3634 634 3220 271 
Q 2806 -91 2034 -91 
Q 1263 -91 848 271 
Q 434 634 434 1313 
Q 434 1759 690 2068 
Q 947 2378 1403 2484 
z
M 1172 3481 
Q 1172 3119 1398 2916 
Q 1625 2713 2034 2713 
Q 2441 2713 2670 2916 
Q 2900 3119 2900 3481 
Q 2900 3844 2670 4047 
Q 2441 4250 2034 4250 
Q 1625 4250 1398 4047 
Q 1172 3844 1172 3481 
z
" transform="scale(0.015625)"/>
       </defs>
       <use xlink:href="#DejaVuSans-38"/>
       <use xlink:href="#DejaVuSans-30" transform="translate(63.623047 0)"/>
      </g>
     </g>
    </g>
    <g id="xtick_6">
     <g id="line2d_6">
      <g>
       <use xlink:href="#m75135bd3c4" x="308.960369" y="188.638125" style="stroke: #000000; stroke-width: 0.8"/>
      </g>
     </g>
     <g id="text_6">
      <!-- 100 -->
      <g transform="translate(299.416619 203.236563) scale(0.1 -0.1)">
       <defs>
        <path id="DejaVuSans-31" d="M 794 531 
L 1825 531 
L 1825 4091 
L 703 3866 
L 703 4441 
L 1819 4666 
L 2450 4666 
L 2450 531 
L 3481 531 
L 3481 0 
L 794 0 
L 794 531 
z
" transform="scale(0.015625)"/>
       </defs>
       <use xlink:href="#DejaVuSans-31"/>
       <use xlink:href="#DejaVuSans-30" transform="translate(63.623047 0)"/>
       <use xlink:href="#DejaVuSans-30" transform="translate(127.246094 0)"/>
      </g>
     </g>
    </g>
    <g id="text_7">
     <!-- t (s) -->
     <g transform="translate(172.086719 216.914688) scale(0.1 -0.1)">
      <defs>
       <path id="DejaVuSans-74" d="M 1172 4494 
L 1172 3500 
L 2356 3500 
L 2356 3053 
L 1172 3053 
L 1172 1153 
Q 1172 725 1289 603 
Q 1406 481 1766 481 
L 2356 481 
L 2356 0 
L 1766 0 
Q 1100 0 847 248 
Q 594 497 594 1153 
L 594 3053 
L 172 3053 
L 172 3500 
L 594 3500 
L 594 4494 
L 1172 4494 
z
" transform="scale(0.015625)"/>
       <path id="DejaVuSans-20" transform="scale(0.015625)"/>
       <path id="DejaVuSans-28" d="M 1984 4856 
Q 1566 4138 1362 3434 
Q 1159 2731 1159 2009 
Q 1159 1288 1364 580 
Q 1569 -128 1984 -844 
L 1484 -844 
Q 1016 -109 783 600 
Q 550 1309 550 2009 
Q 550 2706 781 3412 
Q 1013 4119 1484 4856 
L 1984 4856 
z
" transform="scale(0.015625)"/>
       <path id="DejaVuSans-73" d="M 2834 3397 
L 2834 2853 
Q 2591 2978 2328 3040 
Q 2066 3103 1784 3103 
Q 1356 3103 1142 2972 
Q 928 2841 928 2578 
Q 928 2378 1081 2264 
Q 1234 2150 1697 2047 
L 1894 2003 
Q 2506 1872 2764 1633 
Q 3022 1394 3022 966 
Q 3022 478 2636 193 
Q 2250 -91 1575 -91 
Q 1294 -91 989 -36 
Q 684 19 347 128 
L 347 722 
Q 666 556 975 473 
Q 1284 391 1588 391 
Q 1994 391 2212 530 
Q 2431 669 2431 922 
Q 2431 1156 2273 1281 
Q 2116 1406 1581 1522 
L 1381 1569 
Q 847 1681 609 1914 
Q 372 2147 372 2553 
Q 372 3047 722 3315 
Q 1072 3584 1716 3584 
Q 2034 3584 2315 3537 
Q 2597 3491 2834 3397 
z
" transform="scale(0.015625)"/>
       <path id="DejaVuSans-29" d="M 513 4856 
L 1013 4856 
Q 1481 4119 1714 3412 
Q 1947 2706 1947 2009 
Q 1947 1309 1714 600 
Q 1481 -109 1013 -844 
L 513 -844 
Q 928 -128 1133 580 
Q 1338 1288 1338 2009 
Q 1338 2731 1133 3434 
Q 928 4138 513 4856 
z
" transform="scale(0.015625)"/>
      </defs>
      <use xlink:href="#DejaVuSans-74"/>
      <use xlink:href="#DejaVuSans-20" transform="translate(39.208984 0)"/>
      <use xlink:href="#DejaVuSans-28" transform="translate(70.996094 0)"/>
      <use xlink:href="#DejaVuSans-73" transform="translate(110.009766 0)"/>
      <use xlink:href="#DejaVuSans-29" transform="translate(162.109375 0)"/>
     </g>
    </g>
   </g>
   <g id="matplotlib.axis_2">
    <g id="ytick_1">
     <g id="line2d_7">
      <defs>
       <path id="mf439d4d23b" d="M 0 0 
L -3.5 0 
" style="stroke: #000000; stroke-width: 0.8"/>
      </defs>
      <g>
       <use xlink:href="#mf439d4d23b" x="42.642188" y="163.909892" style="stroke: #000000; stroke-width: 0.8"/>
      </g>
     </g>
     <g id="text_8">
      <!-- −4 -->
      <g transform="translate(20.9 167.709111) scale(0.1 -0.1)">
       <defs>
        <path id="DejaVuSans-2212" d="M 678 2272 
L 4684 2272 
L 4684 1741 
L 678 1741 
L 678 2272 
z
" transform="scale(0.015625)"/>
       </defs>
       <use xlink:href="#DejaVuSans-2212"/>
       <use xlink:href="#DejaVuSans-34" transform="translate(83.789062 0)"/>
      </g>
     </g>
    </g>
    <g id="ytick_2">
     <g id="line2d_8">
      <g>
       <use xlink:href="#mf439d4d23b" x="42.642188" y="130.874237" style="stroke: #000000; stroke-width: 0.8"/>
      </g>
     </g>
     <g id="text_9">
      <!-- −2 -->
      <g transform="translate(20.9 134.673456) scale(0.1 -0.1)">
       <use xlink:href="#DejaVuSans-2212"/>
       <use xlink:href="#DejaVuSans-32" transform="translate(83.789062 0)"/>
      </g>
     </g>
    </g>
    <g id="ytick_3">
     <g id="line2d_9">
      <g>
       <use xlink:href="#mf439d4d23b" x="42.642188" y="97.838582" style="stroke: #000000; stroke-width: 0.8"/>
      </g>
     </g>
     <g id="text_10">
      <!-- 0 -->
      <g transform="translate(29.279688 101.637801) scale(0.1 -0.1)">
       <use xlink:href="#DejaVuSans-30"/>
      </g>
     </g>
    </g>
    <g id="ytick_4">
     <g id="line2d_10">
      <g>
       <use xlink:href="#mf439d4d23b" x="42.642188" y="64.802927" style="stroke: #000000; stroke-width: 0.8"/>
      </g>
     </g>
     <g id="text_11">
      <!-- 2 -->
      <g transform="translate(29.279688 68.602146) scale(0.1 -0.1)">
       <use xlink:href="#DejaVuSans-32"/>
      </g>
     </g>
    </g>
    <g id="ytick_5">
     <g id="line2d_11">
      <g>
       <use xlink:href="#mf439d4d23b" x="42.642188" y="31.767272" style="stroke: #000000; stroke-width: 0.8"/>
      </g>
     </g>
     <g id="text_12">
      <!-- 4 -->
      <g transform="translate(29.279688 35.566491) scale(0.1 -0.1)">
       <use xlink:href="#DejaVuSans-34"/>
      </g>
     </g>
    </g>
    <g id="text_13">
     <!-- $\zeta$ (m) -->
     <g transform="translate(14.8 118.578125) rotate(-90) scale(0.1 -0.1)">
      <defs>
       <path id="DejaVuSans-Oblique-3b6" d="M 1966 397 
Q 2378 394 2578 159 
Q 2794 -88 2722 -463 
Q 2650 -822 2372 -1072 
Q 2069 -1344 1559 -1344 
Q 1606 -1109 1650 -872 
Q 1863 -888 2022 -750 
Q 2144 -641 2166 -525 
Q 2197 -359 2125 -222 
Q 2050 -91 1872 -91 
Q -22 -91 316 1669 
Q 616 3206 2609 4284 
L 947 4284 
L 1059 4863 
L 3778 4863 
L 3666 4284 
Q 1181 3147 894 1669 
Q 647 397 1966 397 
z
" transform="scale(0.015625)"/>
       <path id="DejaVuSans-6d" d="M 3328 2828 
Q 3544 3216 3844 3400 
Q 4144 3584 4550 3584 
Q 5097 3584 5394 3201 
Q 5691 2819 5691 2113 
L 5691 0 
L 5113 0 
L 5113 2094 
Q 5113 2597 4934 2840 
Q 4756 3084 4391 3084 
Q 3944 3084 3684 2787 
Q 3425 2491 3425 1978 
L 3425 0 
L 2847 0 
L 2847 2094 
Q 2847 2600 2669 2842 
Q 2491 3084 2119 3084 
Q 1678 3084 1418 2786 
Q 1159 2488 1159 1978 
L 1159 0 
L 581 0 
L 581 3500 
L 1159 3500 
L 1159 2956 
Q 1356 3278 1631 3431 
Q 1906 3584 2284 3584 
Q 2666 3584 2933 3390 
Q 3200 3197 3328 2828 
z
" transform="scale(0.015625)"/>
      </defs>
      <use xlink:href="#DejaVuSans-Oblique-3b6" transform="translate(0 0.015625)"/>
      <use xlink:href="#DejaVuSans-20" transform="translate(54.394531 0.015625)"/>
      <use xlink:href="#DejaVuSans-28" transform="translate(86.181641 0.015625)"/>
      <use xlink:href="#DejaVuSans-6d" transform="translate(125.195312 0.015625)"/>
      <use xlink:href="#DejaVuSans-29" transform="translate(222.607422 0.015625)"/>
     </g>
    </g>
   </g>
   <g id="line2d_12">
    <path d="M 55.324006 72.957599 
L 57.09946 52.807291 
L 57.606733 49.179316 
L 58.114006 47.272539 
L 58.367642 46.989693 
L 58.621278 47.129841 
L 58.874915 47.653118 
L 59.382188 49.620194 
L 61.411278 59.906578 
L 61.918551 61.347499 
L 63.694006 65.237609 
L 64.454915 68.206343 
L 65.976733 75.104466 
L 66.484006 76.53719 
L 66.991278 77.213228 
L 67.244915 77.287906 
L 67.752188 77.06538 
L 68.513097 76.532602 
L 68.766733 76.517191 
L 69.020369 76.663586 
L 69.274006 77.007293 
L 69.781278 78.36587 
L 70.288551 80.612825 
L 71.04946 85.197308 
L 72.571278 94.656437 
L 74.346733 103.963688 
L 74.854006 107.950014 
L 75.614915 116.337095 
L 76.375824 127.625269 
L 78.912188 168.513164 
L 79.673097 175.988806 
L 80.180369 179.130706 
L 80.687642 180.798735 
L 80.941278 181.078125 
L 81.194915 180.981144 
L 81.448551 180.498728 
L 81.702188 179.619257 
L 82.20946 176.61886 
L 82.716733 171.901555 
L 83.477642 161.673465 
L 84.492188 143.559825 
L 86.014006 115.82833 
L 86.774915 105.7207 
L 87.535824 98.717836 
L 89.564915 83.2331 
L 90.325824 74.082138 
L 92.608551 42.996989 
L 93.115824 38.641155 
L 93.623097 35.72149 
L 94.130369 34.00916 
L 94.637642 33.103723 
L 96.413097 30.892031 
L 96.920369 30.154933 
L 97.174006 29.927426 
L 97.427642 29.878125 
L 97.681278 30.075057 
L 97.934915 30.585121 
L 98.188551 31.469864 
L 98.695824 34.559514 
L 99.203097 39.592802 
L 99.964006 50.658684 
L 101.232188 74.766057 
L 102.246733 93.238035 
L 103.007642 103.904023 
L 103.768551 111.45699 
L 104.52946 116.768227 
L 107.573097 134.341085 
L 108.080369 135.833623 
L 108.334006 136.073729 
L 108.587642 135.919659 
L 108.841278 135.343468 
L 109.348551 132.886342 
L 109.855824 128.787008 
L 110.616733 120.361616 
L 111.884915 105.426265 
L 112.392188 101.094221 
L 112.89946 98.450174 
L 113.153097 97.832032 
L 113.406733 97.688431 
L 113.660369 98.003385 
L 113.914006 98.746301 
L 114.421278 101.332092 
L 115.182187 107.054427 
L 116.450369 117.22342 
L 117.211278 121.654566 
L 117.718551 123.648341 
L 118.225824 124.974173 
L 118.733097 125.799759 
L 119.240369 126.288959 
L 119.747642 126.538777 
L 120.254915 126.539088 
L 120.762188 126.165389 
L 121.26946 125.207085 
L 121.776733 123.425006 
L 122.284006 120.624279 
L 122.791278 116.72415 
L 123.552188 109.039854 
L 125.581278 86.658068 
L 126.088551 83.03449 
L 126.595824 80.736595 
L 127.103097 79.719605 
L 127.356733 79.629274 
L 127.610369 79.767685 
L 128.117642 80.551457 
L 129.893097 84.24661 
L 130.400369 84.743368 
L 130.907642 84.966616 
L 132.175824 85.32835 
L 132.683097 85.855076 
L 133.190369 86.814026 
L 133.697642 88.282831 
L 134.458551 91.473014 
L 135.473097 97.224507 
L 136.994915 106.325823 
L 137.502187 108.541698 
L 138.00946 109.975936 
L 138.263097 110.356281 
L 138.516733 110.501489 
L 138.770369 110.412553 
L 139.024006 110.097789 
L 139.531278 108.858224 
L 140.292187 105.864564 
L 144.096733 87.88952 
L 144.857642 82.358536 
L 145.872187 72.915234 
L 147.140369 60.815073 
L 147.647642 57.243798 
L 148.154915 55.020652 
L 148.408551 54.506991 
L 148.662188 54.421931 
L 148.915824 54.77406 
L 149.16946 55.560165 
L 149.676733 58.362291 
L 150.184006 62.573343 
L 151.198551 73.491703 
L 152.213097 84.27327 
L 152.974006 90.174049 
L 153.481278 92.707609 
L 153.988551 94.221559 
L 154.495824 95.011914 
L 155.510369 96.148254 
L 156.017642 97.371891 
L 156.524915 99.456129 
L 157.032187 102.505161 
L 157.793097 108.641914 
L 159.822188 126.321714 
L 160.583097 130.402538 
L 161.090369 132.011523 
L 161.597642 132.813618 
L 161.851278 132.949514 
L 162.104915 132.92929 
L 162.612188 132.472566 
L 163.11946 131.519591 
L 163.626733 130.099276 
L 164.387642 127.07875 
L 165.148551 122.99135 
L 166.416733 114.545169 
L 167.431278 108.091953 
L 168.192187 104.724745 
L 168.69946 103.535409 
L 168.953097 103.290974 
L 169.206733 103.28101 
L 169.460369 103.498879 
L 169.967642 104.565112 
L 170.474915 106.340707 
L 171.235824 109.893943 
L 173.011278 118.694417 
L 173.772188 121.354307 
L 174.27946 122.478319 
L 174.786733 122.984117 
L 175.040369 122.979434 
L 175.294006 122.789308 
L 175.547642 122.403686 
L 176.054915 121.008911 
L 176.562187 118.733774 
L 177.06946 115.549142 
L 177.830369 109.124516 
L 178.844915 98.048798 
L 181.634915 65.044696 
L 182.64946 56.216024 
L 183.410369 51.318781 
L 184.171278 47.949177 
L 184.678551 46.554406 
L 185.185824 45.837315 
L 185.43946 45.731542 
L 185.693097 45.793993 
L 185.946733 46.025169 
L 186.454006 47.000744 
L 186.961278 48.68619 
L 187.468551 51.134127 
L 188.22946 56.395016 
L 188.990369 63.744746 
L 190.004915 76.600237 
L 192.034006 104.115101 
L 192.541278 108.747515 
L 193.048551 111.791432 
L 193.555824 113.233992 
L 193.80946 113.417011 
L 194.063097 113.301636 
L 194.570369 112.41693 
L 195.838551 109.479192 
L 196.092187 109.218101 
L 196.345824 109.144383 
L 196.59946 109.264921 
L 197.106733 110.049803 
L 197.867642 112.16719 
L 198.882188 115.106608 
L 199.38946 116.039306 
L 199.896733 116.484158 
L 200.404006 116.513549 
L 201.164915 116.149115 
L 201.925824 115.848595 
L 202.433097 115.887929 
L 202.940369 116.149406 
L 203.701278 116.845347 
L 205.730369 118.87435 
L 206.491278 119.315014 
L 206.998551 119.360038 
L 207.505824 119.054602 
L 208.013097 118.231851 
L 208.520369 116.729467 
L 209.027642 114.433853 
L 209.788551 109.476643 
L 210.803097 100.757076 
L 212.324915 87.558316 
L 213.085824 82.882725 
L 213.593097 80.839487 
L 214.100369 79.689561 
L 214.354006 79.4376 
L 214.607642 79.387881 
L 214.861278 79.52727 
L 215.368551 80.310743 
L 215.875824 81.648283 
L 216.636733 84.355507 
L 219.173097 94.173257 
L 220.187642 97.145857 
L 220.948551 98.737799 
L 221.455824 99.299276 
L 221.70946 99.370642 
L 221.963097 99.273456 
L 222.216733 98.987298 
L 222.724006 97.782879 
L 223.231278 95.681988 
L 223.992188 90.974815 
L 226.274915 74.700911 
L 226.782188 72.977729 
L 227.035824 72.565398 
L 227.28946 72.462594 
L 227.543097 72.667152 
L 227.796733 73.170244 
L 228.304006 75.01053 
L 228.811278 77.825485 
L 229.572188 83.459141 
L 230.840369 95.004438 
L 232.615824 110.923082 
L 233.630369 118.071492 
L 237.181278 139.566939 
L 237.688551 141.19651 
L 237.942187 141.488596 
L 238.195824 141.366183 
L 238.44946 140.793323 
L 238.703097 139.748163 
L 239.210369 136.233559 
L 239.717642 130.971305 
L 240.732188 116.887246 
L 242.254006 94.815108 
L 243.268551 83.210103 
L 244.283097 74.006086 
L 245.297642 66.534283 
L 246.058551 62.311857 
L 246.565824 60.420629 
L 247.073097 59.41315 
L 247.326733 59.260289 
L 247.580369 59.34244 
L 247.834006 59.655236 
L 248.341278 60.940834 
L 248.848551 63.040198 
L 249.60946 67.555081 
L 250.370369 73.550342 
L 251.384915 83.411308 
L 252.906733 98.630014 
L 253.667642 103.926323 
L 254.174915 106.022125 
L 254.682188 107.011296 
L 254.935824 107.171644 
L 255.443097 107.083981 
L 255.950369 106.866692 
L 256.204006 106.863709 
L 256.457642 107.001611 
L 256.711278 107.319659 
L 257.218551 108.581647 
L 257.725824 110.663196 
L 259.754915 120.610709 
L 260.008551 121.138617 
L 260.262187 121.367637 
L 260.515824 121.280724 
L 260.76946 120.870553 
L 261.276733 119.092593 
L 261.784006 116.118803 
L 262.544915 109.743353 
L 263.55946 98.584546 
L 265.842187 71.708968 
L 266.603097 65.987821 
L 267.110369 63.719051 
L 267.617642 62.614904 
L 267.871278 62.431945 
L 268.124915 62.446653 
L 268.632187 62.916115 
L 269.393097 64.269859 
L 270.154006 66.207591 
L 270.661278 68.102564 
L 271.168551 70.873675 
L 271.675824 74.873372 
L 272.183097 80.331687 
L 272.944006 91.209926 
L 275.734006 136.35747 
L 276.494915 143.666724 
L 277.002187 147.000105 
L 277.50946 149.271513 
L 278.016733 150.608618 
L 278.270369 150.951904 
L 278.524006 151.085056 
L 278.777642 151.010611 
L 279.031278 150.730929 
L 279.538551 149.574509 
L 280.045824 147.691424 
L 280.806733 143.859763 
L 283.08946 131.560283 
L 284.104006 125.860174 
L 284.864915 119.827812 
L 285.625824 111.669119 
L 286.894006 94.814242 
L 288.162188 78.687682 
L 289.176733 68.603099 
L 290.444915 58.591646 
L 291.713097 50.149925 
L 292.474006 46.325217 
L 292.981278 44.594272 
L 293.488551 43.611568 
L 293.742188 43.402205 
L 293.995824 43.373592 
L 294.24946 43.517256 
L 294.756733 44.285214 
L 295.264006 45.6469 
L 295.771278 47.581393 
L 296.532188 51.600636 
L 297.293097 56.996077 
L 298.814915 70.29399 
L 299.82946 78.130215 
L 300.590369 82.441093 
L 301.858551 88.798465 
L 302.365824 92.397239 
L 302.873097 97.214383 
L 303.634006 106.928676 
L 306.677642 150.947236 
L 307.438551 157.087978 
L 308.19946 161.297142 
L 308.706733 163.212062 
L 308.960369 163.886006 
L 308.960369 163.886006 
" clip-path="url(#p8ee655012d)" style="fill: none; stroke: #0000ff; stroke-width: 1.5; stroke-linecap: square"/>
   </g>
   <g id="patch_3">
    <path d="M 42.642188 188.638125 
L 42.642188 22.318125 
" style="fill: none; stroke: #000000; stroke-width: 0.8; stroke-linejoin: miter; stroke-linecap: square"/>
   </g>
   <g id="patch_4">
    <path d="M 321.642187 188.638125 
L 321.642187 22.318125 
" style="fill: none; stroke: #000000; stroke-width: 0.8; stroke-linejoin: miter; stroke-linecap: square"/>
   </g>
   <g id="patch_5">
    <path d="M 42.642188 188.638125 
L 321.642187 188.638125 
" style="fill: none; stroke: #000000; stroke-width: 0.8; stroke-linejoin: miter; stroke-linecap: square"/>
   </g>
   <g id="patch_6">
    <path d="M 42.642188 22.318125 
L 321.642187 22.318125 
" style="fill: none; stroke: #000000; stroke-width: 0.8; stroke-linejoin: miter; stroke-linecap: square"/>
   </g>
   <g id="text_14">
    <!-- Time series at $x$=0.0, $H_s$ = 8.0, $T_2$ = 10.0 -->
    <g transform="translate(58.002188 16.318125) scale(0.12 -0.12)">
     <defs>
      <path id="DejaVuSans-54" d="M -19 4666 
L 3928 4666 
L 3928 4134 
L 2272 4134 
L 2272 0 
L 1638 0 
L 1638 4134 
L -19 4134 
L -19 4666 
z
" transform="scale(0.015625)"/>
      <path id="DejaVuSans-69" d="M 603 3500 
L 1178 3500 
L 1178 0 
L 603 0 
L 603 3500 
z
M 603 4863 
L 1178 4863 
L 1178 4134 
L 603 4134 
L 603 4863 
z
" transform="scale(0.015625)"/>
      <path id="DejaVuSans-65" d="M 3597 1894 
L 3597 1613 
L 953 1613 
Q 991 1019 1311 708 
Q 1631 397 2203 397 
Q 2534 397 2845 478 
Q 3156 559 3463 722 
L 3463 178 
Q 3153 47 2828 -22 
Q 2503 -91 2169 -91 
Q 1331 -91 842 396 
Q 353 884 353 1716 
Q 353 2575 817 3079 
Q 1281 3584 2069 3584 
Q 2775 3584 3186 3129 
Q 3597 2675 3597 1894 
z
M 3022 2063 
Q 3016 2534 2758 2815 
Q 2500 3097 2075 3097 
Q 1594 3097 1305 2825 
Q 1016 2553 972 2059 
L 3022 2063 
z
" transform="scale(0.015625)"/>
      <path id="DejaVuSans-72" d="M 2631 2963 
Q 2534 3019 2420 3045 
Q 2306 3072 2169 3072 
Q 1681 3072 1420 2755 
Q 1159 2438 1159 1844 
L 1159 0 
L 581 0 
L 581 3500 
L 1159 3500 
L 1159 2956 
Q 1341 3275 1631 3429 
Q 1922 3584 2338 3584 
Q 2397 3584 2469 3576 
Q 2541 3569 2628 3553 
L 2631 2963 
z
" transform="scale(0.015625)"/>
      <path id="DejaVuSans-61" d="M 2194 1759 
Q 1497 1759 1228 1600 
Q 959 1441 959 1056 
Q 959 750 1161 570 
Q 1363 391 1709 391 
Q 2188 391 2477 730 
Q 2766 1069 2766 1631 
L 2766 1759 
L 2194 1759 
z
M 3341 1997 
L 3341 0 
L 2766 0 
L 2766 531 
Q 2569 213 2275 61 
Q 1981 -91 1556 -91 
Q 1019 -91 701 211 
Q 384 513 384 1019 
Q 384 1609 779 1909 
Q 1175 2209 1959 2209 
L 2766 2209 
L 2766 2266 
Q 2766 2663 2505 2880 
Q 2244 3097 1772 3097 
Q 1472 3097 1187 3025 
Q 903 2953 641 2809 
L 641 3341 
Q 956 3463 1253 3523 
Q 1550 3584 1831 3584 
Q 2591 3584 2966 3190 
Q 3341 2797 3341 1997 
z
" transform="scale(0.015625)"/>
      <path id="DejaVuSans-Oblique-78" d="M 3841 3500 
L 2234 1784 
L 3219 0 
L 2559 0 
L 1819 1388 
L 531 0 
L -166 0 
L 1556 1844 
L 641 3500 
L 1300 3500 
L 1972 2234 
L 3144 3500 
L 3841 3500 
z
" transform="scale(0.015625)"/>
      <path id="DejaVuSans-3d" d="M 678 2906 
L 4684 2906 
L 4684 2381 
L 678 2381 
L 678 2906 
z
M 678 1631 
L 4684 1631 
L 4684 1100 
L 678 1100 
L 678 1631 
z
" transform="scale(0.015625)"/>
      <path id="DejaVuSans-2e" d="M 684 794 
L 1344 794 
L 1344 0 
L 684 0 
L 684 794 
z
" transform="scale(0.015625)"/>
      <path id="DejaVuSans-2c" d="M 750 794 
L 1409 794 
L 1409 256 
L 897 -744 
L 494 -744 
L 750 256 
L 750 794 
z
" transform="scale(0.015625)"/>
      <path id="DejaVuSans-Oblique-48" d="M 1081 4666 
L 1716 4666 
L 1344 2753 
L 3634 2753 
L 4006 4666 
L 4641 4666 
L 3731 0 
L 3097 0 
L 3531 2222 
L 1241 2222 
L 806 0 
L 172 0 
L 1081 4666 
z
" transform="scale(0.015625)"/>
      <path id="DejaVuSans-Oblique-73" d="M 3200 3397 
L 3091 2853 
Q 2863 2978 2609 3040 
Q 2356 3103 2088 3103 
Q 1634 3103 1373 2948 
Q 1113 2794 1113 2528 
Q 1113 2219 1719 2053 
Q 1766 2041 1788 2034 
L 1972 1978 
Q 2547 1819 2739 1644 
Q 2931 1469 2931 1166 
Q 2931 609 2489 259 
Q 2047 -91 1331 -91 
Q 1053 -91 747 -37 
Q 441 16 72 128 
L 184 722 
Q 500 559 806 475 
Q 1113 391 1394 391 
Q 1816 391 2080 572 
Q 2344 753 2344 1031 
Q 2344 1331 1650 1516 
L 1591 1531 
L 1394 1581 
Q 956 1697 753 1886 
Q 550 2075 550 2369 
Q 550 2928 970 3256 
Q 1391 3584 2113 3584 
Q 2397 3584 2667 3537 
Q 2938 3491 3200 3397 
z
" transform="scale(0.015625)"/>
      <path id="DejaVuSans-Oblique-54" d="M 378 4666 
L 4325 4666 
L 4225 4134 
L 2559 4134 
L 1759 0 
L 1125 0 
L 1925 4134 
L 275 4134 
L 378 4666 
z
" transform="scale(0.015625)"/>
     </defs>
     <use xlink:href="#DejaVuSans-54" transform="translate(0 0.015625)"/>
     <use xlink:href="#DejaVuSans-69" transform="translate(61.083984 0.015625)"/>
     <use xlink:href="#DejaVuSans-6d" transform="translate(88.867188 0.015625)"/>
     <use xlink:href="#DejaVuSans-65" transform="translate(186.279297 0.015625)"/>
     <use xlink:href="#DejaVuSans-20" transform="translate(247.802734 0.015625)"/>
     <use xlink:href="#DejaVuSans-73" transform="translate(279.589844 0.015625)"/>
     <use xlink:href="#DejaVuSans-65" transform="translate(331.689453 0.015625)"/>
     <use xlink:href="#DejaVuSans-72" transform="translate(393.212891 0.015625)"/>
     <use xlink:href="#DejaVuSans-69" transform="translate(434.326172 0.015625)"/>
     <use xlink:href="#DejaVuSans-65" transform="translate(462.109375 0.015625)"/>
     <use xlink:href="#DejaVuSans-73" transform="translate(523.632812 0.015625)"/>
     <use xlink:href="#DejaVuSans-20" transform="translate(575.732422 0.015625)"/>
     <use xlink:href="#DejaVuSans-61" transform="translate(607.519531 0.015625)"/>
     <use xlink:href="#DejaVuSans-74" transform="translate(668.798828 0.015625)"/>
     <use xlink:href="#DejaVuSans-20" transform="translate(708.007812 0.015625)"/>
     <use xlink:href="#DejaVuSans-Oblique-78" transform="translate(739.794922 0.015625)"/>
     <use xlink:href="#DejaVuSans-3d" transform="translate(798.974609 0.015625)"/>
     <use xlink:href="#DejaVuSans-30" transform="translate(882.763672 0.015625)"/>
     <use xlink:href="#DejaVuSans-2e" transform="translate(946.386719 0.015625)"/>
     <use xlink:href="#DejaVuSans-30" transform="translate(978.173828 0.015625)"/>
     <use xlink:href="#DejaVuSans-2c" transform="translate(1041.796875 0.015625)"/>
     <use xlink:href="#DejaVuSans-20" transform="translate(1073.583984 0.015625)"/>
     <use xlink:href="#DejaVuSans-Oblique-48" transform="translate(1105.371094 0.015625)"/>
     <use xlink:href="#DejaVuSans-Oblique-73" transform="translate(1180.566406 -16.390625) scale(0.7)"/>
     <use xlink:href="#DejaVuSans-20" transform="translate(1219.770508 0.015625)"/>
     <use xlink:href="#DejaVuSans-3d" transform="translate(1251.557617 0.015625)"/>
     <use xlink:href="#DejaVuSans-20" transform="translate(1335.34668 0.015625)"/>
     <use xlink:href="#DejaVuSans-38" transform="translate(1367.133789 0.015625)"/>
     <use xlink:href="#DejaVuSans-2e" transform="translate(1430.756836 0.015625)"/>
     <use xlink:href="#DejaVuSans-30" transform="translate(1462.543945 0.015625)"/>
     <use xlink:href="#DejaVuSans-2c" transform="translate(1526.166992 0.015625)"/>
     <use xlink:href="#DejaVuSans-20" transform="translate(1557.954102 0.015625)"/>
     <use xlink:href="#DejaVuSans-Oblique-54" transform="translate(1589.741211 0.015625)"/>
     <use xlink:href="#DejaVuSans-32" transform="translate(1650.825195 -16.390625) scale(0.7)"/>
     <use xlink:href="#DejaVuSans-20" transform="translate(1698.095703 0.015625)"/>
     <use xlink:href="#DejaVuSans-3d" transform="translate(1729.882812 0.015625)"/>
     <use xlink:href="#DejaVuSans-20" transform="translate(1813.671875 0.015625)"/>
     <use xlink:href="#DejaVuSans-31" transform="translate(1845.458984 0.015625)"/>
     <use xlink:href="#DejaVuSans-30" transform="translate(1909.082031 0.015625)"/>
     <use xlink:href="#DejaVuSans-2e" transform="translate(1972.705078 0.015625)"/>
     <use xlink:href="#DejaVuSans-30" transform="translate(2004.492188 0.015625)"/>
    </g>
   </g>
  </g>
 </g>
 <defs>
  <clipPath id="p8ee655012d">
   <rect x="42.642188" y="22.318125" width="279" height="166.32"/>
  </clipPath>
 </defs>
</svg>
